<svg width="32" height="32" viewBox="0 0 32 32" fill="none" xmlns="http://www.w3.org/2000/svg">
<path d="M31.6935 4.79273C31.4005 4.25087 30.9514 3.9399 30.4618 3.9399H6.09031L5.77528 2.26323C5.52497 0.930445 4.65422 0 3.6576 0H0.355555C0.159289 0 0 0.220084 0 0.49126C0 0.762435 0.159289 0.982519 0.355555 0.982519H3.6576C4.33031 0.982519 4.91804 1.61084 5.08728 2.51034L9.05706 23.632C9.09759 23.8487 9.2391 24 9.40124 24H27.9616C28.1582 24 28.3171 23.7804 28.3171 23.5087C28.3171 23.2371 28.1582 23.0175 27.9616 23.0175H9.67608L8.82346 18.4822H27.7746C28.736 18.4822 29.5978 17.592 29.8702 16.3187L31.9356 6.6659C32.0746 6.01744 31.9861 5.33459 31.6935 4.79273ZM31.2537 6.38736L29.1882 16.0401C29.0041 16.8998 28.4231 17.5001 27.7742 17.5001H8.63893L6.27484 4.92291H30.4615C30.7246 4.92291 30.9657 5.08994 31.1232 5.38126C31.2807 5.67208 31.3283 6.03856 31.2537 6.38736Z" fill="#999999"/>
<mask id="path-2-inside-1" fill="white">
<path d="M12.4374 31.8526C11.0994 31.8526 10.0111 30.7639 10.0111 29.4263C10.0111 28.0887 11.0998 27 12.4374 27C13.7754 27 14.8641 28.0887 14.8641 29.4263C14.8641 30.7639 13.7754 31.8526 12.4374 31.8526ZM12.4374 27.711C11.4917 27.711 10.7224 28.4802 10.7224 29.4259C10.7224 30.3716 11.4917 31.1409 12.4374 31.1409C13.3831 31.1409 14.1527 30.3716 14.1527 29.4259C14.1527 28.4802 13.3831 27.711 12.4374 27.711Z"/>
</mask>
<path d="M12.4374 27.9626C13.2482 27.9626 13.9011 28.6159 13.9011 29.4263H6.12111C6.12111 32.9119 8.95067 35.7426 12.4374 35.7426V27.9626ZM13.9011 29.4263C13.9011 30.2371 13.2482 30.89 12.4374 30.89V23.11C8.95139 23.11 6.12111 25.9403 6.12111 29.4263H13.9011ZM12.4374 30.89C11.6274 30.89 10.9741 30.2374 10.9741 29.4263H18.7541C18.7541 25.9399 15.9234 23.11 12.4374 23.11V30.89ZM10.9741 29.4263C10.9741 28.6151 11.6274 27.9626 12.4374 27.9626V35.7426C15.9234 35.7426 18.7541 32.9127 18.7541 29.4263H10.9741ZM12.4374 23.821C9.34333 23.821 6.83242 26.3319 6.83242 29.4259H14.6124C14.6124 30.6286 13.6401 31.601 12.4374 31.601V23.821ZM6.83242 29.4259C6.83242 32.52 9.34333 35.0309 12.4374 35.0309V27.2509C13.6401 27.2509 14.6124 28.2232 14.6124 29.4259H6.83242ZM12.4374 35.0309C15.5304 35.0309 18.0427 32.5211 18.0427 29.4259H10.2627C10.2627 28.2222 11.2358 27.2509 12.4374 27.2509V35.0309ZM18.0427 29.4259C18.0427 26.3308 15.5304 23.821 12.4374 23.821V31.601C11.2358 31.601 10.2627 30.6297 10.2627 29.4259H18.0427Z" fill="#999999" mask="url(#path-2-inside-1)"/>
<mask id="path-4-inside-2" fill="white">
<path d="M24.1029 31.8526C22.7649 31.8526 21.6766 30.7639 21.6766 29.4263C21.6766 28.0887 22.7653 27 24.1029 27C25.4413 27 26.5296 28.0887 26.5296 29.4263C26.5296 30.7639 25.4409 31.8526 24.1029 31.8526ZM24.1029 27.711C23.1572 27.711 22.3879 28.4802 22.3879 29.4259C22.3879 30.3716 23.1572 31.1409 24.1029 31.1409C25.0486 31.1409 25.8183 30.3716 25.8183 29.4259C25.8183 28.4802 25.0486 27.711 24.1029 27.711Z"/>
</mask>
<path d="M25.8183 29.4259H21.9283H25.8183ZM24.1029 27.9626C24.9137 27.9626 25.5666 28.6159 25.5666 29.4263H17.7866C17.7866 32.9119 20.6162 35.7426 24.1029 35.7426V27.9626ZM25.5666 29.4263C25.5666 30.2371 24.9137 30.89 24.1029 30.89V23.11C20.6169 23.11 17.7866 25.9403 17.7866 29.4263H25.5666ZM24.1029 30.89C23.2929 30.89 22.6396 30.2371 22.6396 29.4263H30.4196C30.4196 25.9403 27.5896 23.11 24.1029 23.11V30.89ZM22.6396 29.4263C22.6396 28.6151 23.2929 27.9626 24.1029 27.9626V35.7426C27.5889 35.7426 30.4196 32.9127 30.4196 29.4263H22.6396ZM24.1029 23.821C21.0088 23.821 18.4979 26.3319 18.4979 29.4259H26.2779C26.2779 30.6286 25.3056 31.601 24.1029 31.601V23.821ZM18.4979 29.4259C18.4979 32.52 21.0088 35.0309 24.1029 35.0309V27.2509C25.3056 27.2509 26.2779 28.2232 26.2779 29.4259H18.4979ZM24.1029 35.0309C27.1959 35.0309 29.7083 32.5211 29.7083 29.4259H21.9283C21.9283 28.2222 22.9013 27.2509 24.1029 27.2509V35.0309ZM29.7083 29.4259C29.7083 26.3308 27.196 23.821 24.1029 23.821V31.601C22.9013 31.601 21.9283 30.6297 21.9283 29.4259H29.7083Z" fill="#999999" mask="url(#path-4-inside-2)"/>
</svg>
