<svg width="32" height="32" viewBox="0 0 32 32" fill="none" xmlns="http://www.w3.org/2000/svg">
<g clip-path="url(#clip0)">
<path d="M16.5729 15.8267L31.6766 0.722657C31.8829 0.516732 31.8829 0.182414 31.6766 -0.0235118C31.4706 -0.229793 31.1367 -0.229793 30.9304 -0.0235118L15.8267 15.0805L0.722657 -0.0231561C0.516376 -0.229437 0.182769 -0.229437 -0.0235118 -0.0231561C-0.229793 0.182769 -0.229793 0.517087 -0.0235118 0.723013L15.0805 15.8267L-0.0231561 30.9308C-0.229437 31.1367 -0.229437 31.4706 -0.0231561 31.6769C0.0796288 31.7797 0.214779 31.8313 0.349928 31.8313C0.485078 31.8313 0.619872 31.7797 0.723013 31.6766L15.8267 16.5729L30.9308 31.6769C31.0339 31.7801 31.1687 31.8316 31.3038 31.8316C31.439 31.8316 31.5738 31.7801 31.6769 31.6769C31.8832 31.4706 31.8832 31.137 31.6769 30.9308L16.5729 15.8267Z" fill="white"/>
</g>
<defs>
<clipPath id="clip0">
<rect width="32" height="32" fill="white"/>
</clipPath>
</defs>
</svg>
