<svg width="24" height="24" viewBox="0 0 24 24" fill="none" xmlns="http://www.w3.org/2000/svg">
<g clip-path="url(#clip0)">
<path d="M12.4296 11.8699L23.7574 0.541871C23.9121 0.387427 23.9121 0.136688 23.7574 -0.0177559C23.6029 -0.172467 23.3524 -0.172467 23.1977 -0.0177559L11.87 11.3103L0.541932 -0.0174892C0.387221 -0.1722 0.137016 -0.1722 -0.0176949 -0.0174892C-0.172406 0.136955 -0.172406 0.387693 -0.0176949 0.542137L11.3103 11.8699L-0.0174281 23.1979C-0.172139 23.3524 -0.172139 23.6029 -0.0174281 23.7576C0.0596606 23.8347 0.161023 23.8733 0.262385 23.8733C0.363747 23.8733 0.464843 23.8347 0.542198 23.7573L11.87 12.4295L23.198 23.7576C23.2754 23.8349 23.3765 23.8736 23.4778 23.8736C23.5792 23.8736 23.6803 23.8349 23.7576 23.7576C23.9123 23.6029 23.9123 23.3527 23.7576 23.1979L12.4296 11.8699Z" fill="#999999"/>
</g>
<defs>
<clipPath id="clip0">
<rect width="24" height="24" fill="white"/>
</clipPath>
</defs>
</svg>
