<svg width="40" height="40" viewBox="0 0 40 40" fill="none" xmlns="http://www.w3.org/2000/svg">
<path d="M18 1.1547C19.2376 0.440169 20.7624 0.440169 22 1.1547L35.3205 8.8453C36.5581 9.55983 37.3205 10.8803 37.3205 12.3094V27.6906C37.3205 29.1197 36.5581 30.4402 35.3205 31.1547L22 38.8453C20.7624 39.5598 19.2376 39.5598 18 38.8453L4.67949 31.1547C3.44189 30.4402 2.67949 29.1197 2.67949 27.6906V12.3094C2.67949 10.8803 3.44189 9.55983 4.67949 8.8453L18 1.1547Z" fill="#D3A155"/>
<g clip-path="url(#clip0)">
<path d="M20.0016 10C17.2852 10 16.9434 10.0114 15.8773 10.0602C15.0479 10.0771 14.2273 10.2345 13.4505 10.5257C12.7829 10.7753 12.1783 11.1687 11.6797 11.6781C11.1708 12.1777 10.7765 12.7819 10.5241 13.4489C10.2327 14.2262 10.0759 15.0474 10.0602 15.8773C10.013 16.9434 10 17.2835 10 20C10 22.7165 10.0114 23.055 10.0602 24.1227C10.0771 24.9521 10.2345 25.7727 10.5257 26.5495C10.7766 27.2165 11.1698 27.8208 11.6781 28.3203C12.1773 28.8297 12.7816 29.2241 13.4489 29.4759C14.2264 29.7665 15.0474 29.9233 15.8773 29.9398C16.9434 29.9886 17.2835 30 20 30C22.7165 30 23.055 29.9886 24.1227 29.9398C24.9526 29.9233 25.7736 29.7665 26.5511 29.4759C27.2162 29.2179 27.8202 28.8242 28.3246 28.3198C28.8291 27.8153 29.2228 27.2113 29.4808 26.5462C29.7705 25.769 29.9278 24.9487 29.9463 24.1195C29.9935 23.0534 30.0065 22.7132 30.0065 19.9967C30.0065 17.2803 29.9935 16.9401 29.9463 15.874C29.9278 15.0442 29.7705 14.2234 29.4808 13.4456C29.2296 12.7784 28.8357 12.1741 28.3268 11.6748C27.8285 11.1651 27.2238 10.7716 26.556 10.5225C25.7764 10.2316 24.953 10.0753 24.1211 10.0602C23.0534 10.0114 22.7148 10 19.9984 10H20.0016ZM19.1032 11.8018H20.0016C22.6709 11.8018 22.9867 11.8115 24.0413 11.8604C24.6755 11.8676 25.3037 11.9837 25.8984 12.2038C26.3327 12.3642 26.7254 12.62 27.0475 12.9525C27.3793 13.2752 27.635 13.6677 27.7962 14.1016C28.0163 14.6963 28.1324 15.3245 28.1396 15.9587C28.1885 17.0117 28.1982 17.3291 28.1982 19.9984C28.1982 22.6676 28.1885 22.9834 28.1396 24.0381C28.1326 24.6717 28.0164 25.2994 27.7962 25.8936C27.6296 26.3245 27.3747 26.7158 27.0479 27.0424C26.7211 27.3689 26.3295 27.6235 25.8984 27.7897C25.3041 28.0114 24.6757 28.1282 24.0413 28.1348C22.9883 28.1836 22.6709 28.1934 20.0016 28.1934C17.3324 28.1934 17.015 28.1836 15.9603 28.1348C15.3261 28.127 14.6979 28.0103 14.1032 27.7897C13.6685 27.63 13.2753 27.3747 12.9525 27.0426C12.6206 26.7203 12.3653 26.3276 12.2054 25.8936C11.9848 25.2989 11.8681 24.6707 11.8604 24.0365C11.8132 22.9818 11.8034 22.666 11.8034 19.9951C11.8034 17.3242 11.8132 17.0101 11.8604 15.9554C11.8671 15.3211 11.9839 14.6927 12.2054 14.0983C12.3653 13.6642 12.6206 13.2715 12.9525 12.9492C13.2755 12.6171 13.6687 12.3613 14.1032 12.2005C14.6981 11.9806 15.3261 11.8639 15.9603 11.8555C16.8831 11.8148 17.2396 11.8018 19.1032 11.8001V11.8018ZM25.3385 13.4619C25.1009 13.4619 24.8686 13.5324 24.671 13.6645C24.4735 13.7965 24.3195 13.9842 24.2286 14.2038C24.1378 14.4234 24.1141 14.665 24.1606 14.898C24.207 15.1311 24.3216 15.3451 24.4898 15.513C24.6579 15.6809 24.8721 15.7952 25.1052 15.8414C25.3383 15.8875 25.5799 15.8635 25.7993 15.7724C26.0188 15.6812 26.2063 15.527 26.3381 15.3292C26.4699 15.1315 26.54 14.8991 26.5397 14.6615C26.5397 14.5038 26.5086 14.3477 26.4482 14.202C26.3879 14.0564 26.2994 13.9241 26.1878 13.8127C26.0762 13.7013 25.9438 13.6129 25.7981 13.5528C25.6524 13.4926 25.4962 13.4617 25.3385 13.4619ZM20.0016 14.8649C18.986 14.8649 17.9932 15.1661 17.1487 15.7303C16.3043 16.2946 15.6461 17.0966 15.2574 18.0349C14.8688 18.9732 14.7671 20.0057 14.9652 21.0018C15.1633 21.9979 15.6524 22.9129 16.3706 23.6311C17.0887 24.3492 18.0037 24.8383 18.9998 25.0364C19.9959 25.2346 21.0284 25.1329 21.9667 24.7442C22.9051 24.3555 23.707 23.6974 24.2713 22.8529C24.8355 22.0084 25.1367 21.0156 25.1367 20C25.1363 18.6382 24.5951 17.3323 23.6322 16.3694C22.6693 15.4065 21.3634 14.8653 20.0016 14.8649ZM20.0016 16.6667C20.6611 16.6657 21.306 16.8604 21.8549 17.2261C22.4037 17.5917 22.8317 18.112 23.0847 18.721C23.3377 19.33 23.4045 20.0004 23.2764 20.6473C23.1483 21.2942 22.8312 21.8886 22.3653 22.3553C21.8993 22.822 21.3053 23.1399 20.6586 23.2689C20.0119 23.3979 19.3414 23.3322 18.732 23.0801C18.1227 22.8279 17.6018 22.4007 17.2353 21.8524C16.8688 21.3041 16.6732 20.6595 16.6732 20C16.6749 19.1179 17.0262 18.2725 17.6501 17.6489C18.2739 17.0253 19.1195 16.6745 20.0016 16.6732V16.6667Z" fill="#0D0C09"/>
</g>
<defs>
<clipPath id="clip0">
<rect width="20" height="20" fill="white" transform="translate(10 10)"/>
</clipPath>
</defs>
</svg>
