<svg width="755" height="150" viewBox="0 0 755 150" fill="none" xmlns="http://www.w3.org/2000/svg">
<path d="M138.175 4.56617H139.153V3.57352H138.175V4.56617ZM138.175 144.926V145.919H139.153V144.926H138.175ZM91.5434 144.926H90.5652V145.919H91.5434V144.926ZM91.5434 93.1937H92.5215V92.201H91.5434V93.1937ZM48.4687 93.1937V92.201H47.4906V93.1937H48.4687ZM48.4687 144.926V145.919H49.4469V144.926H48.4687ZM1.83747 144.926H0.859314V145.919H1.83747V144.926ZM1.83747 4.56617V3.57352H0.859314V4.56617H1.83747ZM48.4687 4.56617H49.4469V3.57352H48.4687V4.56617ZM48.4687 54.2938H47.4906V55.2865H48.4687V54.2938ZM91.5434 54.2938V55.2865H92.5215V54.2938H91.5434ZM91.5434 4.56617V3.57352H90.5652V4.56617H91.5434ZM137.196 4.56617V144.926H139.153V4.56617H137.196ZM138.175 143.934H91.5434V145.919H138.175V143.934ZM92.5215 144.926V93.1937H90.5652V144.926H92.5215ZM91.5434 92.201H48.4687V94.1863H91.5434V92.201ZM47.4906 93.1937V144.926H49.4469V93.1937H47.4906ZM48.4687 143.934H1.83747V145.919H48.4687V143.934ZM2.81563 144.926V4.56617H0.859314V144.926H2.81563ZM1.83747 5.55882H48.4687V3.57352H1.83747V5.55882ZM47.4906 4.56617V54.2938H49.4469V4.56617H47.4906ZM48.4687 55.2865H91.5434V53.3012H48.4687V55.2865ZM92.5215 54.2938V4.56617H90.5652V54.2938H92.5215ZM91.5434 5.55882H138.175V3.57352H91.5434V5.55882ZM165.187 112.644L164.35 113.159L164.353 113.164L165.187 112.644ZM165.187 37.0496L166.02 37.5692L166.023 37.5647L165.187 37.0496ZM301.129 37.0496L300.292 37.5647L300.295 37.5692L301.129 37.0496ZM301.129 112.644L301.962 113.164L301.965 113.159L301.129 112.644ZM248.767 105.626L249.271 106.477L249.278 106.472L248.767 105.626ZM260.03 93.3942L260.892 93.8648L260.897 93.8556L260.03 93.3942ZM260.03 56.299L259.164 56.7605L259.169 56.7696L260.03 56.299ZM248.767 44.0676L248.247 44.908L248.261 44.9167L248.274 44.925L248.767 44.0676ZM217.351 44.0676L217.854 44.9188L217.861 44.9146L217.351 44.0676ZM206.285 56.299L207.147 56.7696L207.152 56.7604L206.285 56.299ZM206.285 93.3942L205.42 93.8557L205.425 93.8648L206.285 93.3942ZM217.351 105.626L216.83 106.466L216.844 106.474L216.857 106.483L217.351 105.626ZM233.158 147.142C218.413 147.142 205.201 144.031 193.5 137.831L192.594 139.59C204.605 145.955 218.133 149.127 233.158 149.127V147.142ZM193.5 137.831C181.794 131.627 172.642 123.059 166.02 112.123L164.353 113.164C171.168 124.417 180.589 133.228 192.594 139.59L193.5 137.831ZM166.023 112.128C159.405 101.065 156.088 88.6136 156.088 74.7463H154.132C154.132 88.9511 157.533 101.764 164.35 113.159L166.023 112.128ZM156.088 74.7463C156.088 60.8789 159.405 48.4959 166.02 37.5692L164.353 36.5299C157.534 47.7936 154.132 60.5416 154.132 74.7463H156.088ZM166.023 37.5647C172.645 26.4959 181.797 17.8639 193.5 11.662L192.594 9.90224C180.586 16.2659 171.164 25.1454 164.351 36.5344L166.023 37.5647ZM193.5 11.662C205.201 5.46135 218.413 2.35059 233.158 2.35059V0.365295C218.133 0.365295 204.605 3.53732 192.594 9.90224L193.5 11.662ZM233.158 2.35059C247.904 2.35059 261.116 5.46135 272.816 11.662L273.721 9.90224C261.711 3.53732 248.182 0.365295 233.158 0.365295V2.35059ZM272.816 11.662C284.518 17.8639 293.67 26.4959 300.292 37.5647L301.965 36.5344C295.151 25.1454 285.729 16.2659 273.721 9.90224L272.816 11.662ZM300.295 37.5692C306.912 48.4959 310.228 60.8789 310.228 74.7463H312.184C312.184 60.5416 308.783 47.7936 301.962 36.5299L300.295 37.5692ZM310.228 74.7463C310.228 88.6136 306.912 101.065 300.292 112.128L301.965 113.159C308.783 101.764 312.184 88.9511 312.184 74.7463H310.228ZM300.295 112.123C293.674 123.059 284.521 131.627 272.816 137.831L273.721 139.59C285.726 133.228 295.148 124.417 301.962 113.164L300.295 112.123ZM272.816 137.831C261.116 144.031 247.904 147.142 233.158 147.142V149.127C248.182 149.127 261.711 145.955 273.721 139.59L272.816 137.831ZM233.158 110.829C239.117 110.829 244.497 109.385 249.271 106.477L248.265 104.775C243.818 107.482 238.791 108.844 233.158 108.844V110.829ZM249.278 106.472C254.176 103.436 258.047 99.225 260.892 93.8648L259.169 92.9236C256.48 97.9902 252.844 101.934 248.258 104.779L249.278 106.472ZM260.897 93.8556C263.748 88.3434 265.158 81.9641 265.158 74.7463H263.201C263.201 81.6982 261.845 87.7508 259.164 92.9328L260.897 93.8556ZM265.158 74.7463C265.158 67.5294 263.748 61.2123 260.892 55.8284L259.169 56.7696C261.845 61.8124 263.201 67.7936 263.201 74.7463H265.158ZM260.897 55.8376C258.052 50.34 254.175 46.1191 249.26 43.2101L248.274 44.925C252.845 47.6305 256.475 51.5639 259.164 56.7605L260.897 55.8376ZM249.288 43.2272C244.511 40.1804 239.126 38.6636 233.158 38.6636V40.6489C238.782 40.6489 243.803 42.0731 248.247 44.908L249.288 43.2272ZM233.158 38.6636C227.19 38.6636 221.744 40.1803 216.841 43.2206L217.861 44.9146C222.443 42.0732 227.534 40.6489 233.158 40.6489V38.6636ZM216.848 43.2164C212.067 46.1271 208.26 50.347 205.42 55.8376L207.152 56.7604C209.844 51.5568 213.413 47.6224 217.854 44.9188L216.848 43.2164ZM205.425 55.8284C202.567 61.2123 201.158 67.5294 201.158 74.7463H203.114C203.114 67.7936 204.471 61.8124 207.147 56.7696L205.425 55.8284ZM201.158 74.7463C201.158 81.9641 202.568 88.3435 205.42 93.8557L207.152 92.9328C204.471 87.7508 203.114 81.6982 203.114 74.7463H201.158ZM205.425 93.8648C208.265 99.2181 212.066 103.427 216.83 106.466L217.871 104.785C213.414 101.942 209.839 97.997 207.147 92.9236L205.425 93.8648ZM216.857 106.483C221.758 109.384 227.199 110.829 233.158 110.829V108.844C227.525 108.844 222.428 107.482 217.843 104.768L216.857 106.483ZM464.464 4.56617H465.442V3.57352H464.464V4.56617ZM464.464 144.926V145.919H465.442V144.926H464.464ZM426.14 144.926L425.386 145.564L425.68 145.919H426.14V144.926ZM373.573 81.1628L374.326 80.5259L372.595 78.4289V81.1628H373.573ZM373.573 144.926V145.919H374.551V144.926H373.573ZM328.131 144.926H327.153V145.919H328.131V144.926ZM328.131 4.56617V3.57352H327.153V4.56617H328.131ZM366.462 4.56617L367.215 3.92929L366.921 3.57352H366.462V4.56617ZM419.019 68.3298L418.275 68.9667L419.997 71.0637V68.3298H419.019ZM419.019 4.56617V3.57352H418.04V4.56617H419.019ZM463.486 4.56617V144.926H465.442V4.56617H463.486ZM464.464 143.934H426.14V145.919H464.464V143.934ZM426.883 144.289L374.326 80.5259L372.83 81.7997L425.386 145.564L426.883 144.289ZM372.595 81.1628V144.926H374.551V81.1628H372.595ZM373.573 143.934H328.131V145.919H373.573V143.934ZM329.105 144.926V4.56617H327.153V144.926H329.105ZM328.131 5.55882H366.462V3.57352H328.131V5.55882ZM365.708 5.20306L418.275 68.9667L419.772 67.693L367.215 3.92929L365.708 5.20306ZM419.997 68.3298V4.56617H418.04V68.3298H419.997ZM419.019 5.55882H464.464V3.57352H419.019V5.55882ZM601.936 109.235H602.914V108.242H601.936V109.235ZM601.936 144.926V145.919H602.914V144.926H601.936ZM486.933 144.926H485.955V145.919H486.933V144.926ZM486.933 4.56617V3.57352H485.955V4.56617H486.933ZM599.364 4.56617H600.342V3.57352H599.364V4.56617ZM599.364 40.2578V41.2504H600.342V40.2578H599.364ZM532.779 40.2578V39.2651H531.801V40.2578H532.779ZM532.779 56.7H531.801V57.6926H532.779V56.7ZM591.264 56.7H592.242V55.7074H591.264V56.7ZM591.264 90.7875V91.7802H592.242V90.7875H591.264ZM532.779 90.7875V89.7949H531.801V90.7875H532.779ZM532.779 109.235H531.801V110.227H532.779V109.235ZM600.958 109.235V144.926H602.914V109.235H600.958ZM601.936 143.934H486.933V145.919H601.936V143.934ZM487.911 144.926V4.56617H485.955V144.926H487.911ZM486.933 5.55882H599.364V3.57352H486.933V5.55882ZM598.385 4.56617V40.2578H600.342V4.56617H598.385ZM599.364 39.2651H532.779V41.2504H599.364V39.2651ZM531.801 40.2578V56.7H533.758V40.2578H531.801ZM532.779 57.6926H591.264V55.7074H532.779V57.6926ZM590.286 56.7V90.7875H592.242V56.7H590.286ZM591.264 89.7949H532.779V91.7802H591.264V89.7949ZM531.801 90.7875V109.235H533.758V90.7875H531.801ZM532.779 110.227H601.936V108.242H532.779V110.227ZM701.122 93.9957L700.271 93.4901L700.144 93.7239V93.9957H701.122ZM701.122 144.926V145.919H702.101V144.926H701.122ZM654.483 144.926H653.505V145.919H654.483V144.926ZM654.483 93.3942H655.461V93.1208L655.325 92.8861L654.483 93.3942ZM602.328 4.56617V3.57352H600.606L601.486 5.07434L602.328 4.56617ZM651.519 4.56617L652.361 4.06118L652.077 3.57352H651.519V4.56617ZM679.779 53.0907L678.938 53.5957L679.779 55.0369L680.62 53.5984L679.779 53.0907ZM708.234 4.56617V3.57352H707.676L707.392 4.05857L708.234 4.56617ZM753.278 4.56617L754.12 5.07181L755 3.57352H753.278V4.56617ZM700.144 93.9957V144.926H702.101V93.9957H700.144ZM701.122 143.934H654.483V145.919H701.122V143.934ZM655.461 144.926V93.3942H653.505V144.926H655.461ZM655.325 92.8861L603.159 4.05801L601.486 5.07434L653.642 93.9023L655.325 92.8861ZM602.328 5.55882H651.519V3.57352H602.328V5.55882ZM650.678 5.07116L678.938 53.5957L680.62 52.5858L652.361 4.06118L650.678 5.07116ZM680.62 53.5984L709.075 5.07377L707.392 4.05857L678.938 52.5831L680.62 53.5984ZM708.234 5.55882H753.278V3.57352H708.234V5.55882ZM752.437 4.06054L700.271 93.4901L701.964 94.5014L754.12 5.07181L752.437 4.06054Z" fill="#D3A155"/>
</svg>
