<svg width="671" height="151" viewBox="0 0 671 151" fill="none" xmlns="http://www.w3.org/2000/svg">
<path d="M120.364 63.9963V62.9736H119.455L119.348 63.8754L120.364 63.9963ZM117.263 90.0267L116.246 89.9059L116.11 91.0495H117.263V90.0267ZM142.284 90.0267H143.308V89.004H142.284V90.0267ZM142.284 121.015V122.038H143.308V121.015H142.284ZM113.333 121.015V119.993H112.428L112.318 120.89L113.333 121.015ZM109.818 149.318V150.341H110.723L110.834 149.444L109.818 149.318ZM76.7311 149.318L75.7151 149.193L75.5724 150.341H76.7311V149.318ZM80.2466 121.015L81.2625 121.141L81.4052 119.993H80.2466V121.015ZM59.7741 121.015V119.993H58.8695L58.7581 120.89L59.7741 121.015ZM56.2586 149.318V150.341H57.1631L57.2745 149.444L56.2586 149.318ZM23.1717 149.318L22.1557 149.193L22.013 150.341H23.1717V149.318ZM26.6872 121.015L27.7031 121.141L27.8458 119.993H26.6872V121.015ZM1.66521 121.015H0.641479V122.038H1.66521V121.015ZM1.66521 90.0267V89.004H0.641479V90.0267H1.66521ZM30.6162 90.0267V91.0495H31.5253L31.6328 90.1476L30.6162 90.0267ZM33.7181 63.9963L34.7347 64.1172L34.871 62.9736H33.7181V63.9963ZM8.69617 63.9963H7.67244V65.019H8.69617V63.9963ZM8.69617 33.0076V31.9849H7.67244V33.0076H8.69617ZM37.6472 33.0076V34.0304H38.5518L38.6632 33.1335L37.6472 33.0076ZM41.1627 4.70467V3.68195H40.2581L40.1467 4.57873L41.1627 4.70467ZM74.2496 4.70467L75.2655 4.83061L75.4082 3.68195H74.2496V4.70467ZM70.7341 33.0076L69.7181 32.8816L69.5754 34.0304H70.7341V33.0076ZM91.2066 33.0076V34.0304H92.1112L92.2225 33.1335L91.2066 33.0076ZM94.7221 4.70467V3.68195H93.8175L93.7061 4.57873L94.7221 4.70467ZM127.809 4.70467L128.825 4.83061L128.968 3.68195H127.809V4.70467ZM124.294 33.0076L123.278 32.8816L123.135 34.0304H124.294V33.0076ZM149.315 33.0076H150.339V31.9849H149.315V33.0076ZM149.315 63.9963V65.019H150.339V63.9963H149.315ZM87.2775 63.9963L88.2941 64.1172L88.4304 62.9736H87.2775V63.9963ZM66.805 63.9963V62.9736H65.896L65.7885 63.8754L66.805 63.9963ZM63.7031 90.0267L62.6866 89.9059L62.5503 91.0495H63.7031V90.0267ZM84.1756 90.0267V91.0495H85.0847L85.1922 90.1476L84.1756 90.0267ZM119.348 63.8754L116.246 89.9059L118.279 90.1476L121.381 64.1172L119.348 63.8754ZM117.263 91.0495H142.284V89.004H117.263V91.0495ZM141.261 90.0267V121.015H143.308V90.0267H141.261ZM142.284 119.993H113.333V122.038H142.284V119.993ZM112.318 120.89L108.802 149.193L110.834 149.444L114.349 121.141L112.318 120.89ZM109.818 148.296H76.7311V150.341H109.818V148.296ZM77.747 149.444L81.2625 121.141L79.2306 120.89L75.7151 149.193L77.747 149.444ZM80.2466 119.993H59.7741V122.038H80.2466V119.993ZM58.7581 120.89L55.2426 149.193L57.2745 149.444L60.79 121.141L58.7581 120.89ZM56.2586 148.296H23.1717V150.341H56.2586V148.296ZM24.1876 149.444L27.7031 121.141L25.6712 120.89L22.1557 149.193L24.1876 149.444ZM26.6872 119.993H1.66521V122.038H26.6872V119.993ZM2.68894 121.015V90.0267H0.641479V121.015H2.68894ZM1.66521 91.0495H30.6162V89.004H1.66521V91.0495ZM31.6328 90.1476L34.7347 64.1172L32.7016 63.8754L29.5997 89.9059L31.6328 90.1476ZM33.7181 62.9736H8.69617V65.019H33.7181V62.9736ZM9.7199 63.9963V33.0076H7.67244V63.9963H9.7199ZM8.69617 34.0304H37.6472V31.9849H8.69617V34.0304ZM38.6632 33.1335L42.1786 4.83061L40.1467 4.57873L36.6313 32.8816L38.6632 33.1335ZM41.1627 5.7274H74.2496V3.68195H41.1627V5.7274ZM73.2336 4.57873L69.7181 32.8816L71.75 33.1335L75.2655 4.83061L73.2336 4.57873ZM70.7341 34.0304H91.2066V31.9849H70.7341V34.0304ZM92.2225 33.1335L95.738 4.83061L93.7061 4.57873L90.1907 32.8816L92.2225 33.1335ZM94.7221 5.7274H127.809V3.68195H94.7221V5.7274ZM126.793 4.57873L123.278 32.8816L125.309 33.1335L128.825 4.83061L126.793 4.57873ZM124.294 34.0304H149.315V31.9849H124.294V34.0304ZM148.292 33.0076V63.9963H150.339V33.0076H148.292ZM149.315 62.9736H120.364V65.019H149.315V62.9736ZM87.2775 62.9736H66.805V65.019H87.2775V62.9736ZM65.7885 63.8754L62.6866 89.9059L64.7197 90.1476L67.8216 64.1172L65.7885 63.8754ZM63.7031 91.0495H84.1756V89.004H63.7031V91.0495ZM85.1922 90.1476L88.2941 64.1172L86.261 63.8754L83.1591 89.9059L85.1922 90.1476ZM284.193 112.545H285.216V111.522H284.193V112.545ZM284.193 149.318V150.341H285.216V149.318H284.193ZM163.839 149.318H162.815V150.341H163.839V149.318ZM163.839 4.70467V3.68195H162.815V4.70467H163.839ZM281.504 4.70467H282.528V3.68195H281.504V4.70467ZM281.504 41.4779V42.5006H282.528V41.4779H281.504ZM211.815 41.4779V40.4551H210.791V41.4779H211.815ZM211.815 58.4183H210.791V59.4411H211.815V58.4183ZM273.026 58.4183H274.05V57.3956H273.026V58.4183ZM273.026 93.5388V94.5615H274.05V93.5388H273.026ZM211.815 93.5388V92.5161H210.791V93.5388H211.815ZM211.815 112.545H210.791V113.568H211.815V112.545ZM283.169 112.545V149.318H285.216V112.545H283.169ZM284.193 148.296H163.839V150.341H284.193V148.296ZM164.863 149.318V4.70467H162.815V149.318H164.863ZM163.839 5.7274H281.504V3.68195H163.839V5.7274ZM280.481 4.70467V41.4779H282.528V4.70467H280.481ZM281.504 40.4551H211.815V42.5006H281.504V40.4551ZM210.791 41.4779V58.4183H212.839V41.4779H210.791ZM211.815 59.4411H273.026V57.3956H211.815V59.4411ZM272.002 58.4183V93.5388H274.05V58.4183H272.002ZM273.026 92.5161H211.815V94.5615H273.026V92.5161ZM210.791 93.5388V112.545H212.839V93.5388H210.791ZM211.815 113.568H284.193V111.522H211.815V113.568ZM506.051 4.70467H507.075V3.68195H506.051V4.70467ZM506.051 149.318V150.341H507.075V149.318H506.051ZM304.014 149.318H302.99V150.341H304.014V149.318ZM304.014 4.70467V3.68195H302.99V4.70467H304.014ZM351.99 4.70467H353.014V3.68195H351.99V4.70467ZM351.99 111.512H350.966V112.535H351.99V111.512ZM381.148 111.512V112.535H382.172V111.512H381.148ZM381.148 4.70467V3.68195H380.124V4.70467H381.148ZM429.124 4.70467H430.148V3.68195H429.124V4.70467ZM429.124 111.512H428.1V112.535H429.124V111.512ZM458.075 111.512V112.535H459.099V111.512H458.075ZM458.075 4.70467V3.68195H457.051V4.70467H458.075ZM505.027 4.70467V149.318H507.075V4.70467H505.027ZM506.051 148.296H304.014V150.341H506.051V148.296ZM305.038 149.318V4.70467H302.99V149.318H305.038ZM304.014 5.7274H351.99V3.68195H304.014V5.7274ZM350.966 4.70467V111.512H353.014V4.70467H350.966ZM351.99 112.535H381.148V110.489H351.99V112.535ZM382.172 111.512V4.70467H380.124V111.512H382.172ZM381.148 5.7274H429.124V3.68195H381.148V5.7274ZM428.1 4.70467V111.512H430.148V4.70467H428.1ZM429.124 112.535H458.075V110.489H429.124V112.535ZM459.099 111.512V4.70467H457.051V111.512H459.099ZM458.075 5.7274H506.051V3.68195H458.075V5.7274ZM651.342 61.3106L650.687 62.0972L650.693 62.1026L651.342 61.3106ZM649.274 135.89L649.914 136.688L649.92 136.683L649.274 135.89ZM531.608 149.318H530.585V150.341H531.608V149.318ZM531.608 4.70467V3.68195H530.585V4.70467H531.608ZM579.584 4.70467H580.608V3.68195H579.584V4.70467ZM579.584 49.1217H578.561V50.1445H579.584V49.1217ZM612.258 110.686L612.965 111.425L612.973 111.417L612.981 111.409L612.258 110.686ZM579.584 83.2092V82.1865H578.561V83.2092H579.584ZM579.584 115.231H578.561V116.254H579.584V115.231ZM609.569 50.1445C627.489 50.1445 641.146 54.1768 650.687 62.0972L651.996 60.524C641.96 52.1926 627.769 48.099 609.569 48.099V50.1445ZM650.693 62.1026C660.187 69.8502 665 81.3685 665 96.8442H667.048C667.048 80.9181 662.072 68.7474 651.988 60.5186L650.693 62.1026ZM665 96.8442C665 113.538 659.512 126.236 648.627 135.097L649.92 136.683C661.369 127.363 667.048 114.031 667.048 96.8442H665ZM648.633 135.092C637.703 143.854 622.654 148.296 603.366 148.296V150.341C622.954 150.341 638.51 145.83 649.914 136.688L648.633 135.092ZM603.366 148.296H531.608V150.341H603.366V148.296ZM532.632 149.318V4.70467H530.585V149.318H532.632ZM531.608 5.7274H579.584V3.68195H531.608V5.7274ZM578.561 4.70467V49.1217H580.608V4.70467H578.561ZM579.584 50.1445H609.569V48.099H579.584V50.1445ZM600.057 116.254C605.246 116.254 609.579 114.661 612.965 111.425L611.55 109.946C608.595 112.77 604.794 114.208 600.057 114.208V116.254ZM612.981 111.409C616.386 108.007 618.038 103.385 618.038 97.6706H615.99C615.99 102.974 614.47 107.029 611.534 109.963L612.981 111.409ZM618.038 97.6706C618.038 92.6465 616.557 88.7058 613.439 86.0467C610.352 83.4141 605.831 82.1865 600.057 82.1865V84.232C605.587 84.232 609.544 85.4145 612.109 87.6025C614.644 89.7638 615.99 93.0538 615.99 97.6706H618.038ZM600.057 82.1865H579.584V84.232H600.057V82.1865ZM578.561 83.2092V115.231H580.608V83.2092H578.561ZM579.584 116.254H600.057V114.208H579.584V116.254Z" fill="#D3A155"/>
</svg>
