<svg width="132" height="64" viewBox="0 0 132 64" fill="none" xmlns="http://www.w3.org/2000/svg">
<g clip-path="url(#clip0)">
<path fill-rule="evenodd" clip-rule="evenodd" d="M37.5283 39.5519C37.597 39.7202 37.6657 39.8884 37.7344 40.052C38.2705 41.566 38.4354 42.9982 38.1055 44.4304C37.652 47.4582 35.6314 50.0771 32.7448 51.2228C31.714 51.6728 30.5594 51.8774 29.4047 51.8774C27.5756 51.8271 25.7887 51.3206 24.209 50.4044C22.5595 49.4633 20.9102 48.113 19.0957 46.1489C17.2813 48.113 15.6731 49.4633 13.9825 50.4044C12.6217 51.1818 11.2196 51.632 9.85884 51.7956C8.36293 51.9982 6.8396 51.8005 5.44659 51.2228C2.60131 50.0771 0.539504 47.4992 0.0859085 44.4304C-0.120272 42.9572 0.0446724 41.525 0.580741 40.0111C0.786921 39.4792 0.993102 38.9881 1.19928 38.5381C1.34964 38.2023 1.49999 37.8752 1.64644 37.5565L1.64663 37.556H1.64666H1.64668C1.82146 37.1756 1.9907 36.8074 2.14771 36.4511L2.18895 36.3694C5.03423 30.2316 8.12694 24.012 11.3021 17.8743L11.4258 17.6288C11.7557 17.015 12.0856 16.3603 12.4155 15.7056C12.8278 14.9691 13.2814 14.1916 13.9 13.4551C15.2608 11.9002 17.1163 11 19.1782 11C21.1987 11 23.0956 11.9002 24.4151 13.5369C25.0236 14.2161 25.4217 14.9301 25.8033 15.6148L25.8998 15.7875V15.7876C26.2296 16.4422 26.5594 17.0969 26.8894 17.7106L27.0131 17.9561C30.2295 24.0939 33.2809 30.3135 36.1262 36.4511L36.1675 36.4921C36.3245 36.8483 36.4938 37.2166 36.6684 37.597L36.6686 37.5973C36.8151 37.916 36.9656 38.2433 37.1159 38.579C37.2533 38.8791 37.3909 39.2155 37.5283 39.5519ZM69.5686 21.2705C69.5686 22.7435 68.3728 23.9302 66.8883 23.9302C65.4038 23.9302 64.208 22.7435 64.208 21.2705C64.208 19.7974 65.3625 18.6108 66.8883 18.6108C68.4141 18.6517 69.5686 19.8383 69.5686 21.2705ZM58.5175 26.6307V27.2854C58.5175 27.2854 57.2391 25.6487 54.5175 25.6487C50.0228 25.6487 46.5176 29.0449 46.5176 33.7505C46.5176 38.4152 49.9815 41.8523 54.5175 41.8523C57.2804 41.8523 58.5175 40.1747 58.5175 40.1747V40.8702C58.5175 41.1977 58.7649 41.4433 59.0947 41.4433H62.4348V26.0579H59.0947C58.7649 26.0579 58.5175 26.3443 58.5175 26.6307ZM55.1774 38.1698C56.498 38.1773 57.7414 37.5526 58.5175 36.4921V31.009C57.94 30.1498 56.6206 29.3314 55.1774 29.3314C52.5382 29.3314 50.5176 30.9682 50.5176 33.7505C50.5176 36.533 52.5382 38.1698 55.1774 38.1698ZM64.909 26.0579H68.8676V41.4431H64.909V26.0579ZM120.042 27.2855C120.042 27.2855 121.32 25.6488 124.041 25.6488C128.495 25.6488 132 29.0859 132 33.7507C132 38.4154 128.495 41.8525 124 41.8525C121.279 41.8525 120 40.1749 120 40.1749V40.8704C120 41.1569 119.753 41.4433 119.423 41.4433H116.083V18.6518H120.042V27.2855ZM123.382 38.1287C122.059 38.1458 120.811 37.5191 120.041 36.4511V30.968C120.66 30.1496 121.98 29.2905 123.382 29.2905C126.021 29.2905 128.041 30.9271 128.041 33.7096C128.041 36.4921 126.021 38.1287 123.382 38.1287ZM114.021 41.484V32.3183C114.021 29.7406 113.485 28.2675 112.083 27.1218C110.928 26.1397 109.485 25.6487 107.753 25.6487C106.228 25.6487 104.702 26.0988 103.547 27.2854V26.6307C103.547 26.3443 103.3 26.0579 102.97 26.0579H99.8358V41.4433H103.795V30.7227C104.578 29.8224 105.815 29.2086 107.011 29.2086C109.238 29.2086 110.062 30.2316 110.062 32.7685V41.484H114.021ZM90.2279 25.6488C87.5064 25.6488 86.228 27.2855 86.228 27.2855V18.6518H82.2693V41.4433H85.6094C85.9393 41.4433 86.1867 41.1569 86.1867 40.8704V40.1749C86.1867 40.1749 87.4651 41.8525 90.1866 41.8525C94.6814 41.8525 98.1865 38.4154 98.1865 33.7507C98.2276 29.0859 94.7227 25.6488 90.2279 25.6488ZM86.228 36.4511C86.9975 37.5191 88.245 38.1458 89.5681 38.1287C92.2073 38.1287 94.2279 36.4921 94.2279 33.7096C94.2279 30.9271 92.2073 29.2905 89.5681 29.2905C88.166 29.2905 86.8465 30.1496 86.228 30.968V36.4511ZM78.8466 25.6487C80.0426 25.6487 80.6611 25.8533 80.6611 25.8533V29.4951C80.6611 29.4951 77.3622 28.3902 75.3004 30.7227V41.484H71.3418V26.0579H74.6819C75.0117 26.0579 75.2591 26.3443 75.2591 26.6307V27.2854C76.0014 26.4261 77.6096 25.6487 78.8466 25.6487ZM19.137 42.1798C16.9102 39.3973 15.4669 36.7786 14.9721 34.5689C14.7659 33.6278 14.7247 32.8094 14.8484 32.073C14.9309 31.4182 15.1783 30.8454 15.5082 30.3544C16.2917 29.2495 17.6112 28.554 19.137 28.554C20.6627 28.554 22.0235 29.2086 22.7658 30.3544C23.1183 30.868 23.3442 31.4566 23.4254 32.073C23.5491 32.8094 23.508 33.6688 23.3017 34.5689C22.8069 36.7376 21.3637 39.3563 19.137 42.1798ZM31.8377 48.8903C33.8582 48.072 35.3015 46.2306 35.5901 44.1029C35.7551 43.0389 35.6314 42.0161 35.3015 40.9522C35.2156 40.6678 35.0897 40.3834 34.9517 40.0716C34.8912 39.9347 34.8284 39.7926 34.7654 39.6428C34.6004 39.3154 34.4459 38.9676 34.2912 38.6198C34.1366 38.272 33.9819 37.9243 33.817 37.5968V37.5559C30.9718 31.4592 27.9202 25.2395 24.7862 19.1427L24.6625 18.8972C24.4977 18.5903 24.3327 18.2732 24.1677 17.9561C24.0028 17.6389 23.8378 17.3218 23.6728 17.0149C23.343 16.3602 22.9719 15.7465 22.5184 15.2145C21.6524 14.2325 20.4977 13.7006 19.2194 13.7006C17.9412 13.7006 16.7865 14.2325 15.9205 15.2145C15.4669 15.7465 15.0958 16.3602 14.7659 17.0149C14.601 17.3218 14.436 17.6389 14.2711 17.956C14.1062 18.2731 13.9412 18.5903 13.7763 18.8972L13.6526 19.1427C10.4774 25.1986 7.42591 31.4182 4.58064 37.5151L4.5394 37.5968C4.2095 38.2925 3.87962 38.9881 3.59096 39.6428C3.52807 39.7926 3.46517 39.9347 3.4046 40.0716C3.26666 40.3835 3.14087 40.6678 3.0549 40.9522C2.64254 42.0978 2.56006 43.1208 2.68376 44.1438C2.97242 46.2716 4.41569 48.1128 6.43625 48.9312C7.43206 49.3176 8.50757 49.458 9.57019 49.3404C10.6011 49.2177 11.632 48.8903 12.7041 48.2765C14.1886 47.4582 15.7144 46.1897 17.405 44.3075C14.7247 40.9931 13.034 37.9243 12.4155 35.2235C12.0856 33.9961 12.0444 32.8094 12.2093 31.7455C12.3742 30.7227 12.7454 29.7814 13.3227 28.9632C14.601 27.1627 16.7453 26.0579 19.137 26.0579C21.5287 26.0579 23.6728 27.1218 24.9512 28.9632C25.5285 29.7814 25.8996 30.7227 26.0646 31.7455C26.1883 32.8094 26.147 33.9551 25.8585 35.2235C25.2399 37.9243 23.5904 40.9522 20.8689 44.2665C22.6008 46.1487 24.0853 47.4173 25.5698 48.2357C26.6418 48.8495 27.6728 49.1768 28.7037 49.2995C29.7758 49.4223 30.8481 49.2995 31.8377 48.8903Z" fill="#999999"/>
</g>
<defs>
<clipPath id="clip0">
<rect width="132" height="42.3077" fill="white" transform="translate(0 11)"/>
</clipPath>
</defs>
</svg>
