<svg width="132" height="64" viewBox="0 0 132 64" fill="none" xmlns="http://www.w3.org/2000/svg">
<path fill-rule="evenodd" clip-rule="evenodd" d="M16 56.4648V7H116L66.5352 56.4648H16ZM73.7528 30.6653H75.9203C78.814 30.6653 81.1173 29.7075 81.1173 26.6512C81.1173 23.6917 78.814 22.7383 75.9203 22.7383H73.7528V30.6653ZM49.438 35.7733C50.368 36.123 51.444 36.3325 52.5913 36.3325H52.5947C53.7152 36.3325 54.7632 36.1298 55.6843 35.8L52.6268 25.9272H52.56L49.438 35.7733ZM65.5027 16.2982H75.3455L75.3443 16.3082C84.754 16.3082 89.1737 19.6597 89.1737 26.9663C89.1737 33.5312 84.6225 37.443 76.9372 37.443H73.755V46.8993H59.1707L57.7272 42.3772C56.1845 42.8852 54.4413 43.1635 52.5935 43.1635C50.7 43.1635 48.9112 42.865 47.3407 42.3338L45.8393 46.8993H36.9008L37.8855 44.2528L37.5247 44.568C35.2958 46.3592 32.5068 47.3448 29.054 47.4117H28.5405C24.572 47.4117 20.6836 46.3178 17.399 44.4478L20.4386 38.4075C23.7333 40.3545 25.8016 40.7888 28.5906 40.7332C30.0375 40.7008 31.0834 40.4392 31.7639 39.7318C32.1771 39.3087 32.3899 38.7728 32.4121 38.2015C32.4378 36.6322 30.2057 35.8958 27.4712 35.0527C25.2547 34.3577 22.7453 33.4298 20.7783 31.9885C18.4538 30.2767 17.3433 28.1358 17.399 25.1197C17.4357 22.9176 18.2499 20.9395 19.7547 19.3757C21.92 17.1402 25.4107 15.7747 29.5997 15.7747H29.622C33.213 15.7825 37.6025 16.7983 40.7703 18.4167L37.3508 24.3733C33.879 22.6948 32.1304 22.5345 30.1477 22.4342C27.2062 22.2772 25.7148 23.3286 25.6925 24.4625C25.6669 25.8492 28.4848 27.1012 31.1324 27.9532C35.1488 29.2263 40.2578 30.9338 41.0342 35.8658L48.381 16.2982H56.904L65.5027 39.7028V16.2982Z" fill="#999999"/>
</svg>
