<svg width="132" height="64" viewBox="0 0 132 64" fill="none" xmlns="http://www.w3.org/2000/svg">
<g clip-path="url(#clip0)">
<path d="M14.792 35.4129V17.05H20.7834V34.6608C20.7834 35.9018 21.0593 36.2026 22.3252 36.2026H22.8391L23.5411 41.066C23.0898 41.1287 21.2347 41.2541 20.1191 41.2541C16.8226 41.2541 14.792 40.1009 14.792 35.4129Z" fill="#999999"/>
<path d="M60.6537 24.207L65.3164 23.8435L65.7677 25.2348C66.7077 24.3574 68.3372 23.48 71.8468 23.48C77.9009 23.48 79.2797 27.7417 79.2797 32.4922C79.2797 37.2679 77.7381 41.4795 71.4833 41.4795C68.7007 41.4795 67.397 40.8401 66.6451 40.1507V46.1798H60.6537V24.207ZM73.2006 32.7304C73.2006 30.6998 72.8371 28.9199 70.2425 28.9199C67.4597 28.9199 66.6451 30.3363 66.6451 32.7304C66.6451 35.1245 67.2467 36.4155 70.2425 36.4155C72.7744 36.4155 73.2006 34.7485 73.2006 32.7304Z" fill="#999999"/>
<path d="M100.64 24.2074L105.303 23.844L105.905 25.6614C106.657 24.6336 108.75 23.7562 111.232 23.6685V29.4343C107.246 29.4594 106.632 30.6501 106.632 33.0191V41.2166H100.64V24.2074Z" fill="#999999"/>
<path d="M112.896 23.6687H115.979L116.945 20.1465L121.57 19.1438V23.6562H125.355V29.422H121.57V34.4232C121.57 35.6015 121.758 36.2032 123.626 36.2032H125.355V41.1918C124.453 41.2545 123.45 41.2796 122.334 41.2796C117.283 41.2796 115.616 39.6751 115.616 35.3257V29.422H112.896V23.6687Z" fill="#999999"/>
<path d="M132 36.2024H127.011V41.1912H132V36.2024Z" fill="#999999"/>
<path d="M0 23.8689H3.27149V23.5304C3.27149 19.181 4.90096 17 10.5289 17C12.008 17 12.2837 17.0251 13.0107 17.0877V21.9511H11.3311C9.61391 21.9511 9.25041 22.3773 9.25041 23.4928V23.8689H12.9982V28.9453H9.25041V41.1915H3.25895V28.9453H0V23.8689Z" fill="#999999"/>
<path d="M36.5747 36.0272C35.5845 36.6039 35.0706 36.7417 33.1028 36.7417C30.7588 36.7417 29.8562 35.9145 29.5554 34.498H41.062C41.2752 28.3938 40.7612 23.4678 33.1028 23.4678C25.4065 23.4678 23.7897 27.7044 23.7897 32.4299C23.7897 37.2682 25.4065 41.53 33.1028 41.53C36.136 41.53 38.0538 40.9658 40.0844 39.6498L36.5747 36.0272ZM32.9147 28.3813C35.3839 28.3813 35.5594 29.5595 35.6472 30.9634H29.4802C29.731 29.3088 30.5081 28.3813 32.9147 28.3813Z" fill="#999999"/>
<path d="M52.9329 41.2035L49.9999 37.0044L47.0667 41.2035H40.3735L46.6407 32.2664L40.95 24.2068H47.7061L50.0248 27.4908L52.3437 24.2068H59.1876L53.3841 32.2288L59.6763 41.2035H52.9329Z" fill="#999999"/>
<path d="M80.5213 32.48C80.5213 26.7393 83.1535 23.4678 89.922 23.4678C96.6906 23.4678 99.2978 26.7393 99.2978 32.48C99.2978 38.2207 96.7032 41.5174 89.922 41.5174C83.1535 41.53 80.5213 38.2333 80.5213 32.48ZM93.2812 32.668C93.2812 30.4871 92.7424 28.9202 89.922 28.9202C87.1144 28.9202 86.5628 30.4871 86.5628 32.668C86.5628 34.8115 87.1018 36.4158 89.922 36.4158C92.7424 36.4158 93.2812 34.8115 93.2812 32.668Z" fill="#999999"/>
</g>
<defs>
<clipPath id="clip0">
<rect width="132" height="29.7" fill="white" transform="translate(0 17)"/>
</clipPath>
</defs>
</svg>
