<svg width="132" height="64" viewBox="0 0 132 64" fill="none" xmlns="http://www.w3.org/2000/svg">
<g clip-path="url(#clip0)">
<path d="M85.537 43.3402H62.8574L62.8563 43.3391V47.4947L62.9692 47.3823H85.537H85.5381L85.537 47.3812V43.3402Z" fill="#999999"/>
<path d="M62.9685 38.6244L63.0809 38.5136V16.5051H81.2738C81.3447 16.5092 81.4153 16.5147 81.4853 16.5216C82.3047 16.5871 83.07 16.845 83.7361 17.25C84.1349 17.4804 84.4789 17.7455 84.7498 18.0187C85.4876 18.762 86.1872 20.1172 86.2073 21.3028L86.2076 21.4699C86.2096 21.5293 86.2106 21.5888 86.2106 21.6488V24.0365C86.2113 25.3136 86.2112 26.5908 86.2106 27.868V37.9864L86.2117 38.6244L86.2106 38.6233V38.7368H81.5847V22.1922C81.5847 21.3638 80.939 20.6875 80.1267 20.6438H76.9587V38.7368H72.3328V38.6244H72.2878L72.3328 38.5801V38.5776L72.2878 38.6244V20.6786L72.3234 20.6415H72.3004L72.2823 20.6596H67.7068V38.7368H63.0809V38.6244H62.9685Z" fill="#999999"/>
<path fill-rule="evenodd" clip-rule="evenodd" d="M59.8244 39.7472V39.49L59.8246 39.4521V39.4244L59.8244 39.3755V16.5051H51.0508C48.3188 16.5051 46.0841 18.6322 45.9132 21.3208C45.9055 21.4361 45.9016 21.5526 45.9016 21.6701V33.5494C45.9016 33.6072 45.9026 33.6648 45.9044 33.7222C45.9758 36.504 48.2528 38.7368 51.0519 38.7368H55.1236C55.1362 39.028 55.1344 39.0836 55.1222 39.4696L55.1188 39.581C55.1019 42.5408 52.4139 43.1504 51.3551 43.2516H48.3718V47.3823L48.4807 47.274V47.4946H51.0587C55.8991 47.4946 59.8244 44.0262 59.8244 39.7472ZM50.5422 22.1865C50.5422 21.3309 51.2349 20.637 52.0895 20.637H55.1334V20.64L55.1087 20.6651V34.4644L55.1334 34.4895V34.5823H52.0895C51.2349 34.5823 50.5422 33.8884 50.5422 33.0329V22.1865Z" fill="#999999"/>
<path fill-rule="evenodd" clip-rule="evenodd" d="M89.8923 0H42.1078C37.63 0 34 3.63003 34 8.10779V55.8923C34 60.37 37.63 64 42.1078 64H89.8923C94.37 64 98 60.37 98 55.8923V55.8539C98.0007 55.808 98.0011 55.762 98.0011 55.7159V8.28295C98.0011 8.23689 98.0007 8.19093 98 8.14507V8.10779C98 3.63003 94.37 0 89.8923 0ZM41.9338 4.13436C40.3279 4.25902 38.9799 5.30105 38.4147 6.73575C38.2644 7.15524 38.1825 7.60734 38.1825 8.0786V55.9204C38.1825 56.1465 38.2014 56.3684 38.2376 56.5844C38.6166 58.2057 39.9541 59.4594 41.6215 59.7172C41.7877 59.7381 41.9572 59.749 42.1291 59.749H89.7115C91.92 59.749 93.7109 57.9604 93.7109 55.7529V8.12576C93.7109 5.91831 91.92 4.12969 89.7115 4.12969H42.1291C42.0636 4.12969 41.9985 4.13125 41.9338 4.13436Z" fill="#999999"/>
</g>
<defs>
<clipPath id="clip0">
<rect width="64" height="64" fill="white" transform="translate(34)"/>
</clipPath>
</defs>
</svg>
