<svg width="132" height="64" viewBox="0 0 132 64" fill="none" xmlns="http://www.w3.org/2000/svg">
<g clip-path="url(#clip0)">
<path d="M13.2152 26.9929V24.8764C13.4211 24.8613 13.6286 24.8507 13.8405 24.8446C19.6313 24.663 23.4299 29.8195 23.4299 29.8195C23.4299 29.8195 19.327 35.5179 14.9275 35.5179C14.2932 35.5179 13.7269 35.4165 13.2152 35.2439V28.8248C15.4695 29.0973 15.9222 30.0935 17.2787 32.3523L20.2929 29.8104C20.2929 29.8104 18.0931 26.9248 14.384 26.9248C13.9797 26.9248 13.5938 26.9535 13.2152 26.9929ZM13.2152 20V23.1626C13.4227 23.146 13.6315 23.1324 13.8405 23.1248C21.8931 22.8538 27.1389 29.7286 27.1389 29.7286C27.1389 29.7286 21.1135 37.0561 14.8352 37.0561C14.2598 37.0561 13.7209 37.0032 13.2152 36.9138V38.8683C13.6483 38.9229 14.0964 38.9561 14.5642 38.9561C20.4065 38.9561 24.6304 35.9736 28.7225 32.4416C29.4009 32.9851 32.1774 34.3052 32.7481 34.8851C28.8573 38.1417 19.7934 40.7653 14.655 40.7653C14.1599 40.7653 13.683 40.735 13.2168 40.6911V43.439H35.4204V20H13.2152ZM13.2152 35.2439V36.9122C7.81196 35.9494 6.31315 30.3327 6.31315 30.3327C6.31315 30.3327 8.90654 27.4577 13.2152 26.9929V28.8233C13.2121 28.8233 13.2092 28.8218 13.2062 28.8218C10.9458 28.5508 9.17906 30.6627 9.17906 30.6627C9.17906 30.6627 10.1692 34.2205 13.2152 35.2439ZM3.61833 30.0905C3.61833 30.0905 6.82032 25.3654 13.2152 24.8764V23.1626C6.133 23.7304 0 29.7286 0 29.7286C0 29.7286 3.47299 39.7706 13.2152 40.6895V38.8668C6.06638 37.969 3.61833 30.0905 3.61833 30.0905Z" fill="#999999"/>
<path d="M130.29 39.4126V39.0475H130.524C130.653 39.0475 130.826 39.0557 130.826 39.2121C130.826 39.3796 130.735 39.4098 130.584 39.4098H130.29V39.4126ZM130.29 39.6706H130.447L130.809 40.3075H131.207L130.807 39.6432C131.015 39.6267 131.185 39.5278 131.185 39.2506C131.185 38.9019 130.947 38.7921 130.54 38.7921H129.953V40.3075H130.29V39.6706ZM131.998 39.5525C131.998 38.6631 131.306 38.147 130.535 38.147C129.758 38.147 129.066 38.6631 129.066 39.5525C129.066 40.4421 129.758 40.9609 130.535 40.9609C131.304 40.9609 131.998 40.4421 131.998 39.5525ZM131.575 39.5525C131.575 40.2005 131.098 40.6369 130.535 40.6369V40.6315C129.956 40.6369 129.486 40.2005 129.486 39.5525C129.486 38.9047 129.956 38.4709 130.535 38.4709C131.098 38.4681 131.575 38.9019 131.575 39.5525Z" fill="#999999"/>
<path d="M78.3119 24.4814L78.3147 40.4618H82.8279V24.4814H78.3119ZM42.8097 24.4595V40.4618H47.3642V28.3111H50.8919C52.0614 28.3111 52.8932 28.6021 53.456 29.2033C54.1697 29.9638 54.4608 31.1909 54.4608 33.4339V40.4591H58.8697V31.6192C58.8697 25.3078 54.8478 24.4595 50.9138 24.4595H42.8097ZM85.5786 24.4842V40.4645H92.8976C96.7988 40.4645 98.0698 39.8166 99.4479 38.3616C100.42 37.3404 101.051 35.1003 101.051 32.6514C101.051 30.4058 100.519 28.4017 99.5907 27.1526C97.9188 24.9207 95.5111 24.4842 91.9149 24.4842H85.5786ZM90.0563 27.9625H91.9971C94.8111 27.9625 96.634 29.228 96.634 32.5059C96.634 35.7865 94.8139 37.0521 91.9971 37.0521H90.0563V27.9625ZM71.8056 24.4842L68.039 37.1482L64.4289 24.4842H59.556L64.7117 40.4645H71.2153L76.4094 24.4842H71.8056ZM103.151 40.4618H107.665V24.4814H103.149L103.151 40.4618ZM115.802 24.4897L109.498 40.4591H113.949L114.945 37.6369H122.404L123.348 40.4591H128.18L121.83 24.4897H115.802ZM118.734 27.4024L121.468 34.8834H115.914L118.734 27.4024Z" fill="#999999"/>
</g>
<defs>
<clipPath id="clip0">
<rect width="132" height="23.76" fill="white" transform="translate(0 20)"/>
</clipPath>
</defs>
</svg>
