<svg width="132" height="64" viewBox="0 0 132 64" fill="none" xmlns="http://www.w3.org/2000/svg">
<g clip-path="url(#clip0)">
<path d="M49.3587 22.21H42.0527C41.5506 22.21 41.1233 22.5731 41.0485 23.0645L38.0898 41.7996C38.0257 42.1735 38.3142 42.5047 38.6879 42.5047H42.17C42.6721 42.5047 43.0993 42.1415 43.1742 41.6502L43.9752 36.5978C44.05 36.1065 44.4773 35.7434 44.9793 35.7434H47.2971C52.1144 35.7434 54.881 33.4147 55.6073 28.8004C55.9384 26.7816 55.6179 25.1901 54.678 24.0899C53.6419 22.8509 51.8047 22.21 49.3587 22.21ZM50.2025 29.0461C49.8073 31.663 47.7992 31.663 45.8658 31.663H44.7656L45.5347 26.7709C45.5774 26.4719 45.8338 26.2582 46.1329 26.2582H46.6348C47.9593 26.2582 49.1984 26.2582 49.8394 27.0059C50.2346 27.4652 50.3521 28.1275 50.2025 29.0461Z" fill="#999999"/>
<path d="M71.1936 28.9611H67.6901C67.391 28.9611 67.1346 29.1747 67.0919 29.4738L66.9316 30.4565L66.6859 30.104C65.9276 29.0038 64.2399 28.6406 62.5522 28.6406C58.6856 28.6406 55.385 31.5673 54.7441 35.6796C54.413 37.7304 54.883 39.6852 56.0472 41.0525C57.1154 42.3128 58.6429 42.8363 60.448 42.8363C63.567 42.8363 65.2867 40.8281 65.2867 40.8281L65.1265 41.8001C65.0623 42.174 65.3508 42.5051 65.7246 42.5051H68.8757C69.3778 42.5051 69.7942 42.142 69.8797 41.6505L71.7703 29.6767C71.8558 29.3029 71.5673 28.9611 71.1936 28.9611ZM66.3228 35.7759C65.981 37.7733 64.4001 39.119 62.3814 39.119C61.3666 39.119 60.5548 38.7879 60.0315 38.1791C59.5188 37.5703 59.3158 36.6944 59.4868 35.7224C59.7965 33.7463 61.4201 32.3577 63.4068 32.3577C64.4001 32.3577 65.2119 32.6889 65.7354 33.3084C66.2587 33.9279 66.4723 34.8038 66.3228 35.7759Z" fill="#999999"/>
<path d="M89.8323 28.9609H86.3074C85.9763 28.9609 85.6558 29.1318 85.4636 29.4096L80.6142 36.5554L78.5634 29.6873C78.4352 29.26 78.04 28.9609 77.5914 28.9609H74.1412C73.7247 28.9609 73.4257 29.3668 73.5644 29.762L77.431 41.1271L73.7888 46.2648C73.5003 46.6707 73.7888 47.2262 74.2801 47.2262H77.7942C78.1253 47.2262 78.4352 47.0658 78.6274 46.7882L90.3236 29.9116C90.6119 29.5164 90.3236 28.9609 89.8323 28.9609Z" fill="#999999"/>
<path d="M101.465 22.21H94.159C93.6569 22.21 93.2403 22.5731 93.155 23.0645L90.1962 41.7996C90.132 42.1735 90.4205 42.5047 90.7943 42.5047H94.5436C94.8959 42.5047 95.195 42.2482 95.2485 41.9065L96.0923 36.5978C96.1672 36.1065 96.5944 35.7434 97.0963 35.7434H99.4036C104.221 35.7434 106.998 33.4147 107.714 28.8004C108.045 26.7816 107.724 25.1901 106.784 24.0899C105.748 22.8509 103.911 22.21 101.465 22.21ZM102.309 29.0461C101.914 31.663 99.9055 31.663 97.9722 31.663H96.8721L97.641 26.7709C97.6839 26.4719 97.9401 26.2582 98.2392 26.2582H98.7413C100.055 26.2582 101.305 26.2582 101.946 27.0059C102.341 27.4652 102.458 28.1275 102.309 29.0461Z" fill="#999999"/>
<path d="M123.297 28.9611H119.805C119.506 28.9611 119.249 29.1747 119.206 29.4738L119.057 30.4565L118.811 30.104C118.053 29.0038 116.365 28.6406 114.678 28.6406C110.811 28.6406 107.51 31.5673 106.869 35.6796C106.538 37.7304 107.008 39.6852 108.173 41.0525C109.241 42.3128 110.768 42.8363 112.573 42.8363C115.692 42.8363 117.412 40.8281 117.412 40.8281L117.252 41.8001C117.188 42.174 117.476 42.5051 117.85 42.5051H121.001C121.503 42.5051 121.92 42.142 122.005 41.6505L123.906 29.666C123.96 29.3029 123.671 28.9611 123.297 28.9611ZM118.427 35.7759C118.096 37.7733 116.504 39.119 114.485 39.119C113.471 39.119 112.659 38.7879 112.135 38.1791C111.623 37.5703 111.42 36.6944 111.591 35.7224C111.911 33.7463 113.524 32.3577 115.511 32.3577C116.504 32.3577 117.316 32.6889 117.839 33.3084C118.373 33.9279 118.576 34.8038 118.427 35.7759Z" fill="#999999"/>
<path d="M127.421 22.7227L124.419 41.7996C124.355 42.1735 124.644 42.5047 125.017 42.5047H128.03C128.532 42.5047 128.959 42.1415 129.034 41.6502L131.992 22.9149C132.056 22.5411 131.768 22.21 131.394 22.21H128.019C127.73 22.21 127.474 22.4236 127.421 22.7227Z" fill="#999999"/>
<path d="M7.76499 46.1351L8.32042 42.589L7.0707 42.557H1.13184L5.26554 16.3768C5.27623 16.302 5.31895 16.2272 5.37236 16.1738C5.43644 16.1204 5.51122 16.0884 5.59666 16.0884H15.6158C18.9378 16.0884 21.2343 16.7827 22.4413 18.1499C23.0074 18.7908 23.3598 19.4637 23.5307 20.2007C23.7123 20.9698 23.7123 21.8991 23.5414 23.0206L23.5307 23.1061V23.8324L24.0969 24.1528C24.5668 24.3985 24.9514 24.6869 25.2398 25.018C25.7205 25.5628 26.0302 26.2571 26.1584 27.0902C26.2973 27.9448 26.2438 28.9488 26.0302 30.0917C25.7738 31.4055 25.3573 32.5485 24.8018 33.4884C24.2891 34.3537 23.6268 35.0692 22.8471 35.6247C22.0995 36.1481 21.2236 36.554 20.2195 36.8103C19.2475 37.0667 18.1474 37.1841 16.9404 37.1841H16.1606C15.6051 37.1841 15.0604 37.3871 14.6331 37.7396C14.2059 38.1028 13.9282 38.6049 13.8427 39.1602L13.7786 39.4807L12.7959 45.7293L12.7532 45.9643C12.7425 46.039 12.7212 46.0711 12.6891 46.0925C12.6678 46.1139 12.625 46.1245 12.5823 46.1245C12.5716 46.1351 7.76499 46.1351 7.76499 46.1351Z" fill="#999999"/>
<path d="M24.6201 23.1926C24.5881 23.3849 24.556 23.5771 24.5134 23.7801C23.1889 30.5628 18.6706 32.9127 12.9026 32.9127H9.96525C9.26028 32.9127 8.66212 33.4254 8.55532 34.1197L7.04923 43.6582L6.62197 46.3606C6.54721 46.8199 6.89968 47.2259 7.36967 47.2259H12.5822C13.2017 47.2259 13.7251 46.7772 13.8212 46.1684L13.8747 45.9014L14.8573 39.674L14.9214 39.3323C15.0176 38.7235 15.5409 38.2748 16.1605 38.2748H16.9403C21.9925 38.2748 25.9446 36.224 27.0983 30.2851C27.579 27.807 27.3332 25.7348 26.0515 24.2821C25.6563 23.8549 25.1756 23.4917 24.6201 23.1926Z" fill="#999999"/>
<path d="M23.2325 22.637C23.0295 22.5836 22.8267 22.5302 22.6129 22.4768C22.3993 22.434 22.175 22.3913 21.9506 22.3486C21.1602 22.2204 20.2952 22.167 19.3551 22.167H11.5043C11.312 22.167 11.1304 22.2097 10.9595 22.2845C10.607 22.4661 10.3293 22.8079 10.2653 23.2245L8.59894 33.799L8.54553 34.1089C8.65236 33.4146 9.25051 32.9019 9.95549 32.9019H12.8929C18.6608 32.9019 23.1898 30.5626 24.5035 23.7692C24.5464 23.5663 24.5784 23.374 24.6104 23.1817C24.2793 23.0001 23.9161 22.8506 23.5209 22.7224C23.4355 22.7011 23.3394 22.669 23.2325 22.637Z" fill="#7F7F7F"/>
<path d="M10.2655 23.2247C10.3296 22.8081 10.5967 22.4663 10.9598 22.2847C11.1201 22.21 11.3123 22.1672 11.5046 22.1672H19.3554C20.2847 22.1672 21.1499 22.2313 21.951 22.3595C22.1754 22.3915 22.3996 22.4343 22.6132 22.4877C22.8268 22.5411 23.0404 22.5838 23.2328 22.6479C23.3289 22.6799 23.4358 22.712 23.5319 22.744C23.9165 22.8722 24.2796 23.0217 24.6214 23.2033C25.0166 20.6932 24.6214 18.9949 23.2648 17.446C21.7694 15.7263 19.0671 15 15.6169 15H5.59778C4.89281 15 4.29464 15.5127 4.18783 16.207L0.0113969 42.6648C-0.0740544 43.1883 0.33184 43.6582 0.86591 43.6582H7.05044L8.59925 33.7992L10.2655 23.2247Z" fill="#B2B2B2"/>
</g>
<defs>
<clipPath id="clip0">
<rect width="132" height="33.8049" fill="white" transform="translate(0 15)"/>
</clipPath>
</defs>
</svg>
