<svg width="40" height="40" viewBox="0 0 40 40" fill="none" xmlns="http://www.w3.org/2000/svg">
<path d="M18 1.1547C19.2376 0.440169 20.7624 0.440169 22 1.1547L35.3205 8.8453C36.5581 9.55983 37.3205 10.8803 37.3205 12.3094V27.6906C37.3205 29.1197 36.5581 30.4402 35.3205 31.1547L22 38.8453C20.7624 39.5598 19.2376 39.5598 18 38.8453L4.67949 31.1547C3.44189 30.4402 2.67949 29.1197 2.67949 27.6906V12.3094C2.67949 10.8803 3.44189 9.55983 4.67949 8.8453L18 1.1547Z" fill="#D3A155"/>
<path fill-rule="evenodd" clip-rule="evenodd" d="M29.9996 13.7979C29.2644 14.1267 28.4723 14.3452 27.6452 14.4426C28.4926 13.9351 29.1406 13.1309 29.45 12.1734C28.658 12.6418 27.7777 12.9854 26.845 13.1692C26.0951 12.3723 25.0299 11.877 23.8499 11.877C21.5842 11.877 19.7497 13.7124 19.7497 15.9768C19.7497 16.2963 19.7852 16.609 19.8546 16.9105C16.4454 16.7377 13.4229 15.1056 11.3997 12.6225C11.0367 13.2486 10.8447 13.9605 10.8447 14.6845V14.685C10.8447 16.1067 11.5665 17.3642 12.668 18.0975C11.9959 18.0775 11.3637 17.8901 10.8086 17.5864V17.6376C10.8086 19.6259 12.2218 21.285 14.0997 21.66C13.7556 21.7534 13.3925 21.805 13.0183 21.805C12.7533 21.805 12.4979 21.7777 12.244 21.7315C12.7685 23.3599 14.2825 24.5469 16.0754 24.5815C14.6696 25.6829 12.9039 26.3387 10.9791 26.3387C10.6469 26.3387 10.3232 26.3184 10 26.2797C11.8196 27.4471 13.9751 28.1233 16.2906 28.1233C23.8348 28.1233 27.9637 21.8714 27.9637 16.4507C27.9637 16.2706 27.9597 16.096 27.9523 15.9196C28.7535 15.3464 29.4482 14.623 29.9981 13.7996L29.9999 13.7977L29.9996 13.798L29.9996 13.7979Z" fill="#0D0C09"/>
</svg>
