<svg width="40" height="40" viewBox="0 0 40 40" fill="none" xmlns="http://www.w3.org/2000/svg">
<path d="M18 1.1547C19.2376 0.440169 20.7624 0.440169 22 1.1547L35.3205 8.8453C36.5581 9.55983 37.3205 10.8803 37.3205 12.3094V27.6906C37.3205 29.1197 36.5581 30.4402 35.3205 31.1547L22 38.8453C20.7624 39.5598 19.2376 39.5598 18 38.8453L4.67949 31.1547C3.44189 30.4402 2.67949 29.1197 2.67949 27.6906V12.3094C2.67949 10.8803 3.44189 9.55983 4.67949 8.8453L18 1.1547Z" fill="#D3A155"/>
<path fill-rule="evenodd" clip-rule="evenodd" d="M29.5517 14.8666C29.6897 14.4045 29.5517 14.0625 28.8916 14.0625H26.7014C26.1433 14.0625 25.8913 14.3565 25.7473 14.6806C25.7473 14.6806 24.6372 17.3928 23.059 19.157C22.549 19.667 22.315 19.829 22.0389 19.829C21.9009 19.829 21.6909 19.667 21.6909 19.205V14.8726C21.6909 14.3145 21.5349 14.0685 21.0729 14.0685H17.6345C17.2865 14.0685 17.0764 14.3265 17.0764 14.5726C17.0764 15.1006 17.8625 15.2206 17.9466 16.7028V19.9252C17.9466 20.6332 17.8206 20.7593 17.5385 20.7593C16.7944 20.7593 14.9943 18.035 13.9201 14.9147C13.7101 14.3086 13.5001 14.0626 12.942 14.0626H10.7518C10.1277 14.0626 10.0017 14.3566 10.0017 14.6806C10.0017 15.2627 10.7458 18.137 13.4581 21.9353C15.2643 24.5336 17.8145 25.9378 20.1307 25.9378C21.5229 25.9378 21.6909 25.6258 21.6909 25.0856V23.1235C21.6909 22.4994 21.8229 22.3734 22.261 22.3734C22.585 22.3734 23.1431 22.5354 24.4392 23.7895C25.9213 25.2717 26.1674 25.9378 27.0015 25.9378H29.1917C29.8158 25.9378 30.1278 25.6258 29.9478 25.0076C29.7498 24.3956 29.0416 23.5015 28.0996 22.4454C27.5895 21.8453 26.8275 21.1913 26.5935 20.8672C26.2695 20.4472 26.3595 20.2672 26.5935 19.8951C26.5935 19.8951 29.2577 16.1387 29.5398 14.8666H29.5518L29.5517 14.8666Z" fill="#0D0C09"/>
</svg>
