<svg width="155" height="64" viewBox="0 0 155 64" fill="none" xmlns="http://www.w3.org/2000/svg">
    <path d="M33.963 56.4524H19.8142V59.0451H33.963V56.4524Z" fill="#EADECE"/>
    <path d="M46.6969 27.1602C46.6969 38.1447 37.9501 47.0521 27.1574 47.0521C16.3647 47.0521 7.61792 38.1476 7.61792 27.1602C7.61792 16.1729 16.3675 7.27124 27.1574 7.27124C37.9473 7.27124 46.6969 16.1758 46.6969 27.1631" fill="#E3A34A"/>
    <path d="M39.7189 56.7662H13.8464V28.3472H9.75171L26.7812 10.8435L43.8107 28.3472H39.7161V56.7662H39.7189ZM15.8215 54.7554H37.7437V26.3393H39.0794L26.784 13.7013L14.4887 26.3393H15.8244V54.7583L15.8215 54.7554Z" fill="#203A2C"/>
    <path d="M35.3468 60.4997H18.1475V54.7583H35.3468V60.4997ZM20.1198 58.4889H33.3716V56.7662H20.1198V58.4889Z" fill="#203A2C"/>
    <path d="M53.2204 60.4421H1V63.9999H53.2204V60.4421Z" fill="#203A2C"/>
    <path d="M26.7838 13.7012L14.4885 26.3392H15.8242V54.7582H37.7463V26.3392H39.082L26.7867 13.7012H26.7838ZM29.5683 47.0089H23.9286V38.3982H29.5683V47.0089Z" fill="#EADECE"/>
    <path d="M29.6024 23.1819H23.9626V28.9233H29.6024V23.1819Z" fill="#EBE9D8"/>
    <path d="M41.1959 12.1946L45.0585 8.06645C47.4355 5.48526 45.9103 2.5094 45.2877 1.52417C45.1745 1.34557 44.9312 1.31676 44.784 1.46944L41.5835 4.72761C41.5835 4.72761 38.1086 7.87344 41.1987 12.1975" fill="#00422C"/>
    <path d="M41.6742 12.6815L45.7293 8.74923C48.2647 6.32937 51.1879 7.88211 52.1557 8.51589C52.3311 8.63112 52.3594 8.87887 52.2094 9.02867L49.009 12.2868C49.009 12.2868 45.9189 15.8245 41.6714 12.6786" fill="#00422C"/>
    <path d="M34.3394 19.1719L38.202 15.0437C40.579 12.4626 39.0538 9.4867 38.4313 8.50147C38.3181 8.32286 38.0747 8.29405 37.9276 8.44673L34.7271 11.7049C34.7271 11.7049 31.2522 14.8507 34.3423 19.1748" fill="#326E4E"/>
    <path d="M34.8202 19.6588L38.8753 15.7265C41.4107 13.3067 44.3339 14.8594 45.3016 15.4932C45.4771 15.6084 45.5026 15.8562 45.3554 16.006L42.155 19.2641C42.155 19.2641 39.0649 22.8017 34.8174 19.6559" fill="#326E4E"/>
    <path d="M47.9507 5.51134C47.9507 5.51134 47.9507 0.0090332 53.5508 0.0090332C53.5508 0.0090332 54.1309 5.51134 47.9507 5.51134Z" fill="#00422C"/>
    <path d="M34.1214 18.2143L27.7043 24.7471L29.2491 26.3197L35.6661 19.7869L34.1214 18.2143Z" fill="#326E4E"/>
    <path d="M12.3719 42.3364L8.50923 46.4645C6.13223 49.0457 7.65747 52.0216 8.28002 53.0068C8.39321 53.1854 8.63657 53.2114 8.78371 53.0616L11.9842 49.8034C11.9842 49.8034 15.4591 46.6576 12.3719 42.3335" fill="#00422C"/>
    <path d="M11.8909 41.8495L7.83583 45.7818C5.30036 48.2017 2.37722 46.6489 1.40944 46.0151C1.23399 45.8999 1.20853 45.6522 1.35567 45.5024L4.55614 42.2442C4.55614 42.2442 7.64623 38.7066 11.8937 41.8524" fill="#00422C"/>
    <path d="M19.2256 35.3591L15.363 39.4873C12.986 42.0684 14.5112 45.0443 15.1338 46.0295C15.247 46.2081 15.4903 46.2341 15.6375 46.0843L18.8379 42.8261C18.8379 42.8261 22.3129 39.6803 19.2256 35.3562" fill="#326E4E"/>
    <path d="M18.7446 34.8722L14.6896 38.8045C12.1541 41.2244 9.23098 39.6716 8.2632 39.0378C8.08775 38.9226 8.06229 38.6749 8.20943 38.5251L11.4099 35.2669C11.4099 35.2669 14.5 31.7293 18.7475 34.8751" fill="#326E4E"/>
    <path d="M5.61459 49.0198C5.61459 49.0198 5.61459 54.5221 0.0144921 54.5221C0.0144921 54.5221 -0.565609 49.0198 5.61459 49.0198Z" fill="#00422C"/>
    <path d="M24.3169 28.2121L17.8999 34.7449L19.4446 36.3175L25.8617 29.7847L24.3169 28.2121Z" fill="#326E4E"/>
    <path d="M41.5893 41.9386L45.6443 45.8709C48.1798 48.2908 51.1029 46.738 52.0707 46.1043C52.2461 45.989 52.2744 45.7413 52.1245 45.5915L48.924 42.3333C48.924 42.3333 45.8339 38.7957 41.5864 41.9415" fill="#00422C"/>
    <path d="M41.1082 42.4257L44.9708 46.5539C47.3478 49.1351 45.8226 52.1109 45.2001 53.0962C45.0869 53.2748 44.8435 53.3007 44.6964 53.1509L41.4959 49.8927C41.4959 49.8927 38.021 46.7469 41.1111 42.4229" fill="#00422C"/>
    <path d="M34.7328 34.9586L38.7879 38.8909C41.3233 41.3107 44.2465 39.758 45.2142 39.1242C45.3897 39.009 45.418 38.7612 45.268 38.6085L42.0676 35.3504C42.0676 35.3504 38.9775 31.8128 34.73 34.9557" fill="#326E4E"/>
    <path d="M34.2545 35.4482L38.1171 39.5764C40.4941 42.1576 38.9688 45.1334 38.3463 46.1186C38.2331 46.2972 37.9897 46.3232 37.8426 46.1734L34.6421 42.9152C34.6421 42.9152 31.1672 39.7694 34.2573 35.4453" fill="#326E4E"/>
    <path d="M48.1514 48.8154C48.1514 48.8154 53.5562 48.8154 53.5562 54.5165C53.5562 54.5165 48.1514 55.1071 48.1514 48.8154Z" fill="#00422C"/>
    <path d="M29.2586 28.2043L27.7139 29.7769L34.1309 36.3096L35.6756 34.737L29.2586 28.2043Z" fill="#326E4E"/>
    <path d="M11.9785 12.5951L7.92348 8.66281C5.38801 6.24294 2.46486 7.79569 1.49709 8.42946C1.32164 8.54469 1.29617 8.79244 1.44332 8.94224L4.64378 12.2004C4.64378 12.2004 7.73388 15.738 11.9814 12.5922" fill="#00422C"/>
    <path d="M12.4568 12.1053L8.59419 7.97709C6.21719 5.39591 7.74243 2.42005 8.36498 1.43482C8.47817 1.25621 8.72153 1.2274 8.86867 1.38008L12.0691 4.63826C12.0691 4.63826 15.5441 7.78408 12.454 12.1081" fill="#00422C"/>
    <path d="M18.8323 19.5724L14.7772 15.6401C12.2418 13.2202 9.31862 14.773 8.35085 15.4068C8.1754 15.522 8.14993 15.7697 8.29708 15.9195L11.4975 19.1777C11.4975 19.1777 14.5876 22.7153 18.8351 19.5695" fill="#326E4E"/>
    <path d="M19.3106 19.0826L15.4479 14.9544C13.0709 12.3732 14.5962 9.39734 15.2187 8.41211C15.3319 8.2335 15.5753 8.2047 15.7224 8.35738L18.9229 11.6156C18.9229 11.6156 22.3978 14.7614 19.3106 19.0854" fill="#326E4E"/>
    <path d="M5.41363 5.71584C5.41363 5.71584 0.00878906 5.71584 0.00878906 0.0147534C0.00878906 0.0147534 5.41363 -0.575809 5.41363 5.71584Z" fill="#00422C"/>
    <path d="M19.438 18.2231L17.8933 19.7957L24.3103 26.3284L25.8551 24.7558L19.438 18.2231Z" fill="#326E4E"/>
    <path d="M30.9605 27.3275C30.9605 29.7157 29.0589 31.6516 26.713 31.6516C24.3672 31.6516 22.4656 29.7157 22.4656 27.3275C22.4656 24.9393 24.3672 23.0034 26.713 23.0034C29.0589 23.0034 30.9605 24.9393 30.9605 27.3275Z" fill="#326E4E"/>
    <path d="M70.4351 27.8709C69.4222 27.8709 68.6241 27.6761 68.0454 27.2865C67.4666 26.8968 67.0559 26.3552 66.8132 25.6567C66.5704 24.9582 66.4444 24.1552 66.4444 23.2429V22.7154H69.4502V23.2809C69.4502 24.0079 69.5203 24.5305 69.6649 24.8394C69.8096 25.1482 70.0804 25.3051 70.4864 25.3051C70.7618 25.3051 70.9672 25.2338 71.1025 25.0865C71.2379 24.9392 71.3359 24.7254 71.3872 24.4403C71.4432 24.1552 71.4666 23.794 71.4666 23.3569C71.4666 22.6157 71.3592 22.055 71.1445 21.6701C70.9298 21.2852 70.4817 21.0904 69.8003 21.0761C69.7863 21.0619 69.7396 21.0571 69.6463 21.0571H68.9928V19.071H69.7256C70.4304 19.0615 70.8925 18.8666 71.1212 18.4865C71.3499 18.1111 71.4619 17.5504 71.4619 16.8092C71.4619 16.239 71.3732 15.8019 71.2005 15.4978C71.0278 15.1937 70.7385 15.0416 70.3324 15.0416C69.9263 15.0416 69.6696 15.2032 69.5203 15.5263C69.3709 15.8494 69.2916 16.277 69.2776 16.8092V17.6312H66.2717V16.7379C66.2717 15.8494 66.4398 15.1034 66.7805 14.4904C67.1212 13.8775 67.5973 13.4118 68.204 13.0982C68.8108 12.7846 69.5296 12.623 70.3511 12.623C71.1725 12.623 71.924 12.7751 72.5261 13.0792C73.1282 13.3833 73.5903 13.83 73.9123 14.4191C74.2344 15.0083 74.3977 15.7401 74.3977 16.6144C74.3977 17.4887 74.225 18.2014 73.8796 18.7906C73.5342 19.3798 73.1142 19.7409 72.6288 19.874C72.9648 20.007 73.2635 20.2066 73.5342 20.4679C73.805 20.7293 74.015 21.0856 74.169 21.5323C74.323 21.9837 74.4024 22.5586 74.4024 23.2619C74.4024 24.1599 74.2764 24.9582 74.0197 25.6567C73.763 26.3552 73.3429 26.8968 72.7595 27.2865C72.176 27.6761 71.4012 27.8709 70.4351 27.8709Z" fill="#E3A34A"/>
    <path d="M82.7243 27.8187C81.6368 27.8187 80.778 27.6239 80.1479 27.2342C79.5131 26.8446 79.0604 26.2887 78.7896 25.5569C78.5189 24.8252 78.3789 23.9604 78.3789 22.953V17.4697C78.3789 16.4481 78.5143 15.5833 78.7896 14.8658C79.065 14.1483 79.5178 13.5972 80.1479 13.217C80.778 12.8321 81.6368 12.6421 82.7243 12.6421C83.8118 12.6421 84.6893 12.8321 85.3287 13.217C85.9681 13.5972 86.4209 14.1483 86.6963 14.8658C86.9716 15.5833 87.107 16.4481 87.107 17.4697V22.953C87.107 23.9604 86.9716 24.8299 86.6963 25.5569C86.4209 26.2839 85.9635 26.8446 85.3287 27.2342C84.6893 27.6239 83.8211 27.8187 82.7243 27.8187ZM82.7243 25.5047C83.0603 25.5047 83.303 25.4191 83.4571 25.2481C83.6111 25.077 83.7138 24.8584 83.7605 24.5923C83.8071 24.3263 83.8305 24.0507 83.8305 23.7703V16.6667C83.8305 16.3768 83.8071 16.1012 83.7605 15.8399C83.7138 15.5786 83.6111 15.3648 83.4571 15.1937C83.303 15.0226 83.0557 14.9371 82.7243 14.9371C82.4162 14.9371 82.1829 15.0226 82.0242 15.1937C81.8701 15.3648 81.7675 15.5786 81.7208 15.8399C81.6741 16.1012 81.6508 16.3768 81.6508 16.6667V23.7703C81.6508 24.0507 81.6694 24.3215 81.7114 24.5923C81.7535 24.8584 81.8468 25.077 81.9962 25.2481C82.1455 25.4191 82.3882 25.5047 82.7196 25.5047H82.7243Z" fill="#E3A34A"/>
    <path d="M90.5095 27.5998V25.3048C90.9156 25.3048 91.2423 25.2762 91.4943 25.224C91.7464 25.167 91.9424 25.0387 92.0824 24.8344C92.2225 24.63 92.3392 24.3117 92.4232 23.8888C92.5072 23.4659 92.5772 22.891 92.6285 22.1782C92.6845 21.4607 92.7499 20.5532 92.8339 19.446L93.3006 12.8508H100.979V27.6045H97.7954V15.3454H96.2038L95.9191 20.0637C95.8351 21.2802 95.751 22.3255 95.667 23.2045C95.583 24.0836 95.4477 24.8248 95.2656 25.4188C95.0789 26.0127 94.8082 26.4784 94.4442 26.811C94.0801 27.1436 93.5807 27.3717 92.9506 27.4952C92.3158 27.6188 91.5083 27.652 90.5189 27.6045L90.5095 27.5998Z" fill="#E3A34A"/>
    <path d="M109.763 27.8187C108.675 27.8187 107.817 27.6239 107.186 27.2342C106.552 26.8446 106.099 26.2887 105.828 25.5569C105.558 24.8252 105.417 23.9604 105.417 22.953V17.4697C105.417 16.4481 105.553 15.5833 105.828 14.8658C106.104 14.1483 106.556 13.5972 107.186 13.217C107.817 12.8321 108.675 12.6421 109.763 12.6421C110.85 12.6421 111.728 12.8321 112.367 13.217C113.007 13.5972 113.459 14.1483 113.735 14.8658C114.01 15.5833 114.146 16.4481 114.146 17.4697V22.953C114.146 23.9604 114.01 24.8299 113.735 25.5569C113.459 26.2839 113.002 26.8446 112.367 27.2342C111.728 27.6239 110.86 27.8187 109.763 27.8187ZM109.763 25.5047C110.099 25.5047 110.342 25.4191 110.496 25.2481C110.65 25.077 110.752 24.8584 110.799 24.5923C110.846 24.3263 110.869 24.0507 110.869 23.7703V16.6667C110.869 16.3768 110.846 16.1012 110.799 15.8399C110.752 15.5786 110.65 15.3648 110.496 15.1937C110.342 15.0226 110.094 14.9371 109.763 14.9371C109.45 14.9371 109.221 15.0226 109.063 15.1937C108.909 15.3648 108.806 15.5786 108.759 15.8399C108.713 16.1012 108.689 16.3768 108.689 16.6667V23.7703C108.689 24.0507 108.708 24.3215 108.75 24.5923C108.792 24.8584 108.885 25.077 109.035 25.2481C109.184 25.4191 109.427 25.5047 109.758 25.5047H109.763Z" fill="#E3A34A"/>
    <path d="M119.802 27.6V15.2649H117.618V12.8416H125.188V15.2649H123.023V27.6H119.802Z" fill="#E3A34A"/>
    <path d="M128.18 27.5999L130.92 12.8462H134.57L137.273 27.5999H134.318L133.833 24.4828H131.704L131.205 27.5999H128.18ZM131.994 22.5347H133.534L132.764 16.7758L131.994 22.5347Z" fill="#E3A34A"/>
    <path d="M140.241 27.5999L142.995 21.0427C142.444 20.7006 141.996 20.2064 141.646 19.5507C141.296 18.895 141.118 18.13 141.118 17.2557C141.118 16.1153 141.314 15.222 141.707 14.5853C142.099 13.9486 142.663 13.4972 143.396 13.2358C144.129 12.9745 145.011 12.8462 146.038 12.8462H149.758V27.5999H146.575V21.7697H145.805L143.695 27.5999H140.241ZM146.113 19.4747H146.579V15.0842H146.08C145.422 15.0842 144.932 15.2695 144.605 15.6401C144.278 16.0108 144.115 16.5524 144.115 17.2699C144.115 17.9019 144.26 18.4246 144.544 18.8475C144.829 19.2704 145.356 19.4747 146.117 19.4747H146.113Z" fill="#E3A34A"/>
    <path d="M66.2717 46.2202L66.4818 33.8708H69.1002L70.5984 41.6635L72.1994 33.8708H74.7291L74.9391 46.2202H73.1422L72.9462 37.8479L71.4059 46.2202H69.8656L68.2507 37.7909L68.0874 46.2202H66.2764H66.2717Z" fill="#203A2C"/>
    <path d="M78.7478 46.2202V33.8708H84.036V35.6099H81.2215V38.8885H83.3919V40.6419H81.2215V44.5144H84.0687V46.2202H78.7525H78.7478Z" fill="#203A2C"/>
    <path d="M86.5051 46.2202V44.4384C86.8132 44.4384 87.0699 44.4146 87.2753 44.3719C87.4806 44.3291 87.644 44.2198 87.77 44.0535C87.896 43.8872 87.9987 43.6259 88.0781 43.2743C88.1574 42.9226 88.2274 42.4522 88.2788 41.863C88.3348 41.2738 88.3908 40.5278 88.4514 39.6203L88.8575 33.8708H95.0419V46.2202H92.5868V35.7905H91.0745L90.8225 40.0147C90.7618 40.9887 90.6965 41.8345 90.6218 42.552C90.5471 43.2695 90.4304 43.873 90.2764 44.3576C90.1224 44.847 89.8983 45.2319 89.6043 45.5218C89.3103 45.8116 88.9135 46.0112 88.4141 46.1157C87.9147 46.2203 87.2799 46.2535 86.5098 46.2155L86.5051 46.2202Z" fill="#203A2C"/>
    <path d="M98.9485 46.2202V33.8708H101.418V39.0691H101.987C102.776 39.0691 103.439 39.1926 103.98 39.435C104.521 39.6773 104.927 40.0622 105.208 40.5849C105.488 41.1075 105.628 41.7918 105.628 42.6375C105.628 43.3693 105.534 43.968 105.352 44.4289C105.166 44.8898 104.904 45.2557 104.559 45.517C104.213 45.7831 103.812 45.9637 103.345 46.0634C102.878 46.1632 102.37 46.2155 101.81 46.2155H98.9485V46.2202ZM101.418 44.5572H101.824C102.192 44.5572 102.491 44.4907 102.715 44.3576C102.939 44.2246 103.102 44.0155 103.201 43.7257C103.299 43.4358 103.345 43.0557 103.336 42.59C103.327 42.0531 103.219 41.6207 103.014 41.3024C102.808 40.984 102.402 40.8224 101.791 40.8224H101.418V44.5572Z" fill="#203A2C"/>
    <path d="M109.086 46.2202V33.8708H111.555V38.9455H113.697V33.8708H116.166V46.2202H113.697V40.7464H111.555V46.2202H109.086Z" fill="#203A2C"/>
    <path d="M120.096 46.2202V33.8708H122.075V41.2643L125.282 33.8708H126.902V46.2202H124.895V38.7032L121.66 46.2202H120.101H120.096Z" fill="#203A2C"/>
    <path d="M137.796 48.7956L137.497 46.2202H130.804V33.8708H133.273V44.5144H135.606V33.8708H138.076V44.5144H139.616V48.8004H137.786L137.796 48.7956Z" fill="#203A2C"/>
    <path d="M142.243 46.2202L144.596 33.8708H147.336L149.674 46.2202H147.382L146.948 43.5071H145.03L144.568 46.2202H142.248H142.243ZM145.254 41.9676H146.705L145.973 36.9832L145.254 41.9676Z" fill="#203A2C"/>
    </svg>
    