<svg width="134" height="29" viewBox="0 0 134 29" fill="none" xmlns="http://www.w3.org/2000/svg">
<path d="M0.746449 27H9.44673C14.0206 27 16.4567 24.6136 16.4567 21.3722C16.4567 18.3594 14.299 16.5398 11.9822 16.4304V16.2315C14.1001 15.7543 15.6612 14.2528 15.6612 11.8565C15.6612 8.80398 13.3942 6.63636 8.89986 6.63636H0.746449V27ZM5.05185 23.4801V18.071H8.66122C10.7294 18.071 12.0121 19.2642 12.0121 20.9446C12.0121 22.4759 10.968 23.4801 8.56179 23.4801H5.05185ZM5.05185 15.1577V10.1165H8.32315C10.2322 10.1165 11.3161 11.1009 11.3161 12.5724C11.3161 14.1832 10.0036 15.1577 8.24361 15.1577H5.05185ZM22.7681 27L24.2795 22.3565H31.6275L33.1388 27H37.7525L30.7326 6.63636H25.1843L18.1545 27H22.7681ZM25.3732 18.9957L27.8789 11.2898H28.038L30.5437 18.9957H25.3732ZM57.9595 16.8182C57.9595 10.1562 53.8232 6.35795 48.424 6.35795C42.995 6.35795 38.8885 10.1562 38.8885 16.8182C38.8885 23.4503 42.995 27.2784 48.424 27.2784C49.6967 27.2784 50.8999 27.0696 51.9936 26.652L53.6342 28.6705H57.6513L54.7379 25.0114C56.7266 23.2315 57.9595 20.4474 57.9595 16.8182ZM46.9325 19.9205L49.5376 23.3608C49.1896 23.4304 48.8118 23.4702 48.424 23.4702C45.2919 23.4702 43.2536 21.1335 43.2536 16.8182C43.2536 12.5028 45.2919 10.1662 48.424 10.1662C51.5462 10.1662 53.5945 12.5028 53.5945 16.8182C53.5945 19.0355 53.0476 20.7358 52.103 21.8594L50.5916 19.9205H46.9325ZM58.7251 6.63636L66.1527 19.8011V27H70.4283V19.8011L77.8558 6.63636H73.0334L68.3899 15.4062H68.1911L63.5476 6.63636H58.7251ZM80.2074 27H93.2429V23.4503H84.5128V6.63636H80.2074V27ZM100.124 27L101.635 22.3565H108.983L110.494 27H115.108L108.088 6.63636H102.54L95.5099 27H100.124ZM102.729 18.9957L105.234 11.2898H105.393L107.899 18.9957H102.729ZM114.288 6.63636L121.715 19.8011V27H125.991V19.8011L133.418 6.63636H128.596L123.952 15.4062H123.754L119.11 6.63636H114.288ZM122.332 4.66761H125.325L128.357 0.143466H124.44L122.332 4.66761Z" fill="#1A1A1A"/>
</svg>
