<svg width="44" height="44" viewBox="0 0 44 44" fill="none" xmlns="http://www.w3.org/2000/svg">
<rect width="44" height="44" rx="22" fill="#4685D7"/>
<path fill-rule="evenodd" clip-rule="evenodd" d="M15.1333 20.8555C14.5013 20.8555 13.9889 21.3679 13.9889 21.9999C13.9889 22.632 14.5013 23.1444 15.1333 23.1444L20.8554 23.1444L20.8554 28.8667C20.8554 29.4988 21.3678 30.0112 21.9999 30.0112C22.632 30.0112 23.1444 29.4988 23.1444 28.8667L23.1443 23.1444L28.8667 23.1444C29.4988 23.1444 30.0112 22.632 30.0112 22C30.0112 21.3679 29.4988 20.8555 28.8667 20.8555L23.1443 20.8555L23.1443 15.1333C23.1443 14.5013 22.632 13.9889 21.9999 13.9889C21.3678 13.9889 20.8554 14.5013 20.8554 15.1333L20.8554 20.8555L15.1333 20.8555Z" fill="white"/>
</svg>
