<svg width="12" height="12" viewBox="0 0 12 12" fill="none" xmlns="http://www.w3.org/2000/svg">
<g clip-path="url(#clip0)">
<path d="M7.09939 6.0103L11.772 1.3376C12.076 1.03366 12.076 0.542232 11.772 0.238293C11.468 -0.0656471 10.9766 -0.0656471 10.6727 0.238293L5.99994 4.91099L1.32737 0.238293C1.02329 -0.0656471 0.532003 -0.0656471 0.228062 0.238293C-0.0760207 0.542232 -0.0760207 1.03366 0.228062 1.3376L4.90063 6.0103L0.228062 10.683C-0.0760207 10.9869 -0.0760207 11.4784 0.228062 11.7823C0.379534 11.9339 0.578697 12.0101 0.777717 12.0101C0.976738 12.0101 1.17576 11.9339 1.32737 11.7823L5.99994 7.10961L10.6727 11.7823C10.8243 11.9339 11.0233 12.0101 11.2223 12.0101C11.4213 12.0101 11.6203 11.9339 11.772 11.7823C12.076 11.4784 12.076 10.9869 11.772 10.683L7.09939 6.0103Z" fill="#4685D7"/>
</g>
<defs>
<clipPath id="clip0">
<rect width="12" height="12" fill="white"/>
</clipPath>
</defs>
</svg>
