<svg width="26" height="26" viewBox="0 0 26 26" fill="none" xmlns="http://www.w3.org/2000/svg">
<g clip-path="url(#clip0)">
<path d="M9.70643 8.27013L3.4676 2.03125H7.46484C8.02577 2.03125 8.48047 1.57655 8.48047 1.01562C8.48047 0.454695 8.02577 0 7.46484 0H3.04688C1.36683 0 0 1.36683 0 3.04688V7.46484C0 8.02577 0.454695 8.48047 1.01562 8.48047C1.57655 8.48047 2.03125 8.02577 2.03125 7.46484V3.4676L8.27013 9.70648C8.46843 9.90478 8.72833 10.0039 8.98828 10.0039C9.24823 10.0039 9.50813 9.90478 9.70643 9.70648C10.1031 9.30983 10.1031 8.66673 9.70643 8.27013Z" fill="white"/>
<path d="M9.70643 16.2936C9.30978 15.897 8.66673 15.8969 8.27013 16.2935L2.03125 22.5324V18.5352C2.03125 17.9742 1.57655 17.5195 1.01562 17.5195C0.454695 17.5195 0 17.9742 0 18.5352V22.9531C0 24.6332 1.36683 26 3.04688 26H7.46484C8.02577 26 8.48047 25.5453 8.48047 24.9844C8.48047 24.4234 8.02577 23.9688 7.46484 23.9688H3.4676L9.70643 17.7299C10.1031 17.3333 10.1031 16.6902 9.70643 16.2936Z" fill="white"/>
<path d="M24.9844 17.5195C24.4234 17.5195 23.9687 17.9742 23.9687 18.5351V22.5324L17.7299 16.2935C17.3332 15.8968 16.6902 15.8968 16.2936 16.2935C15.897 16.6901 15.8969 17.3332 16.2936 17.7298L22.5324 23.9687H18.5352C17.9742 23.9687 17.5195 24.4234 17.5195 24.9843C17.5195 25.5453 17.9742 26 18.5352 26H22.9531C24.6332 26 26 24.6331 26 22.9531V18.5351C26 17.9742 25.5453 17.5195 24.9844 17.5195Z" fill="white"/>
<path d="M22.9529 0H18.5349C17.974 0 17.5193 0.454695 17.5193 1.01562C17.5193 1.57655 17.974 2.03125 18.5349 2.03125H22.5322L16.2933 8.27008C15.8967 8.66673 15.8967 9.30983 16.2933 9.70643C16.4916 9.90478 16.7515 10.0039 17.0115 10.0039C17.2714 10.0039 17.5313 9.90478 17.7296 9.70648L23.9685 3.4676V7.46484C23.9685 8.02577 24.4232 8.48047 24.9841 8.48047C25.5451 8.48047 25.9998 8.02577 25.9998 7.46484V3.04688C25.9998 1.36683 24.6329 0 22.9529 0Z" fill="white"/>
</g>
<defs>
<clipPath id="clip0">
<rect width="26" height="26" fill="white"/>
</clipPath>
</defs>
</svg>
