<svg width="26" height="26" viewBox="0 0 26 26" fill="none" xmlns="http://www.w3.org/2000/svg">
<rect width="26" height="26" fill="#4685D7"/>
<path d="M17.9672 10.6828L14.8066 7.3386C14.4054 6.914 13.7624 6.9222 13.3704 7.35692C12.9785 7.79164 12.9861 8.48822 13.3873 8.91282L16.2469 11.9386L7.42449 12.0511C6.86357 12.0583 6.41422 12.5567 6.42086 13.1643C6.42413 13.4681 6.5408 13.7417 6.72676 13.9384C6.91272 14.1352 7.16791 14.2551 7.44833 14.2515L16.2708 14.139L13.4778 17.2369C13.0859 17.6716 13.0935 18.3682 13.4947 18.7928C13.896 19.2174 14.539 19.2092 14.931 18.7744L18.0179 15.3505C19.1918 14.0485 19.1691 11.9546 17.9672 10.6828Z" fill="white"/>
</svg>
