<svg width="24" height="24" viewBox="0 0 24 24" fill="none" xmlns="http://www.w3.org/2000/svg">
<g clip-path="url(#clip0)">
<path d="M21.0014 3.74866H6.00667C5.17854 3.74866 4.5072 4.42 4.5072 5.24813C4.5072 6.07626 5.17854 6.7476 6.00667 6.7476H21.0014C21.8295 6.7476 22.5009 6.07626 22.5009 5.24813C22.5009 4.42 21.8295 3.74866 21.0014 3.74866Z" fill="white"/>
<path d="M3.00722 5.24816C3.00554 4.85113 2.84645 4.47097 2.56488 4.19104C1.98004 3.60966 1.03546 3.60966 0.450622 4.19104C0.169002 4.47097 0.00991737 4.85113 0.00827732 5.24816C-0.00292187 5.3453 -0.00292187 5.44342 0.00827732 5.54056C0.0252401 5.63826 0.0528866 5.73381 0.0907483 5.82546C0.131 5.91426 0.178655 5.99954 0.233198 6.08037C0.287039 6.16443 0.349876 6.24236 0.420632 6.31279C0.488858 6.38073 0.564254 6.44109 0.645553 6.49273C0.72451 6.55022 0.81012 6.59806 0.900464 6.63518C0.999851 6.68672 1.1058 6.72458 1.21535 6.74764C1.31249 6.75851 1.41061 6.75851 1.50775 6.74764C1.9037 6.74796 2.28373 6.59164 2.56488 6.31279C2.63563 6.24236 2.69847 6.16443 2.75231 6.08037C2.80686 5.99954 2.85451 5.91426 2.89476 5.82546C2.9426 5.73493 2.98033 5.63939 3.00722 5.54056C3.01842 5.44342 3.01842 5.3453 3.00722 5.24816Z" fill="white"/>
<path d="M3.00773 11.9957C3.01889 11.8986 3.01889 11.8005 3.00773 11.7033C2.98182 11.6066 2.94405 11.5134 2.89527 11.4259C2.85666 11.3339 2.80891 11.246 2.75282 11.1635C2.70086 11.0804 2.63779 11.0047 2.56539 10.9386C1.98055 10.3572 1.03597 10.3572 0.451134 10.9386C0.169514 11.2185 0.0104291 11.5987 0.00878906 11.9957C0.0116943 12.1933 0.0497903 12.3888 0.12125 12.573C0.15883 12.6617 0.204002 12.747 0.256202 12.8279C0.313229 12.9094 0.37855 12.9848 0.451134 13.0528C0.517392 13.1251 0.593021 13.1882 0.676054 13.2403C0.755011 13.2978 0.840575 13.3457 0.930965 13.3827C1.02239 13.4212 1.11802 13.4489 1.21586 13.4652C1.31178 13.4867 1.40995 13.4968 1.50826 13.4952C1.6054 13.5064 1.70352 13.5064 1.80066 13.4952C1.89606 13.4788 1.98922 13.4511 2.07806 13.4127C2.17089 13.3759 2.25898 13.3281 2.34047 13.2703C2.4235 13.2182 2.49913 13.1551 2.56539 13.0828C2.63765 13.0166 2.70072 12.941 2.75282 12.8579C2.81046 12.779 2.8583 12.6934 2.89527 12.603C2.94649 12.5035 2.98431 12.3976 3.00773 12.2881C3.01926 12.191 3.01926 12.0929 3.00773 11.9957Z" fill="white"/>
<path d="M3.0077 18.7434C3.01881 18.6463 3.01881 18.5481 3.0077 18.451C2.98179 18.3519 2.94402 18.2562 2.89524 18.1661C2.85499 18.0773 2.80734 17.992 2.75279 17.9112C2.70069 17.8282 2.63762 17.7525 2.56536 17.6863C1.98052 17.1049 1.03594 17.1049 0.451103 17.6863C0.378848 17.7525 0.315776 17.8282 0.263669 17.9112C0.209126 17.992 0.161471 18.0773 0.121219 18.1661C0.0823268 18.2574 0.0546334 18.3531 0.0387484 18.451C0.0176152 18.547 0.00758745 18.6451 0.00875891 18.7434C0.0104458 19.1404 0.16953 19.5206 0.451103 19.8005C0.517361 19.8728 0.592991 19.9359 0.676024 19.988C0.754981 20.0455 0.840545 20.0933 0.930935 20.1304C1.02236 20.1689 1.11799 20.1966 1.21583 20.2129C1.31175 20.2344 1.40992 20.2445 1.50823 20.2429C1.60537 20.2541 1.70349 20.2541 1.80063 20.2429C1.89603 20.2265 1.98919 20.1988 2.07803 20.1604C2.17086 20.1236 2.25895 20.0757 2.34044 20.018C2.42347 19.9658 2.4991 19.9028 2.56536 19.8305C2.63762 19.7643 2.70069 19.6886 2.75279 19.6056C2.81048 19.5267 2.85832 19.4411 2.89524 19.3507C2.94641 19.2511 2.98423 19.1453 3.0077 19.0358C3.01923 18.9387 3.01923 18.8405 3.0077 18.7434Z" fill="white"/>
<path d="M22.5009 10.4963H6.00667C5.17854 10.4963 4.5072 11.1677 4.5072 11.9958C4.5072 12.8239 5.17854 13.4953 6.00667 13.4953H22.5009C23.329 13.4953 24.0003 12.8239 24.0003 11.9958C24.0003 11.1677 23.329 10.4963 22.5009 10.4963Z" fill="white"/>
<path d="M15.7532 17.2439H6.00667C5.17854 17.2439 4.5072 17.9152 4.5072 18.7434C4.5072 19.5715 5.17854 20.2428 6.00667 20.2428H15.7532C16.5814 20.2428 17.2527 19.5715 17.2527 18.7434C17.2527 17.9152 16.5814 17.2439 15.7532 17.2439Z" fill="white"/>
</g>
<defs>
<clipPath id="clip0">
<rect width="24" height="24" fill="white"/>
</clipPath>
</defs>
</svg>
