<svg width="44" height="44" viewBox="0 0 44 44" fill="none" xmlns="http://www.w3.org/2000/svg">
<path d="M22.0007 0.333374C10.0407 0.333374 0.333984 10.04 0.333984 22C0.333984 33.96 10.0407 43.6667 22.0007 43.6667C33.9607 43.6667 43.6673 33.96 43.6673 22C43.6673 10.04 33.9607 0.333374 22.0007 0.333374ZM22.0007 6.83337C25.5973 6.83337 28.5007 9.73671 28.5007 13.3334C28.5007 16.93 25.5973 19.8334 22.0007 19.8334C18.404 19.8334 15.5007 16.93 15.5007 13.3334C15.5007 9.73671 18.404 6.83337 22.0007 6.83337ZM22.0007 37.6C16.584 37.6 11.7957 34.8267 9.00065 30.6234C9.06565 26.3117 17.6673 23.95 22.0007 23.95C26.3123 23.95 34.9357 26.3117 35.0007 30.6234C32.2057 34.8267 27.4173 37.6 22.0007 37.6Z" fill="#CBD6E3"/>
</svg>
