<svg width="16" height="16" viewBox="0 0 16 16" fill="none" xmlns="http://www.w3.org/2000/svg">
<path d="M15.2216 14.2927L10.8135 9.88455C11.6496 8.85235 12.1529 7.5401 12.1529 6.11137C12.1529 2.79933 9.4583 0.104736 6.14625 0.104736C2.83421 0.104736 0.139648 2.79933 0.139648 6.11137C0.139648 9.42341 2.83424 12.118 6.14628 12.118C7.57501 12.118 8.88726 11.6147 9.91946 10.7786L14.3276 15.1868C14.4511 15.3102 14.6512 15.3102 14.7747 15.1868L15.2217 14.7398C15.3451 14.6163 15.3451 14.4161 15.2216 14.2927ZM6.14628 10.8534C3.53136 10.8534 1.40421 8.7263 1.40421 6.11137C1.40421 3.49644 3.53136 1.3693 6.14628 1.3693C8.76121 1.3693 10.8884 3.49644 10.8884 6.11137C10.8884 8.7263 8.76121 10.8534 6.14628 10.8534Z" fill="#C9D0D8"/>
</svg>
