<svg xmlns="http://www.w3.org/2000/svg" width="65" height="7" viewBox="0 0 65 7" fill="none" preserveAspectRatio="none">
<path d="M0.666128 4.28117C1.00611 4.12636 1.39728 4.20335 1.71948 3.9499C1.85691 3.84868 1.96466 3.70173 2.02858 3.52837C2.20636 3.04679 2.37641 2.94513 2.81866 3.0092C3.67311 3.13282 4.52917 3.04413 5.37893 2.96913C6.79058 2.84463 8.1977 2.64844 9.60828 2.49188C11.4389 2.2885 13.2715 2.08432 15.102 1.90064C17.3169 1.67964 19.5296 1.43317 21.7471 1.246C22.7858 1.15749 23.8249 1.068 24.8644 0.977515C26.0798 0.868587 27.2971 0.799353 28.5163 0.769814C29.5463 0.745281 30.5741 0.679971 31.6068 0.677599C33.3037 0.66919 35.0042 0.669053 36.6958 0.716249C39.2231 0.79064 41.7512 0.880691 44.2755 1.06678C45.6862 1.17027 47.0976 1.24711 48.5072 1.37069C50.0805 1.51183 51.6524 1.67915 53.2228 1.87266C55.0418 2.09928 56.8545 2.37278 58.648 2.77454C60.1846 3.12133 61.7313 3.43935 63.2275 3.99822C63.273 4.00931 63.3194 4.01445 63.3659 4.01354C63.7919 4.24334 64.207 4.50594 64.6471 4.69299C64.992 4.83856 65.0733 5.01287 64.8477 5.35263C64.7696 5.43278 64.6456 5.49724 64.6199 5.5958C64.4088 6.4147 63.7896 6.39014 63.2527 6.44139C62.6833 6.49404 62.1089 6.37579 61.5404 6.2796C59.8375 5.99059 58.1447 5.6378 56.4334 5.39647C55.2615 5.2311 54.0889 5.04021 52.9155 4.90734C51.7022 4.76734 50.4909 4.686 49.2799 4.5463C47.893 4.38735 46.4999 4.30592 45.1125 4.21593C43.3019 4.09736 41.489 4.02336 39.6774 3.92671C38.2626 3.85071 36.8473 3.82214 35.4308 3.80637C33.8291 3.78879 32.2285 3.78795 30.6261 3.83204C28.4133 3.89761 26.2089 4.02892 24.0017 4.2019C21.7728 4.37666 19.5473 4.59909 17.3211 4.80951C15.547 4.97683 13.7774 5.21767 12.001 5.3577C10.1897 5.49957 8.38828 5.76549 6.57389 5.87062C5.56738 5.92942 4.56283 5.99108 3.55579 6.00103C2.90338 6.00888 2.2873 5.76649 1.64475 5.7113C1.28263 5.51595 0.924972 5.30952 0.556934 5.13077C0.393651 5.05168 0.361278 4.97575 0.453571 4.79886C0.532404 4.63084 0.603359 4.45802 0.666128 4.28117Z" fill="#FF17E9"/>
</svg>