<svg width="90" height="90" viewBox="0 0 90 90" fill="none" xmlns="http://www.w3.org/2000/svg">
    <g clip-path="url(#clip0_2625_18303)">
    <path opacity="0.3" d="M4 70V46.9907C4 38.1327 5.38397 29.9228 8.15191 22.3611C11.1328 14.7994 16.1363 7.34567 23.1626 0L35.6184 9.39814C30.0825 15.6636 26.25 21.3889 24.1208 26.5741C22.2045 31.5432 21.2464 36.8364 21.2464 42.4537L13.5813 36.9445H36.5765V70H4ZM57.6554 70V46.9907C57.6554 38.1327 59.0394 29.9228 61.8073 22.3611C64.7882 14.7994 69.7917 7.34567 76.818 0L89.2738 9.39814C83.7379 15.6636 79.9054 21.3889 77.7762 26.5741C75.8599 31.5432 74.9018 36.8364 74.9018 42.4537L67.2367 36.9445H90.2319V70H57.6554Z" fill="#EEE1D2"/>
    </g>
    <defs>
    <clipPath id="clip0_2625_18303">
    <rect width="90" height="90" fill="white"/>
    </clipPath>
    </defs>
    </svg>
    