<svg width="108" height="50" viewBox="0 0 108 50" fill="none" xmlns="http://www.w3.org/2000/svg">
    <path
        d="M11.3661 17.144C11.4249 17.0554 11.4518 16.9487 11.4423 16.842C11.4478 15.6508 11.5333 14.4614 11.6981 13.2824C11.6981 13.2656 11.6764 13.2432 11.6356 13.2181C11.5928 13.192 11.5438 13.1784 11.494 13.1789C11.426 13.1789 11.3906 13.1957 11.3906 13.2292C11.2189 14.1898 10.7571 15.0703 10.0707 15.7458C9.40792 16.341 8.55017 16.6557 7.67041 16.6267H5.97768C5.27827 16.6267 4.81018 16.5148 4.58158 16.2855C4.35298 16.0562 4.23323 15.6256 4.23323 14.9937V8.96221H7.00366C7.91081 8.96221 8.57393 9.1421 8.99303 9.50188C9.41213 9.86166 9.62169 10.4209 9.62169 11.1796C9.62169 11.216 9.67339 11.2327 9.77409 11.2327C9.87478 11.2327 9.92921 11.216 9.92921 11.1796C9.92921 10.8636 9.91016 10.4246 9.8775 9.86259L9.85301 8.67699L9.8775 6.46238C9.8775 6.42883 9.83124 6.40925 9.73599 6.40925C9.64074 6.40925 9.59447 6.42883 9.59447 6.46238C9.6155 6.73551 9.57033 7.00974 9.463 7.26054C9.35567 7.51135 9.18953 7.73093 8.97943 7.89964C8.56849 8.20723 7.92895 8.36102 7.05537 8.36102H4.23323V3.00625C4.23323 2.3715 4.36386 1.94088 4.61968 1.71439C4.87549 1.48789 5.37896 1.37045 6.1328 1.37045H7.44181C8.22836 1.33326 8.99884 1.60749 9.59447 2.13662C10.1789 2.72431 10.5349 3.5106 10.596 4.34844C10.6123 4.40156 10.6694 4.42393 10.762 4.41554C10.8545 4.40715 10.9035 4.37639 10.9035 4.32327L10.8518 1.00135C10.8518 0.844764 10.7674 0.763672 10.596 0.763672H0.129301C0.0803147 0.763672 0.0531006 0.816802 0.0531006 0.923059C0.0531006 1.02932 0.0803147 1.08244 0.129301 1.08244C0.587218 1.06147 1.04566 1.10951 1.49002 1.22505C1.61725 1.2616 1.735 1.32671 1.83477 1.41568C1.93454 1.50465 2.01385 1.61527 2.06697 1.73956C2.1895 2.11284 2.24213 2.50658 2.22209 2.89999V15.1027C2.24106 15.4997 2.18847 15.8969 2.06697 16.2743C2.01679 16.4006 1.93843 16.5129 1.83821 16.6023C1.73798 16.6916 1.61871 16.7556 1.49002 16.7888C1.04421 16.895 0.586553 16.9392 0.129301 16.9203C0.0803147 16.9203 0.0531006 16.9734 0.0531006 17.0796C0.0531006 17.1859 0.0803147 17.2362 0.129301 17.2362H11.0532C11.1087 17.2441 11.1652 17.2399 11.2191 17.224C11.273 17.2082 11.3231 17.1809 11.3661 17.144Z"
        fill="#EFEFEA" />
    <path
        d="M35.0356 15.1022C35.0827 15.4895 35.0568 15.8826 34.9594 16.2599C34.9158 16.3844 34.8436 16.4963 34.7488 16.5859C34.654 16.6755 34.5395 16.7401 34.4151 16.7744C33.9977 16.8903 33.5653 16.9394 33.1333 16.9198C33.0979 16.9198 33.0816 16.9729 33.0816 17.0791C33.0816 17.1854 33.0979 17.2357 33.1333 17.2357C33.6476 17.2357 34.0477 17.2357 34.3389 17.2106L36.0561 17.1826L37.8523 17.2106C38.1788 17.2273 38.6224 17.2357 39.1858 17.2357C39.2212 17.2357 39.2375 17.1826 39.2375 17.0791C39.2375 16.9757 39.2212 16.9198 39.1858 16.9198C38.734 16.9373 38.2819 16.8931 37.8414 16.7883C37.7139 16.7561 37.5954 16.6942 37.4949 16.6074C37.3944 16.5206 37.3146 16.4113 37.2617 16.2878C37.1356 15.9055 37.0668 15.5058 37.0576 15.1022L36.5133 2.97778C36.497 2.27686 36.6684 1.78473 37.0277 1.50137C37.3869 1.21802 37.9938 1.07821 38.8483 1.08194C38.881 1.08194 38.9 1.02881 38.9 0.922558C38.9 0.816302 38.881 0.763171 38.8483 0.763171C38.4537 0.763171 38.1544 0.763173 37.9502 0.791135L36.6412 0.8163C36.3691 0.8163 36.1459 0.816301 35.9745 0.791135C35.803 0.765969 35.667 0.763171 35.5635 0.763171C35.2234 0.763171 34.9648 0.984073 34.7961 1.42308L29.4403 14.0285L23.7253 2.13612C23.5497 1.7366 23.3355 1.35626 23.0857 1.00085C23.0175 0.922639 22.9334 0.860802 22.8394 0.819727C22.7453 0.778651 22.6436 0.759342 22.5414 0.763171C22.4027 0.763171 22.2149 0.763173 21.9754 0.791135C21.7359 0.819098 21.4311 0.8163 21.0528 0.8163C20.729 0.8163 20.4623 0.816301 20.2582 0.791135L19.2322 0.763171C19.1968 0.763171 19.1805 0.816302 19.1805 0.922558C19.1805 1.02881 19.1968 1.08194 19.2322 1.08194C19.7452 1.07073 20.2484 1.22741 20.6691 1.52934C20.9794 1.767 21.2418 2.06423 21.442 2.40455L21.2079 14.2326C21.1898 16.0259 20.4713 16.9216 19.0526 16.9198C19.0172 16.9198 19.0009 16.9729 19.0009 17.0791C19.0009 17.1854 19.0172 17.2357 19.0526 17.2357C19.5152 17.2357 19.869 17.2357 20.103 17.2106L21.5155 17.1826L22.9252 17.2106C23.181 17.2273 23.5438 17.2357 24.0137 17.2357C24.0655 17.2357 24.0899 17.1826 24.0899 17.0791C24.0899 16.9757 24.0655 16.9198 24.0137 16.9198C23.2436 16.9198 22.6884 16.7017 22.3455 16.2599C22.0026 15.8181 21.842 15.1414 21.8584 14.2326L22.0706 3.60693L28.466 17.0428C28.4895 17.0757 28.5203 17.1025 28.5557 17.121C28.5912 17.1395 28.6304 17.1491 28.6701 17.1491C28.7099 17.1491 28.7491 17.1395 28.7845 17.121C28.82 17.1025 28.8507 17.0757 28.8742 17.0428L34.5539 3.50627L35.0356 15.1022Z"
        fill="#EFEFEA" />
    <path
        d="M53.9321 17.0798C53.9321 16.9736 53.9048 16.9204 53.8559 16.9204C53.2314 16.9428 52.6066 16.8893 51.9944 16.761C51.835 16.7314 51.6833 16.6681 51.5489 16.5752C51.4144 16.4824 51.3002 16.3619 51.2133 16.2214C51.0502 15.836 50.9793 15.416 51.0065 14.9966V2.95329C50.9864 2.54704 51.039 2.14046 51.1616 1.75371C51.205 1.63624 51.2735 1.53027 51.362 1.44364C51.4506 1.35701 51.5569 1.29192 51.6733 1.25318C52.0512 1.15631 52.4407 1.11582 52.8299 1.13294C53.3395 1.11186 53.8475 1.20612 54.3178 1.40907C54.788 1.61201 55.2092 1.91868 55.5513 2.30736C56.2335 3.08844 56.5755 4.17337 56.5773 5.56216C56.5773 6.98451 56.2262 8.07317 55.5241 8.82815C55.1951 9.19507 54.794 9.48601 54.3474 9.68172C53.9007 9.87743 53.4187 9.97345 52.9333 9.96342C52.6308 9.96553 52.3293 9.92985 52.0352 9.85717C52.0026 9.84039 51.9726 9.85717 51.9454 9.9103C51.9213 9.95985 51.9083 10.0143 51.9073 10.0697C51.9073 10.1564 51.9345 10.2011 51.9862 10.2011C52.3894 10.2972 52.8026 10.3413 53.2163 10.3325C54.1396 10.333 55.0527 10.1349 55.8969 9.75091C56.75 9.37377 57.4861 8.76351 58.0251 7.98649C58.5989 7.13694 58.8918 6.1204 58.8606 5.08681C58.8606 3.6104 58.3725 2.50775 57.3965 1.77887C56.4204 1.04999 55.1295 0.685547 53.5238 0.685547C53.2 0.685547 52.819 0.699528 52.3836 0.724694C51.9481 0.74986 51.627 0.763841 51.4202 0.763841C50.8568 0.816969 50.3697 0.844934 49.9588 0.844934C49.5478 0.844934 48.9409 0.82536 48.1898 0.791805L46.9053 0.763841C46.8536 0.763841 46.8291 0.816971 46.8291 0.923228C46.8291 1.02948 46.8536 1.08261 46.9053 1.08261C47.3506 1.0641 47.7961 1.11213 48.2279 1.22522C48.3547 1.26265 48.4721 1.32809 48.5717 1.41695C48.6714 1.50582 48.7509 1.61598 48.8049 1.73972C48.9262 2.11325 48.9779 2.50694 48.9573 2.90016V15.1029C48.9769 15.4997 48.9252 15.8969 48.8049 16.2745C48.7554 16.3992 48.6786 16.5105 48.5804 16.5998C48.4822 16.689 48.3653 16.7538 48.2388 16.789C47.8021 16.8946 47.3535 16.9388 46.9053 16.9204C46.8536 16.9204 46.8291 16.9736 46.8291 17.0798C46.8291 17.1861 46.8536 17.2364 46.9053 17.2364C47.4496 17.2364 47.8905 17.2364 48.2143 17.2112L49.9833 17.1833L52.2148 17.2112C52.6085 17.228 53.1528 17.2364 53.8477 17.2364C53.9048 17.2364 53.9321 17.1833 53.9321 17.0798Z"
        fill="#EFEFEA" />
    <path
        d="M82.6265 0C82.5339 0 82.4768 0.036348 82.4605 0.106254C82.4177 0.235828 82.3436 0.35209 82.245 0.444066C82.1465 0.536041 82.0267 0.600699 81.8971 0.631945C81.443 0.737887 80.9772 0.782072 80.5119 0.763368L78.7675 0.791332C77.6381 0.824887 76.5685 0.844461 75.5589 0.844461C73.594 0.844461 71.8759 0.817429 70.4045 0.763368C69.4628 0.763368 68.9948 0.570431 68.9948 0.184552C68.9948 0.0978689 68.943 0.053129 68.8396 0.053129C68.7362 0.053129 68.6872 0.0978689 68.6872 0.184552C68.6872 0.743797 68.6437 1.58266 68.5566 2.68717C68.4695 3.79168 68.396 4.5942 68.328 5.08634C68.328 5.13946 68.3743 5.16463 68.4668 5.16463C68.5593 5.16463 68.6165 5.14785 68.6355 5.11429C68.924 3.7777 69.3685 2.80648 69.969 2.20063C70.5696 1.59478 71.3987 1.29185 72.4564 1.29185C72.9124 1.27792 73.3685 1.31354 73.8172 1.39811C73.9394 1.41946 74.0552 1.46973 74.1553 1.54495C74.2555 1.62017 74.3372 1.71828 74.3941 1.83153C74.5173 2.17269 74.5701 2.53643 74.5492 2.89968V15.1024C74.5707 15.5016 74.5095 15.901 74.3696 16.274C74.3017 16.4073 74.2051 16.5228 74.0872 16.612C73.9693 16.7011 73.8332 16.7615 73.6892 16.7885C73.1787 16.8927 72.6583 16.9368 72.138 16.92C72.0863 16.92 72.0618 16.9731 72.0618 17.0793C72.0618 17.1856 72.0863 17.2359 72.138 17.2359C72.7531 17.2359 73.232 17.2275 73.5749 17.2108L75.548 17.1828L77.5755 17.2108C77.9184 17.2275 78.3892 17.2359 78.9879 17.2359C79.0205 17.2359 79.0369 17.1828 79.0369 17.0793C79.0369 16.9759 79.0205 16.92 78.9879 16.92C78.4631 16.938 77.938 16.8939 77.4231 16.7885C77.2837 16.7625 77.152 16.7037 77.0383 16.6169C76.9245 16.5301 76.8318 16.4176 76.7672 16.288C76.6349 15.9083 76.5784 15.5051 76.6012 15.1024V2.95281C76.5795 2.58153 76.6314 2.2096 76.7536 1.85949C76.8099 1.74628 76.8898 1.64723 76.9877 1.56942C77.0855 1.4916 77.1989 1.43692 77.3196 1.4093C77.7669 1.31366 78.2238 1.27422 78.6804 1.29185C79.7925 1.29185 80.6307 1.58639 81.195 2.17546C81.7592 2.76453 82.1012 3.73483 82.221 5.08634C82.221 5.13946 82.2672 5.16463 82.3625 5.16463C82.4577 5.16463 82.504 5.13946 82.504 5.08634C82.504 4.43761 82.5339 3.56798 82.5938 2.47746C82.6537 1.38693 82.709 0.596525 82.7598 0.106254C82.7544 0.036348 82.7081 0 82.6265 0Z"
        fill="#EFEFEA" />
    <path
        d="M106.65 0.763672L105.7 0.791636C105.289 0.825191 104.938 0.844765 104.65 0.844765C104.084 0.844765 103.461 0.825191 102.778 0.791636L101.52 0.763672C101.485 0.763672 101.469 0.816802 101.469 0.923059C101.469 1.02932 101.485 1.08244 101.52 1.08244C102.459 1.08244 102.93 1.43197 102.93 2.13662C102.93 2.59147 102.725 3.1619 102.315 3.84791L99.4248 8.51201L95.4923 2.45259C95.3224 2.24229 95.2156 1.98585 95.1848 1.71439C95.1848 1.29122 95.5948 1.08058 96.4149 1.08244C96.4502 1.08244 96.4666 1.02932 96.4666 0.923059C96.4666 0.816802 96.4502 0.763672 96.4149 0.763672L94.9262 0.791636C93.9356 0.825191 93.1573 0.844765 92.594 0.844765L91.7476 0.816801C91.3367 0.783246 91.0373 0.763672 90.8495 0.763672C90.7978 0.763672 90.7733 0.816802 90.7733 0.923059C90.7733 1.02932 90.7978 1.08244 90.8495 1.08244C91.3387 1.08613 91.8128 1.25735 92.1966 1.56899C92.7661 2.07139 93.2547 2.66309 93.6444 3.32222L97.7266 9.59415V15.1027C97.7456 15.4997 97.693 15.8969 97.5715 16.2743C97.5199 16.4016 97.4397 16.5146 97.3376 16.604C97.2354 16.6934 97.1141 16.7567 96.9836 16.7888C96.5375 16.8927 96.0801 16.9369 95.6229 16.9203C95.5875 16.9203 95.5712 16.9734 95.5712 17.0796C95.5712 17.1859 95.5875 17.2362 95.6229 17.2362C96.1863 17.2362 96.6244 17.2362 96.9319 17.2111L98.7281 17.1831L100.573 17.2111C100.88 17.2278 101.299 17.2362 101.831 17.2362C101.882 17.2362 101.907 17.1831 101.907 17.0796C101.907 16.9762 101.882 16.9203 101.831 16.9203C101.378 16.9376 100.925 16.8934 100.483 16.7888C100.358 16.7573 100.241 16.6955 100.143 16.6084C100.045 16.5214 99.9686 16.4117 99.9201 16.2883C99.8066 15.9045 99.7587 15.5033 99.7786 15.1027V9.14675L102.96 3.97933C103.429 3.17105 104.037 2.45674 104.753 1.87098C105.286 1.3986 105.956 1.12125 106.658 1.08244C106.691 1.08244 106.71 1.02932 106.71 0.923059C106.71 0.816802 106.683 0.763672 106.65 0.763672Z"
        fill="#EFEFEA" />
    <path
        d="M10.8259 39.1945C10.1008 38.8558 9.32327 38.6513 8.52899 38.5905C9.33511 38.2946 10.0701 37.8246 10.6844 37.212C11.061 36.8439 11.3603 36.4004 11.5639 35.9089C11.7675 35.4175 11.8711 34.8884 11.8682 34.3543C11.8884 33.8184 11.7842 33.2854 11.5642 32.7991C11.3441 32.3129 11.0145 31.8875 10.6027 31.558C9.76272 30.8683 8.52809 30.5234 6.89885 30.5234C6.55867 30.5234 6.24026 30.5234 5.94635 30.5514C5.65243 30.5794 5.40206 30.5905 5.19523 30.6101C4.6074 30.6679 4.0486 30.6968 3.51882 30.6968C3.02624 30.6968 2.36493 30.68 1.53217 30.6409L0.1143 30.6101C0.0761998 30.6101 0.05715 30.6688 0.05715 30.7863C0.05715 30.9009 0.0761998 30.9596 0.1143 30.9596C0.606547 30.9396 1.09898 30.9943 1.57571 31.1218C1.71665 31.1628 1.84762 31.2338 1.96014 31.3301C2.07266 31.4265 2.16421 31.546 2.22886 31.6811C2.37383 32.0918 2.43677 32.5283 2.41392 32.9645V46.4703C2.43722 46.9066 2.37426 47.3432 2.22886 47.7538C2.16274 47.8903 2.06909 48.0108 1.95412 48.1072C1.83916 48.2036 1.70552 48.2738 1.56211 48.313C1.07946 48.4384 0.581824 48.492 0.084364 48.4724C0.0272137 48.4724 0 48.5311 0 48.6486C0 48.766 0.0272137 48.8219 0.084364 48.8219C0.691245 48.8219 1.17294 48.8219 1.53217 48.794L3.51882 48.766C3.9733 48.766 4.38152 48.766 4.74075 48.794C5.09998 48.8219 5.41295 48.8331 5.67693 48.8527C6.39811 48.9114 7.05942 48.9394 7.6663 48.9394C8.71524 48.9546 9.75233 48.7101 10.6898 48.2263C11.555 47.7784 12.2892 47.103 12.818 46.269C13.3405 45.4362 13.6122 44.4635 13.599 43.4728C13.6116 42.5665 13.3594 41.6773 12.8751 40.9198C12.3592 40.1622 11.6502 39.5653 10.8259 39.1945ZM4.82239 31.7426C4.86394 31.6173 4.93108 31.5026 5.01933 31.4061C5.10757 31.3096 5.21487 31.2337 5.33402 31.1834C5.66857 31.0723 6.01962 31.0231 6.37089 31.0379C7.48668 31.0379 8.314 31.3539 8.85285 31.9859C9.39169 32.6178 9.66384 33.4884 9.66928 34.5975C9.66928 35.8036 9.35722 36.7758 8.7331 37.514C8.10899 38.2522 7.1719 38.625 5.92186 38.6325C5.53541 38.6325 5.10542 38.6185 4.67271 38.5989V33.04C4.65152 32.602 4.70212 32.1634 4.82239 31.7426ZM10.2163 47.3036C9.56314 48.025 8.56528 48.3848 7.2227 48.3829C6.67227 48.4072 6.12149 48.344 5.58984 48.1956C5.27882 48.1079 5.01389 47.898 4.85233 47.6112C4.70281 47.2591 4.6348 46.8763 4.65366 46.4927V39.3315C5.30513 39.2723 5.95964 39.2564 6.6131 39.284C8.06454 39.3027 9.19031 39.7594 9.99041 40.6542C10.7905 41.549 11.1878 42.7355 11.1824 44.2138C11.1915 45.556 10.8694 46.5859 10.2163 47.3036Z"
        fill="#EFEFEA" />
    <path
        d="M88.9339 30.5317L87.7365 30.5597C87.2412 30.5988 86.7948 30.6184 86.3948 30.6184C85.8632 30.6184 85.2736 30.5988 84.6259 30.5597L83.4012 30.5317C83.3441 30.5317 83.3141 30.5904 83.3141 30.7079C83.3141 30.8253 83.3441 30.884 83.4012 30.884C83.9179 30.848 84.4324 30.9811 84.8708 31.2643C85.0342 31.3891 85.1652 31.5534 85.2521 31.7427C85.3389 31.9319 85.379 32.1403 85.3688 32.3492C85.3529 32.7623 85.2663 33.1693 85.113 33.5516L80.4348 45.7739L76.8616 37.9249L78.5462 33.5404C78.9081 32.5813 79.3272 31.899 79.8035 31.488C80.2725 31.0794 80.8705 30.8607 81.4853 30.8728C81.5234 30.8728 81.5425 30.8141 81.5425 30.6967C81.5425 30.5792 81.5234 30.5205 81.4853 30.5205L80.345 30.5485C79.8497 30.5876 79.4306 30.6072 79.0904 30.6072C78.5951 30.6072 78.157 30.5876 77.776 30.5485L77.2072 30.5205C77.1691 30.5205 77.1501 30.5792 77.1501 30.6967C77.1501 30.8141 77.1691 30.8728 77.2072 30.8728C77.9093 30.8728 78.2631 31.1748 78.2631 31.7816C78.2199 32.3379 78.0846 32.8826 77.8631 33.3922L76.467 37.0525L74.6382 33.0399C74.239 32.1805 74.0395 31.6138 74.0395 31.3398C74.0338 31.2634 74.0515 31.187 74.09 31.1214C74.1286 31.0557 74.186 31.0041 74.2544 30.9735C74.4779 30.8929 74.7147 30.8586 74.9511 30.8728C75.0083 30.8728 75.0382 30.8141 75.0382 30.6967C75.0382 30.5792 75.0083 30.5205 74.9511 30.5205C74.6273 30.5205 74.3715 30.5205 74.181 30.5485C73.5732 30.5876 72.9073 30.6072 72.1834 30.6072C71.8051 30.6072 71.386 30.5876 70.9288 30.5485L70.0444 30.5205C69.9872 30.5205 69.96 30.5792 69.96 30.6967C69.96 30.8141 69.9872 30.8728 70.0444 30.8728C70.2688 30.8682 70.4918 30.9099 70.7003 30.9954C70.9088 31.0809 71.0985 31.2084 71.2581 31.3706C71.6748 31.8338 72.0075 32.3697 72.2406 32.9532L75.2995 39.7285L72.9863 45.7655L67.1923 33.0399C66.9806 32.6302 66.8449 32.1836 66.7923 31.7229C66.7779 31.5849 66.8058 31.4458 66.8722 31.325C66.9386 31.2042 67.04 31.1077 67.1624 31.049C67.547 30.9089 67.955 30.849 68.3625 30.8728C68.4197 30.8728 68.4469 30.8141 68.4469 30.6967C68.4469 30.5792 68.4197 30.5205 68.3625 30.5205C67.9053 30.5205 67.5461 30.5205 67.2739 30.5485C66.4376 30.5876 65.5912 30.6072 64.7348 30.6072C64.2967 30.6072 63.8313 30.5876 63.336 30.5485L62.4516 30.5205C62.3944 30.5205 62.3672 30.5792 62.3672 30.6967C62.3672 30.8141 62.3944 30.8728 62.4516 30.8728C62.9302 30.8407 63.4034 30.9922 63.7796 31.2979C64.0935 31.5793 64.4309 32.1311 64.792 32.9532L71.9548 48.8134C71.9739 48.8917 72.0773 48.9309 72.2678 48.9309C72.4583 48.9309 72.5617 48.8917 72.5808 48.8134L75.6886 40.5925L79.4007 48.8134C79.4197 48.8917 79.5232 48.9309 79.7137 48.9309C79.9042 48.9309 80.0076 48.8917 80.0293 48.8134L85.8532 33.5404C86.5572 31.762 87.5841 30.8728 88.9339 30.8728C88.9938 30.8728 89.021 30.8141 89.021 30.6967C89.021 30.5792 88.9938 30.5317 88.9339 30.5317Z"
        fill="#EFEFEA" />
    <path
        d="M107.117 44.0376C107.014 44.0376 106.962 44.0375 106.962 44.1103C106.756 45.2507 106.201 46.294 105.378 47.0882C104.554 47.835 103.483 48.2284 102.385 48.1872H99.9571C99.5062 48.2041 99.0551 48.1599 98.6155 48.0557C98.4878 48.0234 98.3688 47.9618 98.2675 47.8756C98.1662 47.7894 98.0851 47.6809 98.0303 47.558C97.9055 47.1756 97.8519 46.7724 97.8725 46.3696V32.9477C97.8517 32.5053 97.9099 32.0628 98.044 31.6419C98.1019 31.5012 98.1895 31.3754 98.3006 31.2739C98.4117 31.1723 98.5434 31.0974 98.6862 31.0547C99.1759 30.9275 99.681 30.8738 100.186 30.8953C100.224 30.8953 100.243 30.8366 100.243 30.7191C100.243 30.6017 100.224 30.543 100.186 30.543L98.757 30.5709C97.9206 30.6101 97.2457 30.6297 96.7322 30.6297C96.2188 30.6297 95.5429 30.6101 94.7047 30.5709L93.2787 30.543C93.2379 30.543 93.2216 30.6017 93.2216 30.7191C93.2216 30.8366 93.2379 30.8953 93.2787 30.8953C93.787 30.8747 94.2955 30.9283 94.7891 31.0547C94.9333 31.0943 95.0671 31.1662 95.181 31.2653C95.2949 31.3645 95.386 31.4883 95.4477 31.6279C95.5829 32.0428 95.6411 32.48 95.6191 32.917V46.487C95.6399 46.9294 95.5818 47.372 95.4477 47.7929C95.3875 47.9321 95.2967 48.0551 95.1824 48.1521C95.0682 48.2492 94.9335 48.3176 94.7891 48.3521C94.2941 48.4693 93.7863 48.5191 93.2787 48.5003C93.2379 48.5003 93.2216 48.5591 93.2216 48.6765C93.2216 48.7939 93.2379 48.8499 93.2787 48.8499H106.6C106.659 48.862 106.72 48.8591 106.777 48.8414C106.834 48.8237 106.887 48.7917 106.929 48.7483C106.972 48.7049 107.003 48.6514 107.021 48.5926C107.038 48.5337 107.042 48.4713 107.03 48.4108C107.03 47.2774 107.115 45.8504 107.286 44.1298C107.286 44.0823 107.234 44.0487 107.117 44.0376Z"
        fill="#EFEFEA" />
    <path
        d="M56.046 30.6299C55.988 35.4596 54.08 40.0714 50.7355 43.4657C47.3909 46.8599 42.8793 48.7633 38.1784 48.7633C33.4774 48.7633 28.9658 46.8599 25.6213 43.4657C22.2768 40.0714 20.3688 35.4596 20.3108 30.6299H19.0997C19.1597 35.7884 21.1962 40.7146 24.7676 44.3406C28.339 47.9666 33.1575 50.0001 38.1784 50.0001C43.1993 50.0001 48.0178 47.9666 51.5892 44.3406C55.1606 40.7146 57.1971 35.7884 57.257 30.6299H56.046Z"
        fill="#EFEFEA" />
</svg>
    