<svg width="65" height="64" viewBox="0 0 65 64" fill="none" xmlns="http://www.w3.org/2000/svg">
<g id="person">
<path id="Vector" d="M32.5074 33.3326C38.2663 33.3326 43.2217 26.1329 43.2217 19.4358C43.2217 12.8209 38.2388 7.91919 32.5074 7.91919C26.7748 7.91919 21.7931 12.9283 21.7931 19.4906C21.7931 26.1329 26.776 33.3326 32.5074 33.3326ZM49.3017 36.0712C45.0697 36.0712 39.1361 38.6642 32.4948 38.6659C25.8421 38.6677 19.864 36.0712 15.6583 36.0712C11.4526 36.0712 9.95312 37.2758 9.95312 39.6335C9.95312 46.5443 18.6046 56.0792 32.48 56.0792C46.3817 56.0792 55.0343 46.5443 55.0343 39.6335C55.0343 37.2758 53.5337 36.0712 49.3017 36.0712Z" fill="#4A3E38"/>
</g>
</svg>
