<svg width="100" height="20" viewBox="0 0 100 20" fill="none" xmlns="http://www.w3.org/2000/svg">
    <path d="M10.0751 8.64743L10.1424 9.65631L10.9033 8.99046L11.7537 8.24634L11.0095 9.09671L10.3437 9.85764L11.3526 9.92487L12.48 10L11.3526 10.0751L10.3437 10.1424L11.0095 10.9033L11.7537 11.7537L10.9033 11.0095L10.1424 10.3437L10.0751 11.3526L10 12.48L9.92487 11.3526L9.85764 10.3437L9.09671 11.0095L8.24634 11.7537L8.99046 10.9033L9.65631 10.1424L8.64743 10.0751L7.51996 10L8.64743 9.92487L9.65631 9.85764L8.99046 9.09671L8.24634 8.24634L9.09671 8.99046L9.85764 9.65631L9.92487 8.64743L10 7.51996L10.0751 8.64743Z" stroke="#E0D0C0"/>
    <path d="M30.0751 8.64743L30.1424 9.65631L30.9033 8.99046L31.7537 8.24634L31.0095 9.09671L30.3437 9.85764L31.3526 9.92487L32.48 10L31.3526 10.0751L30.3437 10.1424L31.0095 10.9033L31.7537 11.7537L30.9033 11.0095L30.1424 10.3437L30.0751 11.3526L30 12.48L29.9249 11.3526L29.8576 10.3437L29.0967 11.0095L28.2463 11.7537L28.9905 10.9033L29.6563 10.1424L28.6474 10.0751L27.52 10L28.6474 9.92487L29.6563 9.85764L28.9905 9.09671L28.2463 8.24634L29.0967 8.99046L29.8576 9.65631L29.9249 8.64743L30 7.51996L30.0751 8.64743Z" stroke="#E0D0C0"/>
    <path d="M50.0751 8.64743L50.1424 9.65631L50.9033 8.99046L51.7537 8.24634L51.0095 9.09671L50.3437 9.85764L51.3526 9.92487L52.48 10L51.3526 10.0751L50.3437 10.1424L51.0095 10.9033L51.7537 11.7537L50.9033 11.0095L50.1424 10.3437L50.0751 11.3526L50 12.48L49.9249 11.3526L49.8576 10.3437L49.0967 11.0095L48.2463 11.7537L48.9905 10.9033L49.6563 10.1424L48.6474 10.0751L47.52 10L48.6474 9.92487L49.6563 9.85764L48.9905 9.09671L48.2463 8.24634L49.0967 8.99046L49.8576 9.65631L49.9249 8.64743L50 7.51996L50.0751 8.64743Z" stroke="#E0D0C0"/>
    <path d="M70.0751 8.64743L70.1424 9.65631L70.9033 8.99046L71.7537 8.24634L71.0095 9.09671L70.3437 9.85764L71.3526 9.92487L72.48 10L71.3526 10.0751L70.3437 10.1424L71.0095 10.9033L71.7537 11.7537L70.9033 11.0095L70.1424 10.3437L70.0751 11.3526L70 12.48L69.9249 11.3526L69.8576 10.3437L69.0967 11.0095L68.2463 11.7537L68.9905 10.9033L69.6563 10.1424L68.6474 10.0751L67.52 10L68.6474 9.92487L69.6563 9.85764L68.9905 9.09671L68.2463 8.24634L69.0967 8.99046L69.8576 9.65631L69.9249 8.64743L70 7.51996L70.0751 8.64743Z" stroke="#E0D0C0"/>
    <path d="M90.0751 8.64743L90.1424 9.65631L90.9033 8.99046L91.7537 8.24634L91.0095 9.09671L90.3437 9.85764L91.3526 9.92487L92.48 10L91.3526 10.0751L90.3437 10.1424L91.0095 10.9033L91.7537 11.7537L90.9033 11.0095L90.1424 10.3437L90.0751 11.3526L90 12.48L89.9249 11.3526L89.8576 10.3437L89.0967 11.0095L88.2463 11.7537L88.9905 10.9033L89.6563 10.1424L88.6474 10.0751L87.52 10L88.6474 9.92487L89.6563 9.85764L88.9905 9.09671L88.2463 8.24634L89.0967 8.99046L89.8576 9.65631L89.9249 8.64743L90 7.51996L90.0751 8.64743Z" stroke="#E0D0C0"/>
    </svg>
    