<svg width="20" height="20" viewBox="0 0 20 20" fill="none" xmlns="http://www.w3.org/2000/svg">
<path d="M10.0751 8.64743L10.1424 9.65631L10.9033 8.99046L11.7537 8.24634L11.0095 9.09671L10.3437 9.85764L11.3526 9.92487L12.48 10L11.3526 10.0751L10.3437 10.1424L11.0095 10.9033L11.7537 11.7537L10.9033 11.0095L10.1424 10.3437L10.0751 11.3526L10 12.48L9.92487 11.3526L9.85764 10.3437L9.09671 11.0095L8.24634 11.7537L8.99046 10.9033L9.65631 10.1424L8.64743 10.0751L7.51996 10L8.64743 9.92487L9.65631 9.85764L8.99046 9.09671L8.24634 8.24634L9.09671 8.99046L9.85764 9.65631L9.92487 8.64743L10 7.51996L10.0751 8.64743Z" stroke="#E0D0C0"/>
</svg>
