<svg width="170" height="73" viewBox="0 0 170 73" fill="none" xmlns="http://www.w3.org/2000/svg">
    <path fill-rule="evenodd" clip-rule="evenodd" d="M73.2256 1.33623C71.7198 1.33623 70.499 2.55267 70.499 4.05323C70.499 5.5538 71.7198 6.77024 73.2256 6.77024C74.7315 6.77024 75.9523 5.55379 75.9523 4.05323C75.9523 2.55267 74.7315 1.33623 73.2256 1.33623ZM69.1581 4.05323C69.1581 1.81469 70.9792 0 73.2256 0C75.4721 0 77.2932 1.81469 77.2932 4.05323C77.2932 6.29177 75.4721 8.10647 73.2256 8.10647C70.9792 8.10647 69.1581 6.29177 69.1581 4.05323ZM109.998 30.509C109.475 30.8929 109.04 31.3831 108.721 31.9472C108.244 32.844 108.009 34.5536 108.015 37.0761V41.9489L109.557 44.4187C109.32 44.392 109.052 44.392 108.748 44.392C107.491 44.3877 106.238 44.5048 105.004 44.7416C103.426 45.0793 101.872 45.5182 100.351 46.0556C98.8311 46.6012 97.2709 47.0279 95.6845 47.3317C94.3258 47.5599 92.95 47.6717 91.5722 47.6658C86.0743 47.6672 81.7661 46.0385 78.6476 42.7796C77.7525 41.8312 76.9588 40.7929 76.2791 39.6815C76.095 40.8123 75.7178 41.9038 75.1633 42.9087C74.3293 44.3486 73.1189 45.5362 71.6612 46.345C70.1671 47.159 68.4873 47.5748 66.7846 47.5521C65.391 47.5683 64.0094 47.2945 62.7282 46.7481C61.5797 46.2739 60.5774 45.5056 59.8228 44.5211C59.1397 43.6311 58.7705 42.5414 58.7724 41.421C58.7378 40.4764 59.0563 39.5526 59.6663 38.8287C59.9525 38.4936 60.3105 38.2268 60.714 38.048C61.1174 37.8691 61.556 37.7828 61.9974 37.7954C62.8039 37.7746 63.5866 38.0687 64.1787 38.6149C64.4697 38.8766 64.7004 39.1981 64.8547 39.5572C65.0091 39.9163 65.0834 40.3045 65.0726 40.695C65.0605 41.1643 65.0066 41.6315 64.9117 42.0914L64.7776 42.6815C64.6625 43.084 64.5987 43.4992 64.5876 43.9175C64.5728 44.2266 64.625 44.5352 64.7407 44.8223C64.8564 45.1093 65.0329 45.3682 65.2581 45.5811C65.7217 45.9985 66.33 46.2198 66.9544 46.198C67.4299 46.1959 67.8975 46.0766 68.3155 45.8506C68.7671 45.6073 69.1476 45.2512 69.4196 44.8173C69.7151 44.3638 69.9207 43.858 70.0252 43.3274C70.2234 42.3861 70.3225 40.9756 70.3225 39.096V18.3621C70.3225 16.7705 70.2189 15.5983 70.0118 14.8456C69.8089 14.0992 69.3927 13.4276 68.8139 12.9125C67.7709 11.9296 66.2065 11.2942 64.1205 11.0061V10.1732L81.6491 10.171V11.0039C79.7792 11.3231 78.4144 12.0655 77.5547 13.231C77.1685 13.7755 76.9103 14.3996 76.7993 15.0571C76.6502 15.9772 76.5748 16.9074 76.5736 17.8391C77.2216 16.8664 77.9577 15.9546 78.7728 15.1152C80.5011 13.3316 82.5643 11.9037 84.8451 10.9127C87.1575 9.90144 89.657 9.38478 92.1823 9.39608C93.9535 9.42384 95.7196 9.59365 97.4635 9.90385C97.7659 9.93651 98.1235 9.99442 98.5362 10.0776C98.9489 10.1607 99.7379 10.3092 100.903 10.523C101.392 10.6354 101.892 10.6988 102.394 10.7123C102.461 10.7123 102.581 10.7034 102.749 10.6855C102.934 10.6661 103.12 10.6564 103.306 10.6566C103.408 10.6592 103.51 10.6503 103.61 10.6299L106.515 20.322H105.757C104.041 16.8686 102.203 14.3721 100.244 12.8324C98.2844 11.2928 95.9571 10.523 93.2618 10.523C91.3079 10.5183 89.38 10.9691 87.632 11.8392C85.8063 12.7524 84.2042 14.0539 82.9387 15.6519C80.4594 18.6762 79.2197 22.506 79.2197 27.1412C79.2138 30.6748 79.8515 33.8714 81.1328 36.7309C82.4142 39.5905 84.185 41.8368 86.4453 43.47C88.6179 45.0736 91.2532 45.9331 93.9569 45.9198C95.5216 45.9505 97.0747 45.6468 98.5116 45.0289C99.8422 44.4291 100.786 43.6192 101.343 42.5992C101.866 41.6505 102.128 40.1116 102.128 37.9825V37.0672C102.128 35.4919 102.023 34.3101 101.813 33.5217C101.62 32.7686 101.235 32.078 100.695 31.5174C99.6656 30.4974 98.1563 29.8983 96.1672 29.7202V28.8872H111.756V29.7202C111.121 29.8562 110.522 30.1251 109.998 30.509ZM74.3201 26.8522C74.4971 25.1476 74.8891 23.4682 75.4896 21.8542C75.742 21.1989 76.0338 20.5593 76.3635 19.939C77.1457 18.4713 78.128 17.1185 79.2823 15.9191C81.0608 14.0929 83.1347 12.5774 85.4172 11.4361C82.9871 13.2622 81.2081 15.0342 80.0802 16.752C78.9756 18.4034 78.156 20.2273 77.6553 22.1482C77.0966 24.1875 76.8147 26.2923 76.8172 28.4062C76.804 30.8287 77.1929 33.2367 77.9682 35.5328C78.6933 37.7115 79.8112 39.7401 81.2669 41.5191C82.2411 42.6743 83.3742 43.6865 84.6327 44.5256C86.0814 45.4257 87.6255 46.1636 89.2367 46.7259C86.4239 46.4405 83.7323 45.438 81.4211 43.8152C79.2551 42.2955 77.4968 40.2689 76.3009 37.9135C76.2294 37.7799 76.1623 37.644 76.0953 37.5059C75.4835 36.1842 75.0168 34.8042 74.7009 33.3902C74.4685 32.1862 74.3428 30.9588 74.2937 29.7471C74.2561 28.822 74.2593 27.8419 74.3201 26.8522ZM74.1621 34.9823C74.1485 34.9379 74.1351 34.8935 74.1219 34.8491C73.5304 32.9258 73.2291 30.9256 73.2279 28.914C73.2227 26.9019 73.5241 24.9007 74.1219 22.9789C74.1351 22.9358 74.1485 22.8928 74.1621 22.8499V15.9524C74.1621 15.8987 74.1666 15.8451 74.1755 15.7921C74.1868 15.6938 74.1913 15.5948 74.1889 15.4959V14.6051C74.1938 14.1846 74.2955 13.7709 74.4861 13.3958C74.6471 13.1256 75.033 12.7677 75.6438 12.3223L77.1971 11.191H68.3602L69.8956 12.3179C70.5974 12.8153 71.0108 13.2042 71.136 13.4848C71.2611 13.7655 71.3237 14.4336 71.3237 15.4892V38.2742C71.3393 39.6237 71.2811 40.9731 71.1494 42.3163C71.0257 43.3274 70.8022 44.1143 70.4789 44.677C70.1163 45.2858 69.6299 45.8123 69.0508 46.2225C70.9505 45.4431 72.2773 44.2486 73.0312 42.6392C73.7851 41.0298 74.1621 38.6223 74.1621 35.4169V34.9823ZM106.084 32.0675C106.374 31.6599 106.738 31.3096 107.156 31.0341L108.654 29.8471H100.257L101.748 31.0275C102.17 31.3235 102.542 31.686 102.847 32.1009C103.032 32.4764 103.115 32.8931 103.089 33.3102C103.089 33.4883 103.091 33.6509 103.102 33.7934C103.113 33.9359 103.113 34.0717 103.113 34.1964V34.1965V38.7442C103.113 40.194 102.964 41.312 102.666 42.1003C102.37 42.8917 101.801 43.7328 100.959 44.6236C102.497 43.9444 104.124 43.4833 105.791 43.254V34.2077C105.791 33.9159 105.8 33.622 105.818 33.3169C105.793 32.8842 105.885 32.453 106.084 32.0675ZM59.7378 41.3676C59.729 42.5305 60.1794 43.6503 60.9916 44.4854H60.9827C61.8171 45.3792 62.9472 46.0021 64.3731 46.3539C63.8532 45.9999 63.3703 45.5948 62.9316 45.1446C62.6213 44.8243 62.3862 44.4395 62.2432 44.0177C62.1076 43.5467 62.0443 43.0579 62.0555 42.5679C62.0527 42.1191 62.0976 41.6712 62.1896 41.2317C62.2611 40.695 62.2968 40.4099 62.2968 40.3721C62.311 40.0408 62.2011 39.7162 61.9884 39.4612C61.886 39.3457 61.759 39.2544 61.6168 39.1939C61.4745 39.1335 61.3205 39.1053 61.166 39.1116C60.952 39.1131 60.7425 39.1725 60.5598 39.2835C60.3772 39.3945 60.2282 39.5529 60.129 39.7418C59.849 40.2368 59.7135 40.7999 59.7378 41.3676ZM32.5419 65.3405C32.4833 64.8468 32.2453 64.4635 31.828 64.1906C31.4108 63.9178 30.899 63.7813 30.2927 63.7813C29.8493 63.7813 29.4614 63.8528 29.1289 63.9957C28.7997 64.1386 28.5422 64.3352 28.3564 64.5853C28.1738 64.8354 28.0825 65.1196 28.0825 65.438C28.0825 65.7043 28.1461 65.9333 28.2732 66.125C28.4036 66.3134 28.5699 66.4709 28.772 66.5976C28.9741 66.721 29.186 66.8234 29.4076 66.9046C29.6293 66.9825 29.833 67.0459 30.0189 67.0946L31.0359 67.3675C31.2967 67.4357 31.5868 67.5299 31.9063 67.6501C32.229 67.7703 32.537 67.9343 32.8304 68.1422C33.1271 68.3468 33.3716 68.6099 33.5639 68.9315C33.7562 69.2531 33.8524 69.6478 33.8524 70.1155C33.8524 70.6548 33.7106 71.142 33.427 71.5773C33.1466 72.0126 32.7359 72.3585 32.1948 72.6151C31.6569 72.8717 31.0033 73 30.234 73C29.5168 73 28.8959 72.8847 28.371 72.6541C27.8495 72.4235 27.4387 72.1019 27.1388 71.6893C26.8422 71.2768 26.6743 70.7977 26.6352 70.252H27.8869C27.9195 70.6288 28.0467 70.9406 28.2683 71.1875C28.4933 71.4311 28.7769 71.613 29.1191 71.7332C29.4647 71.8501 29.8363 71.9086 30.234 71.9086C30.6969 71.9086 31.1125 71.8339 31.4809 71.6845C31.8492 71.5318 32.141 71.3207 32.3561 71.051C32.5713 70.7782 32.6789 70.4599 32.6789 70.096C32.6789 69.7647 32.5859 69.4951 32.4001 69.2872C32.2143 69.0793 31.9698 68.9104 31.6667 68.7805C31.3635 68.6505 31.0359 68.5369 30.6839 68.4394L29.4516 68.0886C28.6693 67.8645 28.0499 67.5445 27.5936 67.1287C27.1372 66.7129 26.909 66.1688 26.909 65.4964C26.909 64.9377 27.0606 64.4505 27.3637 64.0347C27.6702 63.6157 28.0809 63.2908 28.596 63.0602C29.1143 62.8263 29.6929 62.7094 30.3318 62.7094C30.9772 62.7094 31.551 62.8247 32.053 63.0553C32.555 63.2827 32.9527 63.5945 33.2461 63.9908C33.5427 64.3871 33.6992 64.837 33.7155 65.3405H32.5419ZM5.69161 62.8458H4.47897V69.9791C4.47897 70.3916 4.41377 70.7408 4.28338 71.0267C4.15625 71.3093 3.97044 71.5237 3.72595 71.6699C3.48147 71.816 3.18483 71.8891 2.83603 71.8891C2.51983 71.8891 2.23785 71.8306 1.99011 71.7137C1.74236 71.5968 1.54678 71.4343 1.40334 71.2265C1.26317 71.0153 1.19309 70.7684 1.19309 70.4858H0C0 70.9958 0.122243 71.436 0.366728 71.8063C0.611213 72.1766 0.946972 72.4624 1.37401 72.6638C1.80104 72.862 2.28838 72.9611 2.83603 72.9611C3.41627 72.9611 3.91991 72.8457 4.34694 72.6151C4.77398 72.3845 5.10485 72.0467 5.33955 71.6016C5.57426 71.1566 5.69161 70.6158 5.69161 69.9791V62.8458ZM12.0805 72.8246H13.3518L14.3586 69.9986H18.4083L19.415 72.8246H20.6864L17.0093 62.8458H15.7576L12.0805 72.8246ZM18.0264 68.9267L16.4226 64.4245H16.3443L14.7404 68.9267H18.0264ZM42.1128 62.8458H40.6654V72.8246H41.7999V65.2431H41.8976L45.0271 72.8246H46.1224L49.2518 65.2431H49.3496V72.8246H50.484V62.8458H49.0366L45.6334 71.129H45.516L42.1128 62.8458ZM58.9473 62.8458V72.8246H57.7347V62.8458H58.9473ZM74.1389 72.8246V62.8458H72.9458V70.7002H72.848L67.3715 62.8458H66.198V72.8246H67.4107V64.9897H67.5084L72.9653 72.8246H74.1389ZM81.7954 72.8246H80.5241L84.2011 62.8458H85.4529L89.13 72.8246H87.8587L86.8519 69.9986H82.8022L81.7954 72.8246ZM84.8661 64.4245L86.47 68.9267H83.184L84.7879 64.4245H84.8661ZM110.621 65.0823C110.797 65.3421 110.939 65.6361 111.047 65.9642H112.298C112.207 65.4802 112.041 65.04 111.8 64.6438C111.558 64.2442 111.257 63.9015 110.895 63.6157C110.536 63.3266 110.127 63.104 109.668 62.9481C109.211 62.789 108.719 62.7094 108.191 62.7094C107.549 62.7094 106.96 62.8279 106.426 63.0651C105.891 63.3022 105.428 63.6433 105.037 64.0883C104.646 64.5333 104.343 65.0725 104.128 65.7059C103.916 66.3361 103.81 67.0459 103.81 67.8352C103.81 68.8877 103.996 69.7972 104.367 70.5638C104.742 71.3304 105.264 71.9216 105.932 72.3374C106.603 72.7532 107.383 72.9611 108.269 72.9611C109.065 72.9611 109.769 72.7954 110.382 72.4641C110.998 72.1295 111.48 71.6585 111.829 71.051C112.181 70.4436 112.357 69.729 112.357 68.9072V67.8352H108.543V68.9072H111.183C111.173 69.4852 111.049 69.9903 110.812 70.4225C110.567 70.8708 110.225 71.2183 109.785 71.4652C109.348 71.7088 108.843 71.8306 108.269 71.8306C107.65 71.8306 107.092 71.678 106.597 71.3726C106.101 71.0673 105.709 70.6174 105.419 70.023C105.128 69.4285 104.983 68.6993 104.983 67.8352C104.983 66.9712 105.127 66.2419 105.414 65.6475C105.701 65.053 106.087 64.6031 106.573 64.2978C107.058 63.9925 107.598 63.8398 108.191 63.8398C108.553 63.8398 108.885 63.8885 109.188 63.986C109.492 64.0834 109.762 64.2247 110 64.4099C110.241 64.595 110.448 64.8192 110.621 65.0823ZM119.253 62.8458H122.637C123.419 62.8458 124.061 62.979 124.563 63.2454C125.065 63.5085 125.437 63.8707 125.678 64.3319C125.92 64.7932 126.04 65.3178 126.04 65.9057C126.04 66.4937 125.92 67.015 125.678 67.4698C125.437 67.9245 125.067 68.2819 124.568 68.5417C124.444 68.6058 124.311 68.6618 124.169 68.7098L126.431 72.8246H125.023L122.912 68.9218C122.871 68.9234 122.831 68.9246 122.79 68.9254C122.746 68.9262 122.702 68.9267 122.656 68.9267H120.466V72.8246H119.253V62.8458ZM122.617 67.8352H120.466V63.9178H122.598C123.139 63.9178 123.574 64.0006 123.903 64.1663C124.233 64.3287 124.472 64.5593 124.622 64.8581C124.772 65.157 124.847 65.5062 124.847 65.9057C124.847 66.3053 124.772 66.6496 124.622 66.9387C124.475 67.2245 124.237 67.4454 123.908 67.6013C123.582 67.7573 123.152 67.8352 122.617 67.8352ZM140.757 70.5638C141.139 69.7972 141.329 68.8877 141.329 67.8352C141.329 66.7828 141.139 65.8732 140.757 65.1066C140.376 64.34 139.853 63.7488 139.188 63.3331C138.523 62.9173 137.763 62.7094 136.909 62.7094C136.055 62.7094 135.296 62.9173 134.631 63.3331C133.966 63.7488 133.442 64.34 133.061 65.1066C132.68 65.8732 132.489 66.7828 132.489 67.8352C132.489 68.8877 132.68 69.7972 133.061 70.5638C133.442 71.3304 133.966 71.9216 134.631 72.3374C135.296 72.7532 136.055 72.9611 136.909 72.9611C137.763 72.9611 138.523 72.7532 139.188 72.3374C139.853 71.9216 140.376 71.3304 140.757 70.5638ZM139.721 65.6475C140.011 66.2419 140.156 66.9712 140.156 67.8352C140.156 68.6993 140.011 69.4285 139.721 70.023C139.434 70.6174 139.044 71.0673 138.552 71.3726C138.063 71.678 137.516 71.8306 136.909 71.8306C136.303 71.8306 135.754 71.678 135.261 71.3726C134.772 71.0673 134.383 70.6174 134.093 70.023C133.806 69.4285 133.662 68.6993 133.662 67.8352C133.662 66.9712 133.806 66.2419 134.093 65.6475C134.383 65.053 134.772 64.6031 135.261 64.2978C135.754 63.9925 136.303 63.8398 136.909 63.8398C137.516 63.8398 138.063 63.9925 138.552 64.2978C139.044 64.6031 139.434 65.053 139.721 65.6475ZM154.76 62.8458H155.972V69.4529C155.972 70.135 155.811 70.7441 155.488 71.2801C155.169 71.8128 154.717 72.2334 154.134 72.542C153.55 72.8474 152.866 73 152.08 73C151.294 73 150.61 72.8474 150.026 72.542C149.443 72.2334 148.99 71.8128 148.667 71.2801C148.348 70.7441 148.188 70.135 148.188 69.4529V62.8458H149.4V69.3554C149.4 69.8427 149.508 70.2763 149.723 70.6564C149.938 71.0332 150.245 71.3304 150.642 71.548C151.043 71.7624 151.523 71.8696 152.08 71.8696C152.637 71.8696 153.117 71.7624 153.518 71.548C153.919 71.3304 154.225 71.0332 154.437 70.6564C154.652 70.2763 154.76 69.8427 154.76 69.3554V62.8458ZM166.597 62.8458H163.213V72.8246H164.426V69.18H166.616C167.395 69.18 168.034 69.0387 168.533 68.7561C169.032 68.4703 169.4 68.087 169.638 67.6062C169.879 67.1255 170 66.5911 170 66.0032C170 65.4152 169.879 64.8825 169.638 64.405C169.397 63.9275 169.025 63.5491 168.523 63.2697C168.025 62.9871 167.382 62.8458 166.597 62.8458ZM164.426 68.1081H166.577C167.115 68.1081 167.547 68.0155 167.873 67.8303C168.199 67.6452 168.435 67.3951 168.582 67.08C168.732 66.7617 168.807 66.4027 168.807 66.0032C168.807 65.6036 168.732 65.2463 168.582 64.9312C168.435 64.6161 168.197 64.3693 167.868 64.1906C167.539 64.0087 167.102 63.9178 166.558 63.9178H164.426V68.1081Z" fill="black"/>
    </svg>
    