<svg width="515" height="515" viewBox="0 0 515 515" fill="none" xmlns="http://www.w3.org/2000/svg">
<path fill-rule="evenodd" clip-rule="evenodd" d="M394.449 129.16C394.568 128.98 394.645 128.824 394.681 128.692C404.392 139.14 413.139 150.814 420.598 163.734C422.626 167.246 424.594 170.848 426.503 174.54C426.288 174.553 426.138 174.584 426.054 174.632L424.978 175.086C423.166 171.561 421.246 168.042 419.219 164.53C411.832 151.736 403.157 140.188 393.518 129.865L394.449 129.16ZM425.722 176.663L426.798 176.21C426.965 176.113 427.091 176.041 427.174 175.992C435.407 193.148 440.894 211.053 443.669 229.185C443.537 229.149 443.405 229.114 443.274 229.079L442.053 229.282C439.422 211.4 433.882 193.694 425.722 176.663ZM349.525 94.2208C349.644 94.0407 349.697 93.8428 349.684 93.6273C365.803 102.718 380.765 114.148 393.851 127.833C393.635 127.846 393.51 127.919 393.474 128.051L392.616 128.881C379.603 115.321 364.911 104.069 349.062 95.1571L349.525 94.2208ZM442.348 230.951L443.443 230.82C443.61 230.724 443.736 230.651 443.819 230.603C446.561 249.256 446.393 268.084 443.601 286.421C443.504 286.254 443.348 286.177 443.133 286.189L442.018 285.997C444.83 267.983 444.945 249.353 442.348 230.951ZM296.027 74.2665C296.062 74.1346 296.032 73.9851 295.935 73.8179C295.887 73.7343 295.863 73.6925 295.863 73.6925C314.258 77.455 331.91 83.9874 348.352 93.0583C348.269 93.1066 348.168 93.2208 348.049 93.401L347.46 94.4097C334.314 87.2823 320.348 81.6316 305.905 77.7616C302.608 76.8781 299.251 76.0846 295.834 75.3813L296.027 74.2665ZM239.137 71.3222C239.089 71.2385 239.041 71.1549 238.992 71.0713C238.848 70.8204 238.667 70.7014 238.452 70.7144C257.342 68.6721 276.353 69.7372 294.676 73.3743C294.557 73.5545 294.48 73.7106 294.444 73.8425L294.252 74.9571C276.252 71.3006 257.637 70.3415 239.123 72.1666L239.137 71.3222ZM210.395 75.7077C219.528 73.2778 228.773 71.6198 238.056 70.6083C237.68 70.8256 237.501 71.0959 237.593 71.5446L237.705 72.3166C228.098 73.3474 218.603 75.1503 209.218 77.7251L210.395 75.7077ZM391.541 387.723L392.154 388.205C392.496 388.509 393.017 388.543 393.321 388.2C393.5 387.93 393.606 387.534 393.461 387.283C393.413 387.2 393.364 387.116 393.316 387.032L392.703 386.55C414.626 363.691 429.952 335.777 437.904 306.1C439.565 299.901 440.878 293.679 441.845 287.435L442.959 287.627C443.223 287.698 443.397 287.709 443.48 287.661C437.326 325.666 419.629 361.639 391.729 389.788L389.592 389.851C390.283 389.118 390.933 388.408 391.541 387.723ZM387.875 391.512L390.21 391.501C378.995 402.492 366.158 412.412 351.859 420.667L351.063 419.288C364.735 411.394 377.017 401.962 387.875 391.512ZM163.718 94.7967C178.017 86.5411 193.026 80.3842 208.224 76.2923L207.047 78.3096C199.344 80.4159 191.739 83.0786 184.232 86.2978L183.995 85.5982C183.778 85.222 183.382 85.1159 182.933 85.2077C182.557 85.425 182.325 85.893 182.543 86.2693L182.779 86.9689C176.54 89.6795 170.451 92.7486 164.514 96.1764C162.675 97.2385 160.859 98.3425 159.068 99.4882L158.778 98.9865C158.435 98.6827 157.967 98.4511 157.591 98.6684C157.287 99.0111 157.181 99.4068 157.398 99.7831L157.688 100.285C149.937 105.206 142.733 110.591 136.076 116.442L135.661 116.012C135.444 115.636 134.923 115.602 134.619 115.945C134.243 116.162 134.209 116.684 134.354 116.934C134.402 117.018 134.468 117.036 134.552 116.987L134.841 117.489C128.017 123.436 121.716 129.806 115.938 136.598L115.595 136.294C115.252 135.99 114.804 136.082 114.5 136.425C114.321 136.695 114.215 137.091 114.36 137.342C114.408 137.425 114.498 137.485 114.63 137.52L114.901 137.699C109.051 144.755 103.802 152.078 99.1534 159.668L98.8831 159.489C98.415 159.258 97.9663 159.35 97.6624 159.692C97.484 159.963 97.5034 160.286 97.6482 160.537C97.7448 160.704 97.859 160.805 97.9909 160.841L98.2612 161.019C93.5768 168.741 89.4924 176.729 86.0081 184.985L85.8102 184.932C85.3421 184.7 84.8404 184.99 84.7343 185.386C84.6154 185.566 84.6283 185.781 84.7732 186.032C84.8697 186.2 84.9839 186.301 85.1158 186.336L85.3861 186.515C82.2457 194.014 79.6329 201.655 77.5477 209.437C77.3003 210.36 77.0947 211.259 76.931 212.134L76.7331 212.081C76.265 211.85 75.8357 212.265 75.7297 212.661C75.6943 212.792 75.7491 212.984 75.8939 213.235C75.9905 213.402 76.1288 213.545 76.309 213.664L76.5069 213.717C74.3898 222.409 72.9081 231.237 72.0617 240.199L71.9363 240.271C71.5406 240.165 71.0388 240.455 71.0052 240.976C70.9699 241.108 71.0005 241.258 71.097 241.425C71.2419 241.676 71.488 241.812 71.8354 241.835C71.0727 250.749 70.963 259.732 71.5063 268.784C71.0576 268.875 70.7537 269.218 70.6477 269.614C70.7443 269.781 70.8167 269.906 70.865 269.99C71.0098 270.241 71.2801 270.419 71.6033 270.4C72.182 279.32 73.4314 288.243 75.3514 297.169C74.9027 297.261 74.5989 297.603 74.6907 298.052C74.739 298.136 74.7872 298.219 74.8355 298.303C74.9803 298.554 75.4484 298.785 75.6993 298.64C75.7122 298.856 75.7429 299.006 75.7911 299.089L74.6144 301.106C55.9399 222.414 89.9639 137.378 163.718 94.7967ZM130.974 394.668C145.82 408.506 162.775 419.623 180.973 427.68L180.92 427.878C180.849 428.142 180.862 428.357 180.959 428.525C181.055 428.692 181.194 428.835 181.374 428.954C181.644 429.132 182.218 428.968 182.324 428.572L182.377 428.375C191.222 432.299 200.26 435.499 209.493 437.973C236.401 445.183 264.826 446.332 292.738 441.087L292.757 441.411C292.806 441.494 292.854 441.578 292.902 441.661C293.047 441.912 293.317 442.091 293.766 441.999C294.089 441.979 294.519 441.564 294.427 441.116L294.21 440.739C313.702 436.844 332.875 429.788 351.063 419.288L351.859 420.667C278.106 463.249 187.523 450.323 128.638 394.678L130.974 394.668ZM96.4216 353.071L97.1742 352.637C106.207 367.993 117.01 381.49 129.26 393.148L127.05 393.086C115.07 381.606 104.465 368.162 95.5772 353.057C95.8475 353.236 96.1707 353.216 96.4216 353.071ZM75.2714 303.403L76.3227 301.458C78.2134 309.175 80.6429 316.859 83.6113 324.51C83.235 324.728 83.0035 325.196 83.0953 325.645C83.3126 326.021 83.7807 326.252 84.157 326.035C87.5245 334.571 91.5497 342.895 96.2327 351.006C96.281 351.09 96.3293 351.174 96.3776 351.257L95.625 351.692C95.3741 351.836 95.1957 352.107 95.2151 352.43C95.1185 352.263 94.9978 352.054 94.853 351.803C85.8732 336.249 79.3154 319.967 75.2714 303.403Z" fill="#DEDEDE"/>
<path d="M360.066 161.723C367.214 169.47 373.702 178.1 379.206 187.632C380.702 190.225 382.091 192.823 383.372 195.429L381.92 196.1C380.639 193.495 379.274 190.938 377.826 188.429C372.395 179.022 366.105 170.445 358.903 162.895L360.066 161.723ZM382.717 197.48L384.169 196.808C390.243 209.357 394.219 222.615 396.056 235.937L394.512 236.159C392.622 223.035 388.791 210.028 382.717 197.48ZM326.392 135.842C338.259 142.202 349.273 150.561 358.893 160.56L357.73 161.733C348.183 151.859 337.367 143.553 325.5 137.193L326.392 135.842ZM394.807 237.829L396.477 237.534C398.334 251.179 398.001 265.085 395.814 278.389L394.178 278.163C396.437 264.984 396.717 251.276 394.807 237.829ZM286.536 121.557C299.932 124.192 312.923 128.734 325.113 135.075L324.293 136.551C315.307 131.705 305.805 127.993 295.913 125.342C292.747 124.494 289.546 123.777 286.31 123.193L286.536 121.557ZM244.33 120.003C257.994 118.469 271.577 118.821 284.954 121.133L284.602 122.841C271.477 120.385 258.019 119.96 244.625 121.672L244.33 120.003ZM391.234 290.733C392.224 287.04 393.04 283.335 393.682 279.62L395.318 279.846C390.39 306.941 377.515 332.437 357.429 352.395L356.329 351.358C373.41 334.305 385.191 313.288 391.234 290.733ZM203.87 131.321C216.437 125.57 229.517 121.865 242.588 120.172L242.811 121.716C229.812 123.534 216.983 127.095 204.541 132.773L203.87 131.321ZM355.22 352.333L356.392 353.496C348.361 361.31 339.176 368.286 329.016 374.151L328.654 373.524L328.22 372.772C338.254 366.978 347.314 360.075 355.22 352.333ZM192.291 137.337C195.636 135.406 199.012 133.624 202.418 131.992L203.089 133.444C199.683 135.076 196.349 136.834 193.088 138.717C190.83 140.02 188.621 141.407 186.459 142.878L185.663 141.498C187.824 140.028 190.033 138.64 192.291 137.337ZM184.283 142.295L185.08 143.675C179.802 147.279 174.825 151.212 170.15 155.472L169.102 154.237C173.778 149.977 178.838 145.996 184.283 142.295ZM284.152 388.849C299.302 386.122 314.171 380.882 328.22 372.772L328.654 373.524L329.016 374.151C314.842 382.335 299.722 387.719 284.446 390.518L284.152 388.849ZM167.993 155.212L168.968 156.322C164.256 160.714 159.947 165.32 156.041 170.14L154.815 169.176C158.757 164.224 163.149 159.569 167.993 155.212ZM153.85 170.402L154.95 171.439C151.008 176.391 147.468 181.556 144.33 186.936L144.06 186.757L153.85 170.402ZM134.753 202.5L143.24 188.234L143.511 188.413C140.421 193.876 137.709 199.511 135.376 205.318L133.846 204.696C134.106 203.988 134.409 203.256 134.753 202.5ZM133.35 206.153L134.754 206.848C132.989 211.323 131.471 215.934 130.199 220.683C129.845 222.002 129.516 223.363 129.211 224.765L127.628 224.341C129.074 218.155 130.981 212.092 133.35 206.153ZM204.504 378.64C211.44 381.771 218.536 384.308 225.79 386.252C244.19 391.182 263.525 392.228 282.608 389.071L283.028 390.668C282.43 390.791 281.873 390.889 281.358 390.963L243.814 391.4C229.955 389.701 216.482 385.773 203.81 380.044L204.504 378.64ZM127.329 225.851L128.912 226.276C127.55 232.414 126.602 238.592 126.066 244.81L124.503 244.709C124.99 238.407 125.932 232.121 127.329 225.851ZM124.402 246.273L125.966 246.373C125.514 252.543 125.5 258.795 125.923 265.129L124.307 265.226C123.883 258.892 123.915 252.574 124.402 246.273ZM124.529 266.77L126.073 266.547C126.532 272.749 127.464 278.901 128.868 285.003L127.271 285.423C125.902 279.189 124.988 272.972 124.529 266.77ZM127.619 286.895L129.163 286.672C130.603 292.642 132.45 298.544 134.703 304.379L133.179 304.925C130.877 299.006 129.024 292.996 127.619 286.895ZM144.693 324.868C158.921 348.932 179.535 366.966 203.1 377.946L202.478 379.475C178.57 368.192 157.758 350.104 143.313 325.665L144.693 324.868ZM133.724 306.449L135.249 305.903C137.634 311.773 140.469 317.551 143.752 323.238C143.8 323.321 143.848 323.405 143.896 323.488L142.517 324.285C142.468 324.201 142.42 324.118 142.372 324.034C139.089 318.348 136.206 312.486 133.724 306.449Z" fill="#DEDEDE"/>
<path fill-rule="evenodd" clip-rule="evenodd" d="M347.848 173.292C354.219 179.983 359.93 187.557 364.782 195.96C366.085 198.218 367.281 200.482 368.369 202.753L366.917 203.424C365.829 201.154 364.657 198.931 363.402 196.757C358.623 188.479 352.984 181.03 346.685 174.465L347.848 173.292ZM367.588 204.876L369.04 204.205C374.371 215.176 377.853 226.712 379.594 238.417L377.925 238.712C376.256 227.132 372.846 215.722 367.588 204.876ZM318.248 150.411C328.585 156.15 338.3 163.418 346.8 172.057L345.638 173.23C337.138 164.591 327.693 157.501 317.428 151.888L318.248 150.411ZM378.273 240.184L379.817 239.961C381.379 251.937 381.127 263.956 379.167 275.624L377.531 275.398C379.564 263.856 379.763 252.034 378.273 240.184ZM283.232 137.848C294.92 140.131 306.255 144.123 316.843 149.717L316.077 150.996C308.244 146.989 300.002 143.72 291.494 141.44C288.592 140.663 285.697 139.993 282.808 139.431L283.232 137.848ZM246.237 136.629C258.16 135.265 270.054 135.589 281.722 137.549L281.496 139.185C269.953 137.153 258.184 136.756 246.46 138.173L246.237 136.629ZM375.209 286.439C376.106 283.357 376.804 280.222 377.305 277.034L378.941 277.26C374.591 301.011 363.211 323.302 345.701 340.77L344.528 339.608C359.535 324.756 369.908 306.224 375.209 286.439ZM210.766 146.74C221.756 141.733 233.239 138.448 244.568 136.924L244.79 138.468C233.534 140.117 222.302 143.257 211.437 148.192L210.766 146.74ZM343.366 340.781L344.466 341.818C337.544 348.657 329.594 354.585 320.814 359.654C308.271 366.896 294.999 371.716 281.445 374.022L281.223 372.478C294.578 370.119 307.6 365.444 320.018 358.274C328.672 353.278 336.497 347.422 343.366 340.781ZM200.89 151.94C203.65 150.347 206.482 148.879 209.386 147.537L210.057 148.989C207.236 150.283 204.446 151.726 201.687 153.32C199.596 154.527 197.572 155.751 195.613 156.993L194.817 155.614C196.775 154.371 198.8 153.147 200.89 151.94ZM193.384 156.608L194.306 157.915C189.733 161.002 185.436 164.374 181.416 168.033L180.243 166.871C184.347 163.164 188.727 159.743 193.384 156.608ZM179.206 167.971L180.254 169.206C176.15 172.913 172.407 176.858 169.024 181.041L167.799 180.076C171.265 175.845 175.067 171.81 179.206 167.971ZM166.834 181.302L167.934 182.339C164.6 186.606 161.56 191.093 158.814 195.8L157.463 194.907C160.209 190.2 163.332 185.665 166.834 181.302ZM156.643 196.384L157.995 197.276C155.332 201.935 153.007 206.79 151.017 211.841L149.487 211.219C151.561 206.12 153.946 201.175 156.643 196.384ZM148.865 212.749L150.395 213.371C148.939 217.222 147.639 221.15 146.495 225.155C146.177 226.342 145.883 227.571 145.614 228.842L144.031 228.418C145.313 223.106 146.924 217.883 148.865 212.749ZM211.569 363.356C217.617 366.108 223.831 368.374 230.21 370.154C246.236 374.448 262.965 375.326 279.679 372.7L279.901 374.244C256.385 378.122 232.296 374.636 210.947 364.886L211.569 363.356ZM143.732 229.928L145.242 230.227C144.093 235.574 143.29 240.943 142.835 246.334L141.199 246.108C141.738 240.668 142.582 235.275 143.732 229.928ZM141.098 247.671L142.734 247.897C142.363 253.241 142.381 258.582 142.788 263.922L141.171 264.019C140.799 258.547 140.775 253.098 141.098 247.671ZM141.268 265.635L142.885 265.538C143.292 270.878 144.064 276.174 145.201 281.427L143.729 281.775C142.544 276.438 141.723 271.059 141.268 265.635ZM144.077 283.246L145.621 283.024C146.794 288.145 148.397 293.239 150.432 298.308L148.907 298.854C146.956 293.737 145.346 288.534 144.077 283.246ZM159.316 316.593C171.786 337.323 189.659 352.927 210.039 362.734L209.344 364.139C188.641 354.35 170.551 338.37 157.936 317.39L159.316 316.593ZM149.453 300.379L150.978 299.833C151.596 301.483 152.322 303.127 153.155 304.764C154.25 308.591 155.579 312.34 157.14 316.01C157.092 315.926 157.043 315.843 156.995 315.759C154.098 310.742 151.584 305.615 149.453 300.379Z" fill="#DEDEDE"/>
<path d="M314.171 227.355C312.912 224.403 311.51 221.588 309.965 218.913C308.758 216.822 307.492 214.822 306.166 212.911L307.401 211.864C308.775 213.858 310.09 215.942 311.345 218.116C312.938 220.876 314.364 223.732 315.623 226.684C315.912 227.186 316.136 227.67 316.294 228.136L314.914 228.933C314.708 228.383 314.46 227.857 314.171 227.355ZM292.906 196.317C297.954 200.426 302.52 205.149 306.479 210.557L305.244 211.604C301.43 206.447 297.062 201.778 292.086 197.794L292.906 196.317ZM315.387 230.332L316.965 229.588C319.003 235.436 320.395 241.322 320.816 247.267L319.272 247.489C318.798 241.743 317.478 235.982 315.387 230.332ZM273.702 184.492C280.164 187.283 286.216 190.814 291.607 195.227L290.913 196.631C285.594 192.343 279.74 188.866 273.476 186.128L273.702 184.492ZM319.172 249.053L320.841 248.758C321.065 254.649 320.642 260.579 319.23 266.245L317.72 265.946C318.953 260.551 319.448 254.746 319.172 249.053ZM250.554 178.289C257.942 179.208 265.315 180.972 272.173 183.87L271.874 185.38C265.089 182.608 258.039 180.825 250.651 179.906L250.554 178.289ZM317.368 267.654L319.004 267.88C316.054 279.283 310.137 289.891 301.551 298.193L300.451 297.156C308.786 288.999 314.525 278.661 317.368 267.654ZM225.068 179.624C233.072 177.846 241.029 177.433 248.991 178.188L249.088 179.805C241.449 179.03 233.493 179.443 225.739 181.076L225.068 179.624ZM223.398 179.919L224.142 181.497C220.469 182.28 216.815 183.386 213.18 184.815L212.258 183.508C215.976 182.03 219.69 180.834 223.398 179.919ZM209.909 184.363C210.208 184.301 210.483 184.198 210.734 184.054L211.656 185.361C211.321 185.554 210.963 185.705 210.58 185.815C207.209 187.315 204.019 188.934 201.008 190.672L199.888 189.312C203.114 187.561 206.454 185.911 209.909 184.363ZM269.821 313.335C273.591 312.719 277.352 311.607 281.106 309.997C283.425 308.993 285.671 307.863 287.846 306.608C292.027 304.194 295.817 301.392 299.216 298.203L300.389 299.366C296.906 302.603 292.99 305.477 288.642 307.987C286.468 309.243 284.18 310.397 281.777 311.449C277.94 313.107 274.053 314.292 270.116 315.004L269.821 313.335ZM198.509 190.108L199.556 191.343C195.96 193.419 192.551 195.722 189.329 198.251L188.031 197.161C191.337 194.583 194.829 192.233 198.509 190.108ZM186.796 198.209L188.022 199.173C184.68 201.883 181.501 204.777 178.485 207.857L177.134 206.965C180.102 203.802 183.323 200.883 186.796 198.209ZM236.506 307.483C246.105 312.812 257.146 315.134 268.277 313.557L268.499 315.101C257.045 316.697 245.681 314.395 235.884 309.013L236.506 307.483ZM214.057 284.821L215.437 284.025C216.187 285.71 216.996 287.306 217.865 288.811C222.21 296.337 228.147 302.274 235.155 306.591L234.46 307.995C227.255 303.626 220.975 297.384 216.485 289.607C215.616 288.102 214.807 286.507 214.057 284.821ZM175.971 208.138L177.323 209.03C174.271 212.241 171.448 215.655 168.853 219.271L167.449 218.577C170.043 214.961 172.884 211.481 175.971 208.138ZM166.431 220.001L167.961 220.623C165.379 224.455 163.043 228.423 160.953 232.529L159.371 232.105C161.412 227.916 163.765 223.881 166.431 220.001ZM158.749 233.634L160.259 233.933C158.182 238.254 156.46 242.705 155.091 247.286L153.402 247.258C154.806 242.545 156.588 238.004 158.749 233.634ZM152.905 248.715L154.541 248.941C153.137 253.654 152.128 258.473 151.516 263.398L149.899 263.495C150.547 258.438 151.549 253.512 152.905 248.715ZM149.673 265.131L151.289 265.034C150.725 270.043 150.508 275.074 150.638 280.128L149.041 280.548C148.814 275.327 149.025 270.188 149.673 265.131ZM149.138 282.164L150.735 281.744C150.962 286.965 151.662 292.136 152.834 297.256L151.382 297.927C150.161 292.723 149.413 287.469 149.138 282.164ZM153.03 304.837C152.53 303.006 152.055 301.218 151.604 299.471L153.129 298.926C154.411 304.429 156.184 309.817 158.447 315.088L157.067 315.885C155.506 312.215 154.16 308.532 153.03 304.837Z" fill="#DEDEDE"/>
<path d="M95.1436 352.306C95.0712 352.18 95.1772 351.784 95.4281 351.64L96.3061 351.133L142.465 324.483L143.845 323.686L157.015 316.082L158.395 315.286L255.353 259.307L256.627 258.906L255.72 261.102L215.457 284.348L214.077 285.144L159.264 316.791L157.884 317.588L144.714 325.191L143.334 325.988L97.1751 352.638L96.2971 353.145C96.0462 353.29 95.6505 353.184 95.5781 353.058C95.3979 352.939 95.2837 352.838 95.2354 352.754C95.1871 352.671 95.1565 352.521 95.1436 352.306Z" fill="#DEDEDE"/>
<path d="M83.0221 325.52C82.8049 325.143 83.0363 324.675 83.4126 324.458L133.25 305.05L134.65 304.576L148.853 299.052L150.378 298.506L151.328 298.125L152.853 297.579L248.153 260.452L256.857 258.437L256.625 258.906L255.351 259.306L153.201 299.05L151.676 299.596L150.924 300.031L149.399 300.576L135.321 306.029L133.796 306.574L84.0838 325.91C83.7075 326.127 83.2394 325.896 83.0946 325.645C83.0463 325.562 83.0221 325.52 83.0221 325.52Z" fill="#DEDEDE"/>
<path d="M79.3171 296.217L127.343 285.547L128.815 285.199L143.676 281.971L145.273 281.551L149.113 280.672L150.657 280.449L247.805 258.98L256.91 258.239L256.857 258.436L248.153 260.451L150.754 282.066L149.21 282.288L145.567 283.22L144.023 283.443L129.235 286.796L127.566 287.091L78.1934 298.036L79.3171 296.217ZM74.6903 298.052C74.5985 297.603 74.9024 297.26 75.3511 297.168L77.2714 296.729L76.0222 298.621L75.5735 298.712C75.2502 298.732 74.98 298.553 74.8352 298.302C74.7869 298.219 74.7386 298.135 74.6903 298.052Z" fill="#DEDEDE"/>
<path d="M96.6509 267.144L124.381 265.35L125.997 265.253L141.119 264.215L142.735 264.118L149.973 263.619L151.589 263.522L247.71 257.363L257.037 258.166L256.911 258.239L247.807 258.98L151.363 265.158L149.747 265.255L142.832 265.735L141.216 265.832L126.094 266.869L124.478 266.966L95.5802 268.766L96.6509 267.144ZM70.6488 269.613C70.7548 269.218 71.0587 268.875 71.5074 268.783L94.7112 267.261L93.713 269.008L71.6044 270.399C71.2812 270.419 71.0109 270.24 70.8661 269.99C70.8178 269.906 70.7453 269.781 70.6488 269.613Z" fill="#DEDEDE"/>
<path d="M110.61 243.531L124.575 244.834L126.138 244.935L141.27 246.233L142.834 246.333L153.473 247.382L155.037 247.483L247.934 255.728L257.088 257.969L257.035 258.167L247.707 257.364L154.613 249.065L153.049 248.965L142.68 248.095L141.044 247.868L126.037 246.498L124.474 246.397L109.665 245.08L110.61 243.531ZM70.9318 240.851C71.0378 240.455 71.4671 240.04 71.8628 240.146L71.9882 240.074L108.849 243.377L107.904 244.926L71.762 241.709C71.4146 241.687 71.1684 241.55 71.0236 241.3C70.9753 241.216 70.9447 241.066 70.9318 240.851Z" fill="#DEDEDE"/>
<path d="M122.629 223.213L127.7 224.466L129.283 224.89L144.103 228.542L145.613 228.841L159.443 232.229L161.026 232.653L248.233 254.218L257.142 257.771L257.089 257.969L247.935 255.728L160.278 234.255L158.696 233.831L145.189 230.424L143.678 230.125L128.859 226.473L127.349 226.174L121.809 224.689L122.629 223.213ZM75.6571 212.535C75.7632 212.139 76.2649 211.85 76.6606 211.956L76.8584 212.009L120.921 222.861L120.101 224.338L76.4343 213.592L76.2365 213.539C75.9727 213.468 75.7925 213.349 75.6959 213.182C75.5511 212.931 75.5382 212.715 75.6571 212.535Z" fill="#DEDEDE"/>
<path d="M133.595 204.84L133.99 204.946L135.448 205.443L149.433 211.417L150.89 211.913L167.395 218.774L168.924 219.396L248.855 252.688L257.141 257.771L248.233 254.218L168.032 220.747L166.502 220.125L150.268 213.443L148.864 212.748L134.826 206.972L133.296 206.35L132.828 206.119L133.595 204.84ZM84.5356 185.333C84.8395 184.99 85.2158 184.773 85.6115 184.879L85.8818 185.058L132.065 204.218L131.245 205.695L85.2598 186.587L84.9895 186.409C84.8576 186.374 84.7434 186.272 84.6468 186.105C84.502 185.854 84.4649 185.597 84.5356 185.333Z" fill="#DEDEDE"/>
<path d="M144.207 187.007L144.477 187.186L157.411 195.105L158.763 195.997L177.082 207.161L178.559 207.981L249.749 251.337L257.269 257.699L257.144 257.771L248.857 252.688L177.397 209.154L176.045 208.262L157.996 197.276L156.519 196.456L143.585 188.537L143.315 188.359L144.207 187.007ZM97.6641 159.693C97.968 159.35 98.4167 159.258 98.8124 159.364L99.0827 159.543L142.928 186.241L142.036 187.592L98.2629 161.019L97.9926 160.841C97.8124 160.722 97.6982 160.621 97.6499 160.537C97.5051 160.286 97.6111 159.89 97.6641 159.693Z" fill="#DEDEDE"/>
<path d="M154.69 169.248L154.96 169.426L156.06 170.463L167.673 180.148L168.971 181.238L188.103 197.286L189.204 198.323L250.712 250.111L257.321 257.501L257.268 257.699L249.748 251.337L187.969 199.37L186.671 198.28L168.007 182.464L166.708 181.374L155.096 171.689L153.87 170.724L154.69 169.248ZM114.428 136.3C114.731 135.957 115.18 135.865 115.523 136.169L115.865 136.473L153.517 168.085L152.697 169.562L114.828 137.573L114.558 137.395C114.426 137.36 114.336 137.3 114.288 137.217C114.143 136.966 114.249 136.57 114.428 136.3Z" fill="#DEDEDE"/>
<path d="M165.96 150.533L169.175 154.363L170.222 155.598L180.315 166.997L181.363 168.232L199.835 189.51L201.008 190.672L251.947 249.065L257.32 257.502L250.712 250.112L199.503 191.541L198.456 190.306L180.128 169.279L179.08 168.044L169.113 156.573L168.065 155.338L164.942 151.957L165.96 150.533ZM134.744 115.874C135.048 115.532 135.569 115.565 135.787 115.941L136.202 116.371L164.912 149.298L164.02 150.65L134.967 117.418L134.552 116.989C134.552 116.989 134.528 116.947 134.479 116.863C134.334 116.613 134.368 116.091 134.744 115.874Z" fill="#DEDEDE"/>
<path d="M178.211 129.747L185.737 141.624L186.533 143.004L194.764 155.812L195.561 157.192L212.26 183.508L213.182 184.815L253.256 248.142L257.322 257.502L251.949 249.064L211.532 185.433L210.735 184.053L194.254 158.114L193.385 156.608L185.226 143.926L184.429 142.546L177.265 131.296L178.211 129.747ZM157.592 98.6695C157.969 98.4522 158.364 98.5583 158.707 98.8621L159.069 99.4893L177.342 128.241L176.396 129.791L157.689 100.286L157.4 99.7842C157.4 99.7842 157.375 99.7424 157.327 99.6587C157.182 99.4079 157.216 98.8867 157.592 98.6695Z" fill="#DEDEDE"/>
<path d="M182.707 86.8424L182.543 86.2682C182.326 85.8919 182.485 85.2984 182.933 85.2066C183.31 84.9893 183.705 85.0953 183.923 85.4716C183.971 85.5552 183.995 85.5971 183.995 85.5971L184.232 86.2967L191.89 103.617L190.892 105.364L182.707 86.8424ZM253.182 248.014L224.07 181.369L223.399 179.917L209.859 148.934L209.188 147.482L203.162 133.568L202.49 132.115L191.51 107.014L192.581 105.392L203.943 131.444L204.614 132.896L210.64 146.81L211.311 148.263L224.996 179.496L225.614 181.146L256.812 252.274L257.301 257.176L257.248 257.374L253.182 248.014Z" fill="#DEDEDE"/>
<path d="M256.884 252.4L249.088 179.802L248.991 178.186L244.736 138.664L244.514 137.12L242.955 121.965L242.733 120.421L237.632 72.1902L237.521 71.4182C237.501 71.0949 237.607 70.6992 238.056 70.6073C238.14 70.559 238.181 70.5349 238.181 70.5349C238.265 70.4866 238.373 70.4802 238.505 70.5155C238.768 70.5862 238.949 70.7052 239.045 70.8724C239.093 70.956 239.1 71.0638 239.065 71.1957L239.248 72.0932L244.402 120.126L244.499 121.743L246.183 136.825L246.28 138.442L250.626 178.412L250.723 180.029L258.428 252.177L257.426 257.104L257.373 257.302L256.884 252.4Z" fill="#DEDEDE"/>
<path d="M258.428 252.178L271.946 185.504L272.245 183.993L281.244 139.329L281.542 137.818L284.602 122.84L284.9 121.33L294.304 74.7589L294.444 73.842C294.514 73.5782 294.633 73.3981 294.801 73.3015C294.968 73.2049 295.159 73.1502 295.375 73.1373C295.639 73.208 295.819 73.3269 295.915 73.4941C295.915 73.4941 295.939 73.536 295.988 73.6196C296.084 73.7869 296.115 73.9364 296.08 74.0683L295.887 75.183L286.411 121.628L286.112 123.139L283.178 138.045L282.754 139.627L273.774 184.615L273.35 186.198L260.064 252.404L257.551 257.032C257.551 257.032 257.509 257.056 257.426 257.104L258.428 252.178Z" fill="#DEDEDE"/>
<path d="M260.065 252.404L290.789 196.702L291.681 195.351L316.024 151.193L316.718 149.788L324.097 136.497L324.989 135.146L347.514 94.2116L348.103 93.2029C348.138 93.071 348.239 92.9568 348.406 92.8602C348.706 92.799 348.945 92.8279 349.125 92.9468C349.257 92.9822 349.372 93.0835 349.468 93.2507C349.516 93.3344 349.565 93.418 349.613 93.5016C349.626 93.7171 349.615 93.8908 349.579 94.0227L348.991 95.0314L326.393 135.84L325.574 137.317L318.195 150.608L317.501 152.012L292.907 196.315L292.087 197.792L261.417 253.296L257.731 256.762C257.648 256.81 257.588 256.9 257.553 257.032L260.065 252.404Z" fill="#DEDEDE"/>
<path d="M261.417 253.298L305.245 211.604L306.48 210.556L345.639 173.231L346.749 172.256L357.732 161.733L358.967 160.686L392.545 128.756L393.404 127.926C393.439 127.794 393.564 127.722 393.78 127.709C393.905 127.637 394.301 127.743 394.446 127.993C394.578 128.029 394.644 128.046 394.644 128.046C394.789 128.297 394.801 128.513 394.683 128.693C394.647 128.825 394.57 128.981 394.451 129.161L393.52 129.866L360.068 161.723L358.905 162.896L347.849 173.293L346.687 174.466L307.402 211.864L306.168 212.911L262.59 254.46L257.857 256.691C257.857 256.691 257.816 256.715 257.732 256.763L261.417 253.298Z" fill="#DEDEDE"/>
<path d="M262.589 254.459L314.914 228.932L316.294 228.135L366.917 203.424L368.369 202.752L381.921 196.099L383.373 195.428L424.979 175.086L426.054 174.632C426.138 174.584 426.288 174.553 426.503 174.54C426.701 174.593 426.899 174.646 427.044 174.897C427.092 174.981 427.116 175.023 427.116 175.023C427.261 175.273 427.28 175.597 427.102 175.867C427.018 175.915 426.893 175.988 426.726 176.084L425.65 176.538L384.169 196.807L382.717 197.479L369.04 204.205L367.588 204.876L316.84 229.66L315.388 230.331L263.26 255.911L258.179 256.67C258.047 256.635 257.939 256.642 257.856 256.69L262.589 254.459Z" fill="#DEDEDE"/>
<path fill-rule="evenodd" clip-rule="evenodd" d="M263.26 255.911L319.147 247.56L320.816 247.265L377.924 238.711L379.468 238.489L394.585 236.283L396.129 236.061L441.98 229.156L443.201 228.953C443.333 228.988 443.465 229.024 443.597 229.059C443.777 229.178 443.891 229.279 443.94 229.363C443.988 229.446 444.036 229.53 444.084 229.614C444.104 229.937 444.123 230.26 443.872 230.405C443.705 230.502 443.58 230.574 443.496 230.622L442.275 230.825L396.351 237.605L394.807 237.827L379.763 240.158L378.147 240.255L320.913 248.882L319.244 249.176L263.482 257.455L258.304 256.598C258.304 256.598 258.263 256.622 258.179 256.67L263.26 255.911ZM257.552 257.032C257.503 256.949 257.521 256.883 257.605 256.834C257.605 256.834 257.647 256.81 257.73 256.762C257.647 256.81 257.587 256.9 257.552 257.032ZM257.426 257.105C257.51 257.056 257.552 257.032 257.552 257.032C257.552 257.032 257.51 257.056 257.426 257.105Z" fill="#DEDEDE"/>
<path d="M263.482 257.456L317.792 266.071L319.302 266.369L377.478 275.596L379.114 275.822L394.053 278.235L395.689 278.461L442.071 285.8L443.186 285.992C443.317 286.028 443.473 286.105 443.654 286.224C443.702 286.307 443.726 286.349 443.726 286.349C443.823 286.516 443.877 286.708 443.89 286.923C443.82 287.187 443.659 287.391 443.408 287.536C443.241 287.633 443.091 287.663 442.959 287.628L441.845 287.435L395.39 279.971L393.827 279.87L378.887 277.458L377.251 277.232L319.004 267.88L317.368 267.653L260.631 258.6L258.772 256.83C258.724 256.746 258.634 256.687 258.502 256.652C258.502 256.652 258.436 256.634 258.304 256.599L263.482 257.456Z" fill="#DEDEDE"/>
<path fill-rule="evenodd" clip-rule="evenodd" d="M258.991 257.206C258.991 257.206 258.967 257.164 258.919 257.08C258.871 256.997 258.822 256.913 258.774 256.83L260.632 258.6L300.452 297.155L301.625 298.317L344.404 339.679L345.577 340.842L356.403 351.483L357.504 352.52L392.705 386.55L393.192 387.105C393.324 387.14 393.39 387.158 393.39 387.158C393.607 387.534 393.501 387.93 393.323 388.2C392.947 388.417 392.498 388.509 392.155 388.205L391.542 387.723L356.467 353.62L355.366 352.583L344.415 342.015L343.242 340.852L300.39 299.365L299.29 298.328L259.47 259.773L258.991 257.206ZM257.481 256.907C257.565 256.859 257.606 256.835 257.606 256.835C257.69 256.787 257.732 256.762 257.732 256.762C257.732 256.762 257.69 256.787 257.606 256.835C257.606 256.835 257.565 256.859 257.481 256.907C257.481 256.907 257.505 256.949 257.553 257.033C257.553 257.033 257.529 256.991 257.481 256.907ZM257.732 256.762C257.767 256.631 257.827 256.54 257.91 256.492C257.959 256.576 258.024 256.593 258.108 256.545C258.192 256.497 258.258 256.515 258.306 256.598C258.258 256.515 258.234 256.473 258.234 256.473C258.15 256.521 258.108 256.545 258.108 256.545C258.024 256.593 257.983 256.618 257.983 256.618C257.851 256.582 257.767 256.631 257.732 256.762ZM258.306 256.598C258.39 256.55 258.431 256.526 258.431 256.526C258.431 256.526 258.39 256.55 258.306 256.598ZM258.431 256.526C258.431 256.526 258.456 256.568 258.504 256.651C258.504 256.651 258.48 256.609 258.431 256.526Z" fill="#DEDEDE"/>
<path fill-rule="evenodd" clip-rule="evenodd" d="M257.73 256.761C257.814 256.713 257.898 256.664 257.981 256.616C257.898 256.664 257.814 256.713 257.73 256.761ZM282.975 390.864L282.753 389.32L279.848 374.44L279.553 372.77L268.572 315.224L268.152 313.627L257.924 259.994L258.956 257.726C258.992 257.594 259.003 257.42 258.99 257.204L259.468 259.771L269.696 313.405L270.116 315.002L281.097 372.548L281.517 374.145L284.297 389.097L284.645 390.569L284.736 391.018L283.12 391.115L282.975 390.864ZM292.56 441.356L292.54 441.033L283.217 392.731L284.833 392.634L294.137 440.613L294.229 441.061C294.321 441.51 294.017 441.853 293.568 441.945C293.12 442.036 292.849 441.858 292.705 441.607C292.656 441.523 292.608 441.44 292.56 441.356ZM258.179 256.669C258.263 256.621 258.304 256.597 258.304 256.597C258.304 256.597 258.263 256.621 258.179 256.669ZM258.107 256.544C258.155 256.627 258.179 256.669 258.179 256.669C258.179 256.669 258.155 256.627 258.107 256.544ZM257.479 256.906C257.479 256.906 257.521 256.882 257.605 256.833C257.521 256.882 257.479 256.906 257.479 256.906ZM257.426 257.104C257.378 257.02 257.396 256.954 257.479 256.906C257.396 256.954 257.378 257.02 257.426 257.104Z" fill="#DEDEDE"/>
<path d="M202.551 379.6L203.173 378.07L209.417 364.263L209.913 362.806L234.606 308.244L235.228 306.714L255.72 261.1L256.626 258.905L256.858 258.436L256.911 258.239L257.036 258.166L257.089 257.968L257.142 257.771L257.268 257.698L257.321 257.5L257.374 257.302L257.427 257.105C257.511 257.056 257.552 257.032 257.552 257.032C257.552 257.032 257.528 256.99 257.48 256.907C257.564 256.858 257.605 256.834 257.605 256.834C257.689 256.786 257.731 256.762 257.731 256.762C257.814 256.714 257.898 256.665 257.982 256.617C258.065 256.569 258.107 256.545 258.107 256.545C258.155 256.628 258.179 256.67 258.179 256.67C258.263 256.622 258.305 256.598 258.305 256.598C258.305 256.598 258.329 256.639 258.377 256.723C258.377 256.723 258.419 256.699 258.503 256.651C258.635 256.686 258.725 256.745 258.773 256.829C258.821 256.913 258.87 256.996 258.918 257.08C258.966 257.164 258.99 257.205 258.99 257.205C259.003 257.421 258.992 257.595 258.957 257.727L257.925 259.995L236.579 307.607L235.885 309.011L211.516 363.553L210.821 364.957L204.577 378.764L203.955 380.294L198.564 392.103L196.75 392.147L202.551 379.6ZM180.921 427.878L181.046 427.805L196.201 393.802L198.015 393.758L182.576 428.427L182.45 428.5C182.219 428.968 181.77 429.06 181.374 428.953C181.194 428.835 181.08 428.733 181.032 428.65C180.887 428.399 180.85 428.141 180.921 427.878Z" fill="#DEDEDE"/>
</svg>
