<svg width="25" height="25" viewBox="0 0 25 25" fill="none" xmlns="http://www.w3.org/2000/svg">
<path d="M8.18043 1.90796C4.74002 1.90796 1.94043 4.70755 1.94043 8.14796V16.788C1.94043 20.2284 4.74002 23.028 8.18043 23.028H16.8204C20.2608 23.028 23.0604 20.2284 23.0604 16.788V8.14796C23.0604 4.70755 20.2608 1.90796 16.8204 1.90796H8.18043ZM8.18043 2.86796H16.8204C19.7419 2.86796 22.1004 5.22645 22.1004 8.14796V16.788C22.1004 19.7095 19.7419 22.068 16.8204 22.068H8.18043C5.25892 22.068 2.90043 19.7095 2.90043 16.788V8.14796C2.90043 5.22645 5.25892 2.86796 8.18043 2.86796ZM18.2604 5.74796C18.0058 5.74796 17.7616 5.8491 17.5816 6.02914C17.4016 6.20917 17.3004 6.45335 17.3004 6.70796C17.3004 6.96257 17.4016 7.20675 17.5816 7.38678C17.7616 7.56682 18.0058 7.66796 18.2604 7.66796C18.515 7.66796 18.7592 7.56682 18.9393 7.38678C19.1193 7.20675 19.2204 6.96257 19.2204 6.70796C19.2204 6.45335 19.1193 6.20917 18.9393 6.02914C18.7592 5.8491 18.515 5.74796 18.2604 5.74796ZM12.5004 7.18796C9.59005 7.18796 7.22043 9.55758 7.22043 12.468C7.22043 15.3783 9.59005 17.748 12.5004 17.748C15.4108 17.748 17.7804 15.3783 17.7804 12.468C17.7804 9.55758 15.4108 7.18796 12.5004 7.18796ZM12.5004 8.14796C14.892 8.14796 16.8204 10.0764 16.8204 12.468C16.8204 14.8595 14.892 16.788 12.5004 16.788C10.1089 16.788 8.18043 14.8595 8.18043 12.468C8.18043 10.0764 10.1089 8.14796 12.5004 8.14796Z" fill="#333333"/>
</svg>
