<svg width="25" height="25" viewBox="0 0 25 25" fill="none" xmlns="http://www.w3.org/2000/svg">
<path d="M8.31377 2.86792C5.22657 2.86792 2.71533 5.38148 2.71533 8.46948V16.4695C2.71533 19.5567 5.22889 22.0679 8.31689 22.0679H16.3169C19.4041 22.0679 21.9153 19.5544 21.9153 16.4664V8.46636C21.9153 5.37916 19.4018 2.86792 16.3138 2.86792H8.31377ZM17.9153 6.06792C18.3569 6.06792 18.7153 6.42632 18.7153 6.86792C18.7153 7.30952 18.3569 7.66792 17.9153 7.66792C17.4737 7.66792 17.1153 7.30952 17.1153 6.86792C17.1153 6.42632 17.4737 6.06792 17.9153 6.06792ZM12.3153 7.66792C14.9625 7.66792 17.1153 9.82072 17.1153 12.4679C17.1153 15.1151 14.9625 17.2679 12.3153 17.2679C9.66813 17.2679 7.51533 15.1151 7.51533 12.4679C7.51533 9.82072 9.66813 7.66792 12.3153 7.66792ZM12.3153 9.26792C11.4666 9.26792 10.6527 9.60506 10.0526 10.2052C9.45247 10.8053 9.11533 11.6192 9.11533 12.4679C9.11533 13.3166 9.45247 14.1305 10.0526 14.7307C10.6527 15.3308 11.4666 15.6679 12.3153 15.6679C13.164 15.6679 13.978 15.3308 14.5781 14.7307C15.1782 14.1305 15.5153 13.3166 15.5153 12.4679C15.5153 11.6192 15.1782 10.8053 14.5781 10.2052C13.978 9.60506 13.164 9.26792 12.3153 9.26792Z" fill="#888888"/>
</svg>
