<svg width="727" height="682" viewBox="0 0 727 682" fill="none" xmlns="http://www.w3.org/2000/svg">
<path d="M149.387 364.571C231.338 364.571 297.773 298.136 297.773 216.184C297.773 134.232 231.338 67.7974 149.387 67.7974C67.435 67.7974 1 134.232 1 216.184C1 298.136 67.435 364.571 149.387 364.571Z" stroke="#626262" stroke-width="0.9" stroke-dasharray="5 5"/>
<path d="M604.083 644.482C651.546 644.482 690.022 606.006 690.022 558.543C690.022 511.081 651.546 472.604 604.083 472.604C556.621 472.604 518.145 511.081 518.145 558.543C518.145 606.006 556.621 644.482 604.083 644.482Z" stroke="#626262" stroke-width="0.5" stroke-dasharray="5 5"/>
<path d="M386.27 581.802C518.06 581.802 624.898 474.964 624.898 343.174C624.898 211.383 518.06 104.545 386.27 104.545C254.479 104.545 147.642 211.383 147.642 343.174C147.642 474.964 254.479 581.802 386.27 581.802Z" stroke="#626262" stroke-width="0.5" stroke-dasharray="5 5"/>
<path d="M386.271 554.241C503.739 554.241 598.966 459.014 598.966 341.545C598.966 224.077 503.739 128.85 386.271 128.85C268.802 128.85 173.575 224.077 173.575 341.545C173.575 459.014 268.802 554.241 386.271 554.241Z" stroke="#626262" stroke-width="0.5" stroke-dasharray="5 5"/>
<path fill-rule="evenodd" clip-rule="evenodd" d="M389.293 527.029C362.662 527.029 337.427 520.865 314.983 509.934H317.891C339.637 520.051 363.825 525.75 389.293 525.75C414.877 525.75 439.065 520.051 460.812 509.934H463.719C441.275 520.865 416.04 527.029 389.293 527.029ZM547.448 419.576C532.098 458.185 503.141 489.932 466.277 508.655H463.486C480.232 500.398 495.466 489.467 508.491 476.326C525.004 459.929 538.029 440.16 546.634 418.065L547.448 419.576ZM270.095 476.442C283.236 489.467 298.47 500.515 315.216 508.655H312.425C275.561 489.932 246.604 458.301 231.254 419.576L232.068 418.181C240.674 440.16 253.698 460.046 270.095 476.442V476.442ZM231.487 416.553L230.673 418.065C223.463 399.109 219.509 378.642 219.509 357.245C219.509 324.916 228.463 294.68 244.162 268.98C244.395 268.67 244.628 268.321 244.86 267.934C265.444 234.674 297.075 209.091 334.753 196.415C335.14 196.26 335.528 196.105 335.916 195.95C343.281 193.546 350.801 191.608 358.476 190.135L357.662 191.647C323.821 198.043 293.586 214.673 270.095 238.047C239.627 268.515 220.788 310.728 220.788 357.245C220.788 378.177 224.626 398.063 231.487 416.553ZM445.112 196.764C445.5 196.919 445.888 197.035 446.275 197.113C483.837 210.486 515.352 236.768 535.47 270.608C535.703 270.996 535.935 271.345 536.168 271.655C550.82 296.774 559.193 326.079 559.193 357.245C559.193 378.642 555.24 399.109 548.03 418.065L547.215 416.553C554.077 398.063 557.914 378.177 557.914 357.245C557.914 310.728 539.075 268.515 508.491 238.047C485.116 214.673 454.881 198.043 421.04 191.647L420.226 190.135C428.754 191.763 437.05 193.973 445.112 196.764V196.764ZM418.598 189.903L419.412 191.298C409.644 189.554 399.643 188.623 389.293 188.623C379.059 188.623 369.058 189.554 359.29 191.298L360.104 189.903C369.64 188.275 379.408 187.344 389.293 187.344C399.294 187.344 409.062 188.275 418.598 189.903Z" fill="#626262"/>
<path fill-rule="evenodd" clip-rule="evenodd" d="M423.831 503.887C423.909 504.042 423.986 504.158 424.064 504.236C412.9 506.794 401.271 508.19 389.293 508.19C386.037 508.19 382.742 508.112 379.408 507.957C379.486 507.802 379.524 507.686 379.524 507.608L379.641 506.678C382.819 506.833 386.037 506.91 389.293 506.91C401.154 506.91 412.667 505.515 423.715 502.956L423.831 503.887ZM378.245 506.562L378.129 507.492C378.129 507.647 378.129 507.763 378.129 507.841C362.895 506.678 348.242 503.305 334.52 497.956C334.598 497.878 334.675 497.801 334.753 497.723L335.101 496.793C348.591 502.142 363.127 505.399 378.245 506.562ZM466.161 486.676C466.238 486.831 466.355 486.947 466.51 487.025C453.718 494.584 439.763 500.398 424.994 504.003C425.072 503.848 425.072 503.732 424.994 503.654L424.761 502.724C439.414 499.119 453.136 493.421 465.696 485.978L466.161 486.676ZM333.822 496.328L333.473 497.142C333.473 497.297 333.473 497.413 333.473 497.491C319.402 491.909 306.378 484.234 294.749 474.931C294.904 474.931 295.02 474.853 295.098 474.698L295.679 474C307.075 483.187 319.984 490.746 333.822 496.328ZM501.513 457.487C501.591 457.564 501.707 457.603 501.862 457.603C501.94 457.603 501.978 457.603 501.978 457.603C491.977 468.883 480.348 478.536 467.44 486.327C467.44 486.249 467.401 486.133 467.324 485.978L466.859 485.164C477.092 478.884 486.628 471.442 495.117 462.953C497.055 461.014 498.955 458.999 500.815 456.905L501.513 457.487ZM526.399 419.111C526.477 419.111 526.554 419.111 526.632 419.111C526.865 419.111 527.02 419.034 527.097 418.878C520.934 432.833 512.561 445.625 502.676 456.905C502.599 456.75 502.521 456.634 502.444 456.557L501.746 455.975C511.514 444.928 519.654 432.368 525.818 418.762L526.399 419.111ZM534.889 397.365C532.912 404.691 530.353 411.785 527.33 418.646C527.33 418.297 527.213 418.064 526.865 417.948L526.283 417.716C529.423 410.622 531.981 403.296 533.958 395.737L534.889 397.365ZM245.209 398.062L244.627 398.295C244.279 398.411 244.046 398.76 244.162 399.109C244.279 399.342 244.511 399.574 244.744 399.574C244.821 399.574 244.899 399.574 244.976 399.574L245.558 399.342C252.651 423.763 265.909 445.625 283.352 463.069C286.996 466.713 290.795 470.124 294.749 473.302L294.167 474C294.012 474.155 293.935 474.272 293.935 474.349C269.979 454.812 252.07 428.065 243.697 397.365L244.511 395.853C244.744 396.628 244.976 397.365 245.209 398.062V398.062ZM244.046 393.992L243.116 395.62C239.976 383.41 238.231 370.502 238.231 357.244H239.511C239.511 369.92 241.139 382.247 244.046 393.992ZM540.354 357.244C540.354 370.502 538.61 383.41 535.354 395.62L534.423 393.992C536.051 387.79 537.253 381.433 538.028 374.921L538.61 375.037C538.959 375.037 539.191 374.804 539.308 374.455C539.308 374.107 539.075 373.758 538.726 373.758L538.145 373.641C538.765 368.215 539.075 362.749 539.075 357.244C539.075 355.539 539.036 353.833 538.959 352.128H539.424C539.773 352.011 540.122 351.779 540.122 351.43C540.005 351.081 539.773 350.849 539.424 350.849H538.959C538.649 343.483 537.796 336.312 536.4 329.335L536.865 329.218C537.214 329.218 537.447 328.87 537.331 328.521C537.331 328.172 536.982 327.939 536.749 327.939C536.672 327.939 536.633 327.978 536.633 328.056H536.168C534.772 320.923 532.873 313.984 530.47 307.24L530.818 307.123C531.167 307.007 531.284 306.658 531.167 306.309C531.051 306.077 530.818 305.844 530.586 305.844C530.508 305.844 530.431 305.883 530.353 305.96L530.121 306.077C527.562 299.177 524.577 292.587 521.166 286.307L521.399 286.191C521.748 285.958 521.864 285.61 521.748 285.261C521.631 285.028 521.399 284.912 521.166 284.912C521.011 284.912 520.895 284.951 520.817 285.028L520.585 285.144C517.096 278.787 513.181 272.74 508.84 267.003L508.956 266.887C509.305 266.654 509.305 266.189 509.072 265.956C508.995 265.801 508.839 265.724 508.607 265.724C508.452 265.724 508.336 265.763 508.258 265.84L508.025 265.956C504.072 260.762 499.808 255.878 495.233 251.304C494.691 250.761 494.148 250.257 493.605 249.792L493.722 249.676C494.071 249.443 493.954 248.978 493.722 248.745C493.644 248.668 493.489 248.629 493.257 248.629C493.101 248.629 492.946 248.668 492.791 248.745L492.675 248.862C487.481 243.9 481.938 239.326 476.046 235.139V235.023C476.278 234.791 476.278 234.325 475.929 234.093C475.852 234.015 475.735 233.977 475.58 233.977C475.348 233.977 475.154 234.093 474.999 234.325C469.107 230.216 462.905 226.534 456.392 223.278C456.509 222.929 456.392 222.58 456.16 222.347C456.005 222.347 455.889 222.347 455.811 222.347C455.578 222.347 455.346 222.464 455.23 222.696C448.795 219.518 442.089 216.804 435.111 214.556C435.228 214.207 435.111 213.858 434.762 213.742C434.685 213.742 434.607 213.742 434.53 213.742C434.297 213.742 433.948 213.975 433.948 214.207C433.793 214.13 433.677 214.091 433.6 214.091L432.669 212.463C494.885 231.069 540.354 288.866 540.354 357.244V357.244ZM344.986 214.091C329.403 218.859 314.867 226.185 301.959 235.605L301.842 235.488C301.687 235.333 301.532 235.256 301.377 235.256C301.222 235.256 301.067 235.294 300.912 235.372C300.679 235.488 300.563 235.953 300.796 236.186L300.912 236.302C294.632 240.876 288.779 245.877 283.352 251.304C267.537 267.119 255.326 286.424 247.767 307.937L247.535 307.821C247.457 307.821 247.38 307.821 247.302 307.821C247.07 307.821 246.837 307.937 246.721 308.286C246.604 308.519 246.721 308.984 247.07 309.1H247.418C242.302 324.218 239.511 340.382 239.511 357.244H238.231C238.231 288.866 283.585 231.069 345.916 212.463L344.986 214.091ZM387.781 206.765V207.462C373.477 207.579 359.755 209.672 346.731 213.509L347.661 211.998C360.453 208.276 374.059 206.299 388.13 206.183C387.897 206.299 387.781 206.532 387.781 206.765V206.765ZM430.809 211.998L431.739 213.509C425.614 211.726 419.296 210.331 412.784 209.323C412.784 208.974 412.551 208.625 412.202 208.509C411.853 208.509 411.504 208.741 411.504 209.09C404.217 208.005 396.813 207.462 389.293 207.462C389.215 207.462 389.138 207.462 389.06 207.462V206.765C389.06 206.532 388.944 206.299 388.711 206.183C388.866 206.183 389.06 206.183 389.293 206.183C403.713 206.183 417.668 208.16 430.809 211.998V211.998Z" fill="#626262"/>
<path d="M414.993 466.906C406.736 468.767 398.131 469.814 389.293 469.814C386.889 469.814 384.525 469.736 382.199 469.581L382.315 468.302C384.641 468.457 386.967 468.535 389.293 468.535C398.015 468.535 406.504 467.604 414.644 465.627L414.993 466.906ZM381.036 468.302L380.92 469.581C369.756 468.767 358.941 466.209 348.94 462.139L349.405 460.976C359.29 464.93 369.872 467.488 381.036 468.302V468.302ZM446.508 453.882C437.321 459.58 427.087 463.883 416.272 466.558L415.923 465.278C426.622 462.604 436.739 458.417 445.926 452.719L446.508 453.882ZM348.126 460.51L347.661 461.79C337.427 457.603 327.891 451.789 319.518 444.928L320.332 443.881C328.589 450.742 338.009 456.44 348.126 460.51V460.51ZM472.44 431.903C465.23 440.16 456.858 447.37 447.554 453.3L446.857 452.138C453.834 447.835 460.23 442.718 466.045 436.904C467.905 435.043 469.688 433.105 471.394 431.089L472.44 431.903ZM490.466 403.179C486.046 413.297 480.348 422.6 473.371 430.973L472.324 430.042C479.302 421.902 485 412.715 489.186 402.714L490.466 403.179ZM312.774 436.787C314.944 438.958 317.193 441.012 319.518 442.951L318.704 443.997C301.842 429.694 289.283 410.506 283.468 388.527L284.631 388.178C289.632 406.901 299.516 423.53 312.774 436.787ZM498.838 370.502C497.792 381.549 495.117 392.132 491.047 401.9L489.884 401.435C493.838 391.667 496.513 381.317 497.559 370.385L498.838 370.502ZM284.399 387.015L283.119 387.364C280.91 378.642 279.747 369.455 279.747 360.035H280.329H281.026C281.026 369.339 282.189 378.409 284.399 387.015ZM499.304 360.035C499.304 363.137 499.187 366.199 498.955 369.222L497.676 369.106C497.908 366.083 498.024 363.059 498.024 360.035C498.024 357.942 497.947 355.849 497.792 353.756H499.071C499.226 355.849 499.304 357.942 499.304 360.035V360.035ZM499.071 352.477H497.792C497.404 347.36 496.668 342.321 495.582 337.359L496.861 337.126C497.947 342.088 498.683 347.205 499.071 352.477ZM287.539 322.939C283.352 334.568 281.026 347.011 281.026 360.035H280.329H279.747C279.747 346.895 282.073 334.219 286.259 322.474L287.539 322.939ZM496.629 335.963L495.466 336.196C494.303 331.157 492.83 326.311 491.047 321.66L492.21 321.194C494.071 325.924 495.544 330.847 496.629 335.963ZM491.745 320.032L490.582 320.38C488.721 315.651 486.55 311.116 484.07 306.774L484.302 306.658L491.745 320.032ZM477.092 293.866L483.604 305.495L483.372 305.612C480.813 301.27 477.984 297.122 474.883 293.168L475.929 292.354C476.317 292.82 476.704 293.323 477.092 293.866V293.866ZM475.115 291.424L474.069 292.122C471.665 289.098 469.068 286.191 466.277 283.4C465.502 282.625 464.688 281.849 463.835 281.074L464.765 280.144C468.487 283.633 471.937 287.393 475.115 291.424V291.424ZM326.612 271.655C321.65 275.221 317.038 279.136 312.774 283.4C301.959 294.215 293.469 307.24 288.004 321.776L286.725 321.427C286.88 320.962 287.035 320.535 287.19 320.148L301.959 293.866C308.703 284.912 316.844 277.12 325.914 270.608L326.612 271.655ZM463.835 279.33L462.905 280.26C459.183 276.849 455.268 273.709 451.159 270.841L451.857 269.794C456.044 272.663 460.036 275.841 463.835 279.33ZM450.81 269.096L450.113 270.143C446.004 267.352 441.662 264.832 437.088 262.584L437.67 261.421C442.244 263.669 446.624 266.228 450.81 269.096ZM436.507 260.956L436.042 262.119C431.545 259.948 426.893 258.126 422.087 256.653L422.436 255.374C427.32 256.925 432.01 258.785 436.507 260.956V260.956ZM421.273 255.025L420.807 256.188C416.078 254.793 411.233 253.707 406.271 252.932L406.504 251.653C411.543 252.428 416.466 253.552 421.273 255.025ZM388.014 251.653C365.569 251.885 344.753 258.979 327.659 270.957L326.845 269.91C344.288 257.816 365.221 250.606 388.014 250.374V251.653ZM405.225 251.42L404.992 252.699C399.953 252.002 394.797 251.653 389.525 251.653C389.448 251.653 389.37 251.653 389.293 251.653V250.374C389.37 250.374 389.448 250.374 389.525 250.374C394.797 250.374 400.03 250.722 405.225 251.42Z" fill="#626262"/>
<path fill-rule="evenodd" clip-rule="evenodd" d="M411.854 453.766C404.644 455.51 397.085 456.44 389.293 456.44C387.2 456.44 385.146 456.363 383.13 456.208L383.246 454.929C385.262 455.084 387.278 455.161 389.293 455.161C396.969 455.161 404.411 454.231 411.505 452.487L411.854 453.766ZM381.967 454.812L381.851 456.092C372.082 455.394 362.663 453.184 353.825 449.696L354.29 448.416C363.012 451.905 372.315 454.115 381.967 454.812V454.812ZM439.647 442.369C431.507 447.253 422.552 451.091 413.133 453.533L412.784 452.254C422.204 449.812 430.925 446.091 438.949 441.206L439.647 442.369ZM353.127 448.067L352.662 449.23C343.707 445.509 335.451 440.509 328.125 434.461L328.939 433.415C336.149 439.462 344.289 444.346 353.127 448.067V448.067ZM462.44 423.065C456.16 430.275 448.834 436.555 440.694 441.671L440.112 440.625C446.043 436.787 451.625 432.368 456.626 427.368C458.331 425.662 459.959 423.918 461.51 422.135L462.44 423.065ZM478.139 397.83C474.302 406.668 469.301 414.808 463.254 422.135L462.208 421.321C468.255 414.111 473.255 406.087 476.976 397.365L478.139 397.83ZM322.194 427.368C323.977 429.228 325.876 430.973 327.892 432.601L327.078 433.647C312.309 421.088 301.378 404.226 296.261 385.038L297.54 384.689C301.843 401.086 310.565 415.739 322.194 427.368V427.368ZM485.349 369.106C484.419 378.758 482.093 388.062 478.604 396.551L477.442 396.086C480.814 387.596 483.14 378.526 484.07 368.99L485.349 369.106ZM297.191 383.41L296.028 383.759C294.051 376.2 293.121 368.292 293.121 360.152C293.121 348.523 295.098 337.359 298.936 327.009L300.099 327.474C296.377 337.708 294.4 348.639 294.4 360.152C294.4 368.176 295.331 375.967 297.191 383.41ZM485.698 360.152C485.698 362.71 485.582 365.269 485.349 367.827L484.07 367.711C484.303 365.23 484.419 362.71 484.419 360.152C484.419 358.214 484.38 356.314 484.303 354.454H485.582C485.659 356.314 485.698 358.214 485.698 360.152ZM485.466 353.058L484.186 353.174C483.876 348.755 483.256 344.414 482.326 340.15L483.605 339.801C484.535 344.143 485.156 348.562 485.466 353.058ZM483.256 338.638L481.977 338.871C481.047 334.529 479.806 330.343 478.256 326.311L479.419 325.846C480.969 329.955 482.248 334.219 483.256 338.638V338.638ZM478.953 324.683L477.79 325.032C476.162 321.001 474.263 317.086 472.092 313.287L473.255 312.705C475.426 316.504 477.325 320.497 478.953 324.683ZM472.557 311.542L471.394 312.124C469.224 308.403 466.782 304.836 464.068 301.425L465.115 300.611C467.828 304.1 470.309 307.744 472.557 311.542ZM464.301 299.564L463.254 300.379C461.161 297.82 458.951 295.339 456.626 292.936C455.928 292.238 455.191 291.54 454.416 290.843L455.346 289.912C458.525 292.936 461.51 296.153 464.301 299.564V299.564ZM334.404 282.702C330.063 285.803 325.993 289.215 322.194 292.936C312.774 302.355 305.448 313.636 300.564 326.311L299.401 325.846C306.146 307.937 318.24 292.587 333.59 281.656L334.404 282.702ZM454.416 289.098L453.602 290.029C450.346 287.083 446.935 284.369 443.368 281.888L444.182 280.842C447.749 283.4 451.16 286.152 454.416 289.098ZM443.136 280.144L442.322 281.191C438.756 278.787 435.034 276.655 431.158 274.795L431.739 273.632C435.693 275.57 439.492 277.741 443.136 280.144ZM430.577 273.05L429.995 274.213C426.119 272.352 422.126 270.763 418.017 269.445L418.366 268.282C422.552 269.6 426.623 271.19 430.577 273.05ZM417.203 267.933L416.738 269.096C412.707 267.856 408.52 266.926 404.179 266.305L404.411 265.026C408.753 265.724 413.017 266.693 417.203 267.933ZM387.898 265.142C368.477 265.491 350.452 271.655 335.451 281.888L334.753 280.842C349.871 270.376 368.245 264.212 387.898 263.863V265.142ZM403.132 264.794L402.899 266.073C401.504 265.84 400.07 265.685 398.597 265.608C395.496 264.832 392.356 264.251 389.177 263.863C389.255 263.863 389.332 263.863 389.41 263.863C394.061 263.863 398.635 264.173 403.132 264.794Z" fill="#626262"/>
<path d="M387.78 408.645C390.339 408.955 392.858 409.11 395.339 409.11C397.277 409.11 399.177 409.033 401.037 408.878L401.27 410.157C399.332 410.312 397.355 410.389 395.339 410.389C392.781 410.389 390.222 410.234 387.664 409.924C387.199 409.924 386.773 409.885 386.385 409.808V408.529C386.85 408.606 387.315 408.645 387.78 408.645V408.645ZM417.9 406.319C413.015 408.18 407.899 409.459 402.549 410.04L402.317 408.761C407.433 408.18 412.434 407.017 417.202 405.156L417.9 406.319ZM385.222 408.296L385.106 409.692C380.222 408.761 375.57 407.366 371.267 405.273L371.732 404.11C375.919 406.087 380.454 407.482 385.222 408.296ZM433.831 397.714C429.296 401.086 424.412 403.877 419.179 405.854L418.481 404.807C423.598 402.83 428.366 400.156 432.785 396.9L433.831 397.714ZM370.686 403.412L370.22 404.691C366.034 402.482 362.08 399.807 358.708 396.551L359.522 395.62C362.778 398.644 366.616 401.319 370.686 403.412V403.412ZM447.437 384.108C443.832 388.876 439.646 393.295 434.878 396.9L433.948 396.086C438.599 392.481 442.67 388.294 446.275 383.526L447.437 384.108ZM358.475 394.69L357.661 395.737C350.916 389.108 345.916 380.735 343.59 371.432L344.753 371.083C347.079 380.154 351.963 388.294 358.475 394.69ZM456.741 365.85C454.764 372.13 451.856 377.828 448.135 383.061L446.972 382.48C450.577 377.479 453.485 371.781 455.461 365.734L456.741 365.85ZM457.206 364.571L455.81 364.455C456.741 361.586 457.438 358.601 457.904 355.5L459.183 355.384C458.718 358.563 458.059 361.625 457.206 364.571V364.571ZM459.532 353.407C459.454 353.64 459.415 353.872 459.415 354.105L458.136 354.221C458.136 353.911 458.175 353.601 458.252 353.291C458.563 350.345 458.718 347.476 458.718 344.685L460.113 344.453C460.036 347.399 459.842 350.383 459.532 353.407V353.407ZM345.799 343.29C344.714 346.158 343.978 349.221 343.59 352.477C343.357 354.492 343.241 356.508 343.241 358.524C343.241 362.4 343.668 366.16 344.52 369.804L343.241 370.153C342.388 366.432 341.962 362.555 341.962 358.524C341.962 356.508 342.078 354.454 342.311 352.36C342.698 349.027 343.435 345.848 344.52 342.825L345.799 343.29ZM460.113 343.173L458.834 343.406C458.834 340.072 458.601 336.777 458.136 333.521L459.415 333.056C459.881 336.39 460.113 339.762 460.113 343.173ZM459.183 331.777L458.02 332.242C457.477 328.831 456.741 325.458 455.81 322.125L456.973 321.543C457.981 324.877 458.718 328.288 459.183 331.777ZM363.243 322.474C355.684 327.009 349.637 333.754 346.265 342.127L345.102 341.662C348.59 333.056 354.754 326.079 362.429 321.427L363.243 322.474ZM388.013 315.961V317.241C386.54 317.086 385.106 317.008 383.71 317.008C376.733 317.008 370.22 318.752 364.406 321.892L363.708 320.846C369.639 317.59 376.5 315.729 383.71 315.729C385.106 315.729 386.54 315.806 388.013 315.961V315.961ZM456.624 320.264L455.461 320.846C454.454 317.434 453.213 314.101 451.74 310.845L452.787 310.147C454.26 313.403 455.539 316.775 456.624 320.264V320.264ZM452.205 308.868L451.159 309.682C449.531 306.348 447.709 303.131 445.693 300.03L446.623 299.099C448.717 302.2 450.577 305.457 452.205 308.868V308.868ZM445.809 298.053L444.995 298.983C442.825 295.804 440.421 292.82 437.785 290.029L438.483 288.866C441.197 291.734 443.639 294.797 445.809 298.053V298.053ZM437.669 287.935L436.855 288.982C434.142 286.114 431.196 283.478 428.017 281.074L428.598 279.911C431.854 282.392 434.878 285.067 437.669 287.935ZM427.552 279.097L426.97 280.26C423.714 277.857 420.303 275.686 416.737 273.748L417.086 272.469C420.807 274.407 424.296 276.616 427.552 279.097ZM415.923 271.887L415.574 273.167C411.853 271.228 407.976 269.639 403.945 268.399L404.061 267.119C408.17 268.36 412.124 269.949 415.923 271.887ZM398.595 265.491C400.068 265.879 401.503 266.267 402.898 266.654L402.666 267.933C398.324 266.615 393.866 265.685 389.292 265.142V263.863C392.471 264.251 395.572 264.794 398.595 265.491Z" fill="#626262"/>
<path d="M388.828 206.183C388.944 206.183 389.177 206.416 389.177 206.648V207.462V250.257V251.537V263.747V265.026V354.919L388.944 355.965L387.781 354.454V317.124V315.845V265.026V263.747V251.537V250.257V207.462V206.648C387.781 206.416 388.014 206.183 388.13 206.183C388.285 206.106 388.401 206.067 388.479 206.067C388.557 206.067 388.673 206.106 388.828 206.183V206.183Z" fill="#626262"/>
<path d="M412.318 208.509C412.667 208.509 412.899 208.858 412.899 209.207L406.387 251.653L406.154 252.815L404.294 264.91L404.061 266.189L403.945 267.003L403.712 268.282L391.269 349.453L389.176 356.314L388.943 355.965L389.176 354.919L402.549 267.933L402.782 266.654V265.956L403.015 264.677L404.875 252.699L405.108 251.42L411.62 209.09C411.62 208.741 411.969 208.509 412.201 208.509C412.279 208.509 412.318 208.509 412.318 208.509V208.509Z" fill="#626262"/>
<path d="M434.181 217.696L422.32 255.374L421.971 256.537L418.249 268.166L417.9 269.445L416.97 272.468L416.505 273.631L392.433 349.802L389.293 356.43L389.177 356.314L391.27 349.453L415.342 273.05L415.807 271.887L416.621 268.98L417.086 267.817L420.691 256.188L421.157 254.909L433.367 216.184L434.181 217.696ZM434.763 213.742C435.111 213.858 435.228 214.207 435.112 214.556L434.646 216.068L433.832 214.439L433.949 214.091C434.065 213.858 434.297 213.742 434.53 213.742C434.608 213.742 434.685 213.742 434.763 213.742V213.742Z" fill="#626262"/>
<path d="M447.439 241.419L437.555 261.421L436.973 262.584L431.624 273.515L431.042 274.678L428.484 279.911L427.902 281.074L393.597 350.384L389.294 356.547V356.431L392.434 349.802L426.856 280.26L427.437 279.097L429.879 274.097L430.461 272.934L435.81 262.003L436.392 260.84L446.741 240.024L447.439 241.419ZM456.161 222.348C456.394 222.58 456.51 222.929 456.394 223.278L448.137 240.024L447.323 238.628L455.231 222.697C455.347 222.464 455.58 222.348 455.812 222.348C455.89 222.348 456.006 222.348 456.161 222.348V222.348Z" fill="#626262"/>
<path d="M458.254 260.608L451.742 269.795L451.044 270.841L444.067 280.842L443.369 281.889L438.369 288.866L437.671 289.913L394.643 351.198L389.41 356.664L389.294 356.547L393.597 350.384L436.74 288.982L437.438 287.936L442.206 281.075L443.02 280.028L449.998 270.143L450.695 269.097L457.556 259.328L458.254 260.608ZM476.047 234.093C476.279 234.326 476.396 234.791 476.163 235.024V235.14L459.068 259.445L458.371 258.165L475.116 234.326C475.271 234.093 475.465 233.977 475.698 233.977C475.775 233.977 475.892 234.016 476.047 234.093Z" fill="#626262"/>
<path d="M467.556 277.121L464.649 280.144L463.719 281.075L455.23 289.913L454.416 290.843L446.508 299.1L445.578 300.03L395.573 352.012L389.525 356.78L389.409 356.663L394.642 351.198L444.763 298.867L445.694 297.937L453.485 289.913L454.299 288.982L462.789 280.144L463.603 279.214L466.859 275.958L467.556 277.121ZM493.838 248.746C494.071 248.978 494.071 249.444 493.838 249.676L493.722 249.792L468.487 276.074L467.789 274.911L492.791 248.862L492.908 248.746C493.063 248.591 493.218 248.513 493.373 248.513C493.606 248.513 493.761 248.591 493.838 248.746Z" fill="#626262"/>
<path d="M475.929 292.122L475.697 292.354L474.766 293.168L464.998 300.495L464.068 301.309L452.671 310.03L451.625 310.844L396.387 353.058L389.525 356.779L395.573 352.011L451.043 309.682L452.09 308.867L463.254 300.262L464.3 299.564L473.952 292.122L474.999 291.308L475.348 291.075L475.929 292.122ZM509.188 265.84C509.305 266.189 509.305 266.538 509.072 266.77L508.839 266.887L476.976 291.308L476.278 290.145L508.025 265.84L508.258 265.724C508.336 265.646 508.452 265.607 508.607 265.607C508.839 265.607 509.033 265.685 509.188 265.84V265.84Z" fill="#626262"/>
<path d="M484.07 306.658L483.837 306.775L473.138 312.589L471.975 313.171L456.858 321.427L455.695 322.125L396.968 354.221L389.525 356.896V356.78L396.387 353.058L455.346 320.846L456.509 320.264L471.394 312.124L472.557 311.426L483.256 305.612L483.488 305.496L484.07 306.658ZM521.748 285.261C521.864 285.61 521.748 285.959 521.515 286.191L521.283 286.308L485.116 306.077L484.535 304.914L520.585 285.145L520.817 285.028C520.972 284.951 521.089 284.912 521.166 284.912C521.399 284.912 521.631 285.145 521.748 285.261V285.261Z" fill="#626262"/>
<path d="M492.21 321.078L491.977 321.194L490.814 321.543L479.418 325.729L478.139 326.195L459.3 333.056L458.137 333.405L397.433 355.384L389.642 357.012L389.525 356.895L396.968 354.221L457.904 332.125L459.183 331.66L477.674 325.032L478.953 324.567L490.349 320.38L491.512 319.915L492.21 321.078ZM531.284 306.309C531.4 306.658 531.284 307.007 530.935 307.123L530.586 307.239L493.489 320.729L492.791 319.566L530.237 306.076L530.469 305.96C530.547 305.883 530.625 305.844 530.702 305.844C530.935 305.844 531.167 306.076 531.284 306.309V306.309Z" fill="#626262"/>
<path d="M500.7 336.429L496.746 337.126L495.467 337.359L483.489 339.801L482.21 340.034L459.998 344.336L458.719 344.685L397.667 356.663L389.643 357.012L397.434 355.384L458.719 343.29L459.998 343.057L481.977 338.754L483.256 338.522L495.234 336.196L496.514 335.963L500.119 335.149L500.7 336.429ZM537.332 328.637C537.448 328.986 537.215 329.335 536.866 329.335L536.401 329.451L501.979 336.196L501.398 335.033L536.169 328.172L536.634 328.056C536.634 328.056 536.673 328.056 536.75 328.056C536.983 328.056 537.332 328.288 537.332 328.637V328.637Z" fill="#626262"/>
<path d="M510.236 353.291L498.956 353.756H497.677L485.466 354.337H484.187L459.184 355.384L457.905 355.5L397.783 357.942L389.643 357.012L397.667 356.663L458.138 354.105H459.417L484.07 353.058H485.466L497.56 352.477H498.839L509.538 352.012L510.236 353.291ZM540.123 351.43C540.123 351.779 539.89 352.012 539.541 352.128H538.96L511.631 353.291L510.934 352.012L538.96 350.849H539.425C539.425 350.849 539.464 350.849 539.541 350.849C539.774 350.849 540.123 351.081 540.123 351.43Z" fill="#626262"/>
<path d="M538.262 373.641L538.727 373.758C539.076 373.758 539.425 374.106 539.308 374.455C539.308 374.804 539.076 375.037 538.727 375.037C538.649 375.037 538.611 375.037 538.611 375.037L538.029 374.92L522.911 373.292L522.097 371.897L538.262 373.641ZM397.899 357.942L455.928 364.454L457.207 364.571L484.187 367.594L485.466 367.71L497.56 369.106L498.839 369.222L520.702 371.664L521.4 373.06L498.723 370.501L497.444 370.385L485.35 368.99L484.07 368.873L456.858 365.85L455.463 365.617L393.48 358.756L389.875 357.128L389.759 357.012L397.899 357.942Z" fill="#626262"/>
<path d="M393.364 358.756L446.974 382.48L448.137 383.061L477.326 395.969L478.488 396.435L489.652 401.435L490.815 401.9L526.4 417.716L526.982 417.948C527.214 418.065 527.447 418.297 527.331 418.646C527.331 418.724 527.331 418.762 527.331 418.762C527.331 418.84 527.292 418.917 527.214 418.995C527.059 419.15 526.904 419.228 526.749 419.228C526.672 419.228 526.594 419.189 526.516 419.111L525.819 418.879L490.35 403.179L489.187 402.598L478.023 397.714L476.86 397.132L447.323 384.108L446.16 383.526L392.899 359.919L389.875 357.245L389.759 357.128L393.364 358.756Z" fill="#626262"/>
<path d="M392.898 359.919L433.832 396.086L434.762 396.9L462.207 421.088L463.137 421.902L472.324 430.043L473.254 430.857L501.862 456.092L502.443 456.557C502.598 456.712 502.676 456.867 502.676 457.022C502.676 457.177 502.637 457.332 502.56 457.487C502.404 457.642 502.249 457.72 502.094 457.72C502.094 457.72 502.056 457.72 501.978 457.72C501.823 457.72 501.707 457.681 501.629 457.603L500.931 457.022L472.44 431.787L471.51 430.973L462.323 422.949L461.393 422.018L433.716 397.714L432.785 396.783L392.084 360.966L389.874 357.361C389.874 357.361 389.874 357.322 389.874 357.245L392.898 359.919Z" fill="#626262"/>
<path d="M392.084 360.965L418.481 404.691L419.063 405.853L439.995 440.508L440.693 441.555L446.973 452.021L447.554 453.184L466.975 485.28L467.44 486.094C467.517 486.171 467.556 486.288 467.556 486.443C467.479 486.675 467.362 486.83 467.207 486.908C467.13 486.986 467.013 487.024 466.858 487.024C466.781 487.024 466.703 487.024 466.626 487.024C466.471 486.947 466.354 486.869 466.277 486.792L465.812 485.978L446.507 453.881L445.81 452.719L439.53 442.252L438.832 441.206L417.9 406.319L417.202 405.156L390.921 361.547L389.99 357.593C389.99 357.515 389.952 357.438 389.874 357.36L392.084 360.965Z" fill="#626262"/>
<path d="M390.922 361.547L402.318 408.761L402.551 410.04L412.784 452.254L413.017 453.417L415.924 465.278L416.157 466.557L424.879 502.724L425.111 503.654C425.189 503.732 425.189 503.848 425.111 504.003C425.111 504.119 424.879 504.352 424.646 504.352C424.569 504.429 424.53 504.468 424.53 504.468C424.297 504.468 424.142 504.391 424.065 504.236C423.987 504.158 423.91 504.042 423.832 503.887L423.716 502.956L414.994 466.906L414.645 465.627L411.854 453.766L411.505 452.486L401.272 410.157L401.039 408.877L389.643 361.896L389.991 357.71C389.991 357.71 389.991 357.671 389.991 357.593L390.922 361.547Z" fill="#626262"/>
<path d="M389.642 361.896L386.385 408.528V409.808L383.246 454.928L383.129 456.208L382.315 468.302L382.199 469.581L379.641 506.678L379.524 507.608C379.524 507.685 379.486 507.802 379.408 507.957C379.292 508.073 379.175 508.189 378.943 508.189C378.865 508.189 378.827 508.189 378.827 508.189C378.594 508.189 378.361 508.073 378.245 507.841C378.245 507.763 378.245 507.647 378.245 507.492L378.361 506.561L380.92 469.581L381.036 468.302L381.85 456.091L381.966 454.812L385.106 409.575L385.223 408.296L388.362 361.78L389.874 357.942C389.952 357.865 389.99 357.787 389.99 357.709L389.642 361.896Z" fill="#626262"/>
<path fill-rule="evenodd" clip-rule="evenodd" d="M388.362 361.78L371.732 403.993L371.267 405.273L354.289 448.416L353.823 449.579L349.288 460.976L348.823 462.139L335.217 496.793L334.868 497.724C334.791 497.801 334.713 497.879 334.636 497.956C334.48 498.034 334.364 498.072 334.287 498.072C334.209 498.072 334.132 498.072 334.054 498.072C333.821 497.956 333.589 497.84 333.589 497.607C333.589 497.452 333.589 497.336 333.589 497.258L333.938 496.328L347.66 461.674L348.125 460.511L352.544 449.114L353.126 447.951L370.104 404.691L370.569 403.412L387.199 361.315L389.874 358.059C389.874 358.059 389.874 358.02 389.874 357.942L388.362 361.78ZM389.874 357.361C389.951 357.361 389.99 357.4 389.99 357.477C389.99 357.477 389.99 357.516 389.99 357.593C389.99 357.516 389.951 357.438 389.874 357.361V357.361ZM389.874 357.245C389.874 357.322 389.874 357.361 389.874 357.361C389.874 357.361 389.874 357.322 389.874 357.245Z" fill="#626262"/>
<path d="M387.2 361.314L359.407 395.62L358.593 396.55L328.823 433.298L328.009 434.345L320.333 443.764L319.519 444.811L295.796 474.116L295.215 474.814C295.137 474.891 295.021 474.969 294.866 475.046C294.788 475.046 294.75 475.046 294.75 475.046C294.594 475.046 294.439 475.008 294.284 474.93C294.129 474.775 294.052 474.581 294.052 474.349C294.052 474.194 294.091 474.077 294.168 474L294.75 473.302L318.589 443.997L319.287 442.95L326.962 433.531L327.776 432.484L357.663 395.736L358.477 394.69L387.549 358.872L389.526 358.291C389.604 358.291 389.681 358.252 389.759 358.174C389.759 358.174 389.798 358.136 389.875 358.058L387.2 361.314Z" fill="#626262"/>
<path fill-rule="evenodd" clip-rule="evenodd" d="M389.177 358.291C389.177 358.291 389.216 358.291 389.294 358.291C389.371 358.291 389.449 358.291 389.526 358.291L387.549 358.872L344.754 371.083L343.475 371.432L297.54 384.572L296.261 384.921L284.516 388.177L283.353 388.526L245.559 399.341L244.977 399.458C244.9 399.535 244.861 399.574 244.861 399.574C244.512 399.574 244.279 399.341 244.163 399.109C244.163 398.76 244.279 398.411 244.628 398.295L245.21 398.062L283.004 387.363L284.167 387.014L295.912 383.642L297.192 383.293L343.243 370.152L344.406 369.803L387.2 357.593L389.177 358.291ZM389.991 357.36C389.991 357.438 389.991 357.477 389.991 357.477C389.991 357.554 389.991 357.593 389.991 357.593C389.991 357.593 389.991 357.554 389.991 357.477C389.991 357.477 389.991 357.438 389.991 357.36C389.991 357.36 389.953 357.36 389.875 357.36C389.875 357.36 389.914 357.36 389.991 357.36ZM389.991 357.593C390.069 357.67 390.108 357.748 390.108 357.826C390.03 357.826 389.991 357.864 389.991 357.942C389.991 358.019 389.953 358.058 389.875 358.058C389.953 358.058 389.991 358.058 389.991 358.058C389.991 357.981 389.991 357.942 389.991 357.942C389.991 357.864 389.991 357.826 389.991 357.826C390.069 357.748 390.069 357.67 389.991 357.593ZM389.875 358.058C389.875 358.136 389.875 358.174 389.875 358.174C389.875 358.174 389.875 358.136 389.875 358.058ZM389.875 358.174C389.875 358.174 389.836 358.174 389.759 358.174C389.759 358.174 389.798 358.174 389.875 358.174Z" fill="#626262"/>
<path fill-rule="evenodd" clip-rule="evenodd" d="M389.99 357.594C389.99 357.671 389.99 357.749 389.99 357.826C389.99 357.749 389.99 357.671 389.99 357.594ZM286.608 321.311L287.771 321.776L299.284 325.73L300.563 326.195L344.986 341.662L346.265 342.011L387.664 356.431L388.827 358.059C388.905 358.136 389.021 358.214 389.176 358.291L387.199 357.594L345.8 343.174L344.521 342.825L300.098 327.358L298.818 327.009L287.306 322.939L286.143 322.59L285.794 322.474L286.375 321.311H286.608ZM247.651 307.705L247.883 307.821L285.212 320.73L284.631 321.893L247.534 309.101L247.185 308.984C246.837 308.868 246.72 308.519 246.837 308.17C246.953 307.821 247.185 307.705 247.418 307.705C247.496 307.705 247.573 307.705 247.651 307.705V307.705ZM389.874 357.943C389.874 358.02 389.874 358.059 389.874 358.059C389.874 358.059 389.874 358.02 389.874 357.943ZM389.99 357.943C389.913 357.943 389.874 357.943 389.874 357.943C389.874 357.943 389.913 357.943 389.99 357.943ZM389.99 357.361C389.99 357.361 389.99 357.4 389.99 357.477C389.99 357.4 389.99 357.361 389.99 357.361ZM389.874 357.245C389.951 357.245 389.99 357.284 389.99 357.361C389.99 357.284 389.951 357.245 389.874 357.245Z" fill="#626262"/>
<path d="M326.729 269.91L327.544 270.957L334.637 280.841L335.451 281.772L363.477 320.845L364.291 321.892L387.782 354.453L388.945 355.965L389.177 356.314L389.294 356.43V356.546L389.41 356.663L389.526 356.779V356.895L389.643 357.012L389.759 357.128L389.875 357.244C389.875 357.322 389.875 357.36 389.875 357.36C389.875 357.36 389.914 357.36 389.992 357.36C389.992 357.438 389.992 357.477 389.992 357.477C389.992 357.554 389.992 357.593 389.992 357.593C389.992 357.671 389.992 357.748 389.992 357.826C389.992 357.903 389.992 357.942 389.992 357.942C389.914 357.942 389.875 357.942 389.875 357.942C389.875 358.019 389.875 358.058 389.875 358.058C389.875 358.058 389.836 358.058 389.759 358.058C389.759 358.058 389.759 358.097 389.759 358.174C389.681 358.252 389.604 358.291 389.526 358.291C389.449 358.291 389.371 358.291 389.294 358.291C389.216 358.291 389.177 358.291 389.177 358.291C389.022 358.213 388.906 358.136 388.829 358.058L387.666 356.43L363.128 322.473L362.431 321.427L334.288 282.586L333.591 281.539L326.497 271.654L325.683 270.608L319.636 262.118L320.333 260.839L326.729 269.91ZM301.843 235.488V235.604L319.403 259.793L318.705 261.072L300.797 236.418V236.302C300.564 235.953 300.68 235.604 300.913 235.372C301.068 235.294 301.184 235.255 301.262 235.255C301.494 235.255 301.688 235.333 301.843 235.488V235.488Z" fill="#626262"/>
<path fill-rule="evenodd" clip-rule="evenodd" d="M389.876 136.176L420.227 190.135L421.042 191.53L432.671 212.463L433.601 214.091L433.833 214.556L434.764 216.068L447.439 238.628L448.137 240.023L458.371 258.165L459.069 259.444L467.79 274.911L468.488 276.19L476.396 290.261L476.977 291.424L484.536 304.914L485.234 305.96L492.793 319.566L493.374 320.613L501.398 334.917L502.096 336.079L510.934 352.011L511.632 353.174L522.098 371.897L522.912 373.292L534.541 393.992L535.471 395.62L547.217 416.552L548.031 417.948L599.082 509.003C599.199 509.12 599.199 509.352 599.082 509.585C598.966 509.817 598.733 509.934 598.501 509.934H180.204C179.971 509.934 179.739 509.817 179.622 509.585C179.506 509.352 179.506 509.12 179.622 509.003L230.674 417.948L231.488 416.552L243.233 395.62L244.164 393.992L284.516 322.008L285.214 320.845L318.706 260.956L319.404 259.793L345.104 214.091L346.034 212.463L357.663 191.53L358.477 190.135L388.829 136.176C388.945 135.943 389.062 135.827 389.294 135.827C389.527 135.827 389.759 135.943 389.876 136.176V136.176ZM359.291 191.298L347.778 211.881L346.848 213.509L320.334 260.839L319.636 262.119L301.844 293.75L287.075 320.031L286.377 321.311L285.796 322.473L244.629 395.736L243.698 397.365L232.069 418.064L231.255 419.576L181.367 508.655H597.338L547.449 419.576L546.635 418.064L535.006 397.365L534.076 395.736L521.284 373.06L520.586 371.664L510.236 353.29L509.539 352.011L500.701 336.428L500.119 335.149L492.211 321.078L491.514 319.915L484.071 306.658L483.49 305.495L476.861 293.75L475.931 292.122L475.349 291.075L467.558 277.12L466.86 275.957L458.254 260.607L457.557 259.328L447.439 241.419L446.742 240.023L434.182 217.696L433.368 216.184L431.857 213.509L430.926 211.881L419.413 191.298L418.599 189.786L389.294 137.804L360.105 189.786L359.291 191.298ZM388.829 136.874L389.294 136.525L388.829 136.874Z" fill="#626262"/>
<path fill-rule="evenodd" clip-rule="evenodd" d="M350.22 41.5157C349.755 41.5157 349.328 41.5545 348.941 41.632C351.499 59.1919 366.617 72.6816 384.874 72.6816C400.341 72.6816 413.598 63.1458 418.831 49.5398C418.366 49.4622 417.94 49.4235 417.552 49.4235C415.691 53.8425 413.017 57.7964 409.761 61.1688C403.365 67.5648 394.643 71.4024 384.874 71.4024C375.222 71.4024 366.501 67.5648 360.105 61.1688C354.871 55.9357 351.266 49.0746 350.22 41.5157V41.5157ZM420.924 41.2831C420.614 43.6865 420.072 46.0123 419.296 48.2606C418.831 48.183 418.405 48.1443 418.017 48.1443C418.792 45.896 419.335 43.5702 419.645 41.1668C420.11 41.2444 420.537 41.2831 420.924 41.2831ZM409.761 11.5128C403.365 5.23307 394.643 1.2792 384.874 1.2792C375.222 1.2792 366.501 5.23307 360.105 11.5128C353.709 17.9087 349.871 26.6305 349.871 36.3989C349.871 37.6394 349.91 38.9186 349.987 40.2365C349.6 40.2365 349.173 40.2753 348.708 40.3528C348.631 39.0349 348.592 37.7169 348.592 36.3989C348.592 16.2807 364.872 0 384.874 0C404.993 0 421.273 16.2807 421.273 36.3989H419.994C419.994 26.6305 416.04 17.9087 409.761 11.5128V11.5128ZM419.762 39.8876C420.227 39.9652 420.653 40.0039 421.041 40.0039C421.196 38.841 421.273 37.6394 421.273 36.3989H419.994C419.994 37.5618 419.917 38.7247 419.762 39.8876Z" fill="#626262"/>
<path d="M622.572 153.619C620.634 155.092 618.58 156.333 616.409 157.341C616.176 156.953 615.905 156.604 615.595 156.294C617.766 155.286 619.82 154.046 621.758 152.573C621.991 152.883 622.262 153.232 622.572 153.619ZM568.148 111.057C566.404 115.36 565.474 120.011 565.474 124.547C565.474 133.617 568.962 142.572 575.707 149.433C582.568 156.294 591.523 159.667 600.593 159.667C605.245 159.667 610.013 158.736 614.432 156.876C614.664 157.186 614.936 157.535 615.246 157.922C610.594 159.899 605.594 160.946 600.593 160.946C591.29 160.946 581.987 157.457 574.893 150.363C567.799 143.27 564.194 133.85 564.194 124.547C564.194 119.663 565.125 114.778 567.102 110.243C567.489 110.476 567.838 110.747 568.148 111.057V111.057ZM572.451 103.731C570.978 105.669 569.738 107.685 568.73 109.778C568.42 109.545 568.071 109.274 567.683 108.964C568.691 106.871 569.931 104.855 571.404 102.917C571.714 103.149 572.063 103.421 572.451 103.731ZM626.294 98.8466C633.387 105.94 636.876 115.244 636.876 124.547C636.876 133.85 633.387 143.27 626.294 150.363C625.363 151.216 624.433 152.03 623.503 152.805C623.27 152.495 622.999 152.146 622.689 151.759C623.619 151.061 624.51 150.286 625.363 149.433C632.224 142.572 635.597 133.617 635.597 124.547C635.597 115.592 632.224 106.638 625.363 99.7769C618.502 92.9158 609.548 89.5434 600.593 89.5434C591.639 89.5434 582.568 92.9158 575.707 99.7769C574.854 100.707 574.002 101.676 573.149 102.684C572.839 102.374 572.529 102.103 572.218 101.87C572.994 100.862 573.885 99.8545 574.893 98.8466C581.987 91.7529 591.29 88.2642 600.593 88.2642C609.897 88.2642 619.2 91.7529 626.294 98.8466V98.8466Z" fill="#626262"/>
<path fill-rule="evenodd" clip-rule="evenodd" d="M677.229 305.728C663.739 311.078 654.319 324.102 654.319 339.453C654.319 357.943 667.925 373.061 685.718 375.503C685.795 375.115 685.834 374.689 685.834 374.223C678.043 373.177 671.181 369.572 665.832 364.339C659.552 357.943 655.599 349.221 655.599 339.453C655.599 329.8 659.552 321.079 665.832 314.683C669.088 311.427 673.042 308.752 677.345 307.007C677.345 306.542 677.306 306.116 677.229 305.728V305.728ZM685.602 304.798C683.198 305.108 680.872 305.69 678.624 306.542C678.547 306.077 678.508 305.651 678.508 305.263C680.679 304.41 682.966 303.829 685.369 303.519C685.446 303.906 685.524 304.333 685.602 304.798ZM727.001 339.453C727.001 359.571 710.72 375.851 690.718 375.851C689.478 375.851 688.237 375.774 686.997 375.619C687.075 375.231 687.113 374.805 687.113 374.34C688.276 374.495 689.478 374.572 690.718 374.572C700.37 374.572 709.092 370.618 715.488 364.339C721.768 357.943 725.722 349.221 725.722 339.453C725.722 329.8 721.768 321.079 715.488 314.683C709.092 308.287 700.37 304.449 690.718 304.449C689.4 304.449 688.121 304.488 686.881 304.565C686.803 304.178 686.726 303.751 686.648 303.286C687.966 303.209 689.323 303.17 690.718 303.17C710.72 303.17 727.001 319.451 727.001 339.453V339.453Z" fill="#626262"/>
<path d="M577.684 579.941L577.219 580.406L576.753 580.871C575.823 579.941 574.97 579.01 574.195 578.08C574.583 577.848 574.931 577.576 575.242 577.266C576.017 578.196 576.831 579.088 577.684 579.941ZM628.154 529.471C635.248 536.564 638.853 545.868 638.853 555.171C638.853 564.474 635.248 573.777 628.154 580.871C621.06 587.965 611.757 591.454 602.454 591.454C593.15 591.454 583.847 587.965 576.753 580.871L577.219 580.406L577.684 579.941C584.429 586.802 593.499 590.174 602.454 590.174C611.408 590.174 620.362 586.802 627.223 579.941C634.085 573.08 637.457 564.125 637.457 555.171C637.457 546.1 634.085 537.146 627.223 530.285C626.293 529.432 625.324 528.579 624.316 527.726C624.626 527.416 624.898 527.106 625.13 526.796C626.216 527.571 627.223 528.463 628.154 529.471V529.471ZM624.2 525.982C623.89 526.292 623.618 526.602 623.386 526.912C617.106 522.377 609.78 520.051 602.454 520.051C593.499 520.051 584.429 523.424 577.684 530.285C570.823 537.146 567.334 546.1 567.334 555.055C567.334 562.614 569.66 570.056 574.428 576.336C574.118 576.568 573.807 576.84 573.497 577.15C568.497 570.638 566.055 562.846 566.055 555.055C566.055 545.868 569.66 536.564 576.753 529.471C583.847 522.377 593.15 518.772 602.454 518.772C610.129 518.772 617.688 521.214 624.2 525.982V525.982Z" fill="#626262"/>
<path fill-rule="evenodd" clip-rule="evenodd" d="M423.715 641.226C423.25 641.304 422.823 641.381 422.436 641.459C422.591 642.699 422.668 643.94 422.668 645.18C422.668 654.948 418.714 663.67 412.318 670.066C406.039 676.346 397.2 680.3 387.548 680.3C368.128 680.3 352.429 664.601 352.429 645.18H351.149C351.149 665.298 367.43 681.579 387.548 681.579C407.667 681.579 423.947 665.298 423.947 645.18C423.947 643.862 423.87 642.544 423.715 641.226ZM352.661 641.691C352.506 642.854 352.429 644.017 352.429 645.18H351.149C351.149 643.94 351.227 642.738 351.382 641.575C351.77 641.653 352.196 641.691 352.661 641.691ZM354.522 633.435C353.669 635.683 353.088 638.009 352.777 640.412C352.39 640.412 351.963 640.373 351.498 640.296C351.808 637.893 352.351 635.567 353.126 633.318C353.592 633.396 354.057 633.435 354.522 633.435V633.435ZM423.598 639.947C423.133 640.025 422.707 640.102 422.319 640.18C421.156 632.504 417.551 625.643 412.318 620.41C406.039 614.13 397.2 610.177 387.548 610.177C377.896 610.177 369.058 614.13 362.778 620.41C359.406 623.783 356.731 627.736 354.987 632.272C354.522 632.194 354.057 632.117 353.592 632.039C358.941 618.55 372.082 608.897 387.548 608.897C405.806 608.897 421.04 622.387 423.598 639.947V639.947Z" fill="#626262"/>
<path d="M204.74 572.615C203.732 574.708 202.491 576.763 201.018 578.779C200.708 578.468 200.398 578.197 200.088 577.965C201.484 576.026 202.685 573.972 203.693 571.801C204.081 572.034 204.43 572.305 204.74 572.615ZM149.734 529.82C148.804 530.596 147.912 531.371 147.06 532.146C140.198 539.007 136.826 548.078 136.826 557.032C136.826 565.987 140.198 574.941 147.06 581.802C153.921 588.663 162.875 592.036 171.946 592.036C180.9 592.036 189.855 588.663 196.716 581.802C197.646 580.872 198.499 579.903 199.274 578.895C199.584 579.205 199.933 579.476 200.321 579.709C199.468 580.794 198.576 581.802 197.646 582.732C190.552 589.826 181.249 593.315 171.946 593.315C162.643 593.315 153.223 589.826 146.129 582.732C139.036 575.639 135.547 566.335 135.547 557.032C135.547 547.729 139.036 538.426 146.129 531.332C147.06 530.402 147.99 529.549 148.92 528.774C149.153 529.161 149.424 529.51 149.734 529.82V529.82ZM156.828 525.285C154.735 526.293 152.719 527.533 150.781 529.006C150.471 528.696 150.199 528.386 149.967 528.076C151.905 526.603 153.921 525.324 156.014 524.238C156.324 524.626 156.595 524.975 156.828 525.285V525.285ZM197.646 531.332C204.74 538.426 208.228 547.613 208.228 556.916C208.228 561.8 207.298 566.801 205.321 571.336C204.934 571.103 204.585 570.832 204.275 570.522C206.019 566.219 206.949 561.568 206.949 556.916C206.949 547.962 203.577 539.007 196.716 532.146C189.855 525.401 180.9 521.913 171.946 521.913C167.178 521.913 162.526 522.843 158.107 524.703C157.797 524.393 157.487 524.083 157.177 523.773C161.945 521.68 166.945 520.633 171.946 520.633C181.249 520.633 190.552 524.238 197.646 531.332V531.332Z" fill="#626262"/>
<path fill-rule="evenodd" clip-rule="evenodd" d="M94.0313 376.432C91.783 377.207 89.4572 377.75 87.0539 378.06C86.9764 377.673 86.9376 377.246 86.9376 376.781C89.3409 376.471 91.628 375.889 93.7987 375.037C93.8763 375.502 93.9538 375.967 94.0313 376.432V376.432ZM86.705 306.076C86.705 306.542 86.6662 306.968 86.5887 307.356C103.683 309.681 116.824 324.334 116.824 342.126C116.824 356.779 107.87 369.338 95.0779 374.572C95.1555 375.037 95.1942 375.502 95.1942 375.967C108.684 370.618 118.103 357.477 118.103 342.126C118.103 323.753 104.497 308.518 86.705 306.076V306.076ZM81.8208 305.728V306.425V305.728C61.7026 305.728 45.4219 322.008 45.4219 342.126C45.4219 362.245 61.7026 378.525 81.8208 378.525C83.1388 378.525 84.4567 378.448 85.7747 378.293C85.6972 377.828 85.6584 377.401 85.6584 377.014C84.3404 377.169 83.0612 377.246 81.8208 377.246C72.0524 377.246 63.3306 373.292 56.9346 366.896C50.6549 360.617 46.7011 351.779 46.7011 342.126C46.7011 322.706 62.4003 307.007 81.8208 307.007C82.9837 307.007 84.1466 307.084 85.3095 307.239C85.3871 306.774 85.4258 306.348 85.4258 305.96C84.2629 305.805 83.0612 305.728 81.8208 305.728V305.728Z" fill="#626262"/>
<path d="M206.368 126.524C206.368 135.828 202.879 145.131 195.786 152.225C188.692 159.202 179.389 162.807 170.202 162.807C162.527 162.807 154.735 160.481 148.339 155.597C148.572 155.287 148.843 154.977 149.153 154.667C155.317 159.318 162.759 161.528 170.202 161.528C179.156 161.528 187.994 158.039 194.855 151.294C201.716 144.433 205.089 135.479 205.089 126.524C205.089 118.966 202.763 111.523 197.995 105.36C198.305 105.049 198.654 104.778 199.042 104.546C203.926 110.941 206.368 118.733 206.368 126.524V126.524ZM195.786 100.708C196.638 101.638 197.452 102.569 198.228 103.499C197.918 103.731 197.569 104.003 197.181 104.313C196.483 103.383 195.708 102.491 194.855 101.638L195.32 101.173L195.786 100.708L195.32 101.173L194.855 101.638C187.994 94.7771 178.924 91.4047 169.969 91.4047C161.015 91.4047 152.06 94.7771 145.199 101.638C138.338 108.499 134.966 117.454 134.966 126.524C134.966 135.479 138.338 144.433 145.199 151.294C146.13 152.225 147.099 153.077 148.107 153.853C147.796 154.163 147.525 154.512 147.293 154.899C146.285 154.047 145.277 153.155 144.269 152.225C137.175 145.131 133.687 135.828 133.687 126.524C133.687 117.221 137.175 107.802 144.269 100.708C151.363 93.6142 160.666 90.1255 169.969 90.1255C179.272 90.1255 188.576 93.6142 195.786 100.708V100.708Z" fill="#626262"/>
<path fill-rule="evenodd" clip-rule="evenodd" d="M396.851 634.946C393.44 635.101 390.029 635.178 386.617 635.178V633.899C390.029 633.899 393.44 633.822 396.851 633.667V634.946ZM376.384 633.667L376.268 634.946C372.856 634.868 369.445 634.713 366.034 634.481L366.15 633.202C369.561 633.434 372.973 633.589 376.384 633.667ZM417.318 633.55C413.907 633.86 410.496 634.171 407.085 634.481L406.968 633.202C410.379 632.891 413.791 632.581 417.202 632.271L417.318 633.55ZM353.591 632.039C354.056 632.116 354.482 632.194 354.87 632.271C355.258 632.271 355.607 632.31 355.917 632.387L355.8 633.667C355.335 633.589 354.87 633.512 354.405 633.434C354.017 633.434 353.591 633.395 353.126 633.318C350.567 633.008 348.048 632.698 345.567 632.387L345.799 631.108C348.358 631.496 350.955 631.806 353.591 632.039V632.039ZM437.669 630.643C434.335 631.263 430.963 631.806 427.552 632.271L427.319 630.992C430.73 630.527 434.103 629.984 437.436 629.364L437.669 630.643ZM335.682 629.597L335.45 630.876C332.038 630.255 328.666 629.596 325.332 628.899L325.681 627.62C328.937 628.317 332.271 628.976 335.682 629.597V629.597ZM457.787 626.457C454.454 627.232 451.12 628.007 447.786 628.782L447.437 627.503C450.849 626.806 454.182 626.03 457.438 625.178L457.787 626.457ZM315.68 625.41L315.448 626.689C312.114 625.836 308.78 624.945 305.447 624.015L305.796 622.735C309.052 623.666 312.347 624.557 315.68 625.41ZM477.557 620.758C474.3 621.844 471.006 622.852 467.672 623.782L467.323 622.503C470.657 621.572 473.913 620.603 477.091 619.595L477.557 620.758ZM296.143 619.712L295.678 620.991C292.422 619.906 289.166 618.782 285.91 617.619L286.375 616.456C289.631 617.619 292.887 618.704 296.143 619.712ZM496.861 613.665C493.76 614.983 490.581 616.223 487.325 617.386L486.86 616.107C490.116 614.944 493.295 613.742 496.396 612.502L496.861 613.665ZM276.839 612.734L276.374 613.897C273.118 612.579 269.939 611.261 266.838 609.943L267.303 608.664C270.482 610.06 273.661 611.416 276.839 612.734ZM515.584 605.292C512.56 606.765 509.459 608.199 506.28 609.595L505.815 608.432C508.916 607.036 511.979 605.602 515.002 604.129L515.584 605.292ZM258.116 604.361L257.535 605.524C254.434 604.051 251.372 602.501 248.348 600.873L248.929 599.71C251.953 601.338 255.015 602.888 258.116 604.361ZM533.725 595.64C530.779 597.345 527.794 599.012 524.771 600.64L524.073 599.477C527.096 597.849 530.081 596.182 533.027 594.477L533.725 595.64ZM240.091 594.826L239.394 595.989C236.448 594.283 233.502 592.5 230.556 590.639L231.253 589.593C234.122 591.376 237.068 593.12 240.091 594.826ZM551.169 584.825C548.3 586.685 545.432 588.546 542.563 590.407L541.865 589.244C544.734 587.461 547.564 585.6 550.355 583.662L551.169 584.825ZM222.764 584.127L222.066 585.174C219.198 583.235 216.368 581.258 213.577 579.243L214.391 578.196C217.182 580.212 219.973 582.189 222.764 584.127V584.127ZM567.798 572.73C565.085 574.901 562.371 576.994 559.658 579.01L558.844 577.964C561.635 575.948 564.348 573.893 566.984 571.8L567.798 572.73ZM204.506 570.637C204.817 570.87 205.165 571.141 205.553 571.451C205.786 571.606 206.018 571.761 206.251 571.916L205.437 572.963C205.282 572.885 205.127 572.769 204.972 572.614C204.662 572.382 204.313 572.11 203.925 571.8C201.754 570.095 199.584 568.35 197.413 566.567L198.227 565.52C200.32 567.226 202.413 568.932 204.506 570.637V570.637ZM583.497 559.473C581.016 561.799 578.458 564.047 575.822 566.218L575.008 565.288C577.567 563.04 580.125 560.791 582.683 558.543L583.497 559.473ZM190.552 558.776L189.621 559.706C187.063 557.458 184.582 555.132 182.179 552.728L182.993 551.798C185.474 554.201 187.993 556.527 190.552 558.776ZM598.266 545.17C595.863 547.65 593.421 550.093 590.94 552.496L590.126 551.566C592.529 549.162 594.933 546.72 597.336 544.239L598.266 545.17ZM175.783 544.588L174.852 545.518C172.449 543.038 170.123 540.557 167.875 538.076L168.805 537.146C171.054 539.704 173.379 542.185 175.783 544.588ZM611.989 529.936C609.818 532.571 607.569 535.169 605.244 537.727L604.313 536.797C606.562 534.316 608.81 531.757 611.058 529.121L611.989 529.936ZM157.409 523.772C157.641 524.082 157.913 524.431 158.223 524.819C159.463 526.369 160.742 527.92 162.06 529.47L161.014 530.284C159.696 528.656 158.339 527.028 156.944 525.4C156.711 525.013 156.44 524.664 156.13 524.354C155.587 523.656 155.083 522.958 154.618 522.26L155.548 521.563C156.168 522.26 156.789 522.997 157.409 523.772V523.772ZM624.664 513.771C622.648 516.562 620.555 519.276 618.384 521.911L617.454 521.214C619.547 518.5 621.602 515.748 623.618 512.957L624.664 513.771ZM149.385 513.422L148.338 514.236C146.322 511.445 144.384 508.616 142.524 505.747L143.57 505.049C145.431 507.918 147.369 510.709 149.385 513.422V513.422ZM636.177 496.793C634.316 499.661 632.417 502.53 630.479 505.398L629.432 504.7C631.37 501.832 633.231 498.963 635.014 496.095L636.177 496.793ZM137.988 496.56L136.942 497.258C135.159 494.312 133.414 491.366 131.709 488.42L132.755 487.838C134.461 490.784 136.205 493.692 137.988 496.56ZM646.527 479C644.899 482.024 643.232 485.009 641.526 487.955L640.363 487.373C642.069 484.35 643.736 481.365 645.364 478.419L646.527 479ZM127.871 478.884L126.708 479.465C125.08 476.442 123.53 473.418 122.056 470.395L123.219 469.813C124.692 472.837 126.243 475.86 127.871 478.884ZM655.597 460.394C654.124 463.572 652.651 466.712 651.178 469.813L650.016 469.232C651.489 466.131 652.923 463.03 654.318 459.929L655.597 460.394ZM118.917 460.51L117.754 460.975C116.358 457.874 115.04 454.734 113.8 451.556L114.963 451.091C116.203 454.269 117.521 457.409 118.917 460.51ZM663.389 441.322C662.226 444.501 660.986 447.679 659.668 450.858L658.505 450.393C659.745 447.214 660.947 444.036 662.11 440.857L663.389 441.322ZM111.358 441.555L110.079 442.02C108.916 438.841 107.792 435.624 106.706 432.368L107.985 431.903C109.071 435.159 110.195 438.376 111.358 441.555ZM668.506 421.436L669.785 421.785C668.855 425.041 667.847 428.298 666.761 431.554L665.598 431.205C666.606 427.949 667.575 424.693 668.506 421.436ZM104.962 422.134L103.799 422.483C102.791 419.227 101.899 415.932 101.124 412.598L102.287 412.249C103.14 415.583 104.031 418.878 104.962 422.134ZM674.669 401.783C673.971 405.117 673.196 408.451 672.343 411.784L671.18 411.552C671.956 408.218 672.692 404.884 673.39 401.551L674.669 401.783ZM100.078 402.249L98.7984 402.597C98.1006 399.186 97.4417 395.814 96.8215 392.48L98.1007 392.248C98.6433 395.581 99.3023 398.915 100.078 402.249V402.249ZM678.274 381.549C677.809 384.96 677.266 388.332 676.646 391.666L675.367 391.433C675.987 388.1 676.53 384.727 676.995 381.316L678.274 381.549ZM95.5423 374.688C95.5423 375.075 95.581 375.502 95.6586 375.967C95.8911 378.06 96.1625 380.115 96.4726 382.13L95.1934 382.363C94.9608 380.347 94.6895 378.37 94.3794 376.432C94.3794 375.967 94.3406 375.54 94.2631 375.153C94.1855 374.145 94.0692 373.137 93.9142 372.129L95.1934 372.013C95.2709 372.866 95.3872 373.757 95.5423 374.688V374.688ZM680.367 361.082C680.135 364.493 679.825 367.904 679.437 371.315L678.158 371.199C678.545 367.788 678.856 364.377 679.088 360.965L680.367 361.082ZM94.3794 361.779L92.9839 361.896C92.7513 358.485 92.5962 355.073 92.5187 351.662H93.7979C93.8754 355.073 94.0693 358.446 94.3794 361.779ZM681.065 340.847C681.065 344.181 680.988 347.514 680.833 350.848H679.553C679.708 347.514 679.786 344.181 679.786 340.847V340.615H681.065V340.847ZM93.7979 330.614C93.6429 334.025 93.5653 337.436 93.5653 340.847C93.5653 341.002 93.5653 341.157 93.5653 341.312H92.2861C92.2861 341.157 92.2861 341.002 92.2861 340.847C92.2861 337.358 92.3637 333.947 92.5187 330.614H93.7979ZM680.833 330.265H679.553C679.398 326.853 679.204 323.442 678.972 320.031H680.251C680.484 323.442 680.677 326.853 680.833 330.265ZM95.1934 310.146C94.8058 313.558 94.4956 316.969 94.2631 320.38L92.9839 320.264C93.2164 316.853 93.5266 313.441 93.9142 310.03L95.1934 310.146ZM97.9844 289.912C97.3641 293.246 96.8215 296.618 96.3563 300.029L95.0771 299.797C95.6198 296.385 96.1625 293.013 96.7052 289.679L97.9844 289.912ZM678.856 305.146C678.933 305.611 679.011 306.076 679.088 306.541C679.166 307.627 679.282 308.712 679.437 309.798L678.158 309.914C678.08 308.906 677.964 307.937 677.809 307.007C677.731 306.541 677.693 306.076 677.693 305.611C677.46 303.673 677.189 301.696 676.879 299.68L678.158 299.564C678.468 301.425 678.7 303.285 678.856 305.146ZM676.53 289.447L675.251 289.679C674.708 286.268 674.088 282.896 673.39 279.562L674.669 279.329C675.367 282.663 675.987 286.036 676.53 289.447ZM102.171 269.91C101.396 273.166 100.659 276.461 99.9613 279.795L98.6821 279.562C99.3799 276.228 100.155 272.895 101.008 269.561L102.171 269.91ZM672.227 269.328L670.948 269.677C670.173 266.344 669.281 263.049 668.273 259.793L669.552 259.444C670.483 262.7 671.374 265.995 672.227 269.328ZM107.753 250.257C106.745 253.513 105.737 256.769 104.729 260.025L103.566 259.676C104.497 256.42 105.504 253.164 106.59 249.908L107.753 250.257ZM666.529 249.559L665.25 249.908C664.242 246.729 663.118 243.512 661.877 240.256L663.156 239.907C664.319 243.086 665.443 246.303 666.529 249.559ZM114.73 230.953C113.412 234.131 112.172 237.31 111.009 240.488L109.846 240.023C111.009 236.845 112.249 233.666 113.567 230.487L114.73 230.953ZM659.435 230.255L658.272 230.72C656.954 227.541 655.597 224.402 654.202 221.3L655.365 220.835C656.76 223.936 658.117 227.076 659.435 230.255ZM123.103 212.23C121.553 215.253 120.08 218.354 118.684 221.533L117.521 220.952C118.917 217.851 120.39 214.749 121.94 211.648L123.103 212.23ZM651.062 211.532L649.899 212.114C648.426 209.09 646.876 206.066 645.248 203.043L646.41 202.461C648.039 205.485 649.589 208.509 651.062 211.532ZM132.755 194.088C130.972 197.034 129.305 200.019 127.755 203.043L126.592 202.461C128.22 199.438 129.887 196.453 131.592 193.507L132.755 194.088ZM641.526 193.391L640.363 194.088C638.658 191.142 636.913 188.196 635.13 185.25L636.177 184.669C637.96 187.537 639.743 190.445 641.526 193.391ZM143.57 176.761C141.71 179.552 139.849 182.382 137.988 185.25L136.942 184.669C138.802 181.723 140.663 178.816 142.524 175.947L143.57 176.761ZM630.595 176.063L629.548 176.877C627.61 174.009 625.633 171.218 623.618 168.505L624.664 167.691C626.68 170.481 628.657 173.272 630.595 176.063ZM155.664 160.248C153.571 162.961 151.517 165.675 149.501 168.388L148.454 167.691C150.47 164.9 152.525 162.147 154.618 159.434L155.664 160.248ZM615.942 156.294C616.252 156.682 616.524 157.031 616.756 157.341C617.377 158.116 617.958 158.852 618.501 159.55L617.57 160.364C616.873 159.511 616.214 158.697 615.593 157.922C615.283 157.534 615.012 157.186 614.779 156.875C613.539 155.402 612.299 153.929 611.058 152.456L612.105 151.526C613.423 153.154 614.702 154.744 615.942 156.294V156.294ZM168.805 144.665C166.557 147.146 164.347 149.704 162.177 152.34L161.13 151.526C163.378 148.89 165.627 146.293 167.875 143.735L168.805 144.665ZM605.244 143.851L604.313 144.781C602.065 142.223 599.739 139.742 597.336 137.339L598.266 136.408C600.67 138.889 602.995 141.37 605.244 143.851ZM182.993 130.012C180.589 132.338 178.186 134.742 175.783 137.222L174.852 136.292C177.256 133.889 179.698 131.485 182.179 129.082L182.993 130.012ZM590.94 129.082L590.01 130.012C587.606 127.687 585.125 125.361 582.567 123.035L583.381 122.105C585.939 124.43 588.459 126.756 590.94 129.082V129.082ZM198.11 116.29C195.552 118.461 192.994 120.709 190.435 123.035L189.621 122.105C192.18 119.779 194.738 117.531 197.296 115.36L198.11 116.29ZM567.914 109.08C568.302 109.313 568.651 109.584 568.961 109.894C571.209 111.677 573.458 113.499 575.706 115.36L574.892 116.29C572.721 114.507 570.55 112.763 568.38 111.057C568.069 110.824 567.721 110.553 567.333 110.243C567.178 110.088 567.023 109.972 566.868 109.894L567.682 108.848C567.759 108.925 567.837 109.003 567.914 109.08ZM214.275 103.731C211.484 105.669 208.77 107.685 206.135 109.778L205.321 108.848C208.034 106.754 210.747 104.7 213.461 102.684L214.275 103.731ZM559.541 102.684L558.844 103.731C556.053 101.715 553.223 99.7381 550.355 97.7999L551.169 96.7533C553.96 98.6915 556.75 100.668 559.541 102.684V102.684ZM231.253 92.218C228.385 94.0786 225.516 95.9393 222.648 97.7999L221.95 96.7533C224.819 94.8151 227.687 92.9545 230.556 91.1713L231.253 92.218ZM542.563 91.1713L541.865 92.218C538.919 90.4348 535.973 88.6905 533.027 86.9849L533.725 85.822C536.671 87.5276 539.617 89.3107 542.563 91.1713ZM248.929 81.9844C245.906 83.6125 242.921 85.2793 239.975 86.9849L239.394 85.822C242.34 84.1164 245.324 82.4496 248.348 80.8215L248.929 81.9844ZM524.654 80.8215L524.073 81.9844C521.049 80.3563 518.026 78.8058 515.002 77.3328L515.467 76.1699C518.568 77.6429 521.631 79.1934 524.654 80.8215ZM267.187 73.03C264.086 74.4255 261.024 75.8598 258 77.3328L257.419 76.1699C260.52 74.6969 263.621 73.2626 266.722 71.8671L267.187 73.03ZM506.164 71.7508L505.583 73.03C502.482 71.6345 499.342 70.2778 496.163 68.9599L496.628 67.797C499.807 69.0374 502.986 70.3553 506.164 71.7508ZM286.142 65.3549C282.886 66.5178 279.708 67.7582 276.607 69.0762L276.025 67.9132C279.204 66.5953 282.421 65.3549 285.677 64.1919L286.142 65.3549ZM487.092 64.0757L486.627 65.2386C483.449 64.0757 480.231 62.9515 476.975 61.8661L477.324 60.7032C480.58 61.7886 483.836 62.9128 487.092 64.0757ZM305.563 58.9589C302.307 59.9667 299.051 60.9746 295.795 61.9824L295.446 60.8195C298.702 59.7341 301.958 58.7263 305.214 57.796L305.563 58.9589ZM467.439 57.6797L467.09 58.8426C463.834 57.9123 460.539 57.0595 457.206 56.2842L457.555 55.005C460.888 55.7803 464.183 56.6718 467.439 57.6797V57.6797ZM325.449 53.9584C322.115 54.6561 318.781 55.4314 315.448 56.2842L315.099 55.005C318.432 54.2297 321.766 53.4932 325.1 52.7955L325.449 53.9584ZM447.67 52.5629L447.321 53.8421C443.987 53.1443 440.654 52.4854 437.32 51.8652L437.553 50.7022C440.964 51.2449 444.336 51.8652 447.67 52.5629V52.5629ZM345.683 50.3534C342.272 50.8185 338.9 51.3612 335.566 51.9814L335.333 50.7022C338.667 50.082 342.039 49.5393 345.451 49.0742L345.683 50.3534ZM418.365 47.9113C418.83 47.9888 419.256 48.0663 419.644 48.1439C422.28 48.3764 424.877 48.6865 427.435 49.0742L427.319 50.3534C424.606 49.9657 421.892 49.6169 419.179 49.3068C418.791 49.3068 418.365 49.268 417.9 49.1905C417.667 49.1905 417.396 49.1517 417.086 49.0742L417.202 47.795C417.59 47.8725 417.977 47.9113 418.365 47.9113ZM366.034 48.2601C362.623 48.4927 359.212 48.8028 355.8 49.1905L355.684 47.9113C359.095 47.5236 362.507 47.2135 365.918 46.9809L366.034 48.2601ZM407.085 46.9809L406.968 48.2601C403.557 48.0276 400.146 47.8337 396.735 47.6787V46.3995C400.223 46.5546 403.673 46.7484 407.085 46.9809V46.9809ZM386.501 47.5624C383.09 47.5624 379.679 47.6012 376.268 47.6787V46.3995C379.679 46.322 383.09 46.2832 386.501 46.2832V47.5624Z" fill="#626262"/>
<path d="M419.761 39.888C420.227 39.9655 420.653 40.0043 421.041 40.0043C477.674 46.5166 529.54 68.6118 572.218 101.871C572.528 102.103 572.838 102.375 573.149 102.685C591.522 117.105 608.152 133.618 622.688 151.759C622.998 152.147 623.27 152.496 623.502 152.806C657.227 195.252 679.671 246.885 686.648 303.286C686.726 303.751 686.803 304.178 686.881 304.565C688.276 316.504 688.974 328.599 688.974 340.848C688.974 352.167 688.354 363.331 687.113 374.34C687.113 374.805 687.075 375.231 686.997 375.619C680.485 432.252 658.39 484.001 625.13 526.796C624.898 527.107 624.627 527.417 624.316 527.727C610.013 546.101 593.499 562.73 575.242 577.267C574.932 577.577 574.583 577.848 574.195 578.081C531.865 611.805 480.116 634.249 423.715 641.226C423.25 641.304 422.824 641.381 422.436 641.459C410.574 642.854 398.519 643.552 386.27 643.552C374.873 643.552 363.671 642.932 352.662 641.691C352.197 641.691 351.77 641.653 351.383 641.575C294.749 635.063 243 612.968 200.321 579.709C199.934 579.476 199.585 579.205 199.275 578.895C180.901 564.475 164.271 548.078 149.735 529.82C149.425 529.51 149.153 529.161 148.921 528.773C115.313 486.444 92.7525 434.694 85.775 378.293C85.6975 377.828 85.6587 377.402 85.6587 377.014C84.2633 365.153 83.4492 353.058 83.4492 340.848H84.147H84.7284C84.7284 353.02 85.4649 364.998 86.9379 376.782C86.9379 377.247 86.9767 377.673 87.0542 378.061C94.0317 434.345 116.359 485.746 149.967 528.076C150.2 528.386 150.471 528.696 150.781 529.006C157.759 537.766 165.201 546.101 173.109 554.008C181.598 562.498 190.553 570.522 200.089 577.964C200.399 578.197 200.709 578.468 201.019 578.778C243.581 611.805 295.214 633.784 351.499 640.296C351.964 640.374 352.39 640.412 352.778 640.412C363.787 641.653 374.951 642.273 386.27 642.273C398.442 642.273 410.458 641.575 422.32 640.18C422.707 640.102 423.134 640.025 423.599 639.947C479.767 633.086 531.168 610.642 573.497 577.15C573.808 576.84 574.118 576.569 574.428 576.336C583.188 569.359 591.523 561.916 599.43 554.008C607.958 545.48 615.944 536.449 623.386 526.913C623.619 526.603 623.89 526.292 624.2 525.982C657.227 483.42 679.206 431.903 685.718 375.502C685.795 375.115 685.834 374.688 685.834 374.223C687.075 363.214 687.695 352.089 687.695 340.848C687.695 328.599 686.997 316.582 685.602 304.798C685.524 304.333 685.446 303.906 685.369 303.519C678.508 247.234 656.064 195.834 622.572 153.62C622.262 153.232 621.991 152.884 621.758 152.574C614.781 143.813 607.338 135.518 599.43 127.687C590.902 119.159 581.909 111.174 572.451 103.731C572.063 103.421 571.714 103.15 571.404 102.917C528.842 69.7747 477.325 47.7957 420.924 41.2835C420.537 41.2835 420.11 41.2447 419.645 41.1672C408.636 39.9268 397.511 39.3065 386.27 39.3065C374.02 39.3065 362.004 40.043 350.22 41.5161C349.755 41.5161 349.328 41.5548 348.94 41.6323C292.656 48.6098 241.255 70.9376 199.042 104.546C198.654 104.778 198.306 105.049 197.995 105.36C189.235 112.337 180.939 119.78 173.109 127.687C164.504 136.177 156.596 145.131 149.153 154.667C148.843 154.977 148.572 155.287 148.339 155.597C115.197 198.159 93.2176 249.792 86.7054 306.077C86.7054 306.542 86.6666 306.969 86.5891 307.356C85.3486 318.365 84.7284 329.529 84.7284 340.848H84.147H83.4492C83.4492 329.451 84.0694 318.249 85.3099 307.24C85.3874 306.775 85.4262 306.348 85.4262 305.961C91.9384 249.327 114.034 197.578 147.293 154.899C147.525 154.512 147.797 154.163 148.107 153.853C162.527 135.479 179.04 118.849 197.181 104.313C197.569 104.003 197.918 103.731 198.228 103.499C240.674 69.891 292.307 47.3306 348.708 40.3532C349.173 40.2756 349.599 40.2369 349.987 40.2369C361.926 38.7639 374.02 38.0273 386.27 38.0273C397.589 38.0273 408.753 38.6476 419.761 39.888V39.888Z" fill="#626262"/>
<path d="M559.194 223.975C562.084 223.975 564.427 221.632 564.427 218.742C564.427 215.852 562.084 213.509 559.194 213.509C556.304 213.509 553.961 215.852 553.961 218.742C553.961 221.632 556.304 223.975 559.194 223.975Z" fill="#626262"/>
<path d="M497.908 148.154C506.45 148.154 513.375 141.229 513.375 132.687C513.375 124.145 506.45 117.221 497.908 117.221C489.366 117.221 482.441 124.145 482.441 132.687C482.441 141.229 489.366 148.154 497.908 148.154Z" fill="#626262"/>
<path d="M114.384 490.514C122.926 490.514 129.85 483.589 129.85 475.047C129.85 466.505 122.926 459.581 114.384 459.581C105.842 459.581 98.917 466.505 98.917 475.047C98.917 483.589 105.842 490.514 114.384 490.514Z" fill="#626262"/>
</svg>
