<svg width="129" height="41" viewBox="0 0 129 41" fill="none" xmlns="http://www.w3.org/2000/svg">
<path d="M35.7696 3.20629H26.071V15.155C26.071 18.6982 25.7218 21.6078 25.0235 23.8837C24.3511 26.1855 23.0062 27.8925 20.9889 29.0046L20.3682 27.9959C21.1958 27.5046 21.8812 26.9097 22.4243 26.2114C22.9674 25.539 23.42 24.6984 23.7821 23.6898C24.1442 22.6811 24.3899 21.4526 24.5192 20.0043C24.6744 18.556 24.7519 16.7844 24.7519 14.6895V2.00366H37.0886V28.0347H35.7696V3.20629Z" fill="#06060C"/>
<path d="M91.1297 20.9354H79.8405V28.0347H78.5215V2.00366H79.8405V19.6163H91.1297V2.00366H92.4875V28.0347H91.1297V20.9354Z" fill="#06060C"/>
<path d="M106.259 28.0347H104.94V3.20629H98.6162V2.00366H112.621V3.20629H106.259V28.0347Z" fill="#06060C"/>
<path fill-rule="evenodd" clip-rule="evenodd" d="M14.3161 28.0347H12.8419L11.2125 20.9354H3.72518L2.13461 28.0347H0.699219L6.55717 2.00366H8.41931L14.3161 28.0347ZM8.69087 9.60738L7.44945 3.98218L6.20802 9.68496L3.99675 19.5388H10.9022L8.69087 9.60738Z" fill="#06060C"/>
<path fill-rule="evenodd" clip-rule="evenodd" d="M128.101 28.0347H126.665L125.036 20.9354H117.548L115.919 28.0347H114.522L120.342 2.00366H122.204L128.101 28.0347ZM122.475 9.60738L121.234 3.98218L119.992 9.68496L117.82 19.5388H124.725L122.475 9.60738Z" fill="#06060C"/>
<path d="M0.699219 34.5912H1.24234L3.25964 37.268L5.19937 34.5912H5.7037V39.4017H5.12178V35.4058L3.25964 38.0439H3.22086L1.28114 35.4058V39.4017H0.699219V34.5912Z" fill="#06060C"/>
<path fill-rule="evenodd" clip-rule="evenodd" d="M7.37134 34.9013C7.83688 34.6297 8.3412 34.4746 8.92312 34.4746C10.2421 34.4746 10.7077 35.1729 10.7077 36.4143V39.4015H10.1258V38.6644C9.85419 39.0911 9.34986 39.4791 8.49638 39.4791C7.60411 39.4791 6.9834 38.8971 6.9834 38.0437C6.9834 37.0738 7.79809 36.5307 8.84554 36.5307C9.23348 36.5307 9.73781 36.6083 10.1258 36.8798C10.1258 35.7548 10.087 35.0177 8.88432 35.0177C8.30241 35.0177 7.95326 35.1341 7.52652 35.3668L7.37134 34.9013ZM10.1258 38.1601V37.3842C9.7766 37.1126 9.38865 36.9962 8.88432 36.9962C8.26361 36.9962 7.56532 37.2678 7.56532 38.0049C7.56532 38.5868 8.06965 38.9359 8.65157 38.9359C9.46625 38.9359 9.85419 38.548 10.1258 38.1601Z" fill="#06060C"/>
<path d="M12.2988 34.5912H15.2084V35.0955H12.8419V39.4017H12.2988V34.5912Z" fill="#06060C"/>
<path fill-rule="evenodd" clip-rule="evenodd" d="M16.1782 34.9013C16.6438 34.6297 17.1481 34.4746 17.73 34.4746C19.0878 34.4746 19.5146 35.1729 19.5146 36.4143V39.4015H18.9714V38.6644C18.6611 39.0911 18.1956 39.4791 17.3033 39.4791C16.411 39.4791 15.8291 38.8971 15.8291 38.0437C15.8291 37.0738 16.605 36.5307 17.6524 36.5307C18.0404 36.5307 18.5835 36.6083 18.9714 36.8798C18.9714 35.7548 18.8939 35.0177 17.6912 35.0177C17.1093 35.0177 16.7602 35.1341 16.3334 35.3668L16.1782 34.9013ZM18.9714 38.1601V37.3842C18.6223 37.1126 18.1956 36.9962 17.6912 36.9962C17.0705 36.9962 16.411 37.2678 16.411 38.0049C16.411 38.5868 16.8765 38.9359 17.4585 38.9359C18.3119 38.9359 18.6999 38.548 18.9714 38.1601Z" fill="#06060C"/>
<path d="M20.6787 38.8583L20.9503 38.4316C21.377 38.8196 22.0365 38.9747 22.4632 38.9747C23.3555 38.9747 23.9762 38.6256 23.9762 38.0049C23.9762 37.5005 23.5495 37.1902 22.8512 37.1902H22.0365V36.7247H22.8124C23.3555 36.7247 23.7823 36.3367 23.7823 35.8324C23.7823 35.2893 23.3167 35.0177 22.5796 35.0177C21.8813 35.0177 21.4158 35.2505 21.0667 35.522L20.8339 35.0953C21.2218 34.7073 21.9201 34.4746 22.6572 34.4746C23.7823 34.4746 24.3642 34.9401 24.3642 35.7548C24.3642 36.2203 24.1314 36.6859 23.5107 36.9186C24.209 36.9962 24.5582 37.5005 24.5582 38.0437C24.5582 38.9747 23.7435 39.5179 22.5796 39.5179C21.9201 39.5179 20.9891 39.2463 20.6787 38.8583Z" fill="#06060C"/>
<path d="M25.9541 39.4017V34.5912H26.536V38.587L29.756 34.5912H30.2991V39.4017H29.756V35.367L26.536 39.4017H25.9541Z" fill="#06060C"/>
<path d="M35.6532 37.2292H32.5109V39.4017H31.9678V34.5912H32.5109V36.6861H35.6532V34.5912H36.1964V39.4017H35.6532V37.2292Z" fill="#06060C"/>
<path d="M40.4248 34.5912H40.9679L42.9852 37.268L44.8862 34.5912H45.3905V39.4017H44.8474V35.4058L42.9852 38.0439H42.9464L41.0067 35.4058V39.4017H40.4248V34.5912Z" fill="#06060C"/>
<path fill-rule="evenodd" clip-rule="evenodd" d="M49.3085 34.4746C50.7827 34.4746 51.8301 35.522 51.8301 36.9962C51.8301 38.4316 50.7827 39.5179 49.3085 39.5179C47.7955 39.5179 46.748 38.4316 46.748 36.9962C46.748 35.522 47.7955 34.4746 49.3085 34.4746ZM49.3085 38.9747C50.4335 38.9747 51.2482 38.1601 51.2482 36.9962C51.2482 35.8324 50.4335 35.0177 49.3085 35.0177C48.1834 35.0177 47.33 35.8324 47.33 36.9962C47.33 38.1601 48.1834 38.9747 49.3085 38.9747Z" fill="#06060C"/>
<path fill-rule="evenodd" clip-rule="evenodd" d="M52.334 38.8973H52.9547C53.2651 38.5094 53.6142 37.4619 53.7306 35.949L53.8082 34.5912H56.8729V38.8973H57.6876V40.6431H57.1833V39.4017H52.8771V40.6431H52.334V38.8973ZM53.5366 38.8973H56.3298V35.0955H54.3125L54.2737 36.1429C54.1573 37.5395 53.7694 38.587 53.5366 38.8973Z" fill="#06060C"/>
<path d="M62.4599 37.2292H59.3175V39.4017H58.7744V34.5912H59.3175V36.6861H62.4599V34.5912H63.003V39.4017H62.4599V37.2292Z" fill="#06060C"/>
<path fill-rule="evenodd" clip-rule="evenodd" d="M66.883 34.4746C68.396 34.4746 69.4434 35.522 69.4434 36.9962C69.4434 38.4316 68.396 39.5179 66.883 39.5179C65.4088 39.5179 64.3613 38.4316 64.3613 36.9962C64.3613 35.522 65.4088 34.4746 66.883 34.4746ZM66.883 38.9747C68.0468 38.9747 68.8227 38.1601 68.8227 36.9962C68.8227 35.8324 68.0468 35.0177 66.883 35.0177C65.7967 35.0177 64.9432 35.8324 64.9432 36.9962C64.9432 38.1601 65.7579 38.9747 66.883 38.9747Z" fill="#06060C"/>
<path d="M70.7617 39.4016V34.5911H71.3436V38.5869L74.5636 34.5911H75.1067V39.4016H74.5636V35.367L71.3436 39.4016H70.7617ZM72.0031 32.0695C72.0031 32.5738 72.3911 33.0005 72.973 33.0005C73.5549 33.0005 73.9429 32.5738 73.9429 32.0695H74.4472C74.4472 32.8453 73.8653 33.4273 72.973 33.4273C72.0419 33.4273 71.4988 32.8453 71.4988 32.0695H72.0031Z" fill="#06060C"/>
<path d="M79.3359 34.5912H79.8791V39.4017H79.3359V34.5912ZM80.8877 36.9188L83.4482 39.4405H82.7111L80.2282 36.9188L82.5559 34.5912H83.2542L80.8877 36.9188Z" fill="#06060C"/>
<path fill-rule="evenodd" clip-rule="evenodd" d="M86.3964 34.4746C87.9094 34.4746 88.918 35.522 88.918 36.9962C88.918 38.4316 87.9094 39.5179 86.3964 39.5179C84.8834 39.5179 83.8359 38.4316 83.8359 36.9962C83.8359 35.522 84.8834 34.4746 86.3964 34.4746ZM86.3964 38.9747C87.5214 38.9747 88.3361 38.1601 88.3361 36.9962C88.3361 35.8324 87.5214 35.0177 86.3964 35.0177C85.2713 35.0177 84.4567 35.8324 84.4567 36.9962C84.4567 38.1601 85.2713 38.9747 86.3964 38.9747Z" fill="#06060C"/>
<path d="M94.3489 38.7032C93.9609 39.2463 93.2626 39.5179 92.5255 39.5179C91.0514 39.5179 90.0039 38.5092 90.0039 36.9962C90.0039 35.5996 91.0126 34.4746 92.4092 34.4746C93.1463 34.4746 93.8058 34.6297 94.2713 35.0953L93.9997 35.522C93.573 35.1341 93.0299 35.0177 92.4867 35.0177C91.4393 35.0177 90.5858 35.8324 90.5858 36.9962C90.5858 38.1988 91.4393 38.9747 92.6031 38.9747C93.2239 38.9747 93.767 38.7032 94.0773 38.3152L94.3489 38.7032Z" fill="#06060C"/>
<path d="M95.5127 34.5912H96.0558L98.0731 37.268L100.013 34.5912H100.517V39.4017H99.9353V35.4058L98.0731 38.0439H98.0343L96.0946 35.4058V39.4017H95.5127V34.5912Z" fill="#06060C"/>
<path fill-rule="evenodd" clip-rule="evenodd" d="M106.22 38.8196C105.754 39.2851 105.056 39.5179 104.435 39.5179C102.883 39.5179 101.836 38.5092 101.836 36.9962C101.836 35.5996 102.728 34.4746 104.319 34.4746C105.56 34.4746 106.491 35.328 106.491 36.6471C106.491 36.841 106.491 36.9962 106.452 37.1126H102.495C102.534 38.2764 103.31 38.9747 104.474 38.9747C105.095 38.9747 105.677 38.742 106.026 38.3928L106.22 38.8196ZM102.457 36.6471H105.948C105.909 35.6384 105.289 35.0177 104.28 35.0177C103.194 35.0177 102.573 35.716 102.457 36.6471Z" fill="#06060C"/>
<path d="M107.112 34.5912H111.535V35.1343H109.595V39.4017H109.052V35.1343H107.112V34.5912Z" fill="#06060C"/>
<path d="M112.544 39.4017V34.5912H113.126V38.587L116.346 34.5912H116.889V39.4017H116.346V35.367L113.126 39.4017H112.544Z" fill="#06060C"/>
<path d="M118.557 34.5912H119.1V39.4017H118.557V34.5912ZM120.108 36.9188L122.708 39.4405H121.932L119.449 36.9188L121.777 34.5912H122.514L120.108 36.9188Z" fill="#06060C"/>
<path d="M123.794 39.4017V34.5912H124.337V38.587L127.557 34.5912H128.1V39.4017H127.557V35.367L124.337 39.4017H123.794Z" fill="#06060C"/>
<path fill-rule="evenodd" clip-rule="evenodd" d="M71.887 14.7668C71.9258 18.6075 70.4516 22.2154 67.7748 24.9698C65.0592 27.7242 61.4901 29.2372 57.6495 29.276C57.5977 29.276 57.546 29.276 57.4943 29.276C49.6578 29.276 43.2179 22.9137 43.1403 15.0384C43.0628 7.08555 49.4638 0.568076 57.3779 0.529282C61.2186 0.451693 64.8264 1.92588 67.5809 4.64149C70.3353 7.31831 71.8482 10.9262 71.887 14.7668ZM48.0672 5.61135C45.5844 8.17179 44.2266 11.4693 44.2654 14.9996C44.343 20.974 48.3388 25.9784 53.8088 27.6078C59.5116 25.9397 63.4298 20.78 63.3523 14.7668C63.3135 8.90888 59.3952 3.82681 53.77 2.19744C51.6363 2.81816 49.6966 3.98198 48.0672 5.61135ZM57.6495 28.1509C61.1798 28.1121 64.4773 26.6767 66.9601 24.1551C69.443 21.6335 70.8008 18.2971 70.762 14.7668C70.7232 11.2365 69.3266 7.93902 66.7662 5.45618C64.2445 2.97333 60.947 1.61553 57.3779 1.65432C56.8865 1.65432 56.408 1.69311 55.9425 1.7707C61.0634 4.02078 64.4773 9.02527 64.5161 14.7668C64.5549 20.5472 61.1798 25.7069 55.9425 28.0346C56.4598 28.0863 56.977 28.1251 57.4943 28.1509C57.546 28.1509 57.5977 28.1509 57.6495 28.1509Z" fill="#06060C"/>
</svg>
