<svg width="25" height="25" viewBox="0 0 25 25" fill="none" xmlns="http://www.w3.org/2000/svg">
<path fill-rule="evenodd" clip-rule="evenodd" d="M23.2203 7.13843C23.3872 6.60968 23.2203 6.2253 22.482 6.2253H20.0272C19.408 6.2253 19.122 6.56187 18.9552 6.92187C18.9552 6.92187 17.6923 9.99687 15.9289 11.9905C15.357 12.567 15.095 12.7592 14.7852 12.7592C14.6183 12.7592 14.4036 12.567 14.4036 12.0387V7.11358C14.4036 6.48921 14.2133 6.20093 13.6887 6.20093H9.82812C9.44656 6.20093 9.20844 6.48921 9.20844 6.77749C9.20844 7.37796 10.0902 7.52233 10.1853 9.20374V12.8572C10.1853 13.6498 10.0447 13.7947 9.7325 13.7947C8.89859 13.7947 6.87313 10.6958 5.65812 7.16468C5.42188 6.4653 5.18188 6.20093 4.56219 6.20093H2.08391C1.36906 6.20093 1.25 6.53702 1.25 6.89749C1.25 7.54624 2.08391 10.813 5.13406 15.1367C7.15953 18.0898 10.0428 19.677 12.6402 19.677C14.2133 19.677 14.4036 19.3166 14.4036 18.7161V16.482C14.4036 15.7616 14.5466 15.6416 15.0472 15.6416C15.4044 15.6416 16.048 15.8333 17.5016 17.2508C19.1694 18.9322 19.4553 19.7009 20.3848 19.7009H22.8392C23.5541 19.7009 23.8878 19.3405 23.697 18.6439C23.4828 17.9473 22.6723 16.9386 21.6238 15.7376C21.0519 15.0655 20.1941 14.3206 19.932 13.9601C19.5748 13.4797 19.67 13.2875 19.932 12.8553C19.9081 12.8553 22.9109 8.57937 23.2203 7.13655" fill="#888888"/>
</svg>
