<svg width="29" height="29" viewBox="0 0 29 29" fill="none" xmlns="http://www.w3.org/2000/svg">
<path d="M14.5 15.7083C16.502 15.7083 18.125 14.0853 18.125 12.0833C18.125 10.0812 16.502 8.45825 14.5 8.45825C12.498 8.45825 10.875 10.0812 10.875 12.0833C10.875 14.0853 12.498 15.7083 14.5 15.7083Z" stroke="#F2F2F2" stroke-width="2.41667" stroke-linecap="round" stroke-linejoin="round"/>
<path d="M14.5 2.41675C11.9363 2.41675 9.4775 3.4352 7.66464 5.24805C5.85179 7.0609 4.83334 9.51965 4.83334 12.0834C4.83334 14.3696 5.31909 15.8655 6.64584 17.5209L14.5 26.5834L22.3542 17.5209C23.6809 15.8655 24.1667 14.3696 24.1667 12.0834C24.1667 9.51965 23.1482 7.0609 21.3354 5.24805C19.5225 3.4352 17.0638 2.41675 14.5 2.41675V2.41675Z" stroke="#F2F2F2" stroke-width="2.41667" stroke-linecap="round" stroke-linejoin="round"/>
</svg>
