<svg width="25" height="25" viewBox="0 0 25 25" fill="none" xmlns="http://www.w3.org/2000/svg">
<path d="M19.2569 24.6111C19.0234 24.6104 18.7906 24.5848 18.5625 24.5347C14.2199 23.6364 10.2192 21.5301 7.02084 18.4583C3.89075 15.3797 1.71986 11.4601 0.770836 7.17356C0.658935 6.63933 0.6864 6.0853 0.85059 5.56475C1.01478 5.04421 1.31017 4.57468 1.70834 4.20134L4.48611 1.52773C4.62799 1.39355 4.79657 1.29081 4.98085 1.22619C5.16512 1.16157 5.36095 1.13654 5.55556 1.15273C5.75734 1.17378 5.95206 1.23878 6.12602 1.34316C6.29999 1.44754 6.44897 1.58876 6.5625 1.7569L10.0347 6.88884C10.1649 7.08797 10.2278 7.32363 10.214 7.56116C10.2003 7.79868 10.1107 8.02552 9.95834 8.20829L8.21528 10.2916C8.90948 11.828 9.8926 13.2167 11.1111 14.3819C12.3217 15.5894 13.7527 16.5536 15.3264 17.2222L17.4861 15.5069C17.6675 15.3635 17.8882 15.2788 18.119 15.2639C18.3497 15.249 18.5795 15.3047 18.7778 15.4236L24.0208 18.8125C24.2008 18.9199 24.354 19.0666 24.4692 19.2417C24.5844 19.4168 24.6584 19.6157 24.6858 19.8234C24.7132 20.0312 24.6932 20.2424 24.6274 20.4414C24.5615 20.6403 24.4515 20.8218 24.3056 20.9722L21.5972 23.6527C21.2896 23.9589 20.9244 24.2011 20.5228 24.3656C20.1212 24.5301 19.691 24.6135 19.2569 24.6111ZM5.44445 2.52773L2.66667 5.20134C2.44268 5.41006 2.27687 5.67348 2.18555 5.9657C2.09423 6.25793 2.08054 6.56889 2.14584 6.86801C3.02828 10.8903 5.05675 14.571 7.98611 17.4652C10.996 20.3552 14.7608 22.3363 18.8472 23.1805C19.1565 23.2452 19.4771 23.2321 19.7801 23.1424C20.0831 23.0527 20.3591 22.8892 20.5833 22.6666L23.2917 19.9861L18.2292 16.7152L15.9097 18.5625C15.8209 18.6327 15.7163 18.6802 15.6049 18.7008C15.4936 18.7214 15.3789 18.7144 15.2708 18.6805C13.3449 17.9709 11.5996 16.8445 10.1597 15.3819C8.67039 13.9911 7.51432 12.2819 6.77778 10.3819C6.74662 10.2669 6.74559 10.1458 6.77477 10.0302C6.80396 9.91468 6.8624 9.8086 6.94445 9.72217L8.81945 7.47912L5.44445 2.52773Z" fill="#F2F2F2"/>
</svg>
