<svg width="32" height="32" viewBox="0 0 32 32" fill="none" xmlns="http://www.w3.org/2000/svg">
<path d="M15.8477 32C7.30503 32 0.377472 24.8352 0.377472 16C0.377472 7.1648 7.30503 0 15.8477 0C24.3903 0 31.3179 7.1648 31.3179 16C31.3179 24.8352 24.3903 32 15.8477 32Z" fill="#9E8765"/>
<path d="M19.8702 31.9998V19.6062H23.8924L24.4957 14.7774H19.8702V11.6926C19.8702 10.2942 20.2445 9.34056 22.1845 9.34056H24.6566V5.02376C24.2297 4.96616 22.76 4.83496 21.0521 4.83496C17.4877 4.83496 15.0465 7.08456 15.0465 11.219V14.7806H11.015V19.6094H15.0465V31.9998H19.8702Z" fill="white"/>
</svg>
