<svg width="32" height="32" viewBox="0 0 32 32" fill="none" xmlns="http://www.w3.org/2000/svg">
<path d="M16.3573 32C7.8147 32 0.887146 24.8352 0.887146 16C0.887146 7.1648 7.8147 0 16.3573 0C24.9 0 31.8275 7.1648 31.8275 16C31.8275 24.8352 24.9 32 16.3573 32Z" fill="#9E8765"/>
<path d="M16.3572 7.04613C19.1759 7.04613 19.51 7.05573 20.6239 7.11013C21.6542 7.15813 22.2142 7.33733 22.5855 7.48773C23.0775 7.68613 23.4302 7.92293 23.7984 8.30373C24.1666 8.68453 24.3955 9.04934 24.5874 9.55814C24.7328 9.94214 24.9029 10.5213 24.9525 11.5869C25.002 12.7389 25.0143 13.0845 25.0143 15.9997C25.0143 18.9149 25.0051 19.2605 24.9525 20.4125C24.906 21.4781 24.7328 22.0573 24.5874 22.4413C24.3955 22.9501 24.1666 23.3149 23.7984 23.6957C23.4302 24.0765 23.0775 24.3133 22.5855 24.5117C22.2142 24.6621 21.6542 24.8381 20.6239 24.8893C19.51 24.9405 19.1759 24.9533 16.3572 24.9533C13.5385 24.9533 13.2044 24.9437 12.0905 24.8893C11.0602 24.8413 10.5002 24.6621 10.1289 24.5117C9.63696 24.3133 9.28424 24.0765 8.91604 23.6957C8.54785 23.3149 8.3189 22.9501 8.12706 22.4413C7.98164 22.0573 7.81147 21.4781 7.76197 20.4125C7.71246 19.2605 7.70009 18.9149 7.70009 15.9997C7.70009 13.0845 7.70937 12.7389 7.76197 11.5869C7.80838 10.5213 7.98164 9.94214 8.12706 9.55814C8.3189 9.04934 8.54785 8.68453 8.91604 8.30373C9.28424 7.92293 9.63696 7.68613 10.1289 7.48773C10.5002 7.33733 11.0602 7.16133 12.0905 7.11013C13.2044 7.05573 13.5385 7.04613 16.3572 7.04613ZM16.3572 5.07812C13.489 5.07812 13.1301 5.09093 12.0039 5.14533C10.8808 5.19973 10.1134 5.38213 9.43894 5.65413C8.74587 5.92933 8.15491 6.30373 7.57014 6.91173C6.98227 7.51973 6.62336 8.12773 6.35109 8.84773C6.09119 9.54213 5.91173 10.3357 5.85913 11.5005C5.80653 12.6653 5.79416 13.0365 5.79416 16.0029C5.79416 18.9693 5.80653 19.3405 5.85913 20.5053C5.91173 21.6669 6.08809 22.4605 6.35109 23.1581C6.62027 23.8717 6.98227 24.4829 7.57014 25.0877C8.15801 25.6957 8.74587 26.0669 9.44203 26.3485C10.1134 26.6173 10.8808 26.8029 12.007 26.8573C13.1332 26.9117 13.4921 26.9245 16.3603 26.9245C19.2285 26.9245 19.5874 26.9117 20.7136 26.8573C21.8368 26.8029 22.6041 26.6205 23.2786 26.3485C23.9685 26.0701 24.5595 25.6957 25.1443 25.0877C25.7322 24.4797 26.0911 23.8717 26.3633 23.1517C26.6232 22.4573 26.8027 21.6637 26.8553 20.4989C26.9079 19.3341 26.9203 18.9629 26.9203 15.9965C26.9203 13.0301 26.9079 12.6589 26.8553 11.4941C26.8027 10.3325 26.6263 9.53892 26.3633 8.84132C26.0942 8.12772 25.7322 7.51653 25.1443 6.91173C24.5564 6.30373 23.9685 5.93253 23.2724 5.65093C22.601 5.38213 21.8337 5.19653 20.7074 5.14213C19.5843 5.09092 19.2254 5.07812 16.3572 5.07812Z" fill="white"/>
<path d="M16.3571 10.3901C13.3621 10.3901 10.9333 12.9021 10.9333 15.9997C10.9333 19.0973 13.3621 21.6093 16.3571 21.6093C19.3521 21.6093 21.781 19.0973 21.781 15.9997C21.781 12.9021 19.3521 10.3901 16.3571 10.3901ZM16.3571 19.6413C14.4141 19.6413 12.8361 18.0125 12.8361 15.9997C12.8361 13.9869 14.4141 12.3581 16.3571 12.3581C18.3002 12.3581 19.8781 13.9869 19.8781 15.9997C19.8781 18.0125 18.3002 19.6413 16.3571 19.6413Z" fill="white"/>
<path d="M21.9945 11.4812C22.6951 11.4812 23.263 10.8938 23.263 10.1692C23.263 9.44458 22.6951 8.85718 21.9945 8.85718C21.2939 8.85718 20.7259 9.44458 20.7259 10.1692C20.7259 10.8938 21.2939 11.4812 21.9945 11.4812Z" fill="white"/>
</svg>
