<svg width="120" height="119" viewBox="0 0 120 119" fill="none" xmlns="http://www.w3.org/2000/svg">
<g clip-path="url(#clip0)">
<path fill-rule="evenodd" clip-rule="evenodd" d="M103.137 0.0944853C101.012 0.328668 99.2738 0.906271 97.417 1.99444L96.3158 2.63981L57.9864 2.64054C16.5954 2.64127 18.1996 2.6062 14.9108 3.58348C13.1011 4.12108 10.2008 5.59723 8.69674 6.74623C0.291371 13.1671 -1.99694 24.4544 3.27967 33.4655C6.17846 38.4157 11.7115 42.3327 17.0082 43.1841C17.7617 43.3052 18.5633 43.4404 18.7893 43.4843L19.2003 43.5643V67.1252V90.6862H15.0255H10.8508L10.3674 91.1341L9.8841 91.5822V97.4362V103.29H5.69292C1.52567 103.29 1.49864 103.293 0.98917 103.731L0.476598 104.172V111.145V118.118L0.98917 118.559L1.50174 119H58.5512H115.601L116.082 118.621L116.563 118.243V111.33C116.563 107.527 116.512 104.283 116.45 104.121C116.175 103.403 115.472 103.29 111.275 103.29H107.247V97.5222V91.7541L106.713 91.2201L106.179 90.6862H102.083H97.9858L97.8819 82.877C97.8247 78.5821 97.7918 67.9575 97.8088 59.2669L97.8397 43.466L98.2963 43.4214C105.217 42.7454 111.378 38.4528 114.55 32.0966C115.461 30.2721 116.33 27.326 116.491 25.5214C116.601 24.2887 116.709 23.968 117.315 23.0716C120.143 18.8887 120.543 13.001 118.306 8.47447C117.448 6.7391 116.682 5.65952 115.386 4.36421C112.153 1.13077 107.728 -0.411693 103.137 0.0944853ZM107.247 3.24298C109.548 3.77985 111.527 4.87989 113.199 6.55168C114.634 7.98656 115.311 9.03307 115.974 10.8375C116.587 12.5082 116.648 12.885 116.642 14.9695C116.632 18.3133 115.573 20.7965 113.094 23.2934C111.798 24.5987 100.086 35.2678 92.3539 42.1873C91.2312 43.192 90.1772 44.2321 90.0117 44.4988C89.7439 44.9306 89.7109 45.8966 89.7109 53.3126C89.7109 58.4531 89.6444 61.6416 89.5373 61.6416C89.4418 61.6416 89.2955 61.539 89.212 61.4133C89.1285 61.2878 86.2241 58.3695 82.7577 54.9285C77.0626 49.2753 76.3975 48.6721 75.8592 48.6721C75.0145 48.6721 74.3666 49.3618 74.3666 50.2613C74.3666 50.9295 74.6231 51.2103 81.6765 58.2654L88.9866 65.5771L84.4136 70.1398C81.8986 72.6493 79.7804 74.7232 79.7064 74.7482C79.6326 74.7734 71.7635 66.9851 62.2196 57.4408L44.867 40.0875L49.5229 35.4291L54.1786 30.7708L57.8335 34.4204C61.9626 38.5436 62.2453 38.7184 63.2164 37.7473C63.6079 37.3559 63.7717 37.0163 63.7717 36.5967C63.7717 36.0721 63.4212 35.6488 60.8106 33.0207L57.8494 30.0397H66.5015H75.1539L75.8106 29.3447C76.1717 28.9622 77.5768 27.421 78.9331 25.9196C80.2893 24.4181 83.0063 21.4223 84.9709 19.2622C86.9357 17.1022 89.353 14.4306 90.3431 13.3255C96.3655 6.60192 97.5266 5.43758 99.0352 4.60789C100.205 3.96471 102.084 3.28299 103.137 3.12005C103.692 3.03419 106.743 3.12553 107.247 3.24298ZM92.9989 5.85279C92.9989 5.91015 91.8691 7.20418 90.4881 8.72801C86.5592 13.0635 78.8581 21.5399 77.0175 23.555C76.0996 24.5597 74.9941 25.7722 74.5604 26.2493L73.772 27.117H63.6144H53.4569L47.2887 33.2851C40.1481 40.4258 40.4154 40.0002 42.0395 41.6448L42.9583 42.5751L42.0727 43.7513C35.8738 51.9848 33.2761 60.0166 32.5352 73.2412C32.3138 77.1909 32.3262 83.0064 32.5617 85.5714C32.828 88.4753 33.2679 92.1917 33.4483 93.0609C33.542 93.513 33.7174 94.4079 33.838 95.0496C33.9636 95.7191 34.2192 96.397 34.4379 96.6403C34.8733 97.1253 41.828 100.185 42.4951 100.185C42.8852 100.185 45.5279 99.1222 48.204 97.8892C48.7343 97.6448 49.2771 97.4449 49.4102 97.4449C49.6544 97.4449 52.3947 98.5702 54.7009 99.6174C55.3885 99.9296 56.1853 100.185 56.4715 100.185C56.7579 100.185 58.3989 99.5685 60.1183 98.815C61.8378 98.0615 63.3505 97.4449 63.48 97.4449C63.6093 97.4449 65.1326 98.0615 66.8651 98.815C68.5975 99.5685 70.2569 100.185 70.5528 100.185C70.8485 100.185 71.4974 99.9789 71.9942 99.727C72.4913 99.4753 73.331 99.099 73.8606 98.8908C74.39 98.6827 75.0699 98.4023 75.3713 98.2675C75.6727 98.1327 76.4947 97.765 77.198 97.4501C79.1851 96.5603 79.1788 96.5835 78.4873 92.7209C78.2417 91.3507 77.996 89.7774 77.9409 89.2248C77.8859 88.6722 77.758 87.4803 77.6568 86.5761C77.4139 84.4074 77.1932 77.3513 77.3682 77.3513C77.4437 77.3513 77.8413 77.639 78.2522 77.9906C78.8347 78.4891 79.1593 78.6299 79.7263 78.6299C80.4369 78.6299 80.5883 78.4957 86.2736 72.8302C89.4747 69.6404 92.2562 66.7741 92.4549 66.4608C92.8036 65.9112 92.8162 65.5404 92.8162 55.866L92.8164 45.8407L93.7406 45.0448C94.2489 44.6071 94.6959 44.2801 94.7341 44.3183C94.7723 44.3563 94.7542 54.7981 94.6939 67.522L94.5843 90.6566L93.9324 90.7788C93.5736 90.8462 92.4566 90.8844 91.4499 90.8639C89.1236 90.8166 89.2427 90.7983 88.8046 91.2687C88.2807 91.831 88.3154 92.7781 88.8806 93.3431L89.3289 93.7915H96.7354H104.142V98.6323V103.473H80.956H57.7701L57.3916 103.954C56.9185 104.556 56.907 105.311 57.3622 105.873L57.7113 106.304L85.6304 106.396L113.549 106.487L113.598 111.191L113.647 115.895L110.675 115.895C102.358 115.896 4.08451 115.897 3.81032 115.896C3.51403 115.895 3.49065 115.546 3.49065 111.145V106.396H21.883H40.2751L40.698 105.999C41.2483 105.482 41.2781 104.361 40.7553 103.838C40.3966 103.48 40.1465 103.473 26.6897 103.473H12.9895V98.6323V93.7915H20.1964C25.1635 93.7915 27.5439 93.7274 27.8561 93.5851C28.8076 93.1517 28.8958 91.7418 28.0146 91.0486C27.6036 90.7253 27.2703 90.6862 24.929 90.6862H22.3042L22.3506 67.0914L22.397 43.4967L24.2237 43.179C26.5787 42.7693 27.8714 42.3227 30.3932 41.0473C32.1799 40.1436 32.6555 39.7974 34.0879 38.3582C35.7173 36.7209 35.8983 36.4549 36.8274 34.3325C37.0913 33.7297 37.3867 33.0902 37.4837 32.9111C37.7593 32.4028 38.1908 29.702 38.1946 28.4615C38.199 26.9521 37.7283 24.5644 37.1827 23.3308C36.9373 22.7761 36.7366 22.2502 36.7366 22.1623C36.7366 22.0717 45.1226 22.0023 56.0422 22.0023H75.3477L75.7706 21.6051C76.0696 21.3242 76.1933 21.0034 76.1933 20.5091C76.1933 19.4911 75.7083 19.0801 74.5036 19.0772C73.9762 19.0759 64.7079 19.0231 53.9076 18.9599L34.2705 18.845L33.4942 18.1629C30.1798 15.2508 24.7187 14.766 20.6616 17.0238C16.9145 19.1088 14.8807 23.4419 15.8052 27.3704C16.1521 28.8445 17.2327 30.9986 17.8816 31.5088C18.796 32.2281 20.1571 31.82 20.3907 30.7565C20.4895 30.3064 20.3887 29.9893 19.8829 29.1584C18.6574 27.1457 18.3834 25.5316 18.9454 23.639C19.4967 21.7822 20.8114 20.331 22.7744 19.4126C27.8058 17.0579 33.3031 20.0711 34.8346 26.0228C35.0712 26.9415 35.1157 27.6607 35.0328 29.2177C34.8997 31.7181 34.9006 31.7139 34.0928 33.3179C33.2352 35.0212 31.9671 36.4982 30.5258 37.4728C27.1665 39.7445 22.972 40.765 18.9272 40.2948C16.7865 40.046 15.4906 39.6785 13.4842 38.7515C7.40216 35.9414 3.47421 29.7276 3.49431 22.9481C3.50782 18.385 5.36046 14.098 8.81256 10.6411C9.59566 9.85691 10.2779 9.21538 10.3285 9.21538C10.3793 9.21538 10.9781 8.85497 11.6595 8.41455C13.1027 7.48147 14.687 6.78568 16.6285 6.23274C17.9979 5.84256 18.2244 5.83726 37.4673 5.74574C60.1348 5.63797 92.9989 5.70136 92.9989 5.85279ZM103.046 8.64526C101.374 9.19291 99.8956 10.4479 99.0639 12.0243C98.6184 12.8691 98.5704 13.1466 98.5704 14.8781C98.5704 16.7167 98.5963 16.844 99.1976 17.9532C100.9 21.0935 104.694 22.2555 107.879 20.6122C109.61 19.7193 110.677 18.3244 111.186 16.2904C111.45 15.2336 111.462 14.8897 111.272 13.9242C110.967 12.371 110.446 11.3435 109.457 10.3406C108.174 9.04001 107.123 8.60179 105.146 8.54388C104.242 8.5174 103.297 8.56306 103.046 8.64526ZM105.826 11.5981C106.734 11.8506 107.591 12.5997 108 13.5006C108.808 15.2793 107.977 17.2857 106.109 18.0661C104.91 18.567 103.512 18.2994 102.529 17.3811C101.021 15.9734 101.2 13.3225 102.884 12.1235C103.842 11.4412 104.705 11.287 105.826 11.5981ZM112.434 29.0807C110.939 33.0931 107.984 36.42 104.142 38.4184C102.562 39.2397 99.6645 40.2369 99.4578 40.0301C99.4112 39.9837 99.6035 39.7653 99.885 39.5448C100.167 39.3243 100.849 38.7175 101.402 38.1961C101.954 37.6748 103.676 36.0991 105.227 34.6944C106.779 33.2898 109.108 31.1747 110.403 29.9941C111.698 28.8135 112.788 27.8477 112.825 27.8477C112.863 27.8477 112.687 28.4025 112.434 29.0807ZM47.1226 46.9106L49.0082 48.8023L47.7375 50.701C44.0666 56.1864 42.211 61.4692 41.2208 69.2535C40.7487 72.9644 40.8337 73.6283 41.8477 74.1527C42.58 74.5314 42.8319 74.502 43.4713 73.964C44.0651 73.4644 44.0251 73.6348 44.4094 69.9531C44.9153 65.1074 46.1532 60.529 47.9657 56.8009C48.9539 54.7681 50.6337 51.9157 51.1894 51.327C51.2935 51.2167 52.0739 51.8659 53.2711 53.0591C54.3244 54.1089 55.1862 55.0266 55.1862 55.0988C55.1862 55.1709 54.9391 55.596 54.6371 56.0434C53.9571 57.0511 52.2915 60.2928 51.7606 61.6416C50.5219 64.7894 49.8983 67.5667 49.429 72.0242C49.1932 74.2636 49.191 74.7018 49.4133 75.2337C49.7615 76.0667 50.7088 76.4074 51.5162 75.9898C51.8207 75.8324 52.149 75.556 52.2453 75.3759C52.3417 75.1958 52.511 74.0252 52.6217 72.7748C53.1455 66.8558 54.5862 62.154 57.0904 58.1919L57.5968 57.3907L59.5475 59.3356L61.4984 61.2803L60.6322 63.0444C58.8994 66.5726 57.917 70.4843 57.6335 74.9837C57.5153 76.8577 57.5242 76.9229 57.9696 77.4406C58.5793 78.1495 59.5572 78.1782 60.2287 77.5067C60.6422 77.093 60.7135 76.819 60.8662 75.0498C61.0699 72.6906 61.4761 70.2375 61.9421 68.5522C62.3286 67.1541 63.4939 64.2211 63.7743 63.9407C63.9043 63.8107 65.5657 65.3544 69.1119 68.9006L74.2606 74.0495L74.2902 79.6734C74.3198 85.3391 74.6108 89.0335 75.3519 93.1522C75.4964 93.956 75.56 94.6645 75.4929 94.7268C75.3592 94.8514 72.8002 95.9787 71.3423 96.5552L70.4189 96.9205L67.4149 95.6087C65.7628 94.8874 64.1729 94.2267 63.8817 94.1406C63.4338 94.0082 62.8308 94.2104 59.9594 95.4551L56.5663 96.9262L55.4654 96.4737C54.8596 96.2247 53.6655 95.7163 52.8115 95.3439C50.1853 94.1985 49.5489 93.9766 49.2104 94.0882C49.031 94.1474 47.4544 94.8138 45.7069 95.5689L42.5298 96.9419L39.8615 95.7982C38.3939 95.1691 37.1174 94.5858 37.0246 94.502C36.7762 94.2773 36.3873 91.9786 35.8073 87.3068C35.3306 83.4674 35.4387 74.1434 36.0245 68.5831C36.6942 62.2238 38.071 57.1133 40.3792 52.4168C41.7218 49.685 44.7074 45.0187 45.1125 45.0187C45.1812 45.0187 46.0856 45.8699 47.1226 46.9106Z" fill="#C0A884"/>
</g>
<defs>
<clipPath id="clip0">
<rect width="119.291" height="119" fill="white" transform="translate(0.45459)"/>
</clipPath>
</defs>
</svg>
