<svg width="119" height="119" viewBox="0 0 119 119" fill="none" xmlns="http://www.w3.org/2000/svg">
<path d="M61.0536 64.945C60.8334 64.8973 60.6075 64.8888 60.3845 64.9221C58.1495 64.6619 56.4634 62.771 56.4596 60.5217C56.4596 59.4437 55.5856 58.5697 54.5077 58.5697C53.4297 58.5697 52.5557 59.4437 52.5557 60.5217C52.5615 64.2778 55.0738 67.5679 58.6956 68.562V70.5139C58.6956 71.5919 59.5696 72.4659 60.6475 72.4659C61.7255 72.4659 62.5995 71.5919 62.5995 70.5139V68.6802C66.7798 67.8052 69.621 63.9118 69.1816 59.6639C68.7412 55.4159 65.1624 52.1878 60.8915 52.1868C58.444 52.1868 56.4596 50.2025 56.4596 47.7549C56.4596 45.3074 58.444 43.323 60.8915 43.323C63.3391 43.323 65.3234 45.3074 65.3234 47.7549C65.3234 48.8329 66.1974 49.7069 67.2754 49.7069C68.3533 49.7069 69.2273 48.8329 69.2273 47.7549C69.2216 43.811 66.4586 40.4094 62.5995 39.5955V37.8189C62.5995 36.7409 61.7255 35.8669 60.6475 35.8669C59.5696 35.8669 58.6956 36.7409 58.6956 37.8189V39.7146C54.6678 40.8145 52.0754 44.725 52.6301 48.8634C53.1848 53.0017 56.716 56.0907 60.8915 56.0898C63.3067 56.0898 65.2767 58.0236 65.3206 60.4378C65.3654 62.852 63.4668 64.8573 61.0536 64.945Z" fill="#C0A884"/>
<path d="M32.5865 54.2884C32.5865 69.9211 45.2588 82.5935 60.8915 82.5935C76.5242 82.5935 89.1966 69.9211 89.1966 54.2884C89.1966 38.6557 76.5242 25.9833 60.8915 25.9833C45.2665 26.0005 32.6046 38.6633 32.5865 54.2884ZM60.8915 29.8872C74.3683 29.8872 85.2927 40.8116 85.2927 54.2884C85.2927 67.7652 74.3683 78.6896 60.8915 78.6896C47.4147 78.6896 36.4903 67.7652 36.4903 54.2884C36.5056 40.8183 47.4214 29.9025 60.8915 29.8872Z" fill="#C0A884"/>
<path d="M98.8191 87.4057L83.5285 94.6302C81.4174 90.7035 77.3677 88.2044 72.911 88.0786L58.7957 87.6907C56.5606 87.6269 54.3676 87.0607 52.3804 86.0342L50.944 85.2899C43.5899 81.4565 34.8243 81.466 27.4778 85.3146L27.5674 82.0608C27.597 80.9828 26.7478 80.085 25.6698 80.0554L10.1915 79.6294C9.11355 79.5999 8.21669 80.4491 8.18714 81.527L7.25215 115.494C7.22261 116.571 8.07182 117.469 9.14977 117.499L24.6281 117.925H24.6814C25.7394 117.925 26.6048 117.083 26.6334 116.026L26.6782 114.401L30.6993 112.248C32.2776 111.399 34.1228 111.197 35.847 111.685L59.8593 118.424C59.9013 118.437 59.9432 118.446 59.9861 118.456C61.7217 118.819 63.4906 119.001 65.2634 119C69.0186 119.002 72.7299 118.193 76.143 116.626C76.2269 116.588 76.3079 116.543 76.3851 116.492L111.201 93.9726C112.068 93.4112 112.348 92.2722 111.84 91.3725C109.255 86.7862 103.523 85.0392 98.8191 87.4057ZM11.2085 113.65L12.0357 83.5857L23.6111 83.9041L22.7838 113.97L11.2085 113.65ZM74.3845 113.139C70.1442 115.053 65.4082 115.581 60.8505 114.65L36.903 107.928C34.2077 107.166 31.3226 107.482 28.857 108.808L26.8021 109.908L27.352 89.9191C33.8636 85.5882 42.2146 85.1431 49.1494 88.7563L50.5857 89.5006C53.0961 90.7969 55.8649 91.5117 58.6889 91.5936L72.8052 91.9816C76.7701 92.0959 80.1374 94.919 80.9418 98.8038L59.9156 98.2234C58.8376 98.1938 57.9407 99.044 57.9102 100.121C57.8807 101.199 58.7309 102.097 59.8078 102.126L83.012 102.765H83.0663C84.1233 102.764 84.9877 101.922 85.0163 100.866C85.0401 100.018 84.9772 99.1689 84.8276 98.3339L100.511 90.9236C100.526 90.9169 100.541 90.9093 100.557 90.9017C102.781 89.7761 105.471 90.1526 107.301 91.8462L74.3845 113.139Z" fill="#C0A884"/>
<path d="M62.8435 20.4954V1.95194C62.8435 0.87399 61.9695 0 60.8915 0C59.8136 0 58.9396 0.87399 58.9396 1.95194V20.4954C58.9396 21.5734 59.8136 22.4473 60.8915 22.4473C61.9695 22.4473 62.8435 21.5734 62.8435 20.4954Z" fill="#C0A884"/>
<path d="M77.483 20.4954V11.7116C77.483 10.6337 76.609 9.7597 75.5311 9.7597C74.4531 9.7597 73.5791 10.6337 73.5791 11.7116V20.4954C73.5791 21.5733 74.4531 22.4473 75.5311 22.4473C76.609 22.4473 77.483 21.5733 77.483 20.4954Z" fill="#C0A884"/>
<path d="M48.2039 20.4954V11.7116C48.2039 10.6337 47.3299 9.7597 46.2519 9.7597C45.174 9.7597 44.3 10.6337 44.3 11.7116V20.4954C44.3 21.5733 45.174 22.4473 46.2519 22.4473C47.3299 22.4473 48.2039 21.5733 48.2039 20.4954Z" fill="#C0A884"/>
</svg>
