<svg width="119" height="119" viewBox="0 0 119 119" fill="none" xmlns="http://www.w3.org/2000/svg">
<g clip-path="url(#clip0)">
<path d="M105.295 83.9793C104.643 83.7088 103.891 83.8582 103.392 84.3577L84.3038 103.446C83.8043 103.945 83.6548 104.697 83.9254 105.349C84.1955 106.002 84.8328 106.427 85.5391 106.427H104.627C105.592 106.427 106.374 105.646 106.374 104.681V85.5928C106.373 84.8865 105.948 84.2496 105.295 83.9793ZM89.7552 102.934L102.88 89.8096V102.934H89.7552Z" fill="#C0A884"/>
<path d="M117.922 55.9829C117.269 55.7124 116.518 55.8618 116.018 56.3613L110.787 61.5924V26.0246C110.787 25.0598 110.005 24.2779 109.041 24.2779H95.6204L100.492 19.4064C100.493 19.4057 100.493 19.4047 100.494 19.404L105.188 14.71C106.194 13.7043 106.748 12.3665 106.748 10.9441C106.748 9.52167 106.194 8.18431 105.188 7.17816L99.7601 1.75017C98.7544 0.744475 97.4166 0.190613 95.9941 0.190613C94.5717 0.190613 93.2341 0.744475 92.2282 1.75017L87.5319 6.44649L81.8571 12.1213L69.7007 24.2777H15.484V6.99826C15.484 6.03348 14.7019 5.25161 13.7373 5.25161C6.16268 5.25207 0 11.4143 0 18.9894V93.1754C0 93.3043 0.014875 93.4298 0.0413712 93.5507C0.282626 96.7649 1.67321 99.7513 3.9972 102.018C6.48133 104.441 9.76058 105.775 13.2311 105.775H66.6041L56.5521 115.827C56.0526 116.327 55.9031 117.078 56.1735 117.731C56.4438 118.384 57.0808 118.809 57.7872 118.809H117.254C118.218 118.809 119 118.027 119 117.063V57.5966C119 56.8903 118.574 56.2532 117.922 55.9829ZM94.6988 4.22058C95.4128 3.50612 96.5761 3.50612 97.2901 4.22058L102.718 9.64881C103.433 10.363 103.433 11.5259 102.718 12.2403L99.2573 15.7015L91.2374 7.68182L94.6988 4.22058ZM88.7672 10.152L96.7869 18.1715L93.5821 21.3764L85.5628 13.3569L88.7672 10.152ZM115.507 77.2228H112.285C111.32 77.2228 110.538 78.0047 110.538 78.9695C110.538 79.9342 111.32 80.7161 112.285 80.7161H115.507V85.9796H112.285C111.32 85.9796 110.538 86.7614 110.538 87.7262C110.538 88.691 111.32 89.4729 112.285 89.4729H115.507V94.7361H112.285C111.32 94.7361 110.538 95.5179 110.538 96.4827C110.538 97.4475 111.32 98.2294 112.285 98.2294H115.507V103.493H112.285C111.32 103.493 110.538 104.275 110.538 105.239C110.538 106.204 111.32 106.986 112.285 106.986H115.507V115.317H62.0038L84.7802 92.5401C85.4624 91.8577 85.4624 90.7521 84.7802 90.07C84.7019 89.9916 84.6178 89.9238 84.5297 89.8633C83.8496 89.3976 82.9139 89.4661 82.3098 90.07L70.0974 102.283H13.2313C7.93397 102.283 3.66948 98.1469 3.50167 92.859C3.51167 92.5271 3.53747 92.198 3.57884 91.8726C3.57907 91.8708 3.5793 91.8689 3.57954 91.867C3.59906 91.7125 3.62253 91.5586 3.64926 91.4057C3.65228 91.3883 3.65554 91.3708 3.65856 91.3534C3.68296 91.217 3.71039 91.0812 3.74037 90.946C3.74874 90.9083 3.75757 90.8707 3.7664 90.8332C3.7929 90.7189 3.82149 90.6052 3.85217 90.492C3.8689 90.4307 3.88633 90.37 3.90423 90.3089C3.9298 90.2201 3.95629 90.1315 3.98442 90.0439C4.01254 89.9563 4.04252 89.8696 4.07297 89.7829C4.09412 89.7223 4.11504 89.6616 4.13781 89.6014C4.18035 89.487 4.22544 89.3739 4.27192 89.2616C4.28517 89.2293 4.29819 89.1965 4.3119 89.1642C4.37163 89.0248 4.43369 88.8869 4.49923 88.7507C4.50202 88.7449 4.50458 88.7391 4.50737 88.7333C5.87354 85.9061 8.50108 83.7983 11.6544 83.1442C11.6632 83.1424 11.672 83.1403 11.6808 83.1384C11.8254 83.1089 11.9714 83.0836 12.1183 83.0601C12.1427 83.0561 12.1671 83.0513 12.1919 83.0475C12.3247 83.0273 12.4588 83.0115 12.5929 82.9964C12.6305 82.9922 12.6679 82.9864 12.7058 82.9827C12.8353 82.9697 12.9659 82.9611 13.0965 82.9529C13.1379 82.9504 13.1793 82.946 13.2206 82.9439C13.3917 82.9353 13.5642 82.9309 13.7373 82.9309C14.7019 82.9309 15.484 82.149 15.484 81.1842V68.5198C15.484 67.555 14.7019 66.7731 13.7373 66.7731C12.7728 66.7731 11.9907 67.555 11.9907 68.5198V79.5475C9.04123 79.9205 6.30353 81.236 4.14479 83.3441C3.91771 83.5658 3.70249 83.7964 3.49284 84.0307V18.9894C3.49284 13.9363 7.17116 9.72551 11.9904 8.8939V26.0246V71.7532V71.7534C13.7371 71.7534 12.7728 71.7532 13.7373 71.7532C14.7019 71.7532 13.7371 71.7534 15.4837 71.7534V71.7532V27.7712H66.2076L51.4023 42.5768C50.7201 43.2592 50.7201 44.3648 51.4023 45.047C52.0844 45.7289 53.1903 45.7289 53.8722 45.047L71.6593 27.2597C71.6598 27.2592 71.66 27.2588 71.6605 27.2585L83.0921 15.8268L91.1114 23.8466L90.1706 24.7874C90.1699 24.7881 90.1689 24.7888 90.1682 24.7895L54.9497 60.0085L46.9303 51.9889L53.8722 45.047C54.5544 44.3646 54.5544 43.2589 53.8722 42.5768C53.1901 41.8948 52.0842 41.8948 51.4023 42.5768L43.225 50.7539C43.1813 50.7976 43.1404 50.8438 43.102 50.8912C43.0892 50.907 43.0779 50.924 43.0658 50.9405C43.0411 50.9733 43.017 51.0063 42.9944 51.0407C42.9816 51.0607 42.97 51.0811 42.9579 51.1018C42.9386 51.1343 42.92 51.1673 42.9031 51.201C42.8919 51.2229 42.8819 51.245 42.8717 51.2677C42.8561 51.3019 42.8417 51.3368 42.8285 51.3716C42.8238 51.384 42.8178 51.3956 42.8134 51.4079L39.4105 61.0476L37.0904 67.6203C37.0597 67.7077 37.0377 67.7965 37.0212 67.8859H31.2125C30.2479 67.8859 29.4658 68.6678 29.4658 69.6326C29.4658 70.5974 30.2479 71.3792 31.2125 71.3792H79.5828C80.5476 71.3792 81.3295 70.5974 81.3295 69.6326C81.3295 68.6678 80.5476 67.8859 79.5828 67.8859H44.8791L55.531 64.1258C55.5399 64.1226 55.5482 64.1181 55.5571 64.1149C55.5984 64.0996 55.6391 64.0823 55.6793 64.064C55.6954 64.0565 55.7114 64.0496 55.727 64.0419C55.7688 64.021 55.8099 63.998 55.8504 63.9733C55.8634 63.9654 55.8769 63.9582 55.8897 63.9501C55.9317 63.9231 55.9726 63.8936 56.0129 63.8625C56.0228 63.8548 56.0333 63.8481 56.0431 63.8402C56.0916 63.8011 56.1393 63.7591 56.1844 63.714L92.1271 27.7715H107.294V65.0859L82.3093 90.0707C81.6272 90.753 81.6272 91.8587 82.3093 92.5408C82.3519 92.5834 82.3963 92.6234 82.4421 92.6608C82.7623 92.9218 83.1535 93.0524 83.5444 93.0524C83.9354 93.0524 84.3268 92.9218 84.6468 92.6608C84.6926 92.6236 84.737 92.5834 84.7795 92.5408C84.7802 92.5401 84.7795 92.5408 84.7802 92.5401L115.507 61.8127V77.2228ZM51.7551 61.7537L46.752 63.5199L43.4186 60.1865L45.1848 55.1834L51.7551 61.7537Z" fill="#C0A884"/>
</g>
<defs>
<clipPath id="clip0">
<rect width="119" height="119" fill="white"/>
</clipPath>
</defs>
</svg>
