<svg width="29" height="26" viewBox="0 0 29 26" fill="none" xmlns="http://www.w3.org/2000/svg">
<path d="M11.7928 24C11.7928 24.3461 11.6898 24.6845 11.4968 24.9722C11.3038 25.26 11.0295 25.4843 10.7085 25.6168C10.3876 25.7492 10.0345 25.7839 9.69375 25.7164C9.35305 25.6488 9.04008 25.4822 8.79445 25.2374C8.54882 24.9927 8.38154 24.6809 8.31377 24.3414C8.246 24.0019 8.28078 23.6501 8.41372 23.3303C8.54665 23.0105 8.77178 22.7372 9.06061 22.5449C9.34945 22.3526 9.68902 22.25 10.0364 22.25C10.5022 22.25 10.9489 22.4344 11.2783 22.7626C11.6077 23.0908 11.7928 23.5359 11.7928 24ZM23.0838 22.25C22.7364 22.25 22.3968 22.3526 22.1081 22.5449C21.8192 22.7372 21.5941 23.0105 21.4611 23.3303C21.3282 23.6501 21.2934 24.0019 21.3611 24.3414C21.429 24.6809 21.5962 24.9927 21.8419 25.2374C22.0875 25.4822 22.4004 25.6488 22.7412 25.7164C23.0819 25.7839 23.435 25.7492 23.7559 25.6168C24.0769 25.4843 24.3512 25.26 24.5442 24.9722C24.7372 24.6845 24.8402 24.3461 24.8402 24C24.8402 23.5359 24.6551 23.0908 24.3257 22.7626C23.9963 22.4344 23.5496 22.25 23.0838 22.25ZM28.5411 6.2L25.2291 17.75C25.0614 18.3245 24.7118 18.8296 24.2326 19.19C23.7532 19.5504 23.1699 19.7469 22.5694 19.75H10.5508C9.9503 19.7469 9.36694 19.5504 8.88764 19.19C8.40835 18.8296 8.0588 18.3245 7.89111 17.75L4.57908 6.225V6.1875L3.34961 1.9375C3.33796 1.88351 3.30778 1.83525 3.26428 1.80103C3.22077 1.76681 3.16666 1.74877 3.11125 1.75H1.00359C0.803952 1.75 0.61249 1.67098 0.471325 1.53033C0.330161 1.38968 0.250854 1.19891 0.250854 1C0.250854 0.801088 0.330161 0.610322 0.471325 0.46967C0.61249 0.329018 0.803952 0.25 1.00359 0.25H3.11125C3.49399 0.251351 3.86597 0.376354 4.17135 0.606248C4.47673 0.836142 4.69903 1.15852 4.8049 1.525L5.87127 5.25H27.8135C27.9303 5.25 28.0456 5.27711 28.1501 5.32918C28.2547 5.38125 28.3455 5.45685 28.4157 5.55C28.4851 5.64156 28.5325 5.74778 28.5543 5.86046C28.576 5.97315 28.5715 6.08931 28.5411 6.2ZM26.8224 6.75H6.29782L9.3464 17.3375C9.42012 17.5995 9.57763 17.8303 9.79499 17.995C10.0123 18.1597 10.2777 18.2492 10.5508 18.25H22.5694C22.8425 18.2492 23.1079 18.1597 23.3252 17.995C23.5426 17.8303 23.7 17.5995 23.7738 17.3375L26.8224 6.75Z" fill="white"/>
</svg>
