<svg width="32" height="32" viewBox="0 0 32 32" fill="none" xmlns="http://www.w3.org/2000/svg">
<path d="M16.3377 32C24.8816 32 31.8079 24.8366 31.8079 16C31.8079 7.16344 24.8816 0 16.3377 0C7.79374 0 0.867493 7.16344 0.867493 16C0.867493 24.8366 7.79374 32 16.3377 32Z" fill="#9E8765"/>
<path fill-rule="evenodd" clip-rule="evenodd" d="M15.7534 23.0173H16.9676C16.9676 23.0173 17.3344 22.9757 17.5217 22.7669C17.694 22.5752 17.6885 22.2153 17.6885 22.2153C17.6885 22.2153 17.6648 20.5302 18.421 20.2821C19.1664 20.0377 20.1236 21.9107 21.1381 22.6308C21.9053 23.1759 22.4883 23.0564 22.4883 23.0564L25.2011 23.0173C25.2011 23.0173 26.6202 22.9269 25.9473 21.7729C25.8922 21.6785 25.5554 20.9193 23.9303 19.3591C22.2294 17.7263 22.4571 17.9904 24.5061 15.1659C25.754 13.4458 26.2529 12.3956 26.097 11.9458C25.9484 11.5174 25.0306 11.6307 25.0306 11.6307L21.9762 11.6503C21.9762 11.6503 21.7498 11.6184 21.5818 11.7222C21.4178 11.824 21.3121 12.0613 21.3121 12.0613C21.3121 12.0613 20.8287 13.3924 20.184 14.5244C18.8239 16.9131 18.28 17.0392 18.0578 16.8909C17.5407 16.5452 17.6698 15.5022 17.6698 14.7612C17.6698 12.4464 18.0092 11.4812 17.0087 11.2314C16.6767 11.1484 16.4324 11.0936 15.5833 11.0848C14.4934 11.0731 13.571 11.0882 13.0487 11.3529C12.7012 11.5288 12.4331 11.921 12.5964 11.9435C12.7983 11.9715 13.2555 12.071 13.4979 12.4124C13.8109 12.8528 13.7999 13.8419 13.7999 13.8419C13.7999 13.8419 13.9797 16.5669 13.3799 16.9054C12.9681 17.1376 12.4034 16.6636 11.1908 14.4965C10.5695 13.3864 10.1004 12.1594 10.1004 12.1594C10.1004 12.1594 10.0099 11.9301 9.84862 11.8075C9.65282 11.6589 9.37926 11.6115 9.37926 11.6115L6.47677 11.6312C6.47677 11.6312 6.04105 11.6438 5.8811 11.8397C5.73881 12.014 5.8698 12.3745 5.8698 12.3745C5.8698 12.3745 8.14215 17.8729 10.7151 20.6437C13.0743 23.1842 15.7534 23.0173 15.7534 23.0173Z" fill="white"/>
</svg>
