<svg width="62" height="18" viewBox="0 0 62 18" fill="none" xmlns="http://www.w3.org/2000/svg">
<path d="M61.8671 7.50073C62.5721 4.12628 60.457 0.00195312 55.8743 0.00195312H43.8887C44.2412 3.93881 47.4139 7.50073 50.7628 7.50073" fill="#01ABE0"/>
<path d="M0 0.00292921H5.81655C6.34532 0.00292921 7.93165 -0.18454 8.63669 2.44003C9.16547 4.12726 9.8705 6.75183 10.9281 10.6887H11.2806C12.3381 6.56436 13.2194 3.75232 13.5719 2.44003C14.277 -0.18454 16.0396 0.00292921 16.7446 0.00292921H22.2086V18H16.5683V7.31424H16.2158L13.2194 18H8.98921L5.9928 7.31424H5.46403V18H0M24.5 0.00292921H30.1403V10.6887H30.6691L34.3705 1.87762C35.0755 0.190399 36.6619 0.00292921 36.6619 0.00292921H41.9496V18H36.3093V7.31424H35.9568L32.2554 16.1253C31.5504 17.8125 29.7878 18 29.7878 18H24.5M49.5288 12.5634V18H44.241V8.62653H61.5144C60.8093 10.8762 58.3417 12.5634 55.5216 12.5634" fill="#4DB45E"/>
</svg>
