<svg width="207" height="60" viewBox="0 0 207 60" fill="none" xmlns="http://www.w3.org/2000/svg">
<path d="M2.5067 57.784H3.34743C4.19376 57.784 4.81355 57.6483 5.20721 57.3762C5.60044 57.104 5.79727 56.6931 5.79727 56.1431C5.79727 55.5988 5.59786 55.2068 5.19903 54.9665C4.80019 54.7266 4.11538 54.6069 3.145 54.6069H2.5067V57.784ZM2.5067 52.553H3.49301C5.0345 52.553 6.22582 52.8661 7.06699 53.4915C7.90772 54.1164 8.32809 55.0005 8.32809 56.1431C8.32809 58.6066 6.70003 59.8379 3.44434 59.8379H0V48.0176H7.47099V50.0878H2.5067V52.553Z" fill="#6F7D8C"/>
<path d="M16.3485 54.9224C15.556 52.3732 15.1103 50.9309 15.0103 50.5967C14.9108 50.2633 14.8393 49.9989 14.7963 49.8047C14.618 50.4946 14.1089 52.2005 13.2681 54.9224H16.3485ZM17.8039 59.8377L16.9472 57.0245H12.6376L11.7805 59.8377H9.07998L13.2522 47.9691H16.3162L20.5044 59.8377H17.8039Z" fill="#6F7D8C"/>
<path d="M31.5491 59.8377H28.6866L25.9379 55.3669L23.1887 59.8377L20.5044 59.8377L24.4257 53.7424L20.7552 48.0178H23.5203L26.0671 52.2708L28.5656 48.0178H31.2661L27.5552 53.8793L31.5491 59.8377Z" fill="#6F7D8C"/>
<path d="M33.0368 48.0177H35.2928V53.7258L35.2605 55.2534L35.1796 56.9921H35.2282L40.6857 48.0177H43.6855V59.8375H41.4536V54.1625C41.4536 53.4024 41.5023 52.2762 41.5992 50.783H41.5342L36.0526 59.8375H33.0368V48.0177Z" fill="#6F7D8C"/>
<path d="M56.0231 59.8377H53.5246V50.1036H50.6303L50.5011 51.1867C50.1668 53.9418 49.8718 55.8746 49.6155 56.9879C49.3593 58.1012 48.9863 58.8838 48.4957 59.3368C48.0051 59.7895 47.3423 60.01 46.5067 59.9997C46.0541 59.9997 45.6548 59.9402 45.3102 59.8218V57.7679C45.6229 57.876 45.9167 57.9294 46.1914 57.9294C46.477 57.9294 46.7036 57.7993 46.8707 57.5379C47.0378 57.2769 47.1954 56.7916 47.3436 56.0827C47.4917 55.3742 47.6881 54.2122 47.9336 52.5976C48.1791 50.9835 48.3876 49.4567 48.5603 48.0178H56.0231V59.8377Z" fill="#6F7D8C"/>
<path d="M61.5131 57.784H62.3543C63.2002 57.784 63.82 57.6483 64.2141 57.3762C64.6073 57.104 64.8041 56.6931 64.8041 56.1431C64.8041 55.5988 64.6043 55.2068 64.2055 54.9665C63.8066 54.7266 63.1222 54.6069 62.1519 54.6069H61.5131V57.784ZM67.3345 56.1431C67.3345 58.6066 65.7069 59.8379 62.4512 59.8379H59.0069V48.0176H61.5131V52.553H62.4999C64.0414 52.553 65.2327 52.8661 66.0734 53.4915C66.9146 54.1164 67.3345 55.0005 67.3345 56.1431Z" fill="#6F7D8C"/>
<path d="M79.2605 59.8377H76.762V54.7364H72.0807V59.8377H69.574V48.0178H72.0807V52.6506H76.762V48.0178H79.2605V59.8377Z" fill="#6F7D8C"/>
<path d="M88.0247 54.9224C87.2327 52.3732 86.7865 50.9309 86.6865 50.5967C86.5871 50.2633 86.5156 49.9989 86.4725 49.8047C86.2946 50.4946 85.7851 52.2005 84.9443 54.9224H88.0247ZM89.4801 59.8377L88.6234 57.0245H84.3138L83.4567 59.8377H80.7562L84.9284 47.9691H87.9924L92.1806 59.8377H89.4801Z" fill="#6F7D8C"/>
<path d="M99.1991 50.0714H97.9616C97.3152 50.0714 96.8134 50.1877 96.4581 50.4189C96.1023 50.6506 95.9244 51.0365 95.9244 51.5749C95.9244 52.0981 96.0967 52.5103 96.4417 52.8122C96.7867 53.1141 97.3152 53.2653 98.0267 53.2653H99.1991V50.0714ZM97.6468 55.3024L94.8817 59.8378H92.1002L95.4636 54.6391C94.7951 54.3695 94.283 53.9535 93.9272 53.3902C93.5715 52.8268 93.3936 52.1627 93.3936 51.397C93.3936 50.3139 93.7778 49.4801 94.5457 48.8956C95.3141 48.3099 96.4176 48.0175 97.8566 48.0175H101.705V59.8378H99.1991V55.3024H97.6468Z" fill="#6F7D8C"/>
<path d="M118.62 59.8377H115.774L111.488 53.847V59.8377H108.982V48.0178H111.488V53.7424L115.725 48.0178H118.394L114.084 53.6933L118.62 59.8377Z" fill="#6F7D8C"/>
<path d="M122.21 53.9117C122.21 55.2322 122.46 56.227 122.962 56.895C123.463 57.5634 124.212 57.8972 125.209 57.8972C127.209 57.8972 128.209 56.569 128.209 53.9117C128.209 51.2489 127.215 49.9181 125.226 49.9181C124.228 49.9181 123.476 50.2536 122.97 50.9241C122.463 51.5955 122.21 52.5913 122.21 53.9117ZM130.836 53.9117C130.836 55.8683 130.352 57.3718 129.381 58.4235C128.411 59.4739 127.02 59.9997 125.209 59.9997C123.398 59.9997 122.008 59.4739 121.037 58.4235C120.067 57.3718 119.582 55.8627 119.582 53.8954C119.582 51.9289 120.068 50.4258 121.041 49.3883C122.014 48.3508 123.409 47.8323 125.226 47.8323C127.042 47.8323 128.431 48.3551 129.394 49.4004C130.356 50.4456 130.836 51.95 130.836 53.9117Z" fill="#6F7D8C"/>
<path d="M138.291 59.8377L135.445 50.5644H135.373C135.475 52.4512 135.526 53.7096 135.526 54.3406V59.8377H133.286V48.0178H136.698L139.496 57.0569H139.544L142.512 48.0178H145.924V59.8377H143.587V54.2437C143.587 53.9793 143.591 53.6743 143.599 53.3302C143.607 52.9848 143.644 52.0683 143.708 50.5808H143.635L140.588 59.8377H138.291Z" fill="#6F7D8C"/>
<path d="M158.254 59.8377H155.756V50.1036H151.406V59.8377H148.899V48.0178H158.254V59.8377Z" fill="#6F7D8C"/>
<path d="M167.018 54.9224C166.226 52.3732 165.78 50.9309 165.681 50.5967C165.58 50.2633 165.509 49.9989 165.466 49.8047C165.288 50.4946 164.779 52.2005 163.938 54.9224H167.018ZM168.474 59.8377L167.617 57.0245H163.307L162.451 59.8377H159.75L163.922 47.9691H166.986L171.174 59.8377H168.474Z" fill="#6F7D8C"/>
<path d="M182.348 59.8377H179.849V54.7364H175.168V59.8377H172.662V48.0178H175.168V52.6506H179.849V48.0178H182.348V59.8377Z" fill="#6F7D8C"/>
<path d="M185.332 48.0177H187.587V53.7258L187.555 55.2534L187.474 56.9921H187.523L192.98 48.0177H195.98V59.8375H193.748V54.1625C193.748 53.4024 193.797 52.2762 193.894 50.783H193.829L188.347 59.8375H185.332V48.0177Z" fill="#6F7D8C"/>
<path d="M204.494 50.0714H203.257C202.61 50.0714 202.109 50.1877 201.753 50.4189C201.397 50.6506 201.219 51.0365 201.219 51.5749C201.219 52.0981 201.392 52.5103 201.737 52.8122C202.081 53.1141 202.61 53.2653 203.321 53.2653H204.494V50.0714ZM202.942 55.3024L200.176 59.8378H197.395L200.758 54.6391C200.09 54.3695 199.578 53.9535 199.222 53.3902C198.867 52.8268 198.689 52.1627 198.689 51.397C198.689 50.3139 199.072 49.4801 199.84 48.8956C200.609 48.3099 201.712 48.0175 203.151 48.0175H207V59.8378H204.494V55.3024H202.942Z" fill="#6F7D8C"/>
<path d="M20.4739 0.160175L17.5453 7.0527H22.6557V39.2177H30.9109V0.160175H20.4739Z" fill="#1A66FF"/>
<path d="M62.4048 39.2179H39.9091V0.16035H62.4048V6.94607H48.1911V15.5217H61.4163V22.3074H48.1911V32.3787H62.4048V39.2179Z" fill="#323A44"/>
<path d="M78.8357 18.5404H81.5607C84.1079 18.5404 86.0134 18.0374 87.2783 17.0309C88.5429 16.0248 89.1752 14.5597 89.1752 12.6363C89.1752 10.6952 88.645 9.2615 87.5854 8.33512C86.5255 7.40917 84.8647 6.94619 82.6026 6.94619H78.8357V18.5404ZM97.5377 12.3421C97.5377 16.5459 96.2241 19.7605 93.5968 21.9862C90.9695 24.2128 87.2335 25.3261 82.389 25.3261H78.8357V39.218H70.5537V0.160041H83.0303C87.7681 0.160041 91.3705 1.17988 93.8375 3.21913C96.3042 5.2588 97.5377 8.2998 97.5377 12.3421Z" fill="#323A44"/>
<path d="M112.333 22.2005V32.3787H117.73C120.009 32.3787 121.693 31.9428 122.78 31.0699C123.865 30.1973 124.409 28.8618 124.409 27.0624C124.409 23.8212 122.093 22.2005 117.462 22.2005H112.333ZM112.333 15.628H117.142C119.386 15.628 121.011 15.2813 122.018 14.5866C123.024 13.892 123.527 12.7433 123.527 11.1399C123.527 9.6442 122.98 8.57139 121.885 7.92107C120.789 7.27118 119.057 6.94602 116.687 6.94602H112.333V15.628ZM104.05 0.160307H116.207C121.746 0.160307 125.767 0.948442 128.27 2.52428C130.772 4.10055 132.023 6.60751 132.023 10.0447C132.023 12.3781 131.475 14.2929 130.381 15.7886C129.284 17.2848 127.829 18.1841 126.012 18.4868V18.7543C128.488 19.3064 130.273 20.3396 131.369 21.853C132.464 23.3672 133.012 25.3794 133.012 27.8906C133.012 31.4532 131.725 34.2315 129.151 36.2259C126.577 38.2208 123.082 39.2178 118.665 39.2178H104.05V0.160307Z" fill="#323A44"/>
<path d="M159.916 22.9752C157.298 14.5508 155.823 9.78667 155.494 8.68241C155.164 7.57859 154.928 6.70518 154.786 6.06391C154.199 8.3439 152.515 13.981 149.736 22.9752H159.916ZM164.725 39.2177L161.893 29.9207H147.652L144.821 39.2177H135.897L149.683 0H159.809L173.648 39.2177H164.725Z" fill="#323A44"/>
<path d="M198.561 6.94602H194.474C192.337 6.94602 190.68 7.32889 189.505 8.09464C188.329 8.86081 187.741 10.1343 187.741 11.9147C187.741 13.6426 188.311 15.0048 189.451 16.0023C190.591 16.9997 192.337 17.4984 194.688 17.4984H198.561V6.94602ZM193.432 24.2307L184.294 39.2178H175.104L186.219 22.0399C184.01 21.1497 182.318 19.7737 181.142 17.9123C179.966 16.0514 179.379 13.8566 179.379 11.3273C179.379 7.74751 180.648 4.99119 183.186 3.05875C185.724 1.12631 189.371 0.160307 194.127 0.160307H206.844V39.2178H198.561V24.2307H193.432Z" fill="#323A44"/>
<path d="M14.9334 0.160172H0.000427246V39.2177H8.28243V7.0527H12.0046L14.9334 0.160172Z" fill="#323A44"/>
</svg>
