<svg width="106" height="106" viewBox="0 0 106 106" fill="none" xmlns="http://www.w3.org/2000/svg">
<path fill-rule="evenodd" clip-rule="evenodd" d="M59.6961 2.27183L66.4285 7.33056C68.2698 8.71406 70.2078 9.42211 72.5043 9.55046L80.9006 10.0193C85.9283 10.3 90.0118 13.7393 91.1601 18.6611L93.0783 26.8803C93.6027 29.1281 94.634 30.9211 96.3111 32.501L102.443 38.2782C106.115 41.7372 107.04 47.0068 104.769 51.518L100.975 59.0518C99.9374 61.1123 99.5792 63.1511 99.8521 65.4435L100.85 73.8256C101.448 78.8447 98.7826 83.4784 94.1539 85.4684L86.4234 88.7919C84.3092 89.7008 82.7293 91.0315 81.4706 92.9636L76.8677 100.029C74.1117 104.259 69.1028 106.089 64.2828 104.627L56.233 102.185C54.0315 101.517 51.9691 101.517 49.7674 102.185L41.7176 104.627C36.8977 106.089 31.8887 104.259 29.1327 100.029L24.5299 92.9636C23.2709 91.0315 21.691 89.7008 19.577 88.7919L11.8461 85.468C7.21738 83.478 4.55213 78.8442 5.14971 73.8252L6.14788 65.443C6.42083 63.1506 6.06264 61.1118 5.02516 59.0513L1.23145 51.5175C-1.04004 47.0066 -0.114529 41.737 3.55706 38.2777L9.68895 32.5005C11.366 30.9206 12.397 29.1277 12.9215 26.8798L14.8397 18.6606C15.988 13.7391 20.0715 10.2997 25.0992 10.0189L33.4955 9.55002C35.792 9.42189 37.73 8.71362 39.5713 7.33012L46.3037 2.27139C50.3345 -0.757202 55.665 -0.757202 59.6961 2.27183ZM48.7052 55.457L41.3992 48.1229C39.5055 46.222 36.4339 46.222 34.5405 48.1229C32.6468 50.0239 32.6468 53.107 34.5405 55.0079L45.2865 65.7948C47.1801 67.6955 50.2517 67.6957 52.1452 65.7948C58.6222 59.2927 65.026 52.7177 71.4732 46.1859C73.3532 44.2812 73.3472 41.2079 71.4522 39.3163C69.557 37.4242 66.4865 37.4296 64.6046 39.3376L48.7052 55.457ZM52.9998 16.307C43.0267 16.307 33.9975 20.3651 27.4617 26.9259C20.9259 33.487 16.8833 42.5506 16.8833 52.5619C16.8833 62.5731 20.9259 71.637 27.4617 78.1978C33.9975 84.7586 43.0267 88.8167 52.9998 88.8167C62.9729 88.8167 72.0021 84.7586 78.5379 78.1978C85.0737 71.637 89.1163 62.5731 89.1163 52.5619C89.1163 42.5506 85.0737 33.4868 78.5379 26.9259C72.0021 20.3651 62.9729 16.307 52.9998 16.307ZM76.0396 29.4338C70.1433 23.515 61.9974 19.8539 52.9998 19.8539C44.0021 19.8539 35.8562 23.515 29.96 29.4338C24.0637 35.3526 20.4166 43.5298 20.4166 52.5619C20.4166 61.594 24.0637 69.7711 29.96 75.6899C35.8562 81.6088 44.0021 85.2698 52.9998 85.2698C61.9974 85.2698 70.1433 81.6088 76.0396 75.6901C81.9359 69.7713 85.5827 61.5942 85.5827 52.5621C85.5829 43.5298 81.9359 35.3526 76.0396 29.4338Z" fill="#00817E"/>
<path fill-rule="evenodd" clip-rule="evenodd" d="M41.3992 48.119L48.7052 55.4531L64.6046 39.3336C66.4866 37.4256 69.557 37.4203 71.4522 39.3123C73.3472 41.2039 73.3532 44.2773 71.4732 46.182C69.0731 48.6135 66.6791 51.051 64.2851 53.4886C60.2481 57.5989 56.2111 61.7093 52.1452 65.7909C50.2517 67.6918 47.1802 67.6916 45.2865 65.7909L34.5405 55.0039C32.6469 53.103 32.6469 50.0199 34.5405 48.119C36.4339 46.2181 39.5055 46.2181 41.3992 48.119ZM52.9998 19.85C61.9974 19.85 70.1433 23.511 76.0396 29.4299C81.9359 35.3487 85.5829 43.5258 85.5827 52.5582C85.5827 61.5903 81.9359 69.7674 76.0396 75.6862C70.1433 81.6048 61.9974 85.2659 52.9998 85.2659C44.0021 85.2659 35.8562 81.6048 29.96 75.686C24.0637 69.7671 20.4166 61.59 20.4166 52.5579C20.4166 43.5258 24.0637 35.3487 29.96 29.4299C35.8562 23.511 44.0021 19.85 52.9998 19.85Z" fill="#00B8B3"/>
</svg>
