<svg width="93" height="93" viewBox="0 0 93 93" fill="none" xmlns="http://www.w3.org/2000/svg">
<g clip-path="url(#clip0_1_366)">
<path d="M54.9578 0H38.0432L35.125 17.5102H57.8762L54.9578 0Z" fill="#00817E"/>
<path d="M87.0241 1.86272C86.6534 0.750357 85.612 0 84.4394 0H60.4824L63.4007 17.5102H92.2397L87.0241 1.86272Z" fill="#00817E"/>
<path d="M58.3678 22.9609H34.6328V40.4711H58.3678V22.9609Z" fill="#00B9B4"/>
<path d="M63.8165 22.9609V40.4707H81.7141V58.3687H11.2859V40.4707H29.1835V22.9609H0V37.7465C0 39.2512 1.2199 40.4709 2.72461 40.4709H5.83666V61.0935V88.4605V90.277C5.83666 91.7815 7.05656 93.0016 8.56127 93.0016H84.4387C85.9434 93.0016 87.1633 91.7815 87.1633 90.277V88.4605V61.0935V40.4709H90.2754C91.7801 40.4709 93 39.2512 93 37.7465V22.9609H63.8165Z" fill="#00B9B4"/>
<path d="M8.56032 0C7.38765 0 6.34649 0.750357 5.97558 1.86291L0.759766 17.5102H29.5988L32.5173 0H8.56032Z" fill="#00817E"/>
</g>
<defs>
<clipPath id="clip0_1_366">
<rect width="93" height="93" fill="white"/>
</clipPath>
</defs>
</svg>
