<svg width="111" height="111" viewBox="0 0 111 111" fill="none" xmlns="http://www.w3.org/2000/svg">
<g clip-path="url(#clip0_1_390)">
<path d="M55.5 39.6445C63.163 39.6445 69.375 33.4325 69.375 25.7695C69.375 18.1066 63.163 11.8945 55.5 11.8945C47.837 11.8945 41.625 18.1066 41.625 25.7695C41.625 33.4325 47.837 39.6445 55.5 39.6445Z" fill="#00817E"/>
<path d="M35.6785 74.8461L28.7232 81.5497C28.2505 82.0058 28.0344 82.6665 28.1464 83.3138L29.7915 92.8638C29.8606 93.2391 29.7079 93.6208 29.3991 93.845C29.0903 94.0692 28.6801 94.0962 28.3446 93.9143L19.7024 89.395C19.1293 89.1044 18.452 89.1044 17.8789 89.395L9.23673 93.9143C8.90119 94.0962 8.49106 94.0692 8.18223 93.845C7.8734 93.6208 7.72075 93.2391 7.78976 92.8638L9.45476 83.3297C9.55655 82.6798 9.33454 82.0212 8.86012 81.5656L1.9028 74.8461C1.63748 74.5831 1.54257 74.1933 1.6573 73.8378C1.77204 73.4823 2.07692 73.2215 2.4459 73.1633L12.091 71.7758C12.7332 71.687 13.2898 71.2863 13.5776 70.7054L17.8987 62.0434C18.0643 61.7015 18.4108 61.4844 18.7907 61.4844C19.1706 61.4844 19.517 61.7015 19.6826 62.0434L24.0037 70.7054C24.2915 71.2863 24.8482 71.687 25.4903 71.7758L35.1354 73.1633C35.5044 73.2215 35.8093 73.4823 35.924 73.8378C36.0387 74.1933 35.9438 74.5831 35.6785 74.8461V74.8461Z" fill="#00817E"/>
<path d="M23.7852 31.715C23.7847 39.4616 26.6295 46.9386 31.7791 52.7257C32.3003 46.1878 36.1779 40.389 42.0209 37.4097C35.789 30.2121 36.3073 19.3892 43.1985 12.8201C50.0897 6.25104 60.925 6.25104 67.8162 12.8201C74.7075 19.3892 75.2258 30.2121 68.9939 37.4097C74.8309 40.3932 78.7026 46.191 79.2217 52.7257C88.5804 42.1608 89.8283 26.6816 82.283 14.7539C74.7377 2.82617 60.2163 -2.67753 46.6607 1.25284C33.1051 5.18321 23.7799 17.6011 23.7852 31.715V31.715Z" fill="#00B9B4"/>
<path d="M55.4992 63.4278C62.7096 63.43 69.7038 60.9659 75.3206 56.4447V54.2901C75.3287 48.1069 71.5214 42.5596 65.7488 40.3438C59.6082 44.6942 51.3902 44.6942 45.2495 40.3438C39.4769 42.5596 35.6697 48.1069 35.6777 54.2901V56.4368C41.2946 60.9587 48.2882 63.4254 55.4992 63.4278Z" fill="#00817E"/>
<path d="M77.852 84.7415C78.1223 84.4783 78.2197 84.0843 78.1032 83.7255C77.9866 83.3666 77.6764 83.105 77.303 83.0508L63.8938 81.1241C63.2494 81.0316 62.6915 80.6286 62.4012 80.0458L56.3973 67.9865C56.2297 67.6501 55.8862 67.4375 55.5103 67.4375C55.1345 67.4375 54.791 67.6501 54.6233 67.9865L48.5916 80.0538C48.3008 80.6344 47.7439 81.0358 47.1011 81.1281L33.7216 83.0528C33.3468 83.1065 33.0354 83.369 32.919 83.7293C32.8027 84.0897 32.9019 84.4848 33.1745 84.7475L42.8434 94.0636C43.3161 94.5197 43.5322 95.1804 43.4202 95.8277L41.1328 109.017C41.0678 109.388 41.219 109.764 41.5231 109.987C41.8272 110.21 42.2314 110.241 42.5659 110.067L54.6015 103.812C55.1743 103.514 55.8562 103.514 56.429 103.812L68.4626 110.067C68.7972 110.241 69.2014 110.21 69.5055 109.987C69.8095 109.764 69.9608 109.388 69.8957 109.017L67.6083 95.8118C67.4964 95.1645 67.7124 94.5038 68.1851 94.0477L77.852 84.7415ZM57.2833 80.4066L53.8344 87.3025C53.5436 87.8831 52.9867 88.2845 52.3438 88.3768L44.889 89.4491C44.7945 89.4631 44.6991 89.4704 44.6036 89.4709C43.5629 89.4719 42.6987 88.6679 42.6246 87.6299C42.5505 86.5918 43.2918 85.6733 44.3221 85.5265L50.7542 84.6008L53.7274 78.6326C54.046 77.9988 54.6786 77.5831 55.3868 77.5422C56.0951 77.5013 56.7713 77.8413 57.1609 78.4342C57.5504 79.0271 57.5941 79.7827 57.2754 80.4165L57.2833 80.4066Z" fill="#00817E"/>
<path d="M75.2422 74.8501L82.1975 81.5537C82.6703 82.0098 82.8863 82.6705 82.7743 83.3178L81.1292 92.8678C81.0602 93.2431 81.2128 93.6247 81.5216 93.8489C81.8305 94.0732 82.2406 94.1001 82.5761 93.9183L91.2183 89.399C91.7914 89.1084 92.4687 89.1084 93.0418 89.399L101.684 93.9183C102.02 94.1001 102.43 94.0732 102.738 93.8489C103.047 93.6247 103.2 93.2431 103.131 92.8678L101.466 83.3336C101.364 82.6838 101.586 82.0252 102.061 81.5695L109.018 74.8501C109.283 74.5871 109.378 74.1973 109.263 73.8418C109.149 73.4863 108.844 73.2255 108.475 73.1672L98.8297 71.7797C98.1876 71.691 97.6309 71.2902 97.3431 70.7094L93.022 62.0434C92.8564 61.7015 92.51 61.4844 92.1301 61.4844C91.7502 61.4844 91.4037 61.7015 91.2381 62.0434L86.917 70.7054C86.6292 71.2863 86.0726 71.687 85.4304 71.7758L75.7853 73.1633C75.4146 73.2205 75.108 73.482 74.993 73.839C74.8781 74.196 74.9745 74.5874 75.2422 74.8501V74.8501Z" fill="#00817E"/>
</g>
<defs>
<clipPath id="clip0_1_390">
<rect width="111" height="111" fill="white"/>
</clipPath>
</defs>
</svg>
