<svg width="16" height="16" viewBox="0 0 16 16" fill="none" xmlns="http://www.w3.org/2000/svg">
<path d="M6.57164 1.14307C8.01138 1.14307 9.39216 1.715 10.4102 2.73306C11.4283 3.75111 12.0002 5.13189 12.0002 6.57164C12.0002 7.76135 11.6174 8.86135 10.9688 9.75621L14.6065 13.3939C14.7638 13.5489 14.8552 13.7586 14.8616 13.9794C14.8681 14.2001 14.7891 14.4148 14.6412 14.5787C14.4933 14.7427 14.2878 14.8432 14.0675 14.8593C13.8473 14.8754 13.6293 14.806 13.4591 14.6654L13.3939 14.6065L9.75621 10.9688C8.83059 11.6409 7.71557 12.0021 6.57164 12.0002C5.13189 12.0002 3.75111 11.4283 2.73306 10.4102C1.715 9.39216 1.14307 8.01138 1.14307 6.57164C1.14307 5.13189 1.715 3.75111 2.73306 2.73306C3.75111 1.715 5.13189 1.14307 6.57164 1.14307ZM6.57164 2.85735C5.58655 2.85735 4.6418 3.24868 3.94524 3.94524C3.24868 4.6418 2.85735 5.58655 2.85735 6.57164C2.85735 7.55673 3.24868 8.50147 3.94524 9.19803C4.6418 9.8946 5.58655 10.2859 6.57164 10.2859C7.55673 10.2859 8.50147 9.8946 9.19803 9.19803C9.8946 8.50147 10.2859 7.55673 10.2859 6.57164C10.2859 5.58655 9.8946 4.6418 9.19803 3.94524C8.50147 3.24868 7.55673 2.85735 6.57164 2.85735Z" fill="#73879B"/>
</svg>
