<svg width="134" height="134" viewBox="0 0 134 134" fill="none" xmlns="http://www.w3.org/2000/svg">
<g clip-path="url(#clip0_1_382)">
<path d="M93.0748 60.6895C93.1307 60.0195 93.1865 59.3495 93.1865 58.6237C93.1865 57.8979 93.1307 57.2279 93.0748 56.5579L97.709 53.152C100.501 51.0862 101.338 47.2337 99.6073 44.2187L95.4757 36.8487C93.7448 33.722 89.9482 32.4937 86.7657 34.0012L81.629 36.402C80.5682 35.6762 79.5632 35.062 78.4465 34.5037L77.8882 28.5295C77.5532 25.012 74.6498 22.332 71.1323 22.332H62.869C59.3515 22.332 56.4482 25.012 56.1132 28.5295L55.5548 34.5037C54.4382 35.062 53.4332 35.6762 52.3723 36.402L47.2357 34.0012C44.0532 32.4937 40.2565 33.7779 38.5257 36.8487L34.394 44.2187C32.6632 47.2337 33.5007 51.0862 36.2923 53.152L40.9265 56.5579C40.8707 57.2279 40.8148 57.8979 40.8148 58.6237C40.8148 59.3495 40.8707 60.0195 40.9265 60.6895L36.2923 64.0954C33.5007 66.1612 32.6632 70.0137 34.394 73.0287L38.5257 80.3987C40.2565 83.4695 44.0532 84.7537 47.2357 83.2462L52.3723 80.8454C53.4332 81.5712 54.4382 82.1854 55.5548 82.7437L56.1132 88.7179C56.4482 92.2354 59.3515 94.9154 62.869 94.9154H71.1323C74.6498 94.9154 77.5532 92.2354 77.8882 88.7179L78.4465 82.7437C79.5632 82.1854 80.5682 81.5712 81.629 80.8454L86.7657 83.2462C89.9482 84.7537 93.7448 83.5254 95.4757 80.3987L99.6073 73.0287C101.338 70.0137 100.501 66.1612 97.709 64.0954L93.0748 60.6895ZM80.959 58.6237C80.959 66.3287 74.7057 72.582 67.0007 72.582C59.2957 72.582 53.0423 66.3287 53.0423 58.6237C53.0423 50.9187 59.2957 44.6654 67.0007 44.6654C74.7057 44.6654 80.959 50.9187 80.959 58.6237Z" fill="#00B8B3"/>
<path d="M117.25 100.5H16.75C7.51517 100.5 0 108.015 0 117.25C0 126.485 7.51517 134 16.75 134H117.25C126.485 134 134 126.485 134 117.25C134 108.015 126.485 100.5 117.25 100.5ZM22.3333 122.833C19.2569 122.833 16.75 120.326 16.75 117.25C16.75 114.174 19.2569 111.667 22.3333 111.667C25.4097 111.667 27.9167 114.174 27.9167 117.25C27.9167 120.326 25.4097 122.833 22.3333 122.833ZM50.25 122.833C47.1736 122.833 44.6667 120.326 44.6667 117.25C44.6667 114.174 47.1736 111.667 50.25 111.667C53.3264 111.667 55.8333 114.174 55.8333 117.25C55.8333 120.326 53.3264 122.833 50.25 122.833ZM83.75 122.833C80.6736 122.833 78.1667 120.326 78.1667 117.25C78.1667 114.174 80.6736 111.667 83.75 111.667C86.8264 111.667 89.3333 114.174 89.3333 117.25C89.3333 120.326 86.8264 122.833 83.75 122.833ZM111.667 122.833C108.59 122.833 106.083 120.326 106.083 117.25C106.083 114.174 108.59 111.667 111.667 111.667C114.743 111.667 117.25 114.174 117.25 117.25C117.25 120.326 114.743 122.833 111.667 122.833Z" fill="#00817E"/>
</g>
<defs>
<clipPath id="clip0_1_382">
<rect width="134" height="134" fill="white"/>
</clipPath>
</defs>
</svg>
