<svg width="112" height="16" viewBox="0 0 112 16" fill="none" xmlns="http://www.w3.org/2000/svg">
<g clip-path="url(#clip0_110_50)">
<path d="M15.9582 6.13718C15.8528 5.8132 15.5655 5.58383 15.2268 5.55319L10.6081 5.13387L8.78275 0.86036C8.64798 0.54639 8.34134 0.34375 8.00002 0.34375C7.65871 0.34375 7.35194 0.54639 7.21803 0.86036L5.39268 5.13387L0.773216 5.55319C0.434587 5.58444 0.147839 5.81381 0.0418805 6.13718C-0.0634679 6.46116 0.0338237 6.81651 0.289932 7.04113L3.78132 10.1026L2.75189 14.6366C2.67657 14.97 2.80596 15.3147 3.08258 15.5147C3.23126 15.6227 3.40595 15.6766 3.58125 15.6766C3.73188 15.6766 3.88264 15.6366 4.01729 15.556L8.00002 13.1747L11.982 15.556C12.2741 15.7306 12.6415 15.7146 12.9175 15.5147C13.1941 15.3147 13.3235 14.97 13.2482 14.6366L12.2187 10.1026L15.7101 7.04113C15.9661 6.81651 16.0635 6.46189 15.9582 6.13718Z" fill="#00B9B4"/>
</g>
<g clip-path="url(#clip1_110_50)">
<path d="M39.9582 6.13718C39.8528 5.8132 39.5655 5.58383 39.2268 5.55319L34.6081 5.13387L32.7827 0.86036C32.648 0.54639 32.3413 0.34375 32 0.34375C31.6587 0.34375 31.3519 0.54639 31.218 0.86036L29.3927 5.13387L24.7732 5.55319C24.4346 5.58444 24.1478 5.81381 24.0419 6.13718C23.9365 6.46116 24.0338 6.81651 24.2899 7.04113L27.7813 10.1026L26.7519 14.6366C26.6766 14.97 26.806 15.3147 27.0826 15.5147C27.2313 15.6227 27.406 15.6766 27.5812 15.6766C27.7319 15.6766 27.8826 15.6366 28.0173 15.556L32 13.1747L35.982 15.556C36.2741 15.7306 36.6415 15.7146 36.9175 15.5147C37.1941 15.3147 37.3235 14.97 37.2482 14.6366L36.2187 10.1026L39.7101 7.04113C39.9661 6.81651 40.0635 6.46189 39.9582 6.13718Z" fill="#00B9B4"/>
</g>
<g clip-path="url(#clip2_110_50)">
<path d="M63.9582 6.13718C63.8528 5.8132 63.5655 5.58383 63.2268 5.55319L58.6081 5.13387L56.7827 0.86036C56.648 0.54639 56.3413 0.34375 56 0.34375C55.6587 0.34375 55.3519 0.54639 55.218 0.86036L53.3927 5.13387L48.7732 5.55319C48.4346 5.58444 48.1478 5.81381 48.0419 6.13718C47.9365 6.46116 48.0338 6.81651 48.2899 7.04113L51.7813 10.1026L50.7519 14.6366C50.6766 14.97 50.806 15.3147 51.0826 15.5147C51.2313 15.6227 51.406 15.6766 51.5812 15.6766C51.7319 15.6766 51.8826 15.6366 52.0173 15.556L56 13.1747L59.982 15.556C60.2741 15.7306 60.6415 15.7146 60.9175 15.5147C61.1941 15.3147 61.3235 14.97 61.2482 14.6366L60.2187 10.1026L63.7101 7.04113C63.9661 6.81651 64.0635 6.46189 63.9582 6.13718Z" fill="#00B9B4"/>
</g>
<g clip-path="url(#clip3_110_50)">
<path d="M87.9582 6.13718C87.8528 5.8132 87.5655 5.58383 87.2268 5.55319L82.6081 5.13387L80.7827 0.86036C80.648 0.54639 80.3413 0.34375 80 0.34375C79.6587 0.34375 79.3519 0.54639 79.218 0.86036L77.3927 5.13387L72.7732 5.55319C72.4346 5.58444 72.1478 5.81381 72.0419 6.13718C71.9365 6.46116 72.0338 6.81651 72.2899 7.04113L75.7813 10.1026L74.7519 14.6366C74.6766 14.97 74.806 15.3147 75.0826 15.5147C75.2313 15.6227 75.406 15.6766 75.5812 15.6766C75.7319 15.6766 75.8826 15.6366 76.0173 15.556L80 13.1747L83.982 15.556C84.2741 15.7306 84.6415 15.7146 84.9175 15.5147C85.1941 15.3147 85.3235 14.97 85.2482 14.6366L84.2187 10.1026L87.7101 7.04113C87.9661 6.81651 88.0635 6.46189 87.9582 6.13718Z" fill="#00B9B4"/>
</g>
<g clip-path="url(#clip4_110_50)">
<path d="M111.958 6.13718C111.853 5.8132 111.565 5.58383 111.227 5.55319L106.608 5.13387L104.783 0.86036C104.648 0.54639 104.341 0.34375 104 0.34375C103.659 0.34375 103.352 0.54639 103.218 0.86036L101.393 5.13387L96.7732 5.55319C96.4346 5.58444 96.1478 5.81381 96.0419 6.13718C95.9365 6.46116 96.0338 6.81651 96.2899 7.04113L99.7813 10.1026L98.7519 14.6366C98.6766 14.97 98.806 15.3147 99.0826 15.5147C99.2313 15.6227 99.406 15.6766 99.5812 15.6766C99.7319 15.6766 99.8826 15.6366 100.017 15.556L104 13.1747L107.982 15.556C108.274 15.7306 108.641 15.7146 108.917 15.5147C109.194 15.3147 109.323 14.97 109.248 14.6366L108.219 10.1026L111.71 7.04113C111.966 6.81651 112.064 6.46189 111.958 6.13718Z" fill="#C9C9C9"/>
</g>
<defs>
<clipPath id="clip0_110_50">
<rect width="16" height="16" fill="white"/>
</clipPath>
<clipPath id="clip1_110_50">
<rect width="16" height="16" fill="white" transform="translate(24)"/>
</clipPath>
<clipPath id="clip2_110_50">
<rect width="16" height="16" fill="white" transform="translate(48)"/>
</clipPath>
<clipPath id="clip3_110_50">
<rect width="16" height="16" fill="white" transform="translate(72)"/>
</clipPath>
<clipPath id="clip4_110_50">
<rect width="16" height="16" fill="white" transform="translate(96)"/>
</clipPath>
</defs>
</svg>
