<svg width="142" height="143" viewBox="0 0 142 143" fill="none" xmlns="http://www.w3.org/2000/svg">
<path d="M88.9358 22.4805H11.8501C9.57771 22.4805 7.79297 24.2778 7.79297 26.5662V75.5948C7.79297 77.8415 9.57771 79.6805 11.8501 79.6805H88.9358C91.1673 79.6805 92.993 77.8415 92.993 75.5948V26.5662C92.993 24.2778 91.1677 22.4805 88.9358 22.4805Z" fill="#00B9B4"/>
<path d="M7.75 100.114C7.75 102.361 9.57571 104.2 11.8071 104.2H16.1889C17.8929 95.6601 24.8711 88.9599 33.5534 87.8568H11.8477C10.3867 87.8568 9.04869 87.6113 7.75 87.121V100.114Z" fill="#00817E"/>
<path d="M125.165 104.192H130.195C132.427 104.192 134.253 102.353 134.253 100.106V64.3154C134.253 57.9004 118.714 42.9062 110.194 42.9062H101.106V75.592C101.106 82.333 95.6285 87.8491 88.9347 87.8491H38.8281C47.5108 88.9523 54.4891 95.6524 56.1927 104.192H85.1607C87.0274 94.7948 95.2634 87.6448 105.163 87.6448C115.022 87.6444 123.298 94.7944 125.165 104.192ZM107.759 52.9567C128.532 51.9353 127.68 73.5487 127.68 73.5487H107.759V52.9567Z" fill="#00817E"/>
<path d="M105.143 120.521C111.91 120.521 117.396 114.997 117.396 108.183C117.396 101.368 111.91 95.8438 105.143 95.8438C98.3763 95.8438 92.8906 101.368 92.8906 108.183C92.8906 114.997 98.3763 120.521 105.143 120.521Z" fill="#00817E"/>
<path d="M36.1725 120.521C42.9394 120.521 48.4251 114.997 48.4251 108.183C48.4251 101.368 42.9394 95.8438 36.1725 95.8438C29.4056 95.8438 23.9199 101.368 23.9199 108.183C23.9199 114.997 29.4056 120.521 36.1725 120.521Z" fill="#00817E"/>
</svg>
