<svg width="17" height="16" viewBox="0 0 17 16" fill="none" xmlns="http://www.w3.org/2000/svg">
<path d="M8.50016 10.6667C9.97083 10.6667 11.1668 9.47067 11.1668 8V4C11.1668 2.522 9.97683 1.31934 8.51416 1.31934C8.46724 1.31962 8.4205 1.32521 8.37483 1.336C7.69033 1.36919 7.04478 1.66424 6.57175 2.1601C6.09872 2.65597 5.8344 3.3147 5.8335 4V8C5.8335 9.47067 7.0295 10.6667 8.50016 10.6667Z" fill="#fff"/>
<path d="M7.83317 13.2873V14.6667H9.1665V13.2873C11.7925 12.9573 13.8332 10.7153 13.8332 8H12.4998C12.4998 10.206 10.7058 12 8.49984 12C6.29384 12 4.49984 10.206 4.49984 8H3.1665C3.1665 10.7147 5.20717 12.9573 7.83317 13.2873Z" fill="#fff"/>
</svg>
