<svg id="Слой_1" data-name="Слой 1" xmlns="http://www.w3.org/2000/svg" viewBox="0 0 943.67 167.85"><defs><style>.cls-1{fill:#d36097;}.cls-2{fill:#478ed0;}.cls-3{fill:#fff;}</style></defs><path class="cls-1" d="M943.61.74v7.7c0,23.63.2,47.26-.09,70.88-.49,40.42-23.2,68.14-60.91,77.09a31.94,31.94,0,0,1-7.32.58c-75.35,0-150.7-.06-226.06.15-6.59,0-10.81-2.43-14.68-7.33q-26.09-33-52.59-65.71c-3.7-4.55-3.56-7.82,0-12.25C599.55,50,616.73,27.78,634.51,6.07,637,3,642,.32,645.77.31Q793.34-.2,940.92,0A14,14,0,0,1,943.61.74Z"/><path class="cls-2" d="M54.86,2.85c14.31,0,28.61.1,42.91,0,16.61-.15,31,6,43.79,15.83,10.05,7.74,15.83,33.56,2.84,45.9-5.74,5.46-5.73,8.77.36,13.78,5.75,4.73,8.1,10.24,7.29,17.52-.39,3.52-.07,7.12-.08,10.69,0,19.46-8.81,30-28.25,32.65A227.93,227.93,0,0,1,95.09,141c-24.58.24-49.17.28-73.75-.14-3.67-.07-8-2.34-10.79-4.91C3,129-.23,120.57.36,109.79,1.24,93.81.55,77.72,0,61.7c-.22-6.57,1.57-8.91,8.57-8.8,26.81.41,53.64.23,80.46.18,4.07,0,9.26,1.11,9.8-4.9.06-.75-6-2.91-9.32-2.94Q48.31,44.78,7.1,45c-5.21,0-7.22-1.51-7-6.82.3-9.34.29-18.72,0-28.06C-.17,4.68,1.59,2.62,7.25,2.73,23.12,3,39,2.84,54.86,2.85ZM75.43,90.12v0q-10.7,0-21.4,0c-4,0-7.27,1.08-6.83,6,.4,4.43,2.26,6.88,7.44,5.58,3-.75,6.2-.48,9.31-.52,10.67-.12,21.38.21,32-.52,2.69-.18,7.08-3.45,7.32-5.67.49-4.64-4.15-4.84-7.79-4.88C88.81,90.07,82.12,90.12,75.43,90.12Z"/><path class="cls-2" d="M319.69,55.74h84.72c2.68,0,5.62.59,8-.31s4-3.33,5.91-5.09c-1.92-1.79-3.56-4.2-5.82-5.19-2.08-.91-4.84-.32-7.3-.32-26.17,0-52.34-.11-78.5.23-6.23.08-8.27-1.95-8-8,.37-8.9.16-17.83,0-26.75-.06-3.66,1.29-5.22,5.07-5.21,33.32,0,66.66-.58,100,.24,15.61.38,29.09,7.18,39.16,19.94,6.67,8.45,6.3,18.13,5,27.48C464.13,79.3,455,81.81,439.24,91.55l63.28,76.25c-17.34,0-32.68.21-48-.22-2.3-.06-4.92-2.75-6.72-4.8-14.84-16.92-29.53-34-44.23-51-4.66-5.4-9-11.06-14-16.19A14.09,14.09,0,0,0,382.22,92c-3.48-.59-7.15.1-10.71-.14-5.6-.37-7.38,2-7.1,7.5.59,12,.41,24.07.9,36.09.21,5.08-1.56,6.71-6.58,6.3-6.67-.55-13.4-.51-20.11-.66-8.32-.18-19.54-10.13-19.66-18.49-.33-21.4-.13-42.81-.11-64.21A12.42,12.42,0,0,1,319.69,55.74Z"/><path class="cls-2" d="M295.42,57c0,9.79.11,20-.05,30.15-.08,5.08-4.16,3.61-7,3.59q-34.87-.19-69.75-.56c-3.66,0-6.66.18-6.61,5.16s3.14,5,6.75,5c17.89-.07,35.78,0,53.67-.06,7.33,0,14.67,0,22.89,0,0,12.73.31,24.67-.15,36.58-.2,5.16-4.85,4.79-8.76,4.76q-40.92-.33-81.84-.57c-4.69,0-9.39,0-14.09,0a23.67,23.67,0,0,1-24-23.76c-.11-18.05,0-36.11-.21-54.17-.07-5.14,1.64-7.08,6.95-7,40,.15,80.05.09,120.07.12A9.5,9.5,0,0,1,295.42,57Z"/><path class="cls-2" d="M530.72,141c-11.29,0-21.52.44-31.69-.17-6.09-.36-16.35-13.9-16.38-21-.15-36.51-.07-73-.18-109.53,0-4.19,1.87-5.37,5.71-5.3,9.6.16,19.21,0,28.81.15,5.14.08,12.78,8.37,13.48,14.5a71.05,71.05,0,0,1,.29,8q0,50.76,0,101.52Z"/><path class="cls-2" d="M235.06,43.32c-19.44,0-38.87.07-58.31,0-9.3,0-9.92-.64-10.38-9.76-.36-7.34-.14-14.71-.45-22-.19-4.5,1.34-6.35,6.13-6.33,37.78.13,75.56.07,113.33,0,9.77,0,18.08,4.59,16.89,17.22-.37,4-.1,8-.13,12-.06,9-.06,9-9.41,9-9.61,0-19.22-.15-28.84-.18s-19.22,0-28.83,0Z"/><polygon class="cls-3" points="690.93 56.36 655.67 56.36 655.67 37.01 663.84 25.4 765.75 25.4 765.75 56.36 729.63 56.36 729.63 120.87 720.17 132.05 693.51 132.05 690.93 56.36"/><polygon class="cls-3" points="778.23 25.4 778.23 67.11 816.5 132.05 861.65 132.05 900.78 64.97 900.78 25.4 865.09 25.4 862.51 25.4 862.51 67.55 841.87 100.44 836.92 100.44 814.78 64.75 814.78 25.4 778.23 25.4"/></svg>