<svg width="20" height="21" viewBox="0 0 20 21" fill="none" xmlns="http://www.w3.org/2000/svg">
<g clip-path="url(#clip0)">
<path d="M10.3573 19.8112C15.4006 19.8112 19.489 15.5183 19.489 10.2228C19.489 4.92736 15.4006 0.634521 10.3573 0.634521C5.314 0.634521 1.22559 4.92736 1.22559 10.2228C1.22559 15.5183 5.314 19.8112 10.3573 19.8112Z" fill="#132BE2"/>
<path d="M10.3575 20.6163C4.89988 20.6163 0.458984 15.9541 0.458984 10.2229C0.458984 4.49241 4.89988 -0.170532 10.3575 -0.170532C15.8158 -0.170532 20.2559 4.49241 20.2559 10.2229C20.2559 15.9541 15.8158 20.6163 10.3575 20.6163ZM10.3575 1.43959C5.74481 1.43959 1.99244 5.37958 1.99244 10.2229C1.99244 15.0662 5.74481 19.0061 10.3575 19.0061C14.9701 19.0061 18.7225 15.0653 18.7225 10.2229C18.7225 5.37958 14.9701 1.43959 10.3575 1.43959Z" fill="#132BE2"/>
<path d="M10.3566 14.9808C9.93335 14.9808 9.58984 14.6209 9.58984 14.1757V6.12503C9.58984 5.68063 9.93335 5.31995 10.3566 5.31995C10.7798 5.31995 11.1233 5.68063 11.1233 6.12503V14.1757C11.1233 14.6209 10.7798 14.9808 10.3566 14.9808Z" fill="white"/>
<path d="M14.1909 10.9554H6.52358C6.10034 10.9554 5.75684 10.5947 5.75684 10.1504C5.75684 9.70596 6.10034 9.34528 6.52358 9.34528H14.1909C14.6149 9.34528 14.9576 9.70596 14.9576 10.1504C14.9576 10.5947 14.6149 10.9554 14.1909 10.9554Z" fill="white"/>
</g>
<defs>
<clipPath id="clip0">
<rect width="20" height="21" fill="white"/>
</clipPath>
</defs>
</svg>
