<svg width="48" height="48" viewBox="0 0 48 48" fill="none" xmlns="http://www.w3.org/2000/svg">
<g clip-path="url(#clip0)">
<path d="M18.7293 3.46333L18.0321 0.73877C17.0574 0.988145 16.0888 1.30296 15.1533 1.67411L16.1906 4.28833C17.0156 3.96096 17.8697 3.68336 18.7293 3.46333Z" fill="#132BE2"/>
<path d="M12.6431 6.1002L11.1332 3.72729C10.2836 4.26804 9.4597 4.86823 8.68457 5.51145L10.4806 7.67576C11.1652 7.10783 11.8927 6.57767 12.6431 6.1002Z" fill="#132BE2"/>
<path d="M7.66269 10.4983L5.49529 8.70605C4.8577 9.47715 4.26295 10.2955 3.72754 11.1383L6.10166 12.6464C6.57444 11.9021 7.09963 11.1794 7.66269 10.4983Z" fill="#132BE2"/>
<path d="M4.29438 16.1891L1.67979 15.1528C1.30995 16.0859 0.99607 17.0528 0.74707 18.0262L3.47182 18.7233C3.69148 17.8646 3.96823 17.012 4.29438 16.1891Z" fill="#132BE2"/>
<path d="M2.8125 23.9903C2.8125 23.5506 2.82619 23.1057 2.85309 22.6683L0.0459375 22.4956C0.0154688 22.9903 0 23.4931 0 23.9903C0 24.4941 0.0158437 25.0037 0.0470625 25.5048L2.85403 25.3299C2.82647 24.8868 2.8125 24.436 2.8125 23.9903Z" fill="#132BE2"/>
<path d="M3.47623 29.2727L0.751953 29.9716C1.00039 30.9402 1.31352 31.9032 1.68252 32.8336L4.29692 31.7968C3.97152 30.9762 3.69542 30.127 3.47623 29.2727Z" fill="#132BE2"/>
<path d="M3.73633 36.8555C4.27417 37.7012 4.87174 38.5219 5.51224 39.2949L7.67786 37.5002C7.11218 36.8176 6.58446 36.0928 6.10942 35.3459L3.73633 36.8555Z" fill="#132BE2"/>
<path d="M8.70703 42.4878C9.48094 43.1284 10.3029 43.7261 11.1504 44.2641L12.6581 41.89C11.9099 41.4148 11.1839 40.887 10.5004 40.3213L8.70703 42.4878Z" fill="#132BE2"/>
<path d="M15.1738 46.315C16.1103 46.6855 17.0799 46.9994 18.0554 47.2481L18.7501 44.5227C17.8896 44.3034 17.0345 44.0265 16.2085 43.6997L15.1738 46.315Z" fill="#132BE2"/>
<path d="M32.8476 1.67387C31.912 1.30271 30.9435 0.987994 29.9688 0.738525L29.2715 3.46318C30.1311 3.68321 30.9852 3.96081 31.8102 4.28809L32.8476 1.67387Z" fill="#132BE2"/>
<path d="M39.3159 5.5117C38.5407 4.86848 37.7169 4.2682 36.8673 3.72754L35.3574 6.10045C36.1078 6.57791 36.8354 7.10807 37.5199 7.6761L39.3159 5.5117Z" fill="#132BE2"/>
<path d="M44.273 11.1383C43.7375 10.2955 43.1428 9.47705 42.5053 8.70605L40.3379 10.4983C40.901 11.1794 41.4261 11.9021 41.8989 12.6464L44.273 11.1383Z" fill="#132BE2"/>
<path d="M44.5276 18.7233L47.2524 18.0262C47.0034 17.0527 46.6895 16.0859 46.3197 15.1528L43.7051 16.1891C44.0312 17.012 44.308 17.8646 44.5276 18.7233Z" fill="#132BE2"/>
<path d="M47.9545 22.4958L45.1474 22.6685C45.1743 23.106 45.188 23.5507 45.188 23.9905C45.188 24.4363 45.174 24.8869 45.1465 25.3302L47.9534 25.505C47.9846 25.0038 48.0005 24.4943 48.0005 23.9905C48.0004 23.4933 47.9849 22.9905 47.9545 22.4958Z" fill="#132BE2"/>
<path d="M22.6688 45.1465L22.4961 47.9537C22.9907 47.9841 23.4936 47.9995 23.9907 47.9995C24.4946 47.9995 25.0042 47.9837 25.5052 47.9525L25.3303 45.1455C24.4502 45.2002 23.5497 45.2006 22.6688 45.1465Z" fill="#132BE2"/>
<path d="M25.3302 2.85379L25.505 0.0468194C24.5103 -0.0150556 23.4936 -0.0157119 22.4961 0.0455069L22.6682 2.85266C23.5508 2.79866 24.4505 2.79904 25.3302 2.85379Z" fill="#132BE2"/>
<path d="M43.7031 31.7968L46.3175 32.8336C46.6865 31.9031 46.9996 30.9402 47.2481 29.9716L44.5238 29.2727C44.3046 30.1269 44.0285 30.9761 43.7031 31.7968Z" fill="#132BE2"/>
<path d="M40.3223 37.5002L42.4879 39.2949C43.1284 38.522 43.726 37.7012 44.2638 36.8555L41.8907 35.3459C41.4158 36.0928 40.888 36.8175 40.3223 37.5002Z" fill="#132BE2"/>
<path d="M35.3418 41.89L36.8495 44.2641C37.6969 43.7261 38.519 43.1284 39.2929 42.4878L37.4995 40.3213C36.816 40.887 36.0901 41.4147 35.3418 41.89Z" fill="#132BE2"/>
<path d="M29.25 44.5227L29.9447 47.2481C30.9203 46.9994 31.8898 46.6855 32.8263 46.315L31.7916 43.6997C30.9656 44.0265 30.1105 44.3034 29.25 44.5227Z" fill="#132BE2"/>
<path d="M23.9997 41.5349C33.6894 41.5349 41.5444 33.6799 41.5444 23.9902C41.5444 14.3006 33.6894 6.44556 23.9997 6.44556C14.3101 6.44556 6.45508 14.3006 6.45508 23.9902C6.45508 33.6799 14.3101 41.5349 23.9997 41.5349Z" fill="#132BE2"/>
</g>
<defs>
<clipPath id="clip0">
<rect width="48" height="48" fill="white"/>
</clipPath>
</defs>
</svg>
