<svg width="48" height="48" viewBox="0 0 48 48" fill="none" xmlns="http://www.w3.org/2000/svg">
<path d="M36.7736 5.396C35.0783 5.396 33.5546 6.14487 32.5159 7.32912C31.4771 6.14487 29.9532 5.396 28.258 5.396C26.5626 5.396 25.039 6.14487 24.0002 7.32912C22.9615 6.14487 21.4376 5.396 19.7424 5.396C18.0471 5.396 16.5233 6.14487 15.4845 7.32912C14.4458 6.14487 12.922 5.396 11.2268 5.396C8.31761 5.396 5.9147 7.60137 5.59961 10.4278C5.71895 10.423 5.83886 10.4199 5.95952 10.4199C10.7948 10.42 14.7287 14.3541 14.7287 19.1896V20.5545H33.2717V19.1896C33.2717 14.3539 37.2057 10.4199 42.0413 10.4199C42.1618 10.4199 42.2816 10.423 42.4012 10.4278C42.0858 7.60128 39.6829 5.396 36.7736 5.396Z" fill="#132BE2"/>
<path d="M33.2719 23.3657H14.7285V28.7136H33.2719V23.3657Z" fill="#132BE2"/>
<path d="M42.0411 13.2306C38.7554 13.2306 36.0822 15.9037 36.0822 19.1896V31.5237H11.9178V19.1895C11.9178 15.9038 9.24469 13.2305 5.95894 13.2305C2.67319 13.2306 0 15.9038 0 19.1895C0 20.6275 0.519469 22.0162 1.4625 23.0995C2.15747 23.8979 3.05362 24.4986 4.05412 24.8363L5.00991 25.159V40.0548H7.64428V42.6041H10.455V40.0548H37.5451V42.6041H40.3558V40.0548H42.9901V25.159L43.9459 24.8363C44.9463 24.4985 45.8424 23.8979 46.5375 23.0996C47.4806 22.0162 48 20.6276 48 19.1896C48 15.9037 45.3268 13.2306 42.0411 13.2306Z" fill="#132BE2"/>
</svg>
