<svg viewBox="0 0 47 47" fill="none" xmlns="http://www.w3.org/2000/svg">
<path d="M7.371 19.2271H2.137C0.957 19.2271 0 20.1841 0 21.3641V44.864C0 46.0431 0.957 47.0001 2.137 47.0001H7.371C8.551 47.0001 9.507 46.0431 9.507 44.864V21.3641C9.507 20.1841 8.551 19.2271 7.371 19.2271Z" fill="#132BE2"/>
<path d="M19.869 25.635H14.635C13.454 25.635 12.498 26.592 12.498 27.772V44.862C12.498 46.043 13.454 46.999 14.635 46.999H19.869C21.049 46.999 22.005 46.042 22.005 44.862V27.772C22.005 26.592 21.049 25.635 19.869 25.635Z" fill="#132BE2"/>
<path d="M32.3651 25.635H27.1311C25.9511 25.635 24.9951 26.592 24.9951 27.772V44.862C24.9951 46.043 25.9511 46.999 27.1311 46.999H32.3651C33.5461 46.999 34.5021 46.042 34.5021 44.862V27.772C34.5021 26.592 33.5461 25.635 32.3651 25.635Z" fill="#132BE2"/>
<path d="M44.8632 19.2271H39.6292C38.4492 19.2271 37.4932 20.1841 37.4932 21.3641V44.864C37.4932 46.0441 38.4492 47.0001 39.6292 47.0001H44.8632C46.0432 47.0001 47.0002 46.042 47.0002 44.864V21.3641C47.0002 20.1841 46.0432 19.2271 44.8632 19.2271Z" fill="#132BE2"/>
<path d="M24.123 12.8701V16.7161C25.287 16.6391 26.514 16.0931 26.514 14.8121C26.514 13.4901 25.169 13.1031 24.123 12.8701Z" fill="#132BE2"/>
<path d="M20.7783 8.26701C20.7783 9.23901 21.5013 9.80101 22.9583 10.093V6.61401C21.6343 6.65301 20.7783 7.43101 20.7783 8.26701Z" fill="#132BE2"/>
<path d="M23.5 0C17.021 0 11.75 5.272 11.75 11.75C11.75 18.226 17.021 23.498 23.5 23.498C29.979 23.498 35.25 18.226 35.25 11.75C35.25 5.272 29.979 0 23.5 0ZM24.123 18.699V19.902C24.123 20.233 23.869 20.563 23.537 20.563C23.209 20.563 22.958 20.233 22.958 19.902V18.699C19.675 18.619 18.042 16.657 18.042 15.122C18.042 14.347 18.511 13.899 19.245 13.899C21.421 13.899 19.729 16.58 22.958 16.715V12.655C20.078 12.132 18.334 10.869 18.334 8.713C18.334 6.072 20.53 4.71 22.958 4.634V3.598C22.958 3.267 23.209 2.937 23.537 2.937C23.869 2.937 24.123 3.267 24.123 3.598V4.634C25.637 4.674 28.746 5.624 28.746 7.529C28.746 8.286 28.18 8.732 27.519 8.732C26.255 8.732 26.273 6.655 24.123 6.615V10.306C26.687 10.851 28.958 11.608 28.958 14.6C28.958 17.202 27.016 18.522 24.123 18.699Z" fill="#132BE2"/>
</svg>
