<svg viewBox="0 0 48 48" fill="none" xmlns="http://www.w3.org/2000/svg">
<path d="M21.1875 36.5625H26.8125V48H21.1875V36.5625Z" fill="#132BE2"/>
<path d="M11.3457 48H18.3748V33.75H29.6248V48H36.6873V0H11.3457V48ZM31.031 5.625H33.8435V8.4375H31.031V5.625ZM31.031 11.25H33.8435V14.0625H31.031V11.25ZM31.031 16.875H33.8435V19.6875H31.031V16.875ZM31.031 22.5H33.8435V25.3125H31.031V22.5ZM31.031 28.125H33.8435V30.9375H31.031V28.125ZM25.406 5.625H28.2185V8.4375H25.406V5.625ZM25.406 11.25H28.2185V14.0625H25.406V11.25ZM25.406 16.875H28.2185V19.6875H25.406V16.875ZM25.406 22.5H28.2185V25.3125H25.406V22.5ZM25.406 28.125H28.2185V30.9375H25.406V28.125ZM19.781 5.625H22.5935V8.4375H19.781V5.625ZM19.781 11.25H22.5935V14.0625H19.781V11.25ZM19.781 16.875H22.5935V19.6875H19.781V16.875ZM19.781 22.5H22.5935V25.3125H19.781V22.5ZM19.781 28.125H22.5935V30.9375H19.781V28.125ZM14.156 5.625H16.9685V8.4375H14.156V5.625ZM14.156 11.25H16.9685V14.0625H14.156V11.25ZM14.156 16.875H16.9685V19.6875H14.156V16.875ZM14.156 22.5H16.9685V25.3125H14.156V22.5ZM14.156 28.125H16.9685V30.9375H14.156V28.125Z" fill="#132BE2"/>
<path d="M39.4346 11.25H47.9999V48H39.4346V11.25Z" fill="#132BE2"/>
<path d="M0 11.25H8.53088V48H0V11.25Z" fill="#132BE2"/>
</svg>
