<svg width="620" height="582" viewBox="0 0 620 582" fill="none" xmlns="http://www.w3.org/2000/svg">
<path d="M584.505 308.529L584.921 307.509L566.835 298.413L566.42 299.433L584.505 308.529Z" fill="#132BE2"/>
<path d="M584.505 312.075L584.921 311.056L566.835 301.959L566.42 302.979L584.505 312.075Z" fill="#132BE2"/>
<path d="M584.505 315.622L584.921 314.602L566.835 305.506L566.42 306.526L584.505 315.622Z" fill="#132BE2"/>
<path d="M584.505 319.168L584.921 318.148L566.835 309.052L566.42 310.072L584.505 319.168Z" fill="#132BE2"/>
<path d="M584.505 322.715L584.921 321.695L566.835 312.599L566.42 313.618L584.505 322.715Z" fill="#132BE2"/>
<path d="M567.63 347.612L568.054 346.592L551.882 338.461L551.467 339.472L567.63 347.612Z" fill="#132BE2"/>
<path d="M584.461 336.774L584.885 335.754L568.713 327.624L568.298 328.643L584.461 336.774Z" fill="#132BE2"/>
<path d="M568.054 347.612L585.048 339.003L584.632 337.992L567.63 346.592L568.054 347.612Z" fill="#132BE2"/>
<path d="M585.219 303.006H584.208V351.005H585.219V303.006Z" fill="#132BE2"/>
<path d="M567.134 293.567H566.123V341.566H567.134V293.567Z" fill="#132BE2"/>
<path d="M568.352 331.729H567.341V359.722H568.352V331.729Z" fill="#132BE2"/>
<path d="M552.18 325.494H551.169V349.308H552.18V325.494Z" fill="#132BE2"/>
<path d="M550.267 325.855L568.126 334.834L584.362 326.559L566.538 317.571L550.267 325.855Z" fill="#132BE2"/>
<path d="M44.2344 124.865V205.458L130.231 165.833L291.348 91.5662L291.484 10.1611L44.2344 124.865ZM216.236 82.3257L107.533 133.6V116.454L216.263 65.1712L216.236 82.3257ZM282.919 86.0797L262.821 95.7533V78.5627L282.919 68.889V86.0797ZM282.919 62.9693L262.821 72.6159V55.4704L282.919 45.7967V62.9693ZM282.919 39.8499L262.821 49.5236V32.333L282.919 22.6593V39.8499Z" fill="black"/>
<path d="M104.348 130.946V110.769L105.124 110.408L215.83 58.1772V78.3638L104.348 130.946ZM107.055 112.492V126.678L213.122 76.6764V62.4817L107.055 112.492Z" fill="black"/>
<path d="M259.663 46.8883V26.6927L282.468 15.7646V35.9603L259.663 46.8883ZM262.37 28.3982V42.5838L279.761 34.2096V20.024L262.37 28.3982Z" fill="black"/>
<path d="M259.663 70.0077V52.1944L282.468 41.5732V59.0797L259.663 70.0077ZM262.37 53.918V65.7033L279.761 57.3291V45.8235L262.37 53.918Z" fill="black"/>
<path d="M259.663 93.1182V76.5683L282.468 64.5664V82.1451L259.663 93.1182ZM262.37 78.2016V88.8589L279.761 80.4847V69.0513L262.37 78.2016Z" fill="black"/>
<path id="jardac_third" d="M477.708 321.56L564.724 361.012L512.543 385.485L425.527 344.995L477.708 321.56Z" fill="#8C14E0"/>
<path d="M209.106 481.527L108.535 527.865L225.982 581.982L326.553 535.644" fill="#3FEA84"/>
<path id="jardac_first" d="M209.115 481.536L108.535 527.883L225.991 582L326.562 535.662" fill="#132BE2"/>
<path id="jardac_second" d="M390.195 353.522L303.576 393.444L408.416 441.75L495.035 401.828L390.195 353.522Z" fill="#14E07A"/>
<path d="M449.704 399.878L401.106 377.49V336.882L449.704 359.271V399.878ZM403.814 375.757L446.997 395.673V360.985L403.814 341.133V375.757Z" fill="black"/>
<path d="M480.884 385.504L432.286 363.115V322.507L480.884 344.896V385.504ZM434.994 361.383L478.177 381.235V346.61L434.994 326.758V361.383Z" fill="black"/>
<path d="M268.859 329.067V420.615L199.874 388.643L206.679 385.368V371.11L190.01 379.132V384.068L169.795 374.701L268.859 329.067Z" fill="black"/>
<path d="M270.212 420.616H267.505V421.572H270.212V420.616Z" fill="black"/>
<path d="M513.147 537.025L477.103 519.681V488.16L513.147 505.504V537.025ZM479.81 517.975L510.44 532.72V507.21L479.81 492.465V517.975Z" fill="black"/>
<path d="M560.889 537.025V505.504L596.933 488.16V519.681L560.889 537.025ZM563.596 507.246V532.756L594.226 518.011V492.465L563.596 507.246Z" fill="black"/>
<path d="M104.348 130.946V110.769L105.124 110.408L215.83 58.1772V78.3638L104.348 130.946ZM107.055 112.492V126.678L213.122 76.6764V62.4817L107.055 112.492Z" fill="black"/>
<path d="M259.663 46.8883V26.6927L282.468 15.7646V35.9603L259.663 46.8883ZM262.37 28.3982V42.5838L279.761 34.2096V20.024L262.37 28.3982Z" fill="black"/>
<path d="M259.663 70.0078V52.2036L282.468 41.2305V59.0798L259.663 70.0078ZM262.37 53.9091V65.7034L279.761 57.3292V45.5439L262.37 53.9091Z" fill="black"/>
<path d="M259.663 93.1183V76.5322L282.468 65.5591V82.1451L259.663 93.1183ZM262.37 78.2378V88.8589L279.761 80.4847V69.9086L262.37 78.2378Z" fill="black"/>
<path d="M541.007 483.423L438.902 436.372H438.802L369.917 467.414V562.806L438.802 526.972L541.088 573.996L620 538.036V447.02L541.007 483.423ZM511.794 534.859L478.448 518.833V490.317L511.839 506.361L511.794 534.859ZM595.579 518.815L562.242 534.859V506.343L595.579 490.299V518.815Z" fill="black"/>
<path d="M429.904 320.396L485.217 345.473L452.042 361.03L396.729 335.285L429.904 320.396Z" fill="white"/>
<path d="M452.051 364.514L389.104 335.213L429.877 316.903L492.725 345.401L452.051 364.514ZM404.328 335.339L452.042 357.538L477.672 345.518L429.895 323.861L404.328 335.339Z" fill="black"/>
<path d="M440.156 436.209H437.448V526.981H440.156V436.209Z" fill="black"/>
<path d="M188.656 395.538V378.275L208.032 368.954V386.216L188.656 395.538ZM191.364 379.981V391.234L205.325 384.511V373.258L191.364 379.981Z" fill="black"/>
<path d="M369.917 467.459V562.815L169.795 463.624V374.702L190.01 384.069L199.874 388.644L268.859 420.616L369.917 467.459Z" fill="black"/>
<path d="M276.367 516.098V459.049L243.021 443.004V500.793L276.367 516.098Z" fill="white"/>
<path id="jardac_fourth" d="M312.818 256.298L399.78 296.365L357.003 315.884L275.501 278.326L312.818 256.298Z" fill="#AAE014"/>
<path d="M267.189 235.2L319.857 259.096L277.071 278.614L224.412 254.728L267.189 235.2Z" fill="#AAE014"/>
<path id="jardac_five" d="M315.299 90.3838L403.876 131.19L350.748 155.437L262.171 114.622L315.299 90.3838Z" fill="#E04914"/>
<path d="M323.233 101.574H320.525V70.7568L383.283 98.9838L382.173 101.456L323.233 74.944V101.574Z" fill="black"/>
<path d="M322.427 82.6708L321.316 85.1396L382.163 112.509L383.274 110.04L322.427 82.6708Z" fill="black"/>
<path d="M419.178 92.8243L382.021 110.11L383.164 112.564L420.32 95.2788L419.178 92.8243Z" fill="black"/>
<path d="M383.942 99.2725H381.234V128.898H383.942V99.2725Z" fill="black"/>
<path d="M421.096 82.5601H418.389V111.283H421.096V82.5601Z" fill="black"/>
<path d="M358.916 54.8745L420.645 82.8668L383.625 100.22L321.896 71.4966L358.916 54.8745Z" fill="black"/>
<path d="M383.635 104.199L313.242 71.4334L358.925 50.958L429.263 82.8487L383.635 104.199ZM330.588 71.5507L383.626 96.2312L412.026 82.9118L358.916 58.8269L330.588 71.5507Z" fill="black"/>
<path d="M597.285 292.502H499.105L481.426 305.533L480.749 277.712V257.706H597.285V292.502Z" fill="#132BE2"/>
<path d="M443.586 34.7964H345.406L327.646 43.1165L327.041 20.0061V0H443.586V34.7964Z" fill="#132BE2"/>
<path d="M224.412 350.897H322.592L341.237 363.07L340.948 336.097V316.091H224.412V350.897Z" fill="#132BE2"/>
<path d="M0 469.947H138.997L164.847 489L165 449.142V421H0V469.947Z" fill="url(#paint0_radial)"/>
<path d="M37.0121 446.501C36.9644 445.904 37.0626 445.304 37.3003 444.742C37.5379 444.18 37.9094 443.67 38.39 443.244C38.8705 442.819 39.4489 442.488 40.0866 442.275C40.7243 442.062 41.4065 441.971 42.0875 442.008C45.3715 442.008 47 443.879 47 446.68V447.097H40.1198V447.169C40.1233 447.634 40.3341 448.079 40.7071 448.409C41.0801 448.738 41.5854 448.927 42.1146 448.933C42.48 448.966 42.8475 448.892 43.1612 448.725C43.4748 448.557 43.7173 448.303 43.8516 448.003H46.9322C46.6709 448.921 46.0441 449.726 45.1653 450.272C44.2865 450.819 43.2139 451.071 42.1418 450.983C41.4571 451.029 40.7691 450.945 40.1248 450.736C39.4805 450.528 38.8949 450.199 38.4081 449.774C37.9212 449.349 37.5445 448.836 37.3036 448.272C37.0627 447.707 36.9633 447.103 37.0121 446.501ZM43.9602 445.572C43.9759 445.353 43.9387 445.134 43.8511 444.929C43.7634 444.724 43.6272 444.538 43.4515 444.382C43.2759 444.227 43.0647 444.106 42.8319 444.027C42.5991 443.949 42.35 443.915 42.101 443.927C41.853 443.922 41.6064 443.961 41.3759 444.042C41.1455 444.123 40.9359 444.244 40.7598 444.397C40.5837 444.551 40.4447 444.734 40.3511 444.936C40.2574 445.138 40.211 445.354 40.2147 445.572H43.9602Z" fill="white"/>
<path d="M56.9794 445.479V451H54.0193V446.287C54.0193 445.186 53.5115 444.537 52.6817 444.537C51.8518 444.537 50.9601 445.186 50.9601 446.618V451H48V442.223H50.9601V443.778C51.1829 443.232 51.5719 442.768 52.0734 442.45C52.5749 442.132 53.164 441.976 53.7592 442.003C54.2112 441.991 54.6604 442.076 55.0765 442.25C55.4926 442.425 55.8659 442.686 56.1712 443.016C56.4765 443.345 56.7066 443.736 56.8461 444.161C56.9855 444.586 57.031 445.036 56.9794 445.479Z" fill="white"/>
<path d="M62.9125 443.931V447.173C62.8956 447.343 62.9195 447.516 62.9825 447.677C63.0455 447.838 63.1461 447.985 63.277 448.106C63.408 448.227 63.5661 448.32 63.7403 448.379C63.9144 448.437 64.1003 448.459 64.2847 448.444C64.8388 448.433 65.3795 448.284 65.8491 448.011V450.553C65.1675 450.866 64.4136 451.018 63.6535 450.998C61.2384 450.998 59.6192 449.727 59.6192 447.757V443.944H58V441.631C58.2113 441.662 58.4277 441.648 58.6318 441.588C58.8359 441.528 59.022 441.425 59.1754 441.287C59.3287 441.148 59.445 440.979 59.5149 440.791C59.5848 440.604 59.6064 440.404 59.578 440.207V439H62.8576V441.631H66V443.944L62.9125 443.931Z" fill="white"/>
<path d="M74 442V445.017C70.9537 444.706 70.1111 445.662 70.1111 447.884V451H67V442.099H70.1111V444.582C70.6815 442.67 71.913 442 74 442Z" fill="white"/>
<path d="M85 442L81.4507 451.525C81.1708 452.546 80.5296 453.447 79.6331 454.078C78.7365 454.709 77.6383 455.034 76.5197 454.997C75.6965 455.005 74.8819 454.839 74.1355 454.512V451.959C74.8507 452.375 75.6666 452.612 76.5061 452.648C76.8681 452.646 77.2235 452.557 77.5388 452.39C77.8541 452.222 78.1188 451.981 78.3079 451.691L74 442.064H77.6034L79.7168 447.809L81.5727 442.064L85 442Z" fill="white"/>
<path d="M98 448.722V451H89V449.285L93.8171 444.278H89V442H97.8381V443.853L93.1964 448.722H98Z" fill="white"/>
<path d="M107.994 446.423C108.011 447.315 107.76 448.193 107.276 448.943C106.791 449.693 106.094 450.282 105.273 450.635C104.452 450.987 103.545 451.088 102.667 450.923C101.788 450.758 100.979 450.335 100.343 449.709C99.7058 449.082 99.2702 448.28 99.0912 447.405C98.9122 446.531 98.998 445.622 99.3376 444.796C99.6773 443.97 100.255 443.264 100.998 442.768C101.741 442.272 102.615 442.008 103.508 442.01C104.102 441.969 104.697 442.055 105.255 442.261C105.813 442.467 106.321 442.79 106.745 443.207C107.169 443.624 107.5 444.126 107.715 444.681C107.93 445.235 108.026 445.829 107.994 446.423ZM101.742 446.423C101.742 447.729 102.366 448.682 103.508 448.682C104.65 448.682 105.251 447.729 105.251 446.423C105.251 445.116 104.627 444.199 103.508 444.199C102.39 444.199 101.742 445.116 101.742 446.423Z" fill="white"/>
<path d="M119.977 445.479V451H116.688V446.287C116.688 445.186 116.124 444.537 115.202 444.537C114.28 444.537 113.289 445.186 113.289 446.618V451H110V442.223H113.289V443.778C113.537 443.232 113.969 442.768 114.526 442.45C115.083 442.132 115.738 441.976 116.399 442.003C116.901 441.991 117.4 442.076 117.863 442.25C118.325 442.425 118.74 442.686 119.079 443.016C119.418 443.345 119.674 443.736 119.829 444.161C119.984 444.586 120.034 445.036 119.977 445.479Z" fill="white"/>
<path d="M121.011 446.501C120.968 445.904 121.056 445.304 121.27 444.742C121.483 444.18 121.817 443.67 122.249 443.244C122.681 442.819 123.201 442.488 123.774 442.275C124.347 442.062 124.96 441.971 125.573 442.008C128.524 442.008 130 443.879 130 446.68V447.097H123.804V447.169C123.807 447.634 123.997 448.079 124.332 448.409C124.667 448.738 125.121 448.927 125.597 448.933C125.926 448.968 126.257 448.895 126.539 448.727C126.821 448.559 127.039 448.305 127.158 448.003H129.927C129.692 448.921 129.129 449.726 128.339 450.272C127.549 450.819 126.585 451.071 125.621 450.983C125.006 451.029 124.388 450.945 123.809 450.736C123.229 450.528 122.703 450.199 122.266 449.774C121.828 449.349 121.489 448.836 121.273 448.272C121.056 447.707 120.967 447.103 121.011 446.501ZM127.256 445.572C127.272 445.353 127.24 445.133 127.162 444.927C127.084 444.721 126.961 444.534 126.803 444.378C126.645 444.222 126.454 444.101 126.244 444.024C126.034 443.946 125.809 443.913 125.585 443.927C125.362 443.922 125.14 443.961 124.933 444.042C124.726 444.123 124.538 444.244 124.379 444.397C124.221 444.551 124.096 444.734 124.012 444.936C123.928 445.138 123.886 445.354 123.889 445.572H127.256Z" fill="white"/>
<path d="M237.155 329.979C236.708 329.979 236.266 329.891 235.853 329.72C235.44 329.549 235.065 329.298 234.749 328.983C234.434 328.667 234.183 328.292 234.012 327.879C233.841 327.466 233.753 327.024 233.753 326.577C233.753 326.13 233.841 325.688 234.012 325.275C234.183 324.862 234.434 324.487 234.749 324.171C235.065 323.855 235.44 323.605 235.853 323.434C236.266 323.263 236.708 323.175 237.155 323.175C237.545 323.138 237.938 323.179 238.311 323.295C238.685 323.412 239.031 323.602 239.33 323.854C239.629 324.106 239.875 324.415 240.053 324.763C240.232 325.112 240.339 325.492 240.368 325.882H238.265C238.262 325.732 238.229 325.585 238.167 325.448C238.106 325.311 238.019 325.188 237.909 325.086C237.8 324.983 237.672 324.904 237.531 324.851C237.391 324.799 237.242 324.775 237.092 324.781C236.253 324.781 235.765 325.467 235.765 326.532C235.765 327.597 236.253 328.273 237.092 328.273C237.247 328.278 237.402 328.252 237.547 328.196C237.691 328.14 237.824 328.056 237.935 327.949C238.047 327.841 238.136 327.712 238.198 327.57C238.259 327.427 238.291 327.274 238.292 327.118H240.386C240.373 327.522 240.278 327.919 240.106 328.284C239.934 328.65 239.689 328.977 239.387 329.245C239.084 329.512 238.73 329.716 238.347 329.842C237.963 329.968 237.558 330.015 237.155 329.979Z" fill="white"/>
<path d="M247.931 326.568C247.941 327.252 247.748 327.925 247.375 328.499C247.003 329.073 246.468 329.523 245.838 329.792C245.209 330.061 244.514 330.137 243.841 330.009C243.169 329.881 242.549 329.557 242.062 329.076C241.575 328.595 241.242 327.98 241.105 327.309C240.969 326.639 241.035 325.943 241.296 325.31C241.556 324.677 242 324.136 242.569 323.756C243.138 323.375 243.808 323.173 244.492 323.175C244.948 323.144 245.405 323.21 245.834 323.368C246.262 323.527 246.652 323.775 246.977 324.096C247.302 324.417 247.555 324.803 247.72 325.23C247.884 325.656 247.956 326.112 247.931 326.568ZM243.138 326.568C243.138 327.561 243.626 328.292 244.492 328.292C245.359 328.292 245.837 327.561 245.837 326.568C245.837 325.575 245.349 324.854 244.492 324.854C243.635 324.854 243.138 325.575 243.138 326.568Z" fill="white"/>
<path d="M259.599 325.873V329.798H257.434V326.189C257.434 325.467 257.055 325.061 256.531 325.061C256.008 325.061 255.43 325.494 255.43 326.342V329.798H253.264V326.189C253.264 325.467 252.876 325.061 252.362 325.061C251.847 325.061 251.252 325.494 251.252 326.342V329.798H249.095V323.319H251.252V324.42C251.409 324.03 251.684 323.699 252.038 323.473C252.392 323.246 252.808 323.136 253.228 323.157C253.642 323.129 254.055 323.231 254.408 323.45C254.76 323.668 255.036 323.992 255.195 324.375C255.407 323.99 255.722 323.672 256.105 323.457C256.487 323.242 256.923 323.138 257.361 323.157C258.634 323.175 259.599 324.059 259.599 325.873Z" fill="white"/>
<path d="M271.575 325.873V329.798H269.409V326.189C269.409 325.467 269.03 325.061 268.507 325.061C267.983 325.061 267.406 325.494 267.406 326.342V329.798H265.24V326.189C265.24 325.467 264.852 325.061 264.337 325.061C263.652 325.061 263.218 325.494 263.218 326.342V329.798H261.062V323.319H263.218V324.42C263.377 324.031 263.652 323.701 264.006 323.474C264.36 323.248 264.775 323.137 265.195 323.157C265.609 323.129 266.021 323.231 266.374 323.45C266.727 323.668 267.003 323.992 267.162 324.375C267.375 323.992 267.691 323.675 268.073 323.46C268.455 323.245 268.89 323.14 269.328 323.157C270.61 323.175 271.575 324.059 271.575 325.873Z" fill="white"/>
<path d="M279.472 329.799H277.306V328.725C277.142 329.102 276.866 329.419 276.516 329.634C276.166 329.848 275.758 329.95 275.348 329.925C273.958 329.925 272.92 329.023 272.92 327.218V323.292H275.086V326.776C275.086 327.579 275.465 328.066 276.051 328.066C276.638 328.066 277.306 327.579 277.306 326.532V323.292H279.472V329.799Z" fill="white"/>
<path d="M287.477 325.738V329.799H285.32V326.315C285.32 325.512 284.95 325.025 284.345 325.025C283.74 325.025 283.09 325.512 283.09 326.559V329.799H280.934V323.319H283.09V324.474C283.251 324.07 283.534 323.726 283.9 323.49C284.265 323.254 284.695 323.137 285.13 323.157C285.461 323.148 285.79 323.211 286.095 323.34C286.399 323.47 286.672 323.664 286.895 323.909C287.118 324.154 287.285 324.444 287.386 324.76C287.486 325.076 287.517 325.409 287.477 325.738Z" fill="white"/>
<path d="M288.722 320.621H291.294V322.426H288.722V320.621ZM288.929 323.328H291.086V329.798H288.929V323.328Z" fill="white"/>
<path d="M295.68 329.979C295.233 329.979 294.79 329.891 294.378 329.72C293.965 329.549 293.59 329.298 293.274 328.983C292.958 328.667 292.707 328.292 292.536 327.879C292.365 327.466 292.277 327.024 292.277 326.577C292.277 326.13 292.365 325.688 292.536 325.275C292.707 324.862 292.958 324.487 293.274 324.171C293.59 323.855 293.965 323.605 294.378 323.434C294.79 323.263 295.233 323.175 295.68 323.175C296.069 323.138 296.461 323.179 296.834 323.295C297.207 323.412 297.553 323.602 297.851 323.854C298.15 324.107 298.395 324.416 298.572 324.764C298.749 325.112 298.855 325.492 298.883 325.882H296.79C296.785 325.733 296.751 325.586 296.689 325.45C296.628 325.313 296.54 325.191 296.431 325.088C296.322 324.986 296.194 324.906 296.054 324.854C295.915 324.801 295.766 324.776 295.616 324.781C294.777 324.781 294.29 325.467 294.29 326.532C294.29 327.597 294.777 328.273 295.616 328.273C295.771 328.277 295.925 328.25 296.07 328.194C296.214 328.138 296.346 328.053 296.457 327.946C296.569 327.838 296.658 327.71 296.72 327.568C296.781 327.426 296.814 327.273 296.817 327.118H298.91C298.896 327.522 298.8 327.918 298.628 328.283C298.455 328.648 298.211 328.974 297.909 329.241C297.606 329.509 297.253 329.712 296.87 329.839C296.487 329.966 296.082 330.013 295.68 329.979Z" fill="white"/>
<path d="M305.851 325.656V329.798H303.775V328.977H303.721C303.493 329.291 303.186 329.54 302.831 329.698C302.476 329.857 302.086 329.919 301.7 329.879C300.436 329.879 299.552 329.185 299.552 328.075C299.552 326.965 300.517 325.837 303.27 325.837H303.775V325.683C303.784 325.559 303.765 325.433 303.72 325.317C303.675 325.2 303.605 325.095 303.514 325.009C303.424 324.923 303.315 324.857 303.196 324.818C303.078 324.779 302.952 324.766 302.828 324.781C302.259 324.781 301.925 325.07 301.871 325.539H299.859C299.859 324.005 301.122 323.247 302.855 323.247C304.813 323.175 305.851 324.05 305.851 325.656ZM303.775 327.389V327.019H303.279C302.061 327.019 301.7 327.389 301.7 327.831C301.7 328.273 302.034 328.472 302.512 328.472C302.666 328.487 302.823 328.47 302.971 328.423C303.119 328.376 303.256 328.3 303.374 328.199C303.492 328.098 303.588 327.974 303.657 327.835C303.726 327.696 303.766 327.544 303.775 327.389Z" fill="white"/>
<path d="M309.777 324.989V327.281C309.766 327.402 309.781 327.524 309.823 327.639C309.864 327.753 309.93 327.857 310.016 327.943C310.103 328.03 310.207 328.096 310.321 328.137C310.436 328.179 310.558 328.194 310.679 328.183C311.041 328.18 311.395 328.074 311.699 327.876V329.681C311.254 329.903 310.761 330.011 310.264 329.997C308.667 329.997 307.602 329.095 307.602 327.696V324.989H306.546V323.337C306.684 323.358 306.825 323.347 306.959 323.303C307.092 323.26 307.213 323.187 307.313 323.089C307.412 322.991 307.488 322.871 307.533 322.739C307.579 322.606 307.593 322.465 307.575 322.327V321.424H309.741V323.292H311.798V324.944L309.777 324.989Z" fill="white"/>
<path d="M312.629 320.621H315.201V322.426H312.629V320.621ZM312.836 323.328H314.993V329.798H312.836V323.328Z" fill="white"/>
<path d="M323.007 326.568C323.017 327.252 322.824 327.925 322.452 328.499C322.079 329.073 321.544 329.523 320.914 329.792C320.285 330.061 319.59 330.137 318.917 330.009C318.245 329.881 317.625 329.557 317.138 329.076C316.651 328.595 316.318 327.98 316.181 327.309C316.045 326.639 316.111 325.943 316.372 325.31C316.633 324.677 317.076 324.136 317.645 323.756C318.214 323.375 318.884 323.173 319.568 323.175C320.024 323.144 320.481 323.21 320.91 323.368C321.338 323.527 321.728 323.775 322.053 324.096C322.378 324.417 322.631 324.803 322.796 325.23C322.96 325.656 323.032 326.112 323.007 326.568ZM318.215 326.568C318.215 327.561 318.693 328.292 319.568 328.292C320.444 328.292 320.904 327.561 320.904 326.568C320.904 325.575 320.426 324.854 319.568 324.854C318.711 324.854 318.215 325.575 318.215 326.568Z" fill="white"/>
<path d="M330.651 325.738V329.798H328.485V326.315C328.485 325.512 328.124 325.025 327.519 325.025C326.915 325.025 326.265 325.512 326.265 326.559V329.798H324.126V323.319H326.292V324.474C326.451 324.071 326.732 323.727 327.096 323.491C327.46 323.254 327.889 323.138 328.322 323.157C328.652 323.15 328.979 323.215 329.281 323.346C329.584 323.477 329.855 323.671 330.075 323.916C330.296 324.161 330.462 324.45 330.561 324.764C330.66 325.079 330.691 325.411 330.651 325.738Z" fill="white"/>
<path d="M273.958 343.335V344.986H267.938V343.741L271.169 340.131H267.938V338.489H273.859V339.806L270.772 343.335H273.958Z" fill="white"/>
<path d="M281.503 341.728C281.514 342.413 281.32 343.085 280.948 343.659C280.575 344.233 280.04 344.683 279.411 344.952C278.781 345.221 278.086 345.297 277.413 345.169C276.741 345.042 276.121 344.717 275.634 344.236C275.147 343.755 274.814 343.14 274.678 342.47C274.541 341.799 274.607 341.103 274.868 340.47C275.129 339.837 275.572 339.296 276.141 338.916C276.71 338.536 277.38 338.334 278.064 338.335C278.52 338.304 278.977 338.37 279.406 338.528C279.834 338.687 280.224 338.935 280.549 339.256C280.874 339.577 281.127 339.963 281.292 340.39C281.456 340.816 281.528 341.272 281.503 341.728ZM276.711 341.728C276.711 342.721 277.189 343.452 278.064 343.452C278.94 343.452 279.4 342.721 279.4 341.728C279.4 340.736 278.922 340.014 278.064 340.014C277.207 340.014 276.711 340.736 276.711 341.728Z" fill="white"/>
<path d="M289.146 340.898V344.977H286.989V341.53C286.989 340.727 286.619 340.239 286.015 340.239C285.41 340.239 284.76 340.727 284.76 341.773V345.013H282.612V338.534H284.778V339.689C284.939 339.284 285.222 338.94 285.588 338.704C285.953 338.468 286.383 338.352 286.818 338.371C287.142 338.366 287.464 338.429 287.762 338.557C288.061 338.685 288.329 338.874 288.548 339.113C288.768 339.351 288.935 339.634 289.038 339.941C289.141 340.249 289.178 340.575 289.146 340.898Z" fill="white"/>
<path d="M290.202 341.737C290.171 341.285 290.236 340.83 290.394 340.405C290.552 339.98 290.799 339.593 291.119 339.271C291.438 338.949 291.823 338.699 292.247 338.537C292.671 338.376 293.125 338.307 293.578 338.335C295.771 338.335 296.853 339.752 296.853 341.873V342.188H292.278V342.243C292.278 342.595 292.417 342.934 292.666 343.184C292.915 343.434 293.252 343.576 293.605 343.578C293.847 343.604 294.09 343.549 294.298 343.422C294.505 343.294 294.664 343.102 294.751 342.874H296.799C296.631 343.572 296.216 344.186 295.63 344.603C295.045 345.019 294.329 345.209 293.614 345.139C293.158 345.173 292.7 345.108 292.272 344.949C291.843 344.79 291.454 344.541 291.13 344.218C290.807 343.895 290.556 343.507 290.396 343.079C290.236 342.651 290.17 342.193 290.202 341.737ZM294.832 341.042C294.842 340.877 294.818 340.71 294.759 340.555C294.701 340.399 294.611 340.257 294.494 340.139C294.377 340.021 294.237 339.928 294.082 339.868C293.927 339.807 293.762 339.78 293.596 339.788C293.43 339.784 293.265 339.814 293.111 339.876C292.957 339.938 292.818 340.03 292.7 340.147C292.583 340.264 292.491 340.404 292.429 340.558C292.367 340.712 292.337 340.877 292.341 341.042H294.832Z" fill="white"/>
<path d="M522.805 265.304L520.928 271.774H518.816L517.805 268.057L516.785 271.774H514.683L512.814 265.304H514.935L515.937 269.194L516.984 265.304H518.626L519.682 269.194L520.666 265.304H522.805Z" fill="white"/>
<path d="M530.06 268.526C530.073 269.21 529.881 269.883 529.51 270.459C529.138 271.034 528.604 271.486 527.974 271.756C527.345 272.026 526.65 272.103 525.977 271.977C525.303 271.85 524.683 271.526 524.195 271.046C523.707 270.565 523.373 269.95 523.236 269.279C523.099 268.608 523.164 267.912 523.425 267.278C523.685 266.645 524.128 266.103 524.698 265.723C525.267 265.342 525.937 265.14 526.622 265.142C527.077 265.109 527.534 265.173 527.963 265.331C528.391 265.489 528.781 265.736 529.106 266.056C529.432 266.376 529.685 266.762 529.849 267.188C530.014 267.614 530.086 268.07 530.06 268.526ZM525.268 268.526C525.268 269.527 525.756 270.258 526.622 270.258C527.488 270.258 527.967 269.527 527.967 268.526C527.967 267.524 527.488 266.82 526.622 266.82C525.756 266.82 525.268 267.533 525.268 268.526Z" fill="white"/>
<path d="M536.017 265.232V267.425C533.887 267.2 533.309 267.894 533.309 269.51V271.775H531.152V265.305H533.309V267.109C533.697 265.729 534.564 265.232 536.017 265.232Z" fill="white"/>
<path d="M540.104 269.212H539.13V271.775H536.973V262.931H539.13V267.254H540.095L541.259 265.304H543.732L541.783 268.174L543.94 271.784H541.431L540.104 269.212Z" fill="white"/>
<path d="M544.536 262.588H547.108V264.393H544.536V262.588ZM544.744 265.295H546.901V271.765H544.744V265.295Z" fill="white"/>
<path d="M554.941 267.705V271.775H552.775V268.3C552.775 267.488 552.414 267.01 551.8 267.01C551.186 267.01 550.555 267.488 550.555 268.544V271.775H548.389V265.304H550.555V266.45C550.716 266.049 550.999 265.708 551.362 265.474C551.726 265.24 552.153 265.124 552.585 265.142C552.915 265.132 553.244 265.193 553.548 265.321C553.852 265.45 554.125 265.642 554.349 265.885C554.572 266.128 554.741 266.416 554.843 266.731C554.945 267.045 554.978 267.377 554.941 267.705Z" fill="white"/>
<path d="M562.847 265.304V271.666C562.847 273.344 561.448 274.427 559.472 274.427C557.495 274.427 556.187 273.597 556.033 271.919H558.208C558.273 272.197 558.437 272.442 558.67 272.609C558.902 272.775 559.187 272.85 559.472 272.821C559.62 272.84 559.77 272.828 559.913 272.786C560.056 272.744 560.189 272.673 560.304 272.577C560.418 272.481 560.511 272.363 560.578 272.23C560.645 272.096 560.683 271.95 560.69 271.801V270.628C560.493 270.922 560.224 271.16 559.907 271.318C559.591 271.476 559.239 271.55 558.885 271.531C558.475 271.54 558.067 271.463 557.69 271.303C557.312 271.143 556.972 270.904 556.694 270.603C556.416 270.301 556.205 269.944 556.075 269.555C555.946 269.166 555.901 268.753 555.943 268.345C555.943 266.387 557.098 265.124 558.867 265.124C559.22 265.106 559.572 265.18 559.888 265.338C560.204 265.496 560.474 265.733 560.672 266.026V265.268L562.847 265.304ZM560.78 268.354V268.273C560.801 268.083 560.781 267.89 560.722 267.708C560.663 267.526 560.567 267.358 560.44 267.215C560.312 267.072 560.156 266.958 559.982 266.879C559.807 266.8 559.618 266.758 559.427 266.757C559.231 266.762 559.038 266.807 558.86 266.892C558.683 266.976 558.526 267.096 558.398 267.245C558.27 267.394 558.176 267.568 558.12 267.756C558.064 267.944 558.048 268.142 558.073 268.336C558.073 269.311 558.615 269.996 559.427 269.996C560.239 269.996 560.78 269.338 560.78 268.354Z" fill="white"/>
<path d="M529.78 285.293V286.935H523.77V285.699L526.991 282.089H523.77V280.447H529.681V281.764L526.603 285.275L529.78 285.293Z" fill="white"/>
<path d="M537.325 283.686C537.338 284.371 537.146 285.044 536.774 285.619C536.403 286.194 535.868 286.646 535.239 286.917C534.61 287.187 533.914 287.264 533.241 287.137C532.568 287.011 531.948 286.687 531.46 286.206C530.972 285.726 530.638 285.111 530.501 284.44C530.363 283.769 530.429 283.072 530.689 282.439C530.95 281.806 531.393 281.264 531.962 280.883C532.532 280.503 533.202 280.301 533.887 280.302C534.342 280.269 534.799 280.334 535.227 280.492C535.656 280.65 536.046 280.897 536.371 281.217C536.696 281.537 536.95 281.923 537.114 282.349C537.279 282.774 537.35 283.23 537.325 283.686ZM532.533 283.686C532.533 284.688 533.02 285.419 533.887 285.419C534.753 285.419 535.231 284.688 535.231 283.686C535.231 282.685 534.753 281.981 533.887 281.981C533.02 281.981 532.533 282.703 532.533 283.686Z" fill="white"/>
<path d="M544.969 282.874V286.943H542.812V283.469C542.812 282.657 542.442 282.179 541.837 282.179C541.232 282.179 540.583 282.657 540.583 283.713V286.943H538.426V280.473H540.583V281.619C540.745 281.217 541.028 280.875 541.394 280.64C541.759 280.406 542.189 280.291 542.622 280.311C542.952 280.302 543.279 280.364 543.582 280.493C543.885 280.622 544.157 280.814 544.38 281.057C544.602 281.3 544.77 281.588 544.871 281.902C544.973 282.215 545.006 282.546 544.969 282.874Z" fill="white"/>
<path d="M546.033 283.704C546.002 283.251 546.067 282.797 546.225 282.372C546.383 281.947 546.63 281.56 546.95 281.238C547.269 280.916 547.654 280.666 548.078 280.504C548.502 280.343 548.956 280.274 549.409 280.302C551.593 280.302 552.676 281.719 552.676 283.839V284.155H548.1V284.209C548.102 284.561 548.243 284.898 548.491 285.148C548.739 285.398 549.075 285.54 549.427 285.545C549.67 285.57 549.914 285.514 550.123 285.387C550.331 285.26 550.492 285.068 550.582 284.841H552.63C552.457 285.536 552.04 286.145 551.455 286.559C550.871 286.973 550.158 287.164 549.445 287.097C548.989 287.132 548.532 287.068 548.103 286.91C547.675 286.752 547.286 286.504 546.962 286.182C546.638 285.86 546.387 285.472 546.227 285.044C546.067 284.617 546.001 284.159 546.033 283.704ZM550.654 283.009C550.666 282.843 550.642 282.676 550.584 282.52C550.527 282.364 550.436 282.221 550.319 282.103C550.202 281.984 550.061 281.892 549.906 281.832C549.751 281.772 549.584 281.745 549.418 281.755C549.252 281.752 549.088 281.783 548.935 281.845C548.781 281.908 548.642 282 548.525 282.117C548.408 282.234 548.316 282.373 548.254 282.526C548.192 282.68 548.161 282.844 548.163 283.009H550.654Z" fill="white"/>
<path d="M360.008 16.6673C359.476 16.6673 359.178 16.8929 359.178 17.2087C359.178 17.5246 359.53 17.678 360.423 17.8585C361.93 18.1472 363.031 18.3999 363.031 19.9249C363.031 21.45 362.03 22.0817 360.135 22.0817C358.239 22.0817 357.102 21.2244 357.003 19.6181H358.898C358.93 19.9078 359.073 20.1738 359.297 20.3606C359.52 20.5473 359.808 20.6402 360.098 20.6198C360.631 20.6198 361.001 20.4483 361.001 20.0332C361.001 19.6181 360.73 19.5911 359.629 19.3655C358.14 19.0586 357.192 18.7428 357.192 17.317C357.192 15.8912 358.266 15.2866 360.026 15.2866C361.786 15.2866 362.851 16.0266 362.986 17.4975H361.037C360.974 16.956 360.64 16.6673 360.008 16.6673Z" fill="white"/>
<path d="M364.06 15.4313H366.226V16.3337C366.419 15.9986 366.7 15.7229 367.039 15.5367C367.378 15.3505 367.761 15.261 368.148 15.2779C369.953 15.2779 371.072 16.6495 371.072 18.716C371.072 20.7825 369.971 22.0729 368.148 22.0729C367.768 22.0952 367.389 22.0148 367.051 21.8401C366.712 21.6655 366.427 21.403 366.226 21.0803V24.4372H364.06V15.4313ZM368.951 18.707C368.951 17.6061 368.346 16.9744 367.561 16.9744C366.776 16.9744 366.171 17.579 366.171 18.6528V18.725C366.139 18.9263 366.15 19.1322 366.205 19.3286C366.26 19.5249 366.357 19.707 366.489 19.8623C366.621 20.0175 366.786 20.1422 366.971 20.2277C367.156 20.3132 367.357 20.3575 367.561 20.3575C367.765 20.3575 367.967 20.3132 368.152 20.2277C368.337 20.1422 368.501 20.0175 368.633 19.8623C368.765 19.707 368.862 19.5249 368.917 19.3286C368.972 19.1322 368.984 18.9263 368.951 18.725V18.707Z" fill="white"/>
<path d="M371.957 12.7148H374.529V14.5196H371.957V12.7148ZM372.165 15.422H374.321V21.8922H372.165V15.422Z" fill="white"/>
<path d="M378.049 13.0576V21.9101H375.892V13.0576H378.049Z" fill="white"/>
<path d="M381.749 13.0576V21.9101H379.592V13.0576H381.749Z" fill="white"/>
<path d="M391.648 20.277V21.9194H385.629V20.6831L388.851 17.0735H385.629V15.4312H391.549V16.7396L388.463 20.259L391.648 20.277Z" fill="white"/>
<path d="M399.193 18.6523C399.206 19.337 399.014 20.01 398.643 20.5853C398.271 21.1606 397.737 21.6123 397.107 21.8826C396.478 22.153 395.782 22.2298 395.109 22.1033C394.436 21.9768 393.816 21.6526 393.328 21.1723C392.84 20.6919 392.506 20.077 392.369 19.406C392.232 18.7351 392.297 18.0385 392.558 17.4051C392.818 16.7716 393.261 16.2301 393.831 15.8496C394.4 15.469 395.07 15.2667 395.755 15.2683C396.21 15.237 396.666 15.3027 397.094 15.4609C397.522 15.6192 397.911 15.8664 398.236 16.1863C398.561 16.5062 398.814 16.8914 398.979 17.3165C399.144 17.7416 399.217 18.1969 399.193 18.6523ZM394.401 18.6523C394.401 19.654 394.879 20.3849 395.755 20.3849C396.63 20.3849 397.09 19.654 397.09 18.6523C397.09 17.6507 396.612 16.9468 395.755 16.9468C394.897 16.9468 394.401 17.6687 394.401 18.6523Z" fill="white"/>
<path d="M406.837 17.8312V21.901H404.671V18.4719C404.671 17.6597 404.301 17.1815 403.696 17.1815C403.092 17.1815 402.451 17.6597 402.451 18.7065V21.9461H400.285V15.4759H402.451V16.622C402.611 16.2193 402.892 15.8766 403.256 15.6419C403.62 15.4073 404.049 15.2924 404.482 15.3135C404.807 15.3044 405.132 15.3646 405.432 15.4901C405.733 15.6156 406.004 15.8036 406.227 16.0417C406.449 16.2797 406.619 16.5623 406.724 16.8708C406.829 17.1793 406.868 17.5067 406.837 17.8312Z" fill="white"/>
<path d="M407.893 18.6614C407.861 18.2092 407.927 17.7554 408.085 17.3305C408.243 16.9056 408.49 16.5195 408.81 16.1981C409.129 15.8767 409.514 15.6274 409.938 15.467C410.362 15.3067 410.816 15.239 411.268 15.2684C413.452 15.2684 414.544 16.6762 414.544 18.8058V19.1217H409.969V19.1668C409.969 19.5203 410.108 19.8596 410.356 20.1112C410.605 20.3629 410.942 20.5066 411.295 20.5113C411.539 20.5366 411.783 20.4802 411.991 20.3511C412.198 20.2221 412.357 20.0276 412.442 19.7985H414.49C414.324 20.4991 413.91 21.1159 413.324 21.5355C412.739 21.955 412.021 22.1489 411.304 22.0815C410.847 22.1153 410.388 22.05 409.958 21.89C409.528 21.7299 409.138 21.4789 408.814 21.1542C408.49 20.8295 408.24 20.4386 408.081 20.0084C407.922 19.5782 407.858 19.1187 407.893 18.6614ZM412.514 17.9666C412.526 17.8008 412.502 17.6343 412.444 17.4784C412.386 17.3225 412.296 17.1808 412.179 17.0628C412.062 16.9448 411.921 16.8533 411.765 16.7944C411.61 16.7355 411.443 16.7105 411.277 16.7213C411.113 16.7189 410.95 16.7494 410.798 16.8111C410.646 16.8729 410.507 16.9645 410.391 17.0806C410.275 17.1967 410.184 17.335 410.122 17.4872C410.06 17.6394 410.03 17.8024 410.032 17.9666H412.514Z" fill="white"/>
<path d="M187.493 106.805L167.498 115.9L167.961 116.918L187.956 107.824L187.493 106.805Z" fill="#132BE2"/>
<path d="M187.5 110.358L167.505 119.453L167.968 120.471L187.963 111.377L187.5 110.358Z" fill="#132BE2"/>
<path d="M187.497 113.903L167.502 122.997L167.965 124.016L187.96 114.921L187.497 113.903Z" fill="#132BE2"/>
<path d="M187.491 117.438L167.496 126.533L167.959 127.551L187.954 118.457L187.491 117.438Z" fill="#132BE2"/>
<path d="M187.489 120.991L167.494 130.085L167.957 131.104L187.952 122.009L187.489 120.991Z" fill="#132BE2"/>
<path d="M204.042 146.846L186.158 154.98L186.622 155.999L204.505 147.864L204.042 146.846Z" fill="#132BE2"/>
<path d="M185.43 136.013L167.547 144.147L168.01 145.166L185.894 137.032L185.43 136.013Z" fill="#132BE2"/>
<path d="M167.843 146.381L167.377 147.398L186.176 156.005L186.642 154.987L167.843 146.381Z" fill="#132BE2"/>
<path d="M168.297 111.383H167.178V157.576H168.297V111.383Z" fill="#132BE2"/>
<path d="M188.295 102.846H187.176V149.942H188.295V102.846Z" fill="#132BE2"/>
<path d="M186.96 140.097H185.841V166.285H186.96V140.097Z" fill="#132BE2"/>
<path d="M204.838 133.87H203.719V157.684H204.838V133.87Z" fill="#132BE2"/>
<path d="M205.831 134.222L186.085 143.201L168.135 134.935L187.845 125.938L205.831 134.222Z" fill="#132BE2"/>
<path d="M224.04 89.2214L204.045 98.3159L204.508 99.3345L224.503 90.24L224.04 89.2214Z" fill="#132BE2"/>
<path d="M224.033 92.7571L204.038 101.852L204.501 102.87L224.496 93.7756L224.033 92.7571Z" fill="#132BE2"/>
<path d="M224.031 96.3103L204.036 105.405L204.499 106.423L224.494 97.3289L224.031 96.3103Z" fill="#132BE2"/>
<path d="M224.038 99.8542L204.043 108.949L204.506 109.967L224.501 100.873L224.038 99.8542Z" fill="#132BE2"/>
<path d="M224.035 103.398L204.04 112.493L204.503 113.511L224.498 104.417L224.035 103.398Z" fill="#132BE2"/>
<path d="M240.579 129.262L222.695 137.396L223.159 138.415L241.042 130.28L240.579 129.262Z" fill="#132BE2"/>
<path d="M221.968 118.42L204.085 126.555L204.548 127.573L222.432 119.439L221.968 118.42Z" fill="#132BE2"/>
<path d="M204.385 128.794L203.919 129.812L222.718 138.418L223.184 137.4L204.385 128.794Z" fill="#132BE2"/>
<path d="M204.838 93.7861H203.719V141.785H204.838V93.7861Z" fill="#132BE2"/>
<path d="M224.837 85.249H223.718V132.345H224.837V85.249Z" fill="#132BE2"/>
<path d="M223.501 122.509H222.382V148.697H223.501V122.509Z" fill="#132BE2"/>
<path d="M241.379 116.273H240.26V140.088H241.379V116.273Z" fill="#132BE2"/>
<path d="M242.371 116.635L222.625 125.613L204.666 117.347L224.385 108.351L242.371 116.635Z" fill="#132BE2"/>
<path d="M467.185 46.6178L467.6 45.5981L449.515 36.502L449.1 37.5217L467.185 46.6178Z" fill="#132BE2"/>
<path d="M467.185 50.1642L467.6 49.1445L449.515 40.0483L449.1 41.068L467.185 50.1642Z" fill="#132BE2"/>
<path d="M467.185 53.7106L467.6 52.6909L449.515 43.5947L449.1 44.6144L467.185 53.7106Z" fill="#132BE2"/>
<path d="M467.185 57.257L467.6 56.2373L449.515 47.1411L449.1 48.1608L467.185 57.257Z" fill="#132BE2"/>
<path d="M467.185 60.8034L467.6 59.7837L449.515 50.6875L449.1 51.7072L467.185 60.8034Z" fill="#132BE2"/>
<path d="M450.309 85.7006L450.733 84.6809L434.561 76.5503L434.146 77.561L450.309 85.7006Z" fill="#132BE2"/>
<path d="M467.14 74.8627L467.564 73.843L451.392 65.7124L450.977 66.7321L467.14 74.8627Z" fill="#132BE2"/>
<path d="M450.733 85.6918L467.726 77.092L467.311 76.0723L450.309 84.6811L450.733 85.6918Z" fill="#132BE2"/>
<path d="M467.898 41.0952H466.888V87.2888H467.898V41.0952Z" fill="#132BE2"/>
<path d="M449.812 32.5586H448.802V79.6546H449.812V32.5586Z" fill="#132BE2"/>
<path d="M451.022 69.8184H450.012V96.0059H451.022V69.8184Z" fill="#132BE2"/>
<path d="M434.858 63.583H433.848V87.3972H434.858V63.583Z" fill="#132BE2"/>
<path d="M432.945 63.9439L450.805 72.9227L467.041 64.6478L449.217 55.6509L432.945 63.9439Z" fill="#132BE2"/>
<path d="M245.557 211.368V296.058L286.276 278.091V226.51L319.613 210.465V263.382L507.453 180.506L507.534 89.5625L245.557 211.368ZM498.555 166.97L478.448 176.644V159.498L498.546 149.824L498.555 166.97ZM498.555 143.851L478.448 153.524V136.379L498.546 126.705L498.555 143.851ZM498.555 120.74L478.448 130.414V113.223L498.546 103.55L498.555 120.74Z" fill="black"/>
<path d="M468.241 244.694H370.07L352.057 260.513L351.705 229.904V209.897H468.241V244.694Z" fill="#132BE2"/>
<path d="M365.847 226.628V228.929C365.834 229.05 365.849 229.173 365.89 229.289C365.93 229.404 365.997 229.509 366.083 229.595C366.17 229.682 366.274 229.748 366.39 229.789C366.505 229.829 366.628 229.844 366.749 229.831C367.11 229.828 367.463 229.725 367.769 229.533V231.338C367.321 231.561 366.825 231.669 366.325 231.654C364.737 231.654 363.672 230.752 363.672 229.353V226.646H362.616V225.003C362.755 225.026 362.897 225.015 363.032 224.973C363.166 224.93 363.288 224.857 363.389 224.759C363.49 224.661 363.566 224.54 363.612 224.407C363.658 224.274 363.673 224.132 363.654 223.993V223.09H365.82V224.967H367.878V226.61L365.847 226.628Z" fill="white"/>
<path d="M373.762 224.904V227.106C371.641 226.88 371.054 227.575 371.054 229.191V231.438H368.897V224.967H371.054V226.772C371.183 226.175 371.535 225.649 372.038 225.302C372.541 224.955 373.157 224.812 373.762 224.904Z" fill="white"/>
<path d="M380.35 227.295V231.437H378.274V230.616C378.046 230.931 377.739 231.18 377.384 231.339C377.029 231.497 376.639 231.559 376.252 231.519C374.989 231.519 374.104 230.824 374.104 229.714C374.104 228.604 375.061 227.476 377.814 227.476H378.274V227.322C378.282 227.202 378.264 227.081 378.221 226.968C378.179 226.855 378.113 226.752 378.027 226.667C377.942 226.581 377.839 226.515 377.726 226.472C377.613 226.43 377.492 226.412 377.371 226.42C376.803 226.42 376.469 226.709 376.415 227.178H374.402C374.402 225.644 375.666 224.886 377.399 224.886C379.312 224.814 380.35 225.689 380.35 227.295ZM378.274 229.028V228.658H377.787C376.559 228.658 376.207 229.028 376.207 229.47C376.207 229.912 376.532 230.111 377.01 230.111C377.165 230.126 377.321 230.109 377.469 230.062C377.617 230.015 377.754 229.939 377.872 229.838C377.99 229.737 378.087 229.613 378.156 229.474C378.225 229.335 378.265 229.183 378.274 229.028Z" fill="white"/>
<path d="M388.327 227.385V231.437H386.161V227.963C386.161 227.151 385.791 226.672 385.187 226.672C384.582 226.672 383.941 227.151 383.941 228.197V231.437H381.775V224.967H383.941V226.113C384.101 225.709 384.382 225.365 384.746 225.129C385.11 224.893 385.538 224.776 385.972 224.795C386.304 224.787 386.634 224.849 386.94 224.98C387.246 225.11 387.52 225.305 387.743 225.55C387.967 225.796 388.135 226.088 388.236 226.404C388.336 226.721 388.368 227.055 388.327 227.385Z" fill="white"/>
<path d="M392.316 226.222C391.784 226.222 391.477 226.447 391.477 226.763C391.477 227.079 391.838 227.232 392.731 227.413C394.238 227.702 395.33 227.954 395.33 229.479C395.33 231.004 394.283 231.618 392.442 231.618C390.601 231.618 389.41 230.761 389.302 229.154H391.197C391.233 229.442 391.377 229.706 391.6 229.892C391.823 230.078 392.108 230.172 392.397 230.156C392.93 230.156 393.3 229.985 393.3 229.57C393.3 229.154 393.038 229.127 391.937 228.902C390.448 228.595 389.5 228.279 389.5 226.853C389.5 225.428 390.574 224.814 392.325 224.814C394.076 224.814 395.159 225.563 395.285 227.034H393.363C393.273 226.51 392.948 226.222 392.316 226.222Z" fill="white"/>
<path d="M396.188 222.26H398.759V224.11H396.188V222.26ZM396.395 224.967H398.552V231.438H396.395V224.967Z" fill="white"/>
<path d="M402.64 226.628V228.929C402.627 229.05 402.642 229.173 402.683 229.289C402.724 229.404 402.79 229.509 402.876 229.595C402.963 229.682 403.067 229.748 403.183 229.789C403.298 229.829 403.421 229.844 403.543 229.831C403.903 229.828 404.256 229.725 404.562 229.533V231.338C404.114 231.561 403.618 231.669 403.118 231.654C401.53 231.654 400.465 230.752 400.465 229.353V226.646H399.409V225.003C399.548 225.026 399.69 225.015 399.825 224.973C399.959 224.93 400.081 224.857 400.182 224.759C400.283 224.661 400.36 224.54 400.406 224.407C400.451 224.274 400.466 224.132 400.447 223.993V223.09H402.64V224.967H404.698V226.61L402.64 226.628Z" fill="white"/>
<path d="M405.528 222.26H408.055V224.11H405.528V222.26ZM405.727 224.967H407.893V231.438H405.727V224.967Z" fill="white"/>
<path d="M415.907 228.207C415.918 228.891 415.725 229.563 415.352 230.137C414.979 230.712 414.444 231.162 413.815 231.431C413.185 231.7 412.49 231.775 411.818 231.648C411.145 231.52 410.526 231.195 410.039 230.714C409.551 230.234 409.218 229.619 409.082 228.948C408.945 228.277 409.012 227.581 409.272 226.948C409.533 226.315 409.976 225.774 410.545 225.394C411.115 225.014 411.784 224.812 412.469 224.814C412.925 224.782 413.382 224.848 413.81 225.007C414.238 225.166 414.628 225.414 414.953 225.735C415.279 226.056 415.532 226.442 415.696 226.868C415.861 227.294 415.933 227.751 415.907 228.207ZM411.115 228.207C411.115 229.199 411.593 229.939 412.469 229.939C413.344 229.939 413.804 229.199 413.804 228.207C413.804 227.214 413.326 226.501 412.469 226.501C411.611 226.501 411.115 227.223 411.115 228.207Z" fill="white"/>
<path d="M423.551 227.385V231.437H421.385V227.963C421.385 227.151 421.024 226.672 420.41 226.672C419.797 226.672 419.165 227.151 419.165 228.197V231.437H416.999V224.967H419.165V226.113C419.324 225.709 419.605 225.365 419.969 225.129C420.333 224.893 420.762 224.776 421.196 224.795C421.528 224.787 421.858 224.849 422.164 224.98C422.469 225.11 422.743 225.305 422.967 225.55C423.191 225.796 423.359 226.088 423.459 226.404C423.56 226.721 423.591 227.055 423.551 227.385Z" fill="white"/>
<path d="M433.325 229.813V231.437H427.314V230.192L430.536 226.582H427.314V224.94H433.226V226.248L430.139 229.768L433.325 229.813Z" fill="white"/>
<path d="M440.905 228.207C440.916 228.891 440.723 229.563 440.35 230.138C439.977 230.712 439.442 231.162 438.813 231.431C438.183 231.7 437.488 231.775 436.816 231.648C436.143 231.52 435.524 231.195 435.037 230.715C434.549 230.234 434.216 229.619 434.08 228.948C433.943 228.278 434.01 227.581 434.27 226.949C434.531 226.316 434.974 225.775 435.543 225.395C436.113 225.014 436.782 224.812 437.467 224.814C437.923 224.781 438.381 224.846 438.81 225.004C439.239 225.162 439.629 225.41 439.955 225.732C440.28 226.053 440.533 226.44 440.697 226.867C440.861 227.294 440.932 227.751 440.905 228.207ZM436.113 228.207C436.113 229.2 436.6 229.94 437.467 229.94C438.333 229.94 438.811 229.2 438.811 228.207C438.811 227.214 438.324 226.501 437.467 226.501C436.609 226.501 436.113 227.223 436.113 228.207Z" fill="white"/>
<path d="M448.55 227.386V231.438H446.393V227.963C446.393 227.151 446.023 226.673 445.418 226.673C444.814 226.673 444.164 227.151 444.164 228.198V231.438H442.007V224.967H444.155V226.114C444.316 225.709 444.598 225.365 444.964 225.129C445.33 224.893 445.76 224.776 446.194 224.796C446.527 224.786 446.858 224.847 447.164 224.977C447.471 225.107 447.745 225.302 447.969 225.548C448.193 225.794 448.361 226.086 448.461 226.403C448.561 226.721 448.592 227.056 448.55 227.386Z" fill="white"/>
<path d="M449.569 228.216C449.539 227.763 449.605 227.31 449.764 226.885C449.922 226.461 450.17 226.075 450.489 225.753C450.808 225.431 451.192 225.181 451.616 225.019C452.039 224.857 452.492 224.787 452.944 224.814C455.137 224.814 456.22 226.23 456.22 228.36V228.676H451.645V228.73C451.645 229.084 451.784 229.423 452.032 229.674C452.281 229.926 452.618 230.07 452.972 230.075C453.216 230.1 453.462 230.044 453.671 229.915C453.88 229.786 454.04 229.592 454.127 229.362H456.175C456.003 230.058 455.587 230.67 455.003 231.085C454.418 231.501 453.704 231.693 452.99 231.627C452.532 231.662 452.073 231.598 451.642 231.439C451.212 231.28 450.821 231.03 450.497 230.706C450.172 230.382 449.921 229.992 449.761 229.562C449.601 229.132 449.535 228.673 449.569 228.216ZM454.199 227.521C454.209 227.355 454.184 227.189 454.126 227.033C454.068 226.877 453.978 226.736 453.861 226.617C453.744 226.499 453.604 226.407 453.449 226.346C453.294 226.286 453.129 226.259 452.963 226.266C452.797 226.264 452.633 226.295 452.48 226.357C452.326 226.419 452.187 226.511 452.07 226.628C451.953 226.745 451.861 226.885 451.799 227.038C451.736 227.191 451.706 227.355 451.708 227.521H454.199Z" fill="white"/>
<path d="M245.557 211.368V296.058L44.2344 208.742V124.864L128.444 161.05L245.557 211.368Z" fill="black"/>
<path d="M78.7902 218.804V149.247L63.4482 142.38V211.946L78.7902 218.804Z" fill="white"/>
<path d="M81.9483 223.677L60.2891 213.985V137.507L81.9483 147.199V223.677ZM66.6063 209.888L75.631 213.931V151.295L66.6063 147.253V209.888Z" fill="black"/>
<path d="M97.2636 227.043V157.486L81.9307 150.619V220.184L97.2636 227.043Z" fill="white"/>
<path d="M100.431 231.915L78.7715 222.224V145.709L100.431 155.401V231.915ZM85.0888 218.127L94.1134 222.169V159.534L85.0888 155.491V218.127Z" fill="black"/>
<path d="M115.746 235.291V165.725L100.413 158.867V228.423L115.746 235.291Z" fill="white"/>
<path d="M118.913 240.155L97.2539 230.463V153.985L118.913 163.677V240.155ZM103.571 226.366L112.596 230.409V167.773L103.571 163.731V226.366Z" fill="black"/>
<defs>
<radialGradient id="paint0_radial" cx="0" cy="0" r="1" gradientUnits="userSpaceOnUse" gradientTransform="translate(85.75 460) rotate(20.0991) scale(84.3894 204.768)">
<stop stop-color="#132BE2"/>
<stop offset="1" stop-color="#132BE2" stop-opacity="0.7"/>
</radialGradient>
</defs>
</svg>
