<svg width="52" height="52" viewBox="0 0 52 52" fill="none" xmlns="http://www.w3.org/2000/svg">
<g clip-path="url(#clip0)">
<path d="M49.5744 39.071C49.3541 39.071 49.1331 39.1094 48.9177 39.1851L29.7505 45.9222H15.7148V42.8824H25.9415C27.0607 42.8824 27.9713 41.9718 27.9713 40.8526C27.9713 39.7333 27.0608 38.8228 25.9415 38.8228H12.466C8.52452 38.8228 4.81896 40.3576 2.03193 43.1446L-0.347656 45.5243V51.7567H32.0595L50.4305 42.8072C51.1017 42.4802 51.5354 41.7864 51.5354 41.0398C51.5355 39.8238 50.5176 39.071 49.5744 39.071Z" fill="#132BE2"/>
<path d="M19.4688 28.7921L21.3508 32.7012H29.8385L31.7206 28.7921V26.3892H19.4688V28.7921Z" fill="#132BE2"/>
<path d="M18.1776 21.2215C18.8611 21.7619 19.3004 22.5188 19.4285 23.3494H31.7614C31.8914 22.5172 32.3322 21.759 33.0167 21.2172C35.9045 18.9311 37.5607 15.51 37.5607 11.8312C37.5606 5.2329 32.1926 -0.135254 25.5943 -0.135254C25.4402 -0.135254 25.2838 -0.132214 25.1294 -0.126438C22.0296 -0.00859392 19.1312 1.29833 16.9683 3.55369C14.8068 5.80773 13.6205 8.7578 13.628 11.8605C13.6369 15.5305 15.2951 18.9425 18.1776 21.2215Z" fill="#132BE2"/>
<path d="M6.06934 10.3369H10.588V13.3768H6.06934V10.3369Z" fill="#132BE2"/>
<path d="M7.9248 3.41113L9.44472 0.778632L13.3578 3.03794L11.8379 5.67044L7.9248 3.41113Z" fill="#132BE2"/>
<path d="M7.9248 20.3022L11.8379 18.0429L13.3579 20.6754L9.44472 22.9347L7.9248 20.3022Z" fill="#132BE2"/>
<path d="M40.6006 10.3369H45.1192V13.3768H40.6006V10.3369Z" fill="#132BE2"/>
<path d="M37.8291 3.03809L41.7422 0.778776L43.2621 3.41128L39.349 5.67059L37.8291 3.03809Z" fill="#132BE2"/>
<path d="M37.8291 20.6768L39.349 18.0443L43.2622 20.3036L41.7422 22.9361L37.8291 20.6768Z" fill="#132BE2"/>
</g>
<defs>
<clipPath id="clip0">
<rect width="52" height="52" fill="white"/>
</clipPath>
</defs>
</svg>
