<svg viewBox="0 0 48 48" fill="none" xmlns="http://www.w3.org/2000/svg">
<path d="M8.53125 1.40625C8.53125 0.618656 7.91259 0 7.125 0C6.33741 0 5.71875 0.618656 5.71875 1.40625V2.8125H8.53125V1.40625Z" fill="white"/>
<path d="M16.9688 1.40625C16.9688 0.618656 16.3501 0 15.5625 0C14.7749 0 14.1562 0.618656 14.1562 1.40625V2.8125H16.9688V1.40625Z" fill="white"/>
<path d="M33.8438 1.40625C33.8438 0.618656 33.2251 0 32.4375 0C31.6499 0 31.0312 0.618656 31.0312 1.40625V2.8125H33.8438V1.40625Z" fill="white"/>
<path d="M42.2812 1.40625C42.2812 0.618656 41.6626 0 40.875 0C40.0874 0 39.4688 0.618656 39.4688 1.40625V2.8125H42.2812V1.40625Z" fill="white"/>
<path d="M11.3438 21.1875H19.7812V24H11.3438V21.1875Z" fill="white"/>
<path d="M46.5938 2.8125H42.2812V5.625C42.2812 6.41259 41.6626 7.03125 40.875 7.03125C40.0874 7.03125 39.4688 6.41259 39.4688 5.625V2.8125H33.8438V5.625C33.8438 6.41259 33.2251 7.03125 32.4375 7.03125C31.6499 7.03125 31.0312 6.41259 31.0312 5.625V2.8125H16.9688V5.625C16.9688 6.41259 16.3501 7.03125 15.5625 7.03125C14.7749 7.03125 14.1562 6.41259 14.1562 5.625V2.8125H8.53125V5.625C8.53125 6.41259 7.91259 7.03125 7.125 7.03125C6.33741 7.03125 5.71875 6.41259 5.71875 5.625V2.8125H1.40625C0.618656 2.8125 0 3.43116 0 4.21875V11.3438H48V4.21875C48 3.43116 47.3813 2.8125 46.5938 2.8125Z" fill="white"/>
<path d="M0 14.1562V46.5938C0 47.3813 0.618656 48 1.40625 48H46.5938C47.3813 48 48 47.3813 48 46.5938V14.1562H0ZM36.6562 38.0625H28.2188V40.875H36.6562V38.0625ZM26.8125 21.1875H29.625C30.4126 21.1875 31.0312 21.8062 31.0312 22.5938C31.0312 23.3813 30.4126 24 29.625 24H26.8125C26.0249 24 25.4062 23.3813 25.4062 22.5938C25.4062 21.8062 26.0249 21.1875 26.8125 21.1875ZM26.8125 29.625H29.625C30.4126 29.625 31.0312 30.2437 31.0312 31.0312C31.0312 31.8188 30.4126 32.4375 29.625 32.4375H26.8125C26.0249 32.4375 25.4062 31.8188 25.4062 31.0312C25.4062 30.2437 26.0249 29.625 26.8125 29.625ZM12.75 40.875H9.9375C9.14991 40.875 8.53125 40.2563 8.53125 39.4688C8.53125 38.6812 9.14991 38.0625 9.9375 38.0625H12.75C13.5376 38.0625 14.1562 38.6812 14.1562 39.4688C14.1562 40.2563 13.5376 40.875 12.75 40.875ZM12.75 32.4375H9.9375C9.14991 32.4375 8.53125 31.8188 8.53125 31.0312C8.53125 30.2437 9.14991 29.625 9.9375 29.625H12.75C13.5376 29.625 14.1562 30.2437 14.1562 31.0312C14.1562 31.8188 13.5376 32.4375 12.75 32.4375ZM21.1875 40.875H18.375C17.5874 40.875 16.9688 40.2563 16.9688 39.4688C16.9688 38.6812 17.5874 38.0625 18.375 38.0625H21.1875C21.9751 38.0625 22.5938 38.6812 22.5938 39.4688C22.5938 40.2563 21.9751 40.875 21.1875 40.875ZM21.1875 32.4375H18.375C17.5874 32.4375 16.9688 31.8188 16.9688 31.0312C16.9688 30.2437 17.5874 29.625 18.375 29.625H21.1875C21.9751 29.625 22.5938 30.2437 22.5938 31.0312C22.5938 31.8188 21.9751 32.4375 21.1875 32.4375ZM22.5938 25.4062C22.5938 26.1938 21.9751 26.8125 21.1875 26.8125H9.9375C9.14991 26.8125 8.53125 26.1938 8.53125 25.4062V19.7812C8.53125 18.9937 9.14991 18.375 9.9375 18.375H21.1875C21.9751 18.375 22.5938 18.9937 22.5938 19.7812V25.4062ZM39.4688 42.2812C39.4688 43.0688 38.8501 43.6875 38.0625 43.6875H26.8125C26.0249 43.6875 25.4062 43.0688 25.4062 42.2812V36.6562C25.4062 35.8687 26.0249 35.25 26.8125 35.25H38.0625C38.8501 35.25 39.4688 35.8687 39.4688 36.6562V42.2812ZM38.0625 32.4375H35.25C34.4624 32.4375 33.8438 31.8188 33.8438 31.0312C33.8438 30.2437 34.4624 29.625 35.25 29.625H38.0625C38.8501 29.625 39.4688 30.2437 39.4688 31.0312C39.4688 31.8188 38.8501 32.4375 38.0625 32.4375ZM38.0625 24H35.25C34.4624 24 33.8438 23.3813 33.8438 22.5938C33.8438 21.8062 34.4624 21.1875 35.25 21.1875H38.0625C38.8501 21.1875 39.4688 21.8062 39.4688 22.5938C39.4688 23.3813 38.8501 24 38.0625 24Z" fill="white"/>
</svg>
