<svg width="52" height="52" viewBox="0 0 52 52" fill="none" xmlns="http://www.w3.org/2000/svg">
<g clip-path="url(#clip0)">
<path d="M10.2972 33.5134V1.38502C10.2972 0.545422 9.61657 -0.135254 8.77697 -0.135254H4.72292C2.20404 -0.135254 0.162109 1.90667 0.162109 4.42556V34.3315C1.05735 33.8123 2.09539 33.5134 3.20265 33.5134H10.2972Z" fill="white"/>
<path d="M49.0132 51.7569H41.4119C40.5723 51.7569 39.8916 51.0762 39.8916 50.2366V45.6758H49.0132C50.6925 45.6758 52.0538 47.037 52.0538 48.7163C52.0538 50.3956 50.6925 51.7569 49.0132 51.7569Z" fill="white"/>
<path d="M39.8539 21.6483C39.5401 20.7618 39.0745 19.9541 38.4702 19.2478C38.0513 18.7581 37.9867 18.0575 38.3088 17.4994L39.3331 15.7253L36.6999 14.2051L35.6759 15.9786C35.3542 16.5359 34.7162 16.8297 34.0833 16.7135C33.1106 16.5338 32.2805 16.5338 31.3078 16.7135C30.6748 16.8303 30.0369 16.536 29.7152 15.9786L28.6912 14.2051L26.058 15.7253L27.0823 17.4994C27.4045 18.0574 27.3399 18.7581 26.9209 19.2477C26.3165 19.9543 25.8509 20.7619 25.5373 21.6482C25.3223 22.2553 24.7481 22.6611 24.1042 22.6611H22.0537V25.7017H24.1042C24.7481 25.7017 25.3224 26.1075 25.5373 26.7146C25.851 27.6009 26.3165 28.4085 26.9209 29.1152C27.3398 29.6048 27.4045 30.3054 27.0823 30.8635L26.058 32.6375L28.6912 34.1578L29.7152 32.3843C30.037 31.8268 30.6751 31.5331 31.3078 31.6494C32.2798 31.8289 33.1113 31.8289 34.0833 31.6494C34.1756 31.6323 34.2682 31.624 34.3598 31.624C34.8957 31.624 35.4012 31.9082 35.6759 32.3843L36.6999 34.1578L39.3331 32.6375L38.3088 30.8635C37.9867 30.3053 38.0512 29.6048 38.4702 29.1151C39.0745 28.4087 39.5401 27.6011 39.8539 26.7145C40.0689 26.1075 40.6431 25.7017 41.2871 25.7017H43.3375V22.6611H41.2871C40.6431 22.6611 40.0689 22.2553 39.8539 21.6483ZM32.6956 28.7422C30.1808 28.7422 28.1348 26.6962 28.1348 24.1814C28.1348 21.6666 30.1808 19.6206 32.6956 19.6206C35.2104 19.6206 37.2564 21.6666 37.2564 24.1814C37.2564 26.6962 35.2104 28.7422 32.6956 28.7422Z" fill="white"/>
<path d="M47.4932 5.9458H13.3378V33.5134C13.3378 35.1927 11.9765 36.5539 10.2972 36.5539H3.20265C1.52336 36.5539 0.162109 37.9152 0.162109 39.5945C0.162109 41.2737 1.52336 42.635 3.20265 42.635H49.0135C50.1207 42.635 51.1588 42.9339 52.054 43.4531V10.5066C52.054 7.98773 50.0121 5.9458 47.4932 5.9458ZM46.3783 27.2218C46.3783 28.0614 45.6977 28.7421 44.8581 28.7421H42.303C42.0583 29.259 41.7735 29.7532 41.4499 30.2222L42.7267 32.4337C42.9283 32.7828 42.983 33.1978 42.8787 33.5873C42.7744 33.9767 42.5196 34.3088 42.1703 34.5104L36.9039 37.5509C36.6708 37.6855 36.4083 37.7546 36.1438 37.7546C36.012 37.7546 35.8798 37.7375 35.7503 37.7028C35.3608 37.5984 35.0288 37.3436 34.8272 36.9945L33.5521 34.786C32.9729 34.8353 32.4188 34.8353 31.8397 34.786L30.5646 36.9945C30.363 37.3436 30.031 37.5984 29.6415 37.7028C29.2521 37.8072 28.837 37.7525 28.4879 37.5509L23.2215 34.5104C22.8723 34.3088 22.6175 33.9766 22.5131 33.5873C22.4087 33.1978 22.4634 32.7828 22.665 32.4337L23.9419 30.2222C23.6183 29.7532 23.3335 29.259 23.0888 28.7421H20.5337C19.6941 28.7421 19.0135 28.0614 19.0135 27.2218V21.1407C19.0135 20.3011 19.6941 19.6204 20.5337 19.6204H23.0888C23.3335 19.1034 23.6183 18.6093 23.9419 18.1404L22.665 15.9289C22.4635 15.5798 22.4088 15.1647 22.5131 14.7753C22.6174 14.3858 22.8722 14.0538 23.2215 13.8522L28.4879 10.8117C28.8371 10.61 29.2519 10.5556 29.6415 10.6598C30.031 10.7641 30.363 11.0189 30.5646 11.3681L31.8393 13.5759C32.4146 13.5269 32.9772 13.5269 33.5525 13.5759L34.8272 11.3681C35.0288 11.0189 35.3608 10.7641 35.7503 10.6598C36.1398 10.5557 36.5548 10.6101 36.9039 10.8117L42.1703 13.8522C42.5195 14.0538 42.7743 14.3859 42.8787 14.7753C42.9831 15.1647 42.9284 15.5798 42.7267 15.9289L41.4499 18.1404C41.7734 18.6092 42.0582 19.1035 42.3029 19.6204H44.8581C45.6977 19.6204 46.3783 20.3011 46.3783 21.1407V27.2218Z" fill="white"/>
<path d="M32.6961 25.7012C33.5357 25.7012 34.2163 25.0205 34.2163 24.1809C34.2163 23.3413 33.5357 22.6606 32.6961 22.6606C31.8564 22.6606 31.1758 23.3413 31.1758 24.1809C31.1758 25.0205 31.8564 25.7012 32.6961 25.7012Z" fill="white"/>
</g>
<defs>
<clipPath id="clip0">
<rect width="52" height="52" fill="white"/>
</clipPath>
</defs>
</svg>
