<svg viewBox="0 0 48 48" fill="none" xmlns="http://www.w3.org/2000/svg">
<g clip-path="url(#clip0)">
<path d="M42.1764 9.71868L24.1359 0.105768C23.8682 -0.0370723 23.5475 -0.0350677 23.2818 0.11078L5.74052 9.72369C5.45284 9.88157 5.27441 10.1833 5.27441 10.5116V23.0685C5.28494 33.3906 11.4005 42.7289 20.8581 46.8642L23.2929 47.9252C23.5204 48.0245 23.7795 48.025 24.0076 47.9262L26.7511 46.7414C36.3841 42.6958 42.651 33.2673 42.652 22.8194V10.5116C42.652 10.1798 42.4691 9.87455 42.1764 9.71868ZM32.7699 20.332L21.7206 29.3209C21.3427 29.6286 20.7879 29.5785 20.4711 29.2076L15.7268 23.6519C15.4046 23.2745 15.4492 22.7076 15.8266 22.3854C16.204 22.0636 16.7708 22.1082 17.0931 22.4851L21.2675 27.3738L31.6357 18.9387C32.0207 18.6254 32.5865 18.6835 32.8993 19.0685C33.2125 19.4534 33.1544 20.0192 32.7694 20.332H32.7699Z" fill="white"/>
</g>
<defs>
<clipPath id="clip0">
<rect width="48" height="48" fill="white"/>
</clipPath>
</defs>
</svg>
