<svg viewBox="0 0 52 52" fill="none" xmlns="http://www.w3.org/2000/svg">
<g clip-path="url(#clip0)">
<path d="M29.1429 22.7679L28.0263 24.7845H24.8179L23.6108 22.6733L22.0071 26.0089C21.5444 26.9699 21.7376 28.1241 22.4881 28.8817L24.581 30.9949V36.7527C25.1576 36.8473 25.7484 36.8951 26.3504 36.8951C26.9525 36.8951 27.5443 36.8473 28.1209 36.7527V30.9959L30.2138 28.8786C30.9622 28.122 31.1554 26.9699 30.6958 26.0109L29.1429 22.7679Z" fill="#132BE2"/>
<path d="M26.3511 14.7261C20.2394 14.7261 15.2666 19.6989 15.2666 25.8106C15.2666 30.1956 17.8262 33.9949 21.5309 35.7918V32.2498L20.3207 31.0285C18.6652 29.3556 18.2381 26.8072 19.2581 24.6869L21.7994 19.404H25.2569L26.4061 21.4134L27.5176 19.404H30.9141L33.4483 24.692C34.4632 26.8102 34.0351 29.3546 32.3836 31.0244L31.1724 32.2498V35.7908C34.8761 33.9938 37.4357 30.1956 37.4357 25.8106C37.4357 19.6989 32.4629 14.7261 26.3511 14.7261Z" fill="#132BE2"/>
<path d="M46.4325 25.81C46.4325 25.1205 46.3969 24.428 46.3268 23.7395L52.2972 19.0901L45.1441 6.69985L38.1323 9.54624C37.0076 8.73066 35.8066 8.0361 34.5446 7.47069L33.5043 -0.0200195H19.1981L18.1578 7.47069C16.8958 8.0361 15.6948 8.73066 14.5701 9.54624L7.55836 6.69985L0.405273 19.0901L6.37567 23.7395C6.3055 24.428 6.26991 25.1205 6.26991 25.81C6.26991 26.4995 6.3055 27.192 6.37567 27.8805L0.405273 32.5299L7.55836 44.9201L14.5701 42.0738C15.6948 42.8893 16.8958 43.5839 18.1578 44.1493L19.1981 51.64H33.5043L34.5446 44.1493C35.8066 43.5839 37.0076 42.8893 38.1323 42.0738L45.1441 44.9201L52.2972 32.5299L46.3268 27.8805C46.3969 27.192 46.4325 26.4995 46.4325 25.81ZM26.3512 39.9453C18.5565 39.9453 12.2159 33.6048 12.2159 25.81C12.2159 18.0152 18.5565 11.6747 26.3512 11.6747C34.146 11.6747 40.4865 18.0152 40.4865 25.81C40.4865 33.6048 34.146 39.9453 26.3512 39.9453Z" fill="#132BE2"/>
</g>
<defs>
<clipPath id="clip0">
<rect width="52" height="52" fill="white"/>
</clipPath>
</defs>
</svg>
