<svg width="48" height="48" viewBox="0 0 48 48" fill="none" xmlns="http://www.w3.org/2000/svg">
<g clip-path="url(#clip0)">
<path d="M23.7198 19.86H23.7398L33.5398 16.52C33.5798 16.34 33.5798 16.16 33.5798 16C33.5798 15.82 33.5598 15.66 33.4998 15.5C33.3398 15.04 33.0398 14.54 32.6198 14.18V9.8C32.6198 6.56 31.4598 5.28 30.2598 4.54C29.6398 2.66 27.0598 0 21.9998 0C15.9998 0 11.4798 5.94 11.4798 9.8C11.4798 11.4 11.4198 12.66 11.3598 13.62C11.3598 13.82 11.3398 14 11.3398 14.16C10.8998 14.56 10.5998 15.1 10.4598 15.62C10.4398 15.74 10.4198 15.86 10.4198 16C10.4198 17.56 11.2998 19.82 11.4198 20.08C11.5398 20.42 11.7998 20.7 12.1398 20.86C12.1598 20.94 12.1798 21.06 12.1798 21.3C12.1798 23.42 13.9998 25.42 14.9998 26.38C14.8998 28.58 14.2798 30.1 13.3998 30.48L5.55977 33.08C3.33977 33.82 1.67977 35.62 1.09977 37.9L0.0397716 42.14C-0.0602284 42.58 0.0397716 43.06 0.319772 43.42C0.599772 43.78 1.03977 44 1.49977 44H23.9198C23.3198 43.24 22.7598 42.4 22.2398 41.5C20.9198 39.16 19.9998 36.32 19.9998 33.1V25.08C19.9998 22.72 21.4998 20.64 23.7198 19.86Z" fill="#132BE2"/>
<path d="M46.982 23.652L36.482 20.08C36.17 19.972 35.83 19.972 35.518 20.08L25.018 23.652C24.408 23.858 24 24.428 24 25.072V33.108C24 42.916 34.948 47.684 35.414 47.882C35.79 48.04 36.21 48.04 36.586 47.882C37.052 47.682 48 42.916 48 33.108V25.072C48 24.428 47.592 23.858 46.982 23.652ZM42.572 31.236L37.072 38.236C36.372 39.13 35.06 39.26 34.198 38.52L30.698 35.52C29.858 34.802 29.76 33.538 30.482 32.7C31.2 31.862 32.464 31.766 33.3 32.484L35.216 34.126L39.426 28.768C40.108 27.9 41.364 27.746 42.234 28.432C43.104 29.11 43.256 30.368 42.572 31.236Z" fill="#132BE2"/>
</g>
<defs>
<clipPath id="clip0">
<rect width="48" height="48" fill="white"/>
</clipPath>
</defs>
</svg>
