<svg width="92" height="39" viewBox="0 0 92 39" fill="none" xmlns="http://www.w3.org/2000/svg">
<path d="M15.5813 38.122C15.5518 38.122 15.5224 38.1122 15.4929 38.0926L4.14816 30.2812L4.14325 30.2519L3.45599 30.154L3.4069 30.0757C3.38726 30.0267 3.38726 29.9729 3.41671 29.9289L5.90068 26.0623L0.255304 19.0194C0.211123 18.9607 0.211123 18.8823 0.255304 18.8285C0.299485 18.7698 0.378028 18.7551 0.441845 18.7845L8.16865 22.5237L10.5201 18.8628L1.76728 18.9802C1.69855 18.9851 1.62492 18.9264 1.61019 18.853C1.60037 18.7796 1.64455 18.7062 1.71328 18.6817L12.9451 15.055C13.0089 15.0354 13.0777 15.055 13.1169 15.1088C13.1562 15.1578 13.1611 15.2312 13.1219 15.285L10.9913 18.5985L14.7369 18.5495L13.7649 15.0697L3.14181 7.92883L3.13199 7.83584C3.13199 7.782 3.16144 7.73306 3.21054 7.70859L16.2293 0.396454L16.3127 0.425822C16.3569 0.450294 16.3913 0.494342 16.3962 0.543285L17.3829 9.71037L17.1276 9.73974L16.1605 0.729269L3.49035 7.84563L13.9858 14.9033L14.0104 14.962L15.0118 18.5446L20.1467 18.4761C20.2203 18.481 20.2743 18.5153 20.2939 18.5789C20.3136 18.6425 20.2939 18.711 20.2399 18.7551L15.9396 21.8728L17.3682 26.9825C17.3829 27.0412 17.3633 27.1048 17.3191 27.144C17.2749 27.1831 17.2062 27.188 17.1522 27.1636L12.0468 24.6919L7.66793 27.8634L10.0586 30.8441L19.3416 32.1851L19.3023 32.4397L10.2943 31.1426L15.6893 37.8724C15.7384 37.9311 15.7335 38.0192 15.6795 38.073C15.6647 38.1073 15.6205 38.122 15.5813 38.122ZM4.66852 30.3302L15.056 37.4808L9.93099 31.0888L4.66852 30.3302ZM4.64888 30.0659L9.69536 30.7952L7.47157 28.0201L4.64888 30.0659ZM3.72107 29.9337L4.2807 30.0121L7.30957 27.8145L6.0725 26.2728L3.72107 29.9337ZM6.21977 26.0476L7.51575 27.6677L11.7915 24.5696L8.26192 22.8614L6.21977 26.0476ZM12.2971 24.5206L17.0687 26.8307L15.7285 22.0343L12.2971 24.5206ZM0.751113 19.2201L6.05286 25.8323L8.03611 22.744L0.751113 19.2201ZM8.40919 22.6412L12.0321 24.3934L15.6549 21.77L14.8253 18.8089L10.8392 18.8628L8.40919 22.6412ZM15.0953 18.804L15.8807 21.6085L19.8374 18.7404L15.0953 18.804ZM12.7635 15.3878L2.46437 18.711L10.6968 18.6034L12.7635 15.3878Z" fill="#69A847"/>
<path d="M1.05048 18.6866C1.00139 18.6866 0.95721 18.667 0.927756 18.6278C0.883574 18.5691 0.888484 18.4859 0.932666 18.432L16.7594 0.445374L16.9557 0.616678L1.46775 18.2167L17.7952 10.3564L17.9081 10.5913L1.11921 18.6719C1.09466 18.6817 1.07012 18.6866 1.05048 18.6866Z" fill="#69A847"/>
<path d="M17.0882 0.788002C17.0882 1.20891 16.7446 1.54662 16.3273 1.54662C15.9051 1.54662 15.5664 1.20402 15.5664 0.788002C15.5664 0.36709 15.91 0.0293792 16.3273 0.0293792C16.7446 0.0244849 17.0882 0.36709 17.0882 0.788002Z" fill="#69A847"/>
<path d="M4.477 8.01691C4.477 8.56507 4.03028 9.01535 3.47556 9.01535C2.92575 9.01535 2.47412 8.56997 2.47412 8.01691C2.47412 7.46385 2.92084 7.01846 3.47556 7.01846C4.03028 7.01846 4.477 7.46385 4.477 8.01691Z" fill="#69A847"/>
<path d="M19.3317 10.234C19.3317 11.3255 18.448 12.2065 17.3533 12.2065C16.2586 12.2065 15.375 11.3255 15.375 10.234C15.375 9.14261 16.2635 8.26163 17.3533 8.26163C18.448 8.26163 19.3317 9.1475 19.3317 10.234Z" fill="#69A847"/>
<path d="M14.5111 15.1333C14.5111 15.6814 14.0693 16.1219 13.5195 16.1219C12.9746 16.1219 12.5278 15.6814 12.5278 15.1333C12.5278 14.59 12.9696 14.1446 13.5195 14.1446C14.0693 14.1446 14.5111 14.5851 14.5111 15.1333Z" fill="#69A847"/>
<path d="M21.0302 18.6327C21.0302 19.2347 20.5393 19.7241 19.9355 19.7241C19.3317 19.7241 18.8457 19.2347 18.8457 18.6327C18.8457 18.0307 19.3366 17.5462 19.9355 17.5462C20.5442 17.5462 21.0302 18.0307 21.0302 18.6327Z" fill="#69A847"/>
<path d="M12.7388 24.2367C12.7388 24.8045 12.2773 25.2645 11.7079 25.2645C11.1384 25.2645 10.677 24.8045 10.677 24.2367C10.677 23.669 11.1384 23.2089 11.7079 23.2089C12.2773 23.2089 12.7388 23.669 12.7388 24.2367Z" fill="#69A847"/>
<path d="M19.0862 26.7035C19.0862 27.7264 18.2566 28.5535 17.2306 28.5535C16.2046 28.5535 15.375 27.7264 15.375 26.7035C15.375 25.6805 16.2046 24.8534 17.2306 24.8534C18.2566 24.8534 19.0862 25.6805 19.0862 26.7035Z" fill="#69A847"/>
<path d="M20.4266 32.0579C20.4266 32.5424 20.0338 32.9291 19.5528 32.9291C19.0668 32.9291 18.679 32.5375 18.679 32.0579C18.679 31.5782 19.0717 31.1867 19.5528 31.1867C20.0338 31.1818 20.4266 31.5733 20.4266 32.0579Z" fill="#69A847"/>
<path d="M16.1065 37.7696C16.1065 38.1611 15.7874 38.4792 15.3947 38.4792C15.0019 38.4792 14.6829 38.1611 14.6829 37.7696C14.6829 37.378 15.0019 37.0599 15.3947 37.0599C15.7923 37.0599 16.1065 37.378 16.1065 37.7696Z" fill="#69A847"/>
<path d="M5.03666 29.7673C5.03666 30.2714 4.6243 30.6826 4.11867 30.6826C3.61304 30.6826 3.20068 30.2714 3.20068 29.7673C3.20068 29.2632 3.61304 28.8521 4.11867 28.8521C4.6243 28.8521 5.03666 29.2632 5.03666 29.7673Z" fill="#69A847"/>
<path d="M2.2287 19.127C2.2287 19.7388 1.72798 20.238 1.11435 20.238C0.500723 20.238 0 19.7437 0 19.127C0 18.5152 0.495814 18.016 1.11435 18.016C1.73289 18.016 2.2287 18.5152 2.2287 19.127Z" fill="#69A847"/>
<path d="M24.3242 0V38.5037" stroke="#333333" stroke-width="2" stroke-miterlimit="10"/>
<path d="M34.1225 17.7958C34.1225 18.7306 34.0145 19.455 33.8034 19.9738C33.5924 20.4926 33.2242 20.9037 32.7136 21.2023C32.1982 21.5008 31.6287 21.6525 31.0053 21.6525C30.0382 21.6525 29.2921 21.3589 28.7619 20.7667C28.5213 20.4681 28.3348 20.1108 28.2022 19.6948C28.0648 19.2788 28.001 18.8089 28.001 18.2804V17.8448L29.8713 17.5658C29.8713 18.251 29.8959 18.6768 29.9499 18.8383C30.0039 19.0047 30.0431 19.1173 30.0677 19.1711C30.0922 19.2299 30.1364 19.2886 30.2002 19.3522C30.4113 19.592 30.6813 19.7095 31.0151 19.7095C31.2557 19.7095 31.4667 19.6508 31.6533 19.5382C31.8349 19.4256 31.9527 19.2886 32.0067 19.132C32.0607 18.9753 32.0951 18.7943 32.1147 18.5887C32.1344 18.3831 32.1442 18.1384 32.1442 17.8594V10.3369H34.1225V17.7958Z" fill="#333333"/>
<path d="M42.4925 21.4812H40.7154V20.9673C40.1656 21.4225 39.5127 21.6525 38.7665 21.6525C38.3296 21.6525 37.8829 21.5596 37.4264 21.3736C36.9895 21.1778 36.6704 20.9282 36.4593 20.6247C36.366 20.5024 36.2777 20.3409 36.1942 20.1451L36.0077 19.5676L35.9438 18.3244V13.3958H37.8633V17.8399C37.8633 18.0993 37.8633 18.344 37.8731 18.5691C37.878 18.7991 37.9025 18.9998 37.9516 19.176C38.0007 19.3522 38.1038 19.5088 38.2707 19.641C38.5113 19.7878 38.7567 19.8563 39.0169 19.8563C39.3065 19.8563 39.5863 19.778 39.8563 19.6214C40.0969 19.455 40.2736 19.2396 40.3963 18.9753C40.5142 18.711 40.578 18.2852 40.578 17.693V13.386H42.4974V21.4812H42.4925Z" fill="#333333"/>
<path d="M50.4157 18.9655C50.4157 19.4403 50.2782 19.8955 50.0033 20.3213C49.7284 20.752 49.3357 21.0848 48.8252 21.3197C48.7024 21.3735 48.565 21.4176 48.4177 21.4616C48.2704 21.5008 48.1477 21.5351 48.0446 21.5546C47.7648 21.6183 47.4801 21.6476 47.1855 21.6476C46.1546 21.6476 45.379 21.4274 44.8489 20.9967C44.5789 20.7764 44.353 20.4779 44.1616 20.0961C43.975 19.7144 43.8229 19.2151 43.71 18.6034L45.6294 18.3244C45.6687 18.6866 45.7227 18.9606 45.7914 19.1417C45.8601 19.3228 45.9583 19.4745 46.0957 19.6018C46.3461 19.7976 46.7094 19.8955 47.1855 19.8955C47.6715 19.8955 48.0054 19.8074 48.1821 19.6312C48.3784 19.4648 48.4766 19.2788 48.4766 19.0732C48.4766 18.9508 48.4079 18.8285 48.2753 18.7159C48.1183 18.6229 47.7403 18.5006 47.1365 18.344C46.243 18.1139 45.6048 17.9133 45.217 17.7322C44.8341 17.5511 44.515 17.2721 44.2647 16.8854C44.0683 16.5135 43.9701 16.1219 43.9701 15.7059C43.9701 15.3046 44.0585 14.9473 44.2352 14.6341C44.3089 14.4872 44.3972 14.3502 44.5003 14.2229C44.6034 14.0957 44.7458 13.9586 44.9225 13.8118C45.0158 13.7384 45.1188 13.6797 45.2367 13.6258C45.3496 13.5769 45.541 13.4986 45.8159 13.3958L46.3461 13.2881L46.9548 13.2392C47.539 13.2392 48.0692 13.3273 48.5453 13.5035C48.7515 13.5769 48.9577 13.6845 49.1541 13.8265C49.3504 13.9684 49.5075 14.125 49.6302 14.2914C49.7481 14.4579 49.861 14.6683 49.9641 14.9326C50.0671 15.1969 50.1555 15.5346 50.2291 15.9457L48.3244 16.21C48.2852 15.9115 48.2508 15.7353 48.2312 15.6716C48.1772 15.4759 48.079 15.3193 47.9366 15.1969C47.7206 15.055 47.4212 14.9815 47.0481 14.9815C46.7781 14.9815 46.5719 14.9962 46.4345 15.0207C46.2921 15.0452 46.1743 15.099 46.0663 15.1822C45.919 15.3046 45.8503 15.4416 45.8503 15.5836V15.6619L45.9288 15.8038C45.9583 15.8429 46.0614 15.9115 46.2381 16.0045L47.269 16.3324C48.0692 16.5184 48.6877 16.7141 49.1246 16.9197C49.5075 17.0959 49.8217 17.3504 50.0622 17.6783C50.293 18.0111 50.4157 18.4418 50.4157 18.9655Z" fill="#333333"/>
<path d="M54.8584 21.447L54.0632 21.5742H53.6263C53.1599 21.5742 52.7868 21.491 52.5168 21.3246C52.2468 21.1582 52.0358 20.9086 51.8787 20.5807C51.8247 20.4045 51.7903 20.194 51.7707 19.9493C51.751 19.7046 51.7412 19.3767 51.7412 18.9606V15.1039H50.9165V13.4105H51.7412V11.7709L53.4888 10.5962V13.4154H54.6277V15.1088H53.4888V19.0438V19.3718V19.5724L53.5674 19.6654C53.6017 19.6948 53.6754 19.7144 53.7932 19.7144H53.9846L54.5737 19.5871L54.8584 21.447Z" fill="#333333"/>
<path d="M66.7871 17.7322C66.5907 18.4908 66.3502 19.1124 66.0704 19.6067C65.7906 20.101 65.442 20.5122 65.0346 20.845C64.6222 21.1778 64.1755 21.4274 63.6944 21.5889C63.2084 21.7553 62.6782 21.8385 62.0941 21.8385C60.9306 21.8385 59.9685 21.5889 59.2076 21.0897C58.4516 20.5905 57.8772 19.871 57.4943 18.9313C57.1114 17.9867 56.915 17.0127 56.915 16.0094C56.915 14.8788 57.1359 13.8755 57.5679 12.9945C58.0048 12.1135 58.6381 11.4528 59.4726 11.0025C59.8899 10.7724 60.3072 10.606 60.7343 10.4984C61.1613 10.3907 61.6179 10.3369 62.1088 10.3369C63.2084 10.3369 64.146 10.6256 64.9168 11.208C65.2997 11.4968 65.6286 11.8639 65.8986 12.3044C66.1686 12.7449 66.4091 13.3077 66.6153 13.9929L64.5878 14.4726C64.4308 13.988 64.2737 13.6112 64.1215 13.3469C63.9644 13.0826 63.7828 12.8672 63.5766 12.7008C63.2035 12.4023 62.7077 12.2505 62.0941 12.2505C61.3675 12.2505 60.7735 12.4169 60.317 12.7498C59.8605 13.0826 59.5316 13.5475 59.3254 14.1544C59.1241 14.7613 59.021 15.378 59.021 16.0143C59.021 16.4499 59.0456 16.8463 59.0996 17.2036C59.1536 17.5609 59.2419 17.8937 59.3646 18.2069C59.6052 18.7649 59.9537 19.2005 60.4103 19.5137C60.8766 19.7927 61.397 19.9346 61.9713 19.9346C62.6488 19.9346 63.2182 19.7487 63.6846 19.3767C63.9251 19.1711 64.1264 18.897 64.2933 18.5593C64.4602 18.2216 64.6026 17.7713 64.7302 17.1987L66.7871 17.7322Z" fill="#69A847"/>
<path d="M75.0932 17.5217C75.0932 18.525 74.9361 19.3179 74.6269 19.8955C74.3372 20.5073 73.8856 20.982 73.2769 21.3246C72.6681 21.6672 72.0103 21.8385 71.3034 21.8385C70.2038 21.8385 69.2957 21.4714 68.5838 20.7373C67.872 20.0031 67.5137 18.9704 67.5137 17.6343C67.5137 16.1758 67.9309 15.0745 68.7606 14.3306C69.0944 14.0418 69.4773 13.8167 69.9142 13.665C70.3511 13.5084 70.8125 13.4301 71.3034 13.4301C72.4129 13.4301 73.326 13.7971 74.0329 14.5313C74.7398 15.2654 75.0932 16.2639 75.0932 17.5217ZM73.1149 17.5707C73.1149 16.7778 72.9381 16.1758 72.5896 15.7744C72.2411 15.3731 71.8042 15.1675 71.2838 15.1675C70.7831 15.1675 70.3609 15.3584 70.0173 15.7402C69.6736 16.166 69.5018 16.7925 69.5018 17.6294C69.5018 18.4761 69.6736 19.0977 70.0124 19.4892C70.3511 19.8808 70.788 20.0766 71.3182 20.0766C71.8189 20.0766 72.2411 19.8857 72.5847 19.5039C72.678 19.3816 72.7565 19.2592 72.8105 19.1466C72.8694 19.0341 72.9234 18.8921 72.9774 18.7306C73.0658 18.4223 73.1149 18.0356 73.1149 17.5707Z" fill="#69A847"/>
<path d="M82.8299 21.6672H81.3572L81.0038 21.2953C80.5423 21.6574 79.9778 21.8385 79.3102 21.8385C78.6622 21.8385 78.0682 21.6525 77.538 21.2855C77.0029 20.9184 76.5709 20.3898 76.2371 19.7095C76.0997 19.3767 75.9966 19.0341 75.9229 18.6817C75.8493 18.3293 75.8149 17.9475 75.8149 17.5315C75.8149 16.7142 75.9426 15.9702 76.2028 15.3095C76.4629 14.6488 76.8655 14.1348 77.4202 13.7727C77.97 13.4105 78.5738 13.2294 79.2267 13.2294C79.7863 13.2294 80.238 13.342 80.5816 13.572L80.8958 13.758V10.5228H82.8299V21.6672ZM81.0038 17.6539C81.0038 16.7337 80.832 16.0534 80.4883 15.6178C80.1987 15.2018 79.8207 14.9962 79.3642 14.9962C78.9174 14.9962 78.5493 15.1871 78.2547 15.5738C77.9455 15.9555 77.7884 16.6114 77.7884 17.5315C77.7884 18.4223 77.9455 19.0634 78.2645 19.4599C78.5836 19.8563 78.9616 20.0521 79.4083 20.0521C79.8551 20.0521 80.2183 19.8661 80.4981 19.4941C80.8369 19.0879 81.0038 18.4761 81.0038 17.6539Z" fill="#69A847"/>
<path d="M91.5925 18.7747C91.4256 19.3963 91.244 19.8808 91.0378 20.2185C90.8365 20.5611 90.5665 20.8597 90.2376 21.1191C89.6338 21.5938 88.868 21.8336 87.9451 21.8336C86.7817 21.8336 85.8539 21.4666 85.1715 20.7324C84.4843 19.9983 84.1406 18.9851 84.1406 17.693C84.1406 16.3813 84.4941 15.3389 85.1912 14.5753C85.8932 13.8118 86.7866 13.4252 87.8813 13.4252C88.9515 13.4252 89.8302 13.7873 90.5076 14.5166C91.19 15.2459 91.5287 16.2737 91.5287 17.6049L91.514 18.2901H86.119C86.119 18.4859 86.1681 18.7013 86.2613 18.9264C86.3546 19.1564 86.5019 19.362 86.6982 19.548C87.032 19.9004 87.4444 20.0766 87.9451 20.0766C88.328 20.0766 88.6471 19.9836 88.9024 19.7976C89.1577 19.6116 89.4031 19.1907 89.6436 18.5397L91.5925 18.7747ZM89.4718 16.5526C89.4326 16.2247 89.3196 15.9555 89.1429 15.7402C88.8189 15.3584 88.4066 15.1724 87.896 15.1724C87.4297 15.1724 87.0173 15.3389 86.6639 15.6668C86.4233 15.8821 86.2761 16.1807 86.2122 16.5575H89.4718V16.5526Z" fill="#69A847"/>
<path d="M28.8798 28.5144L28.0698 24.9121H28.8945L29.1547 26.4C29.2284 26.8258 29.302 27.2908 29.356 27.6579H29.3658C29.4198 27.2663 29.5033 26.8356 29.5867 26.3902L29.8763 24.917H30.6962L30.9711 26.4343C31.0447 26.8552 31.1036 27.2418 31.1527 27.6432H31.1625C31.2116 27.2418 31.2901 26.8209 31.3589 26.3902L31.6387 24.917H32.4241L31.5454 28.5193H30.7109L30.4212 26.9678C30.3574 26.6056 30.2985 26.2679 30.2592 25.8567H30.2494C30.1905 26.263 30.1316 26.6056 30.0531 26.9678L29.7291 28.5193H28.8798V28.5144Z" fill="#333333"/>
<path d="M33.1751 27.467C33.1996 27.8047 33.5138 27.9662 33.8722 27.9662C34.1372 27.9662 34.3483 27.9271 34.5545 27.8585L34.6576 28.4067C34.4023 28.5144 34.0931 28.5682 33.7592 28.5682C32.9198 28.5682 32.4387 28.0543 32.4387 27.237C32.4387 26.5762 32.8265 25.8421 33.6905 25.8421C34.4907 25.8421 34.7951 26.4979 34.7951 27.1489C34.7951 27.2908 34.7803 27.4132 34.7705 27.4719H33.1751V27.467ZM34.0832 26.909C34.0832 26.7133 33.9998 26.3805 33.6463 26.3805C33.3223 26.3805 33.1898 26.6888 33.1702 26.909H34.0832Z" fill="#333333"/>
<path d="M35.2368 28.5144C35.2466 28.3431 35.2565 28.0299 35.2565 27.7362V24.7213H36.0272V26.2141H36.037C36.1843 25.9889 36.4395 25.847 36.7881 25.847C37.3821 25.847 37.8141 26.3658 37.8091 27.1684C37.8091 28.1082 37.2446 28.578 36.6752 28.578C36.3855 28.578 36.1106 28.4654 35.929 28.1571H35.9192L35.8897 28.5193H35.2368V28.5144ZM36.0272 27.4034C36.0272 27.4572 36.0321 27.5062 36.0419 27.5453C36.091 27.7656 36.2677 27.932 36.4935 27.932C36.8224 27.932 37.0237 27.6628 37.0237 27.1929C37.0237 26.7867 36.8519 26.4637 36.4935 26.4637C36.2873 26.4637 36.091 26.6301 36.0419 26.865C36.0321 26.9139 36.0272 26.9629 36.0272 27.0167V27.4034Z" fill="#333333"/>
<path d="M39.3311 24.9611C39.6158 24.9122 39.984 24.8877 40.3718 24.8877C41.0198 24.8877 41.4419 25.0101 41.7708 25.2744C42.1243 25.5533 42.3452 25.9987 42.3452 26.6301C42.3452 27.3202 42.1096 27.7949 41.7807 28.0886C41.4223 28.4018 40.8725 28.5536 40.2049 28.5536C39.8072 28.5536 39.5225 28.5291 39.3311 28.4997V24.9611ZM40.1067 27.8977C40.1705 27.9124 40.2785 27.9124 40.3767 27.9124C41.0738 27.9173 41.5303 27.5111 41.5303 26.6497C41.5352 25.9008 41.1179 25.5044 40.4552 25.5044C40.2834 25.5044 40.1705 25.5191 40.1067 25.5386V27.8977Z" fill="#333333"/>
<path d="M43.4204 27.467C43.445 27.8047 43.7592 27.9662 44.1175 27.9662C44.3826 27.9662 44.5937 27.9271 44.7999 27.8585L44.903 28.4067C44.6477 28.5144 44.3384 28.5682 44.0046 28.5682C43.1652 28.5682 42.6841 28.0543 42.6841 27.237C42.6841 26.5762 43.0719 25.8421 43.9359 25.8421C44.7361 25.8421 45.0404 26.4979 45.0404 27.1489C45.0404 27.2908 45.0257 27.4132 45.0159 27.4719H43.4204V27.467ZM44.3237 26.909C44.3237 26.7133 44.2402 26.3805 43.8868 26.3805C43.5628 26.3805 43.4303 26.6888 43.4106 26.909H44.3237Z" fill="#333333"/>
<path d="M46.0416 25.9008L46.3754 27.1146C46.4343 27.3349 46.4834 27.5404 46.5178 27.7509H46.5325C46.5718 27.5355 46.611 27.3397 46.6699 27.1146L46.989 25.9008H47.799L46.8761 28.5144H46.1054L45.2021 25.9008H46.0416Z" fill="#333333"/>
<path d="M48.668 27.467C48.6925 27.8047 49.0067 27.9662 49.3651 27.9662C49.6302 27.9662 49.8412 27.9271 50.0474 27.8585L50.1505 28.4067C49.8953 28.5144 49.586 28.5682 49.2522 28.5682C48.4127 28.5682 47.9316 28.0543 47.9316 27.237C47.9316 26.5762 48.3195 25.8421 49.1834 25.8421C49.9836 25.8421 50.288 26.4979 50.288 27.1489C50.288 27.2908 50.2732 27.4132 50.2634 27.4719H48.668V27.467ZM49.5713 26.909C49.5713 26.7133 49.4878 26.3805 49.1344 26.3805C48.8104 26.3805 48.6778 26.6888 48.6582 26.909H49.5713Z" fill="#333333"/>
<path d="M51.5153 24.7164H50.7446V28.5144H51.5153V24.7164Z" fill="#333333"/>
<path d="M54.5832 27.1782C54.5832 28.1375 53.9401 28.5731 53.2773 28.5731C52.5557 28.5731 51.9961 28.069 51.9961 27.2272C51.9961 26.3804 52.5214 25.8421 53.3166 25.8421C54.0775 25.8421 54.5832 26.3902 54.5832 27.1782ZM52.7914 27.2027C52.7914 27.653 52.9681 27.9907 53.297 27.9907C53.5964 27.9907 53.7879 27.6774 53.7879 27.2027C53.7879 26.8111 53.6455 26.4147 53.297 26.4147C52.9288 26.4196 52.7914 26.8209 52.7914 27.2027Z" fill="#333333"/>
<path d="M55.0597 26.7769C55.0597 26.4343 55.0499 26.1406 55.04 25.9008H55.7077L55.742 26.263H55.7519C55.9335 25.984 56.2182 25.8421 56.5766 25.8421C57.1166 25.8421 57.6026 26.3413 57.6026 27.1733C57.6026 28.1228 57.0282 28.5731 56.4784 28.5731C56.1789 28.5731 55.9482 28.4459 55.8353 28.2746H55.8255V29.5716H55.0548V26.7769H55.0597ZM55.8255 27.3936C55.8255 27.4572 55.8304 27.5159 55.8402 27.5649C55.8893 27.7851 56.066 27.9515 56.2918 27.9515C56.6257 27.9515 56.822 27.6579 56.822 27.2125C56.822 26.7965 56.6453 26.4783 56.3017 26.4783C56.0857 26.4783 55.8893 26.6496 55.8402 26.8895C55.8304 26.9335 55.8255 26.9873 55.8255 27.0314V27.3936Z" fill="#333333"/>
<path d="M58.0836 26.7329C58.0836 26.4049 58.0738 26.126 58.064 25.8959H58.712L58.7463 26.2483H58.761C58.869 26.0819 59.085 25.8372 59.5121 25.8372C59.8312 25.8372 60.0865 26.0085 60.1896 26.2826H60.1994C60.2927 26.1504 60.4007 26.0428 60.5185 25.9693C60.6559 25.8861 60.8081 25.8421 60.9897 25.8421C61.4659 25.8421 61.8243 26.1945 61.8243 26.9776V28.5193H61.0732V27.095C61.0732 26.7182 60.9554 26.4979 60.7099 26.4979C60.5332 26.4979 60.4056 26.6252 60.3565 26.7818C60.3368 26.8405 60.327 26.9237 60.327 26.9923V28.5193H59.5759V27.0559C59.5759 26.7231 59.463 26.4979 59.2225 26.4979C59.0261 26.4979 58.9083 26.6594 58.8641 26.7916C58.8396 26.8552 58.8347 26.9335 58.8347 26.9971V28.5193H58.0836V26.7329Z" fill="#333333"/>
<path d="M63.0269 27.467C63.0514 27.8047 63.3656 27.9662 63.724 27.9662C63.989 27.9662 64.2001 27.9271 64.4063 27.8585L64.5094 28.4067C64.2541 28.5144 63.9449 28.5682 63.6111 28.5682C62.7716 28.5682 62.2905 28.0543 62.2905 27.237C62.2905 26.5762 62.6783 25.8421 63.5423 25.8421C64.3425 25.8421 64.6469 26.4979 64.6469 27.1489C64.6469 27.2908 64.6321 27.4132 64.6223 27.4719H63.0269V27.467ZM63.9351 26.909C63.9351 26.7133 63.8516 26.3805 63.4982 26.3805C63.1742 26.3805 63.0416 26.6888 63.022 26.909H63.9351Z" fill="#333333"/>
<path d="M65.1085 26.7329C65.1085 26.4049 65.0987 26.126 65.0889 25.8959H65.7565L65.7909 26.2532H65.8056C65.9087 26.0868 66.159 25.8372 66.5714 25.8372C67.077 25.8372 67.4599 26.1896 67.4599 26.9629V28.5144H66.6892V27.0657C66.6892 26.728 66.5763 26.4979 66.3014 26.4979C66.0903 26.4979 65.9627 26.6545 65.9136 26.8014C65.894 26.8503 65.8841 26.9286 65.8841 27.0069V28.5144H65.1134V26.7329H65.1085Z" fill="#333333"/>
<path d="M68.9033 25.152V25.9008H69.4531V26.4979H68.9033V27.4425C68.9033 27.7558 68.972 27.9026 69.2076 27.9026C69.3058 27.9026 69.3794 27.8928 69.4334 27.883L69.4383 28.4997C69.3352 28.5437 69.1536 28.5682 68.9376 28.5682C68.6873 28.5682 68.4811 28.4801 68.3584 28.3431C68.216 28.1865 68.1473 27.9368 68.1473 27.5698V26.5028H67.8184V25.9057H68.1473V25.338L68.9033 25.152Z" fill="#333333"/>
<path d="M73.4537 28.4116C73.3113 28.485 72.9922 28.5683 72.575 28.5683C71.3968 28.5683 70.7881 27.7949 70.7881 26.7671C70.7881 25.5387 71.6177 24.8535 72.6535 24.8535C73.0561 24.8535 73.3555 24.9367 73.493 25.015L73.3359 25.661C73.1788 25.5925 72.9628 25.5289 72.6879 25.5289C72.0743 25.5289 71.5981 25.9204 71.5981 26.7231C71.5981 27.4426 72.0006 27.8977 72.6928 27.8977C72.9235 27.8977 73.1837 27.8439 73.3359 27.7803L73.4537 28.4116Z" fill="#333333"/>
<path d="M76.2814 27.1782C76.2814 28.1375 75.6383 28.5731 74.9756 28.5731C74.254 28.5731 73.6943 28.069 73.6943 27.2272C73.6943 26.3804 74.2196 25.8421 75.0149 25.8421C75.7758 25.8421 76.2814 26.3902 76.2814 27.1782ZM74.4896 27.2027C74.4896 27.653 74.6663 27.9907 74.9952 27.9907C75.2947 27.9907 75.4861 27.6774 75.4861 27.2027C75.4861 26.8111 75.3438 26.4147 74.9952 26.4147C74.6271 26.4196 74.4896 26.8209 74.4896 27.2027Z" fill="#333333"/>
<path d="M76.7574 26.7329C76.7574 26.4049 76.7476 26.126 76.7378 25.8959H77.3858L77.4201 26.2483H77.4349C77.5429 26.0819 77.7589 25.8372 78.186 25.8372C78.505 25.8372 78.7603 26.0085 78.8634 26.2826H78.8732C78.9665 26.1504 79.0745 26.0428 79.1923 25.9693C79.3298 25.8861 79.4819 25.8421 79.6636 25.8421C80.1397 25.8421 80.4981 26.1945 80.4981 26.9776V28.5193H79.747V27.095C79.747 26.7182 79.6292 26.4979 79.3838 26.4979C79.207 26.4979 79.0794 26.6252 79.0303 26.7818C79.0107 26.8405 79.0009 26.9237 79.0009 26.9923V28.5193H78.2498V27.0559C78.2498 26.7231 78.1369 26.4979 77.8963 26.4979C77.7 26.4979 77.5821 26.6594 77.538 26.7916C77.5134 26.8552 77.5085 26.9335 77.5085 26.9971V28.5193H76.7574V26.7329Z" fill="#333333"/>
<path d="M81.1119 26.7769C81.1119 26.4343 81.1021 26.1406 81.0923 25.9008H81.7599L81.7943 26.263H81.8041C81.9857 25.984 82.2705 25.8421 82.6288 25.8421C83.1688 25.8421 83.6548 26.3413 83.6548 27.1733C83.6548 28.1228 83.0804 28.5731 82.5306 28.5731C82.2312 28.5731 82.0005 28.4459 81.8875 28.2746H81.8777V29.5716H81.107V26.7769H81.1119ZM81.8777 27.3936C81.8777 27.4572 81.8826 27.5159 81.8925 27.5649C81.9415 27.7851 82.1183 27.9515 82.3441 27.9515C82.6779 27.9515 82.8743 27.6579 82.8743 27.2125C82.8743 26.7965 82.6975 26.4783 82.3539 26.4783C82.1379 26.4783 81.9415 26.6496 81.8925 26.8895C81.8826 26.9335 81.8777 26.9873 81.8777 27.0314V27.3936Z" fill="#333333"/>
<path d="M85.5445 28.5144L85.5003 28.2501H85.4856C85.3236 28.4605 85.0683 28.5731 84.7738 28.5731C84.2731 28.5731 83.9736 28.1865 83.9736 27.7704C83.9736 27.0901 84.5529 26.7671 85.4267 26.772V26.7329C85.4267 26.5958 85.358 26.3951 84.9751 26.3951C84.7247 26.3951 84.4547 26.4881 84.2927 26.5909L84.1504 26.0672C84.3222 25.9644 84.6609 25.8372 85.1125 25.8372C85.9372 25.8372 86.2023 26.3511 86.2023 26.9629V27.8732C86.2023 28.1228 86.2121 28.3676 86.2367 28.5095H85.5445V28.5144ZM85.4513 27.281C85.0438 27.2761 84.7296 27.3789 84.7296 27.6921C84.7296 27.9026 84.8622 28.0005 85.034 28.0005C85.2254 28.0005 85.3825 27.8683 85.4365 27.7019C85.4463 27.6579 85.4513 27.6089 85.4513 27.5649V27.281Z" fill="#333333"/>
<path d="M86.8063 26.7329C86.8063 26.4049 86.7964 26.126 86.7866 25.8959H87.4542L87.4886 26.2532H87.5033C87.6064 26.0868 87.8568 25.8372 88.2691 25.8372C88.7748 25.8372 89.1577 26.1896 89.1577 26.9629V28.5144H88.387V27.0657C88.387 26.728 88.274 26.4979 87.9991 26.4979C87.7881 26.4979 87.6604 26.6545 87.6113 26.8014C87.5917 26.8503 87.5819 26.9286 87.5819 27.0069V28.5144H86.8112V26.7329H86.8063Z" fill="#333333"/>
<path d="M90.2521 25.9008L90.6203 27.1831C90.6596 27.3397 90.7087 27.5306 90.743 27.6677H90.7578C90.7921 27.5306 90.8314 27.33 90.8707 27.1831L91.175 25.9008H91.9998L91.4205 27.6236C91.067 28.6612 90.8265 29.0772 90.5516 29.3415C90.2816 29.5862 90.0018 29.6743 89.8054 29.6988L89.6434 29.0087C89.7416 28.994 89.8594 28.9451 89.9772 28.8668C90.0951 28.8032 90.2178 28.6759 90.2963 28.5389C90.3209 28.4997 90.3356 28.4606 90.3356 28.4214C90.3356 28.3969 90.3307 28.3529 90.3012 28.2892L89.3931 25.9008H90.2521Z" fill="#333333"/>
</svg>
