<svg width="270" height="113" viewBox="0 0 270 113" fill="none" xmlns="http://www.w3.org/2000/svg">
<path d="M45.7275 111.88C45.641 111.88 45.5546 111.851 45.4682 111.793L12.1738 88.8688L12.1594 88.7826L10.1424 88.4953L9.99834 88.2655C9.94071 88.1219 9.94071 87.9639 10.0271 87.8346L17.3171 76.4872L0.749102 55.8177C0.61944 55.6453 0.61944 55.4155 0.749102 55.2575C0.878764 55.0852 1.10927 55.0421 1.29656 55.1282L23.973 66.1022L30.874 55.3581L5.18642 55.7028C4.98473 55.7172 4.76862 55.5448 4.7254 55.3293C4.69659 55.1139 4.82625 54.8984 5.02795 54.8266L37.991 44.183C38.1783 44.1256 38.38 44.183 38.4952 44.341C38.6105 44.4847 38.6249 44.7001 38.5096 44.8581L32.257 54.5824L43.2495 54.4388L40.3969 44.2261L9.22037 23.2693L9.19156 22.9964C9.19156 22.8384 9.27799 22.6948 9.42206 22.623L47.6292 1.16346L47.8741 1.24965C48.0038 1.32147 48.1046 1.45074 48.119 1.59438L51.0148 28.4978L50.2657 28.584L47.4275 2.1402L10.2433 23.0252L41.0452 43.7378L41.1173 43.9101L44.0563 54.4244L59.1259 54.2233C59.342 54.2377 59.5005 54.3382 59.5581 54.525C59.6158 54.7117 59.5581 54.9128 59.3997 55.0421L46.7792 64.1918L50.9716 79.1876C51.0148 79.36 50.9572 79.5467 50.8275 79.6616C50.6979 79.7765 50.4962 79.7909 50.3377 79.7191L35.3545 72.4654L22.5035 81.7731L29.5197 90.5206L56.7632 94.4563L56.6479 95.2033L30.2112 91.3968L46.0444 111.147C46.1885 111.319 46.1741 111.578 46.0156 111.736C45.9724 111.837 45.8427 111.88 45.7275 111.88ZM13.7009 89.0124L44.1859 109.998L29.1451 91.2388L13.7009 89.0124ZM13.6433 88.2368L28.4536 90.377L21.9273 82.2327L13.6433 88.2368ZM10.9204 87.849L12.5628 88.0788L21.4518 81.6295L17.8213 77.1049L10.9204 87.849ZM18.2535 76.4441L22.0569 81.1986L34.6054 72.1063L24.2468 67.0933L18.2535 76.4441ZM36.0893 71.9626L50.0928 78.7423L46.1597 64.6658L36.0893 71.9626ZM2.20419 56.4066L17.7637 75.8121L23.5841 66.7486L2.20419 56.4066ZM24.679 66.4469L35.3113 71.5892L45.9436 63.8902L43.5088 55.2001L31.8104 55.3581L24.679 66.4469ZM44.3012 55.1857L46.6063 63.4162L58.2183 54.999L44.3012 55.1857ZM37.4579 45.1598L7.23221 54.9128L31.3926 54.5968L37.4579 45.1598Z" fill="#69A847"/>
<path d="M3.08284 54.841C2.93877 54.841 2.80911 54.7835 2.72267 54.6686C2.593 54.4963 2.60741 54.2521 2.73708 54.0941L49.185 1.3071L49.7612 1.80984L4.30742 53.462L52.2248 30.3938L52.5562 31.0833L3.28453 54.7979C3.2125 54.8266 3.14047 54.841 3.08284 54.841Z" fill="#69A847"/>
<path d="M50.1502 2.31257C50.1502 3.54786 49.1417 4.53895 47.9172 4.53895C46.6782 4.53895 45.6841 3.53349 45.6841 2.31257C45.6841 1.07728 46.6926 0.0861761 47.9172 0.0861761C49.1417 0.0718123 50.1502 1.07728 50.1502 2.31257Z" fill="#69A847"/>
<path d="M13.1393 23.5279C13.1393 25.1366 11.8282 26.4581 10.2002 26.4581C8.58667 26.4581 7.26123 25.151 7.26123 23.5279C7.26123 21.9048 8.57226 20.5977 10.2002 20.5977C11.8282 20.5977 13.1393 21.9048 13.1393 23.5279Z" fill="#69A847"/>
<path d="M56.7345 30.0347C56.7345 33.2378 54.1413 35.8233 50.9285 35.8233C47.7158 35.8233 45.1226 33.2378 45.1226 30.0347C45.1226 26.8316 47.7302 24.2461 50.9285 24.2461C54.1413 24.2461 56.7345 26.8459 56.7345 30.0347Z" fill="#69A847"/>
<path d="M42.587 44.4128C42.587 46.0216 41.2904 47.3143 39.6768 47.3143C38.0776 47.3143 36.7666 46.0216 36.7666 44.4128C36.7666 42.8185 38.0632 41.5114 39.6768 41.5114C41.2904 41.5114 42.587 42.8041 42.587 44.4128Z" fill="#69A847"/>
<path d="M61.7192 54.683C61.7192 56.4497 60.2785 57.8861 58.5064 57.8861C56.7344 57.8861 55.3081 56.4497 55.3081 54.683C55.3081 52.9162 56.7488 51.4942 58.5064 51.4942C60.2929 51.4942 61.7192 52.9162 61.7192 54.683Z" fill="#69A847"/>
<path d="M37.3859 71.1295C37.3859 72.7957 36.0316 74.1459 34.3604 74.1459C32.6892 74.1459 31.335 72.7957 31.335 71.1295C31.335 69.4633 32.6892 68.1131 34.3604 68.1131C36.0316 68.1131 37.3859 69.4633 37.3859 71.1295Z" fill="#69A847"/>
<path d="M56.0142 78.3689C56.0142 81.3709 53.5794 83.7984 50.5684 83.7984C47.5573 83.7984 45.1226 81.3709 45.1226 78.3689C45.1226 75.3668 47.5573 72.9394 50.5684 72.9394C53.5794 72.9394 56.0142 75.3668 56.0142 78.3689Z" fill="#69A847"/>
<path d="M59.9472 94.0829C59.9472 95.5049 58.7947 96.6396 57.3828 96.6396C55.9565 96.6396 54.8184 95.4905 54.8184 94.0829C54.8184 92.6752 55.9709 91.5261 57.3828 91.5261C58.7947 91.5118 59.9472 92.6609 59.9472 94.0829Z" fill="#69A847"/>
<path d="M47.2693 110.845C47.2693 111.995 46.3329 112.928 45.1803 112.928C44.0278 112.928 43.0913 111.995 43.0913 110.845C43.0913 109.696 44.0278 108.763 45.1803 108.763C46.3473 108.763 47.2693 109.696 47.2693 110.845Z" fill="#69A847"/>
<path d="M14.7817 87.3606C14.7817 88.8401 13.5716 90.0466 12.0876 90.0466C10.6037 90.0466 9.39355 88.8401 9.39355 87.3606C9.39355 85.8811 10.6037 84.6746 12.0876 84.6746C13.5716 84.6746 14.7817 85.8811 14.7817 87.3606Z" fill="#69A847"/>
<path d="M6.54074 56.1337C6.54074 57.9292 5.07124 59.3943 3.27038 59.3943C1.46951 59.3943 0 57.9435 0 56.1337C0 54.3382 1.4551 52.8731 3.27038 52.8731C5.08565 52.8731 6.54074 54.3382 6.54074 56.1337Z" fill="#69A847"/>
<path d="M71.3862 0V113" stroke="white" stroke-width="2" stroke-miterlimit="10"/>
<path d="M100.142 52.2268C100.142 54.9702 99.8252 57.0961 99.2057 58.6187C98.5862 60.1412 97.5057 61.3478 96.0074 62.224C94.4947 63.1002 92.8235 63.5454 90.9938 63.5454C88.1556 63.5454 85.9658 62.6836 84.4098 60.9456C83.7039 60.0694 83.1564 59.0208 82.7674 57.7999C82.3641 56.579 82.1768 55.2001 82.1768 53.6488V52.3704L87.6658 51.5517C87.6658 53.5626 87.7378 54.8122 87.8963 55.2862C88.0548 55.7746 88.17 56.105 88.2421 56.263C88.3141 56.4354 88.4438 56.6077 88.6311 56.7945C89.2506 57.4983 90.0429 57.843 91.0226 57.843C91.7286 57.843 92.348 57.6707 92.8955 57.3403C93.4286 57.0099 93.7743 56.6077 93.9328 56.1481C94.0913 55.6884 94.1921 55.157 94.2498 54.5537C94.3074 53.9504 94.3362 53.2322 94.3362 52.4135V30.3363H100.142V52.2268Z" fill="white"/>
<path d="M124.706 63.0427H119.491V61.5345C117.877 62.8703 115.961 63.5454 113.771 63.5454C112.489 63.5454 111.178 63.2725 109.838 62.7267C108.556 62.1521 107.62 61.4196 107 60.529C106.726 60.1699 106.467 59.6959 106.222 59.1214L105.675 57.4265L105.487 53.778V39.3137H111.12V52.356C111.12 53.1173 111.12 53.8355 111.149 54.4962C111.164 55.1713 111.236 55.7603 111.38 56.2773C111.524 56.7944 111.826 57.2541 112.316 57.6419C113.022 58.0728 113.742 58.2739 114.506 58.2739C115.356 58.2739 116.177 58.0441 116.97 57.5845C117.676 57.0961 118.194 56.4641 118.554 55.6884C118.9 54.9128 119.087 53.6631 119.087 51.9251V39.285H124.721V63.0427H124.706Z" fill="white"/>
<path d="M147.959 55.6597C147.959 57.053 147.556 58.3888 146.749 59.6385C145.942 60.9025 144.79 61.8792 143.291 62.5687C142.931 62.7267 142.528 62.856 142.096 62.9852C141.663 63.1002 141.303 63.2007 141.001 63.2582C140.179 63.4449 139.344 63.5311 138.479 63.5311C135.454 63.5311 133.178 62.8847 131.622 61.6207C130.829 60.9743 130.167 60.0981 129.605 58.9778C129.057 57.8574 128.611 56.3923 128.279 54.5968L133.912 53.778C134.028 54.841 134.186 55.6453 134.388 56.1768C134.59 56.7083 134.878 57.1535 135.281 57.527C136.016 58.1016 137.082 58.3888 138.479 58.3888C139.906 58.3888 140.885 58.1303 141.404 57.6132C141.98 57.1248 142.268 56.579 142.268 55.9757C142.268 55.6166 142.067 55.2575 141.678 54.9272C141.217 54.6542 140.107 54.2952 138.335 53.8355C135.713 53.1604 133.84 52.5715 132.702 52.04C131.578 51.5086 130.642 50.6898 129.907 49.5551C129.331 48.4634 129.043 47.3144 129.043 46.0934C129.043 44.9156 129.302 43.867 129.821 42.9478C130.037 42.5168 130.296 42.1147 130.599 41.7412C130.901 41.3677 131.319 40.9656 131.838 40.5346C132.112 40.3192 132.414 40.1468 132.76 39.9888C133.091 39.8452 133.653 39.6154 134.46 39.3137L136.016 38.9977L137.802 38.8541C139.517 38.8541 141.073 39.1126 142.47 39.6297C143.075 39.8452 143.68 40.1612 144.257 40.5777C144.833 40.9943 145.294 41.4539 145.654 41.9423C146 42.4307 146.331 43.0483 146.634 43.8239C146.936 44.5996 147.196 45.5907 147.412 46.7972L141.822 47.5729C141.707 46.6967 141.606 46.1796 141.548 45.9929C141.39 45.4183 141.101 44.9587 140.684 44.5996C140.05 44.183 139.171 43.9676 138.076 43.9676C137.284 43.9676 136.679 44.0107 136.275 44.0825C135.857 44.1543 135.512 44.3123 135.195 44.5565C134.762 44.9156 134.561 45.3178 134.561 45.7343V45.9641L134.791 46.3807C134.878 46.4956 135.18 46.6967 135.699 46.9696L138.724 47.932C141.073 48.4778 142.888 49.0524 144.17 49.6556C145.294 50.1727 146.216 50.9197 146.922 51.882C147.599 52.8588 147.959 54.1228 147.959 55.6597Z" fill="white"/>
<path d="M160.997 62.9422L158.664 63.3156H157.381C156.013 63.3156 154.918 63.0714 154.125 62.5831C153.333 62.0947 152.713 61.3621 152.252 60.3998C152.094 59.8827 151.993 59.265 151.936 58.5468C151.878 57.8287 151.849 56.8663 151.849 55.6454V44.3267H149.429V39.3568H151.849V34.5449L156.978 31.0976V39.3712H160.32V44.341H156.978V55.8895V56.8519V57.4408L157.208 57.7137C157.309 57.7999 157.525 57.8574 157.871 57.8574H158.433L160.162 57.4839L160.997 62.9422Z" fill="white"/>
<path d="M196.006 52.04C195.43 54.2664 194.724 56.0906 193.903 57.5414C193.081 58.9921 192.058 60.1987 190.863 61.1754C189.653 62.1522 188.342 62.8847 186.93 63.3587C185.503 63.8471 183.947 64.0913 182.233 64.0913C178.819 64.0913 175.995 63.3587 173.762 61.8936C171.543 60.4285 169.857 58.317 168.734 55.5592C167.61 52.787 167.034 49.9286 167.034 46.984C167.034 43.6659 167.682 40.7214 168.95 38.1359C170.232 35.5504 172.091 33.6113 174.54 32.2898C175.764 31.6147 176.989 31.1263 178.242 30.8103C179.496 30.4943 180.836 30.3363 182.276 30.3363C185.503 30.3363 188.255 31.1838 190.517 32.8931C191.641 33.7406 192.606 34.8178 193.398 36.1106C194.191 37.4033 194.897 39.0552 195.502 41.0661L189.552 42.4737C189.091 41.0517 188.63 39.9457 188.183 39.1701C187.722 38.3944 187.189 37.7624 186.584 37.274C185.489 36.3979 184.034 35.9526 182.233 35.9526C180.101 35.9526 178.358 36.441 177.018 37.4177C175.678 38.3944 174.713 39.759 174.107 41.5401C173.517 43.3212 173.214 45.131 173.214 46.9983C173.214 48.2767 173.286 49.4402 173.445 50.4887C173.603 51.5373 173.863 52.514 174.223 53.4333C174.929 55.0708 175.952 56.3492 177.291 57.2685C178.66 58.0872 180.187 58.5037 181.873 58.5037C183.861 58.5037 185.532 57.9579 186.901 56.8663C187.607 56.263 188.197 55.4586 188.687 54.4675C189.177 53.4764 189.595 52.155 189.97 50.4744L196.006 52.04Z" fill="#69A847"/>
<path d="M220.382 51.4224C220.382 54.367 219.921 56.6939 219.014 58.3888C218.164 60.1843 216.838 61.5776 215.052 62.5831C213.265 63.5885 211.335 64.0913 209.26 64.0913C206.033 64.0913 203.368 63.014 201.279 60.8594C199.19 58.7048 198.138 55.6741 198.138 51.7528C198.138 47.4724 199.363 44.2405 201.798 42.0572C202.777 41.2097 203.901 40.549 205.183 40.1037C206.465 39.6441 207.82 39.4143 209.26 39.4143C212.516 39.4143 215.196 40.4915 217.271 42.6461C219.345 44.8007 220.382 47.7309 220.382 51.4224ZM214.576 51.566C214.576 49.2391 214.058 47.4724 213.035 46.2945C212.012 45.1167 210.73 44.5134 209.203 44.5134C207.733 44.5134 206.494 45.0736 205.486 46.194C204.477 47.4436 203.973 49.2822 203.973 51.7384C203.973 54.2233 204.477 56.0475 205.471 57.1966C206.465 58.3457 207.748 58.9203 209.304 58.9203C210.773 58.9203 212.012 58.3601 213.021 57.2397C213.294 56.8806 213.525 56.5215 213.683 56.1912C213.856 55.8608 214.015 55.4443 214.173 54.9702C214.432 54.0653 214.576 52.9306 214.576 51.566Z" fill="#69A847"/>
<path d="M243.088 63.5885H238.766L237.729 62.4969C236.374 63.5598 234.718 64.0913 232.758 64.0913C230.856 64.0913 229.113 63.5454 227.557 62.4681C225.987 61.3909 224.719 59.8396 223.739 57.843C223.336 56.8663 223.034 55.8608 222.817 54.8266C222.601 53.7924 222.5 52.672 222.5 51.4511C222.5 49.0524 222.875 46.8691 223.639 44.93C224.402 42.9909 225.584 41.4826 227.212 40.4197C228.825 39.3568 230.597 38.8253 232.513 38.8253C234.156 38.8253 235.481 39.1557 236.49 39.8308L237.412 40.3766V30.8822H243.088V63.5885ZM237.729 51.8102C237.729 49.1098 237.224 47.1132 236.216 45.8349C235.366 44.6139 234.257 44.0107 232.917 44.0107C231.606 44.0107 230.525 44.5709 229.661 45.7056C228.753 46.826 228.292 48.7507 228.292 51.4511C228.292 54.0653 228.753 55.947 229.69 57.1105C230.626 58.2739 231.735 58.8485 233.046 58.8485C234.357 58.8485 235.423 58.3026 236.245 57.211C237.239 56.0188 237.729 54.2233 237.729 51.8102Z" fill="#69A847"/>
<path d="M268.804 55.0995C268.314 56.9237 267.781 58.3457 267.176 59.3369C266.586 60.3423 265.793 61.2185 264.828 61.9798C263.056 63.3731 260.808 64.0769 258.1 64.0769C254.685 64.0769 251.963 62.9996 249.96 60.845C247.943 58.6905 246.935 55.7172 246.935 51.9251C246.935 48.0756 247.972 45.0161 250.018 42.7754C252.078 40.5346 254.7 39.3999 257.913 39.3999C261.053 39.3999 263.632 40.4628 265.62 42.603C267.623 44.7432 268.617 47.7596 268.617 51.6666L268.574 53.6775H252.741C252.741 54.2521 252.885 54.8841 253.158 55.5448C253.432 56.2199 253.864 56.8232 254.441 57.369C255.42 58.4032 256.63 58.9203 258.1 58.9203C259.224 58.9203 260.16 58.6474 260.909 58.1016C261.658 57.5557 262.379 56.3204 263.085 54.4101L268.804 55.0995ZM262.58 48.5784C262.465 47.616 262.134 46.826 261.615 46.194C260.664 45.0736 259.454 44.5278 257.956 44.5278C256.587 44.5278 255.377 45.0161 254.34 45.9785C253.634 46.6105 253.202 47.4867 253.014 48.5927H262.58V48.5784Z" fill="#69A847"/>
<path d="M84.756 83.6835L82.3789 73.1117H84.7993L85.5628 77.4783C85.7789 78.728 85.995 80.0925 86.1535 81.1698H86.1823C86.3408 80.0207 86.5857 78.7567 86.8306 77.4496L87.6807 73.1261H90.0866L90.8934 77.5789C91.1095 78.8142 91.2824 79.9489 91.4265 81.1267H91.4553C91.5993 79.9489 91.8299 78.7136 92.0315 77.4496L92.8527 73.1261H95.1578L92.579 83.6978H90.1298L89.2798 79.1445C89.0925 78.0816 88.9196 77.0905 88.8044 75.8839H88.7756C88.6027 77.0761 88.4298 78.0816 88.1993 79.1445L87.2484 83.6978H84.756V83.6835Z" fill="white"/>
<path d="M97.3617 80.6096C97.4338 81.6007 98.3558 82.0747 99.4075 82.0747C100.185 82.0747 100.805 81.9598 101.41 81.7587L101.713 83.3675C100.963 83.6835 100.056 83.8415 99.0761 83.8415C96.6126 83.8415 95.2007 82.3333 95.2007 79.9345C95.2007 77.9954 96.3388 75.8408 98.8745 75.8408C101.223 75.8408 102.116 77.7656 102.116 79.676C102.116 80.0925 102.073 80.4516 102.044 80.624H97.3617V80.6096ZM100.027 78.9722C100.027 78.3976 99.7821 77.4209 98.7448 77.4209C97.7939 77.4209 97.4049 78.3258 97.3473 78.9722H100.027Z" fill="white"/>
<path d="M103.413 83.6835C103.441 83.1808 103.47 82.2615 103.47 81.3996V72.5515H105.732V76.9325H105.761C106.193 76.2718 106.942 75.8552 107.965 75.8552C109.708 75.8552 110.976 77.3778 110.962 79.7334C110.962 82.4913 109.305 83.8702 107.634 83.8702C106.784 83.8702 105.977 83.5399 105.444 82.6349H105.415L105.329 83.6978H103.413V83.6835ZM105.732 80.4229C105.732 80.5809 105.747 80.7246 105.775 80.8395C105.919 81.4858 106.438 81.9742 107.101 81.9742C108.066 81.9742 108.657 81.1842 108.657 79.8053C108.657 78.6131 108.152 77.6651 107.101 77.6651C106.496 77.6651 105.919 78.1534 105.775 78.8429C105.747 78.9865 105.732 79.1302 105.732 79.2882V80.4229Z" fill="white"/>
<path d="M115.428 73.2553C116.264 73.1117 117.344 73.0399 118.483 73.0399C120.384 73.0399 121.623 73.399 122.588 74.1747C123.626 74.9934 124.274 76.3005 124.274 78.1534C124.274 80.1787 123.583 81.572 122.617 82.4338C121.566 83.3531 119.952 83.7984 117.993 83.7984C116.826 83.7984 115.99 83.7266 115.428 83.6404V73.2553ZM117.705 81.8736C117.892 81.9167 118.209 81.9167 118.497 81.9167C120.543 81.9311 121.883 80.7389 121.883 78.2109C121.897 76.0132 120.672 74.8497 118.727 74.8497C118.223 74.8497 117.892 74.8928 117.705 74.9503V81.8736Z" fill="white"/>
<path d="M127.429 80.6096C127.501 81.6007 128.423 82.0747 129.475 82.0747C130.253 82.0747 130.872 81.9598 131.477 81.7587L131.78 83.3675C131.031 83.6835 130.123 83.8415 129.144 83.8415C126.68 83.8415 125.268 82.3333 125.268 79.9345C125.268 77.9954 126.406 75.8408 128.942 75.8408C131.29 75.8408 132.183 77.7656 132.183 79.676C132.183 80.0925 132.14 80.4516 132.111 80.624H127.429V80.6096ZM130.08 78.9722C130.08 78.3976 129.835 77.4209 128.798 77.4209C127.847 77.4209 127.458 78.3258 127.4 78.9722H130.08Z" fill="white"/>
<path d="M135.122 76.0132L136.102 79.5754C136.275 80.2218 136.419 80.8251 136.52 81.4427H136.563C136.678 80.8107 136.793 80.2362 136.966 79.5754L137.903 76.0132H140.28L137.571 83.6835H135.31L132.659 76.0132H135.122Z" fill="white"/>
<path d="M142.83 80.6096C142.902 81.6007 143.824 82.0747 144.876 82.0747C145.654 82.0747 146.273 81.9598 146.878 81.7587L147.181 83.3675C146.432 83.6835 145.524 83.8415 144.544 83.8415C142.081 83.8415 140.669 82.3333 140.669 79.9345C140.669 77.9954 141.807 75.8408 144.343 75.8408C146.691 75.8408 147.584 77.7656 147.584 79.676C147.584 80.0925 147.541 80.4516 147.512 80.624H142.83V80.6096ZM145.481 78.9722C145.481 78.3976 145.236 77.4209 144.199 77.4209C143.248 77.4209 142.859 78.3258 142.801 78.9722H145.481Z" fill="white"/>
<path d="M151.186 72.5372H148.924V83.6835H151.186V72.5372Z" fill="white"/>
<path d="M160.191 79.7622C160.191 82.5775 158.303 83.8558 156.358 83.8558C154.241 83.8558 152.598 82.3764 152.598 79.9058C152.598 77.4209 154.14 75.8408 156.474 75.8408C158.707 75.8408 160.191 77.4496 160.191 79.7622ZM154.932 79.834C154.932 81.1554 155.451 82.1465 156.416 82.1465C157.295 82.1465 157.857 81.2273 157.857 79.834C157.857 78.6849 157.439 77.5214 156.416 77.5214C155.335 77.5358 154.932 78.7136 154.932 79.834Z" fill="white"/>
<path d="M161.588 78.5843C161.588 77.5789 161.559 76.717 161.53 76.0132H163.49L163.59 77.0761H163.619C164.152 76.2574 164.988 75.8408 166.04 75.8408C167.624 75.8408 169.051 77.3059 169.051 79.7478C169.051 82.5344 167.365 83.8558 165.752 83.8558C164.873 83.8558 164.196 83.4824 163.864 82.9796H163.835V86.7861H161.573V78.5843H161.588ZM163.835 80.3942C163.835 80.5809 163.85 80.7533 163.879 80.8969C164.023 81.5433 164.541 82.0316 165.204 82.0316C166.184 82.0316 166.76 81.1698 166.76 79.8627C166.76 78.6418 166.241 77.7081 165.233 77.7081C164.599 77.7081 164.023 78.2109 163.879 78.9147C163.85 79.044 163.835 79.202 163.835 79.3312V80.3942Z" fill="white"/>
<path d="M170.462 78.4551C170.462 77.4927 170.434 76.6739 170.405 75.9988H172.307L172.407 77.033H172.451C172.768 76.5447 173.401 75.8265 174.655 75.8265C175.591 75.8265 176.34 76.3292 176.643 77.1336H176.672C176.946 76.7458 177.262 76.4298 177.608 76.2143C178.012 75.9701 178.458 75.8408 178.991 75.8408C180.389 75.8408 181.44 76.875 181.44 79.1733V83.6978H179.236V79.518C179.236 78.412 178.89 77.7656 178.17 77.7656C177.651 77.7656 177.277 78.139 177.133 78.5987C177.075 78.7711 177.046 79.0152 177.046 79.2163V83.6978H174.842V79.4031C174.842 78.4263 174.511 77.7656 173.805 77.7656C173.229 77.7656 172.883 78.2396 172.753 78.6274C172.681 78.8142 172.667 79.044 172.667 79.2307V83.6978H170.462V78.4551Z" fill="white"/>
<path d="M184.97 80.6096C185.042 81.6007 185.964 82.0747 187.016 82.0747C187.794 82.0747 188.413 81.9598 189.018 81.7587L189.321 83.3675C188.572 83.6835 187.664 83.8415 186.685 83.8415C184.221 83.8415 182.809 82.3333 182.809 79.9345C182.809 77.9954 183.947 75.8408 186.483 75.8408C188.831 75.8408 189.724 77.7656 189.724 79.676C189.724 80.0925 189.681 80.4516 189.652 80.624H184.97V80.6096ZM187.635 78.9722C187.635 78.3976 187.39 77.4209 186.353 77.4209C185.402 77.4209 185.013 78.3258 184.956 78.9722H187.635Z" fill="white"/>
<path d="M191.079 78.4551C191.079 77.4927 191.05 76.6739 191.021 75.9988H192.98L193.081 77.0474H193.124C193.427 76.559 194.162 75.8265 195.372 75.8265C196.856 75.8265 197.98 76.8607 197.98 79.1302V83.6835H195.718V79.4318C195.718 78.4407 195.386 77.7656 194.58 77.7656C193.96 77.7656 193.585 78.2252 193.441 78.6562C193.384 78.7998 193.355 79.0296 193.355 79.2594V83.6835H191.093V78.4551H191.079Z" fill="white"/>
<path d="M202.215 73.8156V76.0132H203.829V77.7656H202.215V80.5378C202.215 81.4571 202.417 81.888 203.108 81.888C203.397 81.888 203.613 81.8593 203.771 81.8305L203.786 83.6404C203.483 83.7697 202.95 83.8415 202.316 83.8415C201.581 83.8415 200.976 83.5829 200.616 83.1807C200.198 82.7211 199.997 81.9885 199.997 80.9113V77.78H199.031V76.0276H199.997V74.3614L202.215 73.8156Z" fill="white"/>
<path d="M215.571 83.3818C215.153 83.5973 214.216 83.8415 212.992 83.8415C209.534 83.8415 207.748 81.572 207.748 78.5556C207.748 74.9503 210.182 72.9394 213.222 72.9394C214.404 72.9394 215.282 73.1835 215.686 73.4134L215.225 75.3094C214.764 75.1083 214.13 74.9216 213.323 74.9216C211.522 74.9216 210.125 76.0707 210.125 78.4263C210.125 80.5378 211.306 81.8736 213.337 81.8736C214.015 81.8736 214.778 81.7156 215.225 81.5289L215.571 83.3818Z" fill="white"/>
<path d="M223.869 79.7622C223.869 82.5775 221.982 83.8558 220.037 83.8558C217.919 83.8558 216.276 82.3764 216.276 79.9058C216.276 77.4209 217.818 75.8408 220.152 75.8408C222.385 75.8408 223.869 77.4496 223.869 79.7622ZM218.61 79.834C218.61 81.1554 219.129 82.1465 220.094 82.1465C220.973 82.1465 221.535 81.2273 221.535 79.834C221.535 78.6849 221.117 77.5214 220.094 77.5214C219.014 77.5358 218.61 78.7136 218.61 79.834Z" fill="white"/>
<path d="M225.267 78.4551C225.267 77.4927 225.238 76.6739 225.209 75.9988H227.111L227.212 77.033H227.255C227.572 76.5447 228.206 75.8265 229.459 75.8265C230.395 75.8265 231.145 76.3292 231.447 77.1336H231.476C231.75 76.7458 232.067 76.4298 232.412 76.2143C232.816 75.9701 233.262 75.8408 233.795 75.8408C235.193 75.8408 236.245 76.875 236.245 79.1733V83.6978H234.04V79.518C234.04 78.412 233.695 77.7656 232.974 77.7656C232.456 77.7656 232.081 78.139 231.937 78.5987C231.879 78.7711 231.851 79.0152 231.851 79.2163V83.6978H229.646V79.4031C229.646 78.4263 229.315 77.7656 228.609 77.7656C228.033 77.7656 227.687 78.2396 227.557 78.6274C227.485 78.8142 227.471 79.044 227.471 79.2307V83.6978H225.267V78.4551Z" fill="white"/>
<path d="M238.045 78.5843C238.045 77.5789 238.017 76.717 237.988 76.0132H239.947L240.048 77.0761H240.077C240.61 76.2574 241.445 75.8408 242.497 75.8408C244.082 75.8408 245.508 77.3059 245.508 79.7478C245.508 82.5344 243.823 83.8558 242.209 83.8558C241.33 83.8558 240.653 83.4824 240.322 82.9796H240.293V86.7861H238.031V78.5843H238.045ZM240.293 80.3942C240.293 80.5809 240.307 80.7533 240.336 80.8969C240.48 81.5433 240.999 82.0316 241.662 82.0316C242.641 82.0316 243.218 81.1698 243.218 79.8627C243.218 78.6418 242.699 77.7081 241.69 77.7081C241.056 77.7081 240.48 78.2109 240.336 78.9147C240.307 79.044 240.293 79.202 240.293 79.3312V80.3942Z" fill="white"/>
<path d="M251.055 83.6835L250.925 82.9078H250.882C250.407 83.5255 249.658 83.8558 248.793 83.8558C247.324 83.8558 246.445 82.7211 246.445 81.5002C246.445 79.5036 248.145 78.5556 250.709 78.57V78.4551C250.709 78.0529 250.508 77.464 249.384 77.464C248.649 77.464 247.857 77.7369 247.381 78.0385L246.963 76.5016C247.468 76.1999 248.462 75.8265 249.787 75.8265C252.208 75.8265 252.986 77.3347 252.986 79.1302V81.8018C252.986 82.5344 253.014 83.2526 253.086 83.6691H251.055V83.6835ZM250.781 80.0638C249.586 80.0494 248.664 80.3511 248.664 81.2704C248.664 81.888 249.052 82.1753 249.557 82.1753C250.119 82.1753 250.58 81.7875 250.738 81.2991C250.767 81.1698 250.781 81.0262 250.781 80.8969V80.0638Z" fill="white"/>
<path d="M254.757 78.4551C254.757 77.4927 254.729 76.6739 254.7 75.9988H256.659L256.76 77.0474H256.803C257.106 76.559 257.84 75.8265 259.051 75.8265C260.534 75.8265 261.658 76.8607 261.658 79.1302V83.6835H259.396V79.4318C259.396 78.4407 259.065 77.7656 258.258 77.7656C257.639 77.7656 257.264 78.2252 257.12 78.6562C257.062 78.7998 257.034 79.0296 257.034 79.2594V83.6835H254.772V78.4551H254.757Z" fill="white"/>
<path d="M264.871 76.0132L265.952 79.7765C266.067 80.2362 266.211 80.7964 266.312 81.1986H266.355C266.456 80.7964 266.571 80.2074 266.687 79.7765L267.58 76.0132H270L268.3 81.0693C267.263 84.1144 266.557 85.3353 265.75 86.111C264.958 86.8292 264.137 87.0877 263.56 87.1595L263.085 85.1342C263.373 85.0911 263.719 84.9475 264.065 84.7177C264.41 84.5309 264.77 84.1575 265.001 83.7553C265.073 83.6404 265.116 83.5255 265.116 83.4106C265.116 83.3387 265.102 83.2095 265.015 83.0227L262.35 76.0132H264.871Z" fill="white"/>
</svg>
