<svg width="280" height="54" viewBox="0 0 280 54" fill="none" xmlns="http://www.w3.org/2000/svg">
<rect x="1" y="1" width="278" height="52" fill="#FBFBFB" stroke="#0185AD" stroke-width="2"/>
<path d="M84.752 17.608C84.5387 17.608 84.3573 17.5333 84.208 17.384C84.0587 17.2347 83.984 17.0533 83.984 16.84V14.536C83.984 14.3227 84.0587 14.1413 84.208 13.992C84.3573 13.8427 84.5387 13.768 84.752 13.768H87.664C87.8773 13.768 88.0587 13.8427 88.208 13.992C88.3787 14.1413 88.464 14.3227 88.464 14.536V16.84C88.464 17.0533 88.3893 17.2347 88.24 17.384C88.0907 17.5333 87.8987 17.608 87.664 17.608H84.752ZM84.88 37C84.6667 37 84.4853 36.9253 84.336 36.776C84.1867 36.6267 84.112 36.4453 84.112 36.232V21.128C84.112 20.9147 84.1867 20.7333 84.336 20.584C84.4853 20.4347 84.6667 20.36 84.88 20.36H87.536C87.7707 20.36 87.952 20.4347 88.08 20.584C88.2293 20.712 88.304 20.8933 88.304 21.128V36.232C88.304 36.4453 88.2293 36.6267 88.08 36.776C87.952 36.9253 87.7707 37 87.536 37H84.88ZM93.5415 37C93.3282 37 93.1468 36.9253 92.9975 36.776C92.8482 36.6267 92.7735 36.4453 92.7735 36.232V15.4C92.7735 15.1653 92.8375 14.9733 92.9655 14.824C93.1148 14.6747 93.3068 14.6 93.5415 14.6H102.118C104.678 14.6 106.694 15.208 108.166 16.424C109.638 17.6187 110.374 19.3787 110.374 21.704C110.374 24.0293 109.638 25.7893 108.166 26.984C106.715 28.1573 104.699 28.744 102.118 28.744H97.3495V36.232C97.3495 36.4453 97.2748 36.6267 97.1255 36.776C96.9975 36.9253 96.8162 37 96.5815 37H93.5415ZM101.958 25.192C103.195 25.192 104.144 24.904 104.806 24.328C105.467 23.7307 105.798 22.856 105.798 21.704C105.798 20.5947 105.478 19.7307 104.838 19.112C104.198 18.472 103.238 18.152 101.958 18.152H97.2855V25.192H101.958ZM114.123 37C113.91 37 113.729 36.9253 113.579 36.776C113.43 36.6267 113.355 36.4453 113.355 36.232V15.048C113.355 14.8133 113.43 14.632 113.579 14.504C113.729 14.3547 113.91 14.28 114.123 14.28H116.971C117.206 14.28 117.387 14.3547 117.515 14.504C117.665 14.632 117.739 14.8133 117.739 15.048V22.344C119.019 20.808 120.747 20.04 122.923 20.04C124.886 20.04 126.454 20.6907 127.627 21.992C128.801 23.272 129.387 25.0213 129.387 27.24V36.232C129.387 36.4453 129.313 36.6267 129.163 36.776C129.035 36.9253 128.854 37 128.619 37H125.739C125.526 37 125.345 36.9253 125.195 36.776C125.046 36.6267 124.971 36.4453 124.971 36.232V27.432C124.971 26.1733 124.662 25.2027 124.043 24.52C123.446 23.816 122.571 23.464 121.419 23.464C120.289 23.464 119.393 23.816 118.731 24.52C118.07 25.224 117.739 26.1947 117.739 27.432V36.232C117.739 36.4453 117.665 36.6267 117.515 36.776C117.387 36.9253 117.206 37 116.971 37H114.123ZM140.648 37.32C138.152 37.32 136.222 36.68 134.856 35.4C133.491 34.0987 132.755 32.328 132.648 30.088L132.616 28.68L132.648 27.272C132.755 25.0533 133.502 23.2933 134.888 21.992C136.275 20.6907 138.195 20.04 140.648 20.04C143.102 20.04 145.022 20.6907 146.408 21.992C147.795 23.2933 148.542 25.0533 148.648 27.272C148.67 27.528 148.68 27.9973 148.68 28.68C148.68 29.3627 148.67 29.832 148.648 30.088C148.542 32.328 147.806 34.0987 146.44 35.4C145.075 36.68 143.144 37.32 140.648 37.32ZM140.648 34.152C141.779 34.152 142.654 33.8 143.272 33.096C143.891 32.3707 144.232 31.3147 144.296 29.928C144.318 29.7147 144.328 29.2987 144.328 28.68C144.328 28.0613 144.318 27.6453 144.296 27.432C144.232 26.0453 143.891 25 143.272 24.296C142.654 23.5707 141.779 23.208 140.648 23.208C139.518 23.208 138.643 23.5707 138.024 24.296C137.406 25 137.064 26.0453 137 27.432L136.968 28.68L137 29.928C137.064 31.3147 137.406 32.3707 138.024 33.096C138.643 33.8 139.518 34.152 140.648 34.152ZM152.834 37C152.62 37 152.439 36.9253 152.29 36.776C152.14 36.6267 152.066 36.4453 152.066 36.232V21.128C152.066 20.9147 152.14 20.7333 152.29 20.584C152.439 20.4347 152.62 20.36 152.834 20.36H155.458C155.671 20.36 155.852 20.4347 156.002 20.584C156.151 20.7333 156.226 20.9147 156.226 21.128V22.44C157.484 20.84 159.266 20.04 161.57 20.04C163.532 20.04 165.09 20.6907 166.242 21.992C167.394 23.272 167.97 25.0213 167.97 27.24V36.232C167.97 36.4453 167.895 36.6267 167.746 36.776C167.618 36.9253 167.436 37 167.202 37H164.386C164.172 37 163.991 36.9253 163.842 36.776C163.692 36.6267 163.618 36.4453 163.618 36.232V27.432C163.618 26.1733 163.308 25.2027 162.69 24.52C162.092 23.816 161.218 23.464 160.066 23.464C158.935 23.464 158.039 23.816 157.378 24.52C156.738 25.224 156.418 26.1947 156.418 27.432V36.232C156.418 36.4453 156.343 36.6267 156.194 36.776C156.066 36.9253 155.884 37 155.65 37H152.834ZM179.042 37.32C176.674 37.32 174.786 36.6373 173.378 35.272C171.992 33.8853 171.256 31.944 171.17 29.448L171.138 28.648L171.17 27.848C171.277 25.416 172.024 23.5067 173.41 22.12C174.818 20.7333 176.696 20.04 179.042 20.04C181.56 20.04 183.501 20.808 184.866 22.344C186.253 23.88 186.946 25.928 186.946 28.488V29.16C186.946 29.3733 186.872 29.5547 186.722 29.704C186.573 29.8533 186.381 29.928 186.146 29.928H175.522V30.184C175.565 31.3573 175.885 32.3493 176.482 33.16C177.101 33.9493 177.944 34.344 179.01 34.344C180.269 34.344 181.282 33.8533 182.05 32.872C182.242 32.6373 182.392 32.488 182.498 32.424C182.626 32.36 182.808 32.328 183.042 32.328H185.794C185.986 32.328 186.146 32.392 186.274 32.52C186.424 32.6267 186.498 32.7653 186.498 32.936C186.498 33.448 186.189 34.056 185.57 34.76C184.973 35.4427 184.109 36.04 182.978 36.552C181.848 37.064 180.536 37.32 179.042 37.32ZM182.594 27.24V27.144C182.594 25.8853 182.274 24.872 181.634 24.104C181.016 23.336 180.152 22.952 179.042 22.952C177.933 22.952 177.069 23.336 176.45 24.104C175.832 24.872 175.522 25.8853 175.522 27.144V27.24H182.594Z" fill="#008BA9"/>
</svg>
