<svg width="280" height="54" viewBox="0 0 280 54" fill="none" xmlns="http://www.w3.org/2000/svg">
<rect x="1" y="1" width="278" height="52" fill="#FBFBFB" stroke="#00C8B0" stroke-width="2"/>
<path d="M70.75 22.5938C70.6562 21.7083 70.3854 21.0469 69.9375 20.6094C69.5 20.1615 68.8958 19.9375 68.125 19.9375C67.3958 19.9375 66.7969 20.1667 66.3281 20.625C65.8698 21.0833 65.6406 21.6719 65.6406 22.3906C65.6406 23.1406 65.875 23.724 66.3438 24.1406C66.8021 24.5469 67.6979 24.9792 69.0312 25.4375C71.4688 26.2708 73.2031 27.2552 74.2344 28.3906C75.2656 29.526 75.7812 31.026 75.7812 32.8906C75.7812 35.1094 75.0625 36.9271 73.625 38.3438C72.1875 39.7604 70.3438 40.4688 68.0938 40.4688C65.9688 40.4688 64.1927 39.8021 62.7656 38.4688C61.349 37.1354 60.5573 35.3958 60.3906 33.25H64.9844C65.099 34.2708 65.4271 35.0521 65.9688 35.5938C66.5208 36.125 67.2604 36.3906 68.1875 36.3906C69.1458 36.3906 69.9271 36.1146 70.5312 35.5625C71.1458 35.0104 71.4531 34.2969 71.4531 33.4219C71.4531 32.4635 71.1562 31.7135 70.5625 31.1719C69.9792 30.6406 68.8333 30.0833 67.125 29.5C65.0208 28.7812 63.526 27.901 62.6406 26.8594C61.7552 25.8177 61.3125 24.4271 61.3125 22.6875C61.3125 20.6875 61.9635 19.0521 63.2656 17.7812C64.5677 16.5 66.2396 15.8594 68.2812 15.8594C70.1667 15.8594 71.776 16.5052 73.1094 17.7969C74.4427 19.0781 75.1562 20.6771 75.25 22.5938H70.75ZM77.675 40L87.5812 16.3281H89.2844H90.9875L100.894 40H98.5031H96.0969L93.7375 33.8906H84.8L82.5031 40H80.0969H77.675ZM89.2375 22.25L86.3625 29.8125H92.175L89.2375 22.25ZM108.334 40H106.147H103.959V16.3281H107.006H110.069L116.366 34.3125L122.616 16.3281H125.662H128.725V40H126.537H124.35V22.0312L118.1 40H116.35H114.6L108.334 22.0781V40ZM142.306 22.5938C142.213 21.7083 141.942 21.0469 141.494 20.6094C141.056 20.1615 140.452 19.9375 139.681 19.9375C138.952 19.9375 138.353 20.1667 137.884 20.625C137.426 21.0833 137.197 21.6719 137.197 22.3906C137.197 23.1406 137.431 23.724 137.9 24.1406C138.358 24.5469 139.254 24.9792 140.588 25.4375C143.025 26.2708 144.759 27.2552 145.791 28.3906C146.822 29.526 147.338 31.026 147.338 32.8906C147.338 35.1094 146.619 36.9271 145.181 38.3438C143.744 39.7604 141.9 40.4688 139.65 40.4688C137.525 40.4688 135.749 39.8021 134.322 38.4688C132.905 37.1354 132.114 35.3958 131.947 33.25H136.541C136.655 34.2708 136.983 35.0521 137.525 35.5938C138.077 36.125 138.817 36.3906 139.744 36.3906C140.702 36.3906 141.483 36.1146 142.088 35.5625C142.702 35.0104 143.009 34.2969 143.009 33.4219C143.009 32.4635 142.713 31.7135 142.119 31.1719C141.535 30.6406 140.39 30.0833 138.681 29.5C136.577 28.7812 135.082 27.901 134.197 26.8594C133.311 25.8177 132.869 24.4271 132.869 22.6875C132.869 20.6875 133.52 19.0521 134.822 17.7812C136.124 16.5 137.796 15.8594 139.838 15.8594C141.723 15.8594 143.332 16.5052 144.666 17.7969C145.999 19.0781 146.713 20.6771 146.806 22.5938H142.306ZM167.731 31.1406C167.731 34.1302 166.997 36.4323 165.528 38.0469C164.07 39.6615 161.981 40.4688 159.262 40.4688C156.554 40.4688 154.46 39.6615 152.981 38.0469C151.512 36.4323 150.778 34.1302 150.778 31.1406V16.3281H152.966H155.153V31.3438C155.153 33.0312 155.492 34.2969 156.169 35.1406C156.856 35.974 157.887 36.3906 159.262 36.3906C160.627 36.3906 161.648 35.974 162.325 35.1406C163.012 34.2969 163.356 33.0312 163.356 31.3438V16.3281H165.544H167.731V31.1406ZM176.922 40H174.734H172.547V16.3281H175.062H177.578L187.422 33.625V16.3281H189.609H191.797V40H189.391H186.969L176.922 22.5625V40ZM208.394 40.4688C204.873 40.4688 201.868 39.2708 199.378 36.875C196.899 34.4792 195.659 31.5781 195.659 28.1719C195.659 24.7552 196.883 21.849 199.331 19.4531C201.779 17.0573 204.738 15.8594 208.206 15.8594C210.79 15.8594 213.133 16.5312 215.238 17.875C217.342 19.2188 218.863 21.0208 219.8 23.2812H214.519C213.873 22.2604 212.982 21.4479 211.847 20.8438C210.711 20.2396 209.508 19.9375 208.238 19.9375C205.956 19.9375 204.019 20.7344 202.425 22.3281C200.842 23.9219 200.05 25.8698 200.05 28.1719C200.05 30.4635 200.847 32.4062 202.441 34C204.045 35.5938 205.993 36.3906 208.284 36.3906C210.555 36.3906 212.446 35.6042 213.956 34.0312C214.55 33.3958 215.034 32.7188 215.409 32H205.534V27.9219H220.941V28.1719C220.941 31.5781 219.722 34.4792 217.284 36.875C214.847 39.2708 211.889 40.4688 208.409 40.4688H208.394Z" fill="#00C8B0"/>
</svg>
