<svg width="280" height="54" viewBox="0 0 280 54" fill="none" xmlns="http://www.w3.org/2000/svg">
<rect x="1" y="1" width="278" height="52" fill="#FBFBFB" stroke="#F1600F" stroke-width="2"/>
<path d="M79.6253 38.3448C79.3341 38.7816 78.941 39 78.446 39C77.8927 39 77.4705 38.7379 77.1793 38.2138C77.1211 38.0391 77.092 37.8498 77.092 37.646C77.092 37.4421 77.1939 37.2238 77.3977 36.9908L84.7793 26.7701L77.8782 17.2483C77.7034 17.0153 77.6161 16.7969 77.6161 16.5931C77.6161 16.3893 77.6598 16.2146 77.7471 16.069C77.8636 15.8943 78.0092 15.7341 78.1839 15.5885C78.5042 15.2973 78.81 15.1517 79.1011 15.1517C79.7126 15.1517 80.1931 15.3847 80.5425 15.8506L86.7885 24.9356L93.3402 15.8506C93.6897 15.3847 94.0682 15.1517 94.4759 15.1517C95.0582 15.1517 95.4805 15.4138 95.7425 15.9379C95.8299 16.1126 95.8736 16.2437 95.8736 16.331C95.8736 16.6513 95.7571 16.9134 95.5241 17.1172L88.4046 26.7701L95.7425 36.9034C95.9172 37.1364 96.0046 37.3548 96.0046 37.5586C96.0046 37.7625 95.9609 37.9517 95.8736 38.1264C95.7862 38.272 95.6552 38.4176 95.4805 38.5632C95.131 38.8544 94.7379 39 94.3011 39C93.8935 39 93.5149 38.7816 93.1655 38.3448L86.4391 28.6483L79.6253 38.3448ZM100.487 16.5931C100.487 15.9816 100.778 15.5448 101.361 15.2828C101.535 15.2536 101.783 15.2245 102.103 15.1954C102.424 15.1663 102.715 15.2682 102.977 15.5011C103.268 15.7341 103.414 16.0981 103.414 16.5931V37.5586C103.414 38.2575 103.108 38.7088 102.496 38.9126C102.322 38.9709 102.089 39 101.797 39C101.506 39 101.215 38.8835 100.924 38.6506C100.633 38.4176 100.487 38.0536 100.487 37.5586V16.5931ZM129.044 37.1655C129.073 37.3402 129.087 37.5149 129.087 37.6897C129.087 37.8644 129.044 38.0391 128.956 38.2138C128.869 38.3885 128.753 38.5195 128.607 38.6069C128.316 38.869 127.995 39 127.646 39C126.947 39 126.481 38.6943 126.248 38.0828L124.108 32.7977H112.315L110.218 38.0828C110.015 38.6943 109.607 39 108.995 39C108.384 39 107.918 38.7379 107.598 38.2138C107.51 38.0391 107.467 37.8789 107.467 37.7333C107.467 37.5877 107.51 37.3985 107.598 37.1655L115.504 17.7724C116.086 16.3165 116.756 15.4866 117.513 15.2828C117.717 15.2536 117.979 15.21 118.299 15.1517C118.881 15.1517 119.318 15.2828 119.609 15.5448C120.075 15.8943 120.541 16.6368 121.007 17.7724L129.044 37.1655ZM113.145 30.4828H123.322L118.212 17.6414L113.145 30.4828ZM135.449 23.669C135.187 24.8628 135.056 26.0421 135.056 27.2069C135.056 28.3425 135.187 29.5218 135.449 30.7448C135.741 31.9678 136.221 33.0452 136.891 33.977C137.561 34.8797 138.39 35.6077 139.38 36.1609C140.37 36.7142 141.579 36.9908 143.006 36.9908C144.433 36.9908 145.656 36.7142 146.675 36.1609C147.694 35.6077 148.524 34.8797 149.164 33.977C149.805 33.0452 150.271 31.9678 150.562 30.7448C150.882 29.5218 151.043 28.3425 151.043 27.2069C151.043 26.0421 150.882 24.8628 150.562 23.669C150.271 22.446 149.805 21.3831 149.164 20.4805C148.524 19.5487 147.694 18.8061 146.675 18.2529C145.656 17.6996 144.433 17.423 143.006 17.423C141.579 17.423 140.37 17.6996 139.38 18.2529C138.39 18.8061 137.561 19.5487 136.891 20.4805C136.221 21.3831 135.741 22.446 135.449 23.669ZM131.78 27.1195C131.78 25.4307 132.028 23.8291 132.523 22.3149C133.018 20.8008 133.761 19.505 134.751 18.4276C136.731 16.1563 139.468 15.0061 142.962 14.977C146.515 14.977 149.295 16.1272 151.305 18.4276C152.266 19.505 152.979 20.8008 153.445 22.3149C153.94 23.8291 154.187 25.4307 154.187 27.1195C154.187 28.8375 153.94 30.4828 153.445 32.0552C152.979 33.5985 152.266 34.8943 151.305 35.9425C149.295 38.2138 146.515 39.3494 142.962 39.3494C139.439 39.3494 136.702 38.2138 134.751 35.9425C133.761 34.836 133.018 33.5257 132.523 32.0115C132.028 30.4682 131.78 28.8375 131.78 27.1195ZM172.437 35.1563L180.343 17.6851C180.809 16.695 181.158 16.069 181.391 15.8069C181.886 15.3701 182.381 15.1517 182.876 15.1517C183.4 15.1517 183.793 15.21 184.055 15.3264C184.347 15.4429 184.594 15.6031 184.798 15.8069C185.293 16.3019 185.54 16.9571 185.54 17.7724V37.6897C185.54 38.1264 185.395 38.4613 185.104 38.6943C184.842 38.8981 184.536 39 184.186 39C183.837 39 183.531 38.8981 183.269 38.6943C183.007 38.4613 182.876 38.1264 182.876 37.6897V18.1218L174.228 37.1655C173.878 38.0391 173.267 38.4759 172.393 38.4759C171.636 38.4759 171.039 38.0391 170.602 37.1655L161.998 18.2092V37.6897C161.998 38.1264 161.852 38.4613 161.561 38.6943C161.299 38.8981 160.993 39 160.644 39C160.294 39 159.974 38.8981 159.683 38.6943C159.421 38.4613 159.29 38.1264 159.29 37.6897V17.7724C159.29 16.4912 159.756 15.6759 160.688 15.3264C161.008 15.2682 161.328 15.2245 161.648 15.1954C161.998 15.1663 162.304 15.1954 162.566 15.2828C162.857 15.3701 163.104 15.5012 163.308 15.6759C163.658 15.9671 164.094 16.6368 164.619 17.6851L172.393 35.1563H172.437ZM191.981 16.5931C191.981 15.9816 192.272 15.5448 192.855 15.2828C193.029 15.2536 193.277 15.2245 193.597 15.1954C193.917 15.1663 194.209 15.2682 194.471 15.5011C194.762 15.7341 194.907 16.0981 194.907 16.5931V37.5586C194.907 38.2575 194.602 38.7088 193.99 38.9126C193.816 38.9709 193.583 39 193.291 39C193 39 192.709 38.8835 192.418 38.6506C192.127 38.4176 191.981 38.0536 191.981 37.5586V16.5931Z" fill="#F05600" fill-opacity="0.94"/>
</svg>
