<svg width="280" height="54" viewBox="0 0 280 54" fill="none" xmlns="http://www.w3.org/2000/svg">
<rect x="1" y="1" width="278" height="52" fill="#FBFBFB" stroke="#00BBF4" stroke-width="2"/>
<path d="M86.1377 14.8613H91.251L98.1904 31.5459C98.5557 32.376 98.9154 33.3665 99.2695 34.5176C99.668 33.3223 100.05 32.2819 100.415 31.3965L107.172 14.8613H112.235V39H108.815V23.2783C108.815 21.9059 108.849 20.3177 108.915 18.5137C108.417 19.9082 107.808 21.5241 107.089 23.3613L100.73 39H97.792L90.9688 22.498C90.4928 21.3249 89.9948 19.9967 89.4746 18.5137C89.541 20.4505 89.5742 22.0277 89.5742 23.2451V39H86.1377V14.8613ZM135.922 39H118.407V14.8613H135.191V17.8662H122.259V25.2041H134.162V28.1426H122.259V36.0283H135.922V39ZM144.302 39H140.45V14.8613H144.302V39ZM148.431 39V36.2275L162.642 17.9326H149.726V14.8613H166.959V17.6006L152.748 35.9619H167.822V39H148.431ZM191.757 29.8193C191.757 31.4574 191.492 32.874 190.961 34.0693C190.44 35.2646 189.716 36.2552 188.786 37.041C187.867 37.8158 186.777 38.3913 185.515 38.7676C184.254 39.1439 182.887 39.332 181.415 39.332C179.998 39.332 178.692 39.1549 177.497 38.8008C176.301 38.4466 175.261 37.8988 174.376 37.1572C173.501 36.4046 172.815 35.4528 172.317 34.3018C171.83 33.1396 171.587 31.7617 171.587 30.168V14.8613H175.438V29.8193C175.438 30.9593 175.593 31.9388 175.903 32.7578C176.213 33.5768 176.639 34.2464 177.181 34.7666C177.735 35.2868 178.382 35.6742 179.124 35.9287C179.876 36.1722 180.684 36.2939 181.548 36.2939C182.411 36.2939 183.23 36.1667 184.005 35.9121C184.779 35.6465 185.46 35.2425 186.047 34.7002C186.633 34.1468 187.098 33.4495 187.441 32.6084C187.784 31.7673 187.956 30.7712 187.956 29.6201V14.8613H191.757V29.8193Z" fill="#00BBF4"/>
</svg>
