<svg width="280" height="54" viewBox="0 0 280 54" fill="none" xmlns="http://www.w3.org/2000/svg">
<rect x="1" y="1" width="278" height="52" fill="#FBFBFB" stroke="#C62121" stroke-width="2"/>
<path d="M78.975 16.742V25.763H87.562V16.742H92.243V39H87.562V29.7H78.975V39H74.294V16.742H78.975ZM101.25 16.742V30.072C101.25 31.9527 101.581 33.358 102.242 34.288C102.904 35.218 104.247 35.683 106.272 35.683C108.298 35.683 109.631 35.218 110.271 34.288C110.933 33.358 111.263 31.963 111.263 30.103V16.742H115.944V30.196C115.944 30.4647 115.944 30.7333 115.944 31.002C115.944 31.2707 115.934 31.529 115.913 31.777C115.893 32.5623 115.789 33.3373 115.603 34.102C115.438 34.846 115.118 35.5487 114.642 36.21C113.981 37.1193 113.123 37.791 112.069 38.225C111.036 38.659 109.961 38.938 108.845 39.062C108.411 39.124 107.977 39.1653 107.543 39.186C107.109 39.2067 106.686 39.217 106.272 39.217C105.88 39.217 105.466 39.2067 105.032 39.186C104.619 39.1653 104.195 39.124 103.761 39.062C102.625 38.9587 101.529 38.69 100.475 38.256C99.4214 37.822 98.5534 37.14 97.8714 36.21C97.3961 35.5487 97.0758 34.846 96.9104 34.102C96.7451 33.3373 96.6521 32.5623 96.6314 31.777C96.6108 31.529 96.6004 31.2707 96.6004 31.002C96.6004 30.7333 96.6004 30.475 96.6004 30.227V16.742H101.25ZM126.688 16.742H131.648L141.134 39H135.926L133.88 33.699H124.208L122.224 39H117.295L126.688 16.742ZM128.982 21.175L125.727 29.731H132.361L128.982 21.175ZM140.039 16.742H145.03L150.176 33.854L154.516 16.742H160.034L165.025 33.854L169.83 16.742H174.635L167.753 39H162.018L157.275 22.384L153.121 39H147.417L140.039 16.742ZM185.84 20.617C184.125 20.6377 182.844 21.1027 181.996 22.012C181.149 22.9007 180.674 24.1717 180.57 25.825L193.528 25.794V29.669H180.539C180.539 30.4543 180.622 31.2087 180.787 31.932C180.973 32.6553 181.335 33.3167 181.872 33.916C182.348 34.474 182.906 34.8253 183.546 34.97C184.208 35.094 184.879 35.156 185.561 35.156C185.603 35.156 185.644 35.156 185.685 35.156C185.747 35.156 185.799 35.156 185.84 35.156L193.528 35.125V39H185.623C184.363 39 183.143 38.8863 181.965 38.659C180.808 38.4317 179.713 37.9047 178.679 37.078C177.439 36.0653 176.571 34.8357 176.075 33.389C175.579 31.9217 175.311 30.4233 175.269 28.894C175.249 28.5633 175.238 28.243 175.238 27.933C175.259 27.623 175.28 27.313 175.3 27.003C175.528 23.4897 176.478 20.9063 178.152 19.253C179.847 17.5997 182.379 16.773 185.747 16.773L193.528 16.742V20.617H185.84ZM202.387 39H197.489V16.742H202.387V39Z" fill="#C62121"/>
</svg>
