<svg width="280" height="54" viewBox="0 0 280 54" fill="none" xmlns="http://www.w3.org/2000/svg">
<rect x="1" y="1" width="278" height="52" fill="#FBFBFB" stroke="url(#paint0_linear)" stroke-width="2"/>
<path d="M101.238 14.918C101.238 14.5534 101.362 14.2539 101.609 14.0195C101.857 13.7721 102.163 13.6484 102.527 13.6484C102.892 13.6484 103.198 13.7721 103.445 14.0195C103.706 14.2539 103.836 14.5534 103.836 14.918V38.082C103.836 38.4466 103.706 38.7526 103.445 39C103.198 39.2344 102.892 39.3516 102.527 39.3516C102.163 39.3516 101.857 39.2344 101.609 39C101.362 38.7526 101.238 38.4466 101.238 38.082V27.6719H86.6875V38.082C86.6875 38.4466 86.5638 38.7526 86.3164 39C86.069 39.2344 85.763 39.3516 85.3984 39.3516C85.0339 39.3516 84.7214 39.2279 84.4609 38.9805C84.2005 38.7331 84.0703 38.4336 84.0703 38.082V14.918C84.0703 14.5664 84.2005 14.2669 84.4609 14.0195C84.7214 13.7721 85.0339 13.6484 85.3984 13.6484C85.763 13.6484 86.069 13.7721 86.3164 14.0195C86.5638 14.2539 86.6875 14.5534 86.6875 14.918V25.3281H101.238V14.918ZM112.112 23.7266C111.54 23.7266 111.051 23.9349 110.648 24.3516C110.244 24.7552 110.042 25.237 110.042 25.7969V34.3516C110.042 34.9115 110.244 35.3932 110.648 35.7969C111.051 36.2005 111.54 36.4023 112.112 36.4023H122.562C123.135 36.4023 123.616 36.2005 124.007 35.7969C124.398 35.3932 124.593 34.9115 124.593 34.3516V25.7969C124.593 25.237 124.398 24.7552 124.007 24.3516C123.616 23.9349 123.135 23.7266 122.562 23.7266H112.112ZM111.038 21.168H123.597C124.573 21.168 125.413 21.5195 126.116 22.2227C126.833 22.9128 127.191 23.7461 127.191 24.7227V35.4453C127.191 36.4349 126.839 37.2747 126.136 37.9648C125.433 38.6549 124.586 39 123.597 39H111.038C110.049 39 109.196 38.6549 108.48 37.9648C107.777 37.2747 107.425 36.4349 107.425 35.4453V24.7227C107.425 23.7461 107.783 22.9128 108.499 22.2227C109.215 21.5195 110.062 21.168 111.038 21.168ZM135.819 23.7266C135.246 23.7266 134.758 23.9349 134.354 24.3516C133.95 24.7552 133.748 25.237 133.748 25.7969V38.082C133.748 38.4336 133.625 38.7331 133.377 38.9805C133.143 39.2279 132.837 39.3516 132.459 39.3516C132.095 39.3516 131.782 39.2279 131.522 38.9805C131.261 38.7331 131.131 38.4336 131.131 38.082V22.0859C131.131 21.7214 131.261 21.4154 131.522 21.168C131.782 20.9206 132.095 20.7969 132.459 20.7969C132.824 20.7969 133.13 20.9206 133.377 21.168C133.625 21.4154 133.748 21.7214 133.748 22.0859V22.5938C134.061 22.1641 134.471 21.819 134.979 21.5586C135.487 21.2982 136.034 21.168 136.62 21.168H147.303C148.319 21.168 149.172 21.5195 149.862 22.2227C150.552 22.9258 150.897 23.7591 150.897 24.7227V38.082C150.897 38.4466 150.767 38.7526 150.506 39C150.259 39.2344 149.953 39.3516 149.588 39.3516C149.224 39.3516 148.918 39.2344 148.67 39C148.423 38.7526 148.299 38.4466 148.299 38.082V25.7969C148.299 25.237 148.097 24.7552 147.694 24.3516C147.303 23.9349 146.828 23.7266 146.268 23.7266H135.819ZM159.525 23.7266C158.952 23.7266 158.464 23.9349 158.06 24.3516C157.657 24.7552 157.455 25.237 157.455 25.7969V34.3516C157.455 34.9115 157.657 35.3932 158.06 35.7969C158.464 36.2005 158.952 36.4023 159.525 36.4023H169.974C170.547 36.4023 171.029 36.2005 171.42 35.7969C171.81 35.3932 172.005 34.9115 172.005 34.3516V25.7969C172.005 25.237 171.81 24.7552 171.42 24.3516C171.029 23.9349 170.547 23.7266 169.974 23.7266H159.525ZM158.451 21.168H171.009C171.986 21.168 172.826 21.5195 173.529 22.2227C174.245 22.9128 174.603 23.7461 174.603 24.7227V35.4453C174.603 36.4349 174.252 37.2747 173.548 37.9648C172.845 38.6549 171.999 39 171.009 39H158.451C157.461 39 156.608 38.6549 155.892 37.9648C155.189 37.2747 154.838 36.4349 154.838 35.4453V24.7227C154.838 23.7461 155.196 22.9128 155.912 22.2227C156.628 21.5195 157.474 21.168 158.451 21.168ZM178.934 21.168C179.195 20.9206 179.507 20.7969 179.872 20.7969C180.236 20.7969 180.542 20.9206 180.79 21.168C181.037 21.4154 181.161 21.7214 181.161 22.0859V22.5938C181.473 22.1641 181.884 21.819 182.391 21.5586C182.899 21.2982 183.446 21.168 184.032 21.168H189.872C190.236 21.168 190.542 21.2917 190.79 21.5391C191.037 21.7734 191.161 22.0729 191.161 22.4375C191.161 22.8021 191.037 23.1081 190.79 23.3555C190.542 23.6029 190.236 23.7266 189.872 23.7266H183.231C182.658 23.7266 182.17 23.9349 181.766 24.3516C181.363 24.7552 181.161 25.237 181.161 25.7969V38.082C181.161 38.4336 181.037 38.7331 180.79 38.9805C180.555 39.2279 180.249 39.3516 179.872 39.3516C179.507 39.3516 179.195 39.2279 178.934 38.9805C178.674 38.7331 178.544 38.4336 178.544 38.082V22.0859C178.544 21.7214 178.674 21.4154 178.934 21.168Z" fill="url(#paint1_linear)"/>
<defs>
<linearGradient id="paint0_linear" x1="280" y1="27" x2="2.84399e-07" y2="27" gradientUnits="userSpaceOnUse">
<stop stop-color="#DA15D9"/>
<stop offset="1" stop-color="#00DFFE"/>
</linearGradient>
<linearGradient id="paint1_linear" x1="87" y1="20.5" x2="196" y2="39" gradientUnits="userSpaceOnUse">
<stop stop-color="#D51BDB"/>
<stop offset="1" stop-color="#00DFFE"/>
</linearGradient>
</defs>
</svg>
