<svg width="280" height="54" viewBox="0 0 280 54" fill="none" xmlns="http://www.w3.org/2000/svg">
<rect x="1" y="1" width="278" height="52" fill="#FBFBFB" stroke="#0185AD" stroke-width="2"/>
<path d="M107.752 19.608C107.539 19.608 107.357 19.5333 107.208 19.384C107.059 19.2347 106.984 19.0533 106.984 18.84V16.536C106.984 16.3227 107.059 16.1413 107.208 15.992C107.357 15.8427 107.539 15.768 107.752 15.768H110.664C110.877 15.768 111.059 15.8427 111.208 15.992C111.379 16.1413 111.464 16.3227 111.464 16.536V18.84C111.464 19.0533 111.389 19.2347 111.24 19.384C111.091 19.5333 110.899 19.608 110.664 19.608H107.752ZM107.88 39C107.667 39 107.485 38.9253 107.336 38.776C107.187 38.6267 107.112 38.4453 107.112 38.232V23.128C107.112 22.9147 107.187 22.7333 107.336 22.584C107.485 22.4347 107.667 22.36 107.88 22.36H110.536C110.771 22.36 110.952 22.4347 111.08 22.584C111.229 22.712 111.304 22.8933 111.304 23.128V38.232C111.304 38.4453 111.229 38.6267 111.08 38.776C110.952 38.9253 110.771 39 110.536 39H107.88ZM116.542 39C116.328 39 116.147 38.9253 115.998 38.776C115.848 38.6267 115.774 38.4453 115.774 38.232V17.4C115.774 17.1653 115.838 16.9733 115.966 16.824C116.115 16.6747 116.307 16.6 116.542 16.6H125.118C127.678 16.6 129.694 17.208 131.166 18.424C132.638 19.6187 133.374 21.3787 133.374 23.704C133.374 26.0293 132.638 27.7893 131.166 28.984C129.715 30.1573 127.699 30.744 125.118 30.744H120.35V38.232C120.35 38.4453 120.275 38.6267 120.126 38.776C119.998 38.9253 119.816 39 119.582 39H116.542ZM124.958 27.192C126.195 27.192 127.144 26.904 127.806 26.328C128.467 25.7307 128.798 24.856 128.798 23.704C128.798 22.5947 128.478 21.7307 127.838 21.112C127.198 20.472 126.238 20.152 124.958 20.152H120.286V27.192H124.958ZM140.812 39.32C139.724 39.32 138.721 39.1067 137.804 38.68C136.908 38.232 136.193 37.6347 135.66 36.888C135.148 36.1413 134.892 35.32 134.892 34.424C134.892 32.9733 135.478 31.8 136.652 30.904C137.825 30.008 139.436 29.4 141.484 29.08L145.868 28.44V27.768C145.868 26.8293 145.633 26.1253 145.164 25.656C144.694 25.1867 143.937 24.952 142.892 24.952C142.188 24.952 141.612 25.0907 141.164 25.368C140.737 25.624 140.396 25.88 140.14 26.136C139.884 26.4133 139.713 26.5947 139.628 26.68C139.542 26.936 139.382 27.064 139.148 27.064H136.684C136.492 27.064 136.321 27 136.172 26.872C136.044 26.744 135.98 26.5733 135.98 26.36C136.001 25.8267 136.257 25.2187 136.748 24.536C137.26 23.8533 138.038 23.2667 139.084 22.776C140.129 22.2853 141.409 22.04 142.924 22.04C145.441 22.04 147.276 22.6053 148.428 23.736C149.58 24.8667 150.156 26.3493 150.156 28.184V38.232C150.156 38.4453 150.081 38.6267 149.932 38.776C149.804 38.9253 149.622 39 149.388 39H146.796C146.582 39 146.401 38.9253 146.252 38.776C146.102 38.6267 146.028 38.4453 146.028 38.232V36.984C145.558 37.6667 144.886 38.232 144.012 38.68C143.158 39.1067 142.092 39.32 140.812 39.32ZM141.9 36.28C143.073 36.28 144.033 35.896 144.78 35.128C145.526 34.36 145.9 33.24 145.9 31.768V31.096L142.7 31.608C141.462 31.8 140.524 32.1093 139.884 32.536C139.265 32.9627 138.956 33.4853 138.956 34.104C138.956 34.7867 139.244 35.32 139.82 35.704C140.396 36.088 141.089 36.28 141.9 36.28ZM160.277 39.32C158.122 39.32 156.469 38.6267 155.317 37.24C154.165 35.8533 153.546 34.008 153.461 31.704L153.429 30.648L153.461 29.624C153.525 27.384 154.133 25.56 155.285 24.152C156.458 22.744 158.122 22.04 160.277 22.04C162.346 22.04 163.989 22.744 165.205 24.152V17.048C165.205 16.8133 165.279 16.632 165.429 16.504C165.578 16.3547 165.759 16.28 165.973 16.28H168.693C168.927 16.28 169.109 16.3547 169.237 16.504C169.386 16.632 169.461 16.8133 169.461 17.048V38.232C169.461 38.4453 169.386 38.6267 169.237 38.776C169.109 38.9253 168.927 39 168.693 39H166.165C165.951 39 165.77 38.9253 165.621 38.776C165.471 38.6267 165.397 38.4453 165.397 38.232V37.048C164.181 38.5627 162.474 39.32 160.277 39.32ZM161.461 35.896C162.698 35.896 163.615 35.5013 164.213 34.712C164.81 33.9227 165.141 32.952 165.205 31.8C165.226 31.544 165.237 31.128 165.237 30.552C165.237 29.9973 165.226 29.592 165.205 29.336C165.162 28.2693 164.821 27.3627 164.181 26.616C163.562 25.848 162.655 25.464 161.461 25.464C159.157 25.464 157.93 26.8827 157.781 29.72L157.749 30.68L157.781 31.64C157.93 34.4773 159.157 35.896 161.461 35.896Z" fill="#008BA9"/>
</svg>
