<svg width="280" height="53" viewBox="0 0 280 53" fill="none" xmlns="http://www.w3.org/2000/svg">
<rect x="1" y="1" width="278" height="51" fill="#FBFBFB" stroke="#85C300" stroke-width="2"/>
<path d="M108.253 37.9102C109.945 37.9102 111.645 37.8652 113.352 37.7754C115.074 37.6855 116.661 37.5283 118.113 37.3037C119.476 37.124 120.262 36.4951 120.472 35.417L122.808 23.3779C123.377 20.443 122.875 18.3617 121.303 17.1338C119.745 15.891 116.998 15.2695 113.06 15.2695C111.023 15.2695 109.301 15.3145 107.894 15.4043C106.501 15.4941 105.393 15.584 104.569 15.6738C103.985 15.7637 103.499 15.9359 103.109 16.1904C102.72 16.43 102.495 16.8418 102.436 17.4258L102.121 19.4023C102.061 19.7168 102.188 19.874 102.503 19.874C103.027 19.874 104.015 19.7767 105.468 19.582C106.935 19.3724 109.129 19.2676 112.049 19.2676C114.265 19.2676 115.755 19.5072 116.519 19.9863C117.282 20.4505 117.559 21.2441 117.35 22.3672C117.29 22.6816 117.192 22.8988 117.058 23.0186C116.938 23.1234 116.736 23.2207 116.451 23.3105C116.182 23.4004 115.837 23.4902 115.418 23.5801C115.014 23.6699 114.482 23.7747 113.823 23.8945C113.179 23.9993 112.371 24.1191 111.397 24.2539C110.424 24.3887 109.271 24.5459 107.938 24.7256C104.914 25.2197 102.563 25.931 100.886 26.8594C99.2087 27.7878 98.1829 29.2178 97.8086 31.1494C97.6439 31.958 97.6139 32.7591 97.7188 33.5527C97.8236 34.3464 98.2279 35.0726 98.9316 35.7314C99.6504 36.3753 100.743 36.8994 102.211 37.3037C103.678 37.708 105.692 37.9102 108.253 37.9102ZM115.148 33.5752C114.669 33.665 113.861 33.7549 112.723 33.8447C111.585 33.9346 110.484 33.9795 109.421 33.9795C107.429 33.9795 105.88 33.7923 104.771 33.418C103.678 33.0286 103.244 32.2725 103.469 31.1494C103.723 29.8018 104.801 28.9707 106.703 28.6562L116.429 27.1064L115.148 33.5752ZM133.606 38.0225C128.814 38.0225 125.662 36.8919 124.15 34.6309C122.802 32.8789 122.473 30.1012 123.162 26.2979C125.183 18.9906 130.731 15.3369 139.805 15.3369L142.635 15.4941C143.803 15.7038 144.297 16.3177 144.118 17.3359L144.297 19.2002C144.237 19.4997 144.035 19.6494 143.691 19.6494C141.475 19.4098 139.348 19.3424 137.312 19.4473C135.276 19.5371 133.449 20.0986 131.832 21.1318C130.229 22.1501 129.196 23.8721 128.732 26.2979C128.163 29.3825 128.462 31.389 129.63 32.3174C130.394 33.3356 132.266 33.8447 135.246 33.8447C135.86 33.8447 136.698 33.7848 137.761 33.665C138.839 33.5452 139.745 33.4329 140.479 33.3281C141.333 33.2233 141.939 33.1709 142.298 33.1709C142.673 33.1709 142.86 33.1709 142.86 33.1709C143.204 33.1709 143.339 33.373 143.264 33.7773L143.084 35.7988C142.89 36.8171 142.186 37.3786 140.973 37.4834C140.359 37.5882 139.333 37.708 137.896 37.8428C136.458 37.9626 135.028 38.0225 133.606 38.0225ZM150.019 26.0732L150.132 25.3545C150.341 24.1715 150.611 23.1758 150.94 22.3672C151.27 21.5586 151.756 20.8997 152.4 20.3906C153.044 19.8815 153.86 19.5221 154.849 19.3125C155.837 19.0879 157.087 18.9756 158.6 18.9756C160.666 18.9756 162.096 19.1927 162.89 19.627C163.683 20.0612 163.998 20.75 163.833 21.6934C163.758 22.1276 163.646 22.502 163.496 22.8164C163.346 23.1309 163.084 23.4079 162.71 23.6475C162.336 23.887 161.797 24.1042 161.093 24.2988C160.389 24.4935 159.453 24.6732 158.285 24.8379L150.019 26.0732ZM149.66 29.8018L159.97 28.252C161.527 28.0124 162.867 27.7279 163.99 27.3984C165.128 27.069 166.087 26.6497 166.865 26.1406C167.659 25.6165 168.28 24.9801 168.729 24.2314C169.179 23.4827 169.486 22.5993 169.65 21.5811C169.785 20.7874 169.748 20.0013 169.538 19.2227C169.343 18.429 168.849 17.7178 168.056 17.0889C167.262 16.46 166.124 15.9508 164.642 15.5615C163.159 15.1572 161.228 14.9551 158.847 14.9551C156.81 14.9551 154.968 15.1348 153.321 15.4941C151.689 15.8385 150.252 16.445 149.009 17.3135C147.781 18.182 146.755 19.3499 145.932 20.8174C145.123 22.2699 144.532 24.0817 144.157 26.2529C143.858 28.0648 143.783 29.6895 143.933 31.127C144.082 32.5645 144.561 33.7848 145.37 34.7881C146.179 35.7913 147.377 36.57 148.964 37.124C150.566 37.6781 152.67 37.9551 155.275 37.9551C157.042 37.9551 158.615 37.9401 159.992 37.9102C161.37 37.8652 162.5 37.7979 163.384 37.708C164.043 37.6331 164.567 37.4609 164.956 37.1914C165.345 36.9069 165.562 36.4727 165.607 35.8887L165.877 33.8672C165.937 33.4779 165.772 33.2832 165.383 33.2832C165.188 33.2832 164.791 33.3057 164.192 33.3506C163.593 33.3805 162.875 33.4255 162.036 33.4854C161.213 33.5452 160.344 33.5977 159.431 33.6426C158.517 33.6725 157.641 33.6875 156.803 33.6875C154.347 33.6875 152.565 33.4329 151.457 32.9238C150.349 32.4147 149.75 31.374 149.66 29.8018ZM171.487 37.9102H167.107C166.703 37.9102 166.538 37.7155 166.613 37.3262L169.083 23.3779C169.593 20.5628 170.805 18.5264 172.722 17.2686C174.639 15.9958 177.259 15.3594 180.583 15.3594C181.362 15.3594 182.141 15.3818 182.919 15.4268C183.698 15.4717 184.394 15.5316 185.008 15.6064C186.026 15.7562 186.461 16.2428 186.311 17.0664L185.862 19.1553C185.802 19.4697 185.577 19.627 185.188 19.627C184.739 19.627 183.968 19.6195 182.874 19.6045C181.796 19.5895 180.718 19.582 179.64 19.582C178.247 19.582 177.154 19.8141 176.361 20.2783C175.582 20.7425 175.088 21.5361 174.878 22.6592L172.273 37.3262C172.198 37.7155 171.936 37.9102 171.487 37.9102Z" fill="#85C400"/>
</svg>
