<svg width="280" height="53" viewBox="0 0 280 53" fill="none" xmlns="http://www.w3.org/2000/svg">
<rect x="1" y="1" width="278" height="51" fill="#FBFBFB" stroke="#052F9A" stroke-width="2"/>
<path d="M96.502 37L98.63 31.376H103L98.972 20.812L92.664 37H84.722L93.994 14.808H103.798L113.108 37H96.502ZM117.292 14.808C116.253 15.036 115.569 15.644 115.24 16.632V26.664C115.24 27.196 115.443 27.6773 115.848 28.108C116.279 28.5133 116.76 28.716 117.292 28.716H134.278V31.376H115.24V37H139.218C140.206 36.7973 140.865 36.1893 141.194 35.176V25.448C141.194 24.84 140.979 24.308 140.548 23.852C140.117 23.3707 139.661 23.13 139.18 23.13H122.194V20.432H141.194V14.808H117.292ZM144.07 14.808V34.986C144.348 36.05 145.045 36.7213 146.16 37H167.934C169.048 36.772 169.745 36.1007 170.024 34.986V14.808H163.108V31.376H150.986V14.808H144.07ZM174.951 14.808C173.913 15.036 173.229 15.644 172.899 16.632V26.664C172.899 27.196 173.102 27.6773 173.507 28.108C173.938 28.5133 174.419 28.716 174.951 28.716H191.937V31.376H172.899V37H196.877C197.865 36.7973 198.524 36.1893 198.853 35.176V25.448C198.853 24.84 198.638 24.308 198.207 23.852C197.777 23.3707 197.321 23.13 196.839 23.13H179.853V20.432H198.853V14.808H174.951Z" fill="#052F9A"/>
</svg>
