<svg width="280" height="53" viewBox="0 0 280 53" fill="none" xmlns="http://www.w3.org/2000/svg">
<rect x="1" y="1" width="278" height="51" fill="#FBFBFB" stroke="#0989D1" stroke-width="2"/>
<path d="M102.368 41H112.654C120.387 41 126.825 34.895 126.825 27.051C126.825 19.207 120.424 13.102 112.654 13.102H102.368V41ZM109.62 19.244H111.322C115.984 19.244 119.277 22.056 119.277 27.051C119.277 32.49 115.577 34.858 111.248 34.858H109.62V19.244ZM145.878 19.244V13.102H130.005V41H145.878V34.858H137.257V30.048H145.434V23.906H137.257V19.244H145.878ZM157.415 13.102H150.163V41H166.11V34.858H157.415V13.102ZM175.549 13.102H168.297V41H184.244V34.858H175.549V13.102Z" fill="#0989D1"/>
</svg>
