<svg width="280" height="53" viewBox="0 0 280 53" fill="none" xmlns="http://www.w3.org/2000/svg">
<rect x="1" y="1" width="278" height="51" fill="#FBFBFB" stroke="#C99100" stroke-width="2"/>
<path d="M103.876 27.2578C103.876 28.5039 103.739 29.6131 103.465 30.5854C103.192 31.5483 102.805 32.3885 102.304 33.106C101.813 33.8234 101.219 34.4323 100.52 34.9326C99.8309 35.4329 99.0615 35.8341 98.2119 36.1362C97.3623 36.4383 96.4466 36.6602 95.4648 36.8018C94.4831 36.9339 93.4588 37 92.3921 37H80.0444V17.5439H92.3638C93.4305 17.5439 94.4548 17.6147 95.4365 17.7563C96.4183 17.8885 97.334 18.1056 98.1836 18.4077C99.0426 18.7098 99.8215 19.111 100.52 19.6113C101.219 20.1022 101.813 20.7111 102.304 21.438C102.805 22.1554 103.192 22.9956 103.465 23.9585C103.739 24.9214 103.876 26.0212 103.876 27.2578ZM98.5801 27.2578C98.5801 26.3232 98.4574 25.5114 98.2119 24.8223C97.9759 24.1331 97.5889 23.5667 97.0508 23.123C96.5221 22.6699 95.8283 22.3348 94.9692 22.1177C94.1102 21.8911 93.0623 21.7778 91.8257 21.7778H85.2979V32.7661H91.8257C93.0623 32.7661 94.1102 32.6576 94.9692 32.4404C95.8283 32.2139 96.5221 31.874 97.0508 31.4209C97.5889 30.9583 97.9759 30.3825 98.2119 29.6934C98.4574 29.0042 98.5801 28.1924 98.5801 27.2578ZM108.531 37V17.5439H113.785V37H108.531ZM132.274 17.0483C134.181 17.0483 135.951 17.2135 137.585 17.5439C139.227 17.8649 140.733 18.2803 142.102 18.79V23.5479C141.564 23.2458 140.955 22.9531 140.275 22.6699C139.605 22.3867 138.873 22.1366 138.08 21.9194C137.287 21.7023 136.438 21.5277 135.531 21.3955C134.625 21.2633 133.672 21.1973 132.671 21.1973C131.425 21.1973 130.339 21.2869 129.414 21.4663C128.489 21.6457 127.696 21.8864 127.035 22.1885C126.374 22.4906 125.832 22.8446 125.407 23.2505C124.982 23.647 124.647 24.0718 124.401 24.5249C124.156 24.978 123.986 25.4406 123.892 25.9126C123.797 26.3846 123.75 26.8424 123.75 27.2861C123.75 27.6732 123.788 28.0933 123.863 28.5464C123.948 28.9995 124.099 29.4526 124.316 29.9058C124.543 30.3589 124.855 30.7931 125.251 31.2085C125.647 31.6239 126.162 31.992 126.794 32.313C127.436 32.634 128.206 32.8936 129.103 33.0918C129.999 33.2806 131.066 33.375 132.303 33.375C132.926 33.375 133.469 33.3561 133.931 33.3184C134.394 33.2806 134.814 33.2287 135.191 33.1626C135.578 33.0965 135.937 33.0163 136.268 32.9219C136.607 32.8275 136.957 32.7284 137.315 32.6245V30.2739H131.425V26.0117H142.569V35.9521C141.87 36.1882 141.087 36.4053 140.218 36.6035C139.359 36.7923 138.467 36.9528 137.542 37.085C136.626 37.2266 135.706 37.3351 134.781 37.4106C133.856 37.4862 132.982 37.5239 132.161 37.5239C130.887 37.5239 129.664 37.439 128.494 37.269C127.323 37.0991 126.228 36.8395 125.209 36.4902C124.198 36.1315 123.273 35.6784 122.433 35.1309C121.602 34.5833 120.89 33.932 120.295 33.1768C119.71 32.4215 119.252 31.5578 118.921 30.5854C118.6 29.6037 118.44 28.5039 118.44 27.2861C118.44 26.0778 118.61 24.9827 118.95 24.001C119.29 23.0192 119.762 22.1507 120.366 21.3955C120.979 20.6403 121.711 19.9889 122.561 19.4414C123.42 18.8939 124.359 18.4455 125.378 18.0962C126.407 17.7375 127.502 17.4731 128.664 17.3032C129.834 17.1333 131.038 17.0483 132.274 17.0483ZM172.826 37V23.3354L165.604 37H160.563L153.341 23.3354V37H148.088V17.5439H155.225L163.084 32.2705L170.942 17.5439H178.051V37H172.826ZM199.628 33.3184H188.781L186.954 37H181.092L191.273 17.5439H197.135L207.316 37H201.454L199.628 33.3184ZM190.664 29.5234H197.773L194.232 22.3584L190.664 29.5234Z" fill="#C99100"/>
</svg>
