<svg width="280" height="53" viewBox="0 0 280 53" fill="none" xmlns="http://www.w3.org/2000/svg">
<rect x="1" y="1" width="278" height="51" fill="#FBFBFB" stroke="#0069A4" stroke-width="2"/>
<path d="M138.88 10.508C139.965 10.508 140.508 11.0213 140.508 12.048V41H134.436C133.351 41 132.808 40.4867 132.808 39.46V28.504H126.296V41H120.224C119.139 41 118.596 40.4867 118.596 39.46V10.508H124.668C125.753 10.508 126.296 11.0213 126.296 12.048V22.256H132.808V10.508H138.88ZM147.117 41C146.032 41 145.489 40.4867 145.489 39.46V11.036C147.132 10.7133 148.789 10.4787 150.461 10.332C152.163 10.156 153.673 10.068 154.993 10.068C156.841 10.068 158.44 10.244 159.789 10.596C161.168 10.948 162.297 11.52 163.177 12.312C164.087 13.104 164.747 14.1453 165.157 15.436C165.597 16.7267 165.817 18.3107 165.817 20.188C165.817 23.8253 165.04 26.4653 163.485 28.108C161.96 29.7213 159.687 30.528 156.665 30.528C155.932 30.528 155.228 30.4987 154.553 30.44C153.908 30.352 153.38 30.264 152.969 30.176V41H147.117ZM152.969 24.764C153.321 24.8227 153.644 24.8667 153.937 24.896C154.231 24.9253 154.509 24.94 154.773 24.94C155.419 24.94 155.961 24.8813 156.401 24.764C156.871 24.6173 157.252 24.368 157.545 24.016C157.839 23.6347 158.059 23.136 158.205 22.52C158.352 21.904 158.425 21.112 158.425 20.144C158.425 19.2347 158.352 18.4867 158.205 17.9C158.088 17.3133 157.897 16.8587 157.633 16.536C157.369 16.184 157.017 15.9493 156.577 15.832C156.167 15.7147 155.683 15.656 155.125 15.656C154.861 15.656 154.495 15.6707 154.025 15.7C153.556 15.7 153.204 15.7147 152.969 15.744V24.764Z" fill="#0069A4"/>
</svg>
