<svg width="280" height="53" viewBox="0 0 280 53" fill="none" xmlns="http://www.w3.org/2000/svg">
<rect x="1" y="1" width="278" height="51" fill="#FBFBFB" stroke="#E4590A" stroke-width="2"/>
<path d="M74.29 13.5H78.84V34.15H91.65V38H74.29V13.5ZM112.046 28.76C112.046 29.0633 112.023 29.495 111.976 30.055H97.3113C97.5679 31.4317 98.2329 32.5283 99.3063 33.345C100.403 34.1383 101.756 34.535 103.366 34.535C105.42 34.535 107.111 33.8583 108.441 32.505L110.786 35.2C109.946 36.2033 108.885 36.9617 107.601 37.475C106.318 37.9883 104.871 38.245 103.261 38.245C101.208 38.245 99.3996 37.8367 97.8363 37.02C96.2729 36.2033 95.0596 35.0717 94.1963 33.625C93.3563 32.155 92.9363 30.4983 92.9363 28.655C92.9363 26.835 93.3446 25.2017 94.1613 23.755C95.0013 22.285 96.1563 21.1417 97.6263 20.325C99.0963 19.5083 100.753 19.1 102.596 19.1C104.416 19.1 106.038 19.5083 107.461 20.325C108.908 21.1183 110.028 22.25 110.821 23.72C111.638 25.1667 112.046 26.8467 112.046 28.76ZM102.596 22.6C101.196 22.6 100.006 23.02 99.0263 23.86C98.0696 24.6767 97.4863 25.7733 97.2763 27.15H107.881C107.695 25.7967 107.123 24.7 106.166 23.86C105.21 23.02 104.02 22.6 102.596 22.6ZM126.679 19.1C129.035 19.1 130.925 19.7883 132.349 21.165C133.772 22.5417 134.484 24.5833 134.484 27.29V38H130.109V27.85C130.109 26.2167 129.724 24.9917 128.954 24.175C128.184 23.335 127.087 22.915 125.664 22.915C124.054 22.915 122.782 23.405 121.849 24.385C120.915 25.3417 120.449 26.73 120.449 28.55V38H116.074V19.31H120.239V21.725C120.962 20.8617 121.872 20.2083 122.969 19.765C124.065 19.3217 125.302 19.1 126.679 19.1ZM148.43 38.245C146.54 38.245 144.836 37.8367 143.32 37.02C141.803 36.2033 140.613 35.0717 139.75 33.625C138.91 32.155 138.49 30.4983 138.49 28.655C138.49 26.8117 138.91 25.1667 139.75 23.72C140.613 22.2733 141.803 21.1417 143.32 20.325C144.836 19.5083 146.54 19.1 148.43 19.1C150.343 19.1 152.058 19.5083 153.575 20.325C155.091 21.1417 156.27 22.2733 157.11 23.72C157.973 25.1667 158.405 26.8117 158.405 28.655C158.405 30.4983 157.973 32.155 157.11 33.625C156.27 35.0717 155.091 36.2033 153.575 37.02C152.058 37.8367 150.343 38.245 148.43 38.245ZM148.43 34.5C150.04 34.5 151.37 33.9633 152.42 32.89C153.47 31.8167 153.995 30.405 153.995 28.655C153.995 26.905 153.47 25.4933 152.42 24.42C151.37 23.3467 150.04 22.81 148.43 22.81C146.82 22.81 145.49 23.3467 144.44 24.42C143.413 25.4933 142.9 26.905 142.9 28.655C142.9 30.405 143.413 31.8167 144.44 32.89C145.49 33.9633 146.82 34.5 148.43 34.5ZM179.4 19.31L171.385 38H166.87L158.855 19.31H163.405L169.215 33.17L175.2 19.31H179.4ZM189.847 38.245C187.957 38.245 186.254 37.8367 184.737 37.02C183.22 36.2033 182.03 35.0717 181.167 33.625C180.327 32.155 179.907 30.4983 179.907 28.655C179.907 26.8117 180.327 25.1667 181.167 23.72C182.03 22.2733 183.22 21.1417 184.737 20.325C186.254 19.5083 187.957 19.1 189.847 19.1C191.76 19.1 193.475 19.5083 194.992 20.325C196.509 21.1417 197.687 22.2733 198.527 23.72C199.39 25.1667 199.822 26.8117 199.822 28.655C199.822 30.4983 199.39 32.155 198.527 33.625C197.687 35.0717 196.509 36.2033 194.992 37.02C193.475 37.8367 191.76 38.245 189.847 38.245ZM189.847 34.5C191.457 34.5 192.787 33.9633 193.837 32.89C194.887 31.8167 195.412 30.405 195.412 28.655C195.412 26.905 194.887 25.4933 193.837 24.42C192.787 23.3467 191.457 22.81 189.847 22.81C188.237 22.81 186.907 23.3467 185.857 24.42C184.83 25.4933 184.317 26.905 184.317 28.655C184.317 30.405 184.83 31.8167 185.857 32.89C186.907 33.9633 188.237 34.5 189.847 34.5Z" fill="#E4590A"/>
</svg>
