<svg width="280" height="54" viewBox="0 0 280 54" fill="none" xmlns="http://www.w3.org/2000/svg">
<rect x="1" y="1" width="278" height="52" fill="#FBFBFB" stroke="#0185AD" stroke-width="2"/>
<path d="M79.296 38C79.0613 38 78.8693 37.936 78.72 37.808C78.5707 37.6587 78.496 37.4667 78.496 37.232V16.4C78.496 16.1653 78.5707 15.9733 78.72 15.824C78.8693 15.6747 79.0613 15.6 79.296 15.6H81.824C82.272 15.6 82.592 15.8027 82.784 16.208L88.96 27.728L95.2 16.208C95.4133 15.8027 95.7333 15.6 96.16 15.6H98.656C98.8907 15.6 99.0827 15.6747 99.232 15.824C99.3813 15.9733 99.456 16.1653 99.456 16.4V37.232C99.456 37.4667 99.3813 37.6587 99.232 37.808C99.0827 37.936 98.8907 38 98.656 38H95.968C95.7547 38 95.5733 37.9253 95.424 37.776C95.2747 37.6267 95.2 37.4453 95.2 37.232V23.376L90.72 31.92C90.4427 32.3893 90.08 32.624 89.632 32.624H88.32C87.872 32.624 87.5093 32.3893 87.232 31.92L82.752 23.376V37.232C82.752 37.4453 82.6773 37.6267 82.528 37.776C82.4 37.9253 82.2187 38 81.984 38H79.296ZM108.722 38.32C107.634 38.32 106.631 38.1067 105.714 37.68C104.818 37.232 104.103 36.6347 103.57 35.888C103.058 35.1413 102.802 34.32 102.802 33.424C102.802 31.9733 103.388 30.8 104.562 29.904C105.735 29.008 107.346 28.4 109.394 28.08L113.778 27.44V26.768C113.778 25.8293 113.543 25.1253 113.074 24.656C112.604 24.1867 111.847 23.952 110.802 23.952C110.098 23.952 109.522 24.0907 109.074 24.368C108.647 24.624 108.306 24.88 108.05 25.136C107.794 25.4133 107.623 25.5947 107.538 25.68C107.452 25.936 107.292 26.064 107.058 26.064H104.594C104.402 26.064 104.231 26 104.082 25.872C103.954 25.744 103.89 25.5733 103.89 25.36C103.911 24.8267 104.167 24.2187 104.658 23.536C105.17 22.8533 105.948 22.2667 106.994 21.776C108.039 21.2853 109.319 21.04 110.834 21.04C113.351 21.04 115.186 21.6053 116.338 22.736C117.49 23.8667 118.066 25.3493 118.066 27.184V37.232C118.066 37.4453 117.991 37.6267 117.842 37.776C117.714 37.9253 117.532 38 117.298 38H114.706C114.492 38 114.311 37.9253 114.162 37.776C114.012 37.6267 113.938 37.4453 113.938 37.232V35.984C113.468 36.6667 112.796 37.232 111.922 37.68C111.068 38.1067 110.002 38.32 108.722 38.32ZM109.81 35.28C110.983 35.28 111.943 34.896 112.69 34.128C113.436 33.36 113.81 32.24 113.81 30.768V30.096L110.61 30.608C109.372 30.8 108.434 31.1093 107.794 31.536C107.175 31.9627 106.866 32.4853 106.866 33.104C106.866 33.7867 107.154 34.32 107.73 34.704C108.306 35.088 108.999 35.28 109.81 35.28ZM129.211 38.32C126.864 38.32 124.987 37.6693 123.579 36.368C122.192 35.0667 121.456 33.264 121.371 30.96L121.339 29.68L121.371 28.4C121.456 26.096 122.192 24.2933 123.579 22.992C124.987 21.6907 126.864 21.04 129.211 21.04C130.875 21.04 132.283 21.3387 133.435 21.936C134.608 22.5333 135.472 23.2693 136.027 24.144C136.603 24.9973 136.912 25.808 136.955 26.576C136.976 26.7893 136.901 26.9707 136.731 27.12C136.581 27.2693 136.4 27.344 136.187 27.344H133.371C133.157 27.344 132.987 27.3013 132.859 27.216C132.752 27.1093 132.645 26.9387 132.539 26.704C132.219 25.872 131.792 25.2747 131.259 24.912C130.747 24.5493 130.085 24.368 129.275 24.368C128.187 24.368 127.333 24.72 126.715 25.424C126.096 26.1067 125.765 27.152 125.723 28.56L125.691 29.744L125.723 30.8C125.808 33.5947 126.992 34.992 129.275 34.992C130.107 34.992 130.779 34.8107 131.291 34.448C131.803 34.0853 132.219 33.488 132.539 32.656C132.645 32.4213 132.752 32.2613 132.859 32.176C132.987 32.0693 133.157 32.016 133.371 32.016H136.187C136.4 32.016 136.581 32.0907 136.731 32.24C136.901 32.3893 136.976 32.5707 136.955 32.784C136.912 33.5307 136.613 34.3307 136.059 35.184C135.504 36.0373 134.651 36.7733 133.499 37.392C132.347 38.0107 130.917 38.32 129.211 38.32ZM141.284 38C141.071 38 140.889 37.9253 140.74 37.776C140.591 37.6267 140.516 37.4453 140.516 37.232V16.4C140.516 16.1653 140.58 15.9733 140.708 15.824C140.857 15.6747 141.049 15.6 141.284 15.6H150.564C153.06 15.6 154.916 16.1547 156.132 17.264C157.369 18.352 157.988 19.8453 157.988 21.744C157.988 22.8533 157.711 23.8027 157.156 24.592C156.623 25.36 155.993 25.9147 155.268 26.256C156.164 26.6613 156.911 27.3227 157.508 28.24C158.127 29.1573 158.436 30.2027 158.436 31.376C158.436 33.36 157.764 34.96 156.42 36.176C155.097 37.392 153.231 38 150.82 38H141.284ZM149.988 24.784C151.097 24.784 151.94 24.5173 152.516 23.984C153.092 23.4507 153.38 22.736 153.38 21.84C153.38 20.9227 153.092 20.2187 152.516 19.728C151.94 19.216 151.097 18.96 149.988 18.96H144.964V24.784H149.988ZM150.308 34.608C151.417 34.608 152.281 34.3093 152.9 33.712C153.519 33.0933 153.828 32.3147 153.828 31.376C153.828 30.416 153.519 29.6373 152.9 29.04C152.281 28.4213 151.417 28.112 150.308 28.112H144.964V34.608H150.308ZM169.27 38.32C166.774 38.32 164.843 37.68 163.478 36.4C162.112 35.0987 161.376 33.328 161.27 31.088L161.238 29.68L161.27 28.272C161.376 26.0533 162.123 24.2933 163.51 22.992C164.896 21.6907 166.816 21.04 169.27 21.04C171.723 21.04 173.643 21.6907 175.03 22.992C176.416 24.2933 177.163 26.0533 177.27 28.272C177.291 28.528 177.302 28.9973 177.302 29.68C177.302 30.3627 177.291 30.832 177.27 31.088C177.163 33.328 176.427 35.0987 175.062 36.4C173.696 37.68 171.766 38.32 169.27 38.32ZM169.27 35.152C170.4 35.152 171.275 34.8 171.894 34.096C172.512 33.3707 172.854 32.3147 172.918 30.928C172.939 30.7147 172.95 30.2987 172.95 29.68C172.95 29.0613 172.939 28.6453 172.918 28.432C172.854 27.0453 172.512 26 171.894 25.296C171.275 24.5707 170.4 24.208 169.27 24.208C168.139 24.208 167.264 24.5707 166.646 25.296C166.027 26 165.686 27.0453 165.622 28.432L165.59 29.68L165.622 30.928C165.686 32.3147 166.027 33.3707 166.646 34.096C167.264 34.8 168.139 35.152 169.27 35.152ZM188.047 38.32C185.551 38.32 183.62 37.68 182.255 36.4C180.89 35.0987 180.154 33.328 180.047 31.088L180.015 29.68L180.047 28.272C180.154 26.0533 180.9 24.2933 182.287 22.992C183.674 21.6907 185.594 21.04 188.047 21.04C190.5 21.04 192.42 21.6907 193.807 22.992C195.194 24.2933 195.94 26.0533 196.047 28.272C196.068 28.528 196.079 28.9973 196.079 29.68C196.079 30.3627 196.068 30.832 196.047 31.088C195.94 33.328 195.204 35.0987 193.839 36.4C192.474 37.68 190.543 38.32 188.047 38.32ZM188.047 35.152C189.178 35.152 190.052 34.8 190.671 34.096C191.29 33.3707 191.631 32.3147 191.695 30.928C191.716 30.7147 191.727 30.2987 191.727 29.68C191.727 29.0613 191.716 28.6453 191.695 28.432C191.631 27.0453 191.29 26 190.671 25.296C190.052 24.5707 189.178 24.208 188.047 24.208C186.916 24.208 186.042 24.5707 185.423 25.296C184.804 26 184.463 27.0453 184.399 28.432L184.367 29.68L184.399 30.928C184.463 32.3147 184.804 33.3707 185.423 34.096C186.042 34.8 186.916 35.152 188.047 35.152ZM200.265 38C200.051 38 199.87 37.9253 199.721 37.776C199.571 37.6267 199.497 37.4453 199.497 37.232V16.048C199.497 15.8133 199.571 15.632 199.721 15.504C199.87 15.3547 200.051 15.28 200.265 15.28H202.857C203.091 15.28 203.273 15.3547 203.401 15.504C203.55 15.632 203.625 15.8133 203.625 16.048V26.992L209.001 21.904C209.065 21.8613 209.171 21.776 209.321 21.648C209.449 21.5413 209.577 21.4667 209.705 21.424C209.833 21.3813 209.993 21.36 210.185 21.36H213.161C213.374 21.36 213.545 21.424 213.673 21.552C213.801 21.68 213.865 21.8507 213.865 22.064C213.865 22.256 213.758 22.448 213.545 22.64L206.953 28.816L214.345 36.752C214.558 36.9653 214.665 37.1467 214.665 37.296C214.665 37.5093 214.59 37.68 214.441 37.808C214.313 37.936 214.153 38 213.961 38H210.921C210.622 38 210.398 37.968 210.249 37.904C210.121 37.8187 209.95 37.6693 209.737 37.456L203.625 31.024V37.232C203.625 37.4453 203.55 37.6267 203.401 37.776C203.273 37.9253 203.091 38 202.857 38H200.265Z" fill="#008BA9"/>
</svg>
