<svg width="280" height="53" viewBox="0 0 280 53" fill="none" xmlns="http://www.w3.org/2000/svg">
<rect x="1" y="1" width="278" height="51" fill="#FBFBFB" stroke="#FF0D0D" stroke-width="2"/>
<path d="M93.64 40L97.42 22.18C97.84 20.23 98.11 18.595 98.23 17.275H106.105L105.43 21.235C106.48 19.615 107.635 18.475 108.895 17.815C110.185 17.155 111.79 16.825 113.71 16.825C115.27 16.825 116.59 17.215 117.67 17.995C118.75 18.775 119.35 19.9 119.47 21.37C121.42 18.34 124.105 16.825 127.525 16.825C129.415 16.825 130.93 17.305 132.07 18.265C133.21 19.225 133.78 20.62 133.78 22.45C133.78 23.05 133.615 24.175 133.285 25.825L130.315 40H121.99L124.96 25.96C125.11 25.21 125.185 24.625 125.185 24.205C125.185 22.795 124.465 22.09 123.025 22.09C121.015 22.09 119.635 23.635 118.885 26.725L116.095 40H107.86L110.785 25.96C110.935 25.21 111.01 24.625 111.01 24.205C111.01 22.795 110.305 22.09 108.895 22.09C107.815 22.09 106.9 22.57 106.15 23.53C105.43 24.49 104.965 25.555 104.755 26.725L101.965 40H93.64ZM134.269 39.325L136.024 33.61C138.064 34.72 140.269 35.275 142.639 35.275C144.919 35.275 146.059 34.6 146.059 33.25C146.059 32.62 145.579 32.05 144.619 31.54C143.689 31.03 142.654 30.595 141.514 30.235C140.404 29.845 139.369 29.185 138.409 28.255C137.479 27.295 137.014 26.11 137.014 24.7C137.014 23.2 137.389 21.91 138.139 20.83C138.889 19.72 139.894 18.895 141.154 18.355C142.414 17.785 143.689 17.38 144.979 17.14C146.269 16.9 147.619 16.78 149.029 16.78C151.759 16.78 154.054 17.14 155.914 17.86L154.204 23.215C152.164 22.315 150.199 21.865 148.309 21.865C146.029 21.865 144.889 22.495 144.889 23.755C144.889 24.205 145.204 24.625 145.834 25.015C146.464 25.375 147.229 25.735 148.129 26.095C149.059 26.455 149.974 26.86 150.874 27.31C151.804 27.76 152.584 28.405 153.214 29.245C153.844 30.085 154.159 31.06 154.159 32.17C154.159 33.79 153.814 35.185 153.124 36.355C152.464 37.495 151.534 38.35 150.334 38.92C149.134 39.49 147.904 39.895 146.644 40.135C145.384 40.375 144.004 40.495 142.504 40.495C139.204 40.495 136.459 40.105 134.269 39.325ZM169.981 13.63H161.611L162.826 7.915H171.151L169.981 13.63ZM164.401 40H156.076L160.891 17.275H169.216L164.401 40Z" fill="#FF0D0D"/>
</svg>
