<svg width="280" height="53" viewBox="0 0 280 53" fill="none" xmlns="http://www.w3.org/2000/svg">
<rect x="1" y="1" width="278" height="51" fill="#FBFBFB" stroke="#663201" stroke-width="2"/>
<path d="M71.68 38V16.43H89.08C90.24 16.43 91.23 16.84 92.05 17.66C92.87 18.48 93.28 19.46 93.28 20.6V26.42C93.28 27.56 92.87 28.54 92.05 29.36C91.23 30.18 90.24 30.59 89.08 30.59L75.64 30.62V38H71.68ZM76.69 26.6H88.24C88.78 26.6 89.09 26.57 89.17 26.51C89.25 26.43 89.29 26.12 89.29 25.58V21.44C89.29 20.88 89.25 20.57 89.17 20.51C89.09 20.43 88.78 20.39 88.24 20.39H76.69C76.13 20.39 75.81 20.43 75.73 20.51C75.67 20.57 75.64 20.88 75.64 21.44V25.58C75.64 26.12 75.67 26.43 75.73 26.51C75.81 26.57 76.13 26.6 76.69 26.6ZM95.1405 38V24.74C95.1405 23.6 95.5405 22.63 96.3405 21.83C97.1605 21.01 98.1405 20.6 99.2805 20.6H108.94V24.53H100.12C99.5605 24.53 99.2405 24.57 99.1605 24.65C99.1005 24.71 99.0705 25.02 99.0705 25.58V38H95.1405ZM114.979 38C113.839 38 112.859 37.6 112.039 36.8C111.239 35.98 110.839 35 110.839 33.86V24.74C110.839 23.6 111.239 22.63 112.039 21.83C112.859 21.01 113.839 20.6 114.979 20.6H124.369C125.509 20.6 126.479 21.01 127.279 21.83C128.099 22.63 128.509 23.6 128.509 24.74V31.28H114.769V33.02C114.769 33.58 114.799 33.9 114.859 33.98C114.939 34.04 115.259 34.07 115.819 34.07H128.509V38H114.979ZM114.769 27.74H124.579V25.58C124.579 25.02 124.539 24.71 124.459 24.65C124.399 24.57 124.089 24.53 123.529 24.53H115.819C115.259 24.53 114.939 24.57 114.859 24.65C114.799 24.71 114.769 25.02 114.769 25.58V27.74ZM135.306 38C134.166 38 133.186 37.6 132.366 36.8C131.566 35.98 131.166 35 131.166 33.86V33.2H135.096V33.38C135.096 33.7 135.126 33.9 135.186 33.98C135.266 34.04 135.466 34.07 135.786 34.07H144.216C144.516 34.07 144.706 34.04 144.786 33.98C144.866 33.9 144.906 33.7 144.906 33.38V31.97C144.906 31.65 144.866 31.46 144.786 31.4C144.706 31.32 144.516 31.28 144.216 31.28H135.306C134.166 31.28 133.186 30.87 132.366 30.05C131.566 29.23 131.166 28.26 131.166 27.14V24.74C131.166 23.6 131.566 22.63 132.366 21.83C133.186 21.01 134.166 20.6 135.306 20.6H144.696C145.836 20.6 146.816 21.01 147.636 21.83C148.456 22.63 148.866 23.6 148.866 24.74V25.4H144.906V25.22C144.906 24.9 144.866 24.71 144.786 24.65C144.706 24.57 144.516 24.53 144.216 24.53H135.786C135.466 24.53 135.266 24.57 135.186 24.65C135.126 24.71 135.096 24.9 135.096 25.22V26.63C135.096 26.95 135.126 27.15 135.186 27.23C135.266 27.29 135.466 27.32 135.786 27.32H144.696C145.836 27.32 146.816 27.73 147.636 28.55C148.456 29.37 148.866 30.34 148.866 31.46V33.86C148.866 35 148.456 35.98 147.636 36.8C146.816 37.6 145.836 38 144.696 38H135.306ZM155.872 38C154.732 38 153.752 37.6 152.932 36.8C152.132 35.98 151.732 35 151.732 33.86V15.26H155.662V20.6H162.442V24.53H155.662V33.02C155.662 33.58 155.692 33.9 155.752 33.98C155.832 34.04 156.152 34.07 156.712 34.07H162.442V38H155.872ZM164.765 38V20.6H168.695V38H164.765ZM164.765 18.86V14.9H168.695V18.86H164.765ZM173.845 44.87V40.91H183.655C184.195 40.91 184.495 40.87 184.555 40.79C184.635 40.73 184.675 40.42 184.675 39.86V38H175.075C173.935 38 172.955 37.6 172.135 36.8C171.335 35.98 170.935 35 170.935 33.86V24.74C170.935 23.6 171.335 22.63 172.135 21.83C172.955 21.01 173.935 20.6 175.075 20.6H184.495C185.635 20.6 186.605 21.01 187.405 21.83C188.205 22.63 188.605 23.6 188.605 24.74V40.73C188.605 41.87 188.205 42.84 187.405 43.64C186.605 44.46 185.635 44.87 184.495 44.87H173.845ZM175.915 34.07H183.655C184.195 34.07 184.495 34.04 184.555 33.98C184.635 33.9 184.675 33.58 184.675 33.02V25.58C184.675 25.02 184.635 24.71 184.555 24.65C184.495 24.57 184.195 24.53 183.655 24.53H175.915C175.355 24.53 175.035 24.57 174.955 24.65C174.895 24.71 174.865 25.02 174.865 25.58V33.02C174.865 33.58 174.895 33.9 174.955 33.98C175.035 34.04 175.355 34.07 175.915 34.07ZM191.594 38V20.6H195.524V38H191.594ZM191.594 18.86V14.9H195.524V18.86H191.594ZM202.204 38C201.064 38 200.084 37.6 199.264 36.8C198.464 35.98 198.064 35 198.064 33.86V24.74C198.064 23.6 198.464 22.63 199.264 21.83C200.084 21.01 201.064 20.6 202.204 20.6H211.594C212.734 20.6 213.704 21.01 214.504 21.83C215.324 22.63 215.734 23.6 215.734 24.74V33.86C215.734 35 215.324 35.98 214.504 36.8C213.704 37.6 212.734 38 211.594 38H202.204ZM203.044 34.07H210.754C211.314 34.07 211.624 34.04 211.684 33.98C211.764 33.9 211.804 33.58 211.804 33.02V25.58C211.804 25.02 211.764 24.71 211.684 24.65C211.624 24.57 211.314 24.53 210.754 24.53H203.044C202.484 24.53 202.164 24.57 202.084 24.65C202.024 24.71 201.994 25.02 201.994 25.58V33.02C201.994 33.58 202.024 33.9 202.084 33.98C202.164 34.04 202.484 34.07 203.044 34.07Z" fill="#663201"/>
</svg>
