<svg width="280" height="53" viewBox="0 0 280 53" fill="none" xmlns="http://www.w3.org/2000/svg">
<rect x="1" y="1" width="278" height="51" fill="#FBFBFB" stroke="#636363" stroke-width="2"/>
<path d="M105.482 30.9443C105.482 32.0674 105.255 33.1009 104.799 34.0449C104.343 34.9727 103.725 35.7702 102.943 36.4375C102.162 37.1048 101.234 37.6257 100.16 38C99.1022 38.3581 97.9629 38.5371 96.7422 38.5371C95.8145 38.5371 95.0658 38.4639 94.4961 38.3174C93.9427 38.1709 93.4707 38.0081 93.0801 37.8291C92.6895 37.6338 92.3395 37.4629 92.0303 37.3164C91.7373 37.1699 91.3874 37.0967 90.9805 37.0967C90.5247 37.0967 90.1504 37.235 89.8574 37.5117C89.5807 37.7721 89.3285 38.1139 89.1006 38.5371H87.7334V29.1377H89.1738C89.2715 30.0003 89.4993 30.8874 89.8574 31.7988C90.2155 32.7103 90.7119 33.5404 91.3467 34.2891C91.9814 35.0378 92.7546 35.6481 93.666 36.1201C94.5775 36.5921 95.6354 36.8281 96.8398 36.8281C97.377 36.8281 97.8978 36.7549 98.4023 36.6084C98.9069 36.4456 99.3464 36.2178 99.7207 35.9248C100.111 35.6156 100.421 35.2493 100.648 34.8262C100.876 34.3867 100.99 33.8984 100.99 33.3613C100.99 32.6289 100.803 31.9779 100.429 31.4082C100.054 30.8385 99.5579 30.3177 98.9395 29.8457C98.3372 29.3574 97.6455 28.9017 96.8643 28.4785C96.083 28.0391 95.2855 27.6077 94.4717 27.1846C93.6742 26.7451 92.8848 26.2812 92.1035 25.793C91.3223 25.3047 90.6224 24.7676 90.0039 24.1816C89.4017 23.5794 88.9134 22.904 88.5391 22.1553C88.1647 21.4066 87.9775 20.5521 87.9775 19.5918C87.9775 18.5501 88.1647 17.598 88.5391 16.7354C88.9297 15.8727 89.4668 15.1322 90.1504 14.5137C90.8503 13.8789 91.6722 13.3906 92.6162 13.0488C93.5765 12.6908 94.6344 12.5117 95.79 12.5117C96.5876 12.5117 97.2793 12.6012 97.8652 12.7803C98.4674 12.943 98.9964 13.1302 99.4521 13.3418C99.9079 13.5534 100.315 13.7487 100.673 13.9277C101.031 14.0905 101.381 14.1719 101.723 14.1719C102.048 14.1719 102.292 14.0091 102.455 13.6836C102.618 13.3581 102.74 12.9674 102.821 12.5117H104.237V21.7891H102.699C102.585 20.6497 102.317 19.6162 101.894 18.6885C101.47 17.7607 100.95 16.9714 100.331 16.3203C99.7126 15.6693 99.0127 15.1729 98.2314 14.8311C97.4665 14.473 96.6852 14.2939 95.8877 14.2939C95.3994 14.2939 94.9274 14.3753 94.4717 14.5381C94.0322 14.6846 93.6416 14.9043 93.2998 15.1973C92.958 15.4902 92.6895 15.8402 92.4941 16.2471C92.2988 16.654 92.2012 17.1016 92.2012 17.5898C92.2012 18.2246 92.3883 18.8024 92.7627 19.3232C93.1533 19.8278 93.6579 20.3079 94.2764 20.7637C94.8949 21.2031 95.6029 21.6263 96.4004 22.0332C97.1979 22.4238 98.0117 22.8389 98.8418 23.2783C99.6719 23.7178 100.486 24.1816 101.283 24.6699C102.081 25.1582 102.789 25.7035 103.407 26.3057C104.026 26.9079 104.522 27.5915 104.896 28.3564C105.287 29.1051 105.482 29.9678 105.482 30.9443ZM134.603 25.5244C134.603 27.266 134.293 28.9261 133.675 30.5049C133.073 32.0837 132.202 33.4753 131.062 34.6797C129.923 35.8678 128.532 36.82 126.888 37.5361C125.26 38.236 123.421 38.5859 121.37 38.5859C119.319 38.5859 117.472 38.236 115.828 37.5361C114.184 36.8363 112.785 35.8923 111.629 34.7041C110.49 33.516 109.611 32.1325 108.992 30.5537C108.39 28.9587 108.089 27.2822 108.089 25.5244C108.089 23.7178 108.414 22.0251 109.065 20.4463C109.733 18.8512 110.652 17.4678 111.824 16.2959C113.012 15.124 114.412 14.2044 116.023 13.5371C117.651 12.8535 119.417 12.5117 121.321 12.5117C123.372 12.5117 125.219 12.8617 126.863 13.5615C128.507 14.2451 129.899 15.181 131.038 16.3691C132.194 17.5573 133.073 18.9408 133.675 20.5195C134.293 22.082 134.603 23.7503 134.603 25.5244ZM127.962 25.6465C127.962 24.8164 127.913 23.9619 127.815 23.083C127.734 22.2041 127.596 21.3496 127.4 20.5195C127.205 19.6732 126.937 18.8838 126.595 18.1514C126.269 17.4027 125.854 16.7516 125.35 16.1982C124.861 15.6286 124.284 15.181 123.616 14.8555C122.949 14.5299 122.184 14.3672 121.321 14.3672C120.459 14.3672 119.694 14.5299 119.026 14.8555C118.359 15.181 117.781 15.6204 117.293 16.1738C116.805 16.7272 116.398 17.3701 116.072 18.1025C115.747 18.835 115.478 19.6081 115.267 20.4219C115.071 21.2357 114.933 22.0739 114.852 22.9365C114.77 23.7829 114.729 24.5967 114.729 25.3779C114.729 26.0941 114.77 26.8753 114.852 27.7217C114.933 28.568 115.071 29.4144 115.267 30.2607C115.478 31.0908 115.747 31.8965 116.072 32.6777C116.398 33.4427 116.805 34.1263 117.293 34.7285C117.781 35.3145 118.351 35.7865 119.002 36.1445C119.669 36.5026 120.442 36.6816 121.321 36.6816C122.623 36.6816 123.698 36.3317 124.544 35.6318C125.407 34.9157 126.09 34.0124 126.595 32.9219C127.099 31.8314 127.449 30.6432 127.645 29.3574C127.856 28.0553 127.962 26.8184 127.962 25.6465ZM161.379 14.5137C160.793 14.5137 160.313 14.5544 159.938 14.6357C159.58 14.7008 159.296 14.8311 159.084 15.0264C158.889 15.2217 158.75 15.4984 158.669 15.8564C158.588 16.1982 158.547 16.6458 158.547 17.1992V38.3906H156.398L141.823 19.543V33.8496C141.823 34.4193 141.88 34.8831 141.994 35.2412C142.124 35.583 142.32 35.8516 142.58 36.0469C142.84 36.2422 143.182 36.3724 143.605 36.4375C144.029 36.5026 144.549 36.5352 145.168 36.5352V38H136.306V36.5352C136.892 36.5352 137.38 36.5026 137.771 36.4375C138.177 36.3724 138.511 36.2422 138.771 36.0469C139.032 35.8516 139.219 35.583 139.333 35.2412C139.447 34.8831 139.504 34.4193 139.504 33.8496V16.5889C139.13 16.1006 138.828 15.7181 138.601 15.4414C138.373 15.1647 138.153 14.9613 137.941 14.8311C137.746 14.6846 137.526 14.5951 137.282 14.5625C137.038 14.5137 136.713 14.4893 136.306 14.4893V13.0488H144.509L156.228 28.2344V17.1992C156.228 16.6458 156.179 16.1982 156.081 15.8564C155.983 15.4984 155.821 15.2217 155.593 15.0264C155.365 14.8311 155.048 14.7008 154.641 14.6357C154.234 14.5544 153.729 14.5137 153.127 14.5137V13.0488H161.379V14.5137ZM188.595 14.5137C188.172 14.5137 187.789 14.5544 187.447 14.6357C187.105 14.7008 186.747 14.8799 186.373 15.1729C186.015 15.4658 185.624 15.8971 185.201 16.4668C184.778 17.0365 184.273 17.8177 183.688 18.8105L178.316 27.917V33.3125C178.316 33.9473 178.382 34.4762 178.512 34.8994C178.658 35.3063 178.886 35.6318 179.195 35.876C179.521 36.1201 179.944 36.291 180.465 36.3887C180.986 36.4863 181.62 36.5352 182.369 36.5352V38H168.38V36.5352C169.129 36.5352 169.763 36.4863 170.284 36.3887C170.805 36.291 171.228 36.1201 171.554 35.876C171.896 35.6318 172.14 35.3063 172.286 34.8994C172.433 34.4762 172.506 33.9473 172.506 33.3125V28.8936L166.231 18.2979C165.808 17.598 165.434 17.0039 165.108 16.5156C164.783 16.0273 164.465 15.6367 164.156 15.3438C163.847 15.0508 163.53 14.8392 163.204 14.709C162.895 14.5788 162.537 14.5137 162.13 14.5137V13.0488H174.093V14.5137C173.214 14.5137 172.538 14.5869 172.066 14.7334C171.611 14.8799 171.383 15.1403 171.383 15.5146C171.383 15.71 171.48 16.0192 171.676 16.4424C171.871 16.8493 172.188 17.4352 172.628 18.2002C173.084 18.9489 173.678 19.901 174.41 21.0566C175.159 22.2122 176.078 23.6283 177.169 25.3047L181.588 17.7852C181.848 17.362 182.035 16.9632 182.149 16.5889C182.28 16.1982 182.345 15.8564 182.345 15.5635C182.345 15.238 182.166 14.9857 181.808 14.8066C181.45 14.6113 180.831 14.5137 179.952 14.5137V13.0488H188.595V14.5137Z" fill="#636363"/>
</svg>
