<svg width="280" height="53" viewBox="0 0 280 53" fill="none" xmlns="http://www.w3.org/2000/svg">
<rect x="1" y="1" width="278" height="51" fill="#FBFBFB" stroke="#D50000" stroke-width="2"/>
<path d="M78.2305 38V21.376H72.2549V17.1421H89.5444V21.376H83.5688V38H78.2305ZM96.3096 27.5923C96.3096 29.7163 96.7391 31.3447 97.5982 32.4775C98.4667 33.6104 99.708 34.1768 101.322 34.1768C102.946 34.1768 104.192 33.6104 105.061 32.4775C105.938 31.3447 106.377 29.7163 106.377 27.5923C106.377 25.4777 105.938 23.854 105.061 22.7212C104.192 21.5789 102.946 21.0078 101.322 21.0078C99.708 21.0078 98.4667 21.5742 97.5982 22.707C96.7391 23.8398 96.3096 25.4683 96.3096 27.5923ZM90.8862 27.5923C90.8862 24.2033 91.8208 21.527 93.69 19.5635C95.5685 17.5905 98.1126 16.604 101.322 16.604C104.541 16.604 107.095 17.5905 108.983 19.5635C110.88 21.5365 111.829 24.2127 111.829 27.5923C111.829 30.9718 110.88 33.6481 108.983 35.6211C107.095 37.5941 104.541 38.5806 101.322 38.5806C98.1126 38.5806 95.5685 37.5988 93.69 35.6353C91.8208 33.6623 90.8862 30.9813 90.8862 27.5923ZM113.907 31.0757H119.033C119.071 32.2651 119.42 33.1619 120.081 33.7661C120.742 34.3608 121.71 34.6582 122.984 34.6582C124.07 34.6582 124.91 34.4788 125.504 34.1201C126.099 33.7614 126.397 33.2563 126.397 32.605C126.397 32.2746 126.326 31.9819 126.184 31.7271C126.043 31.4627 125.844 31.2645 125.589 31.1323C125.202 30.9246 124.254 30.599 122.743 30.1553C121.233 29.7116 119.958 29.2821 118.92 28.8667C117.419 28.272 116.277 27.4884 115.493 26.5161C114.719 25.5343 114.332 24.3921 114.332 23.0894C114.332 21.0975 115.078 19.5163 116.569 18.3457C118.07 17.1657 120.1 16.5757 122.658 16.5757C125.169 16.5757 127.161 17.194 128.634 18.4307C130.106 19.6673 130.843 21.3382 130.843 23.4434H125.816C125.703 22.471 125.358 21.7536 124.782 21.291C124.216 20.8285 123.395 20.5972 122.318 20.5972C121.459 20.5972 120.761 20.7765 120.223 21.1353C119.685 21.4845 119.416 21.9329 119.416 22.4805C119.416 23.4056 120.695 24.2788 123.253 25.1001C123.716 25.2511 124.07 25.3644 124.315 25.4399L124.527 25.5107C127.171 26.3698 128.823 27.0636 129.483 27.5923C130.154 28.1398 130.663 28.7865 131.013 29.5322C131.362 30.2686 131.537 31.0898 131.537 31.9961C131.537 34.0729 130.739 35.6919 129.144 36.853C127.558 38.0047 125.33 38.5806 122.46 38.5806C119.751 38.5806 117.688 37.9622 116.272 36.7256C114.856 35.4795 114.068 33.5962 113.907 31.0757ZM134.564 38V17.1421H139.93V24.5479H147.237V17.1421H152.604V38H147.237V29.2065H139.93V38H134.564ZM156.721 38V17.1421H162.045V38H156.721ZM171.246 25.2983H175.536C176.442 25.2983 177.117 25.1331 177.561 24.8027C178.005 24.4629 178.227 23.9531 178.227 23.2734C178.227 22.641 178.019 22.1642 177.604 21.8433C177.188 21.5129 176.575 21.3477 175.763 21.3477H171.246V25.2983ZM171.246 33.8511H175.281C176.556 33.8511 177.448 33.6764 177.958 33.3271C178.467 32.9684 178.722 32.369 178.722 31.5288C178.722 30.7736 178.477 30.2072 177.986 29.8296C177.504 29.4425 176.782 29.249 175.819 29.249H171.246V33.8511ZM166.134 38V17.1421H176.258C178.685 17.1421 180.473 17.5811 181.625 18.459C182.786 19.3275 183.367 20.668 183.367 22.4805C183.367 23.6038 183.107 24.5337 182.588 25.27C182.078 25.9969 181.295 26.5586 180.237 26.9551C181.446 27.2666 182.371 27.8283 183.013 28.6401C183.655 29.4425 183.976 30.4432 183.976 31.6421C183.976 32.8127 183.707 33.87 183.169 34.814C182.64 35.758 181.894 36.4896 180.931 37.0088C180.28 37.3675 179.492 37.6224 178.567 37.7734C177.641 37.9245 176.216 38 174.29 38H166.134ZM193.091 29.8579H197.651L195.329 22.6646L193.091 29.8579ZM192.596 17.1421H198.43L205.793 38H200.058L198.784 34.1768H191.817L190.628 38H185.091L192.596 17.1421Z" fill="#D50000"/>
</svg>
