<svg width="63" height="63" viewBox="0 0 63 63" fill="none" xmlns="http://www.w3.org/2000/svg">
    <rect x="0.797974" y="44.798" width="62.2255" height="24.8902" rx="12.4451" transform="rotate(-45 0.797974 44.798)" fill="#F7D330"/>
    <path d="M26.5442 36.1928C25.2786 36.9951 23.8382 37.4806 22.3452 37.6082C21.8897 35.9437 20.3796 34.7876 18.6538 34.7822H13.8462C11.722 34.7822 10 36.5042 10 38.6284V57.8592C10 59.9833 11.722 61.7053 13.8462 61.7053H18.6538C20.3946 61.6984 21.9138 60.5232 22.3577 58.8399C23.1741 58.8828 23.9744 59.0847 24.7135 59.4342C25.0846 59.6101 25.4394 59.8188 25.7952 60.0245C26.326 60.3483 26.879 60.6343 27.45 60.8803C28.9388 61.4485 30.522 61.7284 32.1154 61.7053H49.4231C50.845 61.7046 52.1504 60.9195 52.8176 59.6639C53.4848 58.4082 53.4048 56.8869 52.6096 55.7082C53.7368 55.3203 54.619 54.4295 54.996 53.2985C55.373 52.1676 55.2017 50.9256 54.5327 49.939C55.9461 49.4552 56.9479 48.1919 57.0968 46.7054C57.2457 45.2189 56.5144 43.7819 55.225 43.0274C55.821 42.3399 56.1506 41.4614 56.1538 40.5515C56.1538 38.4273 54.4319 36.7053 52.3077 36.7053H40.1615C41.6654 33.8419 44.3981 27.4409 41.7385 22.7851C40.5683 20.7399 38.1231 19.1399 35.526 20.463C32.8163 21.8399 33.4231 24.5601 33.7154 25.8659C34.4606 29.2159 32.0481 32.6909 26.5442 36.1928ZM18.6538 59.7822H13.8462C12.7841 59.7822 11.9231 58.9212 11.9231 57.8592V38.6284C11.9231 37.5663 12.7841 36.7053 13.8462 36.7053H18.6538C19.7159 36.7053 20.5769 37.5663 20.5769 38.6284V57.8592C20.5769 58.9212 19.7159 59.7822 18.6538 59.7822ZM35.5923 25.4476C35.1577 23.5024 35.3529 22.7082 36.3981 22.1784C38.0942 21.313 39.5048 22.7553 40.0692 23.7409C42.9433 28.7736 37.751 37.0688 37.6981 37.1524C37.5106 37.4485 37.499 37.8231 37.6679 38.1301C37.8367 38.4372 38.1592 38.6281 38.5096 38.6284H52.3077C53.3698 38.6284 54.2308 39.4894 54.2308 40.5515C54.2308 41.6136 53.3698 42.4745 52.3077 42.4745H46.5385C46.0074 42.4745 45.5769 42.905 45.5769 43.4361C45.5769 43.9671 46.0074 44.3976 46.5385 44.3976H53.2692C54.3313 44.3976 55.1923 45.2586 55.1923 46.3207C55.1923 47.3828 54.3313 48.2438 53.2692 48.2438H46.5385C46.0074 48.2438 45.5769 48.6743 45.5769 49.2053C45.5769 49.7364 46.0074 50.1669 46.5385 50.1669H51.3462C52.4082 50.1669 53.2692 51.0278 53.2692 52.0899C53.2692 53.152 52.4082 54.013 51.3462 54.013H46.5385C46.0074 54.013 45.5769 54.4435 45.5769 54.9745C45.5769 55.5056 46.0074 55.9361 46.5385 55.9361H49.4231C50.4852 55.9361 51.3462 56.7971 51.3462 57.8592C51.3462 58.9212 50.4852 59.7822 49.4231 59.7822H32.1154C30.7698 59.8057 29.432 59.5734 28.1731 59.0976C27.6858 58.885 27.2138 58.6389 26.7606 58.3611C26.3606 58.1284 25.9587 57.8976 25.5423 57.6986C24.587 57.2492 23.5541 56.9881 22.5 56.9294V39.5428C24.3066 39.3828 26.0479 38.789 27.576 37.812C33.8356 33.8332 36.5327 29.6726 35.5923 25.4476Z" fill="#0F0238"/>
    <path d="M46.5481 4.94666V4.96686V4.97455C46.5481 5.32839 46.4606 13.6284 38.8471 13.6284C38.3161 13.6284 37.8856 14.0589 37.8856 14.5899C37.8856 15.121 38.3161 15.5515 38.8471 15.5515C46.4308 15.5515 46.5471 23.8534 46.5481 24.2053C46.5409 24.7364 46.9656 25.1727 47.4966 25.1798C48.0277 25.187 48.464 24.7623 48.4712 24.2313V24.2111V24.2053C48.4712 23.8515 48.5587 15.5515 56.1731 15.5515C56.7041 15.5515 57.1346 15.121 57.1346 14.5899C57.1346 14.0589 56.7041 13.6284 56.1731 13.6284C48.5885 13.6284 48.4731 5.32647 48.4712 4.97455C48.4783 4.4435 48.0537 4.0072 47.5226 4.00003C46.9916 3.99286 46.5553 4.41754 46.5481 4.94859V4.94666ZM51.7885 14.5899C49.8195 15.6286 48.2976 17.3506 47.5087 19.4322C46.7202 17.3503 45.1982 15.6282 43.2289 14.5899C45.1982 13.5517 46.7202 11.8296 47.5087 9.74763C48.2976 11.8293 49.8195 13.5513 51.7885 14.5899Z" fill="#0F0238"/>
    <path d="M22.5 16.513V16.5072C22.4984 15.9762 22.0666 15.547 21.5356 15.5486C21.0045 15.5502 20.5753 15.982 20.5769 16.513C20.5769 16.7486 20.4961 22.2822 15.7692 22.2822C15.2382 22.2822 14.8077 22.7127 14.8077 23.2438C14.8077 23.7748 15.2382 24.2053 15.7692 24.2053C20.4961 24.2053 20.5769 29.7409 20.5769 29.9745V29.9803C20.5785 30.5114 21.0103 30.9406 21.5413 30.939C22.0724 30.9374 22.5016 30.5056 22.5 29.9745C22.5 29.739 22.5808 24.2053 27.3077 24.2053C27.8387 24.2053 28.2692 23.7748 28.2692 23.2438C28.2692 22.7127 27.8387 22.2822 27.3077 22.2822C22.5808 22.2822 22.5 16.7467 22.5 16.513ZM23.7923 23.2438C22.8187 23.8932 22.0397 24.7948 21.5384 25.8524C21.0372 24.7948 20.2582 23.8932 19.2846 23.2438C20.2584 22.5946 21.0375 21.6929 21.5384 20.6351C22.0394 21.6929 22.8185 22.5946 23.7923 23.2438Z" fill="#0F0238"/>
    <path d="M55.1923 24.2053C54.6613 24.2053 54.2308 24.6358 54.2308 25.1669V27.0899C54.2308 27.621 54.6613 28.0515 55.1923 28.0515C55.7234 28.0515 56.1539 27.621 56.1539 27.0899V25.1669C56.1539 24.6358 55.7234 24.2053 55.1923 24.2053Z" fill="#0F0238"/>
    <path d="M55.1923 33.8207C55.7234 33.8207 56.1539 33.3902 56.1539 32.8592V30.9361C56.1539 30.405 55.7234 29.9745 55.1923 29.9745C54.6613 29.9745 54.2308 30.405 54.2308 30.9361V32.8592C54.2308 33.3902 54.6613 33.8207 55.1923 33.8207Z" fill="#0F0238"/>
    <path d="M57.1154 29.9745H59.0385C59.5695 29.9745 60 29.544 60 29.013C60 28.482 59.5695 28.0515 59.0385 28.0515H57.1154C56.5844 28.0515 56.1539 28.482 56.1539 29.013C56.1539 29.544 56.5844 29.9745 57.1154 29.9745Z" fill="#0F0238"/>
    <path d="M53.2692 29.9745C53.8002 29.9745 54.2307 29.544 54.2307 29.013C54.2307 28.482 53.8002 28.0515 53.2692 28.0515H51.3461C50.8151 28.0515 50.3846 28.482 50.3846 29.013C50.3846 29.544 50.8151 29.9745 51.3461 29.9745H53.2692Z" fill="#0F0238"/>
    <path d="M30.9548 12.8659L32.3971 14.3082C32.7744 14.6726 33.3741 14.6674 33.745 14.2965C34.1159 13.9256 34.1211 13.3259 33.7567 12.9486L32.3144 11.5063C32.073 11.2563 31.7155 11.1561 31.3793 11.2441C31.0432 11.3321 30.7806 11.5946 30.6926 11.9308C30.6046 12.267 30.7049 12.6245 30.9548 12.8659Z" fill="#0F0238"/>
    <path d="M28.0702 9.98128C28.4475 10.3457 29.0472 10.3405 29.4181 9.96956C29.789 9.59867 29.7942 8.99895 29.4298 8.62166L27.9875 7.17935C27.6102 6.81496 27.0105 6.82017 26.6396 7.19107C26.2687 7.56197 26.2635 8.16168 26.6279 8.53897L28.0702 9.98128Z" fill="#0F0238"/>
    <path d="M26.6279 14.3082C27.0034 14.6836 27.612 14.6836 27.9875 14.3082L29.4298 12.8659C29.6798 12.6245 29.78 12.267 29.692 11.9308C29.604 11.5946 29.3415 11.3321 29.0053 11.2441C28.6691 11.1561 28.3116 11.2563 28.0702 11.5063L26.6279 12.9486C26.2525 13.3241 26.2525 13.9327 26.6279 14.3082Z" fill="#0F0238"/>
    <path d="M31.6346 10.263C31.8896 10.263 32.1342 10.1616 32.3144 9.98127L33.7568 8.53897C34.0067 8.29755 34.107 7.94005 34.019 7.60386C33.931 7.26768 33.6684 7.00514 33.3322 6.91714C32.9961 6.82915 32.6386 6.92939 32.3971 7.17935L30.9548 8.62166C30.6799 8.89665 30.5977 9.31016 30.7465 9.6694C30.8953 10.0287 31.2458 10.2629 31.6346 10.263Z" fill="#0F0238"/>
    </svg>
    