<svg width="62" height="68" viewBox="0 0 62 68" fill="none" xmlns="http://www.w3.org/2000/svg">
    <circle cx="41.5" cy="20.5" r="20.5" fill="#A5A8E7" />
    <path
        d="M47.8315 32.0209C49.304 31.0062 50.827 29.9573 50.827 28.3614C50.827 26.765 49.304 25.7161 47.8315 24.7014C47.0362 24.1539 45.9472 23.4038 45.8169 22.9148C45.6737 22.3792 46.2336 21.1965 46.6835 20.2467C47.4326 18.6632 48.208 17.0262 47.4356 15.6909C46.6527 14.3378 44.8304 14.1917 43.0686 14.0505C42.0336 13.9677 40.7454 13.8642 40.3683 13.4876C39.9918 13.1111 39.8887 11.8229 39.806 10.7874C39.6648 9.0255 39.5191 7.20369 38.166 6.42086C36.8297 5.64843 35.1937 6.42333 33.6107 7.17247C32.6604 7.62235 31.4782 8.18222 30.9417 8.03903C30.4526 7.90873 29.703 6.8197 29.1555 6.02498C28.1403 4.55247 27.0909 3.02942 25.4945 3.02942C23.8987 3.02942 22.8498 4.55247 21.8356 6.02498C21.2881 6.8202 20.5384 7.90873 20.0499 8.03953C19.5133 8.18321 18.3326 7.62334 17.3823 7.17346C15.7984 6.42432 14.1613 5.64992 12.8271 6.42333C11.4745 7.20616 11.3293 9.02798 11.1891 10.7893C11.1068 11.8249 11.0043 13.1131 10.6277 13.4896C10.2517 13.8662 8.96346 13.9697 7.92844 14.0525C6.16707 14.1942 4.34526 14.3403 3.56292 15.6934C2.7905 17.0292 3.5659 18.6657 4.31603 20.2487C4.7659 21.198 5.32578 22.3802 5.18259 22.9158C5.05228 23.4048 3.96326 24.1544 3.16854 24.7019C1.69602 25.7166 0.172974 26.7655 0.172974 28.3614C0.172974 29.9568 1.69602 31.0062 3.16854 32.0204C3.96375 32.5679 5.05228 33.318 5.18259 33.8065C5.32578 34.3416 4.7659 35.5238 4.31553 36.4741C3.5659 38.0566 2.7905 39.6931 3.56243 41.0284C4.34476 42.3815 6.16658 42.5276 7.92844 42.6693C8.21556 42.6921 8.52138 42.7179 8.82262 42.7491L0.912203 61.5435C0.606007 62.2708 0.7378 63.0913 1.25655 63.6849C1.77579 64.2794 2.5715 64.5207 3.33253 64.3156L7.68219 63.1557L10.2517 67.05C10.6803 67.6994 11.4211 68.0307 12.1463 67.9617C12.8989 67.8933 13.5504 67.4186 13.8462 66.723L21.0941 49.6623C22.3552 51.3021 23.4964 53.6934 25.4945 53.6934C27.4968 53.6934 28.637 51.2952 29.9028 49.6554L37.1538 66.7235C37.4495 67.4186 38.1011 67.8933 38.8537 67.9617C39.5789 68.0308 40.3197 67.6993 40.7483 67.05L43.3376 63.1478L47.6675 64.3156C48.429 64.5207 49.2237 64.2794 49.7434 63.6849C50.2622 63.0913 50.394 62.2708 50.0883 61.544L42.1785 42.7521C42.4785 42.7209 42.7827 42.6956 43.0686 42.6723C44.8304 42.5316 46.6523 42.3854 47.4351 41.0323C48.2075 39.6966 47.4326 38.0596 46.683 36.4761C46.2336 35.5258 45.6737 34.3436 45.8169 33.8085C45.9472 33.319 47.0362 32.5689 47.8315 32.0209ZM11.9456 65.9323L9.37667 62.0379C8.88649 61.2948 7.98066 60.9589 7.13421 61.1882L2.78257 62.3312L10.7486 43.4051C10.9068 43.6949 10.9976 44.1938 11.0448 44.5189C11.0602 44.6581 11.0946 44.7728 11.1876 45.9364C11.3278 47.6963 11.4725 49.5161 12.8251 50.3049C14.1623 51.0724 15.7979 50.3004 17.3789 49.5523C17.9903 49.2639 18.6973 48.929 19.2681 48.7655L11.9456 65.9323ZM43.8663 61.1887C43.0146 60.9588 42.1104 61.2987 41.6228 62.0379L39.0216 65.9293L31.7309 48.7675C32.3873 48.9578 33.1958 49.3578 34.0119 49.7386C35.7919 50.5701 37.7101 51.2566 38.8978 49.6266C38.9211 49.5949 38.951 49.5686 38.9731 49.5359C38.9788 49.5275 38.9823 49.5176 38.9878 49.5087C39.5909 48.5842 39.7006 47.2439 39.8055 45.9349C39.8344 45.5713 39.8669 45.1774 39.912 44.8018C39.9155 44.7721 39.9187 44.7414 39.9224 44.7116C39.9361 44.6036 39.9517 44.4986 39.9682 44.3955C39.9927 44.2429 40.0199 44.0968 40.0517 43.9625C40.0655 43.904 40.0817 43.8525 40.097 43.799C40.1374 43.6588 40.1814 43.5285 40.2348 43.4274C40.2394 43.4185 40.2446 43.411 40.2494 43.4026L48.2075 62.358C45.9057 61.738 43.7465 61.1564 43.8663 61.1887ZM44.8488 37.3441C45.2744 38.2439 45.9175 39.6024 45.6782 40.0156C45.4285 40.4477 43.9109 40.5691 42.9061 40.6498C42.0928 40.7147 41.2678 40.7856 40.5352 40.9749C38.1589 41.4674 37.9543 43.577 37.779 45.7759C37.7188 46.5285 37.6358 47.57 37.418 48.1492C37.1153 48.9446 36.4095 48.6153 34.8501 47.891C34.8463 47.889 34.8422 47.8871 34.8382 47.8856C34.7478 47.8424 34.7164 47.8288 34.4788 47.7161C33.6767 47.3366 32.8601 46.9551 32.0694 46.7628C32.0109 46.749 31.9515 46.7301 31.8934 46.7178C31.8711 46.7133 31.8496 46.7123 31.8274 46.7079C31.0578 46.5595 30.3423 46.6203 29.6849 47.0586C28.8349 47.5962 28.1492 48.5807 27.4838 49.5464C26.9026 50.3896 26.0247 51.664 25.4945 51.664C24.9654 51.664 24.0879 50.3896 23.5072 49.5464C21.4045 46.4919 20.4201 45.9091 17.0328 47.4733C16.7982 47.5817 16.6631 47.6436 16.5138 47.7141C15.6145 48.1397 14.2565 48.7819 13.8433 48.543C13.4122 48.2933 13.2918 46.7757 13.2115 45.7714C12.8822 41.6276 12.1247 40.971 8.09095 40.6464C7.08665 40.5656 5.56905 40.4437 5.31934 40.0127C5.08052 39.5995 5.72363 38.2414 6.14973 37.3431C6.80324 35.9638 7.47856 34.5378 7.14363 33.2823C6.81959 32.0709 5.54873 31.1954 4.31999 30.3492C3.47671 29.7685 2.20239 28.8905 2.20239 28.3614C2.20239 27.8317 3.47671 26.9543 4.31949 26.3736C5.54873 25.5269 6.81959 24.6514 7.14363 23.4395C7.47856 22.185 6.80324 20.759 6.14973 19.3797C5.72413 18.4809 5.08052 17.1228 5.31983 16.7096C5.56905 16.2781 7.08665 16.1562 8.09095 16.0759C9.59914 15.9545 11.1588 15.8292 12.0636 14.9245C12.9683 14.0188 13.0921 12.459 13.212 10.9504C13.2923 9.94607 13.4127 8.42896 13.8438 8.17925C14.2565 7.94192 15.615 8.58256 16.5143 9.00816C17.8937 9.66068 19.3196 10.3355 20.5741 10.0001C21.7855 9.67604 22.661 8.40518 23.5072 7.17643C24.0879 6.33316 24.9654 5.05883 25.4945 5.05883C26.0247 5.05883 26.9031 6.33316 27.4843 7.17643C28.3306 8.40518 29.206 9.67554 30.4175 9.99958C31.673 10.3345 33.0999 9.65969 34.4788 9.00667C35.3775 8.58156 36.7371 7.93846 37.1493 8.17727C37.5813 8.42698 37.7027 9.94508 37.783 10.9499C37.9039 12.4581 38.0282 14.0178 38.9334 14.923C39.8387 15.8277 41.3984 15.9526 42.9066 16.0734C43.9109 16.1542 45.429 16.2756 45.6787 16.7071C45.918 17.1204 45.2749 18.4789 44.8493 19.3782C44.1962 20.757 43.5209 22.1835 43.8564 23.4385C44.1799 24.6504 45.4508 25.5259 46.68 26.3726C47.5233 26.9533 48.7976 27.8312 48.7976 28.3614C48.7976 28.891 47.5233 29.769 46.68 30.3502C45.4508 31.1964 44.1799 32.0724 43.8559 33.2843C43.5209 34.5393 44.1958 35.9652 44.8488 37.3441Z"
        fill="#0F0238" />
    <path
        d="M25.5 13.3419C17.2184 13.3419 10.4806 20.0792 10.4806 28.3614C10.4806 36.6425 17.2184 43.3803 25.5 43.3803C33.7817 43.3803 40.5195 36.6425 40.5195 28.3614C40.5195 20.0792 33.7817 13.3419 25.5 13.3419ZM25.5 41.3509C18.3371 41.3509 12.51 35.5238 12.51 28.3614C12.51 21.1985 18.3371 15.3714 25.5 15.3714C32.6629 15.3714 38.49 21.1985 38.49 28.3614C38.49 35.5238 32.6629 41.3509 25.5 41.3509Z"
        fill="#0F0238" />
    <path
        d="M32.4033 25.0606H28.4034L27.1583 21.2486C26.9225 20.5272 26.2541 20.0426 25.495 20.0426C24.735 20.0431 24.0661 20.5291 23.8308 21.252L22.5951 25.0606H18.5967C17.8367 25.0606 17.1683 25.5462 16.9335 26.2691C16.6981 26.992 16.9533 27.7778 17.5676 28.2252L20.8025 30.5781L19.5678 34.3833C19.3335 35.1061 19.5891 35.8919 20.2045 36.3383C20.8189 36.7843 21.6463 36.7843 22.2607 36.3374L25.4936 33.9869L28.7423 36.3433C29.3618 36.7929 30.1891 36.7858 30.7985 36.3423C31.4128 35.8954 31.668 35.1101 31.4336 34.3872L30.1975 30.5781L33.4323 28.2247C34.0467 27.7778 34.3019 26.992 34.0665 26.2691C33.8317 25.5462 33.1633 25.0606 32.4033 25.0606ZM28.8384 29.0565C28.225 29.5034 27.9699 30.2888 28.2042 31.0111L29.2383 34.196L26.5206 32.225C26.2135 32.0021 25.8533 31.8906 25.4931 31.8906C25.1329 31.8906 24.7722 32.0021 24.4645 32.226L21.7642 34.1895L22.7958 31.0111C23.0301 30.2888 22.775 29.5034 22.1611 29.056L19.4578 27.0901H22.7982C23.5593 27.0901 24.2281 26.604 24.4625 25.8806L25.496 22.6953L26.5375 25.8836C26.7728 26.6055 27.4412 27.0901 28.2008 27.0901H31.5421L28.8384 29.0565Z"
        fill="#0F0238" />
</svg>
    