<svg width="67" height="55" viewBox="0 0 67 55" fill="none" xmlns="http://www.w3.org/2000/svg">
    <rect y="9" width="52" height="32" rx="16" fill="#FFE6CC"/>
    <path d="M60.4585 27.3932L54.1483 17.6488C53.6593 16.8936 52.8301 16.4426 51.9303 16.4426H24.0895C23.1911 16.4426 22.3626 16.8925 21.8734 17.6458L15.5437 27.3914C14.8968 28.3871 14.9967 29.7018 15.7866 30.5884L36.0257 53.3104C36.5266 53.8727 37.2458 54.1953 37.9988 54.1953C37.9987 54.1953 37.999 54.1953 37.9988 54.1953C38.7518 54.1953 39.4713 53.8728 39.9722 53.3105L60.2135 30.5871C61.0023 29.7016 61.103 28.3882 60.4585 27.3932ZM50.652 18.7081L45.3453 26.9142L40.0353 18.7081H50.652ZM43.2633 27.8671H32.7344L37.9988 19.7314L43.2633 27.8671ZM35.9624 18.7084L30.6671 26.8919L25.3735 18.7084H35.9624ZM23.2788 19.6412L28.5997 27.8671H17.9362L23.2788 19.6412ZM18.4147 30.1328H29.8159L35.8442 49.7004L18.4147 30.1328ZM37.9988 48.999L32.1865 30.1328H43.8112L37.9988 48.999ZM40.1533 49.7011L46.1819 30.1329H57.5842L40.1533 49.7011ZM47.4272 27.8671L52.7432 19.6469L58.0662 27.8671H47.4272Z" fill="#0F0238"/>
    <path d="M12.4362 27.8672H10.1328C9.50727 27.8672 9 28.3744 9 29C9 29.6257 9.50727 30.1328 10.1328 30.1328H12.4362C13.0617 30.1328 13.569 29.6257 13.569 29C13.569 28.3744 13.0617 27.8672 12.4362 27.8672Z" fill="#0F0238"/>
    <path d="M65.8672 27.8672H63.5638C62.9383 27.8672 62.431 28.3744 62.431 29C62.431 29.6257 62.9383 30.1328 63.5638 30.1328H65.8672C66.4927 30.1328 67 29.6257 67 29C67 28.3744 66.4927 27.8672 65.8672 27.8672Z" fill="#0F0238"/>
    <path d="M58.5205 8.49983C58.078 8.05747 57.361 8.05747 56.9184 8.49983L53.1555 12.2627C52.7131 12.7051 52.7131 13.4224 53.1555 13.8647C53.3769 14.086 53.6667 14.1965 53.9566 14.1965C54.2466 14.1965 54.5364 14.0858 54.7576 13.8647L58.5205 10.1019C58.9629 9.65949 58.9629 8.94231 58.5205 8.49983Z" fill="#0F0238"/>
    <path d="M22.8935 12.2426L19.1307 8.47962C18.6885 8.03725 17.9714 8.03725 17.5286 8.47962C17.0862 8.92198 17.0862 9.63928 17.5286 10.0816L21.2915 13.8445C21.5127 14.0657 21.8026 14.1763 22.0925 14.1763C22.3824 14.1763 22.6723 14.0656 22.8935 13.8445C23.3359 13.4023 23.3359 12.6848 22.8935 12.2426Z" fill="#0F0238"/>
    <path d="M38.0288 0C37.4032 0 36.896 0.507161 36.896 1.13281V8.51513C36.896 9.14078 37.4031 9.64794 38.0288 9.64794C38.6543 9.64794 39.1616 9.14078 39.1616 8.51513V1.13281C39.1616 0.507274 38.6543 0 38.0288 0Z" fill="#0F0238"/>
    <path d="M38.8291 11.5465C38.6185 11.3358 38.3263 11.2146 38.0284 11.2146C37.7304 11.2146 37.4382 11.3358 37.2275 11.5465C37.0167 11.7572 36.8955 12.0494 36.8955 12.3474C36.8955 12.6464 37.0166 12.9376 37.2275 13.1483C37.4382 13.3601 37.7304 13.4802 38.0284 13.4802C38.3263 13.4802 38.6185 13.3601 38.8291 13.1483C39.041 12.9376 39.1612 12.6453 39.1612 12.3474C39.1612 12.0494 39.041 11.7573 38.8291 11.5465Z" fill="#0F0238"/>
    </svg>
    