<svg width="21" height="21" viewBox="0 0 21 21" fill="none" xmlns="http://www.w3.org/2000/svg">
    <path d="M10.5 21C4.7104 21 0 16.2896 0 10.5C0 4.7104 4.7104 0 10.5 0C16.2896 0 21 4.7104 21 10.5C21 16.2896 16.2896 21 10.5 21ZM10.5 1.3125C5.43391 1.3125 1.3125 5.43391 1.3125 10.5C1.3125 15.5661 5.43391 19.6875 10.5 19.6875C15.5661 19.6875 19.6875 15.5661 19.6875 10.5C19.6875 5.43391 15.5661 1.3125 10.5 1.3125ZM8.99522 14.2452L15.5577 7.68272C15.8141 7.42629 15.8141 7.01105 15.5577 6.75478C15.3013 6.49852 14.886 6.49835 14.6298 6.75478L8.53125 12.8533L6.37022 10.6923C6.11379 10.4359 5.69855 10.4359 5.44228 10.6923C5.18602 10.9487 5.18585 11.364 5.44228 11.6202L8.06728 14.2452C8.19541 14.3734 8.36341 14.4375 8.53125 14.4375C8.69909 14.4375 8.86709 14.3734 8.99522 14.2452Z" fill="#27AE60"/>
    </svg>
    