<svg width="232" height="25" viewBox="0 0 232 25" fill="none" xmlns="http://www.w3.org/2000/svg">
    <path d="M103.5 10.0002L103.304 10.4602L103.5 10.0002ZM225.833 10.0002C225.833 11.4729 227.027 12.6668 228.5 12.6668C229.973 12.6668 231.167 11.4729 231.167 10.0002C231.167 8.52741 229.973 7.33351 228.5 7.33351C227.027 7.33351 225.833 8.52741 225.833 10.0002ZM0.771263 17.4202C1.0374 17.2483 1.31029 17.0746 1.58984 16.8993L1.05861 16.0521C0.775318 16.2297 0.498666 16.4058 0.228737 16.5802L0.771263 17.4202ZM3.27709 15.8712C3.82676 15.5454 4.39756 15.2158 4.98902 14.8834L4.49914 14.0117C3.90104 14.3477 3.3236 14.6812 2.76729 15.0109L3.27709 15.8712ZM6.72337 13.9335C7.29228 13.6298 7.87764 13.3248 8.47913 13.0193L8.02633 12.1277C7.41875 12.4362 6.82732 12.7444 6.25239 13.0514L6.72337 13.9335ZM10.2558 12.1391C10.8404 11.8566 11.4385 11.5744 12.0499 11.2933L11.6321 10.3848C11.0149 10.6686 10.411 10.9534 9.8207 11.2387L10.2558 12.1391ZM13.8473 10.487C14.4419 10.2269 15.0478 9.96828 15.6647 9.71171L15.2807 8.78837C14.6581 9.0473 14.0466 9.30832 13.4465 9.57087L13.8473 10.487ZM17.502 8.9671C18.1097 8.72717 18.7273 8.4896 19.3545 8.25487L19.004 7.31831C18.3711 7.55514 17.748 7.79486 17.1348 8.03697L17.502 8.9671ZM21.206 7.58053C21.8214 7.36255 22.4453 7.14758 23.0777 6.93604L22.7604 5.98769C22.1224 6.20112 21.493 6.418 20.8721 6.63793L21.206 7.58053ZM24.9688 6.32186C25.5891 6.12645 26.2169 5.93454 26.8521 5.74652L26.5683 4.78764C25.9275 4.97733 25.2941 5.17093 24.6684 5.36807L24.9688 6.32186ZM28.7553 5.20124C29.3876 5.02604 30.0268 4.85486 30.6728 4.68802L30.4227 3.7198C29.771 3.88811 29.1262 4.0608 28.4883 4.23755L28.7553 5.20124ZM32.5858 4.21166C33.2237 4.0587 33.8679 3.91012 34.5181 3.76623L34.302 2.78986C33.646 2.93502 32.9962 3.08491 32.3526 3.23922L32.5858 4.21166ZM36.4527 3.35587C37.094 3.22572 37.7408 3.10025 38.3931 2.97974L38.2114 1.99638C37.5533 2.11796 36.9008 2.24454 36.2538 2.37585L36.4527 3.35587ZM40.3496 2.63617C40.9934 2.52897 41.6424 2.4267 42.2963 2.32963L42.1494 1.34047C41.4897 1.43841 40.8349 1.54159 40.1853 1.64975L40.3496 2.63617ZM44.2611 2.05574C44.91 1.97116 45.5635 1.89179 46.2215 1.81786L46.1099 0.824116C45.4459 0.89871 44.7866 0.978793 44.1319 1.06412L44.2611 2.05574ZM48.1907 1.61439C48.8439 1.55276 49.5015 1.49658 50.1633 1.44607L50.0871 0.44897C49.4194 0.499938 48.7559 0.556625 48.0967 0.618806L48.1907 1.61439ZM52.1347 1.31329C52.7912 1.27497 53.4516 1.2423 54.1159 1.2155L54.0756 0.216313C53.4053 0.243359 52.7389 0.276322 52.0765 0.31499L52.1347 1.31329ZM56.0878 1.15361C56.7463 1.13885 57.4083 1.12992 58.074 1.12702L58.0696 0.12703C57.3979 0.129957 56.7298 0.138968 56.0654 0.153865L56.0878 1.15361ZM60.0444 1.13609C60.7034 1.14504 61.3658 1.15996 62.0314 1.18104L62.0631 0.181543C61.3914 0.160268 60.723 0.145212 60.0579 0.136187L60.0444 1.13609ZM63.9991 1.26103C64.6572 1.29369 65.3184 1.33243 65.9826 1.37744L66.0502 0.379731C65.38 0.334314 64.7128 0.295214 64.0487 0.262255L63.9991 1.26103ZM67.9468 1.52823C68.6034 1.58455 69.2628 1.64704 69.9249 1.71588L70.0283 0.721241C69.3602 0.651779 68.6948 0.588717 68.0323 0.531888L67.9468 1.52823ZM71.8823 1.93704C72.5368 2.0169 73.1938 2.10302 73.8534 2.19555L73.9923 1.20524C73.3268 1.11188 72.6638 1.02499 72.0034 0.944404L71.8823 1.93704ZM75.8006 2.48632C76.4521 2.5895 77.1059 2.69899 77.7621 2.81493L77.9361 1.83019C77.2741 1.71321 76.6144 1.60274 75.9571 1.49863L75.8006 2.48632ZM79.6972 3.17445C80.344 3.30049 80.993 3.43285 81.644 3.57168L81.8526 2.59366C81.1958 2.45361 80.5411 2.32007 79.8885 2.19291L79.6972 3.17445ZM83.5677 3.99939C84.2088 4.14778 84.8518 4.3025 85.4968 4.46365L85.7392 3.49348C85.0886 3.33092 84.4399 3.17485 83.7932 3.02515L83.5677 3.99939ZM87.4081 4.95872C88.0424 5.12886 88.6786 5.30528 89.3165 5.48811L89.592 4.52682C88.9486 4.34242 88.307 4.16447 87.6671 3.99286L87.4081 4.95872ZM91.2148 6.0497C91.8415 6.24087 92.4698 6.43827 93.0996 6.64201L93.4074 5.69056C92.7722 5.48509 92.1386 5.28601 91.5066 5.09321L91.2148 6.0497ZM94.9849 7.26934C95.603 7.48074 96.2225 7.69829 96.8434 7.92211L97.1825 6.98136C96.5564 6.75569 95.9318 6.53632 95.3086 6.32316L94.9849 7.26934ZM98.7104 8.61245C99.3208 8.84384 99.9325 9.08133 100.546 9.32502L100.915 8.39576C100.297 8.1501 99.6803 7.91067 99.0649 7.67738L98.7104 8.61245ZM102.383 10.0725C102.69 10.2002 102.997 10.3294 103.304 10.4602L103.696 9.5401C103.386 9.40822 103.076 9.27794 102.767 9.14922L102.383 10.0725ZM103.304 10.4602C103.616 10.5928 103.928 10.7242 104.24 10.8546L104.625 9.93175C104.315 9.80225 104.005 9.67169 103.696 9.5401L103.304 10.4602ZM106.12 11.6243C106.749 11.8767 107.38 12.1249 108.012 12.3689L108.372 11.436C107.744 11.1936 107.117 10.947 106.493 10.6963L106.12 11.6243ZM109.912 13.0878C110.547 13.3233 111.183 13.5547 111.822 13.782L112.157 12.84C111.523 12.6141 110.89 12.3842 110.26 12.1502L109.912 13.0878ZM113.74 14.4516C114.381 14.6707 115.023 14.8858 115.666 15.0968L115.978 14.1466C115.338 13.9369 114.7 13.7231 114.063 13.5054L113.74 14.4516ZM117.6 15.7181C118.247 15.9213 118.894 16.1205 119.542 16.3158L119.831 15.3583C119.186 15.1642 118.543 14.9661 117.9 14.7641L117.6 15.7181ZM121.49 16.8899C122.141 17.0775 122.793 17.2613 123.446 17.4411L123.712 16.477C123.063 16.2982 122.415 16.1156 121.767 15.929L121.49 16.8899ZM125.407 17.9693C126.062 18.1416 126.718 18.31 127.374 18.4746L127.617 17.5047C126.965 17.341 126.313 17.1735 125.662 17.0022L125.407 17.9693ZM129.348 18.958C130.006 19.1153 130.665 19.2689 131.324 19.4186L131.546 18.4434C130.89 18.2945 130.235 18.1419 129.58 17.9854L129.348 18.958ZM133.309 19.8578C133.971 20.0006 134.634 20.1396 135.296 20.2748L135.496 19.295C134.837 19.1605 134.178 19.0223 133.52 18.8803L133.309 19.8578ZM137.287 20.6701C137.953 20.7986 138.619 20.9233 139.285 21.0443L139.464 20.0605C138.802 19.9401 138.139 19.816 137.477 19.6882L137.287 20.6701ZM141.282 21.3963C141.951 21.5107 142.62 21.6213 143.289 21.7282L143.447 20.7408C142.782 20.6344 142.116 20.5244 141.45 20.4106L141.282 21.3963ZM145.294 22.0382C145.965 22.1383 146.635 22.2346 147.304 22.3274L147.442 21.3368C146.776 21.2446 146.109 21.1487 145.442 21.0492L145.294 22.0382ZM149.319 22.5957C149.99 22.6816 150.661 22.7638 151.33 22.8423L151.446 21.8492C150.781 21.771 150.114 21.6892 149.446 21.6038L149.319 22.5957ZM153.353 23.0692C154.026 23.1412 154.699 23.2095 155.369 23.2742L155.465 22.2788C154.798 22.2144 154.129 22.1465 153.459 22.0749L153.353 23.0692ZM157.395 23.4589C158.071 23.517 158.745 23.5715 159.418 23.6223L159.494 22.6251C158.824 22.5746 158.153 22.5204 157.481 22.4626L157.395 23.4589ZM161.443 23.7646C162.121 23.8088 162.798 23.8492 163.473 23.886L163.527 22.8875C162.856 22.8509 162.183 22.8106 161.508 22.7667L161.443 23.7646ZM165.494 23.9857C166.175 24.0157 166.855 24.042 167.531 24.0646L167.565 23.0652C166.891 23.0427 166.216 23.0165 165.538 22.9867L165.494 23.9857ZM169.554 24.1214C170.236 24.1369 170.915 24.1486 171.592 24.1567L171.604 23.1567C170.931 23.1487 170.255 23.1371 169.577 23.1216L169.554 24.1214ZM173.619 24.1697C174.3 24.1703 174.978 24.1672 175.652 24.1603L175.642 23.1604C174.971 23.1672 174.297 23.1703 173.62 23.1697L173.619 24.1697ZM177.683 24.1283C178.363 24.1137 179.039 24.0953 179.712 24.0731L179.679 23.0736C179.01 23.0957 178.338 23.114 177.662 23.1285L177.683 24.1283ZM181.745 23.9941C182.424 23.9637 183.098 23.9295 183.768 23.8914L183.712 22.893C183.045 22.9309 182.375 22.9649 181.7 22.9951L181.745 23.9941ZM185.803 23.7633C186.48 23.7165 187.153 23.6657 187.82 23.6109L187.739 22.6143C187.075 22.6686 186.407 22.7192 185.734 22.7657L185.803 23.7633ZM189.854 23.4309C190.53 23.3666 191.2 23.2982 191.866 23.2258L191.757 22.2316C191.097 22.3036 190.43 22.3715 189.759 22.4354L189.854 23.4309ZM193.895 22.9904C194.57 22.9072 195.239 22.8199 195.901 22.7284L195.764 21.7378C195.107 21.8286 194.443 21.9153 193.773 21.9979L193.895 22.9904ZM197.922 22.4334C198.597 22.3296 199.264 22.2214 199.923 22.109L199.755 21.1232C199.101 21.2348 198.439 21.342 197.77 21.445L197.922 22.4334ZM201.931 21.7491C202.604 21.6224 203.269 21.491 203.926 21.355L203.723 20.3758C203.072 20.5105 202.413 20.6407 201.746 20.7664L201.931 21.7491ZM205.911 20.9239C206.584 20.7709 207.247 20.6129 207.899 20.45L207.657 19.4797C207.011 19.6409 206.355 19.7973 205.689 19.9488L205.911 20.9239ZM209.851 19.9396C210.522 19.756 211.182 19.5669 211.828 19.3725L211.54 18.4148C210.902 18.6068 210.251 18.7936 209.587 18.9751L209.851 19.9396ZM213.77 18.7603C214.424 18.5441 215.064 18.3221 215.689 18.0944L215.346 17.1548C214.731 17.379 214.101 17.5977 213.456 17.8109L213.77 18.7603ZM217.609 17.3578C218.253 17.0974 218.88 16.8304 219.488 16.5569L219.078 15.6449C218.482 15.9128 217.868 16.1748 217.234 16.4306L217.609 17.3578ZM221.324 15.6823C221.952 15.365 222.557 15.0398 223.137 14.707L222.639 13.8396C222.076 14.163 221.487 14.4798 220.873 14.7896L221.324 15.6823ZM224.895 13.6245C225.487 13.2324 226.047 12.8307 226.574 12.4195L225.958 11.6315C225.454 12.0254 224.915 12.412 224.343 12.7908L224.895 13.6245ZM228.145 11.0676C228.396 10.8286 228.636 10.5866 228.865 10.3418L228.135 9.65859C227.919 9.88889 227.693 10.1173 227.455 10.3437L228.145 11.0676Z" fill="#7F83DD"/>
    </svg>
    