<svg width="130" height="130" viewBox="0 0 130 130" fill="none" xmlns="http://www.w3.org/2000/svg">
    <path d="M104.637 121.379H92.0806V108.823H104.637V121.379Z" fill="#FFE6CC"/>
    <path d="M64.875 96.2662C45.2577 96.2662 29.2984 80.307 29.2984 60.6896C29.2984 41.0722 45.2577 25.1129 64.875 25.1129C84.4924 25.1129 100.452 41.0722 100.452 60.6896C100.452 80.307 84.4924 96.2662 64.875 96.2662ZM64.875 35.5766C51.0274 35.5766 39.7621 46.8419 39.7621 60.6896C39.7621 74.5373 51.0274 85.8025 64.875 85.8025C78.7227 85.8025 89.988 74.5373 89.988 60.6896C89.988 46.8419 78.7227 35.5766 64.875 35.5766Z" fill="#FFE6CC"/>
    <path d="M64.875 96.2662C45.2577 96.2662 29.2984 80.307 29.2984 60.6896C29.2984 41.0722 45.2577 25.1129 64.875 25.1129C84.4924 25.1129 100.452 41.0722 100.452 60.6896C100.452 80.307 84.4924 96.2662 64.875 96.2662ZM64.875 35.5766C51.0274 35.5766 39.7621 46.8419 39.7621 60.6896C39.7621 74.5373 51.0274 85.8025 64.875 85.8025C78.7227 85.8025 89.988 74.5373 89.988 60.6896C89.988 46.8419 78.7227 35.5766 64.875 35.5766Z" fill="#FFE6CC"/>
    <path d="M8.37097 96.2661H37.6694V115.101H8.37097V96.2661Z" fill="#FFE6CC"/>
    <path d="M72.4069 101.439C72.9259 100.525 73.2461 99.4849 73.2461 98.3611V95.2303C71.8774 95.5631 70.4857 95.8288 69.0606 95.9984V98.3611C69.0606 99.5163 68.1209 100.454 66.9678 100.454H62.7823C61.6292 100.454 60.6896 99.5163 60.6896 98.3611V95.9984C59.2644 95.8309 57.8728 95.5631 56.5041 95.2303V98.3611C56.5041 99.4849 56.8243 100.525 57.3433 101.439C55.5875 102.553 54.4114 104.503 54.4114 106.732V119.289C54.4114 125.058 59.1054 129.752 64.8751 129.752C70.6448 129.752 75.3388 125.058 75.3388 119.289V106.732C75.3388 104.503 74.1627 102.553 72.4069 101.439ZM71.1533 119.289C71.1533 122.75 68.3365 125.567 64.8751 125.567C61.4137 125.567 58.5969 122.75 58.5969 119.289V106.732C58.5969 105.577 59.5365 104.639 60.6896 104.639H62.7823H66.9678H69.0606C70.2137 104.639 71.1533 105.577 71.1533 106.732V119.289Z" fill="#0F0238"/>
    <path d="M78.0447 48.7463L58.5968 68.1941L51.7054 61.3027L48.7463 64.2619L58.5968 74.1124L81.0039 51.7054L78.0447 48.7463Z" fill="#0F0238"/>
    <path d="M100.345 58.5969C100.387 59.2937 100.452 59.9823 100.452 60.6896C100.452 61.397 100.387 62.0855 100.345 62.7824H125.565V108.823H108.823V125.565H87.8953V87.7655C86.581 88.8852 85.1789 89.8939 83.7098 90.8168V129.75H111.782L129.75 111.782V58.5969H100.345ZM122.606 113.008L113.008 122.606V113.008H122.606Z" fill="#0F0238"/>
    <path d="M92.0807 92.0807H121.379V96.2662H92.0807V92.0807Z" fill="#0F0238"/>
    <path d="M92.0807 100.452H121.379V104.637H92.0807V100.452Z" fill="#0F0238"/>
    <path d="M29.8865 54.4114H6.27823C5.12513 54.4114 4.18549 53.4738 4.18549 52.3186V48.1331C4.18549 46.9779 5.12513 46.0404 6.27823 46.0404H32.4919C33.1512 44.5901 33.9087 43.1942 34.7479 41.8549H10.4637V37.6694H37.7991C39.082 36.1626 40.4841 34.7584 41.9972 33.4839H6.27823C5.12513 33.4839 4.18549 32.5464 4.18549 31.3912V27.2057C4.18549 26.0505 5.12513 25.1129 6.27823 25.1129H52.3186C53.298 25.1129 54.0849 25.8035 54.3109 26.7139C55.6398 26.2995 57.0126 25.9877 58.4022 25.7324C57.7367 22.9825 55.2715 20.9274 52.3186 20.9274V16.742C55.78 16.742 58.5968 13.9251 58.5968 10.4637V6.27823C58.5968 2.81683 55.78 0 52.3186 0H6.27823C2.81683 0 0 2.81683 0 6.27823V10.4637C0 13.9251 2.81683 16.742 6.27823 16.742V20.9274C2.81683 20.9274 0 23.7443 0 27.2057V31.3912C0 34.8526 2.81683 37.6694 6.27823 37.6694V41.8549C2.81683 41.8549 0 44.6717 0 48.1331V52.3186C0 55.78 2.81683 58.5968 6.27823 58.5968H29.4051C29.4868 57.178 29.6416 55.78 29.8865 54.4114ZM48.1331 20.9274H10.4637V16.742H48.1331V20.9274ZM4.18549 10.4637V6.27823C4.18549 5.12304 5.12513 4.18549 6.27823 4.18549H52.3186C53.4717 4.18549 54.4114 5.12304 54.4114 6.27823V10.4637C54.4114 11.6189 53.4717 12.5565 52.3186 12.5565H6.27823C5.12513 12.5565 4.18549 11.6189 4.18549 10.4637Z" fill="#0F0238"/>
    <path d="M92.0807 83.5675V87.8953H121.379V66.9678H99.8637C99.6084 68.3909 99.2965 69.793 98.878 71.1533H117.194V83.7098H96.2662V77.396C95.0859 79.6038 93.6817 81.6673 92.0807 83.5675Z" fill="#0F0238"/>
    <path d="M92.0808 60.6896C92.0808 45.6888 79.8759 33.4839 64.8751 33.4839C49.8743 33.4839 37.6694 45.6888 37.6694 60.6896C37.6694 75.6904 49.8743 87.8952 64.8751 87.8952C79.8759 87.8952 92.0808 75.6904 92.0808 60.6896ZM41.8549 60.6896C41.8549 47.9971 52.1826 37.6694 64.8751 37.6694C77.5676 37.6694 87.8953 47.9971 87.8953 60.6896C87.8953 73.3821 77.5676 83.7098 64.8751 83.7098C52.1826 83.7098 41.8549 73.3821 41.8549 60.6896Z" fill="#0F0238"/>
    <path d="M8.37098 94.1735H37.6694V98.359H8.37098V94.1735Z" fill="#0F0238"/>
    <path d="M8.37098 102.544H37.6694V106.73H8.37098V102.544Z" fill="#0F0238"/>
    <path d="M33.4839 110.915H37.6694V115.101H33.4839V110.915Z" fill="#0F0238"/>
    <path d="M25.1129 110.915H29.2984V115.101H25.1129V110.915Z" fill="#0F0238"/>
    <path d="M8.37098 110.915H12.5565V115.101H8.37098V110.915Z" fill="#0F0238"/>
    <path d="M16.742 110.915H20.9274V115.101H16.742V110.915Z" fill="#0F0238"/>
    </svg>
    