<svg width="133" height="133" viewBox="0 0 133 133" fill="none" xmlns="http://www.w3.org/2000/svg">
    <path d="M14.2061 74.532L14.2487 74.5406C15.8619 77.6656 18.7198 79.9472 22.1445 80.8214C22.3448 81.3732 22.588 81.9084 22.8706 82.4246L34.3226 79.371V74.3499C34.3226 73.4919 33.8112 72.7161 33.0224 72.3783L31.0075 71.5148C23.9092 68.4725 19.3065 61.4927 19.3065 53.7693V53.629H15.0161C10.2772 53.629 6.43549 49.7873 6.43549 45.0484C6.43549 40.3095 10.2772 36.4677 15.0161 36.4677H19.3065C24.4795 36.4677 29.2155 33.593 31.6073 29.0222L31.6076 29.0216C31.6076 29.0216 31.6076 29.0222 31.6073 29.0222C33.1074 31.3848 35.5673 33.0998 38.4963 33.5879L42.9032 34.3226L40.7581 25.7419L44.0117 26.5552C47.2064 27.3538 50.558 26.0581 52.3846 23.3182C53.1619 22.152 54.471 21.4516 55.8726 21.4516C58.1878 21.4516 60.0645 23.3284 60.0645 25.6435V30.0323H62.3081C64.6233 30.0323 66.5 31.909 66.5 34.2242V36.4677H70.7903C75.5293 36.4677 79.371 40.3095 79.371 45.0484C79.371 49.7873 75.5293 53.629 70.7903 53.629H66.5V53.7693C66.5 61.4924 61.8973 68.4725 54.7987 71.5146L52.7838 72.378C51.9952 72.7161 51.4836 73.4916 51.4836 74.3497V79.371L62.9356 82.4249C63.2142 81.9162 63.4547 81.389 63.6528 80.8458C66.2437 80.2499 68.6832 79.1567 70.8501 77.6288C71.3778 69.7357 75.4622 62.817 81.5159 58.4618V38.6129C81.5161 17.3216 64.1945 0 42.9032 0C21.612 0 4.29033 17.3216 4.29033 38.6129V62.4371C4.29033 68.2963 8.46052 73.383 14.2061 74.532Z" fill="#7F83DD"/>
    <path d="M96.5323 98.6774C85.8866 98.6774 77.2258 90.0166 77.2258 79.371C77.2258 68.7253 85.8866 60.0645 96.5323 60.0645C107.178 60.0645 115.839 68.7253 115.839 79.371C115.839 90.0166 107.178 98.6774 96.5323 98.6774Z" fill="#7F83DD"/>
    <path d="M96.5322 51.4839C81.1552 51.4839 68.6452 63.9939 68.6452 79.371C68.6452 80.1867 68.6824 80.9938 68.7513 81.7918C68.3354 81.6569 67.9161 81.5328 67.4935 81.4201L53.629 77.7229V74.3502L55.6439 73.4868C62.9221 70.3675 67.8233 63.5496 68.5484 55.7745H70.7903C76.7045 55.7745 81.5161 50.9629 81.5161 45.0487C81.5161 39.1345 76.7045 34.3229 70.7903 34.3229H68.6452V34.2244C68.6452 30.73 65.8023 27.8871 62.3081 27.8871H62.2097V25.6435C62.2097 22.1493 59.3665 19.3065 55.8723 19.3065C53.7489 19.3065 51.7775 20.3613 50.5998 22.1281C49.2794 24.1087 46.8412 25.0512 44.5319 24.4742L37.8098 22.7937L40.0284 31.6688L38.8489 31.4722C34.9833 30.8279 32.1774 27.5157 32.1774 23.5968H27.8871C27.8871 25.5285 28.3325 27.3631 29.1308 28.9986C27.3685 31.7036 24.5951 33.5409 21.4516 34.1209V25.7419H17.1613V34.3226H15.0161C9.10192 34.3226 4.29032 39.1342 4.29032 45.0484C4.29032 50.9626 9.10192 55.7742 15.0161 55.7742H17.2581C17.9832 63.5493 22.8846 70.3672 30.1626 73.4868L32.1774 74.3502V77.7232L18.313 81.4204C7.53059 84.2955 0 94.0972 0 105.256V133H85.8064V105.256C85.8064 105.208 85.8038 105.159 85.8035 105.11C87.1823 105.687 88.6169 106.156 90.0968 106.507V128.71C90.0968 131.075 92.0215 133 94.3871 133H98.6774C101.043 133 102.968 131.075 102.968 128.71H107.258V124.419H102.968V120.129H111.548V115.839H102.968V106.507C115.252 103.594 124.419 92.5337 124.419 79.371C124.419 63.9939 111.909 51.4839 96.5322 51.4839ZM28.8143 90.4261C27.1272 88.6273 25.7763 86.4929 24.868 84.1123L29.0393 83C29.7209 84.6416 30.6761 86.1234 31.846 87.3944L28.8143 90.4261ZM35.1914 90.1166C36.8721 91.1214 38.759 91.7998 40.7581 92.0864V96.4097C37.5972 96.0576 34.6363 94.9376 32.0916 93.2166L35.1914 90.1166ZM45.0484 92.0861C47.0474 91.7995 48.9343 91.1211 50.6151 90.1163L53.7148 93.2161C51.1701 94.9371 48.2093 96.0574 45.0484 96.4094V92.0861ZM56.9921 90.4261L53.9605 87.3944C55.1301 86.1234 56.0855 84.6416 56.7671 83L60.9384 84.1123C60.0302 86.4929 58.6793 88.6273 56.9921 90.4261ZM70.7903 38.6129C74.3387 38.6129 77.2258 41.5 77.2258 45.0484C77.2258 48.5968 74.3387 51.4839 70.7903 51.4839H68.6452V38.6129H70.7903ZM8.58064 45.0484C8.58064 41.5 11.4678 38.6129 15.0161 38.6129H17.1613V51.4839H15.0161C11.4678 51.4839 8.58064 48.5968 8.58064 45.0484ZM31.8527 69.5432C25.5344 66.8352 21.4516 60.6437 21.4516 53.7693V38.4692C25.5497 37.9214 29.2498 35.8183 31.8144 32.6091C33.5222 34.189 35.6939 35.2954 38.1434 35.7038L45.778 36.9761L43.7055 28.6872C47.7036 29.5933 51.8866 27.9322 54.1693 24.5079C54.5498 23.9373 55.1864 23.5965 55.8726 23.5965C57.0012 23.5965 57.9193 24.5146 57.9193 25.6433V32.1774H62.3081C63.4367 32.1774 64.3548 33.0956 64.3548 34.2242V53.7693C64.3548 60.6434 60.2721 66.8352 53.9538 69.5429L51.9389 70.4063C50.3593 71.0834 49.3387 72.6311 49.3387 74.3499V81.019L52.5704 81.8808C50.8138 85.5378 47.0908 87.9516 42.9032 87.9516C38.7156 87.9516 34.9924 85.5378 33.2361 81.8808L36.4677 81.019V74.3499C36.4677 72.6314 35.4469 71.0834 33.8675 70.4063L31.8527 69.5432ZM81.5161 105.256V128.71H68.6452V107.258H64.3548V128.71H21.4516V107.258H17.1613V128.71H4.29032V105.256C4.29032 96.0381 10.5113 87.9406 19.4185 85.5654L20.7029 85.223C24.0438 94.5067 32.8842 100.823 42.9032 100.823C52.9222 100.823 61.7627 94.5067 65.1035 85.223L66.3879 85.5654C67.5021 85.8625 68.5894 86.2569 69.6341 86.7356C71.4612 93.4017 75.7051 99.0778 81.3622 102.759C81.4636 103.586 81.5161 104.423 81.5161 105.256ZM98.6774 128.71H94.3871V107.176C95.0953 107.23 95.8107 107.258 96.5322 107.258C97.2538 107.258 97.9692 107.23 98.6774 107.176V128.71ZM96.5322 102.968C83.521 102.968 72.9355 92.3822 72.9355 79.371C72.9355 66.3598 83.521 55.7742 96.5322 55.7742C109.543 55.7742 120.129 66.3598 120.129 79.371C120.129 92.3822 109.543 102.968 96.5322 102.968Z" fill="#0F0238"/>
    <path d="M38.6129 49.1365C38.6129 46.8825 40.4467 45.0484 42.7008 45.0484H43.1057C45.3597 45.0484 47.1935 46.8822 47.1935 49.1365C47.1935 50.899 46.0703 52.4575 44.3984 53.0147L40.7581 54.2281V64.3548H45.0484V57.3203L45.7552 57.0849C49.1816 55.9426 51.4839 52.7484 51.4839 49.1365C51.4839 44.5166 47.7253 40.7581 43.1057 40.7581H42.7008C38.0812 40.7581 34.3226 44.5166 34.3226 49.1365V49.3387H38.6129V49.1365Z" fill="#0F0238"/>
    <path d="M42.9032 72.9355C44.088 72.9355 45.0484 71.975 45.0484 70.7903C45.0484 69.6056 44.088 68.6451 42.9032 68.6451C41.7185 68.6451 40.7581 69.6056 40.7581 70.7903C40.7581 71.975 41.7185 72.9355 42.9032 72.9355Z" fill="#0F0238"/>
    <path d="M126.565 0H92.2419C88.6936 0 85.8064 2.88712 85.8064 6.43548V27.8871C85.8064 31.4355 88.6936 34.3226 92.2419 34.3226H102.968V38.1064C102.968 40.7514 105.119 42.9032 107.765 42.9032C109.593 42.9032 111.237 41.8872 112.055 40.2515L115.019 34.3226H126.565C130.113 34.3226 133 31.4355 133 27.8871V6.43548C133 2.88712 130.113 0 126.565 0ZM128.71 27.8871C128.71 29.0699 127.747 30.0323 126.565 30.0323H112.368L108.218 38.3327C108.131 38.5056 107.957 38.6129 107.765 38.6129C107.485 38.6129 107.258 38.3858 107.258 38.1064V30.0323H92.2419C91.0591 30.0323 90.0968 29.0699 90.0968 27.8871V6.43548C90.0968 5.2527 91.0591 4.29032 92.2419 4.29032H126.565C127.747 4.29032 128.71 5.2527 128.71 6.43548V27.8871Z" fill="#0F0238"/>
    </svg>
    