<svg width="137" height="137" viewBox="0 0 137 137" fill="none" xmlns="http://www.w3.org/2000/svg">
    <path d="M79.5484 121.532H57.4517V90.5968L68.5 83.9678L79.5484 90.5968V121.532Z" fill="#F7D330"/>
    <path d="M59.6613 77.3387V70.1001C56.8399 68.1224 54.6895 65.2513 53.6818 61.871H53.0323C47.8641 61.871 43.7318 57.4365 44.2356 52.1637C44.6726 47.5674 48.7963 44.1935 53.4121 44.1935H61.6563C63.4754 43.0822 65.0733 41.6019 66.2903 39.7742L63.3448 44.1935H70.495C72.3141 43.0822 73.912 41.6019 75.129 39.7742L72.1835 44.1935H79.3337C81.1528 43.0822 82.7507 41.6019 83.9678 39.7742V44.2291C88.427 44.4104 92.3382 47.698 92.7644 52.1637C93.2683 57.4365 89.1359 61.871 83.9678 61.871H83.3182C82.3105 65.2513 80.1602 68.1224 77.3387 70.1001V77.3387L95.0161 81.4182V39.7742C95.0161 25.1523 83.1219 13.2581 68.5 13.2581C53.8782 13.2581 41.9839 25.1523 41.9839 39.7742V81.4182L59.6613 77.3387Z" fill="#F7D330"/>
    <path d="M40.7151 79.4426C33.6555 81.0729 28.7258 87.2715 28.7258 94.5144V123.742H108.274V94.5144C108.274 87.2715 103.345 81.0729 96.285 79.4426L79.5484 75.5822V71.2286C81.9102 69.3308 83.7714 66.8384 84.914 63.9814C87.6686 63.7408 90.2699 62.5248 92.1462 60.4629C94.2339 58.1659 95.2632 55.065 94.9655 51.9544C94.5145 47.2146 90.8417 43.3779 86.1775 42.3086V37.5645H81.7581V39.0362C79.9746 41.4509 77.4337 43.1373 74.5702 43.831C75.4538 42.9808 76.2695 42.0454 76.9676 41.001L73.2905 38.5496C71.5006 41.2351 68.7913 43.093 65.7315 43.8332C66.6151 42.983 67.4308 42.0475 68.1289 41.0031L64.4518 38.5517C62.3457 41.712 58.9676 43.721 55.242 44.1137V37.5645H50.8226V42.3086C46.1583 43.3779 42.4878 47.2167 42.0346 51.9544C41.739 55.0628 42.7661 58.1659 44.8539 60.4629C46.728 62.5248 49.3315 63.7408 52.0861 63.9814C53.2265 66.8384 55.0877 69.3308 57.4516 71.2286V75.5822L40.7151 79.4426ZM59.1575 79.7232L64.5446 83.7649L59.0981 87.033L57.9264 80.008L59.1575 79.7232ZM77.8426 79.7232L79.3984 80.0814L77.9969 87.088L72.4554 83.7627L77.8426 79.7232ZM33.1452 94.5144C33.1452 89.3398 36.6679 84.914 41.7098 83.7487L53.6138 81.0028L55.8052 94.1605L66.2904 87.8703V119.323H48.5158C48.2968 117.045 47.5545 114.857 46.2749 112.934C44.9143 110.895 44.1936 108.517 44.1936 106.065C44.1936 103.612 44.9143 101.234 46.2727 99.1949L48.6129 95.6862V90.5968H44.1936V94.3461L42.5957 96.7414C40.7507 99.5132 39.7742 102.737 39.7742 106.065C39.7742 109.392 40.7507 112.616 42.5957 115.388C43.3919 116.58 43.8958 117.922 44.0943 119.323H33.1452V94.5144ZM103.855 94.5144V119.323H92.9036C93.1021 117.92 93.6081 116.578 94.4022 115.388C96.2494 112.616 97.2258 109.392 97.2258 106.065C97.2258 102.737 96.2494 99.5132 94.4044 96.7414L92.8065 94.3461V90.5968H88.3871V95.6862L90.7274 99.1949C92.0858 101.234 92.8065 103.612 92.8065 106.065C92.8065 108.517 92.0858 110.895 90.7274 112.934C89.4477 114.855 88.7054 117.045 88.4864 119.323H70.7097V87.8703L81.0999 94.1033L83.7045 81.0751L95.2902 83.7487C100.332 84.914 103.855 89.3398 103.855 94.5144ZM90.5634 52.3741C90.7446 54.2741 90.1458 56.0921 88.8737 57.4915C88.1088 58.331 87.1366 58.919 86.0825 59.2772C86.144 58.6762 86.1775 58.0677 86.1775 57.4516V46.878C88.5554 47.78 90.3249 49.872 90.5634 52.3741ZM48.1263 57.4915C46.8542 56.0921 46.2554 54.2741 46.4367 52.3741C46.6751 49.8742 48.4446 47.78 50.8226 46.8801V57.4516C50.8226 58.0677 50.8561 58.6762 50.9176 59.2772C49.8613 58.919 48.8891 58.331 48.1263 57.4915ZM55.242 57.4516V48.5309C57.5865 48.3475 59.8383 47.7131 61.871 46.6417V48.6129H62.7439C65.5696 48.6129 68.2918 47.9148 70.7097 46.6395V48.6129H71.5826C75.3125 48.6129 78.8547 47.3883 81.7581 45.2326V57.4516C81.7581 64.7636 75.812 70.7097 68.5 70.7097C61.188 70.7097 55.242 64.7636 55.242 57.4516ZM68.5 75.129C70.8446 75.129 73.0812 74.6608 75.1291 73.8278V76.2339L68.5 81.2056L61.871 76.2339V73.8278C63.9188 74.6608 66.1555 75.129 68.5 75.129Z" fill="black"/>
    <path d="M75.129 97.2258H79.5484V101.645H75.129V97.2258Z" fill="black"/>
    <path d="M57.4517 97.2258H61.871V101.645H57.4517V97.2258Z" fill="black"/>
    <path d="M13.2581 4.41935H33.1452V0H8.83875V24.3065H13.2581V4.41935Z" fill="black"/>
    <path d="M103.855 4.41935H123.742V24.3065H128.161V0H103.855V4.41935Z" fill="black"/>
    <path d="M13.2581 112.694H8.83875V137H33.1452V132.581H13.2581V112.694Z" fill="black"/>
    <path d="M123.742 132.581H103.855V137H128.161V112.694H123.742V132.581Z" fill="black"/>
    <path d="M15.4678 28.7258H19.8871V33.1452H15.4678V28.7258Z" fill="black"/>
    <path d="M15.4678 64.0806H19.8871V68.5H15.4678V64.0806Z" fill="black"/>
    <path d="M15.4678 57.4516V59.6613H19.8871V57.4516C19.8871 53.7972 22.8618 50.8226 26.5162 50.8226V46.4032C22.8618 46.4032 19.8871 43.4286 19.8871 39.7742V37.5645H15.4678V39.7742C15.4678 43.4286 12.4931 46.4032 8.83875 46.4032V50.8226C12.4931 50.8226 15.4678 53.7972 15.4678 57.4516ZM17.6775 46.3353C18.3227 47.2027 19.0876 47.9677 19.9551 48.6129C19.0876 49.2581 18.3227 50.0231 17.6775 50.8906C17.0322 50.0231 16.2673 49.2581 15.3998 48.6129C16.2673 47.9677 17.0322 47.2027 17.6775 46.3353Z" fill="black"/>
    <path d="M30.9355 46.4032H35.3549V50.8226H30.9355V46.4032Z" fill="black"/>
    <path d="M0 46.4032H4.41936V50.8226H0V46.4032Z" fill="black"/>
    <path d="M117.113 55.2419H121.532V59.6613H117.113V55.2419Z" fill="black"/>
    <path d="M117.113 90.5968H121.532V95.0162H117.113V90.5968Z" fill="black"/>
    <path d="M121.532 66.2903V64.0806H117.113V66.2903C117.113 69.9447 114.138 72.9193 110.484 72.9193V77.3387C114.138 77.3387 117.113 80.3133 117.113 83.9677V86.1774H121.532V83.9677C121.532 80.3133 124.507 77.3387 128.161 77.3387V72.9193C124.507 72.9193 121.532 69.9447 121.532 66.2903ZM119.323 77.4067C118.677 76.5392 117.912 75.7742 117.045 75.129C117.912 74.4838 118.677 73.7188 119.323 72.8514C119.968 73.7188 120.733 74.4838 121.6 75.129C120.733 75.7742 119.968 76.5392 119.323 77.4067Z" fill="black"/>
    <path d="M132.581 72.9194H137V77.3387H132.581V72.9194Z" fill="black"/>
    <path d="M101.645 72.9194H106.064V77.3387H101.645V72.9194Z" fill="black"/>
    </svg>
    