<svg width="132" height="144" viewBox="0 0 132 144" fill="none" xmlns="http://www.w3.org/2000/svg">
    <path d="M65.9311 0C45.4413 0 28.7698 16.6715 28.7698 37.1613V53.4194H31.0924C31.0924 48.2888 35.2521 44.129 40.3827 44.129V48.7742H42.5404C50.0818 48.7742 57.3143 45.7781 62.6469 40.4454C63.2624 39.8299 64.0985 39.4839 64.9695 39.4839C66.7835 39.4839 68.2536 40.9541 68.2536 42.768V43.3533C68.2536 43.8643 68.1352 44.3659 67.9076 44.8212L65.9311 48.7742C73.3656 48.7742 80.4983 45.8199 85.7566 40.5615L85.8727 40.4454C86.4882 39.8299 87.3244 39.4839 88.1953 39.4839C90.0093 39.4839 91.4795 40.9541 91.4795 42.768V44.129C96.61 44.129 100.77 48.2888 100.77 53.4194H103.092V37.1613C103.092 16.6715 86.4209 0 65.9311 0Z" fill="#F7D330"/>
    <path d="M84.5117 144H47.3504C43.5089 144 40.3827 140.874 40.3827 137.032V118.452C40.3827 114.61 43.5089 111.484 47.3504 111.484H84.5117C88.3533 111.484 91.4795 114.61 91.4795 118.452V137.032C91.4795 140.874 88.3533 144 84.5117 144ZM47.3504 116.129C46.0707 116.129 45.0279 117.17 45.0279 118.452V137.032C45.0279 138.314 46.0707 139.355 47.3504 139.355H84.5117C85.7915 139.355 86.8343 138.314 86.8343 137.032V118.452C86.8343 117.17 85.7915 116.129 84.5117 116.129H47.3504Z" fill="#0F0238"/>
    <path d="M79.9362 114.369L78.0526 106.839H53.8095L51.9259 114.369L47.4201 113.244L50.1817 102.194H81.6805L84.442 113.244L79.9362 114.369Z" fill="#0F0238"/>
    <path d="M65.9311 88.2581C52.0885 88.2581 40.5685 78.1131 38.4201 64.8674C32.9481 63.9314 28.7698 59.1538 28.7698 53.4194C28.7698 47.016 33.9793 41.8065 40.3827 41.8065H42.7053V46.4516C49.6196 46.4075 56.1112 43.6947 61.0049 38.8034C62.05 37.7605 63.4947 37.1613 64.9695 37.1613C68.0609 37.1613 70.5762 39.6767 70.5762 42.768V43.3533C70.5762 44.2196 70.3718 45.086 69.984 45.8617L69.8353 46.159C75.2214 45.3438 80.1894 42.8447 84.1122 38.9218C85.2735 37.7605 86.7205 37.1613 88.193 37.1613C91.2867 37.1613 93.802 39.6767 93.802 42.768V60.3871C93.802 75.7556 81.2996 88.2581 65.9311 88.2581ZM42.7053 51.0968V60.3871C42.7053 73.1938 53.1244 83.6129 65.9311 83.6129C78.7378 83.6129 89.1569 73.1938 89.1569 60.3871V42.768C89.1569 41.9853 88.0745 41.5278 87.5125 42.0898C81.6642 47.9404 74.0415 51.0968 65.9311 51.0968H62.1731L65.8289 43.7853C65.8962 43.6506 65.9311 43.502 65.9311 43.3533V42.768C65.9311 41.9853 64.8464 41.5278 64.2867 42.0898C58.5197 47.8568 50.8598 51.0527 42.7053 51.0968ZM38.0601 46.8488C35.3566 47.808 33.4149 50.3907 33.4149 53.4194C33.4149 56.448 35.3566 59.0307 38.0601 59.99V46.8488Z" fill="#0F0238"/>
    <path d="M91.4795 65.0323V60.3871C95.321 60.3871 98.4472 57.2609 98.4472 53.4194C98.4472 49.5778 95.321 46.4516 91.4795 46.4516V41.8065C97.8828 41.8065 103.092 47.016 103.092 53.4194C103.092 59.8227 97.8828 65.0323 91.4795 65.0323Z" fill="#0F0238"/>
    <path d="M131.862 134.71H96.1247V130.065H125.419L118.282 108.655C116.417 103.058 111.653 98.9048 105.854 97.8155L77.544 92.5084V81.9012H82.1892V88.6529L106.711 93.2516C114.166 94.6498 120.291 99.9871 122.69 107.185L131.862 134.71Z" fill="#0F0238"/>
    <path d="M35.7375 134.71H0L9.17419 107.185C11.5734 99.9871 17.6957 94.6498 25.1535 93.2516L49.673 88.6529V81.9731H54.3182V92.5084L26.0083 97.8155C20.2088 98.9048 15.4475 103.058 13.5801 108.655L6.44284 130.065H35.7375V134.71Z" fill="#0F0238"/>
    <path d="M64.2868 106.156L67.5714 102.871L53.6367 88.9368L50.3521 92.2214L64.2868 106.156Z" fill="#0F0238"/>
    <path d="M103.158 132.952L107.664 131.826L103.02 113.247L98.5143 114.374L103.158 132.952Z" fill="#0F0238"/>
    <path d="M28.6978 132.963L33.3363 114.382L28.8296 113.257L24.1911 131.837L28.6978 132.963Z" fill="#0F0238"/>
    <path d="M86.7796 114.31L91.4221 93.4057L86.8875 92.3986L82.245 113.303L86.7796 114.31Z" fill="#0F0238"/>
    <path d="M45.0792 114.314L49.6138 113.306L44.9691 92.4015L40.4345 93.409L45.0792 114.314Z" fill="#0F0238"/>
    <path d="M65.9311 139.355C72.3447 139.355 77.544 134.156 77.544 127.742C77.544 121.328 72.3447 116.129 65.9311 116.129C59.5175 116.129 54.3182 121.328 54.3182 127.742C54.3182 134.156 59.5175 139.355 65.9311 139.355Z" fill="#F7D330"/>
    <path d="M65.9311 134.71C62.0895 134.71 58.9633 131.583 58.9633 127.742C58.9633 123.9 62.0895 120.774 65.9311 120.774C69.7726 120.774 72.8988 123.9 72.8988 127.742C72.8988 131.583 69.7726 134.71 65.9311 134.71ZM65.9311 125.419C64.6513 125.419 63.6085 126.46 63.6085 127.742C63.6085 129.024 64.6513 130.064 65.9311 130.064C67.2108 130.064 68.2536 129.024 68.2536 127.742C68.2536 126.46 67.2108 125.419 65.9311 125.419Z" fill="#0F0238"/>
    <path d="M67.583 106.152L81.5177 92.2169L78.2331 88.9323L64.2984 102.867L67.583 106.152Z" fill="#0F0238"/>
    </svg>
    