<svg width="285" height="71" viewBox="0 0 285 71" fill="none" xmlns="http://www.w3.org/2000/svg">
    <path d="M249 23.1481C249 20.867 250.544 18.8751 252.753 18.3061L278.753 11.6091C281.917 10.7941 285 13.1835 285 16.4511V54.5489C285 57.8165 281.917 60.2059 278.753 59.3909L252.753 52.6939C250.544 52.1249 249 50.133 249 47.852V23.1481Z" fill="#FFE6CC"/>
    <path d="M230 19.987C230 17.6963 231.557 15.6985 233.778 15.1386L267.778 6.56838C270.936 5.77233 274 8.15986 274 11.4167V59.5833C274 62.8401 270.936 65.2277 267.778 64.4316L233.778 55.8614C231.557 55.3015 230 53.3037 230 51.013V19.987Z" fill="#A5A8E7" fill-opacity="0.75"/>
    <path d="M19.8634 29.8C19.8634 27.4976 19.0049 25.2341 17.6 23.9854C16.0781 22.6585 14.0488 22.2293 10.3024 22.2293H3.31707C2.57561 22.2293 2.53659 22.2683 2.53659 23.0098V48.1805C2.53659 48.922 2.57561 49 3.31707 49H8.19512C8.85854 49 9.01463 48.922 9.01463 48.1805V38.6585H10.5756C16.1951 38.6585 19.8634 35.1463 19.8634 29.8ZM13.8927 30.1512C13.8927 32.6878 12.878 33.5854 9.95122 33.5854H9.01463V26.9512H10.2634C12.839 26.9512 13.8927 27.7707 13.8927 30.1512ZM42.0845 48.1805V23.0098C42.0845 22.3463 42.0064 22.2293 41.2649 22.2293H36.4259C35.6845 22.2293 35.6064 22.3463 35.6064 23.0098V32.6488H29.4796V23.0098C29.4796 22.3463 29.3235 22.2293 28.6601 22.2293H23.821C23.0796 22.2293 23.0015 22.3463 23.0015 23.0098V48.1805C23.0015 48.922 23.0796 49 23.821 49H28.6601C29.3235 49 29.4796 48.922 29.4796 48.1805V37.8H35.6064V48.1805C35.6064 48.922 35.6845 49 36.4259 49H41.2649C42.0064 49 42.0845 48.922 42.0845 48.1805ZM66.5582 35.2244C66.5582 26.4049 63.2802 21.5659 56.3729 21.5659C48.0216 21.5659 46.1095 28.9805 46.1095 35.2244C46.1095 44.6683 49.2704 49.6634 56.2168 49.6634C63.2412 49.6634 66.5582 44.5512 66.5582 35.2244ZM59.9241 35.5756C59.9241 42.1317 58.5582 44.7463 56.3729 44.7463C54.1875 44.7463 52.7436 42.2098 52.7436 35.7317C52.7436 29.2537 54.2265 26.4829 56.3729 26.4829C58.5973 26.4829 59.9241 28.9805 59.9241 35.5756ZM86.0799 23.1268C86.1189 22.8927 86.1579 22.7366 86.1579 22.6195C86.1579 22.3463 86.0018 22.2293 85.4555 22.2293H68.1287C67.3872 22.2293 67.3092 22.3463 67.3092 23.0098V26.9902C67.3092 27.7317 67.3872 27.8098 68.1287 27.8098H73.1238V48.1805C73.1238 48.922 73.1628 49 73.9043 49H78.8213C79.5628 49 79.6018 48.922 79.6018 48.1805V27.8098H84.4018C84.9872 27.8098 85.1043 27.6927 85.2213 27.1463L86.0799 23.1268ZM107.031 35.2244C107.031 26.4049 103.753 21.5659 96.8454 21.5659C88.4942 21.5659 86.582 28.9805 86.582 35.2244C86.582 44.6683 89.743 49.6634 96.6893 49.6634C103.714 49.6634 107.031 44.5512 107.031 35.2244ZM100.397 35.5756C100.397 42.1317 99.0308 44.7463 96.8454 44.7463C94.6601 44.7463 93.2162 42.2098 93.2162 35.7317C93.2162 29.2537 94.6991 26.4829 96.8454 26.4829C99.0698 26.4829 100.397 28.9805 100.397 35.5756ZM123.157 41.1171V37.0976C123.157 36.4341 123.079 36.278 122.338 36.278H111.216C110.474 36.278 110.435 36.4341 110.435 37.0976V41.1171C110.435 41.8585 110.474 41.9366 111.216 41.9366H122.338C123.079 41.9366 123.157 41.8585 123.157 41.1171ZM145.473 23.439C145.552 23.2049 145.591 23.0488 145.591 22.8927C145.591 22.6585 145.434 22.5024 144.927 22.4634L139.581 22.0341C139.23 22.0341 139.073 22.1122 138.956 22.6585L135.756 36.9415C135.444 38.3073 135.21 39.7122 134.742 42.522C134.43 40.2976 134.156 38.4634 133.844 36.9415L130.839 22.5024C130.761 22.0341 130.566 21.839 130.176 21.839C130.098 21.839 130.02 21.878 129.903 21.878L124.673 22.5805C124.166 22.6585 123.971 22.8146 123.971 23.0878C123.971 23.2049 124.01 23.361 124.088 23.5561L131.113 48.8829C131.269 49.4683 131.308 49.5073 131.932 49.5073H137.317C137.942 49.5073 138.059 49.4293 138.215 48.8829L145.473 23.439ZM158.033 48.1805V45.0195C158.033 44.3561 157.955 44.239 157.213 44.239H155.457V26.9902H157.213C157.955 26.9902 158.033 26.9512 158.033 26.2098V23.0098C158.033 22.3463 157.955 22.2293 157.213 22.2293H147.262C146.52 22.2293 146.481 22.3463 146.481 23.0098V26.2098C146.481 26.9512 146.52 26.9902 147.262 26.9902H148.979V44.239H147.262C146.52 44.239 146.481 44.278 146.481 45.0195V48.1805C146.481 48.922 146.52 49 147.262 49H157.213C157.955 49 158.033 48.922 158.033 48.1805ZM178.035 41.1561C178.035 37.4488 176.318 35.2634 172.923 33.5854L169.957 32.1024C167.498 30.8537 166.757 30.3854 166.757 29.1366C166.757 27.8098 167.733 26.8732 169.762 26.8732C171.635 26.8732 173.664 27.8098 175.264 28.5902C175.381 28.6293 175.498 28.6683 175.577 28.6683C175.733 28.6683 175.85 28.5902 175.928 28.3951L177.489 24.6488C177.528 24.5707 177.528 24.4927 177.528 24.4146C177.528 22.9317 172.377 21.7219 169.567 21.7219C164.064 21.7219 160.513 24.6488 160.513 29.4488C160.513 33.3122 162.503 35.1073 166.835 37.1756C171.128 39.2439 171.869 39.7512 171.869 41.6244C171.869 43.2244 170.816 44.2 168.903 44.2C167.147 44.2 164.572 43.4585 162.386 42.2098C162.269 42.1317 162.113 42.0927 161.996 42.0927C161.84 42.0927 161.723 42.1707 161.645 42.4049L160.357 46.5805C160.318 46.7366 160.279 46.8146 160.279 46.9317C160.279 48.2585 166.406 49.5073 168.903 49.5073C174.367 49.5073 178.035 46.1902 178.035 41.1561ZM202.602 48.0634L194.641 22.8927C194.446 22.2683 194.407 22.2293 193.783 22.2293H188.827C188.202 22.2293 188.163 22.3073 187.968 22.8927L180.007 48.1415C179.929 48.3366 179.89 48.4537 179.89 48.6098C179.89 48.8439 180.046 49 180.631 49H185.705C186.329 49 186.407 48.961 186.563 48.3366L188.163 42.3268H194.017L195.617 48.3366C195.773 48.961 195.851 49 196.475 49H201.939C202.485 49 202.68 48.8439 202.68 48.5317C202.68 48.4146 202.641 48.2585 202.602 48.0634ZM192.963 37.878H188.866L190.153 32.2585C190.466 30.8537 190.778 29.2146 191.012 27.4195C191.324 29.4098 191.48 30.8537 191.792 32.2585L192.963 37.878Z" fill="#0F0238"/>
    <path d="M211 16.8196C211 14.5222 212.566 12.5204 214.795 11.9669L256.795 1.54033C259.949 0.757407 263 3.14357 263 6.39303V64.607C263 67.8564 259.949 70.2426 256.795 69.4597L214.795 59.0331C212.566 58.4796 211 56.4778 211 54.1804V16.8196Z" fill="#F7D330" fill-opacity="0.75"/>
    </svg>
    