<svg width="720" height="746" viewBox="0 0 720 746" fill="none" xmlns="http://www.w3.org/2000/svg">
<path opacity="0.05" d="M3.01464 380.22C4.52187 399.304 6.02897 418.387 8.54102 437.471C10.0482 447.786 12.5602 458.102 15.0723 467.902C16.5795 473.575 20.0964 475.122 25.1205 473.575C36.6759 469.965 48.7337 466.87 60.2891 463.26C65.8156 461.712 71.3422 459.649 76.3662 458.102C83.4 481.312 91.941 503.49 103.496 524.12C98.4724 527.215 93.4483 530.31 88.4242 533.404C85.9121 529.278 83.4 525.152 81.3903 520.51C76.8686 510.71 72.8494 501.427 68.8301 491.627C66.3181 485.438 63.3035 484.406 57.777 486.469C49.2361 489.564 40.6953 492.658 32.1543 495.753C26.6278 497.816 24.6182 501.942 27.1302 508.132C32.1543 519.994 37.1783 531.857 42.7048 543.204C46.2216 550.941 50.2408 558.677 54.2601 565.382C61.2938 576.729 69.3324 587.561 76.8685 598.392C79.883 602.518 83.3999 603.034 87.9216 599.939C92.9457 595.813 98.4724 591.687 103.496 587.045C105.506 585.497 107.515 583.434 109.525 581.887C113.042 578.792 116.559 576.213 120.578 573.119C124.095 570.54 127.612 567.445 131.129 564.867C145.699 583.95 162.278 600.455 180.365 615.412C176.848 620.57 173.331 625.212 169.312 630.885C157.757 620.054 147.206 609.223 136.153 598.907C132.134 595.297 128.617 594.781 124.597 598.392C117.564 605.097 111.032 611.802 103.999 618.507C99.9795 622.633 99.4772 625.728 103.496 630.37C110.53 638.106 118.066 645.843 125.602 653.063C132.134 659.253 139.67 664.926 146.704 670.084C155.244 676.789 163.785 682.978 172.829 689.167C175.843 691.746 179.36 693.809 182.877 695.872C187.399 698.451 191.418 697.42 193.93 692.778C196.442 688.652 198.954 684.526 200.964 679.884C204.983 672.663 208.5 664.926 212.519 657.705C215.031 653.063 217.543 647.906 220.055 643.264C240.654 654.611 261.755 664.41 284.364 670.084C282.856 675.757 281.349 681.431 279.34 687.62C272.306 685.557 265.272 683.494 258.741 681.431C251.205 678.852 243.668 675.242 236.132 672.147C231.611 670.084 228.596 671.631 226.587 675.757C222.065 685.557 217.543 695.357 213.524 704.641C212.017 707.735 212.519 710.83 215.534 712.377C221.563 715.472 227.591 719.598 234.123 721.661C253.717 727.85 273.813 734.039 293.407 739.713C300.441 741.776 307.977 742.292 315.011 742.808C320.537 743.324 324.054 741.26 324.556 737.134C325.561 725.271 327.068 712.893 328.073 701.03C328.575 694.325 329.58 687.104 330.083 679.884C353.696 682.462 376.304 682.463 399.415 679.368C400.42 685.557 400.923 691.231 401.425 697.42C399.415 697.42 398.41 697.936 396.903 697.936C383.338 698.451 369.773 698.967 356.208 699.483C351.184 699.483 348.672 702.578 348.169 707.735C347.667 717.535 347.165 727.85 346.662 737.65C346.662 741.776 348.169 744.355 351.686 745.387C353.194 745.902 355.203 745.902 356.71 745.902C376.807 746.418 396.401 744.871 415.995 741.776C429.057 739.713 441.618 736.619 454.68 733.524C460.207 731.977 462.217 728.366 460.207 722.693C455.685 705.672 450.661 688.652 446.139 671.631C446.139 670.6 445.637 670.084 445.637 669.052C467.743 661.316 488.844 653.064 508.94 640.685C511.955 645.843 514.969 651 517.984 656.674C510.95 660.284 504.419 664.41 497.385 668.021C490.351 671.631 483.317 674.21 476.284 677.82C472.264 679.883 471.26 682.978 472.767 687.62C475.782 696.904 479.298 706.188 482.313 715.472C484.322 721.145 488.342 723.209 493.366 720.63C505.424 714.956 517.481 709.283 529.539 703.093C532.554 701.546 535.568 699.483 538.08 697.936C547.124 692.262 556.167 687.104 564.708 680.915C570.737 676.789 575.761 672.147 581.287 668.021C584.302 665.442 584.804 660.8 582.795 657.705C579.78 653.063 576.263 648.937 572.746 644.811C566.215 636.559 559.181 627.791 552.65 619.538C551.143 617.991 550.138 616.444 549.133 614.381C548.631 613.349 549.133 611.802 549.636 611.286C554.66 606.644 559.684 602.002 564.708 597.36C572.746 589.108 580.785 580.34 588.823 571.572C591.336 568.477 593.848 565.382 596.36 561.772C601.384 565.382 605.905 568.993 610.427 572.603C607.915 576.214 605.403 579.824 602.389 582.919C594.852 591.687 586.814 599.939 579.278 608.707C576.263 612.318 575.761 615.412 579.278 619.023C585.809 626.243 592.843 633.98 599.374 641.201C603.393 645.327 606.408 645.327 610.427 641.716C613.944 638.106 617.963 634.496 620.978 630.37C627.509 623.149 634.543 615.928 640.572 607.676C648.61 596.844 656.146 585.497 663.683 574.15C666.697 569.508 669.711 565.382 672.223 560.224C675.238 554.551 674.233 549.909 668.707 546.815C656.146 539.594 643.586 532.373 631.528 525.152C628.514 523.605 625.499 522.057 621.982 520.51C633.035 498.848 642.079 476.67 647.605 452.944C653.634 454.491 659.161 456.554 664.687 458.102C662.175 466.354 660.166 474.091 657.654 481.827C655.142 489.048 652.127 495.753 649.615 502.458C647.605 507.616 648.61 510.71 653.132 512.773C661.673 516.9 670.716 521.026 679.257 525.668C684.281 528.247 687.798 526.184 690.31 521.026C692.822 515.352 695.334 510.195 697.344 504.006C702.87 485.954 708.397 467.386 712.919 448.818C715.431 439.534 715.933 429.734 716.938 420.451C717.943 413.745 715.431 410.651 708.899 410.135C699.354 409.104 690.31 408.588 680.764 407.556C672.726 406.525 664.687 405.493 656.649 404.977C657.151 393.115 657.654 381.252 657.654 369.905C657.654 358.558 656.649 346.695 656.146 334.832C661.673 334.317 667.199 333.285 672.726 332.769C672.726 334.317 673.228 335.348 673.228 336.38C673.731 349.79 674.233 363.2 674.735 376.61C674.735 381.768 677.248 385.378 681.769 385.378C691.817 385.894 701.363 386.41 711.411 386.925C716.436 386.925 719.45 384.347 719.952 379.189C719.952 378.157 719.952 376.61 719.952 375.578C720.455 348.242 716.938 321.422 712.416 294.602C711.411 288.413 709.402 282.224 707.894 276.035C706.387 271.393 703.373 269.329 699.856 270.361C686.291 274.487 672.726 278.098 659.161 282.224C654.639 283.771 650.118 284.803 646.098 286.35C639.065 263.14 630.523 240.962 618.968 220.331C623.992 217.237 629.016 214.142 634.04 211.047C637.055 216.205 640.069 220.847 642.079 226.52C646.098 235.288 649.615 244.057 653.132 253.34C655.644 259.014 658.156 260.561 664.185 258.498C672.726 255.404 681.769 252.309 690.31 249.214C695.837 247.151 697.846 243.025 695.334 237.867C691.817 229.099 688.3 220.331 684.281 211.563C680.262 202.279 675.74 192.995 670.214 184.743C662.175 171.333 653.132 158.954 644.591 146.06C642.581 142.45 638.06 142.45 635.045 144.513C632.031 147.092 629.016 149.67 625.499 152.249C615.953 159.986 606.91 168.238 597.364 175.975C595.355 177.522 593.345 178.553 591.336 180.101C576.766 161.533 560.688 144.513 542.602 130.071C546.119 124.913 549.636 120.271 553.153 115.629C556.167 117.692 558.679 119.756 561.191 121.819C570.234 130.071 578.775 138.839 587.316 147.607C590.331 150.702 594.852 151.218 597.867 148.123C604.901 141.418 611.432 134.713 618.466 128.008C622.987 123.366 623.49 120.271 618.968 115.114C614.949 110.472 610.427 106.346 605.905 101.704C602.891 98.6091 600.379 95.5144 597.364 92.9356C590.331 87.2621 583.799 81.5887 576.766 75.9152C568.225 69.2102 559.181 63.0207 550.138 56.3156C547.123 54.2525 544.109 51.6739 540.592 50.1266C535.568 47.032 531.549 48.579 529.037 53.7368C524.013 63.5364 518.486 73.3363 513.462 82.6202C509.945 89.3252 506.429 96.03 502.912 102.735C482.313 91.3881 461.211 81.5887 438.603 75.9152C440.11 70.2417 442.12 64.0523 443.627 58.3788C450.661 60.4419 457.695 61.9893 464.226 64.5682C471.762 67.147 478.796 70.7574 485.83 73.852C491.356 76.4308 494.371 74.8836 496.883 69.7259C500.902 60.9578 504.419 52.7054 508.438 43.9373C511.452 37.2323 510.448 34.1376 503.916 31.043C498.39 28.4642 493.366 25.8852 487.839 23.8221C470.255 18.1486 452.671 12.4752 435.086 7.83329C426.545 5.25443 417 4.73872 407.956 3.70718C402.932 3.19141 398.913 5.25437 398.913 9.38054C397.908 20.2117 396.903 30.5272 395.898 41.3584C394.893 49.6108 394.391 57.8629 393.889 66.6311C370.276 64.0522 347.667 64.0524 324.054 67.147C323.049 60.9578 322.547 55.2843 322.044 49.095C323.552 49.095 324.054 48.5791 324.556 48.5791C338.121 48.0633 352.189 47.0319 365.754 46.5162C371.783 46.5162 374.295 43.9372 374.797 37.748C375.3 27.9483 375.802 17.6329 376.305 7.83329C376.305 4.22289 374.797 2.15986 371.783 1.12832C369.773 0.0967783 367.261 0.0967153 365.251 0.0967153C345.155 -0.419056 325.561 1.12807 305.967 4.73847C293.407 6.80156 280.847 9.89637 267.784 12.991C261.755 14.5383 260.248 18.1486 261.755 23.8221C266.277 40.3268 271.301 57.3473 275.823 73.852C276.325 74.8835 276.325 75.9149 276.325 76.9465C254.219 84.6831 233.118 92.9354 213.022 105.314C210.007 100.156 206.993 94.9986 203.978 89.3251C211.012 85.7147 218.045 81.5885 225.079 77.9781C232.113 74.3677 239.147 71.789 246.18 68.1786C250.2 66.1155 251.205 63.0207 249.697 58.8945C246.683 49.6106 243.166 40.3269 240.151 31.043C238.142 25.8853 234.123 23.8222 229.099 25.8853C218.046 31.043 206.993 36.2007 196.442 41.3584C192.423 43.4215 188.404 46.0002 183.882 48.5791C174.839 54.2525 166.297 59.4103 157.254 65.0838C151.225 69.21 145.699 73.8519 140.172 77.9781C137.158 80.5569 136.655 85.1989 138.665 88.2935C141.177 91.9039 144.191 95.5145 147.206 99.1249C154.742 108.925 162.781 118.724 170.819 128.524C171.321 129.555 172.326 130.587 172.829 131.618C172.829 132.65 172.829 134.197 172.326 134.713C167.302 139.355 162.278 143.997 157.254 148.639C149.215 156.891 141.177 165.659 133.138 174.427C130.626 177.522 128.114 180.617 125.602 184.227C121.081 180.617 116.559 177.006 111.535 173.396C114.047 169.785 116.057 166.691 118.569 163.596C126.105 154.828 134.143 146.06 142.182 137.292C145.699 133.166 145.699 130.587 142.182 126.461C135.65 119.24 129.119 112.019 122.085 104.798C118.066 100.672 115.052 100.156 111.033 104.283C107.013 107.893 103.496 112.019 99.4769 116.145C95.9601 119.756 92.4432 122.85 89.4288 126.461C83.9023 133.682 78.376 140.902 73.3519 148.123C66.8206 156.891 60.7916 166.175 54.7627 175.459C52.2507 179.069 50.2411 182.164 48.2315 185.774C45.7194 190.416 46.2216 195.574 49.236 197.637C54.2601 200.732 59.7868 203.826 64.8109 206.921C72.347 211.047 79.8832 215.173 87.4193 219.3C90.9362 221.363 94.9555 223.426 98.4724 225.489C87.4194 247.151 78.3758 269.329 72.8493 293.055C66.8204 291.508 61.2941 289.444 55.7676 287.897C57.7772 280.161 59.7868 272.424 62.2988 265.203C64.8109 257.982 67.8254 250.762 70.8399 243.541C72.8495 238.383 71.8444 235.289 66.8203 233.226C58.2794 229.099 49.7386 224.973 41.1976 220.847C35.1687 218.268 32.1543 219.3 29.6423 225.489C20.5989 245.088 15.0723 265.719 10.0482 286.866C7.03373 299.244 5.52656 312.139 3.51692 325.033C2.51211 331.738 5.52644 334.832 11.5553 335.348C23.1108 336.38 35.1686 337.411 46.724 338.443C52.2505 338.959 57.7771 339.99 63.806 340.506C61.294 364.231 61.7963 386.925 64.3083 410.651C58.2794 411.167 52.7531 412.198 47.2266 412.714C47.2266 411.682 47.2264 410.651 46.724 410.135C46.2216 396.209 45.2169 382.799 44.7145 368.873C44.7145 362.684 42.2024 360.105 36.1735 359.59C27.1302 359.074 17.5844 358.558 8.54102 358.558C3.01452 358.558 0 361.137 0 366.81C3.01445 370.936 3.01464 375.578 3.01464 380.22ZM16.0772 372.999C22.1061 372.999 28.1349 372.999 35.1686 372.999C35.1686 374.031 35.1686 375.578 35.1686 377.126C36.1735 391.567 36.6759 406.009 37.6807 419.935C38.1831 426.64 41.7001 429.219 48.2315 428.187C56.7724 426.64 65.3132 425.092 73.8542 423.545C78.8783 422.513 81.3903 419.935 80.3855 414.261C77.8734 396.725 76.8686 379.189 77.8734 361.652C78.3758 352.884 78.8783 344.632 79.8832 336.38C80.3856 330.191 78.3759 327.096 72.347 326.064C55.2651 323.486 38.6854 320.907 21.6035 318.328C21.1011 318.328 20.5988 317.812 20.0964 317.812C20.0964 302.855 33.1591 252.825 41.1976 236.32C46.7241 238.899 52.753 241.478 58.7819 244.057C56.2699 250.762 53.7577 257.467 51.7481 264.172C49.236 273.456 46.7242 282.739 44.7145 292.023C43.7097 296.149 45.7193 299.244 49.7386 300.276C59.2844 302.855 68.8302 304.918 78.376 306.981C82.8977 308.012 85.4095 305.949 86.9167 300.791C89.4287 291.508 91.941 281.708 94.9554 272.424C100.482 256.435 107.013 240.962 115.554 226.52C118.569 220.847 118.066 218.268 112.54 214.658C100.984 207.437 89.9314 200.216 78.376 192.995C74.3567 190.416 70.3375 188.353 65.8158 185.774C80.3856 161.533 96.4625 139.355 115.554 119.756C120.578 124.398 125.1 129.04 129.621 133.166C125.602 137.808 122.086 141.934 118.569 146.06C115.052 150.186 111.033 154.312 107.516 158.954C104.501 162.565 101.487 166.691 98.4724 170.817C95.4579 175.459 95.9601 178.554 100.482 182.164C108.018 187.838 115.052 192.995 122.588 198.669C127.612 202.279 130.124 201.763 134.143 196.606C141.177 187.837 148.211 178.554 155.747 170.817C165.293 161.017 175.341 151.733 185.389 142.45C186.896 140.902 188.403 139.871 189.911 138.323C192.423 135.745 192.925 132.65 190.413 129.555C186.394 123.366 181.872 117.177 177.35 110.988C172.326 103.767 167.302 97.0616 162.278 89.8408C160.771 87.7777 159.264 85.1988 157.757 82.1042C179.863 66.1153 202.471 51.6739 228.094 41.3584C230.606 47.5477 232.615 53.2212 235.127 59.4104C233.118 60.442 231.611 61.4734 229.601 62.5049C220.558 67.1469 211.012 72.3045 201.969 76.9465C198.954 78.4938 195.94 79.5255 193.427 81.5886C188.403 84.6832 187.901 88.2935 190.915 93.4512C195.437 101.188 199.959 108.924 204.983 116.661C208.5 122.334 212.017 123.366 217.543 119.756C223.572 116.145 229.601 112.019 236.132 108.924C248.19 103.251 260.75 98.0933 273.311 92.9356C277.832 90.8725 283.359 90.3568 287.88 88.8095C292.904 87.2622 294.412 83.6518 293.407 78.4941C288.885 60.442 284.866 41.8741 280.847 23.8221C288.885 19.1801 345.155 12.4751 360.73 13.5067C360.73 20.2117 360.73 26.4011 360.73 33.6219C358.218 33.6219 355.203 33.6219 352.691 33.6219C340.633 34.1376 329.078 35.1692 317.02 36.2007C308.479 36.7165 306.47 40.3269 308.479 49.095C309.987 57.3474 311.494 65.5998 312.498 73.3363C313.503 80.0414 316.015 82.1045 322.547 81.0729C347.667 76.9467 373.29 76.9465 398.41 80.5569C404.439 81.5885 407.454 79.0096 408.459 72.8204C410.971 55.7999 413.483 39.2953 415.492 22.2748C415.492 21.2433 415.995 19.6959 415.995 18.6644C430.062 18.6644 479.801 32.5901 494.371 40.8425C491.859 47.0317 489.347 52.7054 486.834 59.4104C482.313 57.3474 478.796 55.2843 474.274 54.2527C463.724 50.6423 452.671 47.5476 442.12 44.4529C436.593 42.9056 433.579 44.9688 432.574 50.6423C430.062 59.9261 428.052 69.7257 426.043 79.5253C425.038 83.6515 427.048 86.7462 431.067 88.2935C435.589 89.8408 440.11 91.3881 444.632 92.4196C457.192 95.5143 469.25 101.188 480.806 106.861C488.844 110.988 496.883 115.114 504.921 119.756C508.94 121.819 511.955 120.787 514.467 116.661C523.51 101.704 532.051 86.7463 541.095 71.2731C541.597 70.2416 542.602 68.6943 543.607 67.147C546.621 69.7259 549.636 71.7889 552.65 73.852C564.205 82.6201 575.761 91.3881 586.814 100.156C592.34 104.798 597.867 109.956 603.393 115.114C607.413 119.24 607.413 119.24 603.393 123.366C599.877 126.461 596.862 130.071 594.35 133.166C585.809 124.913 577.268 117.177 568.727 109.956C565.21 106.861 561.693 103.767 557.674 101.188C553.152 98.0932 550.138 98.6091 547.124 103.251C541.597 110.988 536.573 118.724 531.046 126.461C527.53 131.103 528.534 134.197 532.554 137.808C541.095 145.029 549.636 152.249 557.674 160.502C567.22 170.301 575.761 180.617 584.804 190.932C585.307 191.448 585.809 191.964 586.311 192.479C592.34 199.7 593.345 199.7 600.881 194.543C612.437 186.29 623.49 177.522 635.045 168.754C637.557 166.691 640.572 165.143 643.586 163.08C659.663 186.29 672.726 210.531 682.774 236.32C676.745 238.899 671.219 241.478 665.19 244.057C663.683 240.446 662.678 236.32 661.171 233.226C657.151 225.489 653.132 217.236 649.113 209.5C647.605 206.405 646.098 203.311 644.089 200.216C641.074 195.058 637.557 194.543 632.533 197.637C624.997 202.795 617.461 207.437 609.925 212.595C605.403 215.689 604.398 219.299 607.413 223.941C610.93 230.646 615.451 237.351 618.466 244.572C623.992 256.951 629.016 269.845 633.538 282.739C635.548 287.897 636.05 293.055 637.557 298.213C639.064 303.37 642.079 305.433 647.605 303.886C665.19 299.244 682.774 295.118 699.856 290.992C703.875 298.212 711.411 358.558 709.402 374.031C703.373 374.031 696.842 374.031 690.31 374.031C690.31 370.936 690.31 367.842 690.31 365.263C689.305 352.369 688.803 339.474 687.798 326.58C687.296 320.391 683.276 317.812 677.75 318.843C668.707 320.391 659.663 321.938 651.122 323.486C646.601 324.517 644.591 327.096 645.093 332.769C646.098 344.632 647.605 355.979 648.108 367.842C648.108 381.768 647.103 396.209 646.098 410.135C645.596 417.356 647.103 419.935 654.137 420.966C670.716 423.545 687.798 426.124 704.378 428.703C704.88 428.703 705.382 428.703 705.885 429.219C703.373 457.586 693.827 483.89 685.286 510.711C679.257 507.616 673.228 505.037 667.199 502.458C669.711 496.269 671.721 490.08 673.731 483.89C676.745 474.606 679.257 465.323 681.267 455.523C682.272 450.365 680.262 447.27 675.74 445.723C666.697 443.144 657.151 441.081 648.108 439.018C643.084 437.987 640.572 440.05 639.064 444.692C636.552 453.976 634.543 462.744 631.528 471.512C628.514 479.764 624.997 488.017 621.48 496.269C617.963 504.521 613.944 512.258 609.925 520.51C607.915 524.636 608.417 527.731 612.437 530.31C617.461 533.92 622.987 537.015 628.514 540.11C635.045 544.236 641.074 548.362 647.605 552.488C651.625 555.067 656.146 557.646 660.166 560.224C645.596 584.466 629.519 606.644 610.427 626.243C605.403 621.601 600.881 616.959 597.364 613.349C607.915 600.455 617.963 587.561 627.509 575.182C631.026 571.056 630.021 567.445 625.499 564.351C617.963 558.677 610.93 553.52 603.393 547.846C598.369 544.236 595.857 544.751 591.838 549.909C584.302 559.193 576.766 568.993 568.727 577.761C559.684 587.045 549.636 595.813 540.09 605.097C538.583 606.644 536.573 607.676 535.568 609.739C534.563 611.802 534.061 614.38 534.563 615.928C535.568 619.022 537.075 621.601 539.085 624.18C545.616 633.464 552.65 642.748 559.181 652.032C562.196 656.158 564.708 660.284 568.225 664.41C546.119 680.915 523.008 694.841 497.385 705.672C494.873 699.483 492.863 693.294 490.351 687.104C493.868 685.557 496.883 684.525 499.897 682.978C507.433 678.852 515.472 674.726 523.008 670.6C526.022 669.052 529.037 667.505 531.549 665.958C537.075 662.347 537.578 659.253 534.061 653.579C529.539 645.843 524.515 638.106 519.993 630.37C516.979 625.728 513.462 624.696 508.438 627.275C501.907 630.885 495.878 635.012 489.347 638.106C476.786 643.78 464.226 649.453 451.163 654.611C446.642 656.674 441.115 657.19 436.594 658.737C432.072 660.284 430.565 663.379 431.57 668.537C435.589 686.073 439.608 703.609 443.627 721.145C443.627 721.661 443.627 722.693 444.13 723.208C433.579 727.85 375.802 735.071 364.247 733.008C364.247 726.819 364.247 720.114 364.247 713.409C365.754 713.409 366.759 713.409 368.266 713.409C382.333 712.377 396.401 711.861 410.468 710.314C416.497 709.798 418.004 706.188 417 699.999C415.492 690.715 413.483 680.915 411.975 671.631C410.971 666.989 408.961 664.926 403.937 665.442C396.401 666.474 388.362 667.505 380.826 668.021C363.242 669.568 345.155 669.052 327.571 666.474C325.059 665.958 322.044 666.473 319.532 667.505C318.025 668.021 317.02 670.6 316.518 672.663C314.508 685.041 313.001 697.936 311.494 710.314C310.489 716.503 309.484 722.177 308.479 728.882C301.446 727.85 294.914 727.334 288.383 725.271C275.32 721.661 262.76 717.535 250.2 713.924C244.171 711.861 238.644 709.798 233.118 707.735C231.108 707.22 230.606 706.188 231.108 704.125C233.62 698.967 235.63 693.294 238.142 688.136C241.659 689.683 244.673 691.231 248.19 692.262C259.746 695.873 271.301 699.999 283.359 703.093C287.881 704.641 291.397 702.578 292.904 697.42C295.416 687.62 297.426 677.821 299.436 668.021C300.441 663.895 297.929 660.8 293.407 659.253C284.364 656.674 275.32 654.611 266.779 651C251.205 644.811 236.132 638.622 222.065 629.338C216.538 625.728 213.524 626.759 210.51 632.433C201.969 647.39 192.925 661.832 184.384 676.789C183.882 677.821 182.877 679.368 181.872 680.915C178.858 678.852 176.346 676.789 173.331 674.726C161.273 665.442 149.215 656.158 137.158 646.874C131.129 642.232 126.105 636.559 120.578 631.401C118.569 629.338 119.071 627.79 121.081 626.243C124.598 622.117 128.114 617.991 131.631 614.381C143.187 627.275 155.245 637.59 167.805 646.874C172.326 650.484 175.341 649.969 178.355 645.327C183.882 637.59 188.906 629.854 194.432 622.633C197.949 617.475 197.447 614.896 192.925 610.77C179.863 599.423 166.297 588.076 154.742 574.666C148.713 567.445 143.187 560.74 137.158 553.52C133.641 549.393 131.129 549.393 127.109 552.488C116.559 560.225 105.506 568.477 94.9554 576.214C90.9362 579.308 86.9168 582.403 82.8975 585.497C66.8204 562.288 53.2554 538.046 43.7097 512.258C49.7386 509.679 55.2651 507.1 61.294 504.521C62.8012 508.647 64.3085 512.258 65.8158 516.384C69.3326 524.12 73.3518 531.857 77.3711 539.594C78.8783 542.688 80.3854 545.783 81.8926 548.877C84.9071 554.035 88.4242 554.551 93.4483 551.456C100.984 546.299 108.521 541.657 116.057 536.499C120.578 533.404 121.583 529.794 118.569 525.152C115.052 518.963 111.032 512.774 108.018 506.068C102.491 493.174 97.4675 480.28 92.4434 466.87C90.4338 461.712 89.9314 456.555 88.4242 451.397C86.917 445.723 83.9023 444.176 77.8734 445.207C60.2891 449.849 43.2074 453.976 25.623 458.102C21.1014 446.755 14.0675 386.925 16.0772 372.999Z" fill="white"/>
</svg>
