<svg width="32" height="32" viewBox="0 0 32 32" fill="none" xmlns="http://www.w3.org/2000/svg">
<path d="M29.515 8.08589C27.9098 5.34391 25.4529 3.00291 22.7013 1.5316C19.8185 -0.00677105 17.0342 -0.240733 13.8893 0.194109C12.2514 0.428304 10.7774 0.59532 9.27036 1.39796C7.63245 2.26734 5.92897 3.40449 4.58606 4.7086C3.30849 5.94583 2.58781 7.7181 1.83443 9.32341C1.01547 11.0957 0.524219 13.1689 0.425944 15.1421C0.425944 15.3427 0.524201 15.5099 0.688039 15.6436C0.295011 15.7439 0 16.0114 0 16.4126C0.098257 18.0177 0.72068 19.6897 1.21199 21.1945C1.73618 22.7329 2.55514 24.1037 3.57058 25.3745C4.45511 26.478 5.27407 27.7822 6.45336 28.5849C7.7965 29.5212 9.49976 29.956 10.9085 30.792C13.5292 32.3637 17.1325 32.1631 20.0152 31.5277C23.0616 30.859 25.879 29.1533 27.8117 26.6453C28.7945 25.3745 30.0065 24.2376 30.6289 22.7328C31.2184 21.2614 31.6117 19.4222 31.9065 17.8504C32.2012 16.1784 31.7426 14.8742 31.3169 13.2691C30.8252 11.3963 30.4649 9.75762 29.5149 8.08561L29.515 8.08589ZM29.0564 19.6228C28.6633 21.1275 28.4668 22.4653 27.5167 23.7025C26.7634 24.7057 25.9444 25.709 25.1254 26.6787C24.1756 27.8156 22.9307 28.4843 21.6202 29.1533C19.3272 30.3238 15.5272 30.959 13.0703 29.889C11.7272 29.3205 10.5479 28.4176 9.17204 27.8824C7.76355 27.314 7.07552 26.2438 6.15829 25.1069C4.22561 22.6992 2.65328 19.5224 2.39121 16.379C2.35854 16.0445 2.12912 15.8439 1.83435 15.7103C2.09645 15.61 2.29296 15.4094 2.32563 15.1418C2.55505 12.2326 3.76705 9.62429 5.14284 7.11615C6.45328 4.74177 10.0239 2.33408 12.6117 1.86591C15.3306 1.39776 17.7549 1.19717 20.4081 2.26712C22.9306 3.30371 25.2892 5.37695 26.8288 7.651C28.3684 9.95844 28.9579 12.5667 29.5804 15.2419C29.9407 16.8136 29.4821 18.1178 29.0562 19.6225L29.0564 19.6228Z" fill="#DDF247"/>
<path d="M22.5383 7.78467C20.4745 8.92158 18.8038 11.1287 17.3951 13.0013C16.2485 14.506 15.233 16.0778 14.3814 17.7498C13.8245 18.82 13.4315 19.9903 12.8744 21.0938C12.7761 20.9602 12.645 20.7929 12.5467 20.6926C12.219 20.3248 11.8916 19.9569 11.5639 19.5891C10.9414 18.8534 10.5155 17.9505 9.76214 17.3486C9.27086 16.9807 8.45193 17.1144 8.02596 17.4822C7.50178 17.917 7.37085 18.4855 7.4691 19.1543C7.63294 20.1908 8.77931 21.1941 9.46735 21.8965C9.86038 22.2977 10.319 22.6655 10.7776 23C10.8102 23.0334 10.8431 23.0334 10.8758 23.067C11.3671 23.8026 11.9568 24.4381 12.9723 24.2039C14.0534 23.9363 14.6758 22.6991 15.2654 21.8631C16.3791 20.258 17.3945 18.5525 18.5085 16.9474C19.2619 15.8772 20.0155 14.8406 20.8998 13.8709C22.0135 12.6337 23.3893 11.5971 24.405 10.2927C25.4865 8.92155 24.176 6.8817 22.5381 7.78464L22.5383 7.78467Z" fill="#DDF247"/>
</svg>
