<svg width="32" height="32" viewBox="0 0 32 32" fill="none" xmlns="http://www.w3.org/2000/svg">
<path d="M4.83394 23.9252C3.15539 21.4768 2.29951 18.7224 2.16798 15.6959C2.03642 12.9074 3.64904 9.91506 5.19605 7.73866C5.82147 6.85458 6.57843 6.0384 7.26968 5.18826C8.22406 3.96407 9.31028 3.3521 10.7257 2.80795C13.0625 1.92369 15.7943 1.44761 18.263 1.61764C19.744 1.71964 21.1264 2.1957 22.41 2.94385C23.529 3.6239 24.4178 4.64412 25.4709 5.42618C25.8001 5.66433 26.0963 5.93616 26.3925 6.20824C25.405 7.16039 24.6481 8.31651 23.6278 9.23472C22.3114 10.3908 21.0277 11.5811 19.711 12.7373C18.4602 13.8256 16.9791 14.5734 15.8929 15.8318C15.2675 16.546 14.7408 17.362 13.9511 17.9401C13.2928 18.4501 12.5359 18.7902 11.8774 19.3002C10.5279 20.3885 9.34301 21.7825 8.09246 23.0409C6.24935 24.9112 4.24155 26.8835 2.10215 28.4137C1.21342 29.0599 3.74784 29.3659 4.17578 29.128C4.8012 28.822 5.39353 28.4137 5.9861 27.9718C6.57843 28.8559 7.20385 29.6721 8.15847 30.1821C9.57364 30.9302 11.2524 31.0661 12.7663 31.5763C15.8272 32.5966 18.987 31.6103 21.8505 30.3521C24.5823 29.196 27.8737 27.6658 29.5194 24.9793C31.1651 22.3269 32.1195 18.6543 31.988 15.5258C31.8564 12.5333 31.0005 8.96279 29.3879 6.4804C30.1448 5.93626 31.0007 5.63027 31.7249 4.98411C32.6465 4.16792 29.8159 3.7938 29.1905 4.30406C28.8284 4.57614 28.4664 4.81405 28.0714 5.0183C27.3473 4.40632 26.5245 3.86218 25.8003 3.21601C24.5496 2.09384 23.2989 1.27759 21.719 0.699558C18.8225 -0.388734 15.8932 -0.0146753 12.931 0.529483C9.93599 1.10754 7.17129 2.09385 5.22914 4.57618C3.02391 7.39862 0.720003 10.3231 0.127672 14.0297C-0.464659 17.7022 1.08206 21.7489 3.15574 24.6053C3.64936 25.2515 5.45965 24.8093 4.83429 23.9253L4.83394 23.9252ZM28.6965 21.2728C28.2685 22.395 27.9065 23.6531 27.2154 24.6394C26.4584 25.7616 25.1748 26.5436 24.0555 27.2578C22.7391 28.108 21.2908 28.7541 19.8426 29.2983C18.4274 29.8424 16.1563 30.7265 14.675 30.3866C13.4572 30.1145 12.2723 29.6045 11.0216 29.3325C9.24433 28.9245 8.61891 27.9043 7.66429 26.5781C8.55302 25.7619 9.40872 24.8778 10.1657 24.0958C11.4165 22.8716 12.6342 21.5454 13.9179 20.3551C15.1686 19.2329 16.6497 18.6209 17.7688 17.2947C18.3942 16.5466 18.9537 15.7984 19.7437 15.2543C20.435 14.7782 21.1261 14.3702 21.7843 13.826C23.1338 12.7039 24.4175 11.4457 25.7339 10.2896C26.4909 9.64345 27.1163 8.89533 27.7417 8.14721C28.4986 9.57544 28.8938 11.1737 29.1899 12.84C29.7827 15.7637 29.7499 18.4503 28.6965 21.2727L28.6965 21.2728Z" fill="#FF5F5F"/>
</svg>
