<svg width="127" height="24" viewBox="0 0 127 24" fill="none" xmlns="http://www.w3.org/2000/svg">
<path d="M22.169 1.10438V23.3732C22.169 23.7571 21.9291 23.9971 21.5932 23.9971C21.2093 23.9971 20.9694 23.7571 20.9694 23.3732V17.518C19.146 21.3574 15.4031 23.9971 11.0845 23.9971C4.94244 23.9971 0 18.6698 0 12.2388C0 5.8077 4.94244 0.480469 11.0845 0.480469C15.4031 0.480469 19.146 3.16808 20.9694 6.95953V1.10438C20.9694 0.816424 21.2093 0.480469 21.5932 0.480469C21.9291 0.480469 22.169 0.816424 22.169 1.10438ZM20.9694 12.2388C20.9694 6.43161 16.5068 1.72829 11.0845 1.72829C5.66222 1.72829 1.19962 6.43161 1.19962 12.2388C1.19962 18.0939 5.66222 22.7972 11.0845 22.7972C16.5068 22.7972 20.9694 18.0939 20.9694 12.2388Z" fill="#DDF247"/>
<path d="M24.6324 5.67971C24.4885 5.48774 24.4725 5.23178 24.6004 5.02381C26.2799 2.28821 29.191 0.480469 32.5979 0.480469C36.6286 0.480469 40.0836 3.0241 41.4271 6.62358C42.7707 3.0241 46.2256 0.480469 50.3043 0.480469C55.4867 0.480469 59.6614 4.75185 59.6614 9.98309V23.3732C59.6614 23.7091 59.4215 23.9971 59.0856 23.9971C58.7977 23.9971 58.4618 23.7091 58.4618 23.3732V9.98309C58.4618 5.37576 54.7669 1.68029 50.3043 1.68029C45.8418 1.68029 42.2109 5.23178 42.0669 9.64714V9.98309V23.3732C42.0669 23.4691 42.0669 23.5171 42.019 23.5651C42.019 23.6131 41.971 23.6611 41.971 23.7091C41.923 23.7571 41.923 23.7571 41.923 23.8051C41.779 23.9491 41.6191 23.9971 41.4271 23.9971C41.1072 23.9971 40.8673 23.7251 40.8673 23.4211V9.98309C40.8673 5.37576 37.1725 1.68029 32.6139 1.68029C29.6548 1.68029 27.0477 3.26406 25.6081 5.64772C25.3842 5.99967 24.8724 6.01567 24.6324 5.67971Z" fill="#DDF247"/>
<path d="M88.196 20.589C87.956 20.3491 87.908 19.9651 88.148 19.7251C88.3879 19.4852 88.7718 19.4372 89.0117 19.6771C89.0597 19.7251 92.5146 22.7967 97.0252 22.7967C101.296 22.7967 104.799 20.3011 104.799 17.2295C104.799 13.63 101.296 12.8621 97.601 11.9983C93.8582 11.0864 89.5875 10.1265 89.5875 5.71117C89.5875 2.54363 92.9465 0 97.0252 0C101.728 0 104.175 2.7356 104.271 2.87958C104.511 3.11955 104.463 3.5035 104.223 3.74346C103.935 3.98343 103.551 3.93544 103.359 3.69547C103.311 3.64748 101.152 1.24782 97.0252 1.24782C93.6182 1.24782 90.8351 3.21554 90.8351 5.71117C90.8351 9.11868 94.0981 9.88657 97.8889 10.7984C101.728 11.6623 106.046 12.6702 106.046 17.2295C106.046 21.021 102.064 23.9965 97.0252 23.9965C92.0347 23.9965 88.3399 20.733 88.196 20.589Z" fill="#DDF247"/>
<path d="M109.15 20.589C108.91 20.3491 108.862 19.9651 109.102 19.7251C109.342 19.4852 109.725 19.4372 109.965 19.6771C110.013 19.7251 113.468 22.7967 117.979 22.7967C122.249 22.7967 125.752 20.3011 125.752 17.2295C125.752 13.63 122.249 12.8621 118.555 11.9983C114.812 11.0864 110.541 10.1265 110.541 5.71117C110.541 2.54363 113.9 0 117.979 0C122.681 0 125.129 2.7356 125.225 2.87958C125.464 3.11955 125.416 3.5035 125.177 3.74346C124.889 3.98343 124.505 3.93544 124.313 3.69547C124.265 3.64748 122.105 1.24782 117.979 1.24782C114.572 1.24782 111.789 3.21554 111.789 5.71117C111.789 9.11868 115.052 9.88657 118.843 10.7984C122.681 11.6623 127 12.6702 127 17.2295C127 21.021 123.017 23.9965 117.979 23.9965C112.988 23.9965 109.294 20.733 109.15 20.589Z" fill="#DDF247"/>
<path d="M62.6043 12.6546C62.6523 13.2465 62.7002 13.8384 62.7802 14.4304C62.8282 14.7503 62.9082 15.0703 62.9881 15.3742C63.0361 15.5502 63.1481 15.5982 63.308 15.5502C63.6759 15.4382 64.0598 15.3422 64.4277 15.2302C64.6036 15.1822 64.7796 15.1183 64.9395 15.0703C65.1635 15.7902 65.4354 16.4781 65.8033 17.118C65.6433 17.214 65.4834 17.3099 65.3234 17.4059C65.2434 17.2779 65.1635 17.15 65.0995 17.006C64.9555 16.702 64.8276 16.4141 64.6996 16.1101C64.6196 15.9181 64.5237 15.8861 64.3477 15.9501C64.0758 16.0461 63.8039 16.1421 63.532 16.2381C63.356 16.3021 63.2921 16.4301 63.372 16.622C63.532 16.99 63.6919 17.3579 63.8679 17.7099C63.9798 17.9498 64.1078 18.1898 64.2358 18.3978C64.4597 18.7497 64.7156 19.0857 64.9555 19.4216C65.0515 19.5496 65.1635 19.5656 65.3074 19.4696C65.4674 19.3416 65.6433 19.2137 65.8033 19.0697C65.8672 19.0217 65.9312 18.9577 65.9952 18.9097C66.1072 18.8137 66.2191 18.7337 66.3471 18.6377C66.4591 18.5578 66.571 18.4618 66.683 18.3818C67.1468 18.9737 67.6747 19.4856 68.2505 19.9496C68.1385 20.1095 68.0266 20.2535 67.8986 20.4295C67.5307 20.0935 67.1948 19.7576 66.8429 19.4376C66.715 19.3256 66.603 19.3097 66.475 19.4216C66.2511 19.6296 66.0432 19.8376 65.8193 20.0455C65.6913 20.1735 65.6753 20.2695 65.8033 20.4135C66.0272 20.6535 66.2671 20.8934 66.507 21.1174C66.715 21.3094 66.9549 21.4853 67.1788 21.6453C67.4507 21.8533 67.7227 22.0453 68.0106 22.2372C68.1065 22.3172 68.2185 22.3812 68.3305 22.4452C68.4744 22.5252 68.6024 22.4932 68.6824 22.3492C68.7623 22.2212 68.8423 22.0932 68.9063 21.9493C69.0342 21.7253 69.1462 21.4853 69.2742 21.2614C69.3541 21.1174 69.4341 20.9574 69.5141 20.8134C70.1699 21.1654 70.8417 21.4693 71.5615 21.6453C71.5135 21.8213 71.4655 21.9973 71.4015 22.1892C71.1776 22.1252 70.9536 22.0612 70.7457 21.9973C70.5058 21.9173 70.2659 21.8053 70.0259 21.7093C69.882 21.6453 69.786 21.6933 69.722 21.8213C69.5781 22.1252 69.4341 22.4292 69.3062 22.7172C69.2582 22.8131 69.2742 22.9091 69.3701 22.9571C69.5621 23.0531 69.754 23.1811 69.962 23.2451C70.5858 23.437 71.2256 23.629 71.8494 23.805C72.0733 23.869 72.3132 23.885 72.5371 23.901C72.7131 23.917 72.8251 23.853 72.8411 23.725C72.873 23.3571 72.921 22.9731 72.953 22.6052C72.969 22.3972 73.001 22.1732 73.017 21.9493C73.7688 22.0293 74.4885 22.0293 75.2243 21.9333C75.2563 22.1252 75.2723 22.3012 75.2883 22.4932C75.2243 22.4932 75.1923 22.5092 75.1443 22.5092C74.7125 22.5252 74.2806 22.5412 73.8487 22.5572C73.6888 22.5572 73.6088 22.6532 73.5928 22.8131C73.5768 23.1171 73.5608 23.4371 73.5448 23.741C73.5448 23.869 73.5928 23.949 73.7048 23.981C73.7528 23.997 73.8167 23.997 73.8647 23.997C74.5045 24.013 75.1283 23.965 75.7521 23.869C76.168 23.805 76.5679 23.709 76.9837 23.613C77.1597 23.565 77.2237 23.453 77.1597 23.2771C77.0157 22.7491 76.8558 22.2212 76.7118 21.6933C76.7118 21.6613 76.6958 21.6453 76.6958 21.6133C77.3996 21.3734 78.0714 21.1174 78.7112 20.7334C78.8072 20.8934 78.9031 21.0534 78.9991 21.2294C78.7752 21.3414 78.5672 21.4693 78.3433 21.5813C78.1194 21.6933 77.8955 21.7733 77.6715 21.8853C77.5436 21.9493 77.5116 22.0453 77.5596 22.1892C77.6555 22.4772 77.7675 22.7652 77.8635 23.0531C77.9274 23.2291 78.0554 23.2931 78.2154 23.2131C78.5992 23.0371 78.9831 22.8611 79.367 22.6692C79.463 22.6212 79.5589 22.5572 79.6389 22.5092C79.9268 22.3332 80.2147 22.1732 80.4866 21.9813C80.6786 21.8533 80.8385 21.7093 81.0145 21.5813C81.1104 21.5013 81.1264 21.3574 81.0625 21.2614C80.9665 21.1174 80.8545 20.9894 80.7426 20.8614C80.5346 20.6055 80.3107 20.3335 80.1028 20.0775C80.0548 20.0295 80.0228 19.9816 79.9908 19.9176C79.9748 19.8856 79.9908 19.8376 80.0068 19.8216C80.1667 19.6776 80.3267 19.5336 80.4866 19.3896C80.7426 19.1337 80.9985 18.8617 81.2544 18.5898C81.3344 18.4938 81.4144 18.3978 81.4943 18.2858C81.6543 18.3978 81.7982 18.5098 81.9422 18.6218C81.8622 18.7337 81.7822 18.8457 81.6863 18.9417C81.4463 19.2137 81.1904 19.4696 80.9505 19.7416C80.8545 19.8536 80.8385 19.9496 80.9505 20.0615C81.1584 20.2855 81.3824 20.5255 81.5903 20.7494C81.7183 20.8774 81.8142 20.8774 81.9422 20.7654C82.0541 20.6535 82.1821 20.5415 82.2781 20.4135C82.486 20.1895 82.7099 19.9656 82.9019 19.7096C83.1578 19.3736 83.3977 19.0217 83.6377 18.6697C83.7336 18.5258 83.8296 18.3978 83.9096 18.2378C84.0055 18.0618 83.9735 17.9179 83.7976 17.8219C83.3977 17.5979 82.9979 17.3739 82.614 17.15C82.518 17.102 82.422 17.054 82.3101 17.006C82.662 16.3341 82.9499 15.6462 83.1258 14.9103C83.3178 14.9583 83.4937 15.0223 83.6696 15.0703C83.5897 15.3262 83.5257 15.5662 83.4457 15.8062C83.3657 16.0301 83.2698 16.2381 83.1898 16.4461C83.1258 16.606 83.1578 16.702 83.3018 16.766C83.5737 16.894 83.8616 17.022 84.1335 17.166C84.2934 17.2459 84.4054 17.182 84.4854 17.022C84.5654 16.846 84.6453 16.686 84.7093 16.4941C84.8853 15.9341 85.0612 15.3582 85.2052 14.7823C85.2851 14.4944 85.3011 14.1904 85.3331 13.9024C85.3651 13.6945 85.2851 13.5985 85.0772 13.5825C84.7733 13.5505 84.4854 13.5345 84.1815 13.5025C83.9256 13.4705 83.6696 13.4385 83.4137 13.4225C83.4297 13.0546 83.4457 12.6866 83.4457 12.3347C83.4457 11.9827 83.4137 11.6148 83.3977 11.2468C83.5737 11.2308 83.7496 11.1988 83.9256 11.1828C83.9256 11.2308 83.9416 11.2628 83.9416 11.2948C83.9575 11.7108 83.9735 12.1267 83.9895 12.5426C83.9895 12.7026 84.0695 12.8146 84.2135 12.8146C84.5334 12.8306 84.8373 12.8466 85.1572 12.8626C85.3171 12.8626 85.4131 12.7826 85.4291 12.6226C85.4291 12.5906 85.4291 12.5426 85.4291 12.5106C85.4451 11.6628 85.3331 10.8309 85.1892 9.999C85.1572 9.80703 85.0932 9.61506 85.0452 9.42309C84.9972 9.27911 84.9012 9.21511 84.7893 9.24711C84.3574 9.37509 83.9256 9.48708 83.4937 9.61506C83.3497 9.66305 83.2058 9.69505 83.0778 9.74304C82.8539 9.02314 82.582 8.33525 82.2141 7.69534C82.374 7.59935 82.534 7.50336 82.6939 7.40737C82.7899 7.56735 82.8859 7.71133 82.9499 7.8873C83.0778 8.15926 83.1898 8.43123 83.3018 8.71918C83.3817 8.89516 83.4617 8.94315 83.6536 8.87916C83.9256 8.78318 84.2135 8.68719 84.4854 8.59121C84.6613 8.52721 84.7253 8.39923 84.6453 8.23925C84.5334 7.96729 84.4214 7.69534 84.2934 7.42338C84.1655 7.13542 84.0215 6.84746 83.8456 6.5915C83.5897 6.17556 83.3018 5.79161 83.0298 5.39167C82.9659 5.27969 82.8219 5.27969 82.7259 5.34368C82.63 5.42367 82.534 5.50365 82.422 5.58364C82.1181 5.82361 81.8302 6.07957 81.5263 6.31953C81.4623 6.36753 81.3984 6.39952 81.3344 6.44751C80.8705 5.8716 80.3587 5.34368 79.7829 4.89575C79.8948 4.73577 80.0068 4.59178 80.1188 4.4478C80.2147 4.51179 80.2947 4.57579 80.3747 4.63978C80.6626 4.89574 80.9345 5.1677 81.2064 5.43966C81.3024 5.53565 81.4463 5.55165 81.5423 5.45566C81.7662 5.24769 81.9742 5.03972 82.1981 4.83175C82.3421 4.68777 82.3581 4.59179 82.2141 4.43181C82.0861 4.28783 81.9422 4.15985 81.7982 4.01587C81.7023 3.91989 81.6223 3.8239 81.5263 3.74391C81.3024 3.56794 81.0944 3.39196 80.8705 3.21599C80.5986 3.00802 80.3107 2.81604 80.0228 2.60807C79.9268 2.54408 79.8309 2.4641 79.7189 2.4161C79.5589 2.32012 79.431 2.3681 79.351 2.52808C79.191 2.83204 79.0151 3.136 78.8552 3.42396C78.7432 3.63193 78.6312 3.83989 78.5193 4.04786C77.8635 3.69591 77.1917 3.39196 76.4719 3.21599C76.5199 3.04001 76.5839 2.84804 76.6319 2.67206C76.8558 2.73605 77.0797 2.78405 77.2877 2.86404C77.5276 2.94403 77.7515 3.05601 77.9754 3.15199C78.1514 3.23198 78.2473 3.18399 78.3273 3.02401C78.4553 2.75205 78.5672 2.49609 78.6952 2.22413C78.7912 2.01616 78.7592 1.92017 78.5512 1.82419C78.3753 1.7442 78.2154 1.66421 78.0394 1.60022C77.4796 1.42424 76.9198 1.24827 76.3599 1.10429C76.088 1.0243 75.7841 1.00831 75.4962 0.976314C75.3363 0.960316 75.2083 1.0243 75.2083 1.15228C75.1763 1.48824 75.1443 1.80819 75.1123 2.14414C75.0803 2.40011 75.0644 2.65606 75.0484 2.92802C74.2966 2.84803 73.5768 2.84804 72.8251 2.94403C72.7931 2.75205 72.7771 2.57608 72.7611 2.38411C72.8091 2.38411 72.8251 2.3681 72.8411 2.3681C73.2729 2.35211 73.7208 2.32012 74.1526 2.30412C74.3446 2.30412 74.4246 2.22413 74.4405 2.03216C74.4565 1.7282 74.4725 1.40825 74.4885 1.10429C74.4885 0.992309 74.4405 0.928321 74.3446 0.896325C74.2806 0.86433 74.2006 0.864328 74.1366 0.864328C73.4968 0.84833 72.873 0.896317 72.2492 1.0083C71.8494 1.07229 71.4495 1.16828 71.0336 1.26427C70.8417 1.31226 70.7937 1.42424 70.8417 1.60022C70.9856 2.11214 71.1456 2.64007 71.2895 3.15199C71.3055 3.18399 71.3055 3.21598 71.3055 3.24798C70.6018 3.48794 69.93 3.7439 69.2902 4.12785C69.1942 3.96787 69.0982 3.8079 69.0023 3.63192C69.2262 3.51994 69.4501 3.39196 69.674 3.27997C69.898 3.16799 70.1219 3.08801 70.3458 2.97602C70.4738 2.91203 70.5058 2.81604 70.4578 2.68806C70.3618 2.4001 70.2499 2.11215 70.1539 1.82419C70.0899 1.66421 69.962 1.60022 69.802 1.66421C69.4501 1.82419 69.0982 1.98417 68.7623 2.14414C68.6344 2.20813 68.5064 2.28812 68.3625 2.3681C68.0746 2.54408 67.8026 2.70406 67.5147 2.88003C67.3228 3.00801 67.1468 3.15199 66.9709 3.27997C66.8749 3.35996 66.8589 3.50394 66.9229 3.59993C67.0029 3.71191 67.0989 3.8239 67.1948 3.93588C67.4347 4.23984 67.6907 4.54379 67.9466 4.84774C67.9626 4.87974 67.9946 4.91174 68.0106 4.94374C68.0106 4.97573 68.0106 5.02372 67.9946 5.03972C67.8346 5.1837 67.6747 5.32768 67.5147 5.47166C67.2588 5.72762 67.0029 5.99958 66.747 6.27154C66.667 6.36753 66.587 6.46352 66.507 6.5755C66.3631 6.46352 66.2191 6.35153 66.0592 6.23954C66.1392 6.12756 66.2031 6.03158 66.2831 5.93559C66.523 5.66363 66.779 5.39167 67.0349 5.11971C67.1468 4.99173 67.1468 4.91174 67.0349 4.78376C66.8269 4.55979 66.619 4.33582 66.3951 4.11185C66.2671 3.98387 66.1712 3.96788 66.0432 4.09586C65.9152 4.20784 65.8033 4.33582 65.6753 4.46381C65.5633 4.57579 65.4514 4.67178 65.3554 4.78376C65.1795 5.00773 65.0035 5.2317 64.8436 5.45566C64.6356 5.72762 64.4437 6.01558 64.2518 6.30354C64.1718 6.41552 64.1078 6.51151 64.0438 6.62349C63.9638 6.76747 63.9798 6.92745 64.0758 6.99144C64.2358 7.08742 64.4117 7.18341 64.5717 7.27939C64.8116 7.40738 65.0515 7.53536 65.2914 7.66334C65.4034 7.72733 65.5314 7.79133 65.6433 7.85532C65.2914 8.52722 65.0035 9.21511 64.8276 9.95101C64.6356 9.90302 64.4597 9.83902 64.2837 9.79103C64.3477 9.55107 64.4117 9.3111 64.4917 9.08713C64.5717 8.86316 64.6676 8.6392 64.7636 8.41524C64.8276 8.25526 64.7956 8.15927 64.6356 8.09528C64.3637 7.9673 64.0918 7.83931 63.8199 7.71133C63.628 7.63134 63.532 7.66334 63.452 7.85532C63.1641 8.46323 62.9881 9.10313 62.8282 9.75903C62.7322 10.143 62.6842 10.5429 62.6203 10.9429C62.5883 11.1508 62.6842 11.2468 62.8762 11.2628C63.2441 11.2948 63.6279 11.3268 63.9958 11.3588C64.1718 11.3748 64.3477 11.4068 64.5397 11.4228C64.4597 12.1587 64.4757 12.8626 64.5557 13.5985C64.3637 13.6145 64.1878 13.6465 64.0118 13.6625C64.0118 13.6305 64.0118 13.5985 63.9958 13.5825C63.9798 13.1505 63.9479 12.7346 63.9319 12.3027C63.9319 12.1107 63.8519 12.0307 63.6599 12.0147C63.372 11.9987 63.0681 11.9827 62.7802 11.9827C62.6043 11.9827 62.5083 12.0627 62.5083 12.2387C62.6043 12.3667 62.6043 12.5106 62.6043 12.6546ZM63.0201 12.4306C63.2121 12.4306 63.404 12.4306 63.6279 12.4306C63.6279 12.4626 63.6279 12.5106 63.6279 12.5586C63.6599 13.0066 63.6759 13.4545 63.7079 13.8864C63.7239 14.0944 63.8359 14.1744 64.0438 14.1424C64.3157 14.0944 64.5876 14.0464 64.8596 13.9984C65.0195 13.9664 65.0995 13.8864 65.0675 13.7105C64.9875 13.1665 64.9555 12.6226 64.9875 12.0787C65.0035 11.8067 65.0195 11.5508 65.0515 11.2948C65.0675 11.1028 65.0035 11.0069 64.8116 10.9749C64.2678 10.8949 63.7399 10.8149 63.1961 10.7349C63.1801 10.7349 63.1641 10.7189 63.1481 10.7189C63.1481 10.255 63.564 8.70319 63.8199 8.19126C63.9958 8.27125 64.1878 8.35124 64.3797 8.43123C64.2997 8.6392 64.2198 8.84717 64.1558 9.05514C64.0758 9.3431 63.9958 9.63105 63.9319 9.91901C63.8999 10.047 63.9638 10.143 64.0918 10.175C64.3957 10.255 64.6996 10.319 65.0035 10.3829C65.1475 10.4149 65.2274 10.351 65.2754 10.191C65.3554 9.90302 65.4354 9.59906 65.5314 9.3111C65.7073 8.81517 65.9152 8.33524 66.1871 7.8873C66.2831 7.71133 66.2671 7.63134 66.0912 7.51936C65.7233 7.29539 65.3714 7.07142 65.0035 6.84745C64.8756 6.76747 64.7476 6.70348 64.6036 6.62349C65.0675 5.8716 65.5793 5.1837 66.1871 4.57579C66.3471 4.71977 66.491 4.86375 66.635 4.99173C66.507 5.13571 66.3951 5.26369 66.2831 5.39167C66.1712 5.51965 66.0432 5.64763 65.9312 5.79161C65.8353 5.90359 65.7393 6.03157 65.6433 6.15956C65.5473 6.30354 65.5633 6.39952 65.7073 6.51151C65.9472 6.68748 66.1712 6.84746 66.4111 7.02343C66.571 7.13542 66.651 7.11942 66.779 6.95944C67.0029 6.68748 67.2268 6.39952 67.4667 6.15956C67.7706 5.8556 68.0905 5.56764 68.4104 5.27968C68.4584 5.23169 68.5064 5.1997 68.5544 5.1517C68.6344 5.07172 68.6504 4.97573 68.5704 4.87974C68.4424 4.68777 68.2985 4.4958 68.1545 4.30383C67.9946 4.07986 67.8346 3.87189 67.6747 3.64792C67.6267 3.58393 67.5787 3.50394 67.5307 3.40795C68.2345 2.91202 68.9543 2.4641 69.77 2.14414C69.85 2.33611 69.914 2.51209 69.9939 2.70406C69.93 2.73606 69.882 2.76805 69.818 2.80004C69.5301 2.94402 69.2262 3.104 68.9383 3.24798C68.8423 3.29597 68.7463 3.32797 68.6664 3.39196C68.5064 3.48795 68.4904 3.59993 68.5864 3.7599C68.7303 3.99987 68.8743 4.23983 69.0342 4.4798C69.1462 4.65577 69.2582 4.68778 69.4341 4.57579C69.6261 4.46381 69.818 4.33582 70.0259 4.23983C70.4098 4.06386 70.8097 3.90389 71.2096 3.74391C71.3535 3.67992 71.5295 3.66392 71.6734 3.61593C71.8334 3.56794 71.8814 3.45595 71.8494 3.29598C71.7054 2.73606 71.5774 2.16014 71.4495 1.60022C71.7054 1.45624 73.4968 1.24827 73.9927 1.28026C73.9927 1.48823 73.9927 1.68021 73.9927 1.90418C73.9127 1.90418 73.8167 1.90418 73.7368 1.90418C73.3529 1.92017 72.985 1.95217 72.6011 1.98417C72.3292 2.00016 72.2652 2.11215 72.3292 2.38411C72.3772 2.64007 72.4252 2.89604 72.4572 3.136C72.4892 3.34397 72.5691 3.40796 72.7771 3.37597C73.5768 3.24798 74.3926 3.24798 75.1923 3.35996C75.3842 3.39196 75.4802 3.31197 75.5122 3.12C75.5922 2.59207 75.6722 2.08015 75.7361 1.55223C75.7361 1.52023 75.7521 1.47224 75.7521 1.44024C76.2 1.44024 77.7835 1.87218 78.2473 2.12814C78.1674 2.32011 78.0874 2.49609 78.0074 2.70406C77.8635 2.64007 77.7515 2.57608 77.6076 2.54408C77.2717 2.4321 76.9198 2.33611 76.5839 2.24012C76.4079 2.19213 76.312 2.25612 76.28 2.4321C76.2 2.72006 76.136 3.02401 76.072 3.32796C76.04 3.45595 76.104 3.55193 76.232 3.59993C76.3759 3.64792 76.5199 3.69591 76.6638 3.72791C77.0637 3.82389 77.4476 3.99988 77.8155 4.17585C78.0714 4.30383 78.3273 4.43181 78.5832 4.57579C78.7112 4.63978 78.8072 4.60778 78.8871 4.4798C79.1751 4.01587 79.447 3.55194 79.7349 3.07201C79.7509 3.04001 79.7829 2.99202 79.8149 2.94403C79.9108 3.02401 80.0068 3.088 80.1028 3.15199C80.4706 3.42395 80.8385 3.69591 81.1904 3.96787C81.3664 4.11185 81.5423 4.27183 81.7183 4.43181C81.8462 4.55979 81.8462 4.55979 81.7183 4.68777C81.6063 4.78375 81.5103 4.89574 81.4303 4.99173C81.1584 4.73576 80.8865 4.4958 80.6146 4.27183C80.5026 4.17585 80.3907 4.07986 80.2627 3.99987C80.1188 3.90388 80.0228 3.91988 79.9268 4.06386C79.7509 4.30383 79.5909 4.54379 79.415 4.78376C79.303 4.92774 79.335 5.02373 79.463 5.13571C79.7349 5.35968 80.0068 5.58364 80.2627 5.8396C80.5666 6.14356 80.8385 6.46352 81.1264 6.78347C81.1424 6.79947 81.1584 6.81546 81.1744 6.83146C81.3664 7.05543 81.3984 7.05543 81.6383 6.89546C82.0062 6.63949 82.3581 6.36753 82.7259 6.09557C82.8059 6.03158 82.9019 5.98358 82.9979 5.91959C83.5097 6.63949 83.9256 7.39138 84.2455 8.19126C84.0535 8.27125 83.8776 8.35124 83.6856 8.43123C83.6377 8.31924 83.6057 8.19127 83.5577 8.09528C83.4297 7.85532 83.3018 7.59935 83.1738 7.35938C83.1258 7.2634 83.0778 7.16741 83.0138 7.07143C82.9179 6.91145 82.8059 6.89545 82.646 6.99144C82.406 7.15141 82.1661 7.2954 81.9262 7.45537C81.7822 7.55136 81.7502 7.66334 81.8462 7.80732C81.9582 8.01529 82.1021 8.22325 82.1981 8.44722C82.3741 8.83117 82.534 9.23111 82.678 9.63105C82.7419 9.79103 82.7579 9.95101 82.8059 10.111C82.8539 10.271 82.9499 10.3349 83.1258 10.287C83.6856 10.143 84.2455 10.015 84.7893 9.88701C84.9172 10.111 85.1572 11.9827 85.0932 12.4626C84.9013 12.4626 84.6933 12.4626 84.4854 12.4626C84.4854 12.3667 84.4854 12.2707 84.4854 12.1907C84.4534 11.7907 84.4374 11.3908 84.4054 10.9909C84.3894 10.7989 84.2615 10.7189 84.0855 10.7509C83.7976 10.7989 83.5097 10.8469 83.2378 10.8949C83.0938 10.9269 83.0298 11.0069 83.0458 11.1828C83.0778 11.5508 83.1258 11.9027 83.1418 12.2707C83.1418 12.7026 83.1098 13.1505 83.0778 13.5825C83.0618 13.8065 83.1098 13.8864 83.3337 13.9184C83.8616 13.9984 84.4054 14.0784 84.9332 14.1584C84.9492 14.1584 84.9652 14.1584 84.9812 14.1744C84.9013 15.0543 84.5974 15.8702 84.3254 16.702C84.1335 16.606 83.9416 16.5261 83.7496 16.4461C83.8296 16.2541 83.8936 16.0621 83.9576 15.8701C84.0535 15.5822 84.1335 15.2942 84.1975 14.9903C84.2295 14.8303 84.1655 14.7343 84.0215 14.6863C83.7336 14.6063 83.4297 14.5423 83.1418 14.4783C82.9819 14.4464 82.9019 14.5104 82.8539 14.6543C82.7739 14.9423 82.7099 15.2142 82.614 15.4862C82.518 15.7422 82.406 15.9981 82.2941 16.2541C82.1821 16.5101 82.0542 16.75 81.9262 17.006C81.8622 17.134 81.8782 17.23 82.0062 17.3099C82.1661 17.4219 82.3421 17.5179 82.518 17.6139C82.7259 17.7419 82.9179 17.8699 83.1258 17.9978C83.2538 18.0778 83.3977 18.1578 83.5257 18.2378C83.0618 18.9897 82.55 19.6776 81.9422 20.2855C81.7822 20.1415 81.6383 19.9975 81.5263 19.8856C81.8622 19.4856 82.1821 19.0857 82.486 18.7017C82.598 18.5738 82.566 18.4618 82.422 18.3658C82.1821 18.1898 81.9582 18.0298 81.7183 17.8539C81.5583 17.7419 81.4783 17.7579 81.3504 17.9179C81.1104 18.2058 80.8705 18.5098 80.6146 18.7817C80.3267 19.0697 80.0068 19.3416 79.7029 19.6296C79.6549 19.6776 79.5909 19.7096 79.5589 19.7736C79.5269 19.8376 79.511 19.9176 79.5269 19.9656C79.5589 20.0615 79.6069 20.1415 79.6709 20.2215C79.8788 20.5095 80.1028 20.7974 80.3107 21.0854C80.4067 21.2134 80.4866 21.3414 80.5986 21.4693C79.8948 21.9813 79.1591 22.4132 78.3433 22.7492C78.2633 22.5572 78.1994 22.3652 78.1194 22.1732C78.2314 22.1252 78.3273 22.0932 78.4233 22.0452C78.6632 21.9173 78.9191 21.7893 79.1591 21.6613C79.255 21.6133 79.351 21.5653 79.431 21.5173C79.6069 21.4053 79.6229 21.3094 79.5109 21.1334C79.367 20.8934 79.207 20.6535 79.0631 20.4135C78.9671 20.2695 78.8552 20.2375 78.6952 20.3175C78.4873 20.4295 78.2953 20.5575 78.0874 20.6535C77.6875 20.8294 77.2876 21.0054 76.8718 21.1654C76.7278 21.2294 76.5519 21.2454 76.4079 21.2934C76.264 21.3414 76.216 21.4373 76.248 21.5973C76.3759 22.1412 76.5039 22.6852 76.6319 23.2291C76.6319 23.2451 76.6319 23.2771 76.6479 23.2931C76.312 23.4371 74.4725 23.661 74.1047 23.597C74.1047 23.4051 74.1047 23.1971 74.1047 22.9891C74.1526 22.9891 74.1846 22.9891 74.2326 22.9891C74.6805 22.9571 75.1283 22.9411 75.5762 22.8931C75.7681 22.8771 75.8161 22.7652 75.7841 22.5732C75.7361 22.2852 75.6722 21.9813 75.6242 21.6933C75.5922 21.5493 75.5282 21.4853 75.3683 21.5013C75.1283 21.5333 74.8724 21.5653 74.6325 21.5813C74.0727 21.6293 73.4968 21.6133 72.937 21.5333C72.857 21.5173 72.7611 21.5333 72.6811 21.5653C72.6331 21.5813 72.6011 21.6613 72.5851 21.7253C72.5211 22.1092 72.4732 22.5092 72.4252 22.8931C72.3932 23.0851 72.3612 23.2611 72.3292 23.469C72.1053 23.4371 71.8973 23.4211 71.6894 23.3571C71.2735 23.2451 70.8737 23.1171 70.4738 23.0051C70.2819 22.9411 70.1059 22.8771 69.93 22.8131C69.866 22.7971 69.85 22.7652 69.866 22.7012C69.946 22.5412 70.0099 22.3652 70.0899 22.2052C70.2019 22.2532 70.2979 22.3012 70.4098 22.3332C70.7777 22.4452 71.1456 22.5732 71.5295 22.6692C71.6734 22.7172 71.7854 22.6532 71.8334 22.4932C71.9133 22.1892 71.9773 21.8853 72.0413 21.5813C72.0733 21.4533 71.9933 21.3574 71.8494 21.3094C71.5615 21.2294 71.2735 21.1654 71.0016 21.0534C70.5058 20.8614 70.0259 20.6695 69.5781 20.3815C69.4021 20.2695 69.3062 20.3015 69.2102 20.4775C68.9383 20.9414 68.6504 21.3894 68.3785 21.8533C68.3625 21.8853 68.3305 21.9333 68.2985 21.9813C68.2025 21.9173 68.1225 21.8533 68.0266 21.7893C67.6427 21.5013 67.2588 21.2134 66.8749 20.9254C66.683 20.7814 66.523 20.6055 66.3471 20.4455C66.2831 20.3815 66.2991 20.3335 66.3631 20.2855C66.4751 20.1575 66.587 20.0295 66.699 19.9176C67.0669 20.3175 67.4507 20.6375 67.8506 20.9254C67.9946 21.0374 68.0905 21.0214 68.1865 20.8774C68.3625 20.6375 68.5224 20.3975 68.6984 20.1735C68.8103 20.0136 68.7943 19.9336 68.6504 19.8056C68.2345 19.4536 67.8026 19.1017 67.4347 18.6857C67.2428 18.4618 67.0669 18.2538 66.8749 18.0298C66.763 17.9019 66.683 17.9019 66.555 17.9978C66.2191 18.2378 65.8672 18.4938 65.5314 18.7337C65.4034 18.8297 65.2754 18.9257 65.1475 19.0217C64.6356 18.3018 64.2038 17.5499 63.8999 16.75C64.0918 16.67 64.2677 16.59 64.4597 16.5101C64.5077 16.638 64.5557 16.75 64.6036 16.878C64.7156 17.118 64.8436 17.3579 64.9715 17.5979C65.0195 17.6939 65.0675 17.7899 65.1155 17.8859C65.2114 18.0458 65.3234 18.0618 65.4834 17.9658C65.7233 17.8059 65.9632 17.6619 66.2031 17.5019C66.3471 17.4059 66.3791 17.2939 66.2831 17.15C66.1712 16.958 66.0432 16.766 65.9472 16.558C65.7713 16.1581 65.6113 15.7582 65.4514 15.3422C65.3874 15.1823 65.3714 15.0223 65.3234 14.8623C65.2754 14.6863 65.1795 14.6383 64.9875 14.6703C64.4277 14.8143 63.8839 14.9423 63.324 15.0703C63.1801 14.7183 62.9562 12.8626 63.0201 12.4306Z" fill="#DDF247"/>
</svg>
