<svg width="150" id="logo" height="29" viewBox="0 0 150 29" fill="none" xmlns="http://www.w3.org/2000/svg">
<path d="M26.1839 1.33399V28.2426C26.1839 28.7065 25.9005 28.9965 25.5038 28.9965C25.0504 28.9965 24.767 28.7065 24.767 28.2426V21.1675C22.6133 25.8069 18.1927 28.9965 13.0919 28.9965C5.83753 28.9965 0 22.5593 0 14.7883C0 7.01726 5.83753 0.580078 13.0919 0.580078C18.1927 0.580078 22.6133 3.82767 24.767 8.40909V1.33399C24.767 0.986032 25.0504 0.580078 25.5038 0.580078C25.9005 0.580078 26.1839 0.986032 26.1839 1.33399ZM24.767 14.7883C24.767 7.77117 19.4962 2.08789 13.0919 2.08789C6.68766 2.08789 1.41688 7.77117 1.41688 14.7883C1.41688 21.8634 6.68766 27.5467 13.0919 27.5467C19.4962 27.5467 24.767 21.8634 24.767 14.7883Z" fill="white"/>
<path d="M29.0931 6.86262C28.9231 6.63065 28.9042 6.32136 29.0554 6.07006C31.039 2.76447 34.4773 0.580078 38.5012 0.580078C43.2619 0.580078 47.3425 3.65369 48.9294 8.00314C50.5163 3.65369 54.5969 0.580078 59.4143 0.580078C65.5352 0.580078 70.4659 5.74143 70.4659 12.0626V28.2426C70.4659 28.6485 70.1826 28.9965 69.7858 28.9965C69.4458 28.9965 69.0491 28.6485 69.0491 28.2426V12.0626C69.0491 6.49534 64.6851 2.02989 59.4143 2.02989C54.1435 2.02989 49.8551 6.32135 49.6851 11.6567V12.0626V28.2426C49.6851 28.3586 49.6851 28.4166 49.6284 28.4746C49.6284 28.5325 49.5717 28.5905 49.5717 28.6485C49.5151 28.7065 49.5151 28.7065 49.5151 28.7645C49.345 28.9385 49.1561 28.9965 48.9294 28.9965C48.5516 28.9965 48.2682 28.6679 48.2682 28.3006V12.0626C48.2682 6.49534 43.9042 2.02989 38.5201 2.02989C35.0251 2.02989 31.9458 3.94365 30.2455 6.82395C29.9811 7.24923 29.3765 7.26857 29.0931 6.86262Z" fill="white"/>
<path d="M104.169 24.8789C103.885 24.5889 103.829 24.125 104.112 23.835C104.395 23.545 104.849 23.487 105.132 23.777C105.189 23.835 109.269 27.5465 114.597 27.5465C119.641 27.5465 123.778 24.5309 123.778 20.8194C123.778 16.4699 119.641 15.542 115.277 14.4982C110.856 13.3963 105.812 12.2365 105.812 6.90113C105.812 3.07361 109.779 0 114.597 0C120.151 0 123.041 3.30558 123.155 3.47956C123.438 3.76952 123.381 4.23347 123.098 4.52343C122.758 4.8134 122.305 4.75541 122.078 4.46544C122.021 4.40745 119.471 1.50781 114.597 1.50781C110.573 1.50781 107.286 3.88551 107.286 6.90113C107.286 11.0186 111.14 11.9465 115.617 13.0484C120.151 14.0922 125.252 15.3101 125.252 20.8194C125.252 25.4008 120.548 28.9963 114.597 28.9963C108.703 28.9963 104.339 25.0528 104.169 24.8789Z" fill="white"/>
<path d="M128.917 24.8789C128.633 24.5889 128.577 24.125 128.86 23.835C129.144 23.545 129.597 23.487 129.88 23.777C129.937 23.835 134.018 27.5465 139.345 27.5465C144.389 27.5465 148.526 24.5309 148.526 20.8194C148.526 16.4699 144.389 15.542 140.025 14.4982C135.604 13.3963 130.56 12.2365 130.56 6.90113C130.56 3.07361 134.528 0 139.345 0C144.899 0 147.79 3.30558 147.903 3.47956C148.186 3.76952 148.13 4.23347 147.846 4.52343C147.506 4.8134 147.053 4.75541 146.826 4.46544C146.769 4.40745 144.219 1.50781 139.345 1.50781C135.321 1.50781 132.034 3.88551 132.034 6.90113C132.034 11.0186 135.888 11.9465 140.365 13.0484C144.899 14.0922 150 15.3101 150 20.8194C150 25.4008 145.296 28.9963 139.345 28.9963C133.451 28.9963 129.087 25.0528 128.917 24.8789Z" fill="white"/>
<path d="M73.942 15.2908C73.9986 16.006 74.0553 16.7213 74.1498 17.4365C74.2064 17.8231 74.3009 18.2097 74.3954 18.577C74.452 18.7897 74.5843 18.8477 74.7732 18.7897C75.2077 18.6543 75.6611 18.5384 76.0956 18.403C76.3034 18.3451 76.5112 18.2677 76.7002 18.2097C76.9646 19.0796 77.2858 19.9109 77.7203 20.6841C77.5314 20.8001 77.3425 20.9161 77.1536 21.032C77.0591 20.8774 76.9646 20.7227 76.8891 20.5488C76.719 20.1815 76.5679 19.8335 76.4168 19.4662C76.3223 19.2343 76.209 19.1956 76.0012 19.2729C75.68 19.3889 75.3588 19.5049 75.0377 19.6209C74.8299 19.6982 74.7543 19.8529 74.8488 20.0848C75.0377 20.5294 75.2266 20.9741 75.4344 21.3993C75.5666 21.6893 75.7178 21.9793 75.8689 22.2306C76.1334 22.6558 76.4357 23.0618 76.719 23.4677C76.8324 23.6224 76.9646 23.6417 77.1347 23.5257C77.3236 23.3711 77.5314 23.2164 77.7203 23.0425C77.7959 22.9845 77.8714 22.9071 77.947 22.8491C78.0792 22.7332 78.2115 22.6365 78.3626 22.5205C78.4949 22.4239 78.6271 22.3079 78.7594 22.2112C79.3072 22.9265 79.9306 23.5451 80.6107 24.1057C80.4785 24.299 80.3462 24.4729 80.1951 24.6856C79.7606 24.2796 79.3639 23.8737 78.9483 23.4871C78.7971 23.3518 78.6649 23.3324 78.5137 23.4677C78.2493 23.719 78.0037 23.9703 77.7392 24.2216C77.5881 24.3763 77.5692 24.4923 77.7203 24.6663C77.9848 24.9562 78.2682 25.2462 78.5515 25.5168C78.7971 25.7488 79.0805 25.9614 79.345 26.1547C79.6661 26.406 79.9873 26.638 80.3274 26.87C80.4407 26.9666 80.5729 27.0439 80.7052 27.1213C80.8752 27.2179 81.0264 27.1793 81.1208 27.0053C81.2153 26.8506 81.3097 26.696 81.3853 26.522C81.5364 26.2514 81.6687 25.9614 81.8198 25.6908C81.9143 25.5168 82.0087 25.3235 82.1032 25.1495C82.8777 25.5748 83.6712 25.9421 84.5213 26.1547C84.4646 26.3674 84.408 26.58 84.3324 26.812C84.0679 26.7347 83.8034 26.6573 83.5578 26.58C83.2745 26.4834 82.9911 26.348 82.7077 26.2321C82.5377 26.1547 82.4243 26.2127 82.3488 26.3674C82.1787 26.7347 82.0087 27.1019 81.8576 27.4499C81.8009 27.5659 81.8198 27.6819 81.9332 27.7399C82.1599 27.8558 82.3866 28.0105 82.6321 28.0878C83.3689 28.3198 84.1246 28.5518 84.8614 28.7644C85.1258 28.8417 85.4092 28.8611 85.6737 28.8804C85.8815 28.8997 86.0138 28.8224 86.0326 28.6677C86.0704 28.2231 86.1271 27.7592 86.1649 27.3146C86.1838 27.0633 86.2216 26.7927 86.2405 26.522C87.1284 26.6187 87.9785 26.6187 88.8475 26.5027C88.8853 26.7347 88.9042 26.9473 88.9231 27.1793C88.8475 27.1793 88.8097 27.1986 88.753 27.1986C88.243 27.2179 87.7329 27.2373 87.2228 27.2566C87.0339 27.2566 86.9394 27.3726 86.9205 27.5659C86.9017 27.9332 86.8828 28.3198 86.8639 28.6871C86.8639 28.8417 86.9206 28.9384 87.0528 28.977C87.1095 28.9964 87.185 28.9964 87.2417 28.9964C87.9974 29.0157 88.7342 28.9577 89.4709 28.8417C89.9621 28.7644 90.4344 28.6484 90.9256 28.5324C91.1334 28.4744 91.209 28.3391 91.1334 28.1265C90.9634 27.4886 90.7745 26.8506 90.6044 26.2127C90.6044 26.1741 90.5855 26.1547 90.5855 26.1161C91.4168 25.8261 92.2102 25.5168 92.9659 25.0529C93.0792 25.2462 93.1926 25.4395 93.3059 25.6521C93.0415 25.7874 92.7959 25.9421 92.5314 26.0774C92.2669 26.2127 92.0024 26.3094 91.7379 26.4447C91.5868 26.522 91.549 26.638 91.6057 26.812C91.719 27.1599 91.8513 27.5079 91.9646 27.8559C92.0402 28.0685 92.1913 28.1458 92.3803 28.0492C92.8337 27.8365 93.2871 27.6239 93.7405 27.3919C93.8538 27.3339 93.9672 27.2566 94.0616 27.1986C94.4017 26.986 94.7417 26.7927 95.0629 26.5607C95.2896 26.406 95.4785 26.2321 95.6863 26.0774C95.7996 25.9808 95.8185 25.8068 95.743 25.6908C95.6296 25.5168 95.4974 25.3622 95.3651 25.2075C95.1195 24.8982 94.8551 24.5696 94.6095 24.2603C94.5528 24.2023 94.515 24.1443 94.4772 24.067C94.4583 24.0283 94.4772 23.9703 94.4961 23.951C94.685 23.777 94.874 23.6031 95.0629 23.4291C95.3651 23.1198 95.6674 22.7912 95.9697 22.4625C96.0641 22.3465 96.1586 22.2306 96.253 22.0952C96.442 22.2306 96.612 22.3659 96.782 22.5012C96.6876 22.6365 96.5931 22.7718 96.4797 22.8878C96.1964 23.2164 95.8941 23.5257 95.6107 23.8544C95.4974 23.9897 95.4785 24.1057 95.6107 24.241C95.8563 24.5116 96.1208 24.8016 96.3664 25.0722C96.5175 25.2268 96.6309 25.2268 96.782 25.0915C96.9143 24.9562 97.0654 24.8209 97.1787 24.6663C97.4243 24.3956 97.6888 24.125 97.9155 23.8157C98.2178 23.4097 98.5012 22.9845 98.7845 22.5592C98.8979 22.3852 99.0112 22.2306 99.1057 22.0373C99.219 21.8246 99.1813 21.6506 98.9735 21.5347C98.5012 21.264 98.0289 20.9934 97.5755 20.7228C97.4621 20.6648 97.3488 20.6068 97.2165 20.5488C97.6321 19.7369 97.9722 18.9056 98.18 18.0164C98.4067 18.0744 98.6145 18.1517 98.8223 18.2097C98.7279 18.519 98.6523 18.809 98.5578 19.099C98.4634 19.3696 98.35 19.6209 98.2556 19.8722C98.18 20.0655 98.2178 20.1815 98.3878 20.2588C98.709 20.4135 99.049 20.5681 99.3702 20.7421C99.5591 20.8387 99.6913 20.7614 99.7858 20.5681C99.8803 20.3555 99.9747 20.1622 100.05 19.9302C100.258 19.2536 100.466 18.5577 100.636 17.8618C100.73 17.5138 100.749 17.1465 100.787 16.7986C100.825 16.5473 100.73 16.4313 100.485 16.412C100.126 16.3733 99.7858 16.354 99.4268 16.3153C99.1246 16.2766 98.8223 16.238 98.5201 16.2187C98.5389 15.774 98.5578 15.3294 98.5578 14.9042C98.5578 14.4789 98.5201 14.0343 98.5012 13.5896C98.709 13.5703 98.9168 13.5317 99.1246 13.5123C99.1246 13.5703 99.1435 13.609 99.1435 13.6477C99.1624 14.1503 99.1813 14.6529 99.2001 15.1555C99.2001 15.3488 99.2946 15.4841 99.4646 15.4841C99.8425 15.5034 100.201 15.5227 100.579 15.5421C100.768 15.5421 100.882 15.4454 100.9 15.2521C100.9 15.2135 100.9 15.1555 100.9 15.1168C100.919 14.0923 100.787 13.087 100.617 12.0818C100.579 11.8499 100.504 11.6179 100.447 11.3859C100.39 11.212 100.277 11.1346 100.145 11.1733C99.6347 11.3279 99.1246 11.4633 98.6145 11.6179C98.4445 11.6759 98.2745 11.7146 98.1233 11.7726C97.8588 10.9027 97.5377 10.0714 97.1032 9.2982C97.2921 9.18222 97.481 9.06622 97.6699 8.95024C97.7833 9.14354 97.8966 9.31752 97.9722 9.53016C98.1233 9.85879 98.2556 10.1874 98.3878 10.5354C98.4823 10.748 98.5767 10.806 98.8034 10.7287C99.1246 10.6127 99.4646 10.4967 99.7858 10.3807C99.9936 10.3034 100.069 10.1488 99.9747 9.95544C99.8425 9.62682 99.7102 9.2982 99.5591 8.96957C99.408 8.62162 99.2379 8.27366 99.0301 7.96436C98.7279 7.46176 98.3878 6.99782 98.0666 6.51455C97.9911 6.37923 97.8211 6.37923 97.7077 6.45656C97.5944 6.55321 97.481 6.64987 97.3488 6.74652C96.9898 7.03648 96.6498 7.34577 96.2908 7.63574C96.2153 7.69373 96.1397 7.73239 96.0641 7.79038C95.5163 7.09447 94.9117 6.45656 94.2316 5.91529C94.3639 5.72199 94.4961 5.548 94.6284 5.37402C94.7417 5.45134 94.8362 5.52867 94.9306 5.60599C95.2707 5.91529 95.5918 6.24391 95.913 6.57254C96.0263 6.68852 96.1964 6.70786 96.3097 6.59188C96.5742 6.34057 96.8198 6.08927 97.0843 5.83797C97.2543 5.66399 97.2732 5.548 97.1032 5.35469C96.952 5.18072 96.782 5.02607 96.612 4.8521C96.4986 4.73611 96.4042 4.62012 96.2908 4.52347C96.0263 4.31083 95.7807 4.09819 95.5163 3.88555C95.1951 3.63425 94.8551 3.40227 94.515 3.15097C94.4017 3.07364 94.2883 2.977 94.1561 2.91901C93.9672 2.80302 93.816 2.861 93.7216 3.05431C93.5326 3.4216 93.3248 3.78889 93.1359 4.13685C93.0037 4.38815 92.8714 4.63945 92.7392 4.89075C91.9646 4.46547 91.1712 4.09819 90.3211 3.88555C90.3777 3.67291 90.4533 3.44094 90.51 3.2283C90.7745 3.30562 91.0389 3.36361 91.2845 3.46027C91.5679 3.55692 91.8324 3.69224 92.0969 3.80822C92.3047 3.90488 92.418 3.84689 92.5125 3.65358C92.6636 3.32495 92.7959 3.01566 92.947 2.68703C93.0604 2.43573 93.0226 2.31975 92.777 2.20376C92.5692 2.10711 92.3803 2.01045 92.1724 1.93312C91.5112 1.72048 90.85 1.50785 90.1888 1.33387C89.8677 1.23722 89.5087 1.21789 89.1687 1.17923C88.9797 1.1599 88.8286 1.23721 88.8286 1.39186C88.7908 1.79781 88.753 2.18443 88.7153 2.59038C88.6775 2.89967 88.6586 3.20896 88.6397 3.53759C87.7518 3.44093 86.9017 3.44094 86.0138 3.55692C85.976 3.32495 85.9571 3.11231 85.9382 2.88034C85.9949 2.88034 86.0138 2.861 86.0326 2.861C86.5427 2.84167 87.0717 2.80302 87.5818 2.78369C87.8085 2.78369 87.9029 2.68703 87.9218 2.45506C87.9407 2.08777 87.9596 1.70116 87.9785 1.33387C87.9785 1.19856 87.9218 1.12123 87.8085 1.08257C87.7329 1.04391 87.6384 1.04391 87.5629 1.04391C86.8072 1.02458 86.0704 1.08256 85.3337 1.21788C84.8614 1.2952 84.3891 1.41119 83.8979 1.52718C83.6712 1.58517 83.6145 1.72048 83.6712 1.93312C83.8412 2.55171 84.0301 3.18963 84.2002 3.80822C84.219 3.84688 84.219 3.88554 84.219 3.9242C83.3878 4.21417 82.5944 4.52346 81.8387 4.9874C81.7253 4.79409 81.612 4.60079 81.4986 4.38815C81.7631 4.25283 82.0276 4.09818 82.2921 3.96287C82.5566 3.82755 82.8211 3.7309 83.0855 3.59559C83.2367 3.51826 83.2745 3.40227 83.2178 3.24762C83.1044 2.89967 82.9722 2.55172 82.8588 2.20376C82.7833 2.01045 82.6321 1.93313 82.4432 2.01045C82.0276 2.20376 81.612 2.39707 81.2153 2.59038C81.0641 2.6677 80.913 2.76435 80.743 2.861C80.4029 3.07364 80.0818 3.26696 79.7417 3.4796C79.515 3.63424 79.3072 3.80822 79.0994 3.96287C78.986 4.05952 78.9672 4.2335 79.0427 4.34949C79.1372 4.4848 79.2505 4.62012 79.3639 4.75544C79.6473 5.12273 79.9495 5.49001 80.2518 5.85729C80.2707 5.89595 80.3085 5.93462 80.3274 5.97329C80.3274 6.01195 80.3274 6.06993 80.3085 6.08927C80.1195 6.26324 79.9306 6.43722 79.7417 6.6112C79.4394 6.9205 79.1372 7.24912 78.8349 7.57775C78.7405 7.69373 78.646 7.80972 78.5515 7.94504C78.3815 7.80972 78.2115 7.6744 78.0226 7.53908C78.117 7.40377 78.1926 7.28779 78.2871 7.1718C78.5704 6.84318 78.8727 6.51455 79.175 6.18592C79.3072 6.03127 79.3072 5.93462 79.175 5.77998C78.9294 5.50934 78.6838 5.23871 78.4193 4.96808C78.2682 4.81343 78.1548 4.7941 78.0037 4.94875C77.8525 5.08407 77.7203 5.23871 77.5692 5.39336C77.4369 5.52867 77.3047 5.64466 77.1913 5.77998C76.9835 6.05061 76.7757 6.32124 76.5868 6.59188C76.3412 6.9205 76.1145 7.26846 75.8878 7.61641C75.7934 7.75173 75.7178 7.86771 75.6422 8.00303C75.5478 8.17701 75.5666 8.37031 75.68 8.44764C75.8689 8.56362 76.0767 8.67961 76.2656 8.79559C76.549 8.95024 76.8324 9.10489 77.1158 9.25954C77.248 9.33686 77.3991 9.41419 77.5314 9.49151C77.1158 10.3034 76.7757 11.1346 76.5679 12.0239C76.3412 11.9659 76.1334 11.8885 75.9256 11.8305C76.0012 11.5406 76.0767 11.2506 76.1712 10.98C76.2656 10.7093 76.379 10.4387 76.4923 10.1681C76.5679 9.97478 76.5301 9.8588 76.3412 9.78147C76.02 9.62683 75.6989 9.47217 75.3777 9.31753C75.151 9.22087 75.0377 9.25954 74.9432 9.49151C74.6032 10.2261 74.3954 10.9993 74.2064 11.7919C74.0931 12.2558 74.0364 12.7391 73.9609 13.2224C73.9231 13.4737 74.0364 13.5897 74.2631 13.609C74.6976 13.6476 75.151 13.6863 75.5855 13.725C75.7933 13.7443 76.0012 13.783 76.2279 13.8023C76.1334 14.6915 76.1523 15.5421 76.2467 16.4313C76.02 16.4506 75.8122 16.4893 75.6044 16.5086C75.6044 16.47 75.6044 16.4313 75.5855 16.412C75.5666 15.89 75.5289 15.3874 75.51 14.8655C75.51 14.6335 75.4155 14.5369 75.1888 14.5175C74.8488 14.4982 74.4898 14.4789 74.1498 14.4789C73.942 14.4789 73.8286 14.5755 73.8286 14.7882C73.942 14.9428 73.942 15.1168 73.942 15.2908ZM74.4331 15.0201C74.6598 15.0201 74.8865 15.0201 75.151 15.0201C75.151 15.0588 75.151 15.1168 75.151 15.1748C75.1888 15.716 75.2077 16.2573 75.2455 16.7792C75.2644 17.0305 75.3966 17.1272 75.6422 17.0885C75.9634 17.0306 76.2845 16.9726 76.6057 16.9146C76.7946 16.8759 76.8891 16.7793 76.8513 16.5666C76.7568 15.9094 76.719 15.2521 76.7568 14.5949C76.7757 14.2662 76.7946 13.9569 76.8324 13.6477C76.8513 13.4157 76.7757 13.2997 76.549 13.261C75.9067 13.1644 75.2833 13.0677 74.641 12.9711C74.6221 12.9711 74.6032 12.9517 74.5843 12.9517C74.5843 12.3911 75.0755 10.516 75.3777 9.89745C75.5855 9.99411 75.8122 10.0908 76.0389 10.1874C75.9445 10.4387 75.85 10.69 75.7745 10.9413C75.68 11.2893 75.5855 11.6372 75.51 11.9852C75.4722 12.1398 75.5478 12.2558 75.6989 12.2945C76.0578 12.3911 76.4168 12.4685 76.7757 12.5458C76.9457 12.5844 77.0402 12.5071 77.0969 12.3138C77.1913 11.9659 77.2858 11.5986 77.3991 11.2506C77.607 10.6514 77.8525 10.0714 78.1737 9.53016C78.2871 9.31752 78.2682 9.22087 78.0604 9.08555C77.6258 8.81492 77.2102 8.54429 76.7757 8.27365C76.6246 8.177 76.4735 8.09968 76.3034 8.00303C76.8513 7.09448 77.4558 6.26325 78.1737 5.52868C78.3626 5.70266 78.5326 5.87663 78.7027 6.03128C78.5515 6.20525 78.4193 6.3599 78.2871 6.51455C78.1548 6.66919 78.0037 6.82384 77.8714 6.99782C77.7581 7.13314 77.6447 7.28778 77.5314 7.44243C77.418 7.61641 77.4369 7.73239 77.607 7.86771C77.8903 8.08035 78.1548 8.27366 78.4382 8.4863C78.6271 8.62162 78.7216 8.60228 78.8727 8.40897C79.1372 8.08035 79.4017 7.73239 79.685 7.44243C80.044 7.07514 80.4218 6.72719 80.7997 6.37923C80.8563 6.32124 80.913 6.28258 80.9697 6.22458C81.0641 6.12793 81.083 6.01194 80.9886 5.89596C80.8374 5.66399 80.6674 5.43202 80.4974 5.20005C80.3085 4.92942 80.1195 4.67811 79.9306 4.40748C79.874 4.33015 79.8173 4.2335 79.7606 4.11751C80.5918 3.51825 81.442 2.977 82.4054 2.59038C82.4999 2.82235 82.5755 3.03499 82.6699 3.26696C82.5944 3.30562 82.5377 3.34428 82.4621 3.38294C82.1221 3.55692 81.7631 3.75023 81.4231 3.9242C81.3097 3.9822 81.1964 4.02086 81.1019 4.09819C80.913 4.21417 80.8941 4.34949 81.0075 4.54279C81.1775 4.83276 81.3475 5.12272 81.5364 5.41268C81.6687 5.62532 81.8009 5.66399 82.0087 5.52868C82.2354 5.39336 82.4621 5.23871 82.7077 5.12272C83.1611 4.91008 83.6334 4.71678 84.1057 4.52347C84.2757 4.44614 84.4835 4.42682 84.6535 4.36882C84.8425 4.31083 84.8991 4.17551 84.8614 3.98221C84.6913 3.30562 84.5402 2.60971 84.3891 1.93312C84.6913 1.75915 86.8072 1.50784 87.3928 1.54651C87.3928 1.79781 87.3928 2.02978 87.3928 2.30042C87.2984 2.30042 87.185 2.30042 87.0906 2.30042C86.6372 2.31975 86.2027 2.35841 85.7493 2.39707C85.4281 2.4164 85.3525 2.55172 85.4281 2.88034C85.4848 3.18964 85.5415 3.49893 85.5792 3.7889C85.617 4.0402 85.7115 4.11752 85.9571 4.07886C86.9017 3.92421 87.8651 3.92421 88.8097 4.05952C89.0364 4.09818 89.1498 4.00153 89.1876 3.76956C89.282 3.13164 89.3765 2.51305 89.452 1.87513C89.452 1.83647 89.4709 1.77848 89.4709 1.73982C89.9999 1.73982 91.8702 2.26175 92.418 2.57104C92.3236 2.80301 92.2291 3.01566 92.1347 3.26696C91.9646 3.18964 91.8324 3.11231 91.6624 3.07365C91.2656 2.93834 90.85 2.82235 90.4533 2.70636C90.2455 2.64837 90.1321 2.72569 90.0944 2.93833C89.9999 3.28629 89.9243 3.65357 89.8488 4.02086C89.811 4.17551 89.8865 4.29149 90.0377 4.34949C90.2077 4.40748 90.3777 4.46547 90.5478 4.50413C91.02 4.62012 91.4735 4.83276 91.908 5.0454C92.2102 5.20005 92.5125 5.3547 92.8148 5.52868C92.9659 5.606 93.0792 5.56733 93.1737 5.41268C93.5138 4.85209 93.8349 4.2915 94.175 3.71157C94.1939 3.67291 94.2316 3.61492 94.2694 3.55692C94.3828 3.65358 94.4961 3.7309 94.6095 3.80822C95.044 4.13685 95.4785 4.46547 95.8941 4.79409C96.1019 4.96807 96.3097 5.16139 96.5175 5.35469C96.6687 5.50934 96.6687 5.50934 96.5175 5.66398C96.3853 5.77997 96.2719 5.91529 96.1775 6.03128C95.8563 5.72198 95.5352 5.43202 95.214 5.16139C95.0818 5.0454 94.9495 4.92941 94.7984 4.83276C94.6284 4.71677 94.515 4.73611 94.4017 4.91009C94.1939 5.20005 94.0049 5.49001 93.7971 5.77998C93.6649 5.95395 93.7027 6.06994 93.8538 6.20526C94.175 6.47589 94.4961 6.74652 94.7984 7.05581C95.1573 7.4231 95.4785 7.80972 95.8185 8.19634C95.8374 8.21567 95.8563 8.235 95.8752 8.25433C96.1019 8.52496 96.1397 8.52497 96.4231 8.33166C96.8576 8.02236 97.2732 7.69374 97.7077 7.36511C97.8022 7.28779 97.9155 7.22979 98.0289 7.15246C98.6334 8.02235 99.1246 8.93091 99.5024 9.89745C99.2757 9.99411 99.0679 10.0908 98.8412 10.1874C98.7845 10.0521 98.7468 9.89746 98.6901 9.78147C98.5389 9.49151 98.3878 9.18221 98.2367 8.89225C98.18 8.77626 98.1233 8.66028 98.0478 8.54429C97.9344 8.35098 97.8022 8.33165 97.6133 8.44764C97.3299 8.64095 97.0465 8.81493 96.7631 9.00824C96.5931 9.12422 96.5553 9.25953 96.6687 9.43351C96.8009 9.68481 96.9709 9.93611 97.0843 10.2067C97.2921 10.6707 97.481 11.154 97.651 11.6372C97.7266 11.8305 97.7455 12.0239 97.8022 12.2172C97.8588 12.4105 97.9722 12.4878 98.18 12.4298C98.8412 12.2558 99.5024 12.1012 100.145 11.9465C100.296 12.2172 100.579 14.4789 100.504 15.0588C100.277 15.0588 100.031 15.0588 99.7858 15.0588C99.7858 14.9428 99.7858 14.8268 99.7858 14.7302C99.748 14.2469 99.7291 13.7636 99.6913 13.2804C99.6724 13.0484 99.5213 12.9517 99.3135 12.9904C98.9735 13.0484 98.6334 13.1064 98.3122 13.1644C98.1422 13.203 98.0667 13.2997 98.0855 13.5123C98.1233 13.9569 98.18 14.3822 98.1989 14.8268C98.1989 15.3488 98.1611 15.89 98.1233 16.412C98.1044 16.6826 98.1611 16.7792 98.4256 16.8179C99.049 16.9146 99.6913 17.0112 100.315 17.1079C100.334 17.1079 100.353 17.1079 100.371 17.1272C100.277 18.1904 99.918 19.1763 99.5969 20.1815C99.3702 20.0655 99.1435 19.9688 98.9168 19.8722C99.0112 19.6402 99.0868 19.4083 99.1624 19.1763C99.2757 18.8283 99.3702 18.4804 99.4457 18.1131C99.4835 17.9198 99.408 17.8038 99.2379 17.7458C98.8979 17.6491 98.5389 17.5718 98.1989 17.4945C98.01 17.4558 97.9155 17.5332 97.8588 17.7071C97.7644 18.0551 97.6888 18.3837 97.5755 18.7123C97.4621 19.0216 97.3299 19.3309 97.1976 19.6402C97.0654 19.9495 96.9143 20.2395 96.7631 20.5488C96.6876 20.7034 96.7065 20.8194 96.8576 20.9161C97.0465 21.0514 97.2543 21.1674 97.4621 21.2834C97.7077 21.438 97.9344 21.5926 98.18 21.7473C98.3311 21.8439 98.5012 21.9406 98.6523 22.0373C98.1044 22.9458 97.4999 23.777 96.782 24.5116C96.5931 24.3376 96.4231 24.1636 96.2908 24.0283C96.6876 23.5451 97.0654 23.0618 97.4243 22.5979C97.5566 22.4432 97.5188 22.3079 97.3488 22.1919C97.0654 21.9793 96.8009 21.786 96.5175 21.5733C96.3286 21.438 96.2342 21.4573 96.083 21.6506C95.7996 21.9986 95.5163 22.3659 95.214 22.6945C94.874 23.0425 94.4961 23.3711 94.1372 23.719C94.0805 23.777 94.0049 23.8157 93.9672 23.893C93.9294 23.9703 93.9105 24.067 93.9294 24.125C93.9672 24.241 94.0238 24.3376 94.0994 24.4343C94.345 24.7822 94.6095 25.1302 94.8551 25.4781C94.9684 25.6328 95.0629 25.7874 95.1951 25.9421C94.3639 26.5607 93.4949 27.0826 92.5314 27.4886C92.4369 27.2566 92.3614 27.0246 92.2669 26.7927C92.3991 26.7347 92.5125 26.696 92.6258 26.638C92.9092 26.4834 93.2115 26.3287 93.4949 26.1741C93.6082 26.1161 93.7216 26.0581 93.816 26.0001C94.0238 25.8648 94.0427 25.7488 93.9105 25.5361C93.7404 25.2462 93.5515 24.9562 93.3815 24.6663C93.2682 24.4923 93.1359 24.4536 92.947 24.5503C92.7014 24.6856 92.4747 24.8402 92.2291 24.9562C91.7568 25.1689 91.2845 25.3815 90.7933 25.5748C90.6233 25.6521 90.4155 25.6715 90.2455 25.7295C90.0755 25.7875 90.0188 25.9034 90.0566 26.0967C90.2077 26.754 90.3588 27.4112 90.51 28.0685C90.51 28.0878 90.51 28.1265 90.5289 28.1458C90.1321 28.3198 87.9596 28.5904 87.5251 28.5131C87.5251 28.2811 87.5251 28.0298 87.5251 27.7785C87.5818 27.7785 87.6195 27.7785 87.6762 27.7785C88.2052 27.7399 88.7342 27.7205 89.2631 27.6625C89.4898 27.6432 89.5465 27.5079 89.5087 27.2759C89.452 26.928 89.3765 26.5607 89.3198 26.2127C89.282 26.0388 89.2065 25.9614 89.0175 25.9808C88.7342 26.0194 88.4319 26.0581 88.1485 26.0774C87.4873 26.1354 86.8072 26.1161 86.146 26.0194C86.0515 26.0001 85.9382 26.0194 85.8437 26.0581C85.7871 26.0774 85.7493 26.1741 85.7304 26.2514C85.6548 26.7153 85.5981 27.1986 85.5415 27.6625C85.5037 27.8945 85.4659 28.1072 85.4281 28.3585C85.1636 28.3198 84.918 28.3005 84.6724 28.2231C84.1813 28.0878 83.709 27.9332 83.2367 27.7979C83.01 27.7205 82.8022 27.6432 82.5944 27.5659C82.5188 27.5466 82.4999 27.5079 82.5188 27.4306C82.6132 27.2373 82.6888 27.0246 82.7833 26.8313C82.9155 26.8893 83.0289 26.9473 83.1611 26.986C83.5956 27.1213 84.0301 27.2759 84.4835 27.3919C84.6536 27.4499 84.7858 27.3726 84.8425 27.1793C84.9369 26.812 85.0125 26.4447 85.0881 26.0774C85.1258 25.9228 85.0314 25.8068 84.8614 25.7488C84.5213 25.6521 84.1813 25.5748 83.8601 25.4395C83.2745 25.2075 82.7077 24.9756 82.1787 24.6276C81.9709 24.4923 81.8576 24.5309 81.7442 24.7436C81.4231 25.3042 81.083 25.8454 80.7619 26.406C80.743 26.4447 80.7052 26.5027 80.6674 26.5607C80.5541 26.4834 80.4596 26.406 80.3462 26.3287C79.8928 25.9808 79.4394 25.6328 78.986 25.2848C78.7593 25.1109 78.5704 24.8982 78.3626 24.7049C78.2871 24.6276 78.3059 24.5696 78.3815 24.5116C78.5138 24.357 78.646 24.2023 78.7782 24.067C79.2127 24.5503 79.6661 24.9369 80.1384 25.2848C80.3085 25.4202 80.4218 25.4008 80.5352 25.2268C80.743 24.9369 80.9319 24.6469 81.1397 24.3763C81.2719 24.183 81.2531 24.0863 81.083 23.9317C80.5918 23.5064 80.0818 23.0811 79.6473 22.5785C79.4205 22.3079 79.2127 22.0566 78.986 21.786C78.8538 21.6313 78.7593 21.6313 78.6082 21.7473C78.2115 22.0373 77.7959 22.3466 77.3991 22.6365C77.248 22.7525 77.0969 22.8685 76.9457 22.9845C76.3412 22.1146 75.8311 21.206 75.4722 20.2395C75.6989 20.1428 75.9067 20.0462 76.1334 19.9495C76.1901 20.1042 76.2468 20.2395 76.3034 20.3941C76.4357 20.6841 76.5868 20.9741 76.7379 21.264C76.7946 21.38 76.8513 21.496 76.908 21.612C77.0213 21.8053 77.1536 21.8246 77.3425 21.7086C77.6258 21.5153 77.9092 21.3413 78.1926 21.148C78.3626 21.032 78.4004 20.8967 78.2871 20.7228C78.1548 20.4908 78.0037 20.2588 77.8903 20.0075C77.6825 19.5242 77.4936 19.041 77.3047 18.5384C77.2291 18.3451 77.2102 18.1517 77.1536 17.9584C77.0969 17.7458 76.9835 17.6878 76.7568 17.7265C76.0956 17.9004 75.4533 18.0551 74.7921 18.2097C74.6221 17.7845 74.3576 15.5421 74.4331 15.0201Z" fill="white"/>
</svg>
