<svg width="377" height="388" viewBox="0 0 377 388" fill="none" xmlns="http://www.w3.org/2000/svg">
<path opacity="0.05" d="M1.5785 197.562C2.3677 207.477 3.15684 217.393 4.47217 227.309C5.26137 232.669 6.57667 238.029 7.89201 243.12C8.68121 246.068 10.5227 246.872 13.1533 246.068C19.2039 244.192 25.5175 242.584 31.568 240.708C34.4618 239.904 37.3555 238.832 39.9862 238.028C43.6692 250.088 48.1414 261.612 54.1919 272.332C51.5612 273.94 48.9306 275.547 46.2999 277.155C44.9846 275.012 43.6692 272.868 42.6169 270.456C40.2493 265.364 38.1447 260.54 36.0402 255.448C34.7249 252.232 33.1464 251.696 30.2527 252.768C25.7806 254.376 21.3085 255.984 16.8364 257.592C13.9426 258.664 12.8903 260.808 14.2057 264.024C16.8364 270.188 19.467 276.352 22.3607 282.247C24.2022 286.267 26.3067 290.287 28.4112 293.771C32.0941 299.667 36.3032 305.295 40.2492 310.923C41.8276 313.067 43.6691 313.335 46.0367 311.727C48.6674 309.583 51.5612 307.439 54.1919 305.027C55.2442 304.223 56.2963 303.151 57.3486 302.347C59.19 300.739 61.0315 299.399 63.1361 297.791C64.9775 296.451 66.8191 294.843 68.6606 293.503C76.2895 303.419 84.9707 311.995 94.4411 319.766C92.5996 322.446 90.7581 324.858 88.6536 327.806C82.6031 322.178 77.0787 316.551 71.2912 311.191C69.1867 309.315 67.3451 309.047 65.2406 310.923C61.5576 314.407 58.1378 317.89 54.4549 321.374C52.3504 323.518 52.0874 325.126 54.1919 327.538C57.8748 331.558 61.8207 335.578 65.7667 339.33C69.1866 342.546 73.1327 345.494 76.8156 348.174C81.2877 351.658 85.7599 354.874 90.4951 358.09C92.0735 359.43 93.915 360.501 95.7564 361.573C98.124 362.913 100.229 362.377 101.544 359.966C102.859 357.822 104.175 355.678 105.227 353.266C107.331 349.514 109.173 345.494 111.277 341.742C112.593 339.33 113.908 336.65 115.223 334.238C126.009 340.134 137.058 345.226 148.896 348.174C148.107 351.122 147.318 354.07 146.265 357.286C142.582 356.214 138.899 355.142 135.479 354.07C131.533 352.73 127.587 350.854 123.641 349.246C121.274 348.174 119.696 348.978 118.643 351.122C116.276 356.214 113.908 361.305 111.803 366.129C111.014 367.737 111.277 369.345 112.856 370.149C116.013 371.757 119.169 373.901 122.589 374.973C132.849 378.189 143.372 381.405 153.631 384.353C157.314 385.425 161.26 385.693 164.943 385.961C167.837 386.229 169.678 385.157 169.941 383.013C170.468 376.849 171.257 370.417 171.783 364.253C172.046 360.769 172.572 357.018 172.835 353.266C185.199 354.606 197.037 354.606 209.138 352.998C209.664 356.214 209.928 359.162 210.191 362.378C209.138 362.378 208.612 362.645 207.823 362.645C200.72 362.913 193.617 363.181 186.515 363.449C183.884 363.449 182.568 365.057 182.305 367.737C182.042 372.829 181.779 378.189 181.516 383.281C181.516 385.425 182.305 386.765 184.147 387.301C184.936 387.569 185.988 387.569 186.778 387.569C197.3 387.837 207.56 387.033 217.819 385.425C224.659 384.353 231.236 382.745 238.076 381.137C240.969 380.333 242.022 378.457 240.969 375.509C238.602 366.665 235.971 357.822 233.603 348.978C233.603 348.442 233.34 348.174 233.34 347.638C244.915 343.618 255.964 339.33 266.487 332.898C268.065 335.578 269.644 338.258 271.222 341.206C267.539 343.082 264.119 345.226 260.436 347.102C256.753 348.978 253.07 350.318 249.387 352.194C247.283 353.266 246.757 354.874 247.546 357.286C249.125 362.109 250.966 366.933 252.544 371.757C253.597 374.705 255.701 375.777 258.332 374.437C264.645 371.489 270.959 368.541 277.273 365.325C278.851 364.521 280.43 363.449 281.745 362.645C286.48 359.698 291.215 357.018 295.687 353.802C298.844 351.658 301.475 349.246 304.369 347.102C305.947 345.762 306.21 343.35 305.158 341.742C303.579 339.33 301.738 337.186 299.896 335.042C296.476 330.754 292.794 326.198 289.374 321.91C288.584 321.106 288.058 320.302 287.532 319.23C287.269 318.694 287.532 317.891 287.795 317.623C290.426 315.211 293.057 312.799 295.687 310.387C299.896 306.099 304.105 301.543 308.315 296.987C309.63 295.379 310.945 293.771 312.261 291.895C314.891 293.771 317.259 295.647 319.626 297.523C318.311 299.399 316.996 301.275 315.417 302.883C311.471 307.439 307.262 311.727 303.316 316.283C301.738 318.159 301.475 319.767 303.316 321.642C306.736 325.394 310.419 329.414 313.839 333.166C315.943 335.31 317.522 335.31 319.626 333.434C321.468 331.558 323.572 329.682 325.151 327.538C328.571 323.786 332.254 320.034 335.41 315.747C339.619 310.119 343.566 304.223 347.512 298.327C349.09 295.915 350.668 293.771 351.984 291.091C353.562 288.143 353.036 285.731 350.142 284.123C343.566 280.371 336.989 276.62 330.675 272.868C329.097 272.064 327.518 271.26 325.677 270.456C331.464 259.2 336.2 247.676 339.093 235.349C342.25 236.153 345.144 237.224 348.038 238.028C346.722 242.316 345.67 246.336 344.355 250.356C343.039 254.108 341.461 257.592 340.146 261.076C339.093 263.756 339.619 265.364 341.987 266.436C346.459 268.58 351.194 270.724 355.667 273.136C358.297 274.476 360.139 273.404 361.454 270.724C362.769 267.776 364.085 265.096 365.137 261.88C368.031 252.5 370.925 242.852 373.292 233.205C374.607 228.381 374.87 223.289 375.397 218.465C375.923 214.981 374.607 213.373 371.188 213.105C366.189 212.569 361.454 212.301 356.456 211.765C352.247 211.229 348.038 210.693 343.829 210.425C344.092 204.261 344.355 198.098 344.355 192.202C344.355 186.306 343.829 180.142 343.566 173.978C346.459 173.71 349.353 173.174 352.247 172.906C352.247 173.71 352.51 174.246 352.51 174.782C352.773 181.75 353.036 188.718 353.299 195.686C353.299 198.365 354.614 200.241 356.982 200.241C362.243 200.509 367.242 200.777 372.503 201.045C375.134 201.045 376.712 199.705 376.975 197.025C376.975 196.49 376.975 195.685 376.975 195.15C377.238 180.946 375.397 167.01 373.029 153.074C372.503 149.859 371.451 146.643 370.661 143.427C369.872 141.015 368.294 139.943 366.452 140.479C359.349 142.623 352.247 144.499 345.144 146.643C342.776 147.447 340.409 147.983 338.304 148.787C334.621 136.727 330.149 125.203 324.099 114.484C326.729 112.876 329.36 111.267 331.991 109.66C333.569 112.339 335.147 114.751 336.2 117.699C338.304 122.255 340.146 126.811 341.987 131.635C343.302 134.583 344.618 135.387 347.775 134.315C352.247 132.707 356.982 131.099 361.454 129.491C364.348 128.419 365.4 126.275 364.085 123.595C362.243 119.039 360.402 114.483 358.297 109.928C356.193 105.104 353.825 100.28 350.931 95.9919C346.722 89.0241 341.987 82.5922 337.515 75.8924C336.463 74.0164 334.095 74.0165 332.517 75.0884C330.938 76.4284 329.36 77.7684 327.518 79.1083C322.52 83.1282 317.785 87.4161 312.787 91.436C311.734 92.24 310.682 92.7759 309.63 93.5799C302.001 83.9321 293.583 75.0885 284.112 67.5847C285.954 64.9047 287.795 62.4926 289.637 60.0807C291.215 61.1527 292.531 62.2247 293.846 63.2967C298.581 67.5846 303.053 72.1404 307.525 76.6963C309.104 78.3043 311.471 78.5724 313.05 76.9644C316.733 73.4805 320.153 69.9965 323.836 66.5126C326.203 64.1007 326.466 62.4927 324.099 59.8128C321.994 57.4008 319.626 55.2569 317.259 52.845C315.68 51.237 314.365 49.6291 312.787 48.2891C309.104 45.3412 305.684 42.3933 302.001 39.4453C297.529 35.9614 292.794 32.7454 288.058 29.2614C286.48 28.1895 284.902 26.8496 283.06 26.0457C280.43 24.4377 278.325 25.2415 277.01 27.9215C274.379 33.0134 271.485 38.1053 268.854 42.9292C267.013 46.4131 265.172 49.8969 263.33 53.3809C252.544 47.485 241.495 42.3933 229.657 39.4453C230.447 36.4974 231.499 33.2814 232.288 30.3335C235.971 31.4055 239.654 32.2095 243.074 33.5494C247.02 34.8894 250.703 36.7653 254.386 38.3733C257.28 39.7133 258.858 38.9093 260.173 36.2294C262.278 31.6735 264.119 27.3856 266.224 22.8297C267.802 19.3458 267.276 17.7378 263.856 16.1299C260.962 14.7899 258.332 13.4499 255.438 12.3779C246.231 9.42996 237.023 6.4821 227.816 4.07016C223.344 2.73019 218.346 2.46223 213.61 1.92624C210.98 1.65825 208.875 2.73016 208.875 4.8741C208.349 10.502 207.823 15.8619 207.297 21.4897C206.771 25.7776 206.508 30.0654 206.245 34.6213C193.88 33.2814 182.042 33.2814 169.678 34.8894C169.152 31.6735 168.889 28.7256 168.626 25.5096C169.415 25.5096 169.678 25.2415 169.941 25.2415C177.044 24.9736 184.41 24.4377 191.513 24.1697C194.67 24.1697 195.985 22.8297 196.248 19.6137C196.511 14.5219 196.774 9.16203 197.037 4.07016C197.037 2.1942 196.248 1.12226 194.67 0.586273C193.617 0.0502857 192.302 0.050253 191.25 0.050253C180.727 -0.217741 170.467 0.586142 160.208 2.4621C153.631 3.53407 147.054 5.14213 140.215 6.75009C137.058 7.55407 136.269 9.42996 137.058 12.3779C139.426 20.9537 142.056 29.7975 144.424 38.3733C144.687 38.9093 144.687 39.4452 144.687 39.9812C133.112 44.0011 122.063 48.289 111.54 54.7208C109.962 52.0409 108.384 49.361 106.805 46.4131C110.488 44.5371 114.171 42.3932 117.854 40.5172C121.537 38.6413 125.22 37.3014 128.903 35.4254C131.007 34.3535 131.534 32.7454 130.744 30.6014C129.166 25.7775 127.324 20.9537 125.746 16.1299C124.694 13.4499 122.589 12.378 119.959 13.4499C114.171 16.1299 108.384 18.8098 102.859 21.4897C100.755 22.5617 98.6502 23.9016 96.2826 25.2415C91.5474 28.1895 87.0751 30.8694 82.3399 33.8174C79.1831 35.9613 76.2895 38.3733 73.3958 40.5172C71.8174 41.8572 71.5543 44.2691 72.6066 45.8771C73.9219 47.753 75.5002 49.6291 77.0786 51.505C81.0246 56.5969 85.2337 61.6887 89.4428 66.7805C89.7058 67.3165 90.232 67.8526 90.4951 68.3886C90.4951 68.9246 90.495 69.7285 90.2319 69.9965C87.6013 72.4084 84.9706 74.8204 82.3399 77.2324C78.1309 81.5202 73.9218 86.0761 69.7128 90.632C68.3974 92.24 67.0821 93.848 65.7667 95.724C63.3991 93.848 61.0316 91.972 58.4009 90.096C59.7162 88.2201 60.7686 86.6122 62.0839 85.0042C66.0299 80.4483 70.2389 75.8924 74.4479 71.3365C76.2894 69.1925 76.2894 67.8526 74.4479 65.7087C71.0281 61.9568 67.6082 58.2048 63.9252 54.4529C61.8207 52.309 60.2424 52.041 58.1379 54.185C56.0334 56.0609 54.1918 58.2048 52.0872 60.3488C50.2458 62.2247 48.4043 63.8327 46.8259 65.7087C43.9322 69.4606 41.0385 73.2125 38.4079 76.9644C34.988 81.5203 31.8312 86.3442 28.6744 91.1681C27.359 93.044 26.3068 94.652 25.2545 96.5279C23.9392 98.9399 24.2021 101.62 25.7805 102.692C28.4112 104.3 31.305 105.908 33.9357 107.516C37.8817 109.66 41.8277 111.804 45.7737 113.948C47.6152 115.019 49.7198 116.091 51.5612 117.163C45.7738 128.419 41.0384 139.943 38.1447 152.271C34.9879 151.467 32.0943 150.395 29.2005 149.591C30.2528 145.571 31.305 141.551 32.6204 137.799C33.9357 134.047 35.5141 130.295 37.0925 126.543C38.1448 123.863 37.6185 122.255 34.9879 121.183C30.5157 119.039 26.0437 116.895 21.5715 114.751C18.4147 113.411 16.8364 113.948 15.521 117.163C10.7858 127.347 7.89201 138.067 5.26134 149.055C3.68294 155.486 2.89377 162.186 1.8415 168.886C1.31537 172.37 2.8937 173.978 6.05051 174.246C12.101 174.782 18.4147 175.318 24.4652 175.854C27.3589 176.122 30.2527 176.658 33.4095 176.926C32.0942 189.254 32.3572 201.045 33.6725 213.373C30.5157 213.641 27.6221 214.177 24.7284 214.445C24.7284 213.909 24.7283 213.373 24.4652 213.105C24.2021 205.869 23.6761 198.901 23.413 191.666C23.413 188.45 22.0977 187.11 18.9409 186.842C14.2056 186.574 9.20738 186.306 4.47217 186.306C1.57843 186.306 0 187.646 0 190.594C1.5784 192.738 1.5785 195.15 1.5785 197.562ZM8.41818 193.81C11.575 193.81 14.7318 193.81 18.4147 193.81C18.4147 194.346 18.4147 195.149 18.4147 195.953C18.9408 203.457 19.2039 210.961 19.73 218.197C19.9931 221.681 21.8347 223.021 25.2545 222.485C29.7267 221.681 34.1987 220.877 38.6709 220.073C41.3015 219.537 42.6169 218.197 42.0907 215.249C40.7754 206.137 40.2492 197.025 40.7754 187.914C41.0384 183.358 41.3016 179.07 41.8277 174.782C42.0908 171.566 41.0385 169.958 37.8817 169.422C28.9374 168.082 20.2561 166.742 11.3118 165.402C11.0488 165.402 10.7857 165.134 10.5227 165.134C10.5227 157.362 17.3625 131.367 21.5715 122.791C24.4653 124.131 27.6221 125.471 30.7789 126.811C29.4635 130.295 28.1481 133.779 27.0959 137.263C25.7805 142.087 24.4653 146.911 23.413 151.735C22.8869 153.878 23.9392 155.487 26.0437 156.023C31.042 157.362 36.0403 158.434 41.0385 159.506C43.4061 160.042 44.7214 158.97 45.5106 156.29C46.8259 151.467 48.1413 146.375 49.7197 141.551C52.6135 133.243 56.0333 125.203 60.5054 117.699C62.0838 114.751 61.8208 113.411 58.9271 111.535C52.8765 107.784 47.0891 104.032 41.0385 100.28C38.934 98.9398 36.8295 97.8679 34.4619 96.5279C42.0908 83.9322 50.5089 72.4085 60.5054 62.2248C63.1361 64.6367 65.5036 67.0486 67.8712 69.1925C65.7667 71.6045 63.9254 73.7484 62.0839 75.8924C60.2424 78.0363 58.1379 80.1803 56.2964 82.5922C54.718 84.4682 53.1396 86.6121 51.5612 88.756C49.9828 91.168 50.2458 92.776 52.6134 94.6519C56.5594 97.5999 60.2424 100.28 64.1884 103.228C66.8191 105.104 68.1344 104.836 70.2389 102.156C73.9219 97.5998 77.6048 92.776 81.5508 88.756C86.549 83.6642 91.8104 78.8403 97.0718 74.0164C97.861 73.2124 98.6501 72.6765 99.4393 71.8725C100.755 70.5325 101.018 68.9245 99.7025 67.3166C97.5979 64.1006 95.2302 60.8848 92.8626 57.6689C90.2319 53.9169 87.6013 50.4329 84.9706 46.681C84.1814 45.6091 83.3923 44.2691 82.6031 42.6611C94.178 34.3533 106.016 26.8496 119.432 21.4897C120.748 24.7057 121.8 27.6536 123.115 30.8695C122.063 31.4055 121.274 31.9414 120.222 32.4774C115.486 34.8893 110.488 37.5692 105.753 39.9812C104.175 40.7852 102.596 41.3212 101.281 42.3932C98.6501 44.0012 98.3871 45.8771 99.9655 48.557C102.333 52.5769 104.701 56.5968 107.331 60.6167C109.173 63.5647 111.014 64.1007 113.908 62.2248C117.065 60.3488 120.222 58.2048 123.641 56.5968C129.955 53.6489 136.532 50.969 143.109 48.2891C145.476 47.2171 148.37 46.9492 150.737 46.1452C153.368 45.3412 154.157 43.4652 153.631 40.7853C151.264 31.4055 149.159 21.7577 147.055 12.3779C151.264 9.96595 180.727 6.48203 188.882 7.01802C188.882 10.5019 188.882 13.7179 188.882 17.4698C187.567 17.4698 185.988 17.4698 184.673 17.4698C178.359 17.7378 172.309 18.2738 165.995 18.8098C161.523 19.0778 160.471 20.9537 161.523 25.5096C162.312 29.7975 163.102 34.0855 163.628 38.1054C164.154 41.5893 165.469 42.6613 168.889 42.1253C182.042 39.9813 195.459 39.9812 208.612 41.8572C211.769 42.3932 213.347 41.0532 213.873 37.8373C215.189 28.9935 216.504 20.4177 217.556 11.5739C217.556 11.038 217.819 10.2339 217.819 9.69795C225.185 9.69795 251.229 16.9337 258.858 21.2216C257.543 24.4376 256.227 27.3856 254.912 30.8695C252.544 29.7975 250.703 28.7256 248.335 28.1896C242.811 26.3136 237.023 24.7056 231.499 23.0976C228.605 22.2936 227.027 23.3657 226.501 26.3136C225.185 31.1375 224.133 36.2293 223.081 41.3212C222.555 43.4651 223.607 45.0731 225.711 45.8771C228.079 46.6811 230.447 47.485 232.814 48.021C239.391 49.629 245.705 52.577 251.755 55.5249C255.964 57.6689 260.173 59.8128 264.382 62.2248C266.487 63.2968 268.065 62.7607 269.381 60.6167C274.116 52.8449 278.588 45.0731 283.323 37.0333C283.586 36.4973 284.112 35.6934 284.639 34.8894C286.217 36.2294 287.795 37.3013 289.374 38.3733C295.424 42.9292 301.475 47.485 307.262 52.0409C310.156 54.4528 313.05 57.1328 315.944 59.8128C318.048 61.9567 318.048 61.9567 315.944 64.1006C314.102 65.7086 312.524 67.5846 311.208 69.1925C306.736 64.9047 302.264 60.8847 297.792 57.1328C295.95 55.5249 294.109 53.9169 292.004 52.5769C289.637 50.969 288.058 51.237 286.48 53.649C283.586 57.6689 280.956 61.6888 278.062 65.7087C276.22 68.1206 276.746 69.7286 278.851 71.6046C283.323 75.3565 287.795 79.1083 292.004 83.3962C297.003 88.488 301.475 93.848 306.21 99.2079C306.473 99.4759 306.736 99.7438 306.999 100.012C310.156 103.764 310.682 103.764 314.628 101.084C320.679 96.796 326.466 92.2401 332.517 87.6842C333.832 86.6122 335.41 85.8081 336.989 84.7361C345.407 96.7958 352.247 109.392 357.508 122.791C354.351 124.131 351.458 125.471 348.301 126.811C347.512 124.935 346.985 122.791 346.196 121.183C344.092 117.163 341.987 112.875 339.883 108.856C339.093 107.248 338.304 105.64 337.252 104.032C335.674 101.352 333.832 101.084 331.201 102.692C327.255 105.372 323.309 107.784 319.363 110.464C316.996 112.072 316.47 113.947 318.048 116.359C319.89 119.843 322.257 123.327 323.836 127.079C326.729 133.511 329.36 140.211 331.728 146.911C332.78 149.591 333.043 152.271 333.832 154.95C334.621 157.63 336.2 158.702 339.093 157.898C348.301 155.486 357.508 153.342 366.452 151.199C368.557 154.95 372.503 186.306 371.451 194.346C368.294 194.346 364.874 194.346 361.454 194.346C361.454 192.738 361.454 191.13 361.454 189.79C360.928 183.09 360.665 176.39 360.139 169.69C359.876 166.474 357.771 165.134 354.877 165.67C350.142 166.474 345.407 167.278 340.935 168.082C338.567 168.618 337.515 169.958 337.778 172.906C338.304 179.07 339.093 184.966 339.356 191.13C339.356 198.365 338.83 205.869 338.304 213.105C338.041 216.857 338.83 218.197 342.513 218.733C351.194 220.073 360.139 221.413 368.82 222.753C369.083 222.753 369.346 222.753 369.609 223.021C368.294 237.761 363.296 251.428 358.823 265.364C355.667 263.756 352.51 262.416 349.353 261.076C350.668 257.86 351.721 254.644 352.773 251.428C354.351 246.604 355.667 241.78 356.719 236.689C357.245 234.009 356.193 232.401 353.825 231.597C349.09 230.257 344.092 229.185 339.356 228.113C336.726 227.577 335.41 228.649 334.621 231.061C333.306 235.885 332.254 240.44 330.675 244.996C329.097 249.284 327.255 253.572 325.414 257.86C323.572 262.148 321.468 266.168 319.363 270.456C318.311 272.6 318.574 274.208 320.679 275.548C323.309 277.424 326.203 279.032 329.097 280.64C332.517 282.783 335.674 284.927 339.093 287.071C341.198 288.411 343.566 289.751 345.67 291.091C338.041 303.687 329.623 315.211 319.626 325.394C316.996 322.982 314.628 320.57 312.787 318.694C318.311 311.995 323.572 305.295 328.571 298.863C330.412 296.719 329.886 294.843 327.518 293.235C323.572 290.287 319.89 287.607 315.944 284.659C313.313 282.783 311.997 283.051 309.893 285.731C305.947 290.555 302.001 295.647 297.792 300.203C293.057 305.027 287.795 309.583 282.797 314.407C282.008 315.211 280.956 315.747 280.43 316.819C279.903 317.891 279.64 319.23 279.903 320.034C280.429 321.642 281.219 322.982 282.271 324.322C285.691 329.146 289.374 333.97 292.794 338.794C294.372 340.938 295.687 343.082 297.529 345.226C285.954 353.802 273.853 361.037 260.436 366.665C259.121 363.449 258.069 360.234 256.753 357.018C258.595 356.214 260.173 355.678 261.752 354.874C265.698 352.73 269.907 350.586 273.853 348.442C275.431 347.638 277.01 346.834 278.325 346.03C281.219 344.154 281.482 342.546 279.64 339.598C277.273 335.578 274.642 331.558 272.274 327.538C270.696 325.126 268.854 324.59 266.224 325.93C262.804 327.806 259.647 329.95 256.227 331.558C249.651 334.506 243.074 337.454 236.234 340.134C233.867 341.206 230.973 341.474 228.605 342.278C226.238 343.082 225.448 344.69 225.975 347.37C228.079 356.482 230.184 365.593 232.288 374.705C232.288 374.973 232.288 375.509 232.551 375.777C227.027 378.189 196.774 381.941 190.724 380.869C190.724 377.653 190.724 374.169 190.724 370.685C191.513 370.685 192.039 370.685 192.828 370.685C200.194 370.149 207.56 369.881 214.926 369.077C218.083 368.809 218.872 366.933 218.346 363.717C217.556 358.894 216.504 353.802 215.715 348.978C215.189 346.566 214.137 345.494 211.506 345.762C207.56 346.298 203.351 346.834 199.405 347.102C190.197 347.906 180.727 347.638 171.52 346.298C170.204 346.03 168.626 346.298 167.311 346.834C166.521 347.102 165.995 348.442 165.732 349.514C164.68 355.946 163.891 362.646 163.102 369.077C162.575 372.293 162.049 375.241 161.523 378.725C157.84 378.189 154.42 377.921 151.001 376.849C144.161 374.973 137.584 372.829 131.007 370.953C127.851 369.881 124.957 368.809 122.063 367.737C121.011 367.469 120.748 366.933 121.011 365.861C122.326 363.181 123.378 360.233 124.694 357.554C126.535 358.357 128.114 359.162 129.955 359.698C136.006 361.574 142.056 363.717 148.37 365.325C150.737 366.129 152.579 365.057 153.368 362.378C154.683 357.286 155.736 352.194 156.788 347.102C157.314 344.958 155.999 343.35 153.631 342.546C148.896 341.206 144.161 340.134 139.689 338.258C131.534 335.042 123.642 331.826 116.276 327.002C113.382 325.126 111.804 325.662 110.225 328.61C105.753 336.382 101.018 343.886 96.5456 351.658C96.2825 352.194 95.7564 352.998 95.2303 353.802C93.6519 352.73 92.3365 351.658 90.7581 350.586C84.4445 345.762 78.1309 340.938 71.8173 336.114C68.6605 333.702 66.0298 330.754 63.1361 328.074C62.0838 327.002 62.347 326.198 63.3992 325.394C65.2407 323.25 67.0821 321.106 68.9236 319.23C74.9741 325.93 81.2878 331.29 87.8644 336.114C90.232 337.99 91.8104 337.722 93.3888 335.31C96.2825 331.29 98.9132 327.27 101.807 323.518C103.648 320.839 103.385 319.498 101.018 317.354C94.178 311.459 87.0751 305.563 81.0246 298.595C77.8678 294.843 74.9741 291.359 71.8173 287.607C69.9758 285.463 68.6605 285.463 66.5559 287.071C61.0315 291.091 55.2441 295.379 49.7197 299.399C47.6152 301.007 45.5106 302.615 43.4061 304.223C34.9879 292.163 27.8851 279.567 22.8869 266.168C26.0437 264.828 28.9374 263.488 32.0942 262.148C32.8834 264.292 33.6727 266.168 34.4619 268.312C36.3033 272.332 38.4078 276.352 40.5124 280.371C41.3016 281.979 42.0907 283.587 42.8799 285.195C44.4583 287.875 46.2999 288.143 48.9306 286.535C52.8766 283.855 56.8226 281.443 60.7686 278.764C63.1362 277.156 63.6623 275.28 62.0839 272.868C60.2424 269.652 58.1378 266.436 56.5594 262.952C53.6657 256.252 51.0351 249.552 48.4044 242.584C47.3521 239.904 47.0891 237.225 46.2999 234.545C45.5107 231.597 43.9322 230.793 40.7754 231.329C31.568 233.741 22.6239 235.885 13.4165 238.028C11.0489 232.133 7.36591 201.045 8.41818 193.81Z" fill="#101010"/>
</svg>
