<svg width="103" height="115" viewBox="0 0 103 115" fill="none" xmlns="http://www.w3.org/2000/svg">
<rect width="1.68853" height="1.6995" fill="#F3F3F3" fill-opacity="0.3"/>
<rect x="11.2565" width="1.68853" height="1.6995" fill="#F3F3F3" fill-opacity="0.3"/>
<rect x="22.5138" width="1.68853" height="1.6995" fill="#F3F3F3" fill-opacity="0.3"/>
<rect x="33.7706" width="1.68853" height="1.6995" fill="#F3F3F3" fill-opacity="0.3"/>
<rect x="45.0271" width="1.68853" height="1.6995" fill="#F3F3F3" fill-opacity="0.3"/>
<rect x="56.2844" width="1.68853" height="1.6995" fill="#F3F3F3" fill-opacity="0.3"/>
<rect x="67.5414" width="1.68853" height="1.6995" fill="#F3F3F3" fill-opacity="0.3"/>
<rect x="78.7986" width="1.68853" height="1.6995" fill="#F3F3F3" fill-opacity="0.3"/>
<rect x="90.0553" width="1.68853" height="1.6995" fill="#F3F3F3" fill-opacity="0.3"/>
<rect x="101.312" width="1.68853" height="1.6995" fill="#F3F3F3" fill-opacity="0.3"/>
<rect y="11.3296" width="1.68853" height="1.6995" fill="#F3F3F3" fill-opacity="0.3"/>
<rect x="11.2565" y="11.3296" width="1.68853" height="1.6995" fill="#F3F3F3" fill-opacity="0.3"/>
<rect x="22.5138" y="11.3296" width="1.68853" height="1.6995" fill="#F3F3F3" fill-opacity="0.3"/>
<rect x="33.7706" y="11.3296" width="1.68853" height="1.6995" fill="#F3F3F3" fill-opacity="0.3"/>
<rect x="45.0271" y="11.3296" width="1.68853" height="1.6995" fill="#F3F3F3" fill-opacity="0.3"/>
<rect x="56.2844" y="11.3296" width="1.68853" height="1.6995" fill="#F3F3F3" fill-opacity="0.3"/>
<rect x="67.5414" y="11.3296" width="1.68853" height="1.6995" fill="#F3F3F3" fill-opacity="0.3"/>
<rect x="78.7986" y="11.3296" width="1.68853" height="1.6995" fill="#F3F3F3" fill-opacity="0.3"/>
<rect x="90.0553" y="11.3296" width="1.68853" height="1.6995" fill="#F3F3F3" fill-opacity="0.3"/>
<rect x="101.312" y="11.3296" width="1.68853" height="1.6995" fill="#F3F3F3" fill-opacity="0.3"/>
<rect y="22.6602" width="1.68853" height="1.6995" fill="#F3F3F3" fill-opacity="0.3"/>
<rect x="11.2565" y="22.6602" width="1.68853" height="1.6995" fill="#F3F3F3" fill-opacity="0.3"/>
<rect x="22.5138" y="22.6602" width="1.68853" height="1.6995" fill="#F3F3F3" fill-opacity="0.3"/>
<rect x="33.7706" y="22.6602" width="1.68853" height="1.6995" fill="#F3F3F3" fill-opacity="0.3"/>
<rect x="45.0271" y="22.6602" width="1.68853" height="1.6995" fill="#F3F3F3" fill-opacity="0.3"/>
<rect x="56.2844" y="22.6602" width="1.68853" height="1.6995" fill="#F3F3F3" fill-opacity="0.3"/>
<rect x="67.5414" y="22.6602" width="1.68853" height="1.6995" fill="#F3F3F3" fill-opacity="0.3"/>
<rect x="78.7986" y="22.6602" width="1.68853" height="1.6995" fill="#F3F3F3" fill-opacity="0.3"/>
<rect x="90.0553" y="22.6602" width="1.68853" height="1.6995" fill="#F3F3F3" fill-opacity="0.3"/>
<rect x="101.312" y="22.6602" width="1.68853" height="1.6995" fill="#F3F3F3" fill-opacity="0.3"/>
<rect y="33.9902" width="1.68853" height="1.6995" fill="#F3F3F3" fill-opacity="0.3"/>
<rect x="11.2566" y="33.9902" width="1.68853" height="1.6995" fill="#F3F3F3" fill-opacity="0.3"/>
<rect x="22.5139" y="33.9902" width="1.68853" height="1.6995" fill="#F3F3F3" fill-opacity="0.3"/>
<rect x="33.7705" y="33.9902" width="1.68853" height="1.6995" fill="#F3F3F3" fill-opacity="0.3"/>
<rect x="45.0271" y="33.9902" width="1.68853" height="1.6995" fill="#F3F3F3" fill-opacity="0.3"/>
<rect x="56.2844" y="33.9902" width="1.68853" height="1.6995" fill="#F3F3F3" fill-opacity="0.3"/>
<rect x="67.5415" y="33.9902" width="1.68853" height="1.6995" fill="#F3F3F3" fill-opacity="0.3"/>
<rect x="78.7986" y="33.9902" width="1.68853" height="1.6995" fill="#F3F3F3" fill-opacity="0.3"/>
<rect x="90.0552" y="33.9902" width="1.68853" height="1.6995" fill="#F3F3F3" fill-opacity="0.3"/>
<rect x="101.312" y="33.9902" width="1.68853" height="1.6995" fill="#F3F3F3" fill-opacity="0.3"/>
<rect y="45.3198" width="1.68853" height="1.6995" fill="#F3F3F3" fill-opacity="0.3"/>
<rect x="11.2565" y="45.3198" width="1.68853" height="1.6995" fill="#F3F3F3" fill-opacity="0.3"/>
<rect x="22.5139" y="45.3198" width="1.68853" height="1.6995" fill="#F3F3F3" fill-opacity="0.3"/>
<rect x="33.7708" y="45.3198" width="1.68853" height="1.6995" fill="#F3F3F3" fill-opacity="0.3"/>
<rect x="45.0271" y="45.3198" width="1.68853" height="1.6995" fill="#F3F3F3" fill-opacity="0.3"/>
<rect x="56.2844" y="45.3198" width="1.68853" height="1.6995" fill="#F3F3F3" fill-opacity="0.3"/>
<rect x="67.5414" y="45.3198" width="1.68853" height="1.6995" fill="#F3F3F3" fill-opacity="0.3"/>
<rect x="78.7983" y="45.3198" width="1.68853" height="1.6995" fill="#F3F3F3" fill-opacity="0.3"/>
<rect x="90.0554" y="45.3198" width="1.68853" height="1.6995" fill="#F3F3F3" fill-opacity="0.3"/>
<rect x="101.311" y="45.3198" width="1.68853" height="1.6995" fill="#F3F3F3" fill-opacity="0.3"/>
<rect y="56.6504" width="1.68853" height="1.6995" fill="#F3F3F3" fill-opacity="0.3"/>
<rect x="11.2566" y="56.6504" width="1.68853" height="1.6995" fill="#F3F3F3" fill-opacity="0.3"/>
<rect x="22.5139" y="56.6504" width="1.68853" height="1.6995" fill="#F3F3F3" fill-opacity="0.3"/>
<rect x="33.7708" y="56.6504" width="1.68853" height="1.6995" fill="#F3F3F3" fill-opacity="0.3"/>
<rect x="45.0271" y="56.6504" width="1.68853" height="1.6995" fill="#F3F3F3" fill-opacity="0.3"/>
<rect x="56.2844" y="56.6504" width="1.68853" height="1.6995" fill="#F3F3F3" fill-opacity="0.3"/>
<rect x="67.5415" y="56.6504" width="1.68853" height="1.6995" fill="#F3F3F3" fill-opacity="0.3"/>
<rect x="78.7983" y="56.6504" width="1.68853" height="1.6995" fill="#F3F3F3" fill-opacity="0.3"/>
<rect x="90.0554" y="56.6504" width="1.68853" height="1.6995" fill="#F3F3F3" fill-opacity="0.3"/>
<rect x="101.311" y="56.6504" width="1.68853" height="1.6995" fill="#F3F3F3" fill-opacity="0.3"/>
<rect y="67.98" width="1.68853" height="1.6995" fill="#F3F3F3" fill-opacity="0.3"/>
<rect x="11.2565" y="67.98" width="1.68853" height="1.6995" fill="#F3F3F3" fill-opacity="0.3"/>
<rect x="22.5138" y="67.98" width="1.68853" height="1.6995" fill="#F3F3F3" fill-opacity="0.3"/>
<rect x="33.7706" y="67.98" width="1.68853" height="1.6995" fill="#F3F3F3" fill-opacity="0.3"/>
<rect x="45.0271" y="67.98" width="1.68853" height="1.6995" fill="#F3F3F3" fill-opacity="0.3"/>
<rect x="56.2844" y="67.98" width="1.68853" height="1.6995" fill="#F3F3F3" fill-opacity="0.3"/>
<rect x="67.5414" y="67.98" width="1.68853" height="1.6995" fill="#F3F3F3" fill-opacity="0.3"/>
<rect x="78.7986" y="67.98" width="1.68853" height="1.6995" fill="#F3F3F3" fill-opacity="0.3"/>
<rect x="90.0553" y="67.98" width="1.68853" height="1.6995" fill="#F3F3F3" fill-opacity="0.3"/>
<rect x="101.312" y="67.98" width="1.68853" height="1.6995" fill="#F3F3F3" fill-opacity="0.3"/>
<rect y="79.3096" width="1.68853" height="1.6995" fill="#F3F3F3" fill-opacity="0.3"/>
<rect x="11.2565" y="79.3101" width="1.68853" height="1.6995" fill="#F3F3F3" fill-opacity="0.3"/>
<rect x="22.5138" y="79.3101" width="1.68853" height="1.6995" fill="#F3F3F3" fill-opacity="0.3"/>
<rect x="33.7706" y="79.3101" width="1.68853" height="1.6995" fill="#F3F3F3" fill-opacity="0.3"/>
<rect x="45.0271" y="79.3101" width="1.68853" height="1.6995" fill="#F3F3F3" fill-opacity="0.3"/>
<rect x="56.2844" y="79.3101" width="1.68853" height="1.6995" fill="#F3F3F3" fill-opacity="0.3"/>
<rect x="67.5414" y="79.3101" width="1.68853" height="1.6995" fill="#F3F3F3" fill-opacity="0.3"/>
<rect x="78.7986" y="79.3101" width="1.68853" height="1.6995" fill="#F3F3F3" fill-opacity="0.3"/>
<rect x="90.0553" y="79.3101" width="1.68853" height="1.6995" fill="#F3F3F3" fill-opacity="0.3"/>
<rect x="101.312" y="79.3101" width="1.68853" height="1.6995" fill="#F3F3F3" fill-opacity="0.3"/>
<rect y="90.6396" width="1.68853" height="1.6995" fill="#F3F3F3" fill-opacity="0.3"/>
<rect x="11.2566" y="90.6396" width="1.68853" height="1.6995" fill="#F3F3F3" fill-opacity="0.3"/>
<rect x="22.5139" y="90.6396" width="1.68853" height="1.6995" fill="#F3F3F3" fill-opacity="0.3"/>
<rect x="33.7705" y="90.6396" width="1.68853" height="1.6995" fill="#F3F3F3" fill-opacity="0.3"/>
<rect x="45.0271" y="90.6396" width="1.68853" height="1.6995" fill="#F3F3F3" fill-opacity="0.3"/>
<rect x="56.2844" y="90.6396" width="1.68853" height="1.6995" fill="#F3F3F3" fill-opacity="0.3"/>
<rect x="67.5415" y="90.6396" width="1.68853" height="1.6995" fill="#F3F3F3" fill-opacity="0.3"/>
<rect x="78.7986" y="90.6396" width="1.68853" height="1.6995" fill="#F3F3F3" fill-opacity="0.3"/>
<rect x="90.0552" y="90.6396" width="1.68853" height="1.6995" fill="#F3F3F3" fill-opacity="0.3"/>
<rect x="101.312" y="90.6396" width="1.68853" height="1.6995" fill="#F3F3F3" fill-opacity="0.3"/>
<rect y="101.969" width="1.68853" height="1.6995" fill="#F3F3F3" fill-opacity="0.3"/>
<rect x="11.2566" y="101.969" width="1.68853" height="1.6995" fill="#F3F3F3" fill-opacity="0.3"/>
<rect x="22.5139" y="101.969" width="1.68853" height="1.6995" fill="#F3F3F3" fill-opacity="0.3"/>
<rect x="33.7705" y="101.969" width="1.68853" height="1.6995" fill="#F3F3F3" fill-opacity="0.3"/>
<rect x="45.0271" y="101.969" width="1.68853" height="1.6995" fill="#F3F3F3" fill-opacity="0.3"/>
<rect x="56.2844" y="101.969" width="1.68853" height="1.6995" fill="#F3F3F3" fill-opacity="0.3"/>
<rect x="67.5415" y="101.969" width="1.68853" height="1.6995" fill="#F3F3F3" fill-opacity="0.3"/>
<rect x="78.7986" y="101.969" width="1.68853" height="1.6995" fill="#F3F3F3" fill-opacity="0.3"/>
<rect x="90.0552" y="101.969" width="1.68853" height="1.6995" fill="#F3F3F3" fill-opacity="0.3"/>
<rect x="101.312" y="101.969" width="1.68853" height="1.6995" fill="#F3F3F3" fill-opacity="0.3"/>
<rect y="113.3" width="1.68853" height="1.6995" fill="#F3F3F3" fill-opacity="0.3"/>
<rect x="11.2566" y="113.3" width="1.68853" height="1.6995" fill="#F3F3F3" fill-opacity="0.3"/>
<rect x="22.5139" y="113.3" width="1.68853" height="1.6995" fill="#F3F3F3" fill-opacity="0.3"/>
<rect x="33.7705" y="113.3" width="1.68853" height="1.6995" fill="#F3F3F3" fill-opacity="0.3"/>
<rect x="45.0271" y="113.301" width="1.68853" height="1.6995" fill="#F3F3F3" fill-opacity="0.3"/>
<rect x="56.2844" y="113.3" width="1.68853" height="1.6995" fill="#F3F3F3" fill-opacity="0.3"/>
<rect x="67.5415" y="113.3" width="1.68853" height="1.6995" fill="#F3F3F3" fill-opacity="0.3"/>
<rect x="78.7986" y="113.3" width="1.68853" height="1.6995" fill="#F3F3F3" fill-opacity="0.3"/>
<rect x="90.0552" y="113.3" width="1.68853" height="1.6995" fill="#F3F3F3" fill-opacity="0.3"/>
<rect x="101.312" y="113.3" width="1.68853" height="1.6995" fill="#F3F3F3" fill-opacity="0.3"/>
</svg>
