<svg width="32" height="32" id="linkedin" viewBox="0 0 32 32" fill="none" xmlns="http://www.w3.org/2000/svg">
<path d="M26.075 4H6.05C4.95625 4 4 4.7875 4 5.86875V25.9375C4 27.025 4.95625 27.9937 6.05 27.9937H26.0688C27.1688 27.9937 27.9937 27.0187 27.9937 25.9375V5.86875C28 4.7875 27.1688 4 26.075 4ZM11.4375 24H8V13.3125H11.4375V24ZM9.8375 11.6875H9.8125C8.7125 11.6875 8 10.8688 8 9.84375C8 8.8 8.73125 8 9.85625 8C10.9812 8 11.6688 8.79375 11.6938 9.84375C11.6938 10.8688 10.9812 11.6875 9.8375 11.6875ZM24 24H20.5625V18.1562C20.5625 16.7563 20.0625 15.8 18.8188 15.8C17.8688 15.8 17.3062 16.4438 17.0562 17.0688C16.9625 17.2938 16.9375 17.6 16.9375 17.9125V24H13.5V13.3125H16.9375V14.8C17.4375 14.0875 18.2188 13.0625 20.0375 13.0625C22.2938 13.0625 24 14.55 24 17.7563V24Z" fill="white"/>
</svg>
