<svg width="16" height="14" id="tgicon" fill="none" xmlns="http://www.w3.org/2000/svg"><g clip-path="url(#a)"><path d="M15.18 1.46 12.81 12.8a.75.75 0 0 1-1.17.45l-3.59-2.62-1.82 1.86a.6.6 0 0 1-1.02-.24L3.9 8.07.36 7.02a.5.5 0 0 1-.04-.96L14.22.65a.72.72 0 0 1 .96.81Zm-2.9 1.44L4.66 7.63a.35.35 0 0 0-.15.4l1.02 3.29c.02.07.12.06.13-.02l.25-2.2a.35.35 0 0 1 .12-.23l6.46-5.7c.15-.14-.03-.38-.2-.27h-.01Z" fill="#fff"/></g><defs><clipPath id="a"><path fill="#fff" d="M0 0h16v14H0z"/></clipPath></defs></svg>