<svg width="15" height="12" id="twicon" fill="none" xmlns="http://www.w3.org/2000/svg"><path d="M14.18 1.73a.07.07 0 0 0-.07-.01c-.41.18-.84.3-1.28.39.47-.36.82-.85 1-1.42 0-.02 0-.05-.03-.07a.07.07 0 0 0-.07 0c-.53.31-1.1.53-1.7.66a2.83 2.83 0 0 0-4.82 2.54A7.78 7.78 0 0 1 1.66.94a.07.07 0 0 0-.11 0 2.88 2.88 0 0 0 .68 3.68 2.68 2.68 0 0 1-.99-.32.07.07 0 0 0-.1.06v.03c0 1.26.82 2.37 1.99 2.74-.3.05-.63.04-.94-.02a.07.07 0 0 0-.08.1 2.84 2.84 0 0 0 2.46 1.97 5.4 5.4 0 0 1-3.9 1.03.07.07 0 0 0-.04.12A7.83 7.83 0 0 0 4.9 11.6c4.96 0 7.93-4.08 7.93-8.02v-.32c.53-.4.99-.88 1.36-1.44a.07.07 0 0 0 0-.09h-.01Z" fill="#fff"/></svg>