<svg width="51" height="20" id="yandex" viewBox="0 0 51 20" fill="none" xmlns="http://www.w3.org/2000/svg">
<path d="M22.4441 7.57856C21.277 7.57856 20.0602 8.42644 20.0602 8.42644V7.88155C20.0602 7.76208 20.0122 7.71422 19.8922 7.71422H18.4025C18.2823 7.71422 18.2103 7.78595 18.2103 7.88155V19.5023C18.2103 19.6223 18.2584 19.694 18.3785 19.694H19.892C19.988 19.694 20.06 19.6223 20.06 19.5023V9.5551C20.06 9.5551 20.7625 9.11207 21.6158 9.11207C22.4282 9.11207 23.0695 9.51338 23.0695 10.3362V19.5018C23.0695 19.6218 23.1414 19.6935 23.2617 19.6935H24.7511C24.8712 19.6935 24.9192 19.5976 24.9192 19.5018V9.81531C24.9191 8.35649 24.0179 7.57856 22.4441 7.57856ZM34.031 1.74951H32.5413C32.4211 1.74951 32.3492 1.82112 32.3492 1.91696V7.77933C31.7773 7.56107 31.2567 7.44574 30.8359 7.44574C28.4167 7.44574 26.756 9.7476 26.756 14.1738C26.756 17.9658 28.3715 19.9995 30.4799 19.9995C31.3684 19.9995 32.1022 19.4926 32.6393 19.0172L32.9645 19.566C33.0193 19.6609 33.0642 19.6934 33.1745 19.6934L34.0312 19.6942C34.1273 19.6942 34.1995 19.6225 34.1995 19.5025V1.91696C34.1992 1.79725 34.1509 1.74951 34.031 1.74951ZM28.7258 13.7822C28.7258 11.3432 29.443 8.9282 30.9075 8.9282C31.4037 8.9282 31.88 9.09068 32.3495 9.46174V18.0542C31.9825 18.253 31.5209 18.4359 31.0221 18.4359C29.4295 18.4359 28.7258 16.5561 28.7258 13.7822ZM39.7368 7.46973C37.2561 7.46973 36.0318 10.6996 36.0318 14.2144C36.0318 17.8935 37.778 19.9555 40.0231 19.9555C41.01 19.9555 41.9925 19.569 42.6367 19.2127C42.7353 19.158 42.7532 19.081 42.7295 18.9859L42.5411 18.2087C42.5176 18.1136 42.4695 18.0663 42.3504 18.0663C42.2981 18.0663 41.4841 18.3032 40.6923 18.3032C38.8549 18.3032 38.0124 16.6775 38.0124 14.5185V13.9939C38.0124 13.9939 38.9255 14.1195 39.4741 14.1195H42.9405V13.1223C42.9406 9.44106 41.6454 7.46973 39.7368 7.46973ZM39.6174 12.6233C39.0688 12.6233 38.0703 12.7584 38.0703 12.7584C38.0703 12.7584 38.0836 12.362 38.1316 11.9823C38.3465 9.96362 38.8302 8.94238 39.6652 8.94238C40.3912 8.94238 40.8888 9.98713 41.0082 11.8158C41.0318 12.1959 41.0318 12.6233 41.0318 12.6233H39.6174ZM15.3814 8.97925C14.8305 7.89892 13.8494 7.42683 12.7256 7.42683C12.0036 7.42683 10.8769 7.70158 10.1242 8.03837C9.97703 8.10431 9.88406 8.16221 9.88406 8.27743C9.88406 8.34597 9.91838 8.42467 9.95601 8.49262L10.4631 9.57318C10.5153 9.69513 10.5992 9.72314 10.6684 9.72314C10.7434 9.72314 10.8044 9.68781 10.8716 9.64491C11.6057 9.17813 12.1433 8.92134 12.569 8.92134C13.1321 8.92134 13.5145 9.29311 13.7503 9.8523C13.9701 10.3733 14.0549 11.0932 14.0549 11.925C14.0549 12.031 14.0555 12.1694 14.0555 12.1694C13.593 11.8813 12.7916 11.7226 12.3915 11.7226C10.2393 11.7226 9.07886 13.7579 9.07886 15.9344C9.07886 18.2795 10.4353 19.9993 12.0653 19.9993C12.9731 19.9993 13.7949 19.4691 14.3453 18.8004C14.3453 18.8004 14.6385 19.4958 14.6767 19.5792C14.7153 19.6624 14.7559 19.6933 14.8662 19.6933L15.7373 19.6941C15.8332 19.6941 15.9053 19.6224 15.9053 19.5024V12.7613C15.9049 11.1047 15.8209 9.84107 15.3814 8.97925ZM14.0553 17.8108C13.6285 18.2211 13.1175 18.4359 12.6575 18.4359C12.1977 18.4359 11.8423 18.2245 11.5573 17.8328C11.2104 17.3564 11.0485 16.6228 11.0485 15.8098C11.0485 14.5241 11.5255 13.2048 12.5362 13.2048C13.0365 13.2048 13.5861 13.367 14.0552 13.7384L14.0553 17.8108ZM50.8071 7.71257H49.4793C49.331 7.71257 49.2552 7.78985 49.2171 7.89018C48.9242 8.65641 48.6324 9.42307 48.3417 10.1902C48.1777 10.6255 47.7358 11.872 47.7358 11.872L47.6844 11.8716C47.6825 11.8671 47.3592 10.9648 47.1839 10.5129C47.0423 10.1464 46.3024 8.20723 46.2089 7.96829C46.1588 7.83984 46.1029 7.71257 45.9129 7.71257H44.4595C44.2997 7.71257 44.2093 7.88711 44.2607 7.99535C44.3127 8.10395 46.6285 13.3544 46.6285 13.3544C46.6285 13.3544 44.1415 19.2337 44.0686 19.3656C43.996 19.4976 44.0872 19.693 44.2641 19.693H45.5379C45.7546 19.693 45.8402 19.5799 45.9052 19.3978C46.0883 18.8873 46.3609 18.1775 46.747 17.0803C47.0026 16.3533 47.4072 15.0771 47.4072 15.0771H47.4518C47.4518 15.0771 47.8946 16.3777 48.0595 16.8029C48.4757 17.8783 49.0079 19.2827 49.0646 19.4311C49.1233 19.5861 49.2056 19.6932 49.3545 19.6932H50.799C50.942 19.6932 51.0082 19.5308 50.9408 19.3895C50.78 19.0522 49.4081 15.7345 48.4555 13.5533C48.4555 13.5533 50.9276 8.12321 50.9759 7.98885C51.0251 7.85426 51.0108 7.71257 50.8071 7.71257Z" fill="white"/>
<path d="M10.5831 0.000854492H8.90831C8.76002 0.000854492 8.66753 0.0731755 8.64604 0.178348C8.62479 0.283994 6.13484 7.84059 5.95379 8.47009C5.82544 8.91619 5.40717 10.4895 5.30672 10.8673L4.44073 8.51405C4.23046 7.86647 2.21341 2.25829 2.1544 2.03423C2.12187 1.9111 2.06488 1.75795 1.84797 1.75795H0.213216C0.0531724 1.75795 -0.0369414 1.93261 0.0144674 2.04085C0.0557844 2.12735 3.00876 9.94688 4.20185 12.9343V19.5022C4.20185 19.6222 4.24993 19.6939 4.37009 19.6939H5.91852C6.01457 19.6939 6.08664 19.6222 6.08664 19.5022V12.9859C7.08086 10.2213 10.7136 0.387276 10.7531 0.27714C10.8012 0.142424 10.7869 0.000854492 10.5831 0.000854492Z" fill="#FF0000"/>
</svg>
