<svg width="93" height="19" viewBox="0 0 93 19" fill="none" xmlns="http://www.w3.org/2000/svg">
    <path d="M14.208 11.568C14.208 7.8 11.568 4.728 7.584 4.728C3.792 4.728 0.936 7.656 0.936 11.52C0.936 15.408 3.792 18.336 7.584 18.336C10.488 18.336 12.864 16.656 13.896 13.92H11.088C10.392 15.12 9.144 15.84 7.584 15.84C5.472 15.84 3.96 14.544 3.624 12.432H14.136C14.184 12.144 14.208 11.856 14.208 11.568ZM7.584 7.152C9.576 7.152 11.04 8.304 11.52 10.272H3.696C4.128 8.352 5.592 7.152 7.584 7.152ZM27.0926 0.407999V6.24C25.9406 5.28 24.4766 4.728 22.8206 4.728C18.8846 4.728 16.0766 7.632 16.0766 11.544C16.0766 15.408 18.8846 18.336 22.8206 18.336C24.6206 18.336 26.2286 17.664 27.3806 16.536L27.7406 18.024H29.7566V0.407999H27.0926ZM23.0126 15.792C20.5886 15.792 18.7886 13.968 18.7886 11.52C18.7886 9.096 20.5886 7.272 23.0126 7.272C25.4606 7.272 27.2606 9.096 27.2606 11.52C27.2606 13.944 25.4606 15.792 23.0126 15.792ZM37.8561 18.336C41.0241 18.336 43.1121 16.704 43.1121 14.184C43.1121 10.992 40.4481 10.56 38.2641 10.2C36.7041 9.936 35.3841 9.72 35.3841 8.568C35.3841 7.632 36.2961 6.984 37.7601 6.984C39.3201 6.984 40.2801 7.656 40.3281 8.88H42.8481C42.8001 6.384 40.8321 4.728 37.8321 4.728C34.8081 4.728 32.8161 6.336 32.8161 8.664C32.8161 11.664 35.3601 12.144 37.5201 12.528C39.1041 12.792 40.4961 13.056 40.4961 14.304C40.4961 15.384 39.3921 15.984 37.9521 15.984C36.3921 15.984 35.2401 15.264 35.1681 13.896H32.5761C32.6481 16.584 34.7121 18.336 37.8561 18.336ZM51.6248 15.6C50.0648 15.6 49.2008 14.736 49.2008 13.176V7.344H53.0408V5.04H49.1768V2.016H48.7208L44.2088 6.816V7.344H46.5368V13.392C46.5368 16.248 48.2888 18 51.1208 18H53.1128V15.6H51.6248ZM61.5439 18.336C65.5039 18.336 68.4559 15.432 68.4559 11.52C68.4559 7.632 65.5039 4.728 61.5439 4.728C57.5599 4.728 54.6079 7.608 54.6079 11.52C54.6079 15.432 57.5599 18.336 61.5439 18.336ZM61.5439 15.792C59.0719 15.792 57.3199 14.016 57.3199 11.52C57.3199 9.048 59.0719 7.272 61.5439 7.272C63.9919 7.272 65.7439 9.048 65.7439 11.52C65.7439 14.016 63.9919 15.792 61.5439 15.792ZM77.5339 4.968C75.7579 4.968 74.4859 5.592 73.5499 6.816L73.1179 5.04H71.3179V18H73.9819V11.112C73.9819 8.76 75.0619 7.488 77.2699 7.488H78.6859V4.968H77.5339ZM92.7236 11.568C92.7236 7.8 90.0836 4.728 86.0996 4.728C82.3076 4.728 79.4516 7.656 79.4516 11.52C79.4516 15.408 82.3076 18.336 86.0996 18.336C89.0036 18.336 91.3796 16.656 92.4116 13.92H89.6036C88.9076 15.12 87.6596 15.84 86.0996 15.84C83.9876 15.84 82.4756 14.544 82.1396 12.432H92.6516C92.6996 12.144 92.7236 11.856 92.7236 11.568ZM86.0996 7.152C88.0916 7.152 89.5556 8.304 90.0356 10.272H82.2116C82.6436 8.352 84.1076 7.152 86.0996 7.152Z" fill="white"/>
    </svg>
    