<svg width="47" height="28" viewBox="0 0 47 28" fill="none" xmlns="http://www.w3.org/2000/svg">
<path d="M46.8217 14C46.8217 21.6821 40.5766 28 32.8242 28C25.1435 28 18.8267 21.6821 18.8267 14C18.8267 6.31795 25.0717 0 32.7524 0C40.5766 0 46.8217 6.31795 46.8217 14Z" fill="#FD9600"/>
<path d="M27.995 14C27.995 21.6821 21.75 28 13.9975 28C6.31682 28 0 21.6821 0 14C0 6.31795 6.24504 0 13.9257 0C21.75 0 27.995 6.31795 27.995 14Z" fill="#D30000"/>
<path fill-rule="evenodd" clip-rule="evenodd" d="M23.4251 24.339C26.2355 21.7709 27.995 18.0777 27.995 14.0001C27.995 9.91565 26.2296 6.21682 23.4 3.64819C20.5921 6.21682 18.8267 9.91565 18.8267 14.0001C18.8267 18.0777 20.6064 21.7709 23.4251 24.339Z" fill="#FE3C00"/>
</svg>
