<svg width="58" height="18" viewBox="0 0 58 18" fill="none" xmlns="http://www.w3.org/2000/svg">
<path d="M54.0994 0.256836H50.4533C49.3509 0.256836 48.503 0.599693 47.9942 1.71398L41.041 17.7426H45.9591C45.9591 17.7426 46.8071 15.5997 46.9767 15.0854C47.4854 15.0854 52.3187 15.0854 52.9971 15.0854C53.1667 15.6854 53.5907 17.6568 53.5907 17.6568H58L54.0994 0.256836ZM48.3334 11.4854C48.7574 10.4568 50.1989 6.59969 50.1989 6.59969C50.1989 6.68541 50.6228 5.57112 50.7924 4.97112L51.1316 6.51398C51.1316 6.51398 52.0644 10.714 52.2339 11.5711H48.3334V11.4854Z" fill="#006CB5"/>
<path d="M41.3808 12C41.3808 15.6 38.1586 18 33.1557 18C31.0358 18 29.0008 17.5714 27.8984 17.0571L28.5768 13.1143L29.1704 13.3714C30.6967 14.0571 31.7142 14.3143 33.5797 14.3143C34.9364 14.3143 36.3779 13.8 36.3779 12.6C36.3779 11.8286 35.7844 11.3143 33.9189 10.4571C32.1382 9.6 29.7639 8.22857 29.7639 5.74286C29.7639 2.31429 33.0709 0 37.7347 0C39.5153 0 41.0417 0.342857 41.9744 0.771429L41.296 4.54286L40.9569 4.2C40.1089 3.85714 39.0066 3.51429 37.3955 3.51429C35.6148 3.6 34.7668 4.37143 34.7668 5.05714C34.7668 5.82857 35.7844 6.42857 37.3955 7.2C40.1089 8.48571 41.3808 9.94286 41.3808 12Z" fill="#006CB5"/>
<path d="M0 0.429039L0.084795 0.0861816H7.37716C8.3947 0.0861816 9.15786 0.429039 9.41224 1.54332L11.0233 9.25761C9.41224 5.14332 5.68126 1.80047 0 0.429039Z" fill="#FAA841"/>
<path d="M21.2834 0.255636L13.9062 17.6556H8.90332L4.66357 3.08421C7.71619 5.05564 10.26 8.14135 11.1928 10.2842L11.7016 12.0842L16.2805 0.169922H21.2834V0.255636Z" fill="#006CB5"/>
<path d="M23.2339 0.169922H27.8977L24.9298 17.6556H20.2661L23.2339 0.169922Z" fill="#006CB5"/>
</svg>
