<svg width="283" height="500" viewBox="0 0 283 500" fill="none" xmlns="http://www.w3.org/2000/svg">
<path d="M109.709 424.988L109.123 424.305L123.47 413.667C132.84 406.64 133.621 399.808 133.621 395.22C133.523 389.657 131.181 384.289 124.056 384.289C117.614 384.289 113.027 388.779 113.027 395.318C113.027 398.832 114.394 401.076 115.955 402.443L115.272 403.126C113.32 401.272 112.051 398.832 112.051 395.123C112.051 387.998 117.029 382.435 127.667 382.435C135.67 382.435 143.185 385.558 143.185 392.976C143.185 399.222 137.915 404.2 124.251 414.252L120.347 417.18H137.232C146.309 417.18 149.529 415.521 150.701 408.787H151.579L149.725 424.988H109.709ZM173.532 425.574C159.185 425.574 153.036 413.667 153.036 404.004C153.036 394.342 159.185 382.435 173.532 382.435C187.977 382.435 194.028 394.342 194.028 404.004C194.028 413.667 187.977 425.574 173.532 425.574ZM173.532 424.793C183.194 424.793 183.78 414.252 183.78 404.004C183.78 393.756 183.194 383.216 173.532 383.216C163.967 383.216 163.284 393.756 163.284 404.004C163.284 414.252 163.967 424.793 173.532 424.793ZM195.646 424.988L195.06 424.305L209.407 413.667C218.777 406.64 219.558 399.808 219.558 395.22C219.46 389.657 217.118 384.289 209.993 384.289C203.551 384.289 198.964 388.779 198.964 395.318C198.964 398.832 200.331 401.076 201.892 402.443L201.209 403.126C199.257 401.272 197.988 398.832 197.988 395.123C197.988 387.998 202.966 382.435 213.604 382.435C221.607 382.435 229.122 385.558 229.122 392.976C229.122 399.222 223.852 404.2 210.188 414.252L206.284 417.18H223.169C232.246 417.18 235.466 415.521 236.638 408.787H237.516L235.662 424.988H195.646ZM255.37 449.388C252.149 449.388 249.612 448.9 247.269 447.827C240.437 444.703 237.802 437.188 237.802 430.551H238.778C238.778 440.116 244.341 448.217 254.101 448.217C262.983 448.217 267.57 440.507 267.57 430.649C267.57 425.281 266.594 413.96 254.687 413.96H250.49V412.984H254.199C262.202 412.984 265.715 405.468 265.715 398.539C265.715 392.878 263.178 384.289 253.418 384.289C245.805 384.289 240.828 389.56 240.828 397.27C240.828 402.15 242.78 404.785 244.732 406.444L244.048 407.03C241.218 404.688 239.754 401.564 239.754 397.27C239.754 388.388 245.805 382.435 257.419 382.435C269.131 382.435 275.28 388.388 275.28 396.977C275.28 406.542 266.008 411.715 258.005 413.374C270.107 414.838 277.72 420.792 277.72 431.625C277.72 444.703 265.813 449.388 255.37 449.388Z" fill="#141313"/>
<path d="M234.915 333.283V334.269H229.001V374.679H235.408V389.168H234.422C233.338 381.776 230.578 375.665 224.172 375.665H204.46C198.053 375.665 194.998 381.48 193.815 389.168H192.928L193.125 374.679H196.279C201.897 374.186 203.967 362.852 204.46 354.77C204.952 347.969 205.149 341.464 205.149 334.269H199.236V333.283H234.915ZM205.544 354.671C204.952 362.655 203.474 370.934 199.63 374.679H219.145V334.269H206.234C206.135 341.76 206.036 347.772 205.544 354.671Z" fill="#141313"/>
<path d="M166.782 374.679V375.665H145.197V374.679H151.111V334.269H145.197V333.283H166.88V334.269H160.967V353.488H177.131V334.269H171.217V333.283H192.901V334.269H186.987V374.679H192.901V375.665H171.316V374.679H177.131V354.474H160.967V374.679H166.782Z" fill="#141313"/>
<path d="M127.237 376.256C112.846 376.256 106.44 365.808 106.44 354.671C106.44 343.927 112.354 332.691 126.152 332.691C138.768 332.691 143.499 342.055 143.499 352.502H116.789V354.671C116.789 366.695 118.169 375.073 128.419 375.073C137.487 375.073 141.232 368.568 142.317 365.513L143.302 366.005C141.429 370.441 137.388 376.256 127.237 376.256ZM125.167 333.48C118.662 333.48 116.986 341.562 116.789 351.517H133.742C133.643 344.322 132.657 333.48 125.167 333.48Z" fill="#141313"/>
<path d="M54.7944 334.268V333.283H70.3672V345.11H70.5644C72.2399 338.999 75.6896 332.691 84.6588 332.691C95.0078 332.691 102.597 341.168 102.597 353.389C102.597 365.513 95.1063 376.256 84.2645 376.256C76.0839 376.256 72.4371 370.145 70.7615 364.428H70.5644V398.728H76.4781V399.714H54.7944V398.728H60.7082V334.268H54.7944ZM82.6875 374.876C90.671 374.876 92.248 363.246 92.248 354.277C92.248 345.406 90.671 334.071 82.6875 334.071C75.9853 334.071 70.5644 341.661 70.5644 353.784V355.164C70.5644 367.188 75.9853 374.876 82.6875 374.876Z" fill="#141313"/>
<path d="M48.548 305.686V326.285H47.5623C46.4782 315.443 42.1414 306.671 29.0327 306.671H19.275V336.141C21.2462 335.846 23.7103 335.747 26.0758 335.747C41.8457 335.747 53.2789 341.661 53.2789 354.868C53.2789 367.681 42.5357 375.665 24.3017 375.665H0.351074V374.679H8.03892V306.671H0.351074V305.686H48.548ZM24.6959 336.733C22.9218 336.733 20.9506 336.831 19.275 337.028V374.679H23.8089C37.1148 374.679 41.1558 366.203 41.1558 355.164C41.1558 343.829 37.0162 336.733 24.6959 336.733Z" fill="#141313"/>
<path d="M128.381 320.415V319.429H136.069V251.421H128.381V250.436H149.473C167.609 250.436 178.45 254.477 178.45 266.403C178.45 277.836 168.397 283.552 153.81 284.144C163.863 284.735 178.155 286.312 178.155 307.207V312.037C178.155 318.049 180.027 319.33 182.787 319.33C185.251 319.33 186.434 318.246 187.715 315.191L188.504 315.487C187.124 319.035 185.547 321.006 179.042 321.006C173.128 321.006 166.327 319.429 166.327 308.784V304.349C166.327 286.509 158.935 284.637 149.079 284.637H147.305V319.429H154.993V320.415H128.381ZM149.177 251.421H147.305V283.651H149.375C161.301 283.651 166.327 277.836 166.327 266.895C166.327 255.955 161.301 251.421 149.177 251.421Z" fill="#141313"/>
<path d="M99.2266 320.415V319.429H106.914V284.834H80.6969V319.429H88.3847V320.415H61.7729V319.429H69.4608V251.421H61.7729V250.436H88.3847V251.421H80.6969V283.848H106.914V251.421H99.2266V250.436H125.838V251.421H118.15V319.429H125.838V320.415H99.2266Z" fill="#141313"/>
<path d="M64.101 205C75.193 181.823 98.7419 165.826 125.998 165.826C153.254 165.826 176.799 181.819 187.895 205H64.101ZM233 81.3983C207.686 84.8608 185.308 102.479 176.887 128.588C168.466 154.696 176.289 182.197 194.749 199.984L233 81.3983ZM57.2511 199.989C75.7069 182.201 83.5341 154.7 75.1129 128.592C66.6918 102.483 44.314 84.8693 19 81.4026L57.2511 199.989ZM130.244 0C125.695 25.3195 135.409 52.2005 157.462 68.3333C179.512 84.4704 207.897 85.4718 230.397 73.2852L130.244 0ZM21.6076 73.2895C44.1076 85.4761 72.4884 84.4747 94.5418 68.3376C116.591 52.2005 126.31 25.3237 121.76 0L21.6076 73.2895Z" fill="#CCBF89"/>
<path d="M124.503 456C112.351 456 102.5 465.851 102.5 478.003C102.5 490.155 112.351 500.006 124.503 500.006C136.655 500.006 146.506 490.155 146.506 478.003C146.506 465.851 136.655 456 124.503 456ZM123.659 486.387H120.349C120.349 483.807 120.334 481.301 120.354 478.796C120.366 477.338 120.261 475.877 118.422 475.739C116.572 475.6 115.607 476.819 115.523 478.516C115.395 481.094 115.49 483.683 115.49 486.389H112.226V467.962H115.449V474.617C116.367 474.135 117.044 473.692 117.782 473.406C120.716 472.268 123.489 473.946 123.63 477.076C123.767 480.133 123.66 483.202 123.66 486.388L123.659 486.387ZM137.132 486.384H133.821C133.821 483.808 133.837 481.357 133.815 478.906C133.802 477.427 133.771 475.884 131.761 475.718C130.175 475.587 129.025 476.797 128.946 478.831C128.851 481.281 128.924 483.738 128.924 486.352H125.734V467.909H128.798V474.634C129.692 474.157 130.292 473.789 130.928 473.506C133.884 472.195 136.909 473.81 137.093 476.973C137.27 480.038 137.131 483.122 137.131 486.384H137.132Z" fill="#141313"/>
</svg>
