<svg width="110" height="23" viewBox="0 0 110 23" fill="none" xmlns="http://www.w3.org/2000/svg">
    <g clip-path="url(#clip0_2714_1098)">
    <path d="M105.665 4.86914L101.956 9.06539V4.86914H99.2715V15.4622H101.956V11.0024L105.926 15.4622H109.394L104.51 9.91187L109.04 4.86914H105.665Z" fill="#FBFBF3"/>
    <path d="M94.5387 8.81988H90.8293V4.86914H88.1436V15.4622H90.8293V11.2855H94.5387V15.4622H97.223V4.86914H94.5387V8.81988Z" fill="#FBFBF3"/>
    <path d="M16.6172 10.6058C16.553 12.5819 16.3009 12.9765 15.2012 12.9765V15.4602H15.6115C18.3555 15.4602 19.015 14.0294 19.1165 10.8498L19.2284 7.33132H21.8008V15.4602H24.4851V4.86719H16.8052L16.6187 10.6058H16.6172Z" fill="#FBFBF3"/>
    <path d="M31.1567 8.08441H29.2185V4.86719H26.5342V15.4602H31.194C34.12 15.4602 35.1645 13.5413 35.1645 11.7339C35.1645 9.40083 33.7112 8.08291 31.1567 8.08291M30.9523 13.1256H29.2185V10.4341H30.9523C31.8849 10.4341 32.4429 10.8483 32.4429 11.7324C32.4429 12.6919 31.9028 13.1256 30.9523 13.1256Z" fill="#FBFBF3"/>
    <path d="M43.9062 4.62212V0.689453H41.2219V4.62212C38.1467 4.8857 36.0771 7.08776 36.0771 10.1544C36.0771 13.221 38.1467 15.4426 41.2219 15.7047V19.6946H43.9062V15.7047C46.9815 15.4607 49.051 13.239 49.051 10.1544C49.051 7.06968 46.9815 4.86612 43.9062 4.62212ZM41.2219 13.1472C39.7313 12.9393 38.7987 11.8112 38.7987 10.1559C38.7987 8.50056 39.7313 7.37092 41.2219 7.16457V13.1487V13.1472ZM43.9062 13.1472V7.16307C45.3968 7.36941 46.3294 8.49906 46.3294 10.1544C46.3294 11.8097 45.3968 12.9393 43.9062 13.1457" fill="#FBFBF3"/>
    <path d="M59.1179 12.206V8.64992C59.1179 6.05325 57.4781 4.41602 54.7192 4.41602C51.9603 4.41602 50.3578 6.14814 50.2265 7.95406H52.9481C53.0406 7.55944 53.4509 6.88165 54.7192 6.88165C55.7637 6.88165 56.4336 7.37116 56.4336 8.64992H53.7672C51.3814 8.64992 49.9639 9.9106 49.9639 12.0178C49.9639 14.1249 51.5142 15.7245 53.7478 15.7245C55.3862 15.7245 56.2964 14.9428 56.6933 14.3509C57.0469 15.0663 57.8302 15.4609 58.8553 15.4609H59.7879V13.0149C59.303 13.0149 59.1164 12.7889 59.1164 12.206M56.4321 11.5102C56.4321 12.7332 55.5742 13.4291 54.4566 13.4291C53.4867 13.4291 52.7228 13.0721 52.7228 12.0178C52.7228 10.9634 53.5613 10.8143 54.288 10.8143H56.4321V11.5102Z" fill="#FBFBF3"/>
    <path d="M70.6209 6.37231H67.6203V3.38102H74.5735V0.689453H64.8047V15.4607H70.6209C73.8454 15.4607 75.6911 13.843 75.6911 10.8698C75.6911 8.06678 73.8454 6.37231 70.6209 6.37231ZM70.4896 12.7887H67.6188V8.94941H70.4896C71.9802 8.94941 72.8203 9.64527 72.8203 10.8683C72.8203 12.0913 71.9817 12.7872 70.4896 12.7872" fill="#FBFBF3"/>
    <path d="M85.9627 12.206V8.64992C85.9627 6.05325 84.3228 4.41602 81.5639 4.41602C78.805 4.41602 77.2025 6.14814 77.0712 7.95406H79.7928C79.8853 7.55944 80.2956 6.88165 81.5639 6.88165C82.6084 6.88165 83.2784 7.37116 83.2784 8.64992H80.612C78.2261 8.64992 76.8086 9.9106 76.8086 12.0178C76.8086 14.1249 78.3589 15.7245 80.5926 15.7245C82.2309 15.7245 83.1411 14.9428 83.538 14.3509C83.8916 15.0663 84.675 15.4609 85.7001 15.4609H86.6326V13.0149C86.1477 13.0149 85.9612 12.7889 85.9612 12.206M83.2769 11.5102C83.2769 12.7332 82.4189 13.4291 81.3013 13.4291C80.3315 13.4291 79.5675 13.0721 79.5675 12.0178C79.5675 10.9634 80.4061 10.8143 81.1327 10.8143H83.2769V11.5102Z" fill="#FBFBF3"/>
    <path d="M15.0328 19.9785H0.678711V22.9894H15.0328V19.9785Z" fill="#FBFBF3"/>
    <path d="M10.4658 2.71678C10.0555 1.48472 9.584 0.511719 7.96805 0.511719C6.3521 0.511719 5.84926 1.4802 5.41954 2.71678L0.977539 15.4607H3.92296L4.94803 12.4317H10.615L11.5655 15.4607H14.6974L10.4658 2.71678ZM5.80599 9.8727L7.81884 3.83287H7.89345L9.79439 9.8727H5.8045H5.80599Z" fill="#FBFBF3"/>
    </g>
    <defs>
    <clipPath id="clip0_2714_1098">
    <rect width="108.715" height="22.4769" fill="white" transform="translate(0.679688 0.513672)"/>
    </clipPath>
    </defs>
    </svg>
    