<svg width="167" height="36" viewBox="0 0 167 36" fill="none" xmlns="http://www.w3.org/2000/svg">
<path fill-rule="evenodd" clip-rule="evenodd" d="M0.711294 18.3242C0.711294 8.95662 8.32245 1.3385 17.6867 1.3385C27.0301 1.3385 34.6413 8.95629 34.6413 18.3242C34.6413 27.6732 27.0301 35.2871 17.6867 35.2871C8.32245 35.2871 0.711294 27.6732 0.711294 18.3242ZM0.111572 18.3242C0.111572 28.0036 7.99211 35.8858 17.6867 35.8858C27.3585 35.8858 35.2377 28.0036 35.2377 18.3242C35.2377 8.6233 27.3588 0.742432 17.6867 0.742432C7.99211 0.742432 0.111572 8.6233 0.111572 18.3242Z" fill="#FBFBF3"/>
<path fill-rule="evenodd" clip-rule="evenodd" d="M28.8662 16.5288C28.7217 16.6524 28.5776 16.7545 28.4344 16.8807C27.4633 17.6206 25.9159 18.221 23.7927 18.78C19.3796 19.9751 16.1789 20.1378 12.5478 21.0294C11.8271 21.2136 11.0846 21.4403 10.4057 21.7292C11.0846 22.0811 11.8271 22.3899 12.57 22.6798C14.054 22.2474 14.7585 22.0609 16.9006 21.71C17.7259 21.5625 20.2428 21.1096 22.0578 20.7418C25.3397 20.0371 30.1455 18.5096 28.8662 16.5288ZM26.7426 12.4004C26.0382 12.0926 25.1721 11.7811 24.2466 11.5356C23.8308 11.8659 23.3597 12.1532 22.6549 12.4246C23.8133 12.6273 24.6797 12.9577 25.6668 13.2277C25.8321 13.3109 26.6157 12.5909 26.7426 12.4004ZM10.6724 16.7972C14.9636 15.5375 19.4608 15.1468 24.0197 13.9298C22.2457 13.4557 21.2523 13.2476 19.3796 13.4759C16.655 13.8062 13.6432 14.3811 11.066 15.1465C10.0531 15.457 4.75305 16.9622 6.28151 19.0669C6.28118 19.0884 7.18573 17.8101 10.6724 16.7972ZM7.7225 24.0191C7.70162 24.4127 7.95079 24.7629 8.46668 25.197C8.52732 24.9886 8.63202 24.8262 8.77648 24.6194C8.42427 24.4312 8.07305 24.2474 7.7225 24.0191ZM9.72477 23.8362C10.0531 23.6281 10.4438 23.4415 10.8772 23.2772C10.2801 23.0075 9.64094 22.7428 9.02167 22.4528C8.73275 22.6384 8.46635 22.8236 8.26026 23.0075C8.75395 23.2977 9.23009 23.5651 9.72477 23.8362ZM26.2035 14.7144C25.3401 15.127 24.1025 15.5378 22.3282 15.9729C20.8637 16.3433 17.3154 16.8592 13.5004 17.6839C12.3036 17.9526 9.02201 18.715 7.41303 20.0771C7.86696 20.4519 8.15556 20.5324 8.65058 20.8213C9.3106 20.3873 10.2185 19.9751 11.561 19.6219C13.889 19.0056 15.6445 18.7382 17.7498 18.389C19.8322 18.0745 23.7705 17.2512 25.9368 16.4656C26.6601 16.2197 27.3188 15.8894 27.7923 15.4944C27.6472 15.3321 26.2449 14.6512 26.2035 14.7144ZM27.4633 13.9487C27.895 14.1558 28.29 14.3006 28.6597 14.5693C28.9265 14.0521 28.7611 13.7218 28.2071 13.2479C27.9792 13.5177 27.73 13.7433 27.4633 13.9487ZM7.5174 21.6874C7.12377 21.4833 6.87692 21.318 6.54625 21.1099C6.38091 21.4833 6.71424 21.8929 7.04259 22.0811C7.18573 21.9359 7.37327 21.8124 7.5174 21.6874ZM25.7496 9.84444C25.6668 10.1334 25.3609 10.4839 25.1525 10.7122C25.7927 10.8775 26.4527 11.1217 27.07 11.35C26.9885 10.7725 26.3284 10.2152 25.7496 9.84444ZM5.57675 13.4935C10.074 10.5644 15.0461 8.83187 23.461 10.2984C23.915 10.0283 24.182 9.75994 24.3086 9.22384C22.2026 8.4611 19.9147 8.19238 16.9662 8.23248C14.3237 8.31564 9.55844 9.30436 7.0035 10.8139L7.78446 9.84411C9.55844 8.78847 14.1988 7.40778 17.6868 7.34483C20.1397 7.28452 21.3981 7.427 24.3282 8.21127C24.0584 7.71957 23.4614 7.46974 22.5741 7.05756C19.7497 5.79781 14.4891 5.6729 10.179 7.59201C10.7135 7.22124 11.2503 6.88957 11.9534 6.58474C13.3738 5.92272 15.7064 5.28192 18.6136 5.34388C20.9465 5.3853 23.7105 6.19012 25.4007 7.86205C25.688 8.21128 25.8546 8.56183 25.9163 8.83187C27.2575 9.51277 28.0398 10.1519 28.4729 10.8948C28.6601 11.2871 28.722 11.6993 28.6382 12.1734C29.1948 12.5024 29.4649 12.7927 29.7551 13.1674C29.9377 13.4762 30.0822 13.8241 30.1252 14.1386C30.1855 14.5481 30.2266 15.0236 29.7936 15.5812C30.2475 15.8095 30.6176 16.446 30.662 16.7174C30.8876 17.7246 30.227 18.7157 29.3827 19.4814C28.391 20.3462 26.2045 21.3793 24.4302 21.8346C20.926 22.7199 17.8097 23.0933 15.337 23.5472C16.4496 23.8146 17.9552 24.1675 20.4104 24.1675C25.6678 24.1675 30.3091 21.6884 30.3091 21.6884C30.3091 21.6884 30.2077 22.0012 30.103 22.2901C26.7615 24.3113 21.4624 25.1559 19.1914 25.0528C16.9015 24.9481 14.9642 24.5989 13.0663 24.0201C12.4881 24.1864 11.9106 24.3729 11.3553 24.5989C14.2436 25.919 16.4287 26.2089 18.8839 26.3931C21.3988 26.581 25.5677 25.9796 29.0716 24.7033C28.9066 24.8699 28.8244 25.1158 28.6607 25.2609C26.8645 26.2089 23.0717 27.1588 21.1529 27.2407C19.2534 27.3238 16.9446 27.2407 14.9225 26.8686C13.1899 26.5193 11.7648 25.9796 10.2808 25.3229C10.0144 25.5257 9.89077 25.7768 9.82682 26.0654C15.6256 29.0981 21.0274 29.1598 27.1972 27.2407L26.6372 27.7778C19.8514 30.5434 14.551 29.4689 10.4448 27.4892C10.3016 27.4262 10.1366 27.3629 10.0144 27.2811C10.4067 27.9431 13.5391 30.233 17.046 30.5216C19.4615 30.7283 22.41 30.3148 24.1635 29.6154L23.1334 30.1498C22.2858 30.5633 20.039 31.5143 16.9015 31.3072C12.7154 31.0173 10.3623 29.1598 9.31126 28.1916C8.81492 27.7347 8.5906 27.2205 8.44482 26.5813C7.49586 26.0856 6.8978 25.5684 6.40411 24.7841C6.11518 24.3517 6.17581 23.8375 6.23777 23.4008L6.36468 23.033C5.90942 22.7 5.43461 22.3495 5.24939 22.0016C4.83522 21.2577 5.08538 20.6156 5.37298 20.1212C5.12382 19.8326 4.89685 19.5437 4.79679 19.2551C4.6732 18.9248 4.65232 18.5914 4.69076 18.2223C4.77326 17.6044 5.10493 17.0272 5.53832 16.5302C6.4442 15.4785 7.89148 14.6525 10.343 13.848C12.7585 13.0422 13.7283 12.9173 15.5434 12.5034C17.6669 12.0107 20.2043 11.8467 22.3292 11.1039C16.4069 10.0724 10.2625 11.0207 5.24972 14.4643L5.57675 13.4935Z" fill="#FBFBF3"/>
<path fill-rule="evenodd" clip-rule="evenodd" d="M57.3718 15.25L58.0527 19.955H56.6896L57.3718 15.25ZM52.0714 26.0012H55.6803L56.1343 23.338H58.6302L59.0636 26.0012H62.6726L59.619 10.606H55.1234L52.0714 26.0012Z" fill="#FBFBF3"/>
<path fill-rule="evenodd" clip-rule="evenodd" d="M66.0971 16.5713C66.6733 16.5713 67.7269 16.1992 67.7269 15.0644C67.7269 13.7241 66.5102 13.6393 66.1577 13.6393C65.7468 13.6393 64.9632 13.7023 64.1995 14.0744L64.1584 10.7288C65.3751 10.4197 66.2415 10.3365 67.2717 10.3365C70.203 10.3365 71.5022 12.3806 71.5022 14.3805C71.5022 16.3225 70.3869 17.4964 69.2948 17.9517V18.0955C70.3471 18.4285 71.7484 19.4374 71.7484 21.7902C71.7484 24.7017 69.7279 26.3097 67.1285 26.3097C65.7465 26.2908 64.8387 26.1056 63.7452 25.5065L63.8072 22.3061C64.8184 22.7412 65.4987 22.7816 66.1799 22.7816C67.3356 22.7816 67.7876 21.934 67.7876 21.3174C67.7876 20.45 67.2322 19.8724 66.0146 19.8724H64.5709V16.5713H66.0971Z" fill="#FBFBF3"/>
<path fill-rule="evenodd" clip-rule="evenodd" d="M73.4198 10.6056H83.1555V26.0012H79.5867V14.3205H76.9883V26.0012H73.4198V10.6056Z" fill="#FBFBF3"/>
<path fill-rule="evenodd" clip-rule="evenodd" d="M88.7648 13.9902H89.6111C90.4169 13.9902 90.9324 14.4859 90.9324 15.7659C90.9324 17.4166 90.065 17.5389 89.6111 17.5389H88.7648V13.9902ZM85.1967 26.0012H88.7648V20.9258H89.9626C93.4884 20.9258 94.5828 17.747 94.5828 15.7215C94.5828 13.7417 93.3227 10.606 89.9626 10.606H85.1967V26.0012Z" fill="#FBFBF3"/>
<path fill-rule="evenodd" clip-rule="evenodd" d="M101.183 22.4517C99.9231 22.4517 99.2863 20.9878 99.2863 18.2841C99.2863 15.5791 99.9231 14.1152 101.183 14.1152C102.443 14.1152 103.079 15.5791 103.079 18.2841C103.079 20.9878 102.443 22.4517 101.183 22.4517ZM101.183 26.1878C105.412 26.1878 106.833 22.2244 106.833 18.2841C106.833 14.3438 105.412 10.3804 101.183 10.3804C96.955 10.3804 95.5326 14.3438 95.5326 18.2841C95.5326 22.2244 96.9554 26.1878 101.183 26.1878Z" fill="#FBFBF3"/>
<path fill-rule="evenodd" clip-rule="evenodd" d="M125.874 22.9051V19.4184H126.389C126.822 19.4184 127.937 19.4389 127.937 21.0274C127.937 22.639 126.822 22.9051 126.389 22.9051H125.874ZM122.387 26.0008H126.636C127.563 26.0008 131.421 25.6071 131.442 20.9426C131.442 17.0265 128.452 16.3442 126.513 16.3442H125.873V14.3002H130.597V10.6068H122.387V26.0008Z" fill="#FBFBF3"/>
<path fill-rule="evenodd" clip-rule="evenodd" d="M144.275 10.6056H147.76V16.1578H150.257V10.6056H153.741V26.0012H150.257V19.8314H147.76V26.0012H144.275V10.6056Z" fill="#FBFBF3"/>
<path fill-rule="evenodd" clip-rule="evenodd" d="M156.09 10.6056H159.597L159.576 16.1363H160.339L162.34 10.6056H166.136L163.412 17.9132L166.528 26.0012H162.422L160.402 19.8095H159.576L159.597 26.0012H156.09V10.6056Z" fill="#FBFBF3"/>
<path fill-rule="evenodd" clip-rule="evenodd" d="M45.1632 10.6056H52.4821V14.4441H48.792V26.0012H45.1632V10.6056Z" fill="#FBFBF3"/>
<path fill-rule="evenodd" clip-rule="evenodd" d="M108.548 10.6056H111.58L114.259 14.2387L116.963 10.6056H119.974V26.0012H116.403V16.6104L114.259 19.2936L112.115 16.6104V26.0012H108.548V10.6056Z" fill="#FBFBF3"/>
<path fill-rule="evenodd" clip-rule="evenodd" d="M137.445 15.2899L138.104 19.9747H136.763L137.445 15.2899ZM132.124 26.0209H135.754L136.188 23.3593H138.682L139.116 26.0209H142.746L139.694 10.6283H135.196L132.124 26.0209Z" fill="#FBFBF3"/>
</svg>
