<svg width="89" height="17" viewBox="0 0 89 17" fill="none" xmlns="http://www.w3.org/2000/svg">
<path d="M4.2154 15.9384C4.1502 15.9983 3.99196 16.0277 3.73885 16.0277H0.588696C0.248919 16.0277 0.112145 15.8794 0.18249 15.5833L2.72712 4.71081C2.85229 4.17809 3.04792 3.65686 3.31612 3.14583C3.58309 2.63613 3.92799 2.18524 4.3534 1.7931C4.77759 1.40087 5.2911 1.08533 5.89525 0.849055C6.49697 0.61258 7.19059 0.493757 7.97373 0.493757H14.7212C14.8988 0.493757 15.0074 0.520683 15.047 0.573164C15.0853 0.624187 15.0764 0.774911 15.0177 1.02659L14.4314 3.53418C14.3853 3.72712 14.3265 3.85606 14.2511 3.92249C14.1758 3.98895 14.057 4.02222 13.8948 4.02222H8.41444C8.118 4.02222 7.87157 4.06307 7.67606 4.14482C7.47809 4.22531 7.32099 4.32501 7.206 4.44383C7.08963 4.56251 6.99776 4.6954 6.93388 4.84366C6.87002 4.99173 6.82023 5.14 6.78573 5.28695L6.46493 6.66266H12.3005C12.4781 6.66266 12.5855 6.69336 12.6237 6.75087C12.6621 6.81093 12.6504 6.9668 12.5917 7.21713L12.0514 9.5254C11.9721 9.86541 11.792 10.0366 11.511 10.0366H5.67553L4.37641 15.5833C4.3342 15.7609 4.2806 15.8794 4.2154 15.9384Z" fill="#FBFBF3"/>
<path d="M23.9175 8.26098C24.0387 7.68484 24.1193 7.13302 24.1602 6.60791C24.2025 6.08291 24.1716 5.62814 24.0696 5.24237C23.9672 4.85783 23.7717 4.55255 23.4856 4.32265C23.1995 4.09386 22.797 3.97764 22.2799 3.97764C21.8506 3.97764 21.4467 4.08883 21.07 4.31104C20.6932 4.53334 20.3559 4.83359 20.0607 5.21044C19.7645 5.58726 19.5076 6.02797 19.2866 6.53008C19.0644 7.03332 18.8894 7.55844 18.7617 8.10634C18.6032 8.78732 18.5037 9.40053 18.464 9.94709C18.4256 10.4953 18.464 10.9576 18.584 11.3344C18.7015 11.7127 18.9073 12.0038 19.1985 12.211C19.491 12.4193 19.8883 12.5224 20.3917 12.5224C20.8796 12.5224 21.3127 12.4076 21.692 12.1778C22.0716 11.9489 22.4023 11.6385 22.6858 11.2463C22.9708 10.8541 23.2135 10.3994 23.4153 9.88211C23.6185 9.36346 23.786 8.82439 23.9175 8.26098ZM28.34 8.23919C28.0487 9.48217 27.6526 10.5986 27.1546 11.5899C26.6564 12.5814 26.0419 13.4259 25.3098 14.1195C24.5778 14.8143 23.7157 15.3482 22.7281 15.7175C21.7383 16.0865 20.6152 16.272 19.3581 16.272C18.16 16.272 17.161 16.0904 16.3663 15.729C15.5718 15.3661 14.9739 14.841 14.5728 14.1537C14.1716 13.4654 13.9494 12.6246 13.9086 11.6335C13.8663 10.6434 13.9903 9.52704 14.2816 8.28264C14.5652 7.0704 14.9765 5.96791 15.5118 4.97797C16.047 3.98656 16.6883 3.1383 17.4369 2.43576C18.1855 1.73311 19.0414 1.19282 20.0021 0.815854C20.9628 0.439146 22.0204 0.251209 23.174 0.251209C24.3734 0.251209 25.3687 0.439146 26.1594 0.815854C26.9514 1.19282 27.5582 1.7292 27.981 2.42416C28.4015 3.12044 28.6376 3.96101 28.6887 4.94346C28.7385 5.92838 28.6236 7.02561 28.34 8.23919Z" fill="#FBFBF3"/>
<path d="M54.2006 10.9689C54.3012 10.5398 54.2541 10.1884 54.0614 9.91509C53.8685 9.64189 53.5286 9.50365 53.0433 9.50365H50.4398L49.759 12.4112H52.3621C52.6574 12.4112 52.9103 12.3665 53.1236 12.2783C53.3345 12.189 53.5158 12.0701 53.6692 11.9232C53.8213 11.7751 53.9374 11.6203 54.0217 11.4571C54.102 11.2935 54.1635 11.1313 54.2006 10.9689ZM51.2073 6.22062H53.5235C53.8159 6.22062 54.1074 6.14538 54.3921 5.99832C54.6745 5.85014 54.8675 5.56153 54.9681 5.13231C55.0476 4.79245 55.0078 4.53316 54.852 4.35563C54.6948 4.17789 54.447 4.08988 54.11 4.08988H51.707L51.2073 6.22062ZM57.0427 7.5518C57.4146 7.7281 57.715 7.9542 57.9383 8.22752C58.1618 8.5021 58.3279 8.80492 58.4365 9.13832C58.5425 9.4705 58.5937 9.81942 58.5897 10.1808C58.5874 10.5437 58.5451 10.9012 58.4608 11.2563C58.2947 11.9668 58.006 12.6144 57.5961 13.1995C57.1859 13.7832 56.6866 14.2864 56.0989 14.7083C55.5138 15.1297 54.8635 15.4555 54.152 15.684C53.4391 15.914 52.6982 16.0277 51.9293 16.0277H46.1602C45.5534 16.0277 45.1881 15.914 45.064 15.684C44.9414 15.4555 44.94 15.0812 45.0603 14.5636L48.0113 1.95907C48.1248 1.47111 48.2998 1.10566 48.535 0.861814C48.7688 0.616392 49.1904 0.493911 49.7958 0.493911H55.5661C56.2304 0.493911 56.8361 0.56917 57.3774 0.715978C57.9205 0.864271 58.3676 1.10175 58.72 1.42635C59.0728 1.75326 59.3166 2.1673 59.4509 2.66929C59.5838 3.17265 59.5684 3.77949 59.4009 4.48852C59.2671 5.06588 58.981 5.62404 58.5425 6.16448C58.1072 6.70489 57.6164 7.12258 57.075 7.41891L57.0427 7.5518Z" fill="#FBFBF3"/>
<path d="M70.2895 16.0277H63.4322C62.5429 16.0277 61.8529 15.9013 61.3576 15.6509C60.8619 15.3979 60.5015 15.0708 60.2794 14.6633C60.0556 14.2557 59.9447 13.8009 59.9435 13.2977C59.9421 12.7944 60.001 12.2986 60.1144 11.8107L61.7766 4.7107C61.9015 4.17786 62.097 3.65678 62.3651 3.14584C62.6324 2.63613 62.9786 2.18513 63.4025 1.7929C63.8269 1.40076 64.3414 1.08522 64.9446 0.848834C65.5462 0.612473 66.24 0.493651 67.0243 0.493651H73.57C73.749 0.493651 73.8562 0.520462 73.8956 0.572943C73.9368 0.624079 73.9251 0.776031 73.8679 1.02637L73.2828 3.5353C73.2368 3.72701 73.1753 3.85607 73.0998 3.92241C73.0258 3.98884 72.9069 4.022 72.7448 4.022H67.4637C67.1672 4.022 66.9194 4.06299 66.7253 4.14471C66.5272 4.2252 66.3715 4.32493 66.2554 4.44495C66.1379 4.5624 66.0482 4.69529 65.9833 4.84356C65.9193 4.99162 65.8707 5.13977 65.8349 5.28684L65.6163 6.21927H71.5657C71.7432 6.21927 71.8504 6.24997 71.889 6.30748C71.9259 6.36757 71.9156 6.52343 71.8559 6.77497L71.3165 9.08213C71.2362 9.42179 71.0561 9.59184 70.7748 9.59184H64.8271L64.4386 11.2564C64.3723 11.5386 64.3529 11.761 64.3826 11.9232C64.4106 12.0855 64.4732 12.2068 64.5741 12.2886C64.6739 12.369 64.8028 12.4214 64.9588 12.4443C65.1169 12.4662 65.2921 12.4762 65.4839 12.4762H71.121C71.2985 12.4762 71.406 12.5033 71.4468 12.5555C71.4866 12.6066 71.4774 12.7586 71.4188 13.0091L70.8311 15.518C70.752 15.8576 70.5693 16.0277 70.2895 16.0277Z" fill="#FBFBF3"/>
<path d="M86.8992 4.02274H83.1053L80.4032 15.5622C80.3624 15.7397 80.3075 15.8622 80.2409 15.9286C80.1708 15.995 80.0125 16.0282 79.761 16.0282H76.6093C76.2694 16.0282 76.1365 15.8724 76.2108 15.5622L78.9112 4.02274H75.2038C74.8934 4.02274 74.7773 3.8529 74.8577 3.51303L75.4379 1.02711C75.4979 0.775434 75.5657 0.624824 75.646 0.572344C75.724 0.519978 75.853 0.494395 76.0293 0.494395H87.7259C87.9019 0.494395 88.0183 0.519978 88.072 0.572344C88.1269 0.624824 88.1243 0.775434 88.0654 1.02711L87.4843 3.51303C87.4037 3.8529 87.2096 4.02274 86.8992 4.02274Z" fill="#FBFBF3"/>
<path d="M34.5896 7.61831L32.6928 15.5615C32.6519 15.7391 32.5968 15.8616 32.529 15.928C32.4601 15.9944 32.3018 16.0277 32.0502 16.0277H28.9C28.5587 16.0277 28.4261 15.8733 28.5001 15.5615L31.6784 2.24902C31.8444 1.55417 32.0694 1.08657 32.3567 0.850293C32.6405 0.614018 33.095 0.495109 33.7158 0.495109H34.8695C35.0919 0.495109 35.2822 0.506629 35.4391 0.528267C35.5964 0.551277 35.737 0.594725 35.8608 0.662497C35.986 0.728926 36.0997 0.828513 36.2006 0.9614C36.3029 1.09549 36.4076 1.27302 36.5173 1.49409L38.5574 6.24251L39.6421 8.94927H39.7979L41.7039 0.9614C41.7462 0.783865 41.8011 0.662498 41.8688 0.594725C41.9366 0.528268 42.0961 0.495109 42.3465 0.495109H45.4981C45.8377 0.495109 45.972 0.650978 45.8966 0.9614L42.7195 14.2749C42.5994 14.7772 42.3965 15.1962 42.1101 15.5284C41.8239 15.8616 41.3474 16.0277 40.682 16.0277H39.5284C39.3203 16.0277 39.135 16.0176 38.9701 15.9944C38.804 15.973 38.6597 15.928 38.5359 15.8616C38.4107 15.7952 38.2933 15.6944 38.1858 15.5615C38.0772 15.4287 37.9751 15.2511 37.8791 15.0289L35.8633 10.3697L34.7454 7.61831H34.5896Z" fill="#FBFBF3"/>
</svg>
