<svg width="63" height="28" viewBox="0 0 63 28" fill="none" xmlns="http://www.w3.org/2000/svg">
<path d="M44.4901 2.48898V3.49257H53.1047C53.461 3.40998 53.8326 3.41957 54.1842 3.52044C54.5358 3.62131 54.8559 3.81011 55.1142 4.06905C55.3726 4.32799 55.5607 4.64852 55.6608 5.00034C55.7608 5.35217 55.7696 5.7237 55.6862 6.07985V14.6712C55.7696 15.0274 55.7608 15.3989 55.6608 15.7508C55.5607 16.1026 55.3726 16.4231 55.1142 16.682C54.8559 16.941 54.5358 17.1298 54.1842 17.2307C53.8326 17.3315 53.461 17.3411 53.1047 17.2585H48.9395C48.2202 17.2585 47.2862 17.2585 46.9324 16.4696C46.5785 15.6806 47.0716 14.9613 47.5125 14.387L53.1105 6.92101H44.4901L41.0733 11.5039C40.4931 12.2754 39.9943 12.9425 39.9943 13.8243C39.9943 14.706 40.4641 15.3036 41.0733 16.1447L41.9376 17.3049C42.7962 18.4651 43.6779 19.6254 44.8033 20.1765C45.9288 20.7276 47.3152 20.7566 49.1832 20.7566H52.9133C55.0713 20.7566 58.2967 20.7566 60.4547 18.6044C62.6127 16.4522 62.6127 13.2906 62.6127 12.142V8.69614C62.6127 7.53593 62.6127 4.39174 60.4547 2.23954C58.2967 0.087335 55.0771 0.0873223 52.9133 0.0873223H46.9324C46.5984 0.0239017 46.254 0.042975 45.929 0.142876C45.6041 0.242777 45.3085 0.420486 45.0678 0.660579C44.8271 0.900672 44.6487 1.1959 44.548 1.5206C44.4474 1.8453 44.4275 2.18965 44.4901 2.52378" fill="#FBFBF3"/>
<path d="M34.1522 6.91553H42.7668L32.4292 20.6931H23.8204L34.1522 6.91553Z" fill="#FBFBF3"/>
<path d="M0.564225 9.35218C0.500504 9.01763 0.519567 8.67257 0.619752 8.34708C0.719937 8.02158 0.898208 7.72554 1.13902 7.48472C1.37984 7.24391 1.67589 7.06565 2.00139 6.96546C2.32688 6.86528 2.67194 6.8462 3.00648 6.90993H17.4338C19.2959 6.90993 20.6592 6.90992 21.8078 7.49003C22.9564 8.07014 23.8208 9.23036 24.6793 10.3616L25.5437 11.5218C26.1238 12.3397 26.6169 12.9605 26.6169 13.8422C26.6169 14.724 26.118 15.3679 25.5437 16.1627L22.0979 20.7571H13.4832L19.0813 13.2911C19.5106 12.711 20.0153 11.9975 19.6614 11.2085C19.3075 10.4196 18.3678 10.4196 17.6542 10.4196H10.9076V27.643H4.01007V10.3558H0.564225V9.35218Z" fill="#FBFBF3"/>
</svg>
