<svg xmlns="http://www.w3.org/2000/svg" width="80" height="81" viewBox="0 0 80 81" fill="none">
    <path d="M16.1459 80.9322C20.1168 72.6942 28.5471 67.0081 38.3047 67.0081C48.0622 67.0081 56.491 72.6927 60.4634 80.9322H16.1459ZM76.6108 36.9988C67.5485 38.2296 59.5374 44.4917 56.5227 53.7719C53.508 63.0521 56.3085 72.8269 62.9171 79.1494L76.6108 36.9988ZM13.6937 79.1509C20.3008 72.8284 23.1028 63.0536 20.0881 53.7734C17.0734 44.4932 9.06227 38.2326 0 37.0003L13.6937 79.1509ZM39.8248 8.06641C38.1961 17.066 41.6738 26.6207 49.5688 32.355C57.4623 38.0908 67.6239 38.4467 75.6788 34.1151L39.8248 8.06641ZM0.933524 34.1166C8.98837 38.4483 19.1486 38.0923 27.0435 32.3565C34.937 26.6207 38.4163 17.0675 36.7875 8.06641L0.933524 34.1166Z" fill="#CCBF89"/>
    <path d="M70.3846 0C65.0743 0 60.7695 4.30475 60.7695 9.61499C60.7695 14.9252 65.0743 19.23 70.3846 19.23C75.6949 19.23 79.9997 14.9252 79.9997 9.61499C79.9997 4.30475 75.6949 0 70.3846 0ZM70.0157 13.279H68.5692C68.5692 12.1511 68.5627 11.0563 68.5718 9.96146C68.577 9.32443 68.5311 8.68601 67.7273 8.62565C66.919 8.56506 66.4972 9.09751 66.4605 9.83934C66.4048 10.9658 66.446 12.0971 66.446 13.2797H65.0198V5.22718H66.4282V8.13554C66.8292 7.92476 67.1251 7.73129 67.4475 7.60637C68.7297 7.10878 69.9415 7.84241 70.0031 9.21004C70.063 10.5461 70.0162 11.887 70.0162 13.2792L70.0157 13.279ZM75.9034 13.2773H74.4567C74.4567 12.1518 74.4637 11.0809 74.4541 10.0099C74.4483 9.36327 74.4347 8.68928 73.5565 8.61676C72.8633 8.55944 72.361 9.08792 72.3264 9.9769C72.2847 11.0476 72.3166 12.1212 72.3166 13.2633H70.9227V5.20402H72.2616V8.14303C72.6525 7.93435 72.9143 7.77364 73.1924 7.65012C74.484 7.07719 75.8061 7.78299 75.8863 9.16489C75.964 10.5044 75.9032 11.8519 75.9032 13.2773H75.9034Z" fill="#CCBF89"/>
  </svg>