<svg width="77" height="22" viewBox="0 0 77 22" fill="none" xmlns="http://www.w3.org/2000/svg">
    <path d="M19.1449 0.513672H0.120117V19.5451L19.1449 0.513672Z" fill="#FBFBF3"/>
    <path d="M1.81836 21.2892H20.8365V2.25781L1.81836 21.2892Z" fill="#FBFBF3"/>
    <path d="M31.8913 0.541016H25.1611V21.2862H29.3171V13.5376H31.9778C36.8331 13.5376 39.6204 11.207 39.6204 7.13933V7.02597C39.6204 2.90494 36.8031 0.541016 31.8946 0.541016H31.8913ZM35.5477 7.13933C35.5477 9.29321 34.2823 10.4302 31.8913 10.4302H29.3171V3.85184H31.8913C34.3855 3.85184 35.5477 4.8621 35.5477 7.02597V7.13933Z" fill="#FBFBF3"/>
    <path d="M49.7506 8.68972H46.3506V3.90519H55.3718V0.541016H42.2246V21.2862H49.6674C54.4161 21.2862 57.1368 18.9856 57.1368 14.9746V14.8613C57.1368 10.8803 54.5127 8.68972 49.7506 8.68972ZM46.3506 11.7972H49.4076C51.9052 11.7972 53.1207 12.7874 53.1207 14.8279V14.9413C53.1207 16.9718 51.9185 18.0054 49.5508 18.0054H46.3506V11.7972Z" fill="#FBFBF3"/>
    <path d="M67.4004 10.4462L75.9854 0.513672H71.4232L63.8972 9.44924V0.540345H59.7412V21.2855H63.8972V12.1032L71.4498 21.2855H76.4017L67.4004 10.4462Z" fill="#FBFBF3"/>
    </svg>
    