<svg width="76" height="43" viewBox="0 0 76 43" fill="none" xmlns="http://www.w3.org/2000/svg">
    <path d="M51.1768 4.73146H51.9281C51.8111 3.99086 51.6978 3.24651 51.5544 2.53224C51.426 3.26155 51.3128 4.0059 51.1768 4.73146ZM52.0716 0.675119C52.4567 2.93825 52.8569 5.12619 53.2533 7.30285H52.3623C52.3095 6.88556 52.1962 6.37429 52.1584 5.98708C51.8753 5.96076 51.3014 6.03219 50.9768 5.96076C50.9012 6.40437 50.8371 6.87052 50.7465 7.30285H49.9121C50.2708 5.07356 50.671 2.94952 51.0938 0.648804C51.4109 0.663841 51.7998 0.611211 52.0716 0.675119Z" fill="#FBFBF3"/>
    <path d="M2.20085 3.84343C2.68032 3.67426 2.83888 2.16676 2.22728 1.92992C2.03851 1.85849 1.87239 1.95247 1.65342 1.87729C1.65342 2.44495 1.6572 3.24569 1.65342 3.90358C1.88372 3.82463 2.01208 3.91109 2.20085 3.84343ZM0.875704 0.647981C1.86484 0.700612 2.56706 0.463773 3.0352 0.986322C3.37875 1.37354 3.50334 2.1442 3.49579 2.73066C3.48446 3.96373 3.17489 5.35092 1.67985 5.1592C1.6119 5.81708 1.66853 6.59903 1.64965 7.30203C1.37782 7.29075 1.04182 7.33586 0.811523 7.27571V0.730687C0.819074 0.681815 0.841726 0.659259 0.875704 0.647981Z" fill="#FBFBF3"/>
    <path d="M0.415039 8.50272C0.686863 8.52151 1.02664 8.46888 1.25316 8.53279C1.00399 8.82226 0.728392 9.0779 0.415039 9.30346V8.50272Z" fill="#FBFBF3"/>
    <path d="M3.47003 8.53176C2.89995 9.23475 2.16376 9.91519 1.62389 10.558C1.51063 10.4152 1.35207 10.3174 1.25391 10.1596C1.54461 9.79114 1.93347 9.37009 2.22794 9.10318C2.42049 8.81746 2.77537 8.31371 3.47003 8.53176Z" fill="#FBFBF3"/>
    <path d="M6.03187 5.81897C6.22819 5.48439 6.33768 4.66109 6.3188 3.90546C6.29237 2.81149 6.17156 1.51076 5.19752 1.90549C4.64255 2.6348 4.44623 5.60845 5.45802 6.19115C5.69964 6.16483 5.88841 6.06333 6.03187 5.81897ZM4.50664 6.90542C3.64209 5.47687 3.59301 2.14985 4.67653 0.845353C4.95213 0.717535 5.09559 0.45814 5.65434 0.503252C5.94882 0.525808 6.31125 0.755129 6.52267 1.01828C7.49671 2.23631 7.46273 6.10092 6.3188 7.16106C6.11116 7.35278 5.82423 7.49188 5.36742 7.44677C5.03519 7.41293 4.77469 7.19113 4.50664 6.90542Z" fill="#FBFBF3"/>
    <path d="M10.0598 3.42006C10.0295 2.82609 9.85966 1.89001 9.42549 1.78851C8.57982 1.59678 8.47033 3.34112 8.50809 4.21704C8.53451 5.00651 8.68175 6.08544 9.1952 6.16063C9.98802 6.27341 9.90119 5.10049 10.0862 4.58922C10.022 4.19825 10.0824 3.81104 10.0598 3.42006ZM10.2334 0.987765C10.2108 0.961449 10.4033 1.19453 10.4637 1.30355C11.1206 2.44263 11.1244 5.51026 10.4637 6.67566C10.2221 7.10046 9.62181 7.63429 8.93848 7.41625C7.90781 7.08543 7.67374 5.5065 7.61333 4.10051C7.55293 2.64188 7.95689 1.01032 8.76481 0.61559C9.34999 0.337398 9.93139 0.61183 10.2334 0.987765Z" fill="#FBFBF3"/>
    <path d="M39.5505 0.674739C39.5505 1.1221 39.5467 1.71984 39.5505 2.07322C39.475 2.14464 39.256 2.06946 39.1768 2.12961C38.7766 2.55441 38.8143 3.41154 38.4859 3.90026C38.9087 5.0431 39.3693 6.26489 39.728 7.29871H38.7162C38.399 6.47917 38.0102 5.39648 37.7648 4.61078C37.7497 4.63709 37.6062 4.67844 37.5911 4.61078C37.5269 5.32881 37.5836 6.4115 37.5609 7.26864C37.3344 7.32879 36.9984 7.28367 36.7266 7.29495V0.674739C36.9418 0.629627 37.3457 0.629627 37.5609 0.674739C37.5458 1.56195 37.6024 2.52058 37.5345 3.36267C38.0064 3.26869 38.0479 2.67471 38.165 2.24615C38.282 1.82886 38.3802 1.35142 38.5387 1.04691C38.7124 0.72737 39.0597 0.516847 39.5505 0.674739Z" fill="#FBFBF3"/>
    <path d="M12.3977 0.649774V4.53318C12.847 3.28508 13.2358 1.84525 13.6322 0.649774C13.9229 0.664811 14.2816 0.61218 14.5232 0.676089V7.2775C14.2967 7.33765 13.9607 7.29254 13.6889 7.30382C13.6889 5.90534 13.6889 4.35273 13.6889 3.04824C13.2169 4.47303 12.8205 5.85271 12.3939 7.30382C12.1221 7.28502 11.7785 7.34141 11.5596 7.2775V0.732479C11.6804 0.548271 12.1372 0.694886 12.3977 0.649774Z" fill="#FBFBF3"/>
    <path d="M16.8871 0.650391H19.7111C19.7753 2.81202 19.7186 5.0977 19.7375 7.30444C19.5487 7.30068 19.0655 7.30068 18.8729 7.30444V1.96616H17.7215C17.6573 3.68794 17.7101 5.53378 17.695 7.30444C17.4119 7.28564 17.0608 7.34203 16.8305 7.27812V0.733096C16.8267 0.684225 16.8494 0.661669 16.8871 0.650391Z" fill="#FBFBF3"/>
    <path d="M22.8793 0.675032V1.96449H21.3805V3.04718C21.7845 3.11485 22.313 3.05846 22.7623 3.07726V4.39303H21.3805V5.99075C21.8109 6.05842 22.3659 6.00203 22.8491 6.02082C22.9095 6.39676 22.8604 6.88548 22.8755 7.30276H20.5424C20.4744 5.17121 20.531 2.91184 20.5122 0.731422C20.5122 0.682551 20.531 0.659995 20.5688 0.644957C21.3314 0.663754 22.1658 0.607364 22.8793 0.675032Z" fill="#FBFBF3"/>
    <path d="M25.0633 3.78966C25.3805 3.58666 25.3956 2.50021 25.2106 2.13179C25.2068 2.15059 25.203 2.16563 25.1804 2.15811C25.1086 1.84608 24.6896 1.90623 24.4026 1.90247C24.3838 2.54908 24.4442 3.27087 24.3762 3.87237C24.7349 3.89493 24.8104 3.88365 25.0633 3.78966ZM24.4291 5.16183C24.3649 5.80843 24.4215 6.5791 24.3989 7.27834C24.1761 7.32345 23.7608 7.32345 23.5381 7.27834V0.676924C24.4291 0.688202 25.2181 0.4664 25.6976 0.906244C26.4602 1.60924 26.3205 3.86485 25.758 4.67687C25.69 4.77085 25.4673 5.00017 25.2936 5.10544C25.0331 5.13551 24.799 5.18062 24.4291 5.16183Z" fill="#FBFBF3"/>
    <path d="M30.0467 0.650391H32.8971V7.30444C32.6177 7.28564 32.2666 7.34203 32.0326 7.27812V1.98872C31.7079 1.92481 31.2548 1.9812 30.8811 1.9624C30.8131 3.67291 30.8698 5.51123 30.8547 7.27436C30.6281 7.31947 30.2128 7.31947 29.9863 7.27436V0.733096C29.9863 0.684225 30.009 0.661669 30.0467 0.650391Z" fill="#FBFBF3"/>
    <path d="M36.0041 0.648291C36.0721 1.02798 36.0155 1.53174 36.0343 1.96406H34.5355C34.5204 2.32496 34.5733 2.76104 34.5053 3.07683C34.8564 3.09939 35.5209 3.03548 35.9173 3.1069C35.8984 3.52795 35.955 4.02043 35.8909 4.3926H34.5355C34.5355 4.81365 34.5355 5.47905 34.5355 5.99408C34.9697 6.08055 35.6002 5.96401 36.0343 6.05047V7.27978C35.3132 7.34745 34.4676 7.2873 33.7012 7.3061V0.730996C33.7012 0.682125 33.72 0.659569 33.7578 0.644531H36.0041V0.648291Z" fill="#FBFBF3"/>
    <path d="M42.6612 0.674791V1.96425H41.7061C41.6419 3.67475 41.6948 5.51307 41.6797 7.27621C41.4531 7.32132 41.0416 7.32132 40.8151 7.27621V1.96425H39.8071C39.826 1.53568 39.7693 1.02817 39.8373 0.648476C40.7698 0.663513 41.774 0.607123 42.6612 0.674791Z" fill="#FBFBF3"/>
    <path d="M45.1901 0.674691C45.443 0.637097 45.8658 0.62206 46.115 0.674691V7.30242C45.8432 7.29114 45.5072 7.33626 45.2807 7.27611C45.2769 5.87011 45.2844 4.20848 45.2807 2.99045C44.8087 4.36261 44.4048 5.88139 43.9555 7.30242H43.1514V0.674691C43.3628 0.629579 43.7705 0.629579 43.9819 0.674691V4.47539C44.3821 3.42277 44.771 1.90024 45.1901 0.674691Z" fill="#FBFBF3"/>
    <path d="M47.7261 6.07417C48.0621 6.04034 48.2849 6.14184 48.5038 6.01778C48.787 5.85989 48.8927 5.02907 48.7077 4.6757C48.5001 4.27345 48.1037 4.54412 47.7299 4.42006C47.7223 4.8599 47.7299 5.54035 47.7261 6.07417ZM47.6959 3.27722C47.8847 3.2885 48.2886 3.28098 48.4434 3.16068C48.6096 2.87497 48.6284 2.14566 48.3868 1.93137C48.2094 1.87122 47.896 1.93889 47.7261 1.87874C47.7035 2.23212 47.7639 2.87497 47.6959 3.27722ZM48.9909 3.58924C49.0022 3.70203 49.123 3.7509 49.191 3.81856C49.7761 4.37119 49.8781 6.42003 49.0475 7.10423C48.5378 7.51776 47.7374 7.22829 46.888 7.27716C46.9069 5.07795 46.8502 2.80354 46.9144 0.649435C47.6808 0.690788 48.6737 0.50282 49.0739 0.905071C49.6251 1.55168 49.5156 3.17572 48.9909 3.58924Z" fill="#FBFBF3"/>
    <path d="M3.12173 13.8196C3.00847 13.752 2.87634 13.5828 2.71777 13.4174C4.37515 11.8422 6.07782 10.0941 7.81448 8.50391H8.47894C7.64459 9.47382 4.83951 12.0828 4.85084 12.0753C4.71493 12.2069 3.45774 13.5114 3.12173 13.8196Z" fill="#FBFBF3"/>
    <path d="M23.1072 12.6153C23.0732 12.5589 23.0543 12.2656 23.1072 12.1303C23.194 12.2243 23.1185 12.0438 23.2204 12.0739C23.5564 11.7017 24.9571 10.4424 25.2327 10.104C25.2591 10.0815 25.8141 9.52131 26.067 9.30327C26.0859 9.28447 26.7277 8.63786 26.958 8.49877C27.1883 8.51381 27.4677 8.47245 27.6489 8.52884C26.0746 10.01 24.5418 11.2882 23.1072 12.6153Z" fill="#FBFBF3"/>
    <path d="M19.71 14.4766C19.7629 14.6044 19.6156 14.6796 19.5628 14.7623C19.1626 15.3901 18.8983 16.5329 18.955 17.7885C19.0003 18.7209 19.0456 19.7209 19.3589 20.4163C19.223 20.469 18.921 20.4577 18.7851 20.4163C18.9021 20.0968 18.5585 19.8787 18.4981 19.5893C18.3547 18.9164 18.4 17.7472 18.4415 16.8487C18.4528 16.6081 18.4189 16.3901 18.4415 16.1908C18.5397 15.345 19.442 14.8713 19.71 14.4766Z" fill="#FBFBF3"/>
    <path d="M25.4111 15.5312C26.0152 15.9297 25.9963 16.8997 26.2153 17.5613C26.0228 17.5651 25.9812 17.5425 25.8113 17.5613C25.5282 17.1553 25.3205 16.426 25.4111 15.5312Z" fill="#FBFBF3"/>
    <path d="M22.3876 19.6448C22.4216 18.9718 22.1611 17.7651 23.0785 17.8741C23.2219 18.0094 23.3692 18.141 23.4862 18.3027C23.4673 19.3703 23.524 20.5132 23.456 21.5319C23.5806 21.5432 23.7505 21.5056 23.8298 21.562C23.8373 21.8628 23.8222 22.265 23.8298 22.4755C23.4334 22.077 23.1124 21.6071 22.7349 21.1898C22.7274 20.4605 22.8331 19.7688 22.3876 19.6448Z" fill="#FBFBF3"/>
    <path d="M27.653 19.9624C27.6416 20.1015 27.6832 20.297 27.6228 20.391C27.6756 20.4324 27.9135 20.3459 28.0003 20.4173C27.989 20.5564 28.0267 20.7557 27.9739 20.8496H25.7842V20.391C25.8672 20.4023 26.1089 20.3985 26.1881 20.391C26.207 20.3459 26.1768 20.0978 26.1881 19.9624C26.611 19.9136 27.2301 19.9136 27.653 19.9624Z" fill="#FBFBF3"/>
    <path d="M21.8966 21.2166C20.628 21.1978 19.2878 21.2579 18.0684 21.1865C18.4987 20.9609 19.0726 20.6414 19.5672 20.4158C20.0164 20.2091 20.9301 20.4873 21.553 20.4158C21.7078 20.6489 21.8588 20.9572 21.8966 21.2166Z" fill="#FBFBF3"/>
    <path d="M29.2668 26.9311C29.0403 26.7733 29.0101 26.5928 29.0365 26.1906C29.112 25.0364 29.4745 23.7319 29.7274 22.7883C29.633 22.3259 29.5198 21.9538 29.1498 21.7357C28.4476 21.3147 27.4433 21.8861 26.9072 22.1041C26.9148 21.7771 27.2395 21.5102 27.4282 21.3899C27.7076 21.2132 28.1002 21.029 28.5759 20.9914C29.0592 20.95 29.6557 21.0966 29.784 21.3034C30.0785 21.4839 30.2786 22.0628 30.2446 22.7056C30.1653 24.1455 29.3612 25.6003 29.2668 26.9311Z" fill="#FBFBF3"/>
    <path d="M18.4111 21.5332C18.5092 21.5445 18.7169 21.5445 18.815 21.5332C18.7697 22.2061 18.3091 22.7099 18.6716 23.2211C18.8603 23.4881 19.0755 23.8076 19.2794 24.0181C19.2605 24.2963 19.3474 24.5858 19.3662 24.9053C19.0076 24.6986 18.8188 24.3264 18.445 24.1347C18.328 23.5445 18.211 22.9918 18.0713 22.4467C18.1619 22.24 18.3809 21.8039 18.4111 21.5332Z" fill="#FBFBF3"/>
    <path d="M25.2105 32.9595C25.5427 32.6889 25.9882 32.5799 26.3317 32.3017C26.5394 32.1325 26.7282 31.8844 26.9358 31.6701C27.5285 31.0724 28.1213 29.6288 28.2307 28.501C28.4497 26.1927 27.2869 23.7905 25.437 23.3582C25.1954 23.3018 25.0028 23.3131 24.8027 23.298C24.9047 23.204 25.1576 23.1965 25.437 23.2153C27.7513 23.3657 28.4422 25.5048 28.5743 27.9258C28.7178 30.516 27.4832 32.6964 25.2105 32.9595Z" fill="#FBFBF3"/>
    <path d="M28.5227 23.6456C28.5642 23.7433 28.5642 24.0065 28.5227 24.1042C28.2093 24.1117 27.8544 24.0892 27.6279 24.1042C27.7714 23.7997 27.9866 23.5628 28.5227 23.6456Z" fill="#FBFBF3"/>
    <path d="M30.3045 25.1602C30.3461 25.2808 30.3121 25.2883 30.2742 25.3864C30.172 25.3524 30.0508 25.3449 29.96 25.2996C30.0092 25.1903 30.172 25.1865 30.3045 25.1602Z" fill="#FBFBF3"/>
    <path d="M17.6062 26.2734C17.4929 27.1832 17.2929 28.8636 17.8629 29.6155C18.3613 30.2395 19.2485 30.5478 20.0791 30.6155C19.3504 31.1869 17.9951 30.7922 17.5458 30.2433C17.2287 29.7959 16.9153 29.2847 16.8511 28.6418C16.7643 27.6832 17.2438 26.89 17.6062 26.2734Z" fill="#FBFBF3"/>
    <path d="M26.5616 26.6758C27.1242 27.1532 27.3016 28.0743 27.3092 28.9314C27.3167 30.1306 26.5163 30.8524 25.4668 30.9878C26.0293 30.5592 27.0298 29.8036 26.909 28.6156C26.8372 27.9239 26.7353 27.3261 26.5616 26.6758Z" fill="#FBFBF3"/>
    <path d="M18.7588 26.9609C18.7664 27.6188 19.0118 28.0662 19.5668 28.2466C19.3704 28.4797 18.8532 28.7128 18.4681 28.476C18.1888 27.9346 18.5436 27.3482 18.7588 26.9609Z" fill="#FBFBF3"/>
    <path d="M25.6114 27.1035C25.9965 27.4419 26.34 27.9757 26.3627 28.6449C26.3702 28.9494 26.306 29.4606 26.1324 29.7012C25.9436 29.9531 25.4566 30.0922 25.0639 30.1298C24.8714 30.1486 24.6449 30.1411 24.4297 30.0997C24.5014 29.9606 24.7242 29.9794 24.8336 29.9268C25.1319 29.7914 25.5019 29.5245 25.6982 29.2426C26.1059 28.6599 25.8417 27.799 25.6114 27.1035Z" fill="#FBFBF3"/>
    <path d="M24.6025 28.59C24.7536 28.6802 24.9839 28.6877 25.1764 28.729C25.0933 29.0711 24.8706 29.2328 24.5761 29.2478C24.4591 29.2516 24.2326 29.2178 24.1117 29.1614C23.5908 28.917 23.6021 28.1276 23.7946 27.902C24.1835 27.4584 24.8026 27.9546 24.6025 28.59Z" fill="#FBFBF3"/>
    <path d="M30.3604 28.1311C30.4925 28.1424 30.6813 28.101 30.7643 28.1574V29.071C30.6813 29.1273 30.4887 29.0898 30.3604 29.101V28.1311Z" fill="#FBFBF3"/>
    <path d="M29.3524 5.27808C29.4695 5.66529 29.4053 6.50739 29.3826 6.84949C29.1146 7.14272 28.7824 7.52617 28.1141 7.45098C27.8952 7.42467 27.831 7.32693 27.6535 7.30813C26.2718 6.36453 26.1774 1.68414 27.68 0.654083C27.7819 0.582655 27.9782 0.593933 28.0877 0.511228C28.7748 0.488672 29.0278 0.72927 29.4128 1.08265C29.3751 1.60896 29.4883 2.28188 29.3524 2.71421C28.9976 2.45105 28.8692 1.63527 28.201 1.85331C27.5742 2.06008 27.5969 3.05255 27.4497 3.85329C27.5742 4.62771 27.4874 5.77432 28.0839 6.08258C28.2349 6.16153 28.4199 6.17281 28.6011 6.11266C28.9825 5.97732 29.0844 5.46229 29.3524 5.27808Z" fill="#FBFBF3"/>
    <path d="M43.491 18.731C43.5212 18.8212 45.4844 18.4453 46.1413 18.246C47.2588 18.2611 48.4442 18.2047 49.5089 18.2761C46.953 19.1671 43.9214 19.8062 41.4183 20.8174C38.953 21.5355 36.7444 22.4076 34.249 23.1595C32.9842 23.6294 31.693 24.0505 30.3604 24.4715C30.417 24.0279 30.6699 23.6332 30.7379 23.073C30.8096 22.4715 30.5869 21.7986 30.7379 21.2159C30.7983 20.9828 31.1154 20.8024 31.2815 20.6445C31.493 20.4453 31.644 20.2911 31.8025 20.0731C32.6331 19.3438 35.7213 16.2385 36.2914 15.7573C36.8502 15.1258 39.2852 12.7875 39.6062 12.4717C39.878 12.1972 40.1272 11.8777 40.4103 11.6446C40.4669 11.5995 40.7841 11.3251 40.9313 11.186C41.3692 10.7612 41.9129 10.1935 42.3999 9.72735C42.5622 9.57322 43.5136 8.59579 43.725 8.49805C43.9478 8.51684 44.2536 8.45294 44.3895 8.5582C40.1913 12.686 35.8912 16.9378 31.6591 21.1257C32.0064 21.0317 32.871 20.8513 32.9276 20.84C33.0861 20.8099 33.2825 20.8362 33.4448 20.7573C33.7166 20.6182 33.9016 20.2723 34.113 20.0693C34.1885 19.9941 34.3282 19.9114 34.4264 19.8137C35.0531 19.1784 35.7629 18.5242 36.4424 17.9002C36.9898 17.4002 37.5486 16.7649 38.1149 16.2423C38.4358 15.9453 40.7463 13.7198 40.7614 13.6972C40.7916 13.6672 41.4259 13.0431 41.7128 12.8138C42.0979 12.5018 45.1937 9.47548 46.2658 8.49805H46.5792C46.4395 8.80255 44.9785 10.1973 44.8237 10.3552C44.5141 10.6634 44.1177 10.9943 43.7855 11.3251C43.0228 12.092 42.2225 12.8702 41.4787 13.6972C41.0559 14.0168 40.701 14.4115 40.3272 14.8401C39.0285 16.0318 37.6581 17.5393 36.3518 18.7272C36.3027 18.7987 35.2645 19.9077 34.7662 20.355C35.3249 20.2986 35.8346 20.1896 36.3216 20.1257C36.9181 19.5505 37.5599 18.9791 38.164 18.3814C38.8813 17.6784 39.5193 17.0731 40.2366 16.3513C40.7048 15.8814 41.2069 15.4228 41.7052 14.9528C42.0563 14.6258 42.4339 14.2799 42.7435 13.9829C42.8152 13.9115 42.8454 13.8589 42.9171 13.7837C42.9964 13.6935 43.2796 13.419 43.4381 13.2687C43.5099 13.1972 44.2234 12.5807 44.5028 12.295C45.5523 11.2311 46.8057 10.0469 47.961 8.92285C48.3536 8.54316 48.5311 8.39655 49.2559 8.52436C49.0596 8.87774 48.5499 9.17473 48.331 9.52435C44.8463 12.889 41.3239 16.434 37.8506 19.8964C38.349 19.8475 38.9304 19.6483 39.5495 19.5543C39.8704 19.3137 40.5651 18.6483 40.5538 18.5543C41.1805 18.0505 41.7883 17.3062 42.4565 16.7536C43.1172 16.0957 45.2239 14.0168 45.624 13.6671C45.8543 13.3438 46.1979 13.1258 46.4282 12.81C47.8515 11.4792 50.7963 8.59579 50.8642 8.49429C51.0983 8.51309 51.4003 8.46045 51.5853 8.52436C47.8704 12.2724 44.0875 15.8363 40.3839 19.5242C41.0144 19.3626 41.8223 19.1708 42.4263 19.0092C43.1172 18.2949 44.5934 16.8363 44.6462 16.7836C44.6953 16.731 45.507 15.9228 45.5674 15.8664C45.6882 15.7611 47.3078 14.201 48.0138 13.4942C48.7425 12.7724 49.4787 12.0581 50.1733 11.3251C50.2337 11.31 50.5811 10.9567 50.751 10.7837C51.4154 10.0995 52.3781 9.22736 53.1709 8.41158C53.5258 8.39654 53.5787 8.50557 53.9222 8.49805C53.9109 8.63338 53.7901 8.68601 53.7184 8.75744C52.8991 9.6033 52.0912 10.389 51.1549 11.2161C51.1323 11.3401 50.1054 12.2837 49.5995 12.7574C49.5391 12.8138 49.2937 13.0318 49.2257 13.0995C49.1729 13.1521 48.8293 13.498 48.7085 13.6108C48.4253 13.8814 48.1573 14.2085 47.8439 14.498C47.4098 14.9077 46.9643 15.3589 46.5188 15.8137C46.2205 16.122 45.8996 16.4002 45.6014 16.6972C45.39 16.9077 45.1332 17.1821 44.8841 17.3814C44.4046 17.7611 43.9931 18.3438 43.491 18.731Z" fill="#FBFBF3"/>
    <path d="M2.4011 12.216C2.25386 12.1145 2.15571 11.9642 2.02734 11.8439C3.02781 10.6709 4.0849 9.58074 5.10802 8.49805H5.80268C4.66631 9.85893 3.58278 10.9153 2.4011 12.216Z" fill="#FBFBF3"/>
    <path d="M4.016 14.9925C3.94804 14.9136 4.00467 14.7143 3.9858 14.5903C6.00183 12.5151 8.14622 10.4926 10.0905 8.50391H10.8682C10.4605 8.99638 10.0188 9.40239 9.54309 9.76329C9.02965 10.4024 8.42559 10.7407 7.9046 11.3911C6.53792 12.5602 5.29584 13.8008 4.016 14.9925Z" fill="#FBFBF3"/>
    <path d="M4.70703 16.7011V16.3026C7.1157 13.75 12.2388 8.67116 12.2502 8.53206C12.522 8.47567 12.8844 8.51327 13.2015 8.50199C12.7372 9.04709 12.1898 9.5734 11.6725 10.017C11.0798 10.5283 10.4757 11.1824 9.9472 11.6711C9.79996 11.8065 9.09397 12.5433 9.05244 12.5846C7.56874 13.923 6.18319 15.359 4.70703 16.7011Z" fill="#FBFBF3"/>
    <path d="M5.80149 18.3297C5.66181 18.2169 5.5863 18.0477 5.42773 17.9612C5.76751 17.3936 11.9742 11.2433 14.6698 8.50272C14.9114 8.52151 15.221 8.46888 15.4173 8.53279C12.2384 11.826 8.9841 15.0402 5.80149 18.3297Z" fill="#FBFBF3"/>
    <path d="M6.52038 19.5892C6.36182 19.4727 6.30141 19.2885 6.20703 19.2471C6.35427 18.9915 9.38209 16.1532 9.92196 15.6494C10.7186 14.9051 11.4963 14.1043 12.3118 13.3337C12.4363 13.2171 12.7497 12.8938 12.8025 12.845C12.8554 12.7923 16.6723 9.12321 17.0913 8.75855C17.2046 8.65705 17.4047 8.54803 17.4651 8.49916C17.6727 8.51796 17.9408 8.46908 18.0956 8.52923C14.2372 12.3036 10.2655 16.0028 6.52038 19.5892Z" fill="#FBFBF3"/>
    <path d="M7.44009 21.1874C7.24 21.1423 7.19847 20.928 7.03613 20.8453C7.2551 20.5295 7.58356 20.1987 7.90068 19.928C7.97997 19.8604 8.01395 19.7814 8.13098 19.6724C9.08237 18.7927 10.2187 17.7251 11.2079 16.6725C13.1673 14.9131 19.121 8.99962 19.676 8.49963C19.9251 8.49211 20.2611 8.51467 20.4235 8.49963C19.7968 9.22518 15.4816 13.3116 14.0885 14.6988C13.7223 15.0672 13.3523 15.4206 12.9672 15.7852C12.5708 16.1537 12.2574 16.5897 11.8157 16.8717C11.3627 17.4018 10.7926 17.9657 10.2905 18.3566C9.36552 19.3679 8.34995 20.2401 7.44009 21.1874Z" fill="#FBFBF3"/>
    <path d="M20.2842 10.1919C20.7146 9.68434 21.3564 9.03773 21.9529 8.50391H22.7608C22.7797 8.61669 21.4772 9.71818 20.9449 10.1919H20.2842Z" fill="#FBFBF3"/>
    <path d="M22.3867 10.5628C22.9794 9.83353 23.6326 9.16436 24.2857 8.50272C24.5085 8.52151 24.7992 8.46888 24.9804 8.53279C24.7803 8.85986 23.7496 9.91623 23.6817 9.99142C23.5533 10.1456 23.3419 10.3222 23.1946 10.4801C23.1305 10.5403 22.8549 10.935 22.7567 10.935C22.5868 10.935 22.4962 10.5553 22.3867 10.5628Z" fill="#FBFBF3"/>
    <path d="M23.4512 14.2206C25.0595 12.5289 26.8981 10.8936 28.5781 9.13424C28.8612 8.96883 29.0198 8.67936 29.2954 8.50268C29.5144 8.51771 29.7862 8.47636 29.9599 8.53275C28.1326 10.4087 26.1505 12.3485 24.2289 14.2206C23.9231 14.2244 23.7003 14.2018 23.4512 14.2206Z" fill="#FBFBF3"/>
    <path d="M25.4108 14.9915C25.3881 14.7772 25.4146 14.5705 25.524 14.4502C25.8978 14.0291 26.3659 13.6193 26.7926 13.1945C27.6118 12.375 28.3782 11.687 29.1823 10.8788C29.4353 10.6269 29.6694 10.3261 29.9601 10.1081C30.4169 9.76976 31.0398 8.9615 31.6023 8.50662C31.8402 8.52542 32.1535 8.47279 32.3461 8.5367C30.1904 10.7397 27.9516 12.8449 25.7845 14.9953H25.4108V14.9915Z" fill="#FBFBF3"/>
    <path d="M26.5896 16.7032C26.4462 16.6882 26.348 16.4213 26.1895 16.331C28.7001 13.7221 31.2144 11.1131 33.8496 8.50032C34.1328 8.52664 34.5178 8.44393 34.7104 8.56047C33.7817 9.50407 31.0068 12.2897 30.7085 12.5867C30.4141 12.8837 29.44 13.7897 29.3607 13.8724C29.172 14.0679 27.8317 15.4589 27.3409 15.9589C27.088 16.2183 26.7973 16.4814 26.5896 16.7032Z" fill="#FBFBF3"/>
    <path d="M26.5635 19.1917V18.2782C29.8405 15.0865 33.2194 11.7858 36.6399 8.50391H37.3874C36.9268 9.09788 35.613 10.2558 35.6318 10.3347C34.7484 11.064 34.016 11.9512 33.1552 12.7031C32.4001 13.5527 31.5545 14.2144 30.7956 15.1053C29.327 16.4098 28.0283 17.8835 26.5635 19.1917Z" fill="#FBFBF3"/>
    <path d="M39.6891 8.53279C35.9553 12.3147 32.2177 15.9312 28.5481 19.589H27.6533C27.8421 19.2319 28.3216 18.9199 28.6349 18.589C29.8883 17.3071 31.187 16.1492 32.4329 14.8184C32.7425 14.5891 34.0563 13.2395 34.3923 12.9049C34.4225 12.8748 37.7788 9.65684 37.7863 9.64556C38.1412 9.25083 38.5376 8.91625 38.9114 8.53279C38.9454 8.53655 38.9605 8.52527 38.968 8.50272C39.2021 8.52151 39.5041 8.46888 39.6891 8.53279Z" fill="#FBFBF3"/>
    <path d="M29.6129 20.4467C29.3977 20.4429 29.3864 20.4128 29.2354 20.4467C29.6657 19.8376 30.3038 19.4504 30.6813 18.9354C31.6025 18.176 34.2528 15.443 34.7398 14.9655C35.2608 14.4467 37.0692 12.6836 37.4731 12.2776C38.0206 11.7325 38.7568 11.0145 39.4023 10.4205C39.9875 9.78139 40.6784 9.15734 41.3315 8.50697C41.5165 8.52577 41.7695 8.4769 41.9054 8.53705C37.7336 12.6535 33.5845 16.5708 29.6129 20.4467Z" fill="#FBFBF3"/>
    <path d="M20.8028 14.187C20.5083 14.202 20.3308 13.9877 20.1421 13.8712C19.8325 13.6907 19.5493 13.4877 19.3644 13.187C19.2586 13.0178 19.2096 12.9238 19.1907 12.7283C19.0812 11.5253 19.7947 10.4163 21.0633 10.5028C22.2147 10.5742 23.0604 11.3223 22.9321 12.7847C22.883 13.4351 22.4979 14.0178 21.958 14.2133C21.9542 14.0742 22.1694 14.0027 22.1883 13.9839C22.8565 13.3185 22.6149 11.2923 21.4672 11.1268C20.6178 11.0028 20.1949 11.5329 19.8816 12.0968C19.8287 13.0704 20.0439 14.0103 20.8028 14.187Z" fill="#FBFBF3"/>
    <path d="M8.18722 22.9339C8.02866 22.8136 7.80969 22.5994 7.75684 22.4753C8.2363 21.8851 10.3392 19.7911 10.8111 19.3325C11.2641 18.8926 11.7625 18.3851 12.2495 17.9039C12.3703 17.7874 12.8573 17.2423 12.8837 17.216C12.9139 17.1821 15.6662 14.5205 17.0253 13.1032C17.0517 13.0769 17.3122 12.825 17.3688 12.7611C17.8521 12.2574 18.9394 11.1221 18.9847 11.0469C19.0413 11.3965 18.7204 11.7123 18.811 12.2461C15.3188 15.7461 11.6945 19.4001 8.18722 22.9339Z" fill="#FBFBF3"/>
    <path d="M8.88281 24.4457V24.0434C12.2466 20.6525 15.6746 17.1037 19.2235 13.5586C19.2612 13.7052 19.4122 13.8217 19.5104 13.9872C19.484 13.9909 19.484 13.9759 19.4802 13.9571C18.8912 14.5736 17.9625 15.3668 17.4642 15.9834C16.4788 16.8819 15.5727 17.8593 14.6138 18.7841C13.6964 19.739 12.6959 20.6111 11.82 21.6111C10.7818 22.5021 9.92858 23.5697 8.88281 24.4457Z" fill="#FBFBF3"/>
    <path d="M26.5888 23.3039C26.4944 23.3302 26.2981 23.2099 26.1886 23.161C25.5996 21.6422 24.7426 20.3077 24.6029 18.2438C24.5841 17.9618 24.6029 17.6423 24.5765 17.3002C24.4746 16.0634 23.4552 15.4506 22.5303 14.9882C22.5945 14.7927 22.6964 14.7326 22.7304 14.5859C23.6818 14.9356 24.3726 15.4694 24.9465 16.1837C25.29 17.2325 25.0409 18.3829 25.2636 19.4731C25.3165 19.7362 25.4109 19.9956 25.5241 20.2701C25.7355 20.7889 25.8526 21.3377 26.0715 21.7588C26.1772 21.9543 26.3547 22.0821 26.4491 22.27C26.5737 22.537 26.5737 22.9843 26.5888 23.3039Z" fill="#FBFBF3"/>
    <path d="M17.7512 17.5039V17.9062C15.0518 20.5527 12.3789 23.173 9.60025 25.7933C9.56249 25.4737 9.60025 25.2933 9.77391 25.1053C10.1892 24.6617 10.7631 24.1429 11.2425 23.6768C12.9603 22.0076 15.1877 20.0001 16.9169 18.3046C17.1207 18.1016 17.4303 17.737 17.7512 17.5039Z" fill="#FBFBF3"/>
    <path d="M10.7848 27.4759C10.9925 27.4421 10.5017 27.085 10.4375 26.9609C12.9066 24.476 15.5644 22.0474 18.0675 19.5625C18.1354 19.6565 18.0788 19.8745 18.0939 20.0211C17.4672 20.585 16.8594 21.3256 16.2817 21.8482C14.8131 23.3858 13.0991 25.1188 11.4984 26.7917C11.3549 26.9459 11.0831 27.1301 10.9547 27.3368C10.9283 27.3669 10.9811 27.4872 10.7848 27.4759Z" fill="#FBFBF3"/>
    <path d="M21.1451 24.0731C21.1602 23.7085 21.0319 23.2949 21.1225 22.9603C21.1867 22.7085 21.4736 22.6258 21.5529 22.4453C21.7379 22.4453 22.2211 22.4528 22.4137 22.4453C21.9191 22.9152 21.4283 23.3927 21.1451 24.0731Z" fill="#FBFBF3"/>
    <path d="M20.3701 31.0167C20.4608 31.1295 20.2758 31.2723 20.1965 31.3588C19.6642 31.9264 18.7354 32.5279 17.6934 32.0731C17.3083 31.8325 16.8855 31.4302 16.6552 31.1558C15.8888 30.231 15.2319 28.9039 15.3301 27.1558C15.4282 25.4152 16.4098 23.9265 17.4027 22.8965C17.3385 23.2875 17.0969 23.5055 16.8817 23.8702C16.2777 24.9115 15.7416 26.5656 16.0172 28.3851C16.2248 29.2084 16.6703 30.1595 17.2819 30.7836C17.6217 31.1295 18.0559 31.4377 18.5806 31.5016C19.3055 31.5843 19.9209 31.3926 20.3701 31.0167Z" fill="#FBFBF3"/>
    <path d="M21.9518 31.9049C21.7253 31.9839 21.8083 32.2395 21.7781 32.42C21.8423 32.4688 21.982 32.4463 21.982 32.5591C21.88 32.544 21.9065 32.5365 21.8347 32.5515C20.9324 31.6004 20.166 30.6418 19.9659 29.1305C19.747 27.499 20.3775 25.9764 21.1174 24.8186C21.5478 24.1419 22.1141 23.5592 22.6464 23.0742C22.6238 23.2547 22.4501 23.5103 22.4124 23.5592C21.544 24.7998 20.5813 26.296 20.687 28.6155C20.755 30.0591 21.3288 30.935 21.9518 31.9049Z" fill="#FBFBF3"/>
    <path d="M29.7565 26.5029C30.3718 26.3262 30.7267 26.469 31.0816 26.7021C31.7914 27.1758 31.9499 29.0517 31.2553 29.9615C31.0401 30.0893 30.8702 30.2923 30.5606 30.3336C29.7074 30.4427 29.0882 29.8374 29.0958 29.0179C29.0995 28.2998 29.394 27.8261 29.8395 27.4765C29.5677 28.0893 29.1713 29.9577 30.5077 29.5893C31.6668 29.2697 31.3043 27.1344 30.2737 26.6795C30.1076 26.6006 29.8924 26.6645 29.7565 26.5029Z" fill="#FBFBF3"/>
    <path d="M50.143 18.1294C51.4002 18.1519 52.7329 18.0918 53.941 18.1632V18.2159C52.7631 18.6783 51.5248 19.3211 50.4602 19.9038C49.32 20.5241 48.1836 21.0617 47.1756 21.7008C46.1147 22.3737 45.0275 22.9564 44.0081 23.618C42.9661 24.291 41.9543 24.9564 40.9539 25.6443C40.0516 26.2985 39.036 26.9413 38.1299 27.6443C38.028 27.7308 37.9336 27.8962 37.7826 27.8736C37.5108 28.1781 37.1596 28.4262 36.8312 28.7007C35.2456 30.0315 33.6826 31.4187 32.1951 32.8999C29.273 35.8171 26.5094 39.0013 24.0479 42.4148H23.9913C21.3146 40.6855 18.6454 39.0126 15.8743 37.272C15.7761 37.2118 15.7082 37.1066 15.6138 37.0427C15.2136 36.7758 14.7606 36.5915 14.3755 36.3284C12.888 35.3171 11.3477 34.4562 9.8564 33.4412C9.64498 33.2984 9.44866 33.2157 9.21837 33.069C9.19949 33.0578 9.21837 32.9713 9.19194 32.9563C9.16174 32.9375 9.10511 32.9713 9.07868 32.9563C8.04801 32.3698 6.98714 31.5879 5.9376 30.9525C5.51854 30.6969 5.1108 30.4413 4.72949 30.2119V30.1292C5.09948 30.0315 6.34911 29.3999 6.57186 29.2119C6.67002 29.1255 7.00602 28.9977 7.08908 28.9563C8.17638 28.3999 9.50529 27.9263 10.6605 27.3849C10.7059 27.3097 10.9135 27.3962 10.9173 27.3548C10.8984 27.2533 11.2004 27.1894 11.291 27.1556C12.4878 26.6293 13.813 26.0804 15.0324 25.6706C14.5152 28.212 15.3118 30.727 16.5614 32.0728C15.5081 33.0202 14.232 33.7382 13.224 34.7269C13.3712 34.7607 13.3901 34.8961 13.5374 34.9825C14.7417 34.178 15.7006 33.1329 17.1088 32.4675C17.4373 32.663 17.8752 32.9487 18.3471 33.0126C19.3891 33.1517 19.9479 32.7044 20.4198 32.3284C20.6123 32.5653 20.8502 32.757 21.0239 33.0126C21.7449 33.5314 22.9455 33.945 24.2744 33.8435C25.0068 33.7833 25.6562 33.539 26.1772 33.3548C26.7397 32.9901 27.223 32.5427 27.7326 32.1254C27.8799 31.7833 28.1668 31.5127 28.3669 31.1818C28.567 30.8548 28.6991 30.4751 28.8803 30.1819C29.2843 30.4901 30.0884 30.9751 30.8699 30.7232C31.0663 30.6067 31.1908 30.4149 31.4136 30.3247C31.8326 29.5616 32.3687 28.5014 32.2479 27.3811C32.1649 26.6142 31.7118 26.0955 31.2135 25.6368C30.8813 25.5128 30.5604 25.3737 30.2621 25.2082C30.2848 24.9864 30.5188 24.9263 30.6925 24.8661C31.81 24.4977 32.8595 24.1218 33.8298 23.7797C34.2489 23.6368 34.6868 23.5504 35.0681 23.3549C35.6797 23.1895 36.2611 22.9338 36.8538 22.697C37.473 22.4489 38.1261 22.2835 38.7528 22.0391C42.4111 20.6294 46.5036 19.3813 50.143 18.1294Z" fill="#FBFBF3"/>
    <path d="M21.3184 28.3594C21.6015 30.2165 22.3868 32.0811 24.3424 32.4157H21.3184V28.3594Z" fill="#FBFBF3"/>
    <path d="M23.6251 23.0176H23.6515C23.6628 23.0552 23.7044 23.0627 23.7119 23.104C22.8587 24.3634 21.9639 25.886 21.9828 27.931C21.9828 28.2882 22.0697 28.6303 22.0697 29.0175C22.4547 30.2017 23.0361 31.3859 24.0555 31.9911C24.3424 32.1641 24.6105 32.2505 25.0635 32.2505C25.0635 32.2693 25.29 32.2393 25.29 32.2543C25.139 32.3896 24.7388 32.4235 24.5161 32.4235H24.3424C22.3906 32.0889 21.6015 30.2242 21.3184 28.3671V27.7393C21.5562 25.5702 22.5 24.2807 23.6251 23.0176Z" fill="#FBFBF3"/>
    <path d="M19.8613 28.9137V28.1129C19.9331 27.6016 20.0765 27.1468 20.1709 26.6543C20.2879 26.3761 20.4465 26.0979 20.5749 25.7708C20.7032 25.7633 20.6995 25.6054 20.7297 25.5378C20.7674 25.4701 20.8693 25.425 20.824 25.3122C21.077 25.049 21.2733 24.7069 21.5074 24.3949C21.7377 24.0942 21.9415 23.7408 22.27 23.6055C22.1756 23.5453 22.3568 23.4739 22.4097 23.4551H22.4437C22.2813 23.6318 22.2813 23.8348 22.1039 23.9739C21.4281 25.0227 20.8089 26.2596 20.6655 27.767C20.4541 30.0715 21.6093 31.5565 22.723 32.6241C23.161 32.782 23.6895 33.2595 24.3993 33.1692V33.2557C23.5083 33.4587 22.6777 33.1542 22.1341 32.8534C20.9184 31.9061 20.0916 30.6317 19.8613 28.9137Z" fill="#FBFBF3"/>
    <path d="M50.4873 37.1868C50.4873 36.5853 50.7742 35.8184 51.8049 35.8184C52.6959 35.8184 53.1149 36.4048 53.1149 37.1868C53.1149 37.9687 52.6959 38.5514 51.8049 38.5514C50.7742 38.5552 50.4873 37.7883 50.4873 37.1868ZM52.4543 37.1868C52.4543 36.9612 52.4316 36.3221 51.8011 36.3221C51.3783 36.3221 51.148 36.5965 51.148 37.1868C51.148 37.8672 51.4538 38.0514 51.8011 38.0514C52.4241 38.0552 52.4543 37.4086 52.4543 37.1868Z" fill="#FBFBF3"/>
    <path d="M53.333 36.3963V35.8926H55.5152V36.3963H54.7299V38.4828H54.1145V36.3963H53.333Z" fill="#FBFBF3"/>
    <path d="M57.3616 35.8926H58.0751L57.0331 37.0805L58.1355 38.4865H57.3842L56.4668 37.2196H56.4555V38.4865H55.8477V35.8926H56.4555V36.9828H56.4668L57.3616 35.8926Z" fill="#FBFBF3"/>
    <path d="M59.5929 35.8926C60.1214 35.8926 60.5745 36.0918 60.5745 36.7347C60.5745 37.5429 59.8949 37.5918 59.5815 37.5918H58.9964V38.4865H58.3848V35.8926H59.5929ZM58.9926 37.0881H59.4758C59.7628 37.0881 59.91 36.9828 59.91 36.7347C59.91 36.3813 59.6118 36.3963 59.4758 36.3963H58.9926V37.0881Z" fill="#FBFBF3"/>
    <path d="M61.5706 36.8342H62.2162C62.9712 36.8342 63.1487 37.2891 63.1487 37.6838C63.1487 38.2402 62.8089 38.4846 62.2124 38.4846H60.959V35.8906H61.5706V36.8342ZM61.5706 37.9771H62.0916C62.3294 37.9771 62.4842 37.8868 62.4842 37.6538C62.4842 37.4056 62.3181 37.3305 62.0689 37.3305H61.5668V37.9771H61.5706ZM63.9566 35.8944V38.4883H63.3412V35.8944H63.9566Z" fill="#FBFBF3"/>
    <path d="M65.8375 35.8926C66.5133 35.8926 66.6341 36.2723 66.6341 36.5542C66.6341 36.855 66.4604 37.0129 66.2113 37.0956C66.4151 37.1407 66.7662 37.2835 66.7662 37.761C66.7662 38.3925 66.2339 38.4865 65.7696 38.4865H64.5312V35.8926H65.8375ZM65.1429 36.9151H65.7092C65.947 36.9151 66.0112 36.746 66.0112 36.6482C66.0112 36.5392 65.9508 36.3926 65.679 36.3926H65.1429V36.9151ZM65.1429 37.9753H65.7809C65.8866 37.9753 66.1169 37.9226 66.1169 37.682C66.1169 37.4377 65.9206 37.3888 65.6978 37.3888H65.1391V37.9753H65.1429Z" fill="#FBFBF3"/>
    <path d="M68.5091 35.8926L69.4869 38.4865H68.8413L68.6676 38.0016H67.72L67.5615 38.4865H66.9121L67.8861 35.8926H68.5091ZM68.5393 37.558L68.2033 36.573L67.8635 37.558H68.5393Z" fill="#FBFBF3"/>
    <path d="M71.6134 36.9226V37.4038H70.3411V37.979H71.8173V38.4865H69.7295V35.8926H71.7833V36.3963H70.3411V36.9226H71.6134Z" fill="#FBFBF3"/>
    <path d="M72.8143 36.6387H72.803V38.4846H72.1914V35.8906H73.0484L73.6751 37.6726L74.2943 35.8906H75.155V38.4846H74.5434V36.6387H74.5321L73.879 38.4846H73.4637L72.8143 36.6387Z" fill="#FBFBF3"/>
    <path d="M28.9865 42.9204H28.3711V40.334H28.9865V41.3077H29.9303V40.334H30.5457V42.9204H29.9303V41.8076H28.9865V42.9204Z" fill="#FBFBF3"/>
    <path d="M30.9961 41.6339C30.9961 41.0249 31.283 40.2617 32.3061 40.2617C33.2009 40.2617 33.62 40.8444 33.62 41.6339C33.62 42.4121 33.2047 42.9985 32.3061 42.9985C31.283 42.9985 30.9961 42.2354 30.9961 41.6339ZM32.9593 41.6339C32.9593 41.4008 32.9366 40.7655 32.3061 40.7655C31.8908 40.7655 31.653 41.0399 31.653 41.6339C31.653 42.303 31.9664 42.4985 32.3061 42.4985C32.9291 42.4948 32.9593 41.8444 32.9593 41.6339Z" fill="#FBFBF3"/>
    <path d="M35.37 40.3379C36.0533 40.3379 36.1742 40.7138 36.1742 40.9958C36.1742 41.2928 35.9967 41.4507 35.7475 41.5371V41.5409C35.9514 41.5822 36.2987 41.7251 36.2987 42.2025C36.2987 42.8266 35.7702 42.9243 35.3058 42.9243H34.0713V40.3379H35.37ZM34.6791 41.3567H35.2454C35.4908 41.3567 35.5512 41.1913 35.5512 41.086C35.5512 40.9807 35.4908 40.8379 35.219 40.8379H34.6791V41.3567ZM34.6791 42.4243H35.3134C35.4191 42.4243 35.6532 42.3679 35.6532 42.1311C35.6532 41.8867 35.4644 41.8379 35.2379 41.8379H34.6791V42.4243Z" fill="#FBFBF3"/>
    <path d="M37.3831 41.2777H38.0287C38.7875 41.2777 38.9612 41.7326 38.9612 42.1236C38.9612 42.6837 38.6252 42.9243 38.0287 42.9243H36.7715V40.3379H37.3869V41.2777H37.3831ZM37.3831 42.4243H37.9041C38.1495 42.4243 38.3005 42.3379 38.3005 42.101C38.3005 41.8454 38.1344 41.7815 37.8852 41.7815H37.3831V42.4243ZM39.7729 40.3379V42.9243H39.1575V40.3379H39.7729Z" fill="#FBFBF3"/>
    <path d="M42.2316 41.3642V41.8416H40.963V42.4243H42.4392V42.9243H40.3477V40.3379H42.4014V40.8416H40.963V41.3642H42.2316Z" fill="#FBFBF3"/>
    <path d="M44.9752 40.3379C45.6548 40.3379 45.7756 40.7138 45.7756 40.9958C45.7756 41.2928 45.5981 41.4507 45.349 41.5371V41.5409C45.5491 41.5822 45.9002 41.7251 45.9002 42.2025C45.9002 42.8266 45.3716 42.9243 44.9073 42.9243H43.6689V40.3379H44.9752ZM44.2881 41.3567H44.8469C45.096 41.3567 45.1489 41.1913 45.1489 41.086C45.1489 40.9807 45.096 40.8379 44.8204 40.8379H44.2881V41.3567ZM44.2881 42.4243H44.9186C45.0243 42.4243 45.2546 42.3679 45.2546 42.1311C45.2546 41.8867 45.062 41.8379 44.8431 41.8379H44.2881V42.4243Z" fill="#FBFBF3"/>
    <path d="M46.251 41.6339C46.251 41.0249 46.5379 40.2617 47.561 40.2617C48.4595 40.2617 48.8786 40.8444 48.8786 41.6339C48.8786 42.4121 48.4595 42.9985 47.561 42.9985C46.5379 42.9985 46.251 42.2354 46.251 41.6339ZM48.2179 41.6339C48.2179 41.4008 48.1877 40.7655 47.561 40.7655C47.142 40.7655 46.9079 41.0399 46.9079 41.6339C46.9079 42.303 47.2175 42.4985 47.561 42.4985C48.1877 42.4948 48.2179 41.8444 48.2179 41.6339Z" fill="#FBFBF3"/>
    <path d="M49.7706 42.0322C49.7857 42.2991 49.9443 42.4946 50.3822 42.4946C50.8164 42.4946 50.9107 42.2954 50.9107 42.1525C50.9107 41.8555 50.6163 41.8367 50.4653 41.8367H50.1028V41.3593H50.4049C50.5785 41.3593 50.8277 41.3292 50.8277 41.0736C50.8277 40.754 50.4086 40.7616 50.3256 40.7616C50.1934 40.7616 49.8688 40.7653 49.8537 41.1676H49.2496C49.2911 40.4683 49.7291 40.2578 50.3935 40.2578C50.9712 40.2578 51.4884 40.4383 51.4884 40.9834C51.4884 41.3931 51.1826 41.521 50.9976 41.5548V41.5623C51.3638 41.6375 51.5752 41.8217 51.5752 42.2127C51.5752 42.8743 50.9334 42.9909 50.3671 42.9909C49.8348 42.9909 49.2194 42.8743 49.1816 42.0247H49.7706V42.0322Z" fill="#FBFBF3"/>
    <path d="M52.6697 41.0783H52.6546V42.9204H52.043V40.334H52.9075L53.5305 42.1122L54.1496 40.334H55.0104V42.9204H54.3988V41.0783H54.3875L53.7381 42.9204H53.319L52.6697 41.0783Z" fill="#FBFBF3"/>
    <path d="M55.459 41.6339C55.459 41.0249 55.7459 40.2617 56.7728 40.2617C57.6676 40.2617 58.0866 40.8444 58.0866 41.6339C58.0866 42.4121 57.6676 42.9985 56.7728 42.9985C55.7459 42.9985 55.459 42.2354 55.459 41.6339ZM57.4259 41.6339C57.4259 41.4008 57.4033 40.7655 56.7728 40.7655C56.35 40.7655 56.1197 41.0399 56.1197 41.6339C56.1197 42.303 56.4292 42.4985 56.7728 42.4985C57.3957 42.4948 57.4259 41.8444 57.4259 41.6339Z" fill="#FBFBF3"/>
    <path d="M59.7867 41.7534H59.7754L58.9713 42.9225H58.2275L59.2733 41.5391L58.254 40.3398H58.9788L59.7754 41.3962H59.7867V40.3398H60.3984V41.3962H60.4059L61.2063 40.3398H61.9274L60.9118 41.5391L61.9576 42.9225H61.2176L60.4097 41.7534H60.4021V42.9225H59.7905V41.7534H59.7867Z" fill="#FBFBF3"/>
    <path d="M62.811 42.9204H62.2031V40.334H62.811V41.3077H63.7586V40.334H64.3664V42.9204H63.7586V41.8076H62.811V42.9204Z" fill="#FBFBF3"/>
    <path d="M64.8174 41.6339C64.8174 41.0249 65.1119 40.2617 66.135 40.2617C67.0297 40.2617 67.445 40.8444 67.445 41.6339C67.445 42.4121 67.026 42.9985 66.135 42.9985C65.1081 42.9985 64.8174 42.2354 64.8174 41.6339ZM66.7843 41.6339C66.7843 41.4008 66.7579 40.7655 66.135 40.7655C65.7121 40.7655 65.4781 41.0399 65.4781 41.6339C65.4781 42.303 65.7914 42.4985 66.135 42.4985C66.7579 42.4948 66.7843 41.8444 66.7843 41.6339Z" fill="#FBFBF3"/>
    <path d="M70.2284 42.0136C70.1869 42.4008 69.9679 42.9985 69.0467 42.9985C68.3785 42.9985 67.7744 42.6978 67.7744 41.6752C67.7744 40.3144 68.7749 40.2617 69.024 40.2617C69.9452 40.2617 70.1793 40.8369 70.1944 41.2166H69.5979C69.5413 40.7805 69.1977 40.7655 69.0505 40.7655C68.9146 40.7655 68.4351 40.7918 68.4351 41.6527C68.4351 42.1414 68.6541 42.4948 69.0694 42.4948C69.4771 42.4948 69.5941 42.2015 69.6168 42.0098H70.2284V42.0136Z" fill="#FBFBF3"/>
    <path d="M70.3789 40.8377V40.334H72.5648V40.8377H71.7796V42.9204H71.168V40.8377H70.3789Z" fill="#FBFBF3"/>
    <path d="M74.5434 40.3379H75.155V42.9243H74.5434V41.2364L73.5089 42.9243H72.8936V40.3379H73.5089V42.007L74.5434 40.3379Z" fill="#FBFBF3"/>
    </svg>
    