<svg width="96" height="26" viewBox="0 0 96 26" fill="none" xmlns="http://www.w3.org/2000/svg">
<g clip-path="url(#clip0_2714_1089)">
<path d="M13.5308 12.4211L8.60156 9.37424V13.0396L13.5308 16.0865L25.3304 7.51282C24.9131 6.60535 24.3904 5.75449 23.7785 4.97461L13.5308 12.4211Z" fill="#FBFBF3"/>
<path d="M26.4804 12.7797C26.4804 11.9989 26.4092 11.2343 26.273 10.4924L23.4852 12.5177C23.4878 12.6048 23.4887 12.6918 23.4887 12.7797C23.4887 18.1932 19.0213 22.5979 13.5307 22.5979C8.04011 22.5979 3.57273 18.1932 3.57273 12.7797C3.57273 7.36612 8.03925 2.96142 13.5307 2.96142C15.6114 2.96142 17.5456 3.59428 19.1447 4.67497L21.6633 2.84482C19.4404 1.07297 16.6115 0.0117188 13.5307 0.0117188C6.37845 0.0117188 0.581055 5.72777 0.581055 12.7797C0.581055 19.8316 6.37845 25.5476 13.5307 25.5476C20.683 25.5476 26.4804 19.8316 26.4804 12.7797Z" fill="#FBFBF3"/>
<path d="M76.0101 7.65419L79.5314 5.0957H67.748V20.4619H79.5314V17.9034H71.1108V13.9693H78.293V11.4108H71.1108V7.65419H76.0101Z" fill="#FBFBF3"/>
<path d="M58.8532 11.0855H54.7612V7.65419H61.2938L64.8143 5.0957H51.3984V20.4619H58.4196C62.3573 20.4619 64.6163 18.7027 64.6163 15.6347C64.6163 12.5667 62.5699 11.0855 58.8532 11.0855ZM58.2679 17.9034H54.7612V13.644H58.2679C60.4026 13.644 61.3967 14.3563 61.3967 15.7733C61.3967 17.1902 60.3443 17.9025 58.2679 17.9025V17.9034Z" fill="#FBFBF3"/>
<path d="M89.0774 5.0957H82.6621V20.461H86.0249V16.1087H89.0774C93.1711 16.1087 95.7146 13.9862 95.7146 10.5946C95.7146 7.20299 93.1711 5.0957 89.0774 5.0957ZM89.0054 13.5502H86.0249V7.65335H89.0054C91.1598 7.65335 92.3467 8.70024 92.3467 10.6014C92.3467 12.5025 91.1598 13.5494 89.0054 13.5494V13.5502Z" fill="#FBFBF3"/>
<path d="M45.6273 17.1344C44.7652 17.6033 43.7608 17.8518 42.7247 17.8518C39.6928 17.8518 37.493 15.7183 37.493 12.7787C37.493 9.83915 39.6936 7.70566 42.7247 7.70566C43.8714 7.70566 44.8997 8.02336 45.7833 8.64946L48.1948 6.89705L48.0354 6.75932C46.6274 5.53922 44.7455 4.89453 42.5945 4.89453C40.261 4.89453 38.1425 5.67019 36.6308 7.07956C35.1097 8.49653 34.2725 10.4906 34.2725 12.6942C34.2725 14.8978 35.1071 16.9316 36.6223 18.3917C38.1425 19.8568 40.2558 20.6637 42.5731 20.6637C44.8903 20.6637 47.1141 19.8306 48.5487 18.3139C47.4415 17.5096 46.3729 16.733 46.3729 16.733L45.6281 17.1352L45.6273 17.1344Z" fill="#FBFBF3"/>
</g>
<defs>
<clipPath id="clip0_2714_1089">
<rect width="95.1338" height="25.5359" fill="white" transform="translate(0.581055 0.00976562)"/>
</clipPath>
</defs>
</svg>
