<svg width="65" height="36" viewBox="0 0 65 36" fill="none" xmlns="http://www.w3.org/2000/svg">
    <g clip-path="url(#clip0_2714_1111)">
    <path d="M0.359375 12.9112V16.425L9.76306 15.3813V11.5781L0.359375 12.9112Z" fill="#FBFBF3"/>
    <path d="M3.36035 16.6406V28.6861H6.80227V16.2852L3.36035 16.6406Z" fill="#FBFBF3"/>
    <path d="M11.0332 11.3998V28.6863H14.6604V10.8848L11.0332 11.3998Z" fill="#FBFBF3"/>
    <path d="M15.3389 10.7897V14.7661L20.5774 14.1851V10.0469L15.3389 10.7897Z" fill="#FBFBF3"/>
    <path d="M15.3389 17.7243V21.7736L18.7763 21.5845V17.4258L15.3389 17.7243Z" fill="#FBFBF3"/>
    <path d="M15.3389 24.6947V28.687H20.5774V24.5352L15.3389 24.6947Z" fill="#FBFBF3"/>
    <path d="M34.123 8.11982V28.6854H38.8803V7.44531L34.123 8.11982Z" fill="#FBFBF3"/>
    <path d="M39.7676 7.32198V12.0526L46.6989 11.2847V6.33984L39.7676 7.32198Z" fill="#FBFBF3"/>
    <path d="M39.7676 15.6087V20.4283L44.3101 20.1776V15.2168L39.7676 15.6087Z" fill="#FBFBF3"/>
    <path d="M39.7676 23.9502V28.6877H46.6989V23.7383L39.7676 23.9502Z" fill="#FBFBF3"/>
    <path d="M21.9619 9.84931V28.6854H26.0954V9.26367L21.9619 9.84931Z" fill="#FBFBF3"/>
    <path d="M26.8662 24.3425V28.6857H32.8641V24.1602L26.8662 24.3425Z" fill="#FBFBF3"/>
    <path d="M62.2381 6.10616C60.7352 4.67511 58.5317 4.0872 56.1204 4.43584V9.6815C57.0967 9.62681 57.8876 9.99141 58.2402 10.7274C58.7961 11.8873 58.2221 13.626 56.8684 15.2393C54.7779 17.7277 49.2207 22.8184 49.2207 22.8184L57.2006 22.5541C62.0776 17.7505 63.8268 14.836 64.1409 11.1969C64.3059 9.27133 63.6121 7.41643 62.2381 6.10616Z" fill="#FBFBF3"/>
    <path d="M48.2344 23.6895L48.2366 28.6867H64.4202V23.1973L48.2344 23.6895Z" fill="#FBFBF3"/>
    <path d="M55.1893 4.55469C50.4863 5.56417 48.1789 9.05292 48.4456 14.7452L53.4581 14.2963C53.2299 11.081 54.2039 10.3176 55.1915 9.89833L55.1893 4.55469Z" fill="#FBFBF3"/>
    </g>
    <defs>
    <clipPath id="clip0_2714_1111">
    <rect width="64.0901" height="35.0493" fill="white" transform="translate(0.359375 0.00195312)"/>
    </clipPath>
    </defs>
    </svg>
    