<svg width="68" height="68" viewBox="0 0 68 68" fill="none" xmlns="http://www.w3.org/2000/svg">
<g clip-path="url(#clip0_188_357)">
<path d="M50.1634 1.44684H3.14209V66.5532H50.1634V1.44684Z" fill="#EFEFEF"/>
<path d="M44.3756 7.5957H8.92871V15.1914H44.3756V7.5957Z" fill="#F4AD47"/>
<path d="M61.3446 22.1997L54.9507 15.8058L26.8174 43.9392L33.2113 50.3331L61.3446 22.1997Z" fill="#E8594F"/>
<path d="M61.3677 13.2701L64.1803 16.0827C65.0867 16.9891 65.0867 18.4586 64.1803 19.365L61.3456 22.1996L54.9517 15.8056L57.7863 12.971C58.6929 12.0646 60.4614 12.3637 61.3677 13.2701Z" fill="#61C7D2"/>
<path d="M33.2116 50.3336L23.2163 53.8936L26.8175 43.9395L33.2116 50.3336Z" fill="#F4AD47"/>
<path d="M45.8229 15.1915V7.59566C45.8229 6.79666 45.175 6.1488 44.376 6.1488H8.92928C8.13028 6.1488 7.48242 6.79666 7.48242 7.59566V15.1913C7.48242 15.9903 8.13028 16.6382 8.92928 16.6382H44.3761C45.175 16.6383 45.8229 15.9905 45.8229 15.1915ZM42.9293 13.7446H10.376V9.04252H42.9291V13.7446H42.9293Z" fill="#231F20"/>
<path d="M65.2031 15.0596L62.3905 12.247C61.5945 11.451 60.4224 10.9756 59.2551 10.9756C58.2749 10.9756 57.39 11.3208 56.763 11.9477L51.6099 17.1008V1.44686C51.6097 0.647859 50.962 0 50.163 0H3.14168C2.34268 0 1.69482 0.647859 1.69482 1.44686V66.5533C1.69482 67.3523 2.34268 68.0001 3.14168 68.0001H50.163C50.962 68.0001 51.6099 67.3523 51.6099 66.5533V33.9811L65.2032 20.3878C66.6721 18.919 66.6721 16.5286 65.2031 15.0596ZM48.7163 65.1064H4.58868V2.89359H48.7163V19.9947L25.7943 42.9165C25.6426 43.0682 25.5328 43.2459 25.4627 43.4346C25.4608 43.439 25.4586 43.4424 25.4568 43.4472L21.8555 53.4014C21.665 53.928 21.7955 54.517 22.1905 54.914C22.4668 55.1918 22.8378 55.3403 23.2163 55.3403C23.3789 55.3403 23.5429 55.313 23.7015 55.2564L33.6968 51.6963C33.8959 51.6254 34.0717 51.5112 34.2185 51.3683C34.2238 51.3644 34.2291 51.3616 34.2342 51.3565L48.7158 36.8749V65.1063H48.7163V65.1064ZM27.4037 46.5719L30.5703 49.7385L25.6202 51.5016L27.4037 46.5719ZM33.2116 48.2874L28.8636 43.9394L54.9514 17.8516L59.2995 22.1996L33.2116 48.2874ZM63.1571 18.3419L61.3453 20.1538L56.9973 15.8058L58.8091 13.9939C58.8872 13.916 59.054 13.8693 59.2551 13.8693C59.647 13.8693 60.095 14.0435 60.3444 14.293L63.157 17.1056C63.4978 17.4466 63.4978 18.0011 63.1571 18.3419Z" fill="#231F20"/>
<path d="M9.38135 59.5C9.38135 60.299 10.0292 60.9469 10.8282 60.9469H42.4772C43.2762 60.9469 43.924 60.299 43.924 59.5C43.924 58.701 43.2762 58.0532 42.4772 58.0532H10.8282C10.0289 58.0532 9.38135 58.701 9.38135 59.5Z" fill="#231F20"/>
<path d="M34.4293 26.4043H10.8282C10.0292 26.4043 9.38135 27.0522 9.38135 27.8512C9.38135 28.6502 10.0292 29.298 10.8282 29.298H34.4293C35.2283 29.298 35.8761 28.6502 35.8761 27.8512C35.876 27.052 35.2283 26.4043 34.4293 26.4043Z" fill="#231F20"/>
<path d="M40.3971 20.0745H26.6524C25.8534 20.0745 25.2056 20.7223 25.2056 21.5213C25.2056 22.3203 25.8534 22.9682 26.6524 22.9682H40.3971C41.1961 22.9682 41.8439 22.3203 41.8439 21.5213C41.8439 20.7223 41.1961 20.0745 40.3971 20.0745Z" fill="#231F20"/>
<path d="M10.8282 22.9681H20.5037C21.3027 22.9681 21.9506 22.3202 21.9506 21.5212C21.9506 20.7222 21.3027 20.0743 20.5037 20.0743H10.8282C10.0292 20.0743 9.38135 20.7222 9.38135 21.5212C9.38135 22.3203 10.0289 22.9681 10.8282 22.9681Z" fill="#231F20"/>
<path d="M28.2803 32.734H10.8282C10.0292 32.734 9.38135 33.3819 9.38135 34.1809C9.38135 34.9799 10.0292 35.6277 10.8282 35.6277H28.2803C29.0793 35.6277 29.7272 34.9799 29.7272 34.1809C29.7272 33.3819 29.0793 32.734 28.2803 32.734Z" fill="#231F20"/>
<path d="M22.8548 39.0638H10.8282C10.0292 39.0638 9.38135 39.7117 9.38135 40.5107C9.38135 41.3097 10.0292 41.9576 10.8282 41.9576H22.8548C23.6538 41.9576 24.3016 41.3097 24.3016 40.5107C24.3016 39.7117 23.6538 39.0638 22.8548 39.0638Z" fill="#231F20"/>
<path d="M21.0463 46.8404C21.0463 46.0414 20.3984 45.3936 19.5994 45.3936H10.8282C10.0292 45.3936 9.38135 46.0414 9.38135 46.8404C9.38135 47.6394 10.0292 48.2873 10.8282 48.2873H19.5995C20.3984 48.2871 21.0463 47.6394 21.0463 46.8404Z" fill="#231F20"/>
<path d="M10.8282 51.7234C10.0292 51.7234 9.38135 52.3713 9.38135 53.1703C9.38135 53.9693 10.0292 54.6172 10.8282 54.6172H16.7963C17.5953 54.6172 18.2431 53.9693 18.2431 53.1703C18.2431 52.3713 17.5953 51.7234 16.7963 51.7234H10.8282Z" fill="#231F20"/>
</g>
<defs>
<clipPath id="clip0_188_357">
<rect width="68" height="68" fill="white"/>
</clipPath>
</defs>
</svg>
