<svg width="77" height="77" viewBox="0 0 77 77" fill="none" xmlns="http://www.w3.org/2000/svg">
<path d="M38.4998 10.4349C40.2749 10.4349 41.7272 11.8872 41.7272 13.6623C41.7272 15.4373 40.2749 16.8896 38.4998 16.8896C36.7248 16.8896 35.2725 15.4373 35.2725 13.6623C35.2725 11.8872 36.7248 10.4349 38.4998 10.4349Z" fill="#E7ECED"/>
<path d="M44.1474 49.163H32.8516V54.8109H44.1474V49.163Z" fill="#AFB6BB"/>
<path d="M44.1474 54.8109H32.8516V65.2999H44.1474V54.8109Z" fill="#7C8287"/>
<path d="M28.0109 33.0267V28.1856H48.9889V33.0267H51.4095V39.4814H25.5903V33.0267H28.0109Z" fill="#E7ECED"/>
<path d="M48.9889 60.4596V65.3007H44.1478V54.8117V49.1636H32.8519V54.8117V65.3007H28.0109V60.4596H25.5903V39.4814H51.4095V60.4596H48.9889Z" fill="#C7CAC7"/>
<path d="M66.7398 65.3007V70.1417H10.2603V65.3007H11.8739H28.011H32.8521H44.1479H48.989H65.1261H66.7398Z" fill="#8A9095"/>
<path d="M70.774 71.7554V75.7896H6.22607V71.7554C6.22607 70.8678 6.95231 70.1417 7.83977 70.1417H10.2603H66.7398H69.1603C70.0479 70.1417 70.774 70.868 70.774 71.7554Z" fill="#AFB6BB"/>
<path d="M65.1258 60.459H48.9888V65.3001H65.1258V60.459Z" fill="#E7ECED"/>
<path d="M28.0111 60.4596V65.3007H11.874V60.4596H14.2946H25.5905H28.0111Z" fill="#E7ECED"/>
<path d="M51.4099 33.0267H48.9893V28.1856H65.1263V33.0267H62.7058H51.4099Z" fill="#E7ECED"/>
<path d="M11.874 28.1856H28.0111V33.0267H25.5905H14.2946H11.874V28.1856Z" fill="#E7ECED"/>
<path d="M62.7055 33.0267V60.4596H51.4097V39.4814V33.0267H62.7055Z" fill="#A4A9AB"/>
<path d="M25.5904 33.0267V39.4814V60.4596H14.2944V33.0267H25.5904Z" fill="#A4A9AB"/>
<path d="M70.774 24.1512V28.1855H65.1261H48.989H28.0111H11.874H6.22607V24.1512C6.22607 23.2636 6.95231 22.5375 7.83977 22.5375H12.6808H64.3193H69.1603C70.0479 22.5375 70.774 23.2638 70.774 24.1512Z" fill="#A4A9AB"/>
<path d="M64.3191 22.5376H12.6807L38.4999 1.55957L64.3191 22.5376ZM41.7273 13.6623C41.7273 11.8872 40.2749 10.4349 38.4999 10.4349C36.7248 10.4349 35.2725 11.8872 35.2725 13.6623C35.2725 15.4373 36.7248 16.8896 38.4999 16.8896C40.2749 16.8896 41.7273 15.4373 41.7273 13.6623Z" fill="#E7ECED"/>
<path d="M38.5002 9.22449C36.0532 9.22449 34.0625 11.2152 34.0625 13.6622C34.0625 16.1092 36.0532 18.0999 38.5002 18.0999C40.9472 18.0999 42.938 16.1092 42.938 13.6622C42.938 11.2152 40.9471 9.22449 38.5002 9.22449ZM38.5002 15.6794C37.3879 15.6794 36.483 14.7747 36.483 13.6622C36.483 12.5498 37.3879 11.645 38.5002 11.645C39.6125 11.645 40.5174 12.5498 40.5174 13.6622C40.5174 14.7747 39.6124 15.6794 38.5002 15.6794Z" fill="black"/>
<path d="M66.3365 34.2369V29.3958H71.9844V24.1512C71.9844 22.5942 70.7175 21.3272 69.1604 21.3272H64.749L38.5001 0L12.2512 21.3273H7.83981C6.28282 21.3273 5.01578 22.5942 5.01578 24.1514V29.396H10.6637V34.237H13.0842V59.2494H10.6637V64.0905H9.05V68.9315H7.83966C6.28267 68.9315 5.01562 70.1984 5.01562 71.7556V77H71.9843V71.7554C71.9843 70.1984 70.7174 68.9314 69.1602 68.9314H67.9499V64.0903H66.3362V59.2492H63.9157V34.2369H66.3365ZM63.916 31.8163H50.1994V29.3958H63.916V31.8163ZM58.2679 55.6185V34.2369H61.4953V59.2492H52.62V34.2369H55.8473V55.6184H58.2679V55.6185ZM50.1994 59.2492H47.7789V64.0903H45.3584V47.9534H31.6418V64.0905H29.2213V59.2494H26.8008V40.6918H50.1994V59.2492ZM42.9378 53.6013H34.0625V50.3739H42.9378V53.6013ZM34.0624 56.0219H42.9377V64.0903H34.0624V56.0219ZM50.1994 38.2711H26.8008V34.2369H29.2213V29.3958H47.7789V34.2369H50.1994V38.2711ZM38.5001 3.1188L60.9106 21.3272H16.0896L38.5001 3.1188ZM7.43631 26.9753V24.1512C7.43631 23.9326 7.62114 23.7477 7.83981 23.7477H69.1604C69.379 23.7477 69.5639 23.9326 69.5639 24.1512V26.9753H7.43631ZM13.0844 29.3958H26.8009V31.8163H13.0844V29.3958ZM21.1528 55.6185V34.2369H24.3802V59.2492H15.5049V34.2369H18.7323V55.6184H21.1528V55.6185ZM13.0844 61.6698H26.8009V64.0903H13.0844V61.6698ZM69.1604 71.3521C69.379 71.3521 69.5639 71.5369 69.5639 71.7556V74.5796H7.43631V71.7556C7.43631 71.5369 7.62114 71.3521 7.83981 71.3521H69.1604ZM65.5296 66.511V68.9315H11.4705V66.511H65.5296ZM63.916 64.0905H50.1994V61.6699H63.916V64.0905Z" fill="black"/>
<path d="M40.9202 32.6226H36.0791V35.0431H40.9202V32.6226Z" fill="black"/>
</svg>
