<svg width="91" height="91" viewBox="0 0 91 91" fill="none" xmlns="http://www.w3.org/2000/svg">
<g clip-path="url(#clip0_188_390)">
<path d="M11.4632 17.291L1.69189 45.7825L13.338 49.7766L23.1093 21.285L11.4632 17.291Z" fill="#94A4A4"/>
<path d="M31.5696 19.7033L30.4368 20.2604C29.0254 20.9476 27.3725 21.0404 25.9054 20.5204L24.0112 19.8519C23.8998 19.7776 23.7883 19.7219 23.6769 19.6847L12.0143 15.692C11.1414 15.3948 10.1758 15.8591 9.87862 16.7319L0.0916734 45.2385C-0.056895 45.6656 -0.0197529 46.1299 0.165958 46.5199C0.351668 46.9099 0.704518 47.2256 1.13165 47.3742L12.7757 51.3669C12.9614 51.4227 13.1471 51.4598 13.3143 51.4598C14.02 51.4598 14.6699 51.0141 14.9114 50.327L24.1412 23.4732L24.7726 23.6961C27.094 24.5132 29.6939 24.3646 31.9225 23.2875L33.0553 22.7304C34.4481 22.0433 36.0824 21.9504 37.5495 22.4518L58.9619 29.8245C58.739 30.7159 58.2933 31.7745 57.4762 32.3502C56.5662 32.9816 55.2105 32.9816 53.4277 32.3688L43.8822 29.1003C43.4365 28.9517 42.9537 28.9888 42.5451 29.2117C42.1365 29.4345 41.8394 29.8245 41.7094 30.2702C41.6908 30.3259 40.3723 35.2658 36.1567 37.5315C33.501 38.9615 30.1953 39.0172 26.314 37.6987C25.4412 37.4015 24.4755 37.8658 24.1783 38.7386C23.8812 39.6115 24.3455 40.5772 25.2183 40.8743C27.4468 41.6357 29.5454 42.0257 31.4953 42.0257C33.761 42.0257 35.8409 41.5243 37.7352 40.5029C41.5051 38.4786 43.4551 34.9316 44.3465 32.8145L52.3135 35.5444C55.1548 36.5287 57.5319 36.3801 59.3705 35.0987C62.3233 33.0559 62.4718 28.9145 62.4904 28.7288C62.509 27.986 62.0447 27.336 61.3576 27.0946L38.6266 19.2576C36.3424 18.4776 33.761 18.6448 31.5696 19.7033ZM12.2929 47.6342L3.82445 44.7371L12.4971 19.4247L20.9655 22.3218L12.2929 47.6342Z" fill="#2C2F33"/>
<path d="M64.9971 22.8927L78.2349 49.9465L89.293 44.5356L76.0553 17.4818L64.9971 22.8927Z" fill="#E64C3D"/>
<path d="M76.1771 49.547L72.1843 53.2241C68.5629 56.5483 64.4773 59.3525 60.0574 61.5067L38.8678 71.8694C37.9393 72.3337 36.8064 71.9437 36.3422 70.9966C35.8779 70.068 36.2679 68.9352 37.215 68.4709L37.475 68.3409L49.0633 62.6767C49.899 62.2682 50.2519 61.2653 49.8433 60.4296C49.4348 59.5939 48.4319 59.2411 47.5962 59.6496L36.0079 65.3138L30.1766 68.1738C29.248 68.638 28.1152 68.248 27.6509 67.3009C27.4281 66.8552 27.3909 66.3352 27.5581 65.8709C27.7252 65.3881 28.0595 65.0167 28.5052 64.7938L32.9065 62.6396L45.4977 56.474C46.3334 56.0654 46.6862 55.0626 46.2777 54.2269C45.8691 53.3912 44.8663 53.0383 44.0306 53.4469L31.4208 59.6311L30.938 59.8725L24.921 62.8253C24.4753 63.0481 23.9553 63.0853 23.491 62.9181C23.0081 62.751 22.6367 62.4167 22.4139 61.971C21.9496 61.0425 22.3396 59.9096 23.2867 59.4454L25.3667 58.424L29.6194 56.344L30.808 55.7683L40.5764 50.977C41.4121 50.5684 41.7649 49.5656 41.3563 48.7299C40.9478 47.8942 39.9449 47.5413 39.1092 47.9499L28.5237 53.1312L23.8996 55.3969C22.971 55.8426 21.8382 55.4712 21.3739 54.524C21.151 54.0783 21.1139 53.5583 21.281 53.0941C21.4482 52.6112 21.7825 52.2398 22.2282 52.0169L30.3066 48.0613C31.1423 47.6527 31.4951 46.6499 31.0866 45.8142C30.678 44.9785 29.6752 44.6257 28.8395 45.0342L20.7611 48.9899C19.4982 49.6027 18.5511 50.6798 18.1054 51.9984C17.6597 53.3169 17.734 54.7469 18.3468 56.0097C18.7368 56.7897 19.2939 57.4397 19.9625 57.9225C18.7925 59.4639 18.4954 61.581 19.4054 63.4381C20.0182 64.701 21.0953 65.6481 22.4139 66.0938C22.971 66.2795 23.5281 66.3724 24.0853 66.3724C24.0667 67.2081 24.2338 68.0438 24.6238 68.8052C25.5338 70.6623 27.4095 71.7394 29.3409 71.7394C30.1209 71.7394 30.9008 71.5723 31.6437 71.2008L32.8322 70.6251C32.8879 71.2566 33.0551 71.8694 33.3337 72.4637C34.2436 74.3208 36.1193 75.3979 38.0507 75.3979C38.8307 75.3979 39.6107 75.2308 40.3535 74.8593L61.5431 64.4967C66.2601 62.1939 70.6057 59.2225 74.4685 55.6754L79.2041 51.3112L90.0496 45.9999C90.8853 45.5914 91.2382 44.5885 90.8296 43.7528L77.5699 16.732C77.3656 16.3234 77.0313 16.0263 76.6042 15.8777C76.1771 15.7291 75.7128 15.7663 75.3228 15.952L64.2544 21.3561C63.4188 21.7647 63.0659 22.7675 63.4745 23.6032L76.1771 49.547ZM75.2857 19.7219L87.0411 43.7714L78.9999 47.7085L67.2444 23.659L75.2857 19.7219Z" fill="#2C2F33"/>
</g>
<defs>
<clipPath id="clip0_188_390">
<rect width="91" height="91" fill="white"/>
</clipPath>
</defs>
</svg>
