<svg width="86" height="86" viewBox="0 0 86 86" fill="none" xmlns="http://www.w3.org/2000/svg">
<path d="M18.92 0C8.52182 0 0 8.52182 0 18.92V67.08C0 69.0129 0.62861 70.7981 1.72 72.24V77.4C1.72 80.2302 4.04982 82.56 6.88 82.56H13.76C16.5902 82.56 18.92 80.2302 18.92 77.4V75.68H37.84V72.24H8.6C5.75418 72.24 3.44 69.9258 3.44 67.08V18.92C3.44 10.3982 10.3982 3.44 18.92 3.44H46.44C54.9618 3.44 61.92 10.3982 61.92 18.92V43H65.36V18.92C65.36 8.52182 56.8382 0 46.44 0H18.92ZM20.64 5.16C19.7418 5.16 18.816 5.47901 18.1675 6.1275C17.519 6.77599 17.2 7.70178 17.2 8.6V12.04C17.2 12.9382 17.519 13.864 18.1675 14.5125C18.816 15.161 19.7418 15.48 20.64 15.48H46.44C47.3382 15.48 48.264 15.161 48.9125 14.5125C49.561 13.864 49.88 12.9382 49.88 12.04V8.6C49.88 7.70178 49.561 6.77599 48.9125 6.1275C48.264 5.47901 47.3382 5.16 46.44 5.16H20.64ZM20.64 8.6H46.44V12.04H20.64V8.6ZM12.04 17.2C9.116 17.2 6.88 19.436 6.88 22.36V44.72C6.88 47.644 9.116 49.88 12.04 49.88H42.8387L44.72 46.44H12.04C11.008 46.44 10.32 45.752 10.32 44.72V22.36C10.32 21.328 11.008 20.64 12.04 20.64H53.32C54.352 20.64 55.04 21.328 55.04 22.36V43H58.48V22.36C58.48 19.436 56.244 17.2 53.32 17.2H12.04ZM54.3413 46.44C50.9443 46.44 47.9042 48.4088 46.44 51.5462V51.6L41.925 61.5438V61.5975V61.6513C41.4782 62.7682 41.28 63.9482 41.28 65.0375V79.12V80.84V82.56C41.28 83.4582 41.599 84.384 42.2475 85.0325C42.896 85.681 43.8218 86 44.72 86H49.88C50.7782 86 51.704 85.681 52.3525 85.0325C53.001 84.384 53.32 83.4582 53.32 82.56V80.84H73.96V82.56C73.96 83.4582 74.279 84.384 74.9275 85.0325C75.576 85.681 76.5018 86 77.4 86H82.56C83.4582 86 84.384 85.681 85.0325 85.0325C85.681 84.384 86 83.4582 86 82.56V79.12V65.0375C86 63.8144 85.7724 62.6948 85.355 61.6513V61.5975V61.5438L80.84 51.6V51.5462C79.3758 48.4088 76.3358 46.44 72.9388 46.44H54.3413ZM54.3413 49.88H72.9388C75.0458 49.88 76.7787 50.975 77.7225 52.9975L79.12 56.115V58.48C79.12 59.4338 78.3538 60.2 77.4 60.2H49.88C48.9262 60.2 48.16 59.4338 48.16 58.48V56.115L49.5575 52.9975C50.5014 50.975 52.2342 49.88 54.3413 49.88ZM14.62 53.32C10.3657 53.32 6.88 56.8057 6.88 61.06C6.88 65.3143 10.3657 68.8 14.62 68.8C18.8743 68.8 22.36 65.3143 22.36 61.06C22.36 56.8057 18.8743 53.32 14.62 53.32ZM14.62 56.76C17.0152 56.76 18.92 58.6648 18.92 61.06C18.92 63.4552 17.0152 65.36 14.62 65.36C12.2248 65.36 10.32 63.4552 10.32 61.06C10.32 58.6648 12.2248 56.76 14.62 56.76ZM45.6875 61.5438C46.6299 62.8287 48.1798 63.64 49.88 63.64H77.4C79.1002 63.64 80.6501 62.8287 81.5925 61.5438L82.1838 62.8875C82.1903 62.9038 82.1774 62.9249 82.1838 62.9412C82.4408 63.5977 82.56 64.217 82.56 65.0375V77.4H44.72V65.0375C44.72 64.4221 44.8652 63.5424 45.0963 62.9412C45.1019 62.9263 45.0904 62.9021 45.0963 62.8875L45.6875 61.5438ZM51.6 67.08C49.7001 67.08 48.16 68.6201 48.16 70.52C48.16 72.4199 49.7001 73.96 51.6 73.96C53.4999 73.96 55.04 72.4199 55.04 70.52C55.04 68.6201 53.4999 67.08 51.6 67.08ZM75.68 67.08C73.7801 67.08 72.24 68.6201 72.24 70.52C72.24 72.4199 73.7801 73.96 75.68 73.96C77.5799 73.96 79.12 72.4199 79.12 70.52C79.12 68.6201 77.5799 67.08 75.68 67.08ZM5.16 74.9275C6.21767 75.3957 7.37606 75.68 8.6 75.68H15.48V77.4C15.48 78.3538 14.7138 79.12 13.76 79.12H6.88C5.92618 79.12 5.16 78.3538 5.16 77.4V74.9275ZM44.72 80.84H49.88V82.56H44.72V80.84ZM77.4 80.84H82.56V82.56H77.4V80.84Z" fill="#fedd38"/>
</svg>
