<svg width="84" height="84" viewBox="0 0 84 84" fill="none" xmlns="http://www.w3.org/2000/svg">
<path d="M13.2825 3.30753C13.2114 3.3205 13.1413 3.33804 13.0725 3.36003C12.6932 3.44499 12.355 3.65886 12.1157 3.9652C11.8763 4.27154 11.7506 4.6514 11.76 5.04003V18.48V20.16H13.44H26.88C27.1026 20.1632 27.3236 20.1221 27.5302 20.039C27.7368 19.956 27.9248 19.8328 28.0834 19.6765C28.2419 19.5201 28.3678 19.3339 28.4538 19.1285C28.5397 18.9231 28.5839 18.7027 28.5839 18.48C28.5839 18.2574 28.5397 18.037 28.4538 17.8316C28.3678 17.6262 28.2419 17.4399 28.0834 17.2836C27.9248 17.1273 27.7368 17.004 27.5302 16.921C27.3236 16.838 27.1026 16.7969 26.88 16.8H17.325C23.6879 10.5748 32.3841 6.72003 42 6.72003C61.504 6.72003 77.28 22.496 77.28 42C77.28 61.5041 61.504 77.28 42 77.28C22.496 77.28 6.72 61.5041 6.72 42C6.72 36.1682 8.15624 30.6722 10.6575 25.83L7.665 24.3075C4.92466 29.6126 3.36 35.625 3.36 42C3.36 63.32 20.68 80.64 42 80.64C63.32 80.64 80.64 63.32 80.64 42C80.64 20.68 63.32 3.36003 42 3.36003C31.5369 3.36003 22.0761 7.56618 15.12 14.3325V5.04003C15.1285 4.80114 15.0859 4.56319 14.9952 4.34206C14.9044 4.12094 14.7674 3.92173 14.5935 3.75774C14.4196 3.59376 14.2127 3.46878 13.9866 3.39114C13.7605 3.3135 13.5205 3.285 13.2825 3.30753ZM42 8.40003C41.0722 8.40003 40.32 9.15219 40.32 10.08C40.32 11.0079 41.0722 11.76 42 11.76C42.9278 11.76 43.68 11.0079 43.68 10.08C43.68 9.15219 42.9278 8.40003 42 8.40003ZM57.96 12.6525C57.0322 12.6525 56.28 13.4047 56.28 14.3325C56.28 15.2604 57.0322 16.0125 57.96 16.0125C58.8878 16.0125 59.64 15.2604 59.64 14.3325C59.64 13.4047 58.8878 12.6525 57.96 12.6525ZM69.6675 24.36C68.7397 24.36 67.9875 25.1122 67.9875 26.04C67.9875 26.9679 68.7397 27.72 69.6675 27.72C70.5953 27.72 71.3475 26.9679 71.3475 26.04C71.3475 25.1122 70.5953 24.36 69.6675 24.36ZM30.87 28.4025C26.2114 28.4025 22.8917 31.4404 22.89 35.805V35.8575H26.355V35.805C26.355 33.2783 28.1035 31.605 30.7125 31.605C33.1569 31.605 35.0175 33.2195 35.0175 35.385C35.0175 37.1238 34.2468 38.3872 31.08 41.685L23.1 49.98V52.6575H39.06V49.35H28.1925V49.0875L33.495 43.7325C37.4648 39.714 38.64 37.685 38.64 35.175C38.64 31.2707 35.3657 28.4025 30.87 28.4025ZM53.0775 28.98C48.8607 35.2968 45.3243 40.8051 43.2075 44.6775V48.09H54.7575V52.6575H58.275V48.09H61.5825V44.7825H58.275V28.98H53.0775ZM54.6 32.235H54.81V44.8875H46.725V44.625C49.5138 39.785 52.2547 35.6303 54.6 32.235ZM10.08 40.32C9.15216 40.32 8.4 41.0722 8.4 42C8.4 42.9279 9.15216 43.68 10.08 43.68C11.0078 43.68 11.76 42.9279 11.76 42C11.76 41.0722 11.0078 40.32 10.08 40.32ZM73.92 40.32C72.9922 40.32 72.24 41.0722 72.24 42C72.24 42.9279 72.9922 43.68 73.92 43.68C74.8478 43.68 75.6 42.9279 75.6 42C75.6 41.0722 74.8478 40.32 73.92 40.32ZM14.3325 56.28C13.4047 56.28 12.6525 57.0322 12.6525 57.96C12.6525 58.8879 13.4047 59.64 14.3325 59.64C15.2603 59.64 16.0125 58.8879 16.0125 57.96C16.0125 57.0322 15.2603 56.28 14.3325 56.28ZM69.6675 56.28C68.7397 56.28 67.9875 57.0322 67.9875 57.96C67.9875 58.8879 68.7397 59.64 69.6675 59.64C70.5953 59.64 71.3475 58.8879 71.3475 57.96C71.3475 57.0322 70.5953 56.28 69.6675 56.28ZM26.04 67.9875C25.1122 67.9875 24.36 68.7397 24.36 69.6675C24.36 70.5954 25.1122 71.3475 26.04 71.3475C26.9678 71.3475 27.72 70.5954 27.72 69.6675C27.72 68.7397 26.9678 67.9875 26.04 67.9875ZM57.96 67.9875C57.0322 67.9875 56.28 68.7397 56.28 69.6675C56.28 70.5954 57.0322 71.3475 57.96 71.3475C58.8878 71.3475 59.64 70.5954 59.64 69.6675C59.64 68.7397 58.8878 67.9875 57.96 67.9875ZM42 72.24C41.0722 72.24 40.32 72.9922 40.32 73.92C40.32 74.8479 41.0722 75.6 42 75.6C42.9278 75.6 43.68 74.8479 43.68 73.92C43.68 72.9922 42.9278 72.24 42 72.24Z" fill="#fedd38"/>
</svg>
