<svg width="90" height="82" viewBox="0 0 90 82" fill="none" xmlns="http://www.w3.org/2000/svg">
<g clip-path="url(#clip0_19_40)">
<path d="M26.7187 0.092041C25.9425 0.092041 25.3125 0.71922 25.3125 1.49512V14.0434H12.6562C10.3303 14.0434 8.43749 15.932 8.43749 18.2527C8.43749 19.8438 9.33652 21.2161 10.6457 21.9303L3.3673 36.4571C2.01167 39.1623 2.54113 42.4153 4.68566 44.555L5.08117 44.9496C6.0571 45.9234 7.20983 46.6251 8.43749 47.1036V78.5853H4.21874C3.44249 78.5853 2.81249 79.2124 2.81249 79.9883C2.81249 80.7643 3.44249 81.3914 4.21874 81.3914H8.43749H81.5625H85.7812C86.5575 81.3914 87.1875 80.7643 87.1875 79.9883C87.1875 79.2124 86.5575 78.5853 85.7812 78.5853H81.5625V47.1036C82.7901 46.6251 83.9429 45.9234 84.9188 44.9496L85.3143 44.555C87.4574 42.4167 87.9869 39.1609 86.6327 36.4571L79.3542 21.9303C80.6635 21.2147 81.5625 19.8438 81.5625 18.2527C81.5625 15.932 79.6697 14.0434 77.3437 14.0434H33.75V8.51054C33.75 7.73464 33.12 7.10746 32.3437 7.10746C31.5675 7.10746 30.9375 7.73464 30.9375 8.51054V14.0434H28.125V1.49512C28.125 0.71922 27.495 0.092041 26.7187 0.092041ZM12.6562 16.8496H77.3437C78.1186 16.8496 78.75 17.4782 78.75 18.2527C78.75 19.0272 78.1186 19.6557 77.3437 19.6557H12.6562C11.8814 19.6557 11.25 19.0272 11.25 18.2527C11.25 17.4782 11.8814 16.8496 12.6562 16.8496ZM13.5242 22.4619H23.8898L21.1267 34.865C20.9579 35.6212 21.4371 36.371 22.1951 36.5393C22.2978 36.5618 22.4015 36.5722 22.5027 36.5722C23.1468 36.5722 23.7284 36.1272 23.8733 35.4733L26.6858 22.8456C26.7153 22.7151 26.6997 22.5882 26.6913 22.4619H63.306C63.2989 22.5882 63.2861 22.7165 63.3142 22.8456L66.1267 35.4733C66.2729 36.1272 66.8532 36.5722 67.4972 36.5722C67.5985 36.5722 67.7022 36.5604 67.8049 36.5393C68.5628 36.371 69.0393 35.6212 68.8705 34.865L66.1102 22.4619H76.4758L84.1168 37.7095C84.931 39.3329 84.6125 41.2871 83.3258 42.571L82.9303 42.9656C80.4736 45.4196 76.5218 45.7 73.7402 43.6178L70.0323 40.8418C68.5403 39.7249 66.4583 39.7249 64.9676 40.8418L60.4687 44.2097C57.9839 46.0674 54.5161 46.0674 52.0312 44.2097L47.5323 40.8445C47.185 40.5835 46.8028 40.3887 46.4062 40.2498V28.1537C46.4062 27.3778 45.7762 26.7506 45 26.7506C44.2237 26.7506 43.5937 27.3778 43.5937 28.1537V40.2498C43.1972 40.3887 42.815 40.5835 42.4676 40.8445L37.9687 44.2097C35.4839 46.0688 32.0147 46.0674 29.5312 44.2097L25.0323 40.8445C23.5403 39.7262 21.4583 39.7262 19.9676 40.8445L16.2598 43.6178C13.4782 45.6972 9.52507 45.4182 7.06694 42.9656L6.67144 42.571C5.38472 41.2871 5.07035 39.3356 5.88317 37.7122L13.5242 22.4619ZM22.5 42.8066C22.7974 42.8066 23.095 42.8995 23.3432 43.0862L27.8448 46.4541C31.3211 49.0568 36.1775 49.0568 39.6551 46.4541L44.1568 43.0862C44.6532 42.7129 45.3468 42.7129 45.8432 43.0862L50.3448 46.4541C52.0844 47.7562 54.1659 48.4053 56.25 48.4053C58.3341 48.4053 60.417 47.7562 62.1551 46.4541L66.6568 43.0862C67.1532 42.7129 67.8468 42.7129 68.3432 43.0862L72.0511 45.8622C74.0255 47.3382 76.4198 47.9588 78.75 47.7722V64.5188H74.5312C73.755 64.5188 73.125 65.146 73.125 65.9219C73.125 66.6978 73.755 67.325 74.5312 67.325H78.75V78.5853H39.375V67.3606H43.8299C44.6062 67.3606 45.2362 66.7334 45.2362 65.9575C45.2362 65.1816 44.6062 64.5544 43.8299 64.5544H39.375V53.3298C39.375 51.7822 38.1136 50.5236 36.5625 50.5236H22.5C20.9489 50.5236 19.6875 51.7822 19.6875 53.3298V64.5544H11.25V47.7695C13.5801 47.9575 15.9745 47.3382 17.9489 45.8622L21.6568 43.0862C21.905 42.8995 22.2026 42.8066 22.5 42.8066ZM50.625 50.5236C49.0739 50.5236 47.8125 51.7822 47.8125 53.3298V64.4832C47.8125 66.0308 49.0739 67.2893 50.625 67.2893H67.5C69.0511 67.2893 70.3125 66.0308 70.3125 64.4832V53.3298C70.3125 51.7822 69.0511 50.5236 67.5 50.5236H50.625ZM22.4972 53.3298H36.5625V78.514H22.5L22.4972 53.3298ZM50.6222 53.3298H50.625H67.5V64.4832H50.625L50.6222 53.3298ZM32.3437 63.1513C31.5675 63.1513 30.9375 63.7785 30.9375 64.5544V67.3606C30.9375 68.1365 31.5675 68.7637 32.3437 68.7637C33.12 68.7637 33.75 68.1365 33.75 67.3606V64.5544C33.75 63.7785 33.12 63.1513 32.3437 63.1513ZM11.25 67.3606H19.6875V78.5853H11.25V67.3606ZM15.4687 70.1668C14.6925 70.1668 14.0625 70.7939 14.0625 71.5698V74.376C14.0625 75.1519 14.6925 75.7791 15.4687 75.7791C16.245 75.7791 16.875 75.1519 16.875 74.376V71.5698C16.875 70.7939 16.245 70.1668 15.4687 70.1668ZM45 70.1668C44.2237 70.1668 43.5937 70.7939 43.5937 71.5698V74.376C43.5937 75.1519 44.2237 75.7791 45 75.7791C45.7762 75.7791 46.4062 75.1519 46.4062 74.376V71.5698C46.4062 70.7939 45.7762 70.1668 45 70.1668ZM52.0312 70.1668C51.255 70.1668 50.625 70.7939 50.625 71.5698V74.376C50.625 75.1519 51.255 75.7791 52.0312 75.7791C52.8075 75.7791 53.4375 75.1519 53.4375 74.376V71.5698C53.4375 70.7939 52.8075 70.1668 52.0312 70.1668ZM59.0625 70.1668C58.2862 70.1668 57.6562 70.7939 57.6562 71.5698V74.376C57.6562 75.1519 58.2862 75.7791 59.0625 75.7791C59.8387 75.7791 60.4687 75.1519 60.4687 74.376V71.5698C60.4687 70.7939 59.8387 70.1668 59.0625 70.1668ZM66.0937 70.1668C65.3175 70.1668 64.6875 70.7939 64.6875 71.5698V74.376C64.6875 75.1519 65.3175 75.7791 66.0937 75.7791C66.87 75.7791 67.5 75.1519 67.5 74.376V71.5698C67.5 70.7939 66.87 70.1668 66.0937 70.1668ZM73.125 70.1668C72.3487 70.1668 71.7187 70.7939 71.7187 71.5698V74.376C71.7187 75.1519 72.3487 75.7791 73.125 75.7791C73.9012 75.7791 74.5312 75.1519 74.5312 74.376V71.5698C74.5312 70.7939 73.9012 70.1668 73.125 70.1668Z" fill="#fedd38"/>
</g>
<defs>
<clipPath id="clip0_19_40">
<rect width="90" height="81.4441" fill="white" transform="translate(0 0.0124512)"/>
</clipPath>
</defs>
</svg>
