<svg width="95" height="81" viewBox="0 0 95 81" fill="none" xmlns="http://www.w3.org/2000/svg">
<path d="M84.8337 68.9296L84.9769 68.6736L84.5405 68.4295C84.5405 68.4295 88.654 61.0751 88.6445 50.8148H89.1445C89.1445 50.8147 89.1445 50.8145 89.1445 50.8144C89.1442 27.8699 70.567 9.27387 47.652 9.27387C24.7368 9.27387 6.1595 27.8701 6.1595 50.8148C6.1595 55.9562 7.15714 60.4045 8.15387 63.5668C8.65246 65.1487 9.15151 66.4109 9.52701 67.2798C9.71478 67.7143 9.87175 68.0507 9.98243 68.2796C10.0378 68.3941 10.0816 68.4818 10.1118 68.5415C10.127 68.5713 10.1388 68.5942 10.1469 68.6099L10.1564 68.6281L10.1591 68.6331L10.1599 68.6347L10.1601 68.6351C10.1602 68.6353 10.1603 68.6355 10.602 68.4011L10.1603 68.6355L10.3012 68.901L10.6018 68.9011L84.5403 68.9295L84.8337 68.9296ZM87.7853 73.4386C87.7431 73.5143 87.7057 73.5805 87.6735 73.637H7.29618C7.26505 73.5864 7.22914 73.5272 7.18881 73.4598C7.02705 73.1892 6.79427 72.7846 6.51407 72.2543C5.95359 71.1935 5.20382 69.6307 4.45332 67.6326C2.95208 63.6357 1.45 57.9031 1.45 50.9663C1.45 25.3808 22.0719 4.64209 47.5 4.64209C72.9282 4.64209 93.55 25.3714 93.55 50.9663C93.55 57.479 92.0445 63.2119 90.5359 67.3201C89.782 69.3731 89.0285 71.0171 88.4647 72.146C88.1828 72.7103 87.9484 73.1456 87.7853 73.4386Z" fill="#fedd38" stroke="#161616"/>
<path d="M55.6058 45.7499L47.6178 60.0381L39.2919 45.7204L37.1308 42.004L35.6803 46.051L30.7308 59.8607L29.937 62.0755H18.7151L19.0338 61.2762L35.0396 21.1332L45.882 41.7413L47.6757 45.1507L49.432 41.7219L60.1555 20.7869L75.9417 61.2622L76.2589 62.0755H64.9775L64.1837 59.8607L59.2342 46.051L57.751 41.9127L55.6058 45.7499Z" fill="#fedd38" stroke="#161616" stroke-width="4"/>
<rect x="0.5" y="0.5" width="94" height="80" stroke="#161616"/>
</svg>
