<svg width="95" height="81" viewBox="0 0 95 81" fill="none" xmlns="http://www.w3.org/2000/svg">
<path d="M84.8336 68.9296L84.9768 68.6736L84.5405 68.4295C84.5405 68.4295 88.6539 61.0751 88.6444 50.8148H89.1444C89.1444 50.8147 89.1444 50.8145 89.1444 50.8144C89.1442 27.8699 70.567 9.27387 47.652 9.27387C24.7368 9.27387 6.15945 27.8701 6.15945 50.8148C6.15945 55.9562 7.15709 60.4045 8.15383 63.5668C8.65242 65.1487 9.15147 66.4109 9.52696 67.2798C9.71474 67.7143 9.8717 68.0507 9.98239 68.2796C10.0377 68.3941 10.0815 68.4818 10.1118 68.5415C10.1269 68.5713 10.1387 68.5942 10.1469 68.6099L10.1564 68.6281L10.159 68.6331L10.1598 68.6347L10.1601 68.6352C10.1602 68.6353 10.1603 68.6355 10.602 68.4011L10.1603 68.6355L10.3012 68.901L10.6018 68.9011L84.5403 68.9295L84.8336 68.9296ZM87.7853 73.4386C87.7431 73.5143 87.7057 73.5805 87.6734 73.637H7.29613C7.26501 73.5864 7.22909 73.5272 7.18876 73.4598C7.02701 73.1892 6.79422 72.7846 6.51402 72.2543C5.95355 71.1935 5.20378 69.6307 4.45327 67.6326C2.95204 63.6357 1.44995 57.9031 1.44995 50.9663C1.44995 25.3808 22.0719 4.64209 47.5 4.64209C72.9281 4.64209 93.5499 25.3714 93.5499 50.9663C93.5499 57.479 92.0444 63.2119 90.5358 67.3201C89.782 69.3731 89.0285 71.0171 88.4646 72.146C88.1828 72.7103 87.9484 73.1456 87.7853 73.4386Z" fill="#fedd38" stroke="white"/>
<path d="M55.6058 45.7499L47.6178 60.0381L39.2919 45.7204L37.1308 42.004L35.6803 46.0511L30.7308 59.8607L29.937 62.0755H18.7151L19.0338 61.2762L35.0396 21.1332L45.882 41.7413L47.6757 45.1507L49.4321 41.7219L60.1555 20.7869L75.9417 61.2622L76.2589 62.0755H64.9775L64.1837 59.8607L59.2342 46.0511L57.751 41.9127L55.6058 45.7499Z" fill="#fedd38" stroke="white" stroke-width="4"/>
</svg>
