<svg width="7" height="12" viewBox="0 0 7 12" fill="none" xmlns="http://www.w3.org/2000/svg">
<path d="M0.428862 1.00205L5.11348 6.00005L0.428863 10.998C0.344995 11.0873 0.298042 11.2072 0.298042 11.332C0.298042 11.4569 0.344995 11.5767 0.428863 11.666C0.469598 11.7093 0.518218 11.7436 0.571878 11.7671C0.625538 11.7905 0.683158 11.8026 0.741363 11.8026C0.799567 11.8026 0.857187 11.7905 0.910847 11.7671C0.964506 11.7436 1.01313 11.7093 1.05386 11.666L6.03848 6.34905C6.12599 6.25567 6.17497 6.13044 6.17497 6.00005C6.17497 5.86965 6.12599 5.74442 6.03848 5.65105L1.05482 0.334046C1.01406 0.290503 0.965318 0.255894 0.91148 0.232263C0.857642 0.208631 0.799798 0.196457 0.741362 0.196457C0.682926 0.196457 0.625081 0.208631 0.571244 0.232263C0.517406 0.255894 0.468666 0.290503 0.4279 0.334046C0.344033 0.423344 0.297081 0.54322 0.297081 0.668047C0.297081 0.792874 0.344033 0.912748 0.4279 1.00205L0.428862 1.00205Z" fill="#fedd38"/>
</svg>
