<svg width="19" height="19" viewBox="0 0 19 19" fill="none" xmlns="http://www.w3.org/2000/svg">
<path d="M9.5 10.2917C10.8117 10.2917 11.875 9.22835 11.875 7.91667C11.875 6.605 10.8117 5.54167 9.5 5.54167C8.18832 5.54167 7.125 6.605 7.125 7.91667C7.125 9.22835 8.18832 10.2917 9.5 10.2917Z" stroke="#e0bb00" stroke-width="2" stroke-linecap="round" stroke-linejoin="round"/>
<path d="M9.49999 1.58334C7.82029 1.58334 6.20938 2.2506 5.02165 3.43833C3.83392 4.62606 3.16666 6.23696 3.16666 7.91667C3.16666 9.4145 3.48491 10.3946 4.35416 11.4792L9.49999 17.4167L14.6458 11.4792C15.5151 10.3946 15.8333 9.4145 15.8333 7.91667C15.8333 6.23696 15.1661 4.62606 13.9783 3.43833C12.7906 2.2506 11.1797 1.58334 9.49999 1.58334V1.58334Z" stroke="#e0bb00" stroke-width="2" stroke-linecap="round" stroke-linejoin="round"/>
</svg>
