<svg width="23" height="18" viewBox="0 0 23 18" fill="none" xmlns="http://www.w3.org/2000/svg">
<path d="M20.8438 0.797363H2.15625C1.75869 0.797363 1.4375 1.12319 1.4375 1.52648V16.1088C1.4375 16.512 1.75869 16.8379 2.15625 16.8379H20.8438C21.2413 16.8379 21.5625 16.512 21.5625 16.1088V1.52648C21.5625 1.12319 21.2413 0.797363 20.8438 0.797363ZM19.9453 3.32192V15.1974H3.05469V3.32192L2.43477 2.83205L3.31748 1.68141L4.27881 2.44015H18.7234L19.6848 1.68141L20.5675 2.83205L19.9453 3.32192ZM18.7234 2.43787L11.5 8.13407L4.27656 2.43787L3.31523 1.67914L2.43252 2.82977L3.05244 3.31964L10.7251 9.37129C10.9458 9.54518 11.2172 9.63958 11.4966 9.63958C11.776 9.63958 12.0475 9.54518 12.2682 9.37129L19.9453 3.32192L20.5652 2.83205L19.6825 1.68141L18.7234 2.43787Z" fill="white"/>
</svg>
