<svg width="23" height="23" viewBox="0 0 23 23" fill="none" xmlns="http://www.w3.org/2000/svg">
<path d="M9.72391 13.1867C11.0576 14.5396 12.6713 15.5841 14.4517 16.2469L16.8603 14.3303C16.9317 14.2811 17.0164 14.2548 17.1031 14.2548C17.1898 14.2548 17.2744 14.2811 17.3458 14.3303L21.8181 17.2117C21.9879 17.3137 22.1316 17.4539 22.2379 17.621C22.3442 17.7882 22.4102 17.9778 22.4306 18.1749C22.4511 18.3719 22.4254 18.571 22.3557 18.7564C22.286 18.9419 22.1741 19.1086 22.0289 19.2433L19.9334 21.3133C19.6332 21.6098 19.2644 21.8275 18.8597 21.9467C18.4551 22.066 18.0271 22.0833 17.6142 21.9969C13.4948 21.1461 9.6978 19.1536 6.65724 16.2469C3.68416 13.3114 1.6268 9.57619 0.734739 5.49443C0.646615 5.08787 0.665008 4.66543 0.788135 4.26807C0.911262 3.8707 1.13495 3.51188 1.43752 3.22637L3.60974 1.13082C3.74416 0.992684 3.90809 0.886748 4.08926 0.820944C4.27042 0.75514 4.46412 0.731174 4.65586 0.750839C4.8476 0.770505 5.03241 0.833293 5.19644 0.934502C5.36048 1.03571 5.49949 1.17272 5.60307 1.33526L8.58029 5.74999C8.63165 5.81931 8.65937 5.9033 8.65937 5.98957C8.65937 6.07584 8.63165 6.15983 8.58029 6.22915L6.61891 8.58665C7.29969 10.3314 8.36035 11.9028 9.72391 13.1867Z" fill="white"/>
</svg>
