<svg width="170" height="33" viewBox="0 0 170 33" fill="none" xmlns="http://www.w3.org/2000/svg">
    <path d="M0.8 25.44H2.8V7.48H0.8V0.879998H17.04C21.4933 0.879998 25.0267 2.10666 27.64 4.56C30.28 6.98667 31.6 10.9467 31.6 16.44C31.6 21.9333 30.28 25.9067 27.64 28.36C25.0267 30.7867 21.4933 32 17.04 32H0.8V25.44ZM16.32 25.44C17.2267 25.44 17.9067 25.2 18.36 24.72C18.8133 24.24 19.04 23.4933 19.04 22.48V10.4C19.04 8.42667 18.1333 7.44 16.32 7.44H14V25.44H16.32ZM64.9484 7.44H62.9484V25.44H64.9484V32H49.8284V25.44H51.7484V18.84H46.1484V25.44H48.0684V32H32.9484V25.44H34.9484V7.44H32.9484V0.879998H48.0684V7.44H46.1484V13.52H51.7484V7.44H49.8284V0.879998H64.9484V7.44ZM82.0622 32.56C77.0222 32.56 73.1289 31.28 70.3822 28.72C67.6622 26.16 66.3022 22.0667 66.3022 16.44C66.3022 5.69333 71.5289 0.319998 81.9822 0.319998C84.5155 0.319998 86.8622 0.626664 89.0222 1.24C91.2089 1.85333 92.8355 2.53333 93.9022 3.28V13.28H84.3022V10.4C84.3022 9.38667 84.0755 8.64 83.6222 8.16C83.1689 7.68 82.4889 7.44 81.5822 7.44C80.6755 7.44 79.9955 7.68 79.5422 8.16C79.0889 8.64 78.8622 9.38667 78.8622 10.4V22.48C78.8622 23.4933 79.0889 24.24 79.5422 24.72C79.9955 25.2 80.6755 25.44 81.5822 25.44C82.4889 25.44 83.1689 25.2 83.6222 24.72C84.0755 24.24 84.3022 23.4933 84.3022 22.48V19.24H93.9022V29.6C92.8089 30.3467 91.1822 31.0267 89.0222 31.64C86.8889 32.2533 84.5689 32.56 82.0622 32.56ZM107.249 32.56C103.463 32.56 100.503 31.5733 98.3694 29.6C96.236 27.6 95.1694 24.6933 95.1694 20.88C95.1694 17.0667 96.236 14.1733 98.3694 12.2C100.503 10.2 103.463 9.2 107.249 9.2C111.089 9.2 114.063 10.2133 116.169 12.24C118.276 14.24 119.329 17.12 119.329 20.88C119.329 24.6933 118.263 27.6 116.129 29.6C113.996 31.5733 111.036 32.56 107.249 32.56ZM107.249 25.44C108.023 25.44 108.596 25.24 108.969 24.84C109.369 24.4133 109.569 23.76 109.569 22.88V18.88C109.569 18 109.369 17.36 108.969 16.96C108.596 16.5333 108.023 16.32 107.249 16.32C106.476 16.32 105.889 16.5333 105.489 16.96C105.116 17.36 104.929 18 104.929 18.88V22.88C104.929 23.76 105.116 24.4133 105.489 24.84C105.889 25.24 106.476 25.44 107.249 25.44ZM128.483 32.56C125.763 32.56 123.709 31.5467 122.323 29.52C120.963 27.4933 120.283 24.6133 120.283 20.88C120.283 17.1467 120.963 14.2667 122.323 12.24C123.709 10.2133 125.763 9.2 128.483 9.2C129.843 9.2 131.043 9.53333 132.083 10.2C133.149 10.8667 134.016 11.6267 134.683 12.48V7.44H132.323V0.879998H143.883V25.44H145.643V32H134.683V29.28C134.016 30.1333 133.149 30.8933 132.083 31.56C131.043 32.2267 129.843 32.56 128.483 32.56ZM132.363 25.44C133.136 25.44 133.709 25.24 134.083 24.84C134.483 24.4133 134.683 23.76 134.683 22.88V18.88C134.683 18 134.483 17.36 134.083 16.96C133.709 16.5333 133.136 16.32 132.363 16.32C131.589 16.32 131.003 16.5333 130.603 16.96C130.229 17.36 130.043 18 130.043 18.88V22.88C130.043 23.76 130.229 24.4133 130.603 24.84C131.003 25.24 131.589 25.44 132.363 25.44ZM158.851 32.56C155.064 32.56 152.104 31.5733 149.971 29.6C147.838 27.6 146.771 24.6933 146.771 20.88C146.771 17.0667 147.838 14.1733 149.971 12.2C152.104 10.2 155.064 9.2 158.851 9.2C162.611 9.2 165.318 10.1867 166.971 12.16C168.651 14.1067 169.491 16.5333 169.491 19.44V22.32H156.531V22.56C156.531 23.5467 156.824 24.28 157.411 24.76C157.998 25.2133 158.971 25.44 160.331 25.44C161.958 25.44 163.504 25.32 164.971 25.08C166.438 24.84 167.718 24.5333 168.811 24.16V30.56C167.878 31.0667 166.504 31.5333 164.691 31.96C162.904 32.36 160.958 32.56 158.851 32.56ZM161.171 17.92V17.44C161.171 16.5333 160.971 15.88 160.571 15.48C160.198 15.08 159.624 14.88 158.851 14.88C158.078 14.88 157.491 15.0933 157.091 15.52C156.718 15.92 156.531 16.56 156.531 17.44V17.92H161.171Z" fill="white"/>
    </svg>
    