<svg width="132" height="36" viewBox="0 0 132 36" fill="none" xmlns="http://www.w3.org/2000/svg">
    <path fill-rule="evenodd" clip-rule="evenodd" d="M35.8241 6.84864C36.742 10.1782 36.1936 12.7492 34.8127 16.0282C33.6886 18.7004 31.9539 21.3414 29.7601 23.7491L31.2537 25.0444L25.5165 26.6858L26.8273 21.2131L28.0837 22.3022C29.589 20.7074 30.9464 18.9921 31.95 17.1484C33.3347 14.6007 33.957 11.8002 33.3541 9.1552C32.7551 6.51025 30.5108 4.89216 27.613 4.33983C25.0186 3.84585 21.8758 4.28538 18.7369 5.86068C17.3172 6.57637 15.9908 7.43598 14.785 8.39672C15.279 8.08555 15.7885 7.79383 16.3136 7.53322C18.8575 6.2652 21.3196 5.83345 23.2683 6.24186C25.3959 6.68917 26.9985 8.54453 27.2591 10.5438C27.5197 12.5431 27.0918 13.92 26.2594 15.7131C25.5632 17.2145 24.548 18.6926 23.3033 20.0384L24.2213 20.8319L20.8256 21.8043L21.5997 18.5642L22.467 19.3149C24.4313 17.0862 26.1427 14.1923 25.9016 11.8429C25.5399 8.39672 21.798 7.48655 17.8189 9.34968C16.7843 9.83589 15.8197 10.4699 14.9562 11.1895C15.314 10.96 15.6757 10.7577 16.053 10.5788C19.0558 9.17853 21.7436 10.4115 21.8369 12.5975C21.9225 14.5851 21.0357 16.0982 19.612 17.5801L20.2461 18.1286L17.9745 18.7782L18.4918 16.6116L19.1142 17.1523C20.1877 15.9465 21.1601 14.554 21.1173 13.2938C21.059 11.3684 19.1297 10.7422 16.9088 11.7379C15.9013 12.193 14.9873 12.9126 14.2833 13.7294C13.941 13.4299 13.6026 13.1343 13.2758 12.8426C13.2175 12.7881 13.1591 12.7414 13.0969 12.687C12.5913 12.2513 12.109 11.8274 11.6461 11.419C11.5488 11.3334 11.4516 11.2439 11.3544 11.1622C10.4948 10.4115 9.68571 9.70364 8.92334 9.03851C11.0393 6.87976 13.5676 4.91939 16.3759 3.39854C20.3277 1.25924 24.3107 0.263496 27.6753 0.547439C31.5454 0.866389 34.9061 3.51912 35.8241 6.84864Z" fill="url(#paint0_linear_256_11623)"/>
    <path fill-rule="evenodd" clip-rule="evenodd" d="M0.288359 23.3446C0.945707 20.4196 1.67307 19.0777 2.8633 17.0668C3.91739 15.2853 5.23597 13.5466 6.7257 11.9519L6.01779 11.3412L8.28545 10.6917L7.76813 12.8582L7.29748 12.4498C6.15781 13.6517 5.06483 14.9313 4.15466 16.3161C3.11223 17.903 2.28763 19.6184 1.84421 21.7421C1.40079 23.8658 1.88311 25.9935 3.21336 27.3704C4.68753 28.8951 7.18857 29.6108 10.4325 28.5762C12.0778 28.055 13.7115 27.207 15.2557 26.1102C14.6139 26.4291 13.9604 26.6975 13.307 26.9075C10.3547 27.8644 7.97817 27.5143 6.51177 26.3085C5.16985 25.2039 4.6642 22.8973 4.97148 21.0809C5.27487 19.2644 5.73384 18.3581 6.48454 17.0434C7.11078 15.9543 7.90037 14.8808 8.80666 13.8889L8.26211 13.4183L10.2536 12.8465L9.79852 14.7485L9.23063 14.2546C7.75645 15.9232 6.29007 18.1209 5.98279 20.0462C5.47325 23.3174 7.88481 25.1339 11.6967 23.7258C12.8052 23.3213 13.8904 22.6834 14.89 21.9016C14.4777 22.135 14.0538 22.3294 13.6259 22.4928C10.4831 23.6636 8.42158 21.6954 8.67441 19.5911C8.88445 17.8214 9.56514 16.74 10.5764 15.6354L10.1408 15.2581L11.8678 14.7641L11.4711 16.4133L10.9265 15.9427C10.1136 16.8995 9.394 17.973 9.27731 18.9921C9.07116 20.8514 10.5726 21.7771 12.7352 20.9214C13.7932 20.5052 14.7889 19.7506 15.5552 18.856C15.9791 19.2294 16.4109 19.6184 16.8582 20.0112C16.9399 20.089 17.0255 20.1629 17.111 20.2329C17.8501 20.8864 18.6241 21.5748 19.4331 22.2944C19.6082 22.45 19.7832 22.6095 19.966 22.769C21.7241 24.3287 23.6378 26.0285 25.7577 27.9111C22.0548 31.4156 17.6478 33.975 13.2292 35.0213C8.03262 36.2465 4.11965 35.0213 1.92979 32.4697C0.0549816 30.2721 -0.365099 26.2657 0.288359 23.3446Z" fill="#3C3C3B"/>
    <path d="M55.6417 18.0742C55.6417 19.9801 54.7666 21.4271 53.0162 22.4112C51.6315 23.1969 50.0173 23.5897 48.1698 23.5897C45.9566 23.5897 44.1518 23.0802 42.7476 22.065C41.3434 21.0498 40.6433 19.7118 40.6433 18.0509C40.6433 16.3278 41.4018 14.9586 42.9226 13.9434C44.3268 13.006 46.0771 12.5354 48.1736 12.5354C50.1146 12.5354 51.7716 12.9438 53.1368 13.7567C54.8055 14.7564 55.6417 16.1955 55.6417 18.0742ZM51.1726 17.9809C51.1726 16.8879 50.9314 16.0399 50.453 15.4293C49.9707 14.8225 49.2122 14.5191 48.1736 14.5191C47.2129 14.5191 46.4622 14.8108 45.9254 15.3943C45.3887 15.9777 45.1164 16.8645 45.1164 18.047C45.1164 19.3072 45.4237 20.2407 46.0382 20.8398C46.5556 21.3493 47.2674 21.6021 48.1736 21.6021C49.1538 21.6021 49.9006 21.2909 50.4102 20.6686C50.9158 20.0463 51.1726 19.1517 51.1726 17.9809ZM57.3454 12.7415H70.5585V23.3797H66.3771V15.2776H61.5306V23.3797H57.3493V12.7415H57.3454ZM83.5693 15.0286H79.6447V23.3836H75.4633V15.0286H71.4842V12.7454H83.5693V15.0286ZM97.8209 12.7415V23.3797H93.6396V17.518L88.2447 23.3797H84.4095V12.7415H88.5908V18.5799L93.9546 12.7415H97.8209ZM100.19 12.7415V23.3797H104.371V17.3119L107.456 20.3808H107.918L111.003 17.1018V23.3797H115.184V12.7415H111.349L107.685 16.5262L104.021 12.7415H100.19ZM131.143 20.7503V22.6212C130.548 22.8974 129.883 23.1307 129.152 23.3136C128.421 23.4964 127.779 23.5897 127.219 23.5897C125.931 23.5897 125.153 23.1891 124.881 22.3878C124.111 22.804 123.372 23.1074 122.66 23.298C121.948 23.4886 121.229 23.5858 120.498 23.5858C119.44 23.5858 118.557 23.3252 117.845 22.8001C117.133 22.275 116.779 21.6682 116.779 20.9759C116.779 19.6067 117.751 18.5838 119.692 17.907C120.501 17.6308 122.162 17.1757 124.683 16.5456C124.683 15.9933 124.527 15.5693 124.22 15.2776C123.854 14.9392 123.24 14.768 122.372 14.768C121.544 14.768 120.684 14.9314 119.79 15.2542C118.895 15.5771 118.121 16.0088 117.467 16.5456V13.8229C119.218 12.9594 121.139 12.5315 123.236 12.5315C125.006 12.5315 126.386 12.7882 127.374 13.3055C128.366 13.819 128.86 14.6397 128.86 15.7638V20.6103C128.86 21.1042 129.09 21.3493 129.553 21.3493C129.728 21.3493 129.926 21.3104 130.159 21.2326C130.393 21.1587 130.719 20.9953 131.143 20.7503ZM124.683 20.797V18.2337C122.24 18.9416 121.019 19.6884 121.019 20.4741C121.019 20.797 121.143 21.0654 121.392 21.2832C121.641 21.4971 121.968 21.606 122.372 21.606C123.181 21.606 123.951 21.3337 124.683 20.797Z" fill="#3C3C3B"/>
    <path d="M41.5925 27.7286C41.7131 27.5535 41.8453 27.433 41.9892 27.3629C42.1331 27.2929 42.316 27.2579 42.5338 27.2579C42.8683 27.2579 43.125 27.3668 43.3039 27.5846C43.4828 27.8025 43.5723 28.1253 43.5723 28.5493C43.5723 29.0394 43.4673 29.4089 43.2573 29.6578C43.0472 29.9068 42.7594 30.0351 42.3821 30.0351C41.9815 30.0351 41.682 29.899 41.4836 29.6228C41.2852 29.3467 41.1841 28.9149 41.1841 28.3237C41.1841 28.0125 41.1996 27.7441 41.2308 27.5224C41.2619 27.3007 41.3086 27.114 41.3669 26.9623C41.4252 26.8106 41.4991 26.69 41.5847 26.5967C41.6703 26.5072 41.7675 26.4333 41.8725 26.3827C41.9815 26.3283 42.0981 26.2933 42.2226 26.27C42.351 26.2466 42.4871 26.2311 42.631 26.2155C42.8177 26.196 42.9655 26.1766 43.0744 26.1533C43.1795 26.1299 43.2689 26.0871 43.3312 26.0249L43.3817 26.4178C43.3467 26.4489 43.3039 26.4761 43.2611 26.4994C43.2184 26.5228 43.1639 26.5383 43.1017 26.5539C43.0394 26.5695 42.9655 26.5811 42.88 26.5928C42.7944 26.6045 42.6971 26.6122 42.5843 26.62C42.4288 26.6317 42.2926 26.6511 42.172 26.6784C42.0554 26.7056 41.9542 26.7562 41.8686 26.8378C41.7831 26.9156 41.717 27.0284 41.6664 27.1685C41.6158 27.3124 41.5847 27.503 41.5653 27.7363H41.5925V27.7286ZM41.6431 28.6115C41.6431 28.7476 41.6586 28.8838 41.6858 29.0083C41.7131 29.1366 41.7597 29.2455 41.8181 29.3428C41.8764 29.44 41.9542 29.5139 42.0476 29.5684C42.1409 29.6228 42.2537 29.65 42.3782 29.65C42.6271 29.65 42.8138 29.5606 42.9344 29.3817C43.055 29.2027 43.1172 28.9343 43.1172 28.5843C43.1172 28.4481 43.1056 28.3198 43.0783 28.2031C43.0511 28.0864 43.0122 27.9853 42.9578 27.8997C42.9033 27.8141 42.8333 27.748 42.7516 27.7052C42.6699 27.6586 42.5688 27.6391 42.4521 27.6391C42.1682 27.6352 41.962 27.7169 41.8298 27.888C41.7092 28.0514 41.6431 28.2926 41.6431 28.6115ZM46.5401 29.7473C46.4312 29.8329 46.2951 29.9029 46.1278 29.9534C45.9644 30.004 45.7894 30.0312 45.6027 30.0312C45.3966 30.0312 45.2176 29.9962 45.062 29.9301C44.9104 29.864 44.7859 29.7667 44.6848 29.6423C44.5875 29.5178 44.5136 29.3661 44.4669 29.195C44.4202 29.0199 44.3969 28.8254 44.3969 28.6076C44.3969 28.1448 44.5019 27.7908 44.7081 27.5458C44.9142 27.3046 45.2099 27.1801 45.5949 27.1801C45.7194 27.1801 45.84 27.1957 45.9644 27.2229C46.0889 27.2501 46.1978 27.3007 46.2951 27.3785C46.3923 27.4563 46.474 27.5613 46.5362 27.7013C46.5984 27.8414 46.6296 28.0242 46.6296 28.2537C46.6296 28.3742 46.6179 28.5065 46.5984 28.6504H44.852C44.852 28.8099 44.8676 28.9499 44.9026 29.0744C44.9337 29.1988 44.9842 29.3039 45.0543 29.3894C45.1243 29.475 45.2137 29.5411 45.3226 29.5839C45.4316 29.6306 45.5677 29.65 45.7272 29.65C45.8516 29.65 45.9722 29.6267 46.0967 29.5839C46.2211 29.5411 46.3106 29.4906 46.3729 29.4322L46.5401 29.7473ZM45.6027 27.5574C45.3888 27.5574 45.2176 27.6119 45.0893 27.7247C44.9609 27.8375 44.8831 28.0281 44.8559 28.3003H46.2056C46.2056 28.0242 46.1511 27.8297 46.0461 27.7208C45.945 27.6158 45.7933 27.5574 45.6027 27.5574ZM49.4029 29.7862C49.294 29.8679 49.1656 29.9262 49.0178 29.969C48.87 30.0118 48.7144 30.0312 48.551 30.0312C48.341 30.0312 48.1621 29.9962 48.0182 29.9301C47.8742 29.864 47.7537 29.7667 47.6603 29.6423C47.567 29.5178 47.5008 29.3661 47.4581 29.1911C47.4153 29.016 47.3958 28.8215 47.3958 28.6076C47.3958 28.1486 47.497 27.7947 47.6992 27.5496C47.9015 27.3046 48.1932 27.1801 48.5744 27.1801C48.7494 27.1801 48.8972 27.1957 49.0178 27.2229C49.1384 27.2501 49.2512 27.289 49.3484 27.3396L49.2239 27.7169C49.1384 27.6702 49.0489 27.6313 48.9478 27.6041C48.8467 27.5769 48.7377 27.5613 48.6211 27.5613C48.1037 27.5613 47.847 27.9114 47.847 28.6076C47.847 28.7438 47.8626 28.876 47.8898 29.0005C47.917 29.1249 47.9637 29.2377 48.0259 29.3311C48.0882 29.4283 48.1737 29.5061 48.2749 29.5606C48.3799 29.6189 48.5044 29.6462 48.66 29.6462C48.7922 29.6462 48.9089 29.6267 49.01 29.5878C49.115 29.5489 49.1967 29.5022 49.2628 29.4517L49.4029 29.7862ZM51.9311 27.6235H50.7292V29.9651H50.2936V27.2424H52.3668V29.9651H51.9311V27.6235ZM55.4824 29.7473C55.3735 29.8329 55.2373 29.9029 55.0701 29.9534C54.9067 30.004 54.7278 30.0312 54.545 30.0312C54.3388 30.0312 54.1599 29.9962 54.0043 29.9301C53.8526 29.864 53.7281 29.7667 53.627 29.6423C53.5298 29.5178 53.4559 29.3661 53.4092 29.195C53.3625 29.0199 53.3392 28.8254 53.3392 28.6076C53.3392 28.1448 53.4442 27.7908 53.6504 27.5458C53.8565 27.3046 54.1521 27.1801 54.5372 27.1801C54.6617 27.1801 54.7822 27.1957 54.9067 27.2229C55.0312 27.2501 55.1401 27.3007 55.2373 27.3785C55.3346 27.4563 55.4163 27.5613 55.4785 27.7013C55.5407 27.8414 55.5718 28.0242 55.5718 28.2537C55.5718 28.3742 55.5602 28.5065 55.5407 28.6504H53.7943C53.7943 28.8099 53.8098 28.9499 53.8448 29.0744C53.876 29.1988 53.9265 29.3039 53.9965 29.3894C54.0665 29.475 54.156 29.5411 54.2649 29.5839C54.3738 29.6306 54.51 29.65 54.6694 29.65C54.7939 29.65 54.9145 29.6267 55.039 29.5839C55.1634 29.5411 55.2529 29.4906 55.3151 29.4322L55.4824 29.7473ZM54.545 27.5574C54.331 27.5574 54.1599 27.6119 54.0315 27.7247C53.9032 27.8375 53.8254 28.0281 53.7982 28.3003H55.1479C55.1479 28.0242 55.0934 27.8297 54.9884 27.7208C54.8873 27.6158 54.7356 27.5574 54.545 27.5574ZM56.5481 27.2424H56.8476L56.9293 27.5691H56.9527C57.0343 27.4407 57.1432 27.3435 57.2755 27.2774C57.4077 27.2112 57.5594 27.1762 57.7306 27.1762C58.0923 27.1762 58.3646 27.2851 58.5396 27.4991C58.7185 27.713 58.808 28.0631 58.808 28.5493C58.808 28.7788 58.7769 28.9849 58.7185 29.1677C58.6602 29.3505 58.5746 29.5061 58.4657 29.6345C58.3568 29.7628 58.2246 29.8601 58.0729 29.9301C57.9173 30.0001 57.7461 30.0351 57.5594 30.0351C57.4272 30.0351 57.3183 30.0273 57.2405 30.0118C57.1627 29.9962 57.0771 29.969 56.9877 29.9262V31.0581H56.552V27.2424H56.5481ZM57.6489 27.5574C57.4622 27.5574 57.3183 27.6041 57.2094 27.7013C57.1005 27.7986 57.0266 27.9425 56.9838 28.1409V29.4906C57.0499 29.5411 57.1238 29.58 57.2055 29.6073C57.291 29.6345 57.4 29.6462 57.5361 29.6462C57.785 29.6462 57.9834 29.5528 58.1312 29.3661C58.279 29.1794 58.3529 28.9032 58.3529 28.5415C58.3529 28.3937 58.3412 28.2576 58.314 28.137C58.2868 28.0164 58.2479 27.9114 58.1934 27.8258C58.139 27.7402 58.0651 27.6741 57.9756 27.6274C57.8901 27.5808 57.7811 27.5574 57.6489 27.5574ZM61.7719 29.7473C61.663 29.8329 61.5269 29.9029 61.3596 29.9534C61.1962 30.004 61.0173 30.0312 60.8345 30.0312C60.6284 30.0312 60.4494 29.9962 60.2938 29.9301C60.1421 29.864 60.0177 29.7667 59.9165 29.6423C59.8193 29.5178 59.7454 29.3661 59.6987 29.195C59.6521 29.0199 59.6287 28.8254 59.6287 28.6076C59.6287 28.1448 59.7337 27.7908 59.9399 27.5458C60.146 27.3046 60.4417 27.1801 60.8267 27.1801C60.9512 27.1801 61.0718 27.1957 61.1962 27.2229C61.3207 27.2501 61.4296 27.3007 61.5269 27.3785C61.6241 27.4563 61.7058 27.5613 61.768 27.7013C61.8303 27.8414 61.8614 28.0242 61.8614 28.2537C61.8614 28.3742 61.8497 28.5065 61.8303 28.6504H60.0838C60.0838 28.8099 60.0994 28.9499 60.1344 29.0744C60.1655 29.1988 60.2161 29.3039 60.2861 29.3894C60.3561 29.475 60.4455 29.5411 60.5545 29.5839C60.6634 29.6306 60.7995 29.65 60.959 29.65C61.0834 29.65 61.204 29.6267 61.3285 29.5839C61.453 29.5411 61.5424 29.4906 61.6047 29.4322L61.7719 29.7473ZM60.8345 27.5574C60.6206 27.5574 60.4494 27.6119 60.3211 27.7247C60.1927 27.8375 60.1149 28.0281 60.0877 28.3003H61.4374C61.4374 28.0242 61.3829 27.8297 61.2779 27.7208C61.1768 27.6158 61.0251 27.5574 60.8345 27.5574ZM63.0905 27.7286C63.2111 27.5535 63.3433 27.433 63.4872 27.3629C63.6312 27.2929 63.814 27.2579 64.0318 27.2579C64.3663 27.2579 64.623 27.3668 64.8019 27.5846C64.9809 27.8025 65.0703 28.1253 65.0703 28.5493C65.0703 29.0394 64.9653 29.4089 64.7553 29.6578C64.5452 29.9068 64.2574 30.0351 63.8801 30.0351C63.4795 30.0351 63.18 29.899 62.9816 29.6228C62.7832 29.3467 62.6821 28.9149 62.6821 28.3237C62.6821 28.0125 62.6976 27.7441 62.7288 27.5224C62.7599 27.3007 62.8066 27.114 62.8649 26.9623C62.9232 26.8106 62.9971 26.69 63.0827 26.5967C63.1683 26.5072 63.2655 26.4333 63.3705 26.3827C63.4795 26.3283 63.5961 26.2933 63.7206 26.27C63.849 26.2466 63.9851 26.2311 64.129 26.2155C64.3157 26.196 64.4635 26.1766 64.5724 26.1533C64.6775 26.1299 64.7669 26.0871 64.8292 26.0249L64.8797 26.4178C64.8447 26.4489 64.8019 26.4761 64.7591 26.4994C64.7164 26.5228 64.6619 26.5383 64.5997 26.5539C64.5374 26.5695 64.4635 26.5811 64.378 26.5928C64.2924 26.6045 64.1952 26.6122 64.0824 26.62C63.9268 26.6317 63.7906 26.6511 63.6701 26.6784C63.5534 26.7056 63.4522 26.7562 63.3667 26.8378C63.2811 26.9156 63.215 27.0284 63.1644 27.1685C63.1138 27.3124 63.0827 27.503 63.0633 27.7363H63.0905V27.7286ZM63.1372 28.6115C63.1372 28.7476 63.1527 28.8838 63.18 29.0083C63.2072 29.1366 63.2539 29.2455 63.3122 29.3428C63.3705 29.44 63.4483 29.5139 63.5417 29.5684C63.635 29.6228 63.7478 29.65 63.8723 29.65C64.1212 29.65 64.3079 29.5606 64.4285 29.3817C64.5491 29.2027 64.6113 28.9343 64.6113 28.5843C64.6113 28.4481 64.5997 28.3198 64.5724 28.2031C64.5452 28.0864 64.5063 27.9853 64.4519 27.8997C64.3974 27.8141 64.3274 27.748 64.2457 27.7052C64.164 27.6586 64.0629 27.6391 63.9462 27.6391C63.6623 27.6352 63.4561 27.7169 63.3239 27.888C63.2033 28.0514 63.1372 28.2926 63.1372 28.6115ZM65.8949 28.6037C65.8949 28.1448 65.996 27.7908 66.2022 27.5458C66.4083 27.3007 66.704 27.1762 67.0852 27.1762C67.2874 27.1762 67.4663 27.2112 67.6141 27.2774C67.7658 27.3435 67.8903 27.4407 67.9875 27.5652C68.0848 27.6897 68.1587 27.8414 68.2054 28.0164C68.252 28.1914 68.2754 28.3859 68.2754 28.5998C68.2754 29.0627 68.1742 29.4128 67.9681 29.6578C67.7619 29.9029 67.4663 30.0234 67.0852 30.0234C66.8829 30.0234 66.704 29.9884 66.5562 29.9223C66.4045 29.8562 66.28 29.759 66.1828 29.6345C66.0855 29.51 66.0116 29.3583 65.9649 29.1833C65.9183 29.0121 65.8949 28.8177 65.8949 28.6037ZM66.3461 28.6037C66.3461 28.7399 66.3617 28.876 66.3889 29.0005C66.4161 29.1288 66.4589 29.2377 66.5173 29.3311C66.5756 29.4244 66.6534 29.5022 66.7468 29.5606C66.8401 29.6189 66.9568 29.6462 67.089 29.6462C67.583 29.65 67.8281 29.3 67.8281 28.5998C67.8281 28.4598 67.8164 28.3237 67.7892 28.1953C67.7619 28.067 67.7192 27.958 67.6608 27.8647C67.6025 27.7713 67.5247 27.6936 67.4313 27.6391C67.338 27.5846 67.2213 27.5535 67.089 27.5535C66.5951 27.5574 66.3461 27.9036 66.3461 28.6037ZM70.9515 28.3548L70.967 28.0164H70.9515L70.7297 28.3665L69.5045 29.9651H69.2556V27.2424H69.6912V28.9032L69.6757 29.2261H69.699L69.9129 28.8877L71.1381 27.2424H71.3949V29.9651H70.9592V28.3548H70.9515ZM69.8818 26.1455C69.9168 26.3127 69.979 26.4294 70.0685 26.4956C70.158 26.5617 70.2591 26.5928 70.3758 26.5928C70.4925 26.5928 70.5936 26.5578 70.6869 26.4878C70.7764 26.4178 70.8386 26.305 70.8737 26.1494L71.2004 26.2544C71.1693 26.4644 71.0759 26.6278 70.9203 26.7406C70.7647 26.8534 70.5819 26.9079 70.368 26.9079C70.2708 26.9079 70.1735 26.8962 70.0763 26.869C69.979 26.8417 69.8935 26.8067 69.8196 26.7562C69.7418 26.7056 69.6795 26.6395 69.6251 26.5617C69.5706 26.4839 69.5356 26.3866 69.5162 26.2777L69.8818 26.1455ZM74.1837 28.7632H72.9546V29.9651H72.519V27.2424H72.9546V28.3781H74.1837V27.2424H74.6194V29.9651H74.1837V28.7632ZM75.5918 28.6037C75.5918 28.1448 75.6929 27.7908 75.8991 27.5458C76.1052 27.3007 76.4008 27.1762 76.782 27.1762C76.9843 27.1762 77.1632 27.2112 77.311 27.2774C77.4627 27.3435 77.5872 27.4407 77.6844 27.5652C77.7816 27.6897 77.8555 27.8414 77.9022 28.0164C77.9489 28.1914 77.9722 28.3859 77.9722 28.5998C77.9722 29.0627 77.8711 29.4128 77.665 29.6578C77.4588 29.9029 77.1632 30.0234 76.782 30.0234C76.5797 30.0234 76.4008 29.9884 76.253 29.9223C76.1013 29.8562 75.9769 29.759 75.8796 29.6345C75.7824 29.51 75.7085 29.3583 75.6618 29.1833C75.619 29.0121 75.5918 28.8177 75.5918 28.6037ZM76.0469 28.6037C76.0469 28.7399 76.0624 28.876 76.0897 29.0005C76.1169 29.1288 76.1597 29.2377 76.218 29.3311C76.2764 29.4244 76.3541 29.5022 76.4475 29.5606C76.5408 29.6189 76.6575 29.6462 76.7898 29.6462C77.2838 29.65 77.5288 29.3 77.5288 28.5998C77.5288 28.4598 77.5172 28.3237 77.4899 28.1953C77.4627 28.067 77.4199 27.958 77.3616 27.8647C77.3032 27.7713 77.2293 27.6936 77.1321 27.6391C77.0387 27.5846 76.922 27.5535 76.7898 27.5535C76.2919 27.5574 76.0469 27.9036 76.0469 28.6037ZM80.94 29.7473C80.8311 29.8329 80.695 29.9029 80.5277 29.9534C80.3644 30.004 80.1854 30.0312 80.0026 30.0312C79.7965 30.0312 79.6175 29.9962 79.462 29.9301C79.3103 29.864 79.1858 29.7667 79.0847 29.6423C78.9874 29.5178 78.9135 29.3661 78.8668 29.195C78.8202 29.0199 78.7968 28.8254 78.7968 28.6076C78.7968 28.1448 78.9019 27.7908 79.108 27.5458C79.3142 27.3046 79.6098 27.1801 79.9949 27.1801C80.1193 27.1801 80.2399 27.1957 80.3644 27.2229C80.4888 27.2501 80.5977 27.3007 80.695 27.3785C80.7922 27.4563 80.8739 27.5613 80.9361 27.7013C80.9984 27.8414 81.0295 28.0242 81.0295 28.2537C81.0295 28.3742 81.0178 28.5065 80.9984 28.6504H79.2519C79.2519 28.8099 79.2675 28.9499 79.3025 29.0744C79.3336 29.1988 79.3842 29.3039 79.4542 29.3894C79.5242 29.475 79.6137 29.5411 79.7226 29.5839C79.8354 29.6306 79.9676 29.65 80.1271 29.65C80.2516 29.65 80.376 29.6267 80.4966 29.5839C80.6211 29.5411 80.7105 29.4906 80.7728 29.4322L80.94 29.7473ZM80.0026 27.5574C79.7887 27.5574 79.6175 27.6119 79.4892 27.7247C79.3608 27.8375 79.283 28.0281 79.2558 28.3003H80.6055C80.6055 28.0242 80.5511 27.8297 80.446 27.7208C80.3449 27.6158 80.1971 27.5574 80.0026 27.5574ZM83.7017 28.4131H84.8569C84.8374 28.1564 84.7635 27.9503 84.6313 27.7908C84.499 27.6352 84.3123 27.5574 84.0673 27.5574C83.9195 27.5574 83.7872 27.5769 83.6783 27.6158C83.5694 27.6547 83.48 27.7013 83.4099 27.748L83.2582 27.4174C83.371 27.3396 83.4994 27.2813 83.6433 27.2385C83.7872 27.1957 83.9584 27.1762 84.149 27.1762C84.5535 27.1762 84.8452 27.3007 85.0319 27.5535C85.2186 27.8025 85.3081 28.1525 85.3081 28.6037C85.3081 29.0666 85.1992 29.4206 84.9852 29.6656C84.7713 29.9106 84.4718 30.0312 84.0906 30.0312C83.9195 30.0312 83.7639 30.0196 83.62 29.9923C83.4761 29.9651 83.3555 29.9223 83.2582 29.8679L83.3827 29.4983C83.4644 29.545 83.5694 29.5839 83.69 29.6111C83.8106 29.6384 83.9312 29.65 84.0478 29.65C84.5574 29.6539 84.8258 29.3622 84.8569 28.7749H83.6978V28.4131H83.7017ZM87.9491 28.7632H86.72V29.9651H86.2844V27.2424H86.72V28.3781H87.9491V27.2424H88.3848V29.9651H87.9491V28.7632ZM91.5004 29.7473C91.3915 29.8329 91.2553 29.9029 91.0881 29.9534C90.9247 30.004 90.7497 30.0312 90.563 30.0312C90.3568 30.0312 90.1779 29.9962 90.0223 29.9301C89.8706 29.864 89.7462 29.7667 89.645 29.6423C89.5478 29.5178 89.4739 29.3661 89.4272 29.195C89.3805 29.0199 89.3572 28.8254 89.3572 28.6076C89.3572 28.1448 89.4622 27.7908 89.6684 27.5458C89.8745 27.3046 90.1701 27.1801 90.5552 27.1801C90.6797 27.1801 90.8002 27.1957 90.9247 27.2229C91.0492 27.2501 91.1581 27.3007 91.2553 27.3785C91.3526 27.4563 91.4343 27.5613 91.4965 27.7013C91.5587 27.8414 91.5898 28.0242 91.5898 28.2537C91.5898 28.3742 91.5782 28.5065 91.5587 28.6504H89.8123C89.8123 28.8099 89.8278 28.9499 89.8629 29.0744C89.894 29.1988 89.9445 29.3039 90.0145 29.3894C90.0846 29.475 90.174 29.5411 90.2829 29.5839C90.3957 29.6306 90.528 29.65 90.6875 29.65C90.8119 29.65 90.9325 29.6267 91.057 29.5839C91.1814 29.5411 91.2709 29.4906 91.3331 29.4322L91.5004 29.7473ZM90.563 27.5574C90.349 27.5574 90.1779 27.6119 90.0495 27.7247C89.9212 27.8375 89.8434 28.0281 89.8162 28.3003H91.1659C91.1659 28.0242 91.1114 27.8297 91.0064 27.7208C90.9053 27.6158 90.7536 27.5574 90.563 27.5574ZM92.5661 27.2424H92.8656L92.9473 27.5691H92.9707C93.0523 27.4407 93.1613 27.3435 93.2935 27.2774C93.4258 27.2112 93.5774 27.1762 93.7486 27.1762C94.1103 27.1762 94.3826 27.2851 94.5576 27.4991C94.7366 27.713 94.826 28.0631 94.826 28.5493C94.826 28.7788 94.7949 28.9849 94.7366 29.1677C94.6782 29.3505 94.5926 29.5061 94.4837 29.6345C94.3748 29.7628 94.2426 29.8601 94.0909 29.9301C93.9353 30.0001 93.7641 30.0351 93.5774 30.0351C93.4452 30.0351 93.3363 30.0273 93.2585 30.0118C93.1807 29.9962 93.0951 29.969 93.0057 29.9262V31.0581H92.57V27.2424H92.5661ZM93.6669 27.5574C93.4802 27.5574 93.3363 27.6041 93.2274 27.7013C93.1185 27.7986 93.0446 27.9425 93.0018 28.1409V29.4906C93.0679 29.5411 93.1418 29.58 93.2235 29.6073C93.3052 29.6345 93.418 29.6462 93.5541 29.6462C93.803 29.6462 94.0014 29.5528 94.1492 29.3661C94.297 29.1794 94.3709 28.9032 94.3709 28.5415C94.3709 28.3937 94.3593 28.2576 94.332 28.137C94.3048 28.0164 94.2659 27.9114 94.2115 27.8258C94.157 27.7402 94.0831 27.6741 93.9936 27.6274C93.9081 27.5808 93.7992 27.5574 93.6669 27.5574ZM97.3932 27.6235H96.238V29.9651H95.8023V27.2424H97.3932V27.6235ZM97.8599 28.6037C97.8599 28.1448 97.9611 27.7908 98.1672 27.5458C98.3734 27.3007 98.669 27.1762 99.0502 27.1762C99.2524 27.1762 99.4313 27.2112 99.5791 27.2774C99.7308 27.3435 99.8553 27.4407 99.9526 27.5652C100.05 27.6897 100.124 27.8414 100.17 28.0164C100.217 28.1914 100.24 28.3859 100.24 28.5998C100.24 29.0627 100.139 29.4128 99.9331 29.6578C99.727 29.9029 99.4313 30.0234 99.0502 30.0234C98.8479 30.0234 98.669 29.9884 98.5212 29.9223C98.3695 29.8562 98.245 29.759 98.1478 29.6345C98.0505 29.51 97.9766 29.3583 97.9299 29.1833C97.8872 29.0121 97.8599 28.8177 97.8599 28.6037ZM98.315 28.6037C98.315 28.7399 98.3306 28.876 98.3578 29.0005C98.385 29.1288 98.4278 29.2377 98.4862 29.3311C98.5445 29.4244 98.6223 29.5022 98.7156 29.5606C98.809 29.6189 98.9257 29.6462 99.0579 29.6462C99.5519 29.65 99.797 29.3 99.797 28.5998C99.797 28.4598 99.7853 28.3237 99.7581 28.1953C99.7309 28.067 99.6881 27.958 99.6297 27.8647C99.5714 27.7713 99.4975 27.6936 99.4002 27.6391C99.3069 27.5846 99.1902 27.5535 99.0579 27.5535C98.5601 27.5574 98.315 27.9036 98.315 28.6037ZM103.076 29.7862C102.967 29.8679 102.839 29.9262 102.691 29.969C102.543 30.0118 102.387 30.0312 102.224 30.0312C102.014 30.0312 101.835 29.9962 101.691 29.9301C101.547 29.864 101.427 29.7667 101.333 29.6423C101.24 29.5178 101.174 29.3661 101.131 29.1911C101.088 29.016 101.069 28.8215 101.069 28.6076C101.069 28.1486 101.17 27.7947 101.372 27.5496C101.575 27.3046 101.866 27.1801 102.247 27.1801C102.422 27.1801 102.57 27.1957 102.691 27.2229C102.811 27.2501 102.924 27.289 103.021 27.3396L102.897 27.7169C102.815 27.6702 102.722 27.6313 102.621 27.6041C102.52 27.5769 102.411 27.5613 102.294 27.5613C101.781 27.5613 101.52 27.9114 101.52 28.6076C101.52 28.7438 101.536 28.876 101.563 29.0005C101.59 29.1249 101.637 29.2377 101.699 29.3311C101.761 29.4283 101.847 29.5061 101.948 29.5606C102.053 29.6189 102.177 29.6462 102.333 29.6462C102.465 29.6462 102.582 29.6267 102.683 29.5878C102.788 29.5489 102.87 29.5022 102.936 29.4517L103.076 29.7862ZM105.631 28.7632H104.402V29.9651H103.967V27.2424H104.402V28.3781H105.631V27.2424H106.067V29.9651H105.631V28.7632ZM107.152 27.4446C107.288 27.3629 107.452 27.3007 107.635 27.2579C107.817 27.219 108.008 27.1996 108.21 27.1996C108.401 27.1996 108.549 27.2268 108.665 27.2774C108.778 27.3279 108.868 27.3941 108.926 27.4757C108.984 27.5574 109.027 27.6469 109.047 27.7441C109.066 27.8414 109.078 27.9386 109.078 28.0397C109.078 28.2576 109.074 28.4715 109.062 28.6776C109.05 28.8838 109.047 29.0822 109.047 29.265C109.047 29.4011 109.05 29.5256 109.062 29.6462C109.074 29.7667 109.093 29.8756 109.12 29.9768H108.798L108.685 29.5956H108.658C108.626 29.6462 108.584 29.6967 108.533 29.7473C108.483 29.7979 108.424 29.8406 108.358 29.8795C108.288 29.9184 108.21 29.9495 108.117 29.9729C108.027 30.0001 107.922 30.0118 107.806 30.0118C107.689 30.0118 107.58 29.9923 107.483 29.9573C107.382 29.9223 107.296 29.8679 107.226 29.8017C107.152 29.7356 107.098 29.6539 107.055 29.5606C107.012 29.4672 106.993 29.3583 106.993 29.2377C106.993 29.0783 107.024 28.946 107.09 28.8371C107.156 28.7282 107.246 28.6465 107.366 28.5804C107.483 28.5182 107.627 28.4715 107.79 28.4443C107.954 28.417 108.136 28.4054 108.339 28.4054C108.389 28.4054 108.44 28.4054 108.486 28.4054C108.537 28.4054 108.584 28.4092 108.638 28.417C108.65 28.3081 108.654 28.2109 108.654 28.1214C108.654 27.923 108.615 27.783 108.533 27.7013C108.451 27.6235 108.307 27.5808 108.097 27.5808C108.035 27.5808 107.969 27.5846 107.899 27.5924C107.829 27.6002 107.755 27.6158 107.681 27.6313C107.607 27.6469 107.537 27.6663 107.467 27.6897C107.401 27.713 107.343 27.7402 107.292 27.7675L107.152 27.4446ZM107.926 29.6267C108.027 29.6267 108.117 29.6111 108.199 29.5839C108.28 29.5567 108.346 29.5217 108.405 29.4789C108.463 29.4361 108.51 29.3894 108.549 29.3389C108.588 29.2883 108.615 29.2377 108.634 29.1911V28.7399C108.584 28.736 108.533 28.7321 108.479 28.7321C108.428 28.7321 108.374 28.7282 108.323 28.7282C108.21 28.7282 108.101 28.736 107.992 28.7476C107.887 28.7593 107.79 28.7827 107.708 28.8177C107.627 28.8527 107.561 28.8993 107.514 28.9577C107.463 29.016 107.44 29.0938 107.44 29.1833C107.44 29.3116 107.487 29.4128 107.576 29.4945C107.67 29.5878 107.782 29.6267 107.926 29.6267ZM110.435 27.7286C110.556 27.5535 110.688 27.433 110.832 27.3629C110.976 27.2929 111.159 27.2579 111.376 27.2579C111.711 27.2579 111.968 27.3668 112.147 27.5846C112.325 27.8025 112.415 28.1253 112.415 28.5493C112.415 29.0394 112.31 29.4089 112.1 29.6578C111.89 29.9068 111.602 30.0351 111.225 30.0351C110.824 30.0351 110.525 29.899 110.326 29.6228C110.128 29.3467 110.027 28.9149 110.027 28.3237C110.027 28.0125 110.042 27.7441 110.073 27.5224C110.105 27.3007 110.151 27.114 110.21 26.9623C110.268 26.8106 110.342 26.69 110.427 26.5967C110.513 26.5072 110.61 26.4333 110.715 26.3827C110.824 26.3283 110.941 26.2933 111.065 26.27C111.194 26.2466 111.33 26.2311 111.474 26.2155C111.66 26.196 111.808 26.1766 111.917 26.1533C112.022 26.1299 112.112 26.0871 112.174 26.0249L112.224 26.4178C112.189 26.4489 112.147 26.4761 112.104 26.4994C112.061 26.5228 112.007 26.5383 111.944 26.5539C111.882 26.5695 111.808 26.5811 111.723 26.5928C111.637 26.6045 111.54 26.6122 111.427 26.62C111.271 26.6317 111.135 26.6511 111.015 26.6784C110.898 26.7056 110.797 26.7562 110.711 26.8378C110.626 26.9156 110.56 27.0284 110.509 27.1685C110.458 27.3124 110.427 27.503 110.408 27.7363H110.435V27.7286ZM110.486 28.6115C110.486 28.7476 110.501 28.8838 110.528 29.0083C110.556 29.1366 110.602 29.2455 110.661 29.3428C110.719 29.44 110.797 29.5139 110.89 29.5684C110.984 29.6228 111.096 29.65 111.221 29.65C111.47 29.65 111.656 29.5606 111.777 29.3817C111.898 29.2027 111.96 28.9343 111.96 28.5843C111.96 28.4481 111.948 28.3198 111.921 28.2031C111.894 28.0864 111.855 27.9853 111.8 27.8997C111.746 27.8141 111.676 27.748 111.594 27.7052C111.513 27.6586 111.411 27.6391 111.295 27.6391C111.011 27.6352 110.805 27.7169 110.672 27.888C110.552 28.0514 110.486 28.2926 110.486 28.6115ZM114.247 28.7632L113.446 29.9651H112.944L113.804 28.7204L113.99 28.5571L113.714 28.3509L113.006 27.2462H113.469L114.22 28.4209H114.504V27.2462H114.928V28.4754L115.184 28.3976L115.943 27.2424H116.398L115.659 28.347L115.445 28.522L115.721 28.7399L116.526 29.9651H116.009L115.208 28.7399H114.924V29.9651H114.5V28.6854L114.247 28.7632ZM119.187 29.7473C119.078 29.8329 118.942 29.9029 118.775 29.9534C118.611 30.004 118.432 30.0312 118.249 30.0312C118.043 30.0312 117.864 29.9962 117.709 29.9301C117.557 29.864 117.433 29.7667 117.331 29.6423C117.234 29.5178 117.16 29.3661 117.114 29.195C117.067 29.0199 117.044 28.8254 117.044 28.6076C117.044 28.1448 117.149 27.7908 117.355 27.5458C117.561 27.3046 117.857 27.1801 118.242 27.1801C118.366 27.1801 118.487 27.1957 118.611 27.2229C118.736 27.2501 118.845 27.3007 118.942 27.3785C119.039 27.4563 119.121 27.5613 119.183 27.7013C119.245 27.8414 119.276 28.0242 119.276 28.2537C119.276 28.3742 119.265 28.5065 119.245 28.6504H117.499C117.499 28.8099 117.514 28.9499 117.549 29.0744C117.58 29.1988 117.631 29.3039 117.701 29.3894C117.771 29.475 117.86 29.5411 117.969 29.5839C118.078 29.6306 118.214 29.65 118.374 29.65C118.498 29.65 118.623 29.6267 118.743 29.5839C118.868 29.5411 118.957 29.4906 119.02 29.4322L119.187 29.7473ZM118.249 27.5574C118.035 27.5574 117.864 27.6119 117.736 27.7247C117.608 27.8375 117.53 28.0281 117.503 28.3003H118.852C118.852 28.0242 118.798 27.8297 118.693 27.7208C118.592 27.6158 118.444 27.5574 118.249 27.5574ZM121.921 28.7632H120.692V29.9651H120.256V27.2424H120.692V28.3781H121.921V27.2424H122.357V29.9651H121.921V28.7632ZM125.185 28.3548L125.2 28.0164H125.185L124.963 28.3665L123.738 29.9651H123.489V27.2424H123.924V28.9032L123.909 29.2261H123.932L124.146 28.8877L125.371 27.2424H125.628V29.9651H125.192V28.3548H125.185ZM128.732 29.7473C128.623 29.8329 128.487 29.9029 128.32 29.9534C128.156 30.004 127.977 30.0312 127.795 30.0312C127.588 30.0312 127.409 29.9962 127.254 29.9301C127.102 29.864 126.978 29.7667 126.877 29.6423C126.779 29.5178 126.705 29.3661 126.659 29.195C126.612 29.0199 126.589 28.8254 126.589 28.6076C126.589 28.1448 126.694 27.7908 126.9 27.5458C127.106 27.3046 127.402 27.1801 127.787 27.1801C127.911 27.1801 128.032 27.1957 128.156 27.2229C128.281 27.2501 128.39 27.3007 128.487 27.3785C128.584 27.4563 128.666 27.5613 128.728 27.7013C128.79 27.8414 128.821 28.0242 128.821 28.2537C128.821 28.3742 128.81 28.5065 128.79 28.6504H127.044C127.044 28.8099 127.059 28.9499 127.094 29.0744C127.126 29.1988 127.176 29.3039 127.246 29.3894C127.316 29.475 127.406 29.5411 127.515 29.5839C127.623 29.6306 127.76 29.65 127.919 29.65C128.043 29.65 128.168 29.6267 128.289 29.5839C128.413 29.5411 128.502 29.4906 128.565 29.4322L128.732 29.7473ZM127.798 27.5574C127.585 27.5574 127.413 27.6119 127.285 27.7247C127.157 27.8375 127.079 28.0281 127.052 28.3003H128.401C128.401 28.0242 128.347 27.8297 128.242 27.7208C128.137 27.6158 127.989 27.5574 127.798 27.5574Z" fill="#EF7D00"/>
    <path fill-rule="evenodd" clip-rule="evenodd" d="M35.8241 6.84864C36.742 10.1782 36.1936 12.7492 34.8127 16.0282C33.6886 18.7004 31.9539 21.3414 29.7601 23.7491L31.2537 25.0444L25.5165 26.6858L26.8273 21.2131L28.0837 22.3022C29.589 20.7074 30.9464 18.9921 31.95 17.1484C33.3347 14.6007 33.957 11.8002 33.3541 9.1552C32.7551 6.51025 30.5108 4.89216 27.613 4.33983C25.0186 3.84585 21.8758 4.28538 18.7369 5.86068C17.3172 6.57637 15.9908 7.43598 14.785 8.39672C15.279 8.08555 15.7885 7.79383 16.3136 7.53322C18.8575 6.2652 21.3196 5.83345 23.2683 6.24186C25.3959 6.68917 26.9985 8.54453 27.2591 10.5438C27.5197 12.5431 27.0918 13.92 26.2594 15.7131C25.5632 17.2145 24.548 18.6926 23.3033 20.0384L24.2213 20.8319L20.8256 21.8043L21.5997 18.5642L22.467 19.3149C24.4313 17.0862 26.1427 14.1923 25.9016 11.8429C25.5399 8.39672 21.798 7.48655 17.8189 9.34968C16.7843 9.83589 15.8197 10.4699 14.9562 11.1895C15.314 10.96 15.6757 10.7577 16.053 10.5788C19.0558 9.17853 21.7436 10.4115 21.8369 12.5975C21.9225 14.5851 21.0357 16.0982 19.612 17.5801L20.2461 18.1286L17.9745 18.7782L18.4918 16.6116L19.1142 17.1523C20.1877 15.9465 21.1601 14.554 21.1173 13.2938C21.059 11.3684 19.1297 10.7422 16.9088 11.7379C15.9013 12.193 14.9873 12.9126 14.2833 13.7294C13.941 13.4299 13.6026 13.1343 13.2758 12.8426C13.2175 12.7881 13.1591 12.7414 13.0969 12.687C12.5913 12.2513 12.109 11.8274 11.6461 11.419C11.5488 11.3334 11.4516 11.2439 11.3544 11.1622C10.4948 10.4115 9.68571 9.70364 8.92334 9.03851C11.0393 6.87976 13.5676 4.91939 16.3759 3.39854C20.3277 1.25924 24.3107 0.263496 27.6753 0.547439C31.5454 0.866389 34.9061 3.51912 35.8241 6.84864Z" fill="url(#paint1_linear_256_11623)"/>
    <path fill-rule="evenodd" clip-rule="evenodd" d="M0.288359 23.3446C0.945707 20.4196 1.67307 19.0777 2.8633 17.0668C3.91739 15.2853 5.23597 13.5466 6.7257 11.9519L6.01779 11.3412L8.28545 10.6917L7.76813 12.8582L7.29748 12.4498C6.15781 13.6517 5.06483 14.9313 4.15466 16.3161C3.11223 17.903 2.28763 19.6184 1.84421 21.7421C1.40079 23.8658 1.88311 25.9935 3.21336 27.3704C4.68753 28.8951 7.18857 29.6108 10.4325 28.5762C12.0778 28.055 13.7115 27.207 15.2557 26.1102C14.6139 26.4291 13.9604 26.6975 13.307 26.9075C10.3547 27.8644 7.97817 27.5143 6.51177 26.3085C5.16985 25.2039 4.6642 22.8973 4.97148 21.0809C5.27487 19.2644 5.73384 18.3581 6.48454 17.0434C7.11078 15.9543 7.90037 14.8808 8.80666 13.8889L8.26211 13.4183L10.2536 12.8465L9.79852 14.7485L9.23063 14.2546C7.75645 15.9232 6.29007 18.1209 5.98279 20.0462C5.47325 23.3174 7.88481 25.1339 11.6967 23.7258C12.8052 23.3213 13.8904 22.6834 14.89 21.9016C14.4777 22.135 14.0538 22.3294 13.6259 22.4928C10.4831 23.6636 8.42158 21.6954 8.67441 19.5911C8.88445 17.8214 9.56514 16.74 10.5764 15.6354L10.1408 15.2581L11.8678 14.7641L11.4711 16.4133L10.9265 15.9427C10.1136 16.8995 9.394 17.973 9.27731 18.9921C9.07116 20.8514 10.5726 21.7771 12.7352 20.9214C13.7932 20.5052 14.7889 19.7506 15.5552 18.856C15.9791 19.2294 16.4109 19.6184 16.8582 20.0112C16.9399 20.089 17.0255 20.1629 17.111 20.2329C17.8501 20.8864 18.6241 21.5748 19.4331 22.2944C19.6082 22.45 19.7832 22.6095 19.966 22.769C21.7241 24.3287 23.6378 26.0285 25.7577 27.9111C22.0548 31.4156 17.6478 33.975 13.2292 35.0213C8.03262 36.2465 4.11965 35.0213 1.92979 32.4697C0.0549816 30.2721 -0.365099 26.2657 0.288359 23.3446Z" fill="#3C3C3B"/>
    <path d="M55.6417 18.0742C55.6417 19.9801 54.7666 21.4271 53.0162 22.4112C51.6315 23.1969 50.0173 23.5897 48.1698 23.5897C45.9566 23.5897 44.1518 23.0802 42.7476 22.065C41.3434 21.0498 40.6433 19.7118 40.6433 18.0509C40.6433 16.3278 41.4018 14.9586 42.9226 13.9434C44.3268 13.006 46.0771 12.5354 48.1736 12.5354C50.1146 12.5354 51.7716 12.9438 53.1368 13.7567C54.8055 14.7564 55.6417 16.1955 55.6417 18.0742ZM51.1726 17.9809C51.1726 16.8879 50.9314 16.0399 50.453 15.4293C49.9707 14.8225 49.2122 14.5191 48.1736 14.5191C47.2129 14.5191 46.4622 14.8108 45.9254 15.3943C45.3887 15.9777 45.1164 16.8645 45.1164 18.047C45.1164 19.3072 45.4237 20.2407 46.0382 20.8398C46.5556 21.3493 47.2674 21.6021 48.1736 21.6021C49.1538 21.6021 49.9006 21.2909 50.4102 20.6686C50.9158 20.0463 51.1726 19.1517 51.1726 17.9809ZM57.3454 12.7415H70.5585V23.3797H66.3771V15.2776H61.5306V23.3797H57.3493V12.7415H57.3454ZM83.5693 15.0286H79.6447V23.3836H75.4633V15.0286H71.4842V12.7454H83.5693V15.0286ZM97.8209 12.7415V23.3797H93.6396V17.518L88.2447 23.3797H84.4095V12.7415H88.5908V18.5799L93.9546 12.7415H97.8209ZM100.19 12.7415V23.3797H104.371V17.3119L107.456 20.3808H107.918L111.003 17.1018V23.3797H115.184V12.7415H111.349L107.685 16.5262L104.021 12.7415H100.19ZM131.143 20.7503V22.6212C130.548 22.8974 129.883 23.1307 129.152 23.3136C128.421 23.4964 127.779 23.5897 127.219 23.5897C125.931 23.5897 125.153 23.1891 124.881 22.3878C124.111 22.804 123.372 23.1074 122.66 23.298C121.948 23.4886 121.229 23.5858 120.498 23.5858C119.44 23.5858 118.557 23.3252 117.845 22.8001C117.133 22.275 116.779 21.6682 116.779 20.9759C116.779 19.6067 117.751 18.5838 119.692 17.907C120.501 17.6308 122.162 17.1757 124.683 16.5456C124.683 15.9933 124.527 15.5693 124.22 15.2776C123.854 14.9392 123.24 14.768 122.372 14.768C121.544 14.768 120.684 14.9314 119.79 15.2542C118.895 15.5771 118.121 16.0088 117.467 16.5456V13.8229C119.218 12.9594 121.139 12.5315 123.236 12.5315C125.006 12.5315 126.386 12.7882 127.374 13.3055C128.366 13.819 128.86 14.6397 128.86 15.7638V20.6103C128.86 21.1042 129.09 21.3493 129.553 21.3493C129.728 21.3493 129.926 21.3104 130.159 21.2326C130.393 21.1587 130.719 20.9953 131.143 20.7503ZM124.683 20.797V18.2337C122.24 18.9416 121.019 19.6884 121.019 20.4741C121.019 20.797 121.143 21.0654 121.392 21.2832C121.641 21.4971 121.968 21.606 122.372 21.606C123.181 21.606 123.951 21.3337 124.683 20.797Z" fill="#3C3C3B"/>
    <path d="M41.5925 27.7286C41.7131 27.5535 41.8453 27.433 41.9892 27.3629C42.1331 27.2929 42.316 27.2579 42.5338 27.2579C42.8683 27.2579 43.125 27.3668 43.3039 27.5846C43.4828 27.8025 43.5723 28.1253 43.5723 28.5493C43.5723 29.0394 43.4673 29.4089 43.2573 29.6578C43.0472 29.9068 42.7594 30.0351 42.3821 30.0351C41.9815 30.0351 41.682 29.899 41.4836 29.6228C41.2852 29.3467 41.1841 28.9149 41.1841 28.3237C41.1841 28.0125 41.1996 27.7441 41.2308 27.5224C41.2619 27.3007 41.3086 27.114 41.3669 26.9623C41.4252 26.8106 41.4991 26.69 41.5847 26.5967C41.6703 26.5072 41.7675 26.4333 41.8725 26.3827C41.9815 26.3283 42.0981 26.2933 42.2226 26.27C42.351 26.2466 42.4871 26.2311 42.631 26.2155C42.8177 26.196 42.9655 26.1766 43.0744 26.1533C43.1795 26.1299 43.2689 26.0871 43.3312 26.0249L43.3817 26.4178C43.3467 26.4489 43.3039 26.4761 43.2611 26.4994C43.2184 26.5228 43.1639 26.5383 43.1017 26.5539C43.0394 26.5695 42.9655 26.5811 42.88 26.5928C42.7944 26.6045 42.6971 26.6122 42.5843 26.62C42.4288 26.6317 42.2926 26.6511 42.172 26.6784C42.0554 26.7056 41.9542 26.7562 41.8686 26.8378C41.7831 26.9156 41.717 27.0284 41.6664 27.1685C41.6158 27.3124 41.5847 27.503 41.5653 27.7363H41.5925V27.7286ZM41.6431 28.6115C41.6431 28.7476 41.6586 28.8838 41.6858 29.0083C41.7131 29.1366 41.7597 29.2455 41.8181 29.3428C41.8764 29.44 41.9542 29.5139 42.0476 29.5684C42.1409 29.6228 42.2537 29.65 42.3782 29.65C42.6271 29.65 42.8138 29.5606 42.9344 29.3817C43.055 29.2027 43.1172 28.9343 43.1172 28.5843C43.1172 28.4481 43.1056 28.3198 43.0783 28.2031C43.0511 28.0864 43.0122 27.9853 42.9578 27.8997C42.9033 27.8141 42.8333 27.748 42.7516 27.7052C42.6699 27.6586 42.5688 27.6391 42.4521 27.6391C42.1682 27.6352 41.962 27.7169 41.8298 27.888C41.7092 28.0514 41.6431 28.2926 41.6431 28.6115ZM46.5401 29.7473C46.4312 29.8329 46.2951 29.9029 46.1278 29.9534C45.9644 30.004 45.7894 30.0312 45.6027 30.0312C45.3966 30.0312 45.2176 29.9962 45.062 29.9301C44.9104 29.864 44.7859 29.7667 44.6848 29.6423C44.5875 29.5178 44.5136 29.3661 44.4669 29.195C44.4202 29.0199 44.3969 28.8254 44.3969 28.6076C44.3969 28.1448 44.5019 27.7908 44.7081 27.5458C44.9142 27.3046 45.2099 27.1801 45.5949 27.1801C45.7194 27.1801 45.84 27.1957 45.9644 27.2229C46.0889 27.2501 46.1978 27.3007 46.2951 27.3785C46.3923 27.4563 46.474 27.5613 46.5362 27.7013C46.5984 27.8414 46.6296 28.0242 46.6296 28.2537C46.6296 28.3742 46.6179 28.5065 46.5984 28.6504H44.852C44.852 28.8099 44.8676 28.9499 44.9026 29.0744C44.9337 29.1988 44.9842 29.3039 45.0543 29.3894C45.1243 29.475 45.2137 29.5411 45.3226 29.5839C45.4316 29.6306 45.5677 29.65 45.7272 29.65C45.8516 29.65 45.9722 29.6267 46.0967 29.5839C46.2211 29.5411 46.3106 29.4906 46.3729 29.4322L46.5401 29.7473ZM45.6027 27.5574C45.3888 27.5574 45.2176 27.6119 45.0893 27.7247C44.9609 27.8375 44.8831 28.0281 44.8559 28.3003H46.2056C46.2056 28.0242 46.1511 27.8297 46.0461 27.7208C45.945 27.6158 45.7933 27.5574 45.6027 27.5574ZM49.4029 29.7862C49.294 29.8679 49.1656 29.9262 49.0178 29.969C48.87 30.0118 48.7144 30.0312 48.551 30.0312C48.341 30.0312 48.1621 29.9962 48.0182 29.9301C47.8742 29.864 47.7537 29.7667 47.6603 29.6423C47.567 29.5178 47.5008 29.3661 47.4581 29.1911C47.4153 29.016 47.3958 28.8215 47.3958 28.6076C47.3958 28.1486 47.497 27.7947 47.6992 27.5496C47.9015 27.3046 48.1932 27.1801 48.5744 27.1801C48.7494 27.1801 48.8972 27.1957 49.0178 27.2229C49.1384 27.2501 49.2512 27.289 49.3484 27.3396L49.2239 27.7169C49.1384 27.6702 49.0489 27.6313 48.9478 27.6041C48.8467 27.5769 48.7377 27.5613 48.6211 27.5613C48.1037 27.5613 47.847 27.9114 47.847 28.6076C47.847 28.7438 47.8626 28.876 47.8898 29.0005C47.917 29.1249 47.9637 29.2377 48.0259 29.3311C48.0882 29.4283 48.1737 29.5061 48.2749 29.5606C48.3799 29.6189 48.5044 29.6462 48.66 29.6462C48.7922 29.6462 48.9089 29.6267 49.01 29.5878C49.115 29.5489 49.1967 29.5022 49.2628 29.4517L49.4029 29.7862ZM51.9311 27.6235H50.7292V29.9651H50.2936V27.2424H52.3668V29.9651H51.9311V27.6235ZM55.4824 29.7473C55.3735 29.8329 55.2373 29.9029 55.0701 29.9534C54.9067 30.004 54.7278 30.0312 54.545 30.0312C54.3388 30.0312 54.1599 29.9962 54.0043 29.9301C53.8526 29.864 53.7281 29.7667 53.627 29.6423C53.5298 29.5178 53.4559 29.3661 53.4092 29.195C53.3625 29.0199 53.3392 28.8254 53.3392 28.6076C53.3392 28.1448 53.4442 27.7908 53.6504 27.5458C53.8565 27.3046 54.1521 27.1801 54.5372 27.1801C54.6617 27.1801 54.7822 27.1957 54.9067 27.2229C55.0312 27.2501 55.1401 27.3007 55.2373 27.3785C55.3346 27.4563 55.4163 27.5613 55.4785 27.7013C55.5407 27.8414 55.5718 28.0242 55.5718 28.2537C55.5718 28.3742 55.5602 28.5065 55.5407 28.6504H53.7943C53.7943 28.8099 53.8098 28.9499 53.8448 29.0744C53.876 29.1988 53.9265 29.3039 53.9965 29.3894C54.0665 29.475 54.156 29.5411 54.2649 29.5839C54.3738 29.6306 54.51 29.65 54.6694 29.65C54.7939 29.65 54.9145 29.6267 55.039 29.5839C55.1634 29.5411 55.2529 29.4906 55.3151 29.4322L55.4824 29.7473ZM54.545 27.5574C54.331 27.5574 54.1599 27.6119 54.0315 27.7247C53.9032 27.8375 53.8254 28.0281 53.7982 28.3003H55.1479C55.1479 28.0242 55.0934 27.8297 54.9884 27.7208C54.8873 27.6158 54.7356 27.5574 54.545 27.5574ZM56.5481 27.2424H56.8476L56.9293 27.5691H56.9527C57.0343 27.4407 57.1432 27.3435 57.2755 27.2774C57.4077 27.2112 57.5594 27.1762 57.7306 27.1762C58.0923 27.1762 58.3646 27.2851 58.5396 27.4991C58.7185 27.713 58.808 28.0631 58.808 28.5493C58.808 28.7788 58.7769 28.9849 58.7185 29.1677C58.6602 29.3505 58.5746 29.5061 58.4657 29.6345C58.3568 29.7628 58.2246 29.8601 58.0729 29.9301C57.9173 30.0001 57.7461 30.0351 57.5594 30.0351C57.4272 30.0351 57.3183 30.0273 57.2405 30.0118C57.1627 29.9962 57.0771 29.969 56.9877 29.9262V31.0581H56.552V27.2424H56.5481ZM57.6489 27.5574C57.4622 27.5574 57.3183 27.6041 57.2094 27.7013C57.1005 27.7986 57.0266 27.9425 56.9838 28.1409V29.4906C57.0499 29.5411 57.1238 29.58 57.2055 29.6073C57.291 29.6345 57.4 29.6462 57.5361 29.6462C57.785 29.6462 57.9834 29.5528 58.1312 29.3661C58.279 29.1794 58.3529 28.9032 58.3529 28.5415C58.3529 28.3937 58.3412 28.2576 58.314 28.137C58.2868 28.0164 58.2479 27.9114 58.1934 27.8258C58.139 27.7402 58.0651 27.6741 57.9756 27.6274C57.8901 27.5808 57.7811 27.5574 57.6489 27.5574ZM61.7719 29.7473C61.663 29.8329 61.5269 29.9029 61.3596 29.9534C61.1962 30.004 61.0173 30.0312 60.8345 30.0312C60.6284 30.0312 60.4494 29.9962 60.2938 29.9301C60.1421 29.864 60.0177 29.7667 59.9165 29.6423C59.8193 29.5178 59.7454 29.3661 59.6987 29.195C59.6521 29.0199 59.6287 28.8254 59.6287 28.6076C59.6287 28.1448 59.7337 27.7908 59.9399 27.5458C60.146 27.3046 60.4417 27.1801 60.8267 27.1801C60.9512 27.1801 61.0718 27.1957 61.1962 27.2229C61.3207 27.2501 61.4296 27.3007 61.5269 27.3785C61.6241 27.4563 61.7058 27.5613 61.768 27.7013C61.8303 27.8414 61.8614 28.0242 61.8614 28.2537C61.8614 28.3742 61.8497 28.5065 61.8303 28.6504H60.0838C60.0838 28.8099 60.0994 28.9499 60.1344 29.0744C60.1655 29.1988 60.2161 29.3039 60.2861 29.3894C60.3561 29.475 60.4455 29.5411 60.5545 29.5839C60.6634 29.6306 60.7995 29.65 60.959 29.65C61.0834 29.65 61.204 29.6267 61.3285 29.5839C61.453 29.5411 61.5424 29.4906 61.6047 29.4322L61.7719 29.7473ZM60.8345 27.5574C60.6206 27.5574 60.4494 27.6119 60.3211 27.7247C60.1927 27.8375 60.1149 28.0281 60.0877 28.3003H61.4374C61.4374 28.0242 61.3829 27.8297 61.2779 27.7208C61.1768 27.6158 61.0251 27.5574 60.8345 27.5574ZM63.0905 27.7286C63.2111 27.5535 63.3433 27.433 63.4872 27.3629C63.6312 27.2929 63.814 27.2579 64.0318 27.2579C64.3663 27.2579 64.623 27.3668 64.8019 27.5846C64.9809 27.8025 65.0703 28.1253 65.0703 28.5493C65.0703 29.0394 64.9653 29.4089 64.7553 29.6578C64.5452 29.9068 64.2574 30.0351 63.8801 30.0351C63.4795 30.0351 63.18 29.899 62.9816 29.6228C62.7832 29.3467 62.6821 28.9149 62.6821 28.3237C62.6821 28.0125 62.6976 27.7441 62.7288 27.5224C62.7599 27.3007 62.8066 27.114 62.8649 26.9623C62.9232 26.8106 62.9971 26.69 63.0827 26.5967C63.1683 26.5072 63.2655 26.4333 63.3705 26.3827C63.4795 26.3283 63.5961 26.2933 63.7206 26.27C63.849 26.2466 63.9851 26.2311 64.129 26.2155C64.3157 26.196 64.4635 26.1766 64.5724 26.1533C64.6775 26.1299 64.7669 26.0871 64.8292 26.0249L64.8797 26.4178C64.8447 26.4489 64.8019 26.4761 64.7591 26.4994C64.7164 26.5228 64.6619 26.5383 64.5997 26.5539C64.5374 26.5695 64.4635 26.5811 64.378 26.5928C64.2924 26.6045 64.1952 26.6122 64.0824 26.62C63.9268 26.6317 63.7906 26.6511 63.6701 26.6784C63.5534 26.7056 63.4522 26.7562 63.3667 26.8378C63.2811 26.9156 63.215 27.0284 63.1644 27.1685C63.1138 27.3124 63.0827 27.503 63.0633 27.7363H63.0905V27.7286ZM63.1372 28.6115C63.1372 28.7476 63.1527 28.8838 63.18 29.0083C63.2072 29.1366 63.2539 29.2455 63.3122 29.3428C63.3705 29.44 63.4483 29.5139 63.5417 29.5684C63.635 29.6228 63.7478 29.65 63.8723 29.65C64.1212 29.65 64.3079 29.5606 64.4285 29.3817C64.5491 29.2027 64.6113 28.9343 64.6113 28.5843C64.6113 28.4481 64.5997 28.3198 64.5724 28.2031C64.5452 28.0864 64.5063 27.9853 64.4519 27.8997C64.3974 27.8141 64.3274 27.748 64.2457 27.7052C64.164 27.6586 64.0629 27.6391 63.9462 27.6391C63.6623 27.6352 63.4561 27.7169 63.3239 27.888C63.2033 28.0514 63.1372 28.2926 63.1372 28.6115ZM65.8949 28.6037C65.8949 28.1448 65.996 27.7908 66.2022 27.5458C66.4083 27.3007 66.704 27.1762 67.0852 27.1762C67.2874 27.1762 67.4663 27.2112 67.6141 27.2774C67.7658 27.3435 67.8903 27.4407 67.9875 27.5652C68.0848 27.6897 68.1587 27.8414 68.2054 28.0164C68.252 28.1914 68.2754 28.3859 68.2754 28.5998C68.2754 29.0627 68.1742 29.4128 67.9681 29.6578C67.7619 29.9029 67.4663 30.0234 67.0852 30.0234C66.8829 30.0234 66.704 29.9884 66.5562 29.9223C66.4045 29.8562 66.28 29.759 66.1828 29.6345C66.0855 29.51 66.0116 29.3583 65.9649 29.1833C65.9183 29.0121 65.8949 28.8177 65.8949 28.6037ZM66.3461 28.6037C66.3461 28.7399 66.3617 28.876 66.3889 29.0005C66.4161 29.1288 66.4589 29.2377 66.5173 29.3311C66.5756 29.4244 66.6534 29.5022 66.7468 29.5606C66.8401 29.6189 66.9568 29.6462 67.089 29.6462C67.583 29.65 67.8281 29.3 67.8281 28.5998C67.8281 28.4598 67.8164 28.3237 67.7892 28.1953C67.7619 28.067 67.7192 27.958 67.6608 27.8647C67.6025 27.7713 67.5247 27.6936 67.4313 27.6391C67.338 27.5846 67.2213 27.5535 67.089 27.5535C66.5951 27.5574 66.3461 27.9036 66.3461 28.6037ZM70.9515 28.3548L70.967 28.0164H70.9515L70.7297 28.3665L69.5045 29.9651H69.2556V27.2424H69.6912V28.9032L69.6757 29.2261H69.699L69.9129 28.8877L71.1381 27.2424H71.3949V29.9651H70.9592V28.3548H70.9515ZM69.8818 26.1455C69.9168 26.3127 69.979 26.4294 70.0685 26.4956C70.158 26.5617 70.2591 26.5928 70.3758 26.5928C70.4925 26.5928 70.5936 26.5578 70.6869 26.4878C70.7764 26.4178 70.8386 26.305 70.8737 26.1494L71.2004 26.2544C71.1693 26.4644 71.0759 26.6278 70.9203 26.7406C70.7647 26.8534 70.5819 26.9079 70.368 26.9079C70.2708 26.9079 70.1735 26.8962 70.0763 26.869C69.979 26.8417 69.8935 26.8067 69.8196 26.7562C69.7418 26.7056 69.6795 26.6395 69.6251 26.5617C69.5706 26.4839 69.5356 26.3866 69.5162 26.2777L69.8818 26.1455ZM74.1837 28.7632H72.9546V29.9651H72.519V27.2424H72.9546V28.3781H74.1837V27.2424H74.6194V29.9651H74.1837V28.7632ZM75.5918 28.6037C75.5918 28.1448 75.6929 27.7908 75.8991 27.5458C76.1052 27.3007 76.4008 27.1762 76.782 27.1762C76.9843 27.1762 77.1632 27.2112 77.311 27.2774C77.4627 27.3435 77.5872 27.4407 77.6844 27.5652C77.7816 27.6897 77.8555 27.8414 77.9022 28.0164C77.9489 28.1914 77.9722 28.3859 77.9722 28.5998C77.9722 29.0627 77.8711 29.4128 77.665 29.6578C77.4588 29.9029 77.1632 30.0234 76.782 30.0234C76.5798 30.0234 76.4008 29.9884 76.253 29.9223C76.1013 29.8562 75.9769 29.759 75.8796 29.6345C75.7824 29.51 75.7085 29.3583 75.6618 29.1833C75.619 29.0121 75.5918 28.8177 75.5918 28.6037ZM76.0469 28.6037C76.0469 28.7399 76.0624 28.876 76.0897 29.0005C76.1169 29.1288 76.1597 29.2377 76.218 29.3311C76.2764 29.4244 76.3541 29.5022 76.4475 29.5606C76.5408 29.6189 76.6575 29.6462 76.7898 29.6462C77.2838 29.65 77.5288 29.3 77.5288 28.5998C77.5288 28.4598 77.5172 28.3237 77.4899 28.1953C77.4627 28.067 77.4199 27.958 77.3616 27.8647C77.3032 27.7713 77.2293 27.6936 77.1321 27.6391C77.0387 27.5846 76.922 27.5535 76.7898 27.5535C76.2919 27.5574 76.0469 27.9036 76.0469 28.6037ZM80.94 29.7473C80.8311 29.8329 80.695 29.9029 80.5277 29.9534C80.3644 30.004 80.1854 30.0312 80.0026 30.0312C79.7965 30.0312 79.6175 29.9962 79.462 29.9301C79.3103 29.864 79.1858 29.7667 79.0847 29.6423C78.9874 29.5178 78.9135 29.3661 78.8668 29.195C78.8202 29.0199 78.7968 28.8254 78.7968 28.6076C78.7968 28.1448 78.9019 27.7908 79.108 27.5458C79.3142 27.3046 79.6098 27.1801 79.9949 27.1801C80.1193 27.1801 80.2399 27.1957 80.3644 27.2229C80.4888 27.2501 80.5977 27.3007 80.695 27.3785C80.7922 27.4563 80.8739 27.5613 80.9361 27.7013C80.9984 27.8414 81.0295 28.0242 81.0295 28.2537C81.0295 28.3742 81.0178 28.5065 80.9984 28.6504H79.2519C79.2519 28.8099 79.2675 28.9499 79.3025 29.0744C79.3336 29.1988 79.3842 29.3039 79.4542 29.3894C79.5242 29.475 79.6137 29.5411 79.7226 29.5839C79.8354 29.6306 79.9676 29.65 80.1271 29.65C80.2516 29.65 80.376 29.6267 80.4966 29.5839C80.6211 29.5411 80.7105 29.4906 80.7728 29.4322L80.94 29.7473ZM80.0026 27.5574C79.7887 27.5574 79.6175 27.6119 79.4892 27.7247C79.3608 27.8375 79.283 28.0281 79.2558 28.3003H80.6055C80.6055 28.0242 80.5511 27.8297 80.446 27.7208C80.3449 27.6158 80.1971 27.5574 80.0026 27.5574ZM83.7017 28.4131H84.8569C84.8374 28.1564 84.7635 27.9503 84.6313 27.7908C84.499 27.6352 84.3123 27.5574 84.0673 27.5574C83.9195 27.5574 83.7872 27.5769 83.6783 27.6158C83.5694 27.6547 83.48 27.7013 83.4099 27.748L83.2582 27.4174C83.371 27.3396 83.4994 27.2813 83.6433 27.2385C83.7872 27.1957 83.9584 27.1762 84.149 27.1762C84.5535 27.1762 84.8452 27.3007 85.0319 27.5535C85.2186 27.8025 85.3081 28.1525 85.3081 28.6037C85.3081 29.0666 85.1992 29.4206 84.9852 29.6656C84.7713 29.9106 84.4718 30.0312 84.0906 30.0312C83.9195 30.0312 83.7639 30.0196 83.62 29.9923C83.4761 29.9651 83.3555 29.9223 83.2582 29.8679L83.3827 29.4983C83.4644 29.545 83.5694 29.5839 83.69 29.6111C83.8106 29.6384 83.9312 29.65 84.0478 29.65C84.5574 29.6539 84.8258 29.3622 84.8569 28.7749H83.6978V28.4131H83.7017ZM87.9491 28.7632H86.72V29.9651H86.2844V27.2424H86.72V28.3781H87.9491V27.2424H88.3848V29.9651H87.9491V28.7632ZM91.5004 29.7473C91.3915 29.8329 91.2553 29.9029 91.0881 29.9534C90.9247 30.004 90.7497 30.0312 90.563 30.0312C90.3568 30.0312 90.1779 29.9962 90.0223 29.9301C89.8706 29.864 89.7462 29.7667 89.645 29.6423C89.5478 29.5178 89.4739 29.3661 89.4272 29.195C89.3805 29.0199 89.3572 28.8254 89.3572 28.6076C89.3572 28.1448 89.4622 27.7908 89.6684 27.5458C89.8745 27.3046 90.1701 27.1801 90.5552 27.1801C90.6797 27.1801 90.8002 27.1957 90.9247 27.2229C91.0492 27.2501 91.1581 27.3007 91.2553 27.3785C91.3526 27.4563 91.4343 27.5613 91.4965 27.7013C91.5587 27.8414 91.5898 28.0242 91.5898 28.2537C91.5898 28.3742 91.5782 28.5065 91.5587 28.6504H89.8123C89.8123 28.8099 89.8278 28.9499 89.8629 29.0744C89.894 29.1988 89.9445 29.3039 90.0145 29.3894C90.0846 29.475 90.174 29.5411 90.2829 29.5839C90.3957 29.6306 90.528 29.65 90.6875 29.65C90.8119 29.65 90.9325 29.6267 91.057 29.5839C91.1814 29.5411 91.2709 29.4906 91.3331 29.4322L91.5004 29.7473ZM90.563 27.5574C90.349 27.5574 90.1779 27.6119 90.0495 27.7247C89.9212 27.8375 89.8434 28.0281 89.8162 28.3003H91.1659C91.1659 28.0242 91.1114 27.8297 91.0064 27.7208C90.9053 27.6158 90.7536 27.5574 90.563 27.5574ZM92.5661 27.2424H92.8656L92.9473 27.5691H92.9707C93.0523 27.4407 93.1613 27.3435 93.2935 27.2774C93.4258 27.2112 93.5774 27.1762 93.7486 27.1762C94.1103 27.1762 94.3826 27.2851 94.5576 27.4991C94.7366 27.713 94.826 28.0631 94.826 28.5493C94.826 28.7788 94.7949 28.9849 94.7366 29.1677C94.6782 29.3505 94.5926 29.5061 94.4837 29.6345C94.3748 29.7628 94.2426 29.8601 94.0909 29.9301C93.9353 30.0001 93.7641 30.0351 93.5774 30.0351C93.4452 30.0351 93.3363 30.0273 93.2585 30.0118C93.1807 29.9962 93.0951 29.969 93.0057 29.9262V31.0581H92.57V27.2424H92.5661ZM93.6669 27.5574C93.4802 27.5574 93.3363 27.6041 93.2274 27.7013C93.1185 27.7986 93.0446 27.9425 93.0018 28.1409V29.4906C93.0679 29.5411 93.1418 29.58 93.2235 29.6073C93.3052 29.6345 93.418 29.6462 93.5541 29.6462C93.803 29.6462 94.0014 29.5528 94.1492 29.3661C94.297 29.1794 94.3709 28.9032 94.3709 28.5415C94.3709 28.3937 94.3593 28.2576 94.332 28.137C94.3048 28.0164 94.2659 27.9114 94.2115 27.8258C94.157 27.7402 94.0831 27.6741 93.9936 27.6274C93.9081 27.5808 93.7992 27.5574 93.6669 27.5574ZM97.3932 27.6235H96.238V29.9651H95.8023V27.2424H97.3932V27.6235ZM97.8599 28.6037C97.8599 28.1448 97.9611 27.7908 98.1672 27.5458C98.3734 27.3007 98.669 27.1762 99.0502 27.1762C99.2524 27.1762 99.4313 27.2112 99.5791 27.2774C99.7308 27.3435 99.8553 27.4407 99.9526 27.5652C100.05 27.6897 100.124 27.8414 100.17 28.0164C100.217 28.1914 100.24 28.3859 100.24 28.5998C100.24 29.0627 100.139 29.4128 99.9331 29.6578C99.727 29.9029 99.4313 30.0234 99.0502 30.0234C98.8479 30.0234 98.669 29.9884 98.5212 29.9223C98.3695 29.8562 98.245 29.759 98.1478 29.6345C98.0505 29.51 97.9766 29.3583 97.9299 29.1833C97.8872 29.0121 97.8599 28.8177 97.8599 28.6037ZM98.315 28.6037C98.315 28.7399 98.3306 28.876 98.3578 29.0005C98.385 29.1288 98.4278 29.2377 98.4862 29.3311C98.5445 29.4244 98.6223 29.5022 98.7156 29.5606C98.809 29.6189 98.9257 29.6462 99.0579 29.6462C99.5519 29.65 99.797 29.3 99.797 28.5998C99.797 28.4598 99.7853 28.3237 99.7581 28.1953C99.7309 28.067 99.6881 27.958 99.6297 27.8647C99.5714 27.7713 99.4975 27.6936 99.4002 27.6391C99.3069 27.5846 99.1902 27.5535 99.0579 27.5535C98.5601 27.5574 98.315 27.9036 98.315 28.6037ZM103.076 29.7862C102.967 29.8679 102.839 29.9262 102.691 29.969C102.543 30.0118 102.387 30.0312 102.224 30.0312C102.014 30.0312 101.835 29.9962 101.691 29.9301C101.547 29.864 101.427 29.7667 101.333 29.6423C101.24 29.5178 101.174 29.3661 101.131 29.1911C101.088 29.016 101.069 28.8215 101.069 28.6076C101.069 28.1486 101.17 27.7947 101.372 27.5496C101.575 27.3046 101.866 27.1801 102.247 27.1801C102.422 27.1801 102.57 27.1957 102.691 27.2229C102.811 27.2501 102.924 27.289 103.021 27.3396L102.897 27.7169C102.815 27.6702 102.722 27.6313 102.621 27.6041C102.52 27.5769 102.411 27.5613 102.294 27.5613C101.781 27.5613 101.52 27.9114 101.52 28.6076C101.52 28.7438 101.536 28.876 101.563 29.0005C101.59 29.1249 101.637 29.2377 101.699 29.3311C101.761 29.4283 101.847 29.5061 101.948 29.5606C102.053 29.6189 102.177 29.6462 102.333 29.6462C102.465 29.6462 102.582 29.6267 102.683 29.5878C102.788 29.5489 102.87 29.5022 102.936 29.4517L103.076 29.7862ZM105.631 28.7632H104.402V29.9651H103.967V27.2424H104.402V28.3781H105.631V27.2424H106.067V29.9651H105.631V28.7632ZM107.152 27.4446C107.288 27.3629 107.452 27.3007 107.635 27.2579C107.817 27.219 108.008 27.1996 108.21 27.1996C108.401 27.1996 108.549 27.2268 108.665 27.2774C108.778 27.3279 108.868 27.3941 108.926 27.4757C108.984 27.5574 109.027 27.6469 109.047 27.7441C109.066 27.8414 109.078 27.9386 109.078 28.0397C109.078 28.2576 109.074 28.4715 109.062 28.6776C109.05 28.8838 109.047 29.0822 109.047 29.265C109.047 29.4011 109.05 29.5256 109.062 29.6462C109.074 29.7667 109.093 29.8756 109.12 29.9768H108.798L108.685 29.5956H108.658C108.626 29.6462 108.584 29.6967 108.533 29.7473C108.483 29.7979 108.424 29.8406 108.358 29.8795C108.288 29.9184 108.21 29.9495 108.117 29.9729C108.027 30.0001 107.922 30.0118 107.806 30.0118C107.689 30.0118 107.58 29.9923 107.483 29.9573C107.382 29.9223 107.296 29.8679 107.226 29.8017C107.152 29.7356 107.098 29.6539 107.055 29.5606C107.012 29.4672 106.993 29.3583 106.993 29.2377C106.993 29.0783 107.024 28.946 107.09 28.8371C107.156 28.7282 107.246 28.6465 107.366 28.5804C107.483 28.5182 107.627 28.4715 107.79 28.4443C107.954 28.417 108.136 28.4054 108.339 28.4054C108.389 28.4054 108.44 28.4054 108.486 28.4054C108.537 28.4054 108.584 28.4092 108.638 28.417C108.65 28.3081 108.654 28.2109 108.654 28.1214C108.654 27.923 108.615 27.783 108.533 27.7013C108.451 27.6235 108.307 27.5808 108.097 27.5808C108.035 27.5808 107.969 27.5846 107.899 27.5924C107.829 27.6002 107.755 27.6158 107.681 27.6313C107.607 27.6469 107.537 27.6663 107.467 27.6897C107.401 27.713 107.343 27.7402 107.292 27.7675L107.152 27.4446ZM107.926 29.6267C108.027 29.6267 108.117 29.6111 108.199 29.5839C108.28 29.5567 108.346 29.5217 108.405 29.4789C108.463 29.4361 108.51 29.3894 108.549 29.3389C108.588 29.2883 108.615 29.2377 108.634 29.1911V28.7399C108.584 28.736 108.533 28.7321 108.479 28.7321C108.428 28.7321 108.374 28.7282 108.323 28.7282C108.21 28.7282 108.101 28.736 107.992 28.7476C107.887 28.7593 107.79 28.7827 107.708 28.8177C107.627 28.8527 107.561 28.8993 107.514 28.9577C107.463 29.016 107.44 29.0938 107.44 29.1833C107.44 29.3116 107.487 29.4128 107.576 29.4945C107.67 29.5878 107.782 29.6267 107.926 29.6267ZM110.435 27.7286C110.556 27.5535 110.688 27.433 110.832 27.3629C110.976 27.2929 111.159 27.2579 111.376 27.2579C111.711 27.2579 111.968 27.3668 112.147 27.5846C112.325 27.8025 112.415 28.1253 112.415 28.5493C112.415 29.0394 112.31 29.4089 112.1 29.6578C111.89 29.9068 111.602 30.0351 111.225 30.0351C110.824 30.0351 110.525 29.899 110.326 29.6228C110.128 29.3467 110.027 28.9149 110.027 28.3237C110.027 28.0125 110.042 27.7441 110.073 27.5224C110.105 27.3007 110.151 27.114 110.21 26.9623C110.268 26.8106 110.342 26.69 110.427 26.5967C110.513 26.5072 110.61 26.4333 110.715 26.3827C110.824 26.3283 110.941 26.2933 111.065 26.27C111.194 26.2466 111.33 26.2311 111.474 26.2155C111.66 26.196 111.808 26.1766 111.917 26.1533C112.022 26.1299 112.112 26.0871 112.174 26.0249L112.224 26.4178C112.189 26.4489 112.147 26.4761 112.104 26.4994C112.061 26.5228 112.007 26.5383 111.944 26.5539C111.882 26.5695 111.808 26.5811 111.723 26.5928C111.637 26.6045 111.54 26.6122 111.427 26.62C111.271 26.6317 111.135 26.6511 111.015 26.6784C110.898 26.7056 110.797 26.7562 110.711 26.8378C110.626 26.9156 110.56 27.0284 110.509 27.1685C110.458 27.3124 110.427 27.503 110.408 27.7363H110.435V27.7286ZM110.486 28.6115C110.486 28.7476 110.501 28.8838 110.528 29.0083C110.556 29.1366 110.602 29.2455 110.661 29.3428C110.719 29.44 110.797 29.5139 110.89 29.5684C110.984 29.6228 111.096 29.65 111.221 29.65C111.47 29.65 111.656 29.5606 111.777 29.3817C111.898 29.2027 111.96 28.9343 111.96 28.5843C111.96 28.4481 111.948 28.3198 111.921 28.2031C111.894 28.0864 111.855 27.9853 111.8 27.8997C111.746 27.8141 111.676 27.748 111.594 27.7052C111.513 27.6586 111.411 27.6391 111.295 27.6391C111.011 27.6352 110.805 27.7169 110.672 27.888C110.552 28.0514 110.486 28.2926 110.486 28.6115ZM114.247 28.7632L113.446 29.9651H112.944L113.804 28.7204L113.99 28.5571L113.714 28.3509L113.006 27.2462H113.469L114.22 28.4209H114.504V27.2462H114.928V28.4754L115.184 28.3976L115.943 27.2424H116.398L115.659 28.347L115.445 28.522L115.721 28.7399L116.526 29.9651H116.009L115.208 28.7399H114.924V29.9651H114.5V28.6854L114.247 28.7632ZM119.187 29.7473C119.078 29.8329 118.942 29.9029 118.775 29.9534C118.611 30.004 118.432 30.0312 118.249 30.0312C118.043 30.0312 117.864 29.9962 117.709 29.9301C117.557 29.864 117.433 29.7667 117.331 29.6423C117.234 29.5178 117.16 29.3661 117.114 29.195C117.067 29.0199 117.044 28.8254 117.044 28.6076C117.044 28.1448 117.149 27.7908 117.355 27.5458C117.561 27.3046 117.857 27.1801 118.242 27.1801C118.366 27.1801 118.487 27.1957 118.611 27.2229C118.736 27.2501 118.845 27.3007 118.942 27.3785C119.039 27.4563 119.121 27.5613 119.183 27.7013C119.245 27.8414 119.276 28.0242 119.276 28.2537C119.276 28.3742 119.265 28.5065 119.245 28.6504H117.499C117.499 28.8099 117.514 28.9499 117.549 29.0744C117.58 29.1988 117.631 29.3039 117.701 29.3894C117.771 29.475 117.86 29.5411 117.969 29.5839C118.078 29.6306 118.214 29.65 118.374 29.65C118.498 29.65 118.623 29.6267 118.743 29.5839C118.868 29.5411 118.957 29.4906 119.02 29.4322L119.187 29.7473ZM118.249 27.5574C118.035 27.5574 117.864 27.6119 117.736 27.7247C117.608 27.8375 117.53 28.0281 117.503 28.3003H118.852C118.852 28.0242 118.798 27.8297 118.693 27.7208C118.592 27.6158 118.444 27.5574 118.249 27.5574ZM121.921 28.7632H120.692V29.9651H120.256V27.2424H120.692V28.3781H121.921V27.2424H122.357V29.9651H121.921V28.7632ZM125.185 28.3548L125.2 28.0164H125.185L124.963 28.3665L123.738 29.9651H123.489V27.2424H123.924V28.9032L123.909 29.2261H123.932L124.146 28.8877L125.371 27.2424H125.628V29.9651H125.192V28.3548H125.185ZM128.732 29.7473C128.623 29.8329 128.487 29.9029 128.32 29.9534C128.156 30.004 127.977 30.0312 127.795 30.0312C127.588 30.0312 127.409 29.9962 127.254 29.9301C127.102 29.864 126.978 29.7667 126.877 29.6423C126.779 29.5178 126.705 29.3661 126.659 29.195C126.612 29.0199 126.589 28.8254 126.589 28.6076C126.589 28.1448 126.694 27.7908 126.9 27.5458C127.106 27.3046 127.402 27.1801 127.787 27.1801C127.911 27.1801 128.032 27.1957 128.156 27.2229C128.281 27.2501 128.39 27.3007 128.487 27.3785C128.584 27.4563 128.666 27.5613 128.728 27.7013C128.79 27.8414 128.821 28.0242 128.821 28.2537C128.821 28.3742 128.81 28.5065 128.79 28.6504H127.044C127.044 28.8099 127.059 28.9499 127.094 29.0744C127.126 29.1988 127.176 29.3039 127.246 29.3894C127.316 29.475 127.406 29.5411 127.515 29.5839C127.623 29.6306 127.76 29.65 127.919 29.65C128.043 29.65 128.168 29.6267 128.289 29.5839C128.413 29.5411 128.502 29.4906 128.565 29.4322L128.732 29.7473ZM127.798 27.5574C127.585 27.5574 127.413 27.6119 127.285 27.7247C127.157 27.8375 127.079 28.0281 127.052 28.3003H128.401C128.401 28.0242 128.347 27.8297 128.242 27.7208C128.137 27.6158 127.989 27.5574 127.798 27.5574Z" fill="#EF7D00"/>
    <defs>
    <linearGradient id="paint0_linear_256_11623" x1="41.8407" y1="13.589" x2="8.28898" y2="13.589" gradientUnits="userSpaceOnUse">
    <stop stop-color="#EC6608"/>
    <stop offset="1" stop-color="#FFCC00"/>
    </linearGradient>
    <linearGradient id="paint1_linear_256_11623" x1="41.8407" y1="13.589" x2="8.28898" y2="13.589" gradientUnits="userSpaceOnUse">
    <stop stop-color="#EC6608"/>
    <stop offset="1" stop-color="#FFCC00"/>
    </linearGradient>
    </defs>
    </svg>
    