<svg width="16" height="18" viewBox="0 0 16 18" fill="none" xmlns="http://www.w3.org/2000/svg">
<g clip-path="url(#clip0_4_149)">
<path d="M14.6666 12.084V14.1893C14.6674 14.3847 14.6294 14.5782 14.555 14.7572C14.4806 14.9363 14.3715 15.0971 14.2347 15.2292C14.0979 15.3613 13.9364 15.4619 13.7605 15.5245C13.5846 15.5871 13.3982 15.6104 13.2133 15.5928C11.1619 15.3581 9.19131 14.6203 7.45998 13.4384C5.84919 12.361 4.48353 10.9234 3.45998 9.22787C2.33329 7.39714 1.63214 5.31278 1.41331 3.14366C1.39665 2.9496 1.41856 2.75402 1.47764 2.56936C1.53673 2.38471 1.63169 2.21502 1.75649 2.07112C1.88128 1.92721 2.03318 1.81223 2.2025 1.7335C2.37183 1.65477 2.55487 1.61402 2.73998 1.61384H4.73998C5.06351 1.61049 5.37717 1.73109 5.62248 1.95316C5.8678 2.17523 6.02803 2.48362 6.07331 2.82086C6.15772 3.49459 6.31428 4.1561 6.53998 4.79278C6.62967 5.04396 6.64908 5.31694 6.59591 5.57937C6.54274 5.8418 6.41922 6.08269 6.23998 6.27349L5.39331 7.16471C6.34235 8.92159 7.72428 10.3763 9.39331 11.3752L10.24 10.484C10.4212 10.2953 10.6501 10.1653 10.8994 10.1093C11.1487 10.0534 11.408 10.0738 11.6466 10.1682C12.2515 10.4058 12.8799 10.5706 13.52 10.6595C13.8438 10.7075 14.1396 10.8792 14.351 11.1419C14.5624 11.4046 14.6748 11.7399 14.6666 12.084Z" stroke="#444444" stroke-width="1.3" stroke-linecap="round" stroke-linejoin="round"/>
</g>
<defs>
<clipPath id="clip0_4_149">
<rect width="16" height="16.8421" fill="white" transform="translate(0 0.210449)"/>
</clipPath>
</defs>
</svg>
