<svg width="20" height="20" viewBox="0 0 20 20" fill="none" xmlns="http://www.w3.org/2000/svg">
<g clip-path="url(#clip0_7_13)">
<path d="M10 0C7.34844 0 4.80312 1.05422 2.92969 2.92891C1.05432 4.80434 0.000519484 7.34778 0 10C0 12.6511 1.05469 15.1964 2.92969 17.0711C4.80312 18.9458 7.34844 20 10 20C12.6516 20 15.1969 18.9458 17.0703 17.0711C18.9453 15.1964 20 12.6511 20 10C20 7.34891 18.9453 4.80359 17.0703 2.92891C15.1969 1.05422 12.6516 0 10 0Z" fill="url(#paint0_linear_7_13)"/>
<path d="M4.52658 9.89429C7.4422 8.62429 9.38595 7.78694 10.3578 7.38241C13.136 6.22726 13.7125 6.02663 14.0891 6.01983C14.1719 6.01851 14.3563 6.03898 14.4766 6.13624C14.5766 6.21827 14.6047 6.32921 14.6188 6.4071C14.6313 6.48491 14.6485 6.66226 14.6344 6.80069C14.4844 8.38194 13.8328 12.2191 13.5016 13.9902C13.3625 14.7396 13.086 14.9908 12.8188 15.0154C12.2375 15.0688 11.7969 14.6316 11.2344 14.263C10.3547 13.686 9.85783 13.3269 9.00314 12.764C8.01564 12.1134 8.65627 11.7557 9.21877 11.1713C9.36564 11.0184 11.925 8.69101 11.9735 8.47991C11.9797 8.45351 11.986 8.35507 11.9266 8.30319C11.8688 8.25116 11.7828 8.26898 11.7203 8.28304C11.6313 8.30304 10.2266 9.23241 7.50158 11.071C7.10314 11.3451 6.7422 11.4787 6.4172 11.4716C6.06095 11.464 5.37345 11.2698 4.86251 11.1038C4.23751 10.9002 3.73908 10.7926 3.78283 10.4468C3.8047 10.2668 4.05314 10.0826 4.52658 9.89429Z" fill="white"/>
</g>
<defs>
<linearGradient id="paint0_linear_7_13" x1="10" y1="0" x2="10" y2="20" gradientUnits="userSpaceOnUse">
<stop stop-color="#2AABEE"/>
<stop offset="1" stop-color="#229ED9"/>
</linearGradient>
<clipPath id="clip0_7_13">
<rect width="20" height="20" fill="white"/>
</clipPath>
</defs>
</svg>
