<svg width="22" height="22" viewBox="0 0 22 22" fill="none" xmlns="http://www.w3.org/2000/svg">
<g clip-path="url(#clip0_7_11)">
<path fill-rule="evenodd" clip-rule="evenodd" d="M21.4958 5.45225C21.648 4.95175 21.4958 4.58325 20.7671 4.58325H18.3608C17.7485 4.58325 17.4662 4.90134 17.3131 5.25242C17.3131 5.25242 16.0893 8.18209 14.3559 10.0851C13.7949 10.6369 13.5401 10.812 13.2339 10.812C13.0808 10.812 12.8507 10.6369 12.8507 10.1355V5.45225C12.8507 4.85092 12.6821 4.58325 12.1724 4.58325H8.38842C8.00617 4.58325 7.77608 4.86192 7.77608 5.12684C7.77608 5.69609 8.64325 5.82809 8.73217 7.43042V10.9119C8.73217 11.6755 8.59192 11.8139 8.28575 11.8139C7.46992 11.8139 5.48533 8.8705 4.30742 5.50267C4.07917 4.84725 3.84817 4.58325 3.23308 4.58325H0.825C0.1375 4.58325 0 4.90134 0 5.25242C0 5.87759 0.815833 8.98325 3.79958 13.0908C5.78875 15.8958 8.58917 17.4166 11.1403 17.4166C12.6702 17.4166 12.859 17.0793 12.859 16.4972V14.3769C12.859 13.7013 13.0038 13.5666 13.4888 13.5666C13.8463 13.5666 14.4577 13.7426 15.8858 15.0947C17.5175 16.6979 17.7861 17.4166 18.7046 17.4166H21.1108C21.7983 17.4166 22.143 17.0793 21.945 16.4119C21.7268 15.7483 20.9477 14.7848 19.9146 13.6418C19.3536 12.9909 18.5121 12.2897 18.2563 11.9386C17.8998 11.4885 18.0015 11.2878 18.2563 10.8872C18.2563 10.8872 21.1897 6.83 21.4949 5.45225H21.4958Z" fill="#2384DE"/>
</g>
<defs>
<clipPath id="clip0_7_11">
<rect width="22" height="22" fill="white"/>
</clipPath>
</defs>
</svg>
