<svg width="20" height="20" viewBox="0 0 20 20" fill="none" xmlns="http://www.w3.org/2000/svg">
<g clip-path="url(#clip0_7_16)">
<path d="M0.426964 9.88041C0.426495 11.5608 0.868987 13.2016 1.71038 14.6478L0.346497 19.589L5.44265 18.2631C6.85218 19.0245 8.43145 19.4235 10.0363 19.4236H10.0405C15.3385 19.4236 19.6511 15.1458 19.6534 9.88793C19.6544 7.3401 18.6554 4.94428 16.8403 3.1418C15.0254 1.33948 12.6118 0.346378 10.0401 0.345215C4.74157 0.345215 0.429229 4.62273 0.427042 9.88041" fill="url(#paint0_linear_7_16)"/>
<path d="M7.55304 5.74801C7.36664 5.33692 7.17047 5.32863 6.99321 5.32142C6.84805 5.31522 6.68212 5.31568 6.51634 5.31568C6.35041 5.31568 6.0808 5.37762 5.85292 5.62452C5.6248 5.87165 4.98199 6.46886 4.98199 7.68351C4.98199 8.89824 5.87362 10.0721 5.99791 10.237C6.12236 10.4016 7.71921 12.974 10.2482 13.9636C12.3501 14.786 12.7778 14.6224 13.2339 14.5812C13.6902 14.5401 14.7061 13.9841 14.9134 13.4076C15.1208 12.8312 15.1208 12.3371 15.0586 12.2338C14.9964 12.131 14.8305 12.0692 14.5817 11.9458C14.3328 11.8223 13.1095 11.225 12.8815 11.1426C12.6533 11.0603 12.4875 11.0192 12.3215 11.2664C12.1556 11.5132 11.6791 12.0692 11.5339 12.2338C11.3888 12.3989 11.2436 12.4194 10.9949 12.2959C10.7459 12.172 9.94456 11.9116 8.99387 11.0706C8.2542 10.4162 7.75483 9.60808 7.60968 9.36088C7.46453 9.11405 7.59413 8.98026 7.7189 8.85723C7.83069 8.74661 7.9678 8.56894 8.09233 8.42483C8.21639 8.28064 8.25779 8.17777 8.34076 8.01312C8.42381 7.84832 8.38224 7.70413 8.32014 7.58064C8.25779 7.45715 7.77429 6.23622 7.55304 5.74809" fill="white"/>
</g>
<defs>
<linearGradient id="paint0_linear_7_16" x1="9.99995" y1="19.589" x2="9.99995" y2="0.345215" gradientUnits="userSpaceOnUse">
<stop stop-color="#1FAF38"/>
<stop offset="1" stop-color="#60D669"/>
</linearGradient>
<clipPath id="clip0_7_16">
<rect width="20" height="20" fill="white"/>
</clipPath>
</defs>
</svg>
