<svg width="22" height="16" viewBox="0 0 22 16" fill="none" xmlns="http://www.w3.org/2000/svg">
<g clip-path="url(#clip0_7_8)">
<path d="M21.5138 2.49556C21.3876 2.0132 21.1415 1.57346 20.7999 1.22011C20.4583 0.866766 20.0332 0.612143 19.5669 0.4816C17.8597 0 10.9888 0 10.9888 0C10.9888 0 4.11766 0.0145777 2.41048 0.496178C1.94415 0.626729 1.51903 0.881365 1.17744 1.23473C0.835849 1.58809 0.589712 2.02786 0.463541 2.51022C-0.0528414 5.64782 -0.253156 10.4288 0.47772 13.4409C0.603904 13.9232 0.850047 14.363 1.19164 14.7163C1.53323 15.0697 1.95834 15.3243 2.42466 15.4548C4.13184 15.9364 11.0028 15.9364 11.0028 15.9364C11.0028 15.9364 17.8738 15.9364 19.5809 15.4548C20.0472 15.3243 20.4723 15.0697 20.8139 14.7163C21.1555 14.363 21.4017 13.9233 21.5279 13.4409C22.0725 10.2988 22.2404 5.52089 21.5138 2.49564V2.49556Z" fill="#FF0000"/>
<path d="M8.80188 11.3831L14.5018 7.96816L8.80188 4.55322V11.3831Z" fill="white"/>
</g>
<defs>
<clipPath id="clip0_7_8">
<rect width="22" height="16" fill="white"/>
</clipPath>
</defs>
</svg>
