<svg width="122" height="102" viewBox="0 0 122 102" fill="none" xmlns="http://www.w3.org/2000/svg">
    <path d="M25.1304 64.3921H58.9924V69.7146H30.4529C29.0413 69.7146 27.6875 69.1539 26.6893 68.1557C25.6911 67.1575 25.1304 65.8037 25.1304 64.3921Z" fill="#FFE817"/>
    <path d="M70.2989 46.3768V48.7805C69.9491 48.7487 69.5866 48.7233 69.2242 48.7233C66.511 48.7283 63.9105 49.8088 61.9926 51.7279C60.0747 53.647 58.9958 56.2482 58.9924 58.9614V62.3953H25.1304V35.8525H59.781C62.5705 35.8559 65.2448 36.966 67.2168 38.9391C69.1887 40.9123 70.2972 43.5872 70.2989 46.3768Z" fill="#FFE817"/>
    <path d="M69.2244 50.72C71.4169 50.72 73.5196 51.5909 75.0699 53.1413C76.6203 54.6916 77.4912 56.7943 77.4912 58.9868V69.74H60.9894V58.9613C60.9961 56.7787 61.8657 54.6874 63.4084 53.1435C64.9512 51.5995 67.0419 50.7284 69.2244 50.72Z" fill="#FFE817"/>
    <path d="M84.0028 19.8468H54.4459C57.6254 15.5481 63.2214 12.8518 69.2243 12.8518C75.2273 12.8518 80.836 15.5481 84.0028 19.8468Z" fill="#FFE817"/>
    <path d="M72.6457 22.3774C72.6457 23.2915 72.2825 24.1682 71.6362 24.8146C70.9898 25.4609 70.1132 25.8241 69.1991 25.8241C68.285 25.8241 67.4083 25.4609 66.7619 24.8146C66.1156 24.1682 65.7524 23.2915 65.7524 22.3774C65.7544 22.1964 65.7693 22.0158 65.797 21.8369H72.6457C72.6617 22.0167 72.6617 22.1976 72.6457 22.3774Z" fill="#FFE817"/>
    <path d="M79.4623 58.9613C79.4592 56.7841 78.763 54.6644 77.4744 52.9094C76.1859 51.1544 74.372 49.8552 72.2957 49.2001V46.3767C72.2957 43.057 70.9774 39.8732 68.6306 37.5253C66.2838 35.1773 63.1007 33.8574 59.781 33.8557H25.1304V5.32254C25.1304 4.62357 25.2681 3.93146 25.5356 3.2857C25.8031 2.63994 26.1951 2.05318 26.6894 1.55894C27.1836 1.0647 27.7704 0.672639 28.4161 0.405156C29.0619 0.137673 29.754 0 30.453 0H68.2259V10.8804C61.1419 11.192 54.8718 14.753 51.7431 20.349C51.6555 20.5007 51.6097 20.6729 51.6102 20.8481C51.6107 21.0233 51.6576 21.1952 51.7461 21.3463C51.8346 21.4975 51.9616 21.6225 52.1141 21.7087C52.2666 21.7949 52.4392 21.8392 52.6143 21.8371H63.8127C63.8032 22.0171 63.8032 22.1975 63.8127 22.3776C63.8127 23.8212 64.3862 25.2058 65.407 26.2266C66.4278 27.2474 67.8124 27.8209 69.256 27.8209C70.6997 27.8209 72.0842 27.2474 73.1051 26.2266C74.1259 25.2058 74.6994 23.8212 74.6994 22.3776C74.6994 22.1995 74.6994 22.0151 74.6994 21.8371H85.8977C86.0723 21.8381 86.2441 21.793 86.3957 21.7063C86.5473 21.6196 86.6734 21.4945 86.7611 21.3435C86.8489 21.1926 86.8952 21.0211 86.8955 20.8465C86.8957 20.6719 86.8499 20.5003 86.7626 20.349C83.6212 14.753 77.3702 11.192 70.2798 10.8804V0H89.5796C90.9912 0 92.3451 0.560771 93.3432 1.55894C94.3414 2.55711 94.9022 3.91091 94.9022 5.32254V64.392C94.9022 65.8036 94.3414 67.1574 93.3432 68.1556C92.3451 69.1537 90.9912 69.7145 89.5796 69.7145H79.4623V58.9613Z" fill="#214E77"/>
    <path d="M17.82 94.3911H1.84C1.69333 94.3911 1.56667 94.3378 1.46 94.2311C1.35333 94.1244 1.3 93.9978 1.3 93.8511V80.9311C1.3 80.7711 1.35333 80.6444 1.46 80.5511C1.56667 80.4444 1.69333 80.3911 1.84 80.3911H5.56C5.70667 80.3911 5.83333 80.4444 5.94 80.5511C6.04667 80.6578 6.1 80.7844 6.1 80.9311V89.9911H7.64V80.9311C7.64 80.7844 7.69333 80.6578 7.8 80.5511C7.90667 80.4444 8.03333 80.3911 8.18 80.3911H11.5C11.6467 80.3911 11.7733 80.4444 11.88 80.5511C11.9867 80.6578 12.04 80.7844 12.04 80.9311V89.9911H13.56V80.9311C13.56 80.7844 13.6133 80.6578 13.72 80.5511C13.8267 80.4444 13.9533 80.3911 14.1 80.3911H17.82C17.9667 80.3911 18.0933 80.4444 18.2 80.5511C18.3067 80.6578 18.36 80.7844 18.36 80.9311V93.8511C18.36 93.9978 18.3067 94.1244 18.2 94.2311C18.0933 94.3378 17.9667 94.3911 17.82 94.3911ZM21.368 91.4111C21.368 89.5711 22.828 88.4178 25.748 87.9511L27.868 87.6111C27.868 87.2111 27.8346 86.9444 27.768 86.8111C27.7013 86.6644 27.5413 86.5911 27.288 86.5911C27.048 86.5911 26.808 86.6978 26.568 86.9111C26.328 87.1244 26.1013 87.2311 25.888 87.2311H22.488C22.1946 87.2311 22.048 87.0911 22.048 86.8111C22.048 86.5178 22.148 86.2111 22.348 85.8911C22.5613 85.5578 22.8613 85.2311 23.248 84.9111C23.648 84.5911 24.2013 84.3244 24.908 84.1111C25.628 83.8978 26.428 83.7911 27.308 83.7911C29.0946 83.7911 30.4346 84.1644 31.328 84.9111C32.2213 85.6578 32.668 86.7244 32.668 88.1111V93.8511C32.668 93.9978 32.6146 94.1244 32.508 94.2311C32.4013 94.3378 32.2746 94.3911 32.128 94.3911H28.628C28.4813 94.3911 28.3546 94.3378 28.248 94.2311C28.1413 94.1244 28.088 93.9978 28.088 93.8511V93.2911C27.4613 94.1578 26.548 94.5911 25.348 94.5911C24.148 94.5911 23.1813 94.2911 22.448 93.6911C21.728 93.0778 21.368 92.3178 21.368 91.4111ZM26.628 91.6311C27.4946 91.6311 27.928 91.1111 27.928 90.0711L26.748 90.3311C26.1613 90.4644 25.868 90.7111 25.868 91.0711C25.868 91.2311 25.9346 91.3644 26.068 91.4711C26.2013 91.5778 26.388 91.6311 26.628 91.6311ZM36.0986 83.9911H44.0186C44.1653 83.9911 44.2919 84.0444 44.3986 84.1511C44.5053 84.2578 44.5586 84.3844 44.5586 84.5311V86.9511C44.5586 87.0978 44.5053 87.2244 44.3986 87.3311C44.2919 87.4378 44.1653 87.4911 44.0186 87.4911H40.1586V93.8511C40.1586 93.9978 40.1053 94.1244 39.9986 94.2311C39.8919 94.3378 39.7653 94.3911 39.6186 94.3911H36.1186C35.9719 94.3911 35.8453 94.3378 35.7386 94.2311C35.6319 94.1244 35.5786 93.9978 35.5786 93.8511L35.5586 84.5311C35.5586 84.3844 35.6119 84.2578 35.7186 84.1511C35.8253 84.0444 35.9519 83.9911 36.0986 83.9911ZM48.0041 80.3911H51.6241C51.7707 80.3911 51.8974 80.4444 52.0041 80.5511C52.1107 80.6578 52.1641 80.7844 52.1641 80.9311V86.3911L55.5441 80.8511C55.7174 80.5444 55.9907 80.3911 56.3641 80.3911H59.5241C59.6707 80.3911 59.7974 80.4444 59.9041 80.5511C60.0107 80.6578 60.0641 80.7844 60.0641 80.9311V93.8511C60.0641 93.9978 60.0107 94.1244 59.9041 94.2311C59.7974 94.3378 59.6707 94.3911 59.5241 94.3911H55.9041C55.7574 94.3911 55.6307 94.3378 55.5241 94.2311C55.4174 94.1244 55.3641 93.9978 55.3641 93.8511V88.8311L51.9841 93.9311C51.7841 94.2378 51.5107 94.3911 51.1641 94.3911H48.0041C47.8574 94.3911 47.7307 94.3378 47.6241 94.2311C47.5174 94.1244 47.4641 93.9978 47.4641 93.8511V80.9311C47.4641 80.7844 47.5174 80.6578 47.6241 80.5511C47.7307 80.4444 47.8574 80.3911 48.0041 80.3911ZM74.2794 94.3911H70.6994C70.5527 94.3911 70.426 94.3378 70.3194 94.2311C70.2127 94.1244 70.1594 93.9978 70.1594 93.8511V90.8911H68.0194V93.8511C68.0194 93.9978 67.966 94.1244 67.8594 94.2311C67.7527 94.3378 67.626 94.3911 67.4794 94.3911H63.8994C63.7527 94.3911 63.626 94.3378 63.5194 94.2311C63.4127 94.1244 63.3594 93.9978 63.3594 93.8511V84.5311C63.3594 84.3844 63.4127 84.2578 63.5194 84.1511C63.626 84.0444 63.7527 83.9911 63.8994 83.9911H67.4794C67.626 83.9911 67.7527 84.0444 67.8594 84.1511C67.966 84.2578 68.0194 84.3844 68.0194 84.5311V87.3911H70.1594V84.5311C70.1594 84.3844 70.2127 84.2578 70.3194 84.1511C70.426 84.0444 70.5527 83.9911 70.6994 83.9911H74.2794C74.426 83.9911 74.5527 84.0444 74.6594 84.1511C74.766 84.2578 74.8194 84.3844 74.8194 84.5311V93.8511C74.8194 93.9978 74.766 94.1244 74.6594 94.2311C74.5527 94.3378 74.426 94.3911 74.2794 94.3911ZM77.5564 83.9911H87.4564C87.6031 83.9911 87.7297 84.0444 87.8364 84.1511C87.9431 84.2578 87.9964 84.3844 87.9964 84.5311V86.9511C87.9964 87.0978 87.9431 87.2244 87.8364 87.3311C87.7297 87.4378 87.6031 87.4911 87.4564 87.4911H84.7964V93.8511C84.7964 93.9978 84.7431 94.1244 84.6364 94.2311C84.5297 94.3378 84.4031 94.3911 84.2564 94.3911H80.7564C80.6097 94.3911 80.4831 94.3378 80.3764 94.2311C80.2697 94.1244 80.2164 93.9978 80.2164 93.8511V87.4911H77.5564C77.4097 87.4911 77.2831 87.4378 77.1764 87.3311C77.0697 87.2244 77.0164 87.0978 77.0164 86.9511V84.5311C77.0164 84.3844 77.0697 84.2578 77.1764 84.1511C77.2831 84.0444 77.4097 83.9911 77.5564 83.9911ZM100.763 90.3711H94.8031V90.4711C94.8031 91.2844 95.0631 91.6911 95.5831 91.6911C95.7298 91.6911 95.9098 91.5844 96.1231 91.3711C96.3365 91.1578 96.5698 91.0511 96.8231 91.0511H100.603C100.896 91.0511 101.043 91.1978 101.043 91.4911C101.043 92.1444 100.55 92.8244 99.5631 93.5311C98.5898 94.2378 97.2631 94.5911 95.5831 94.5911C93.9165 94.5911 92.5498 94.1578 91.4831 93.2911C90.4298 92.4111 89.9031 91.2044 89.9031 89.6711V88.7111C89.9031 87.2578 90.4431 86.0778 91.5231 85.1711C92.6031 84.2511 94.0165 83.7911 95.7631 83.7911C97.5231 83.7911 98.8831 84.3044 99.8431 85.3311C100.816 86.3578 101.303 87.6578 101.303 89.2311V89.8311C101.303 89.9778 101.25 90.1044 101.143 90.2111C101.036 90.3178 100.91 90.3711 100.763 90.3711ZM96.4031 87.7911C96.4031 86.9911 96.1365 86.5911 95.6031 86.5911C95.0698 86.5911 94.8031 86.9911 94.8031 87.7911V87.8711H96.4031V87.7911ZM115.676 88.4111V89.9911C115.676 91.4844 115.276 92.6244 114.476 93.4111C113.676 94.1978 112.696 94.5911 111.536 94.5911C110.389 94.5911 109.469 94.2778 108.776 93.6511V97.6711C108.776 97.8178 108.723 97.9444 108.616 98.0511C108.509 98.1578 108.383 98.2111 108.236 98.2111H104.536C104.389 98.2111 104.263 98.1578 104.156 98.0511C104.049 97.9444 103.996 97.8178 103.996 97.6711V84.5311C103.996 84.3844 104.049 84.2578 104.156 84.1511C104.263 84.0444 104.389 83.9911 104.536 83.9911H107.936C108.083 83.9911 108.209 84.0444 108.316 84.1511C108.423 84.2578 108.476 84.3844 108.476 84.5311V85.1311C109.169 84.2378 110.149 83.7911 111.416 83.7911C112.683 83.7911 113.709 84.1711 114.496 84.9311C115.283 85.6778 115.676 86.8378 115.676 88.4111ZM108.776 88.5311V90.0111C108.816 90.6778 109.149 91.0111 109.776 91.0111C110.443 91.0111 110.776 90.6244 110.776 89.8511V88.5311C110.776 87.7578 110.443 87.3711 109.776 87.3711C109.109 87.3711 108.776 87.7578 108.776 88.5311Z" fill="#214E77"/>
    </svg>
    